<?xml version="1.0" encoding="utf-8" ?>
<svg baseProfile="full" height="300mm" version="1.1" viewBox="0,0,200,300" width="200mm" xmlns="http://www.w3.org/2000/svg" xmlns:ev="http://www.w3.org/2001/xml-events" xmlns:xlink="http://www.w3.org/1999/xlink"><defs /><rect fill="#222222" height="300" width="200" x="0" y="0" /><text fill="#FFFFFF" style="font-size:12px; font-family:Arial; font-weight:bold;" x="10" y="20">Over 10km Runs</text><text fill="#FFFFFF" style="font-size:4px; font-family:Arial" x="10" y="280">Runner</text><text fill="#FFFFFF" style="font-size:9px; font-family:Arial" x="10" y="290">yihong0618</text><text fill="#FFFFFF" style="font-size:4px; font-family:Arial" x="65" y="280">SPECIAL TRACKS</text><rect fill="yellow" height="2.6" width="2.6" x="65" y="283" /><text fill="#FFFFFF" style="font-size:3px; font-family:Arial" x="70" y="285.5">Over 20.0 km</text><rect fill="red" height="2.6" width="2.6" x="65" y="287" /><text fill="#FFFFFF" style="font-size:3px; font-family:Arial" x="70" y="289.5">Over 40.0 km</text><text fill="#FFFFFF" style="font-size:4px; font-family:Arial" x="120" y="280">STATISTICS</text><text fill="#FFFFFF" style="font-size:3px; font-family:Arial" x="120" y="285">Number: 1</text><text fill="#FFFFFF" style="font-size:3px; font-family:Arial" x="120" y="290">Weekly: 1.0</text><text fill="#FFFFFF" style="font-size:3px; font-family:Arial" x="141" y="285">Total: 12.0 km</text><text fill="#FFFFFF" style="font-size:3px; font-family:Arial" x="141" y="290">Avg: 12.0 km</text><text fill="#FFFFFF" style="font-size:3px; font-family:Arial" x="167" y="285">Min: 12.0 km</text><text fill="#FFFFFF" style="font-size:3px; font-family:Arial" x="167" y="290">Max: 12.0 km</text><polyline fill="none" opacity="1" points="29.56625021994114,207.46166708222154 29.409466830897145,207.45113283265528 29.276438500819495,207.38792729820125 29.148161182471085,207.32998883596883 29.000879817001987,207.31945456438552 28.87735351047013,207.35105737384947 28.64930494458531,207.26678318007907 28.62554988564807,207.16670742870338 28.559035720594693,207.0613643609031 28.468766496574972,207.00342559860292 28.421256378671387,206.82434181488134 28.311983107530978,206.7506012855083 28.24071793066105,206.66105909817634 28.145697694882983,206.6241887487813 28.055428470892366,206.56098238539198 27.89864508184837,206.5451807846439 27.841632940340787,206.42403504731556 27.86538799930713,206.3081562981497 27.732359669200378,206.32922517747647 27.594580327306176,206.2765529659555 27.623086398059968,206.09219987916003 27.532817174011143,206.03426022624262 27.414041879295837,205.9973895103103 27.319021643488668,205.89204448883538 27.2430054548895,205.78669929133684 27.152736230869778,205.67081937079638 27.162238254473777,205.5233355275086 27.300017596338876,205.38111863758968 27.437796938233078,205.35478214129398 27.566074256552383,205.20729755869252 27.532817174011143,205.08614925059737 27.442547950020526,204.98607003787401 27.46155199719942,204.84911927881694 27.504311103286454,204.70163351326482 27.537568185827695,204.56468213630433 27.57557628012728,204.42773046184084 27.475805032561766,204.3223828174814 27.456800985411974,204.1696284204845 27.361780749604804,204.05374552754802 27.219250395923154,204.0379432983791 27.224001407710603,204.03267588777453 27.2430054548895,204.0379432983791 27.214499384135706,204.04321070855076 27.22875241949805,204.0484781182713 27.219250395923154,204.04321070855076 27.20974837234826,204.0484781182713 27.214499384135706,204.04321070855076 27.185993313411018,204.03267588777453 27.133732183719985,203.86411851600133 27.152736230869778,203.7587699297801 27.20499736056081,203.6586886097939 27.271511525614187,203.58494437760965 27.342776702455012,203.527002420371 27.46155199719942,203.44799057466298 27.570825268368935,203.35844369648112 27.684849551296793,203.25309426516833 27.72760865741293,203.16354711011445 27.684849551296793,203.0634648451014 27.58032729194383,202.99498741433126 27.542319197615143,202.8422298007099 27.566074256552383,202.73687950665408 27.57557628012728,202.63679656422028 27.58032729194383,202.49457316213375 27.58032729194383,202.37341964056031 27.480556044349214,202.32074412377915 27.447298961837078,202.26280100446093 27.390286820358597,202.13637946833478 27.456800985411974,201.96781702575754 27.51381312686135,201.86246527022013 27.509062115073903,201.7149725166455 27.55182122119004,201.56747941791764 27.618335386243416,201.4515917410754 27.627837409818312,201.30936566463788 27.656343480543,201.18820986490755 27.618335386243416,201.07758914870647 27.60883336266852,200.96696823832826 27.589829315518728,200.8721501606451 27.589829315518728,200.70885202579302 27.694351574900793,200.58769507165925 27.694351574900793,200.45600246606773 27.661094492359553,200.3243095852813 27.67059651593445,200.18208096495437 27.661094492359553,200.01878104207208 27.675347527721897,199.82914189093572 27.656343480543,199.80280307482099 27.14323420729488,199.04950827416178 27.06246700687916,199.01263347231725 27.043462959700264,198.91254461569042 27.019707900763024,198.83352698501403 26.995952841825783,198.80191990501407 26.96744677107199,198.71763428080885 26.905683617835166,198.64915212812411 26.820165405602893,198.61227709202285 26.758402252366068,198.5648662995991 26.71089213443338,198.49638398090246 26.644377969380002,198.43316946681807 26.525602674664697,198.33307968982626 26.44958648600732,198.24879343853172 26.39257434452884,198.2329897538657 26.28330107338843,198.26986501192005 26.188280837610364,198.30147235880577 26.069505542865954,198.30147235880577 26.002991377812577,198.21718606523427 25.960232271725545,198.12236385020515 25.907971142005408,198.05388105061138 25.79394685907755,198.04861313985748 25.70367763505783,198.0433452286743 25.708428646845277,198.00646983805927 25.746436741144862,198.01173775231655 25.732183705782518,197.99593400818776 25.694175611482933,198.01700566615546 25.66566954072914,198.02227357953961 25.694175611482933,198.01700566615546 25.689424599695485,198.0275414924763 25.679922576091485,198.01700566615546 25.69892662327038,198.00646983805927 25.670420552545693,197.95379067115573 25.627661446429556,197.84843220525363 25.603906387492316,197.77994910794223 25.565898293163627,197.71146593621597 25.527890198864043,197.69566211678102 25.456625021994114,197.64825063470562 25.39486186875729,197.60083911695983 25.314094668312464,197.60610706513035 25.27133556222543,197.5903032192764 25.266584550437983,197.5797673198358 25.176315326418262,197.62717885343955 25.105050149577437,197.65351857892892 25.057540031673852,197.69039417609747 24.98152384304558,197.69039417609747 24.92926271338365,197.72726975168553 24.848495512938825,197.7852170411461 24.78198134788545,197.83262842017575 24.739222241798416,197.8378963489704 24.667957064928487,197.8800397635241 24.606193911691662,197.9063793833011 24.51117367585539,197.9590585898295 24.41140242831898,198.00646983805927 24.330635227874154,198.11182803973134 24.230863980279537,198.16450707448894 24.154847791680368,198.1539712710619 24.0598275558732,198.1539712710619 23.96955833188258,198.1487033686899 23.964807320095133,198.12763175477812 23.964807320095133,198.12236385020515 23.983811367244925,198.13289965891454 23.94580327294534,198.1539712710619 23.888791131437756,198.10656013381958 23.822276966413483,198.0696847801919 23.760513813147554,198.10656013381958 23.684497624490177,198.0591489609069 23.603730424074456,198.05388105061138 23.522963223658735,198.0433452286743 23.44219602321391,197.94325483249486 23.385183881764533,197.91164730594755 23.356677811039845,197.8800397635241 23.3329227520735,197.87477183824376 23.27591061059502,197.7904849739134 23.209396445541643,197.76414530569673 23.1951434101793,197.76941324022846 23.19039239839185,197.75360943531996 23.16663733945461,197.70619799684573 23.1951434101793,197.6166429601799 23.204645433754195,197.54289165791852 23.13338025691337,197.49021210347564 23.104874186159577,197.42699658000492 23.066866091859993,197.36378099308058 23.043111032922752,197.28476142029103 23.009853950381512,197.1688658675812 22.99560091504827,197.00029013765015 22.919584726390895,196.93180611853313 22.881576632062206,196.84224998121863 22.81031145522138,196.79483785699267 22.80556044340483,196.71054954804276 22.734295266593108,196.61572506572338 22.677283125114627,196.53670455476095 22.65827907793573,196.4787561170706 22.629773007211043,196.4840241590755 22.639275030815043,196.49456024172832 22.644026042573387,196.49982828240172 22.63452401899849,196.48929220062564 22.644026042573387,196.49456024172832 22.64877705438994,196.48929220062564 22.686785148689523,196.42080762608384 22.691536160506075,196.41027153109826 22.639275030815043,196.42080762608384 22.629773007211043,196.4313437193232 22.620270983636146,196.4313437193232 22.620270983636146,196.44187981080177 22.629773007211043,196.43661176528622 22.629773007211043,196.4313437193232 22.629773007211043,196.42080762608384 22.629773007211043,196.4313437193232 22.644026042573387,196.42080762608384 180.90973077600938,92.40676135829563 180.81471054023132,92.46480593648448 180.81471054023132,92.46480593648448 180.81471054023132,92.46480593648448 180.7244413162407,92.52285046081306 23.057364068285096,197.33744114650835 23.128629245155025,197.4375325049732 23.1951434101793,197.5376237044511 23.16663733945461,197.66405446603676 23.19039239839185,197.76941324022846 23.209396445541643,197.885307688357 23.280661622382468,197.98013026010813 23.309167693107156,198.12236385020515 23.313918704923708,198.2382576491873 23.3329227520735,198.42263370830915 23.351926799223293,198.58593776728958 23.380432869977085,198.7070985698556 23.385183881764533,198.85459836290102 23.36617983461474,199.0231691321933 23.380432869977085,199.1179899917479 23.3329227520735,199.23388195970256 23.13338025691337,199.23914977136883 23.000351926806616,199.28656005648736 22.857821573124966,199.31816689342668 22.720042231230764,199.37611271997957 22.57751187752001,199.42879069787887 22.444483547413256,199.47093304851296 22.358965335210087,199.5236109471407 22.240190040465677,199.58155658479154 22.126165757508716,199.6342343909564 22.078655639634235,199.7027154731586 22.050149568909546,199.72378656040019 22.050149568909546,199.72378656040019 21.997888439218514,199.76592871376124 21.917121238802793,199.79753531027382 21.812598979420727,199.80280307482099 21.727080767217558,199.8607484557615 21.636811543197837,199.9134260285573 21.598803448898252,199.976639057797 21.532289283844875,200.06092299815282 21.423016012646258,200.050387511772 21.327995776897296,200.03985202363765 21.209220482123783,200.07145848278378 21.099947210983373,200.07672622442988 21.004926975205308,200.02931653372434 20.900404715823242,200.0240487881165 20.810135491832625,200.06619074069022 20.753123350354144,200.07672622442988 20.662854126334423,200.1294036167019 20.56308287876891,200.1504745612874 20.487066690140637,200.20315189191024 20.439556572237052,200.29270325294783 20.439556572237052,200.37698677061053 20.396797466120915,200.4349316236221 20.35403836000478,200.46127017557592 20.320781277492642,200.47707330143749 20.230512053502025,200.4928764233664 20.13074080593651,200.47180559325716 20.030969558341894,200.47707330143749 19.92169628717238,200.5139472464325 19.92644729895983,200.55608887140988 19.93119831077638,200.62983664734202 19.92644729895983,200.69304895801906 19.893190216447692,200.74045814942656 19.888439204660244,200.793134986925 19.864684145723004,200.8510794573449 19.821925039577764,200.9511652353067 19.712651768437354,200.96696823832826 19.622382544446737,200.9985742325298 19.54636635578936,201.01964488653903 19.460848143615294,201.07232149070478 19.427591061074054,201.0249125489354 19.370578919595573,200.9985742325298 19.361076896020677,200.99330656793973 19.31831778990454,200.9511652353067 19.35632588423323,200.93536222828698 19.370578919595573,200.88795318351185 19.332570825266885,200.91955921733825 19.304064754542196,200.9458975667294 19.31831778990454,201.05125085431428 19.299313742725644,201.23035103905931 19.37532993138302,201.3673096604507 19.41333802571171,201.48846511590818 19.280309695575852,201.5358737089955 19.185289459797787,201.6886344886043 19.147281365498202,201.8677328621743 19.147281365498202,202.00469009858716 19.03800809432869,202.15744974196787 19.014253035391448,202.32074412377915 19.099771247594617,202.4050249295069 19.166285412647994,202.51037577820898 19.147281365498202,202.60519139147436 19.11402428295696,202.74741454397372 19.133028330135858,202.8738348545994 19.242301601276267,202.9528474199651 19.384831954957917,202.99498741433126 19.52261129685212,203.0950697880653 19.579623438359704,203.24782678897463 19.717402780253906,203.384781026798 19.89794122823514,203.49013023802036 20.083230688032927,203.55333968026025 20.235263065289473,203.45325803411833 20.42055252508726,203.4953976939796 20.582086925947806,203.5375373256502 20.781629421078833,203.57967692914463 20.971669892664067,203.59021182562356 21.071441140258685,203.60074672033807 21.19496744676144,203.66395605164143 21.33274678865564,203.66922349306697 21.465775118762394,203.69029325431984 21.63206053141039,203.71663044600064 21.788843920483487,203.71136300855142 21.921872250561137,203.7482350614846 22.06440260427189,203.7693047963221 22.225937005103333,203.80617681536387 22.38272039417643,203.81671167400054 22.56325884218677,203.7798396611215 22.69628717226442,203.71136300855142 22.81031145522138,203.76403736327848 22.971845856052823,203.79564195498097 23.07161710364744,203.70082813231056 23.147633292275714,203.7798396611215 23.313918704923708,203.87465336494643 23.323420728498604,204.04321070855076 23.404187928914325,204.15382622034303 23.45169804681791,204.23810457526633 23.63223649482825,204.1696284204845 23.812774942809483,204.18543061663877 24.012317437998718,204.13802401626526 24.169100827042712,203.99053658709454 24.344888263265602,203.95366467587155 24.477916593372356,204.06428034480996 24.65845504135359,204.1222218082039 24.87225057190517,204.1222218082039 24.991025866620475,204.06954775277336 25.147809255693574,204.0010714148957 25.314094668312464,203.95366467587155 25.46612704556901,203.83778138595153 25.575400316738524,203.91152532236083 25.72268168220762,204.0063388281378 25.850959000526927,204.03267588777453 25.974485307058785,204.05374552754802 26.098011613590643,203.98526917252457 26.25954601445119,203.96419950985 26.435333450644976,203.99580400121704 26.568361780780833,203.93786242160058 26.691888087254483,203.89572305754336 26.80591237024055,203.8693859406958 26.962695759313647,203.91152532236083 27.128981171903433,203.96946692617348 27.195495336985914,203.98526917252457 27.357029737817356,204.0484781182713 27.471054020774318,204.17489581964037 27.509062115073903,204.3381849753714 27.566074256552383,204.48040421800397 27.566074256552383,204.64895994195103 27.509062115073903,204.812247869766 27.466303008957766,204.97553537467684 27.589829315518728,205.10195121702418 27.556572232977487,205.25470335500358 27.42829491465818,205.36004944143133 27.281013549189083,205.41798971392927 27.219250395923154,205.5602065206731 27.257258490251843,205.72875935768752 27.342776702455012,205.88150997701814 27.49956009152811,205.99212226342206 27.642090445180656,206.0763981609125 27.627837409818312,206.23441516507228 27.779869787103962,206.29762185585787 27.893894070060924,206.36082848326987 27.993665317626437,206.50831036747695 28.159950730245328,206.60311996802557 28.302481083926978,206.7137309884747 28.435509414062835,206.82434181488134 28.49727256729966,206.97708977995353 28.635051909222966,207.09823445466463 28.725321133213583,207.25624889794926 28.91061059301137,207.31945456438552 29.086398029205156,207.31418742794267 29.247932430065703,207.36685877263517 29.43322188986349,207.44586570719548 29.580503255332587,207.50380406293698 29.765792715130374,207.53540678000718 29.903572056995472,207.62494772568607 30.060355446097674,207.63548194622854 30.207636811566772,207.572276596562 30.38342424776056,207.54067389799093 30.55921168398345,207.54067389799093 30.72549709660234,207.55120813261237 30.858525426738197,207.51960542346205 31.005806792207295,207.47746845328948 31.129333098739153,207.41426294524717 31.257610417029355,207.47746845328948" stroke="#4DD2FF" stroke-dasharray="none" stroke-linecap="round" stroke-linejoin="round" stroke-width="0.5"><title>2026-03-14 12.0km</title><desc>9223370263378906807</desc></polyline></svg>