<?xml version="1.0" encoding="utf-8" ?>
<svg baseProfile="full" height="300mm" version="1.1" viewBox="0,0,200,300" width="200mm" xmlns="http://www.w3.org/2000/svg" xmlns:ev="http://www.w3.org/2001/xml-events" xmlns:xlink="http://www.w3.org/1999/xlink"><defs /><rect fill="#222222" height="300" width="200" x="0" y="0" /><text fill="#FFFFFF" style="font-size:12px; font-family:Arial; font-weight:bold;" x="10" y="20">Over 10km Runs</text><text fill="#FFFFFF" style="font-size:4px; font-family:Arial" x="10" y="280">Runner</text><text fill="#FFFFFF" style="font-size:9px; font-family:Arial" x="10" y="290">yihong0618</text><text fill="#FFFFFF" style="font-size:4px; font-family:Arial" x="65" y="280">SPECIAL TRACKS</text><rect fill="yellow" height="2.6" width="2.6" x="65" y="283" /><text fill="#FFFFFF" style="font-size:3px; font-family:Arial" x="70" y="285.5">Over 20.0 km</text><rect fill="red" height="2.6" width="2.6" x="65" y="287" /><text fill="#FFFFFF" style="font-size:3px; font-family:Arial" x="70" y="289.5">Over 40.0 km</text><text fill="#FFFFFF" style="font-size:4px; font-family:Arial" x="120" y="280">STATISTICS</text><text fill="#FFFFFF" style="font-size:3px; font-family:Arial" x="120" y="285">Number: 1</text><text fill="#FFFFFF" style="font-size:3px; font-family:Arial" x="120" y="290">Weekly: 1.0</text><text fill="#FFFFFF" style="font-size:3px; font-family:Arial" x="141" y="285">Total: 12.0 km</text><text fill="#FFFFFF" style="font-size:3px; font-family:Arial" x="141" y="290">Avg: 12.0 km</text><text fill="#FFFFFF" style="font-size:3px; font-family:Arial" x="167" y="285">Min: 12.0 km</text><text fill="#FFFFFF" style="font-size:3px; font-family:Arial" x="167" y="290">Max: 12.0 km</text><polyline fill="none" opacity="1" points="29.05314094669302,207.31945456438552 28.93911666373606,207.32998883596883 28.67781101531,207.26678318007907 28.64930494458531,207.2720503204946 28.56853774416959,207.09823445466463 28.525778638053453,207.04556288555978 28.421256378671387,206.91915094020806 28.38799929615925,206.80854028013346 28.26922400141484,206.68212785957803 28.235966918902704,206.66105909817634 28.13144465952064,206.61365435928747 28.041175435530022,206.55571518557554 27.89864508184837,206.53464638194419 27.841632940340787,206.42403504731556 27.86538799930713,206.3081562981497 27.737110680987826,206.32922517747647 27.59933133906452,206.29235463403893 27.623086398059968,206.10273435575436 27.55182122119004,206.0289929824321 27.442547950020526,206.00792400277714 27.342776702455012,205.9183807607078 27.276262537401635,205.81303560722154 27.17649128983612,205.72349208835294 27.152736230869778,205.57600836827987 27.20499736056081,205.39165323303314 27.3712827731797,205.36004944143133 27.51381312686135,205.29684181070843 27.55182122119004,205.13882245664354 27.49005806792411,205.06507995585707 27.46155199719942,204.92812936843984 27.442547950020526,204.79644583073605 27.537568185827695,204.67002937575307 27.542319197615143,204.5278105609068 27.566074256552383,204.40139356725558 27.471054020774318,204.28024371045467 27.437796938233078,204.14329141805865 27.35227872602991,204.04321070855076 27.219250395923154,204.0379432983791 27.224001407710603,204.03267588777453 27.2430054548895,204.0379432983791 27.214499384135706,204.04321070855076 27.22875241949805,204.0484781182713 27.219250395923154,204.04321070855076 27.20974837234826,204.0484781182713 27.214499384135706,204.05374552754802 27.214499384135706,204.0484781182713 27.12423016014509,203.90625790120248 27.138483195507433,203.80090938539797 27.17174027801957,203.69556069354076 27.247756466676947,203.6112816132918 27.333274678880116,203.54807222915406 27.395037832146045,203.4795953248322 27.509062115073903,203.39531595584776 27.618335386243416,203.29523405881264 27.699102586659137,203.2320243577742 27.722857645596378,203.1319422014858 27.656343480543,203.05292986060522 27.57557628012728,202.97391742068066 27.537568185827695,202.82115975598572 27.566074256552383,202.72634446757002 27.57557628012728,202.6262615084015 27.589829315518728,202.48930562255555 27.58032729194383,202.37341964056031 27.485307056136662,202.32601167742905 27.456800985411974,202.26280100446093 27.385535808542045,202.1521821742208 27.442547950020526,201.9783521916288 27.504311103286454,201.89407081537138 27.49956009152811,201.75184573739898 27.5280661622528,201.60435272495306 27.60408235088107,201.48846511590818 27.627837409818312,201.3515067577755 27.656343480543,201.24615397208254 27.627837409818312,201.13553335758843 27.627837409818312,201.01964488653903 27.594580327306176,200.94062989773374 27.594580327306176,200.81947338917962 27.64684145699721,200.6456397309521 27.70385359847569,200.53501806245185 27.70385359847569,200.42439619976722 27.656343480543,200.29270325294783 27.675347527721897,200.1504745612874 27.665845504147,199.99771005345247 27.675347527721897,199.81860636580677 27.20499736056081,199.04950827416178 27.14798521908233,199.04950827416178 27.06246700687916,199.01263347231725 27.03871194794192,198.9178124542268 27.019707900763024,198.83352698501403 27.00070385361323,198.80718775277273 26.96744677107199,198.73343784393 26.905683617835166,198.6912950001206 26.848671476356685,198.6333485438554 26.786908323090756,198.5701341671811 26.729896181612276,198.52799121415228 26.677635051921243,198.45424097855357 26.573112792539177,198.36995488932007 26.501847615727456,198.2751329041639 26.435333450644976,198.2382576491873 26.34031321486691,198.2645971192469 26.235790955484845,198.28566868734197 26.150272743281676,198.30147235880577 26.036248460324714,198.29093657827616 25.98873834242113,198.18557867607524 25.94122822454665,198.10656013381958 25.888967094855616,198.0433452286743 25.765440788323758,198.06441687076222 25.69892662327038,198.0275414924763 25.708428646845277,198.00646983805927 25.741685729357414,198.00646983805927 25.732183705782518,197.99593400818776 25.694175611482933,198.01700566615546 25.670420552545693,198.01700566615546 25.684673587908037,198.02227357953961 25.670420552545693,198.0328094049728 25.67517156433314,198.02227357953961 25.69892662327038,197.99593400818776 25.69892662327038,197.99066609260626 25.622910434642108,197.89057561274967 25.608657399279764,197.82209256125861 25.565898293163627,197.7220018136286 25.546894246013835,197.70093005703893 25.49938412811025,197.66405446603676 25.43762097484432,197.62191090702981 25.36160478621605,197.6166429601799 25.29509062116267,197.5903032192764 25.26183353862143,197.59557116834185 25.247580503259087,197.5797673198358 25.162062291055918,197.6166429601799 25.10029913778999,197.66405446603676 25.043286996311508,197.67459035136926 24.97677283125813,197.69566211678102 24.915009677992202,197.74307356318604 24.843744501151377,197.7904849739134 24.78198134788545,197.83262842017575 24.74397325355676,197.83262842017575 24.677459088503383,197.8800397635241 24.615695935266558,197.90111146023264 24.52067569945939,197.9379869125114 24.43040647546877,197.9748623432024 24.354390286811395,198.08022059771974 24.268872074608225,198.16450707448894 24.159598803467816,198.16450707448894 24.102586661989335,198.16450707448894 24.002815414394718,198.1487033686899 23.94105226112879,198.1487033686899 23.964807320095133,198.12236385020515 23.964807320095133,198.13816756260348 23.96955833188258,198.13816756260348 23.91729720219155,198.13816756260348 23.865036072500516,198.08548850581792 23.79852190744714,198.0696847801919 23.741509765968658,198.12236385020515 23.670244589156937,198.04861313985748 23.589477388712112,198.06441687076222 23.51346120008384,198.0275414924763 23.44219602321391,197.94325483249486 23.380432869977085,197.9063793833011 23.356677811039845,197.8800397635241 23.3329227520735,197.87477183824376 23.285412634169916,197.7957529062478 23.21889846911654,197.76414530569673 23.1951434101793,197.77468117430908 23.209396445541643,197.76414530569673 23.16663733945461,197.7325376892877 23.185641386604402,197.63771474495297 23.1951434101793,197.57449936944613 23.152384304092266,197.52181984144045 23.114376209763577,197.4480684281989 23.090621150826337,197.39012082868794 23.0478620447102,197.32690520478718 23.028857997560408,197.2320816500287 23.005102938594064,197.1267219773763 22.976596867869375,196.96868213807466 22.900580679212,196.91073409766614 22.867323596699862,196.84751799281366 22.81031145522138,196.779033807652 22.786556396255037,196.6894774532011 22.720042231230764,196.59992097145732 22.67253211332718,196.5209004406861 22.663030089752283,196.4787561170706 22.629773007211043,196.4840241590755 22.639275030815043,196.49456024172832 22.644026042573387,196.49982828240172 22.63452401899849,196.48929220062564 22.644026042573387,196.48929220062564 22.644026042573387,196.4840241590755 22.686785148689523,196.44187981080177 22.691536160506075,196.41553957881843 22.686785148689523,196.44714785587712 22.639275030815043,196.42607567291998 22.6250219954527,196.43661176528622 22.6155199718487,196.44714785587712 22.6250219954527,196.43661176528622 22.6250219954527,196.4313437193232 22.629773007211043,196.42607567291998 22.63452401899849,196.42080762608384 22.639275030815043,196.42607567291998 181.0,92.34871672625741 180.90973077600938,92.40676135829563 180.81471054023132,92.46480593648448 180.81471054023132,92.46480593648448 180.81471054023132,92.46480593648448 180.7244413162407,92.52285046081306 23.08587013903889,197.36378099308058 23.128629245155025,197.4375325049732 23.1951434101793,197.5376237044511 23.16663733945461,197.65351857892892 23.19039239839185,197.75887737073572 23.204645433754195,197.8642359863843 23.27115959880757,197.96432650804854 23.309167693107156,198.06441687076222 23.299665669561364,198.22245396187645 23.313918704923708,198.3594191202501 23.36142882279819,198.5227233430487 23.375681858189637,198.66495570842744 23.38993489355198,198.78611635906418 23.380432869977085,198.95468731154324 23.37093084640219,199.08111522997933 23.37093084640219,199.16540036804508 23.25215555165778,199.24968539335168 23.07636811543489,199.254953203701 22.952841808932135,199.29182786375168 22.815062467037933,199.33397030596097 22.69628717226442,199.397183916426 22.55375681858277,199.44986187672112 22.425479500263464,199.48673642272115 22.34946331163519,199.53414652157517 22.23068801689078,199.5868243673831 22.12141474575037,199.6342343909564 22.078655639634235,199.7027154731586 22.050149568909546,199.72378656040019 22.050149568909546,199.72378656040019 22.00263945100596,199.76592871376124 21.931374274165137,199.79753531027382 21.836354038357968,199.8133386025802 21.74608481436735,199.84494517532585 21.65581559034763,199.9081582732615 21.6130564842897,199.95556805509113 21.560795354569564,200.05565525518978 21.451522083429154,200.06092299815282 21.385007918346673,200.0345842789029 21.25197958823992,200.06619074069022 21.161710364249302,200.07672622442988 21.05718810489634,200.06092299815282 20.971669892664067,200.0240487881165 20.87189864506945,200.03985202363765 20.805384480045177,200.06092299815282 20.734119303204352,200.08199396563214 20.64385007918463,200.1294036167019 20.548829843406565,200.15574229631966 20.47281365474919,200.2136873527561 20.430054548662156,200.30323869881613 20.439556572237052,200.3822544867362 20.396797466120915,200.4349316236221 20.35403836000478,200.46127017557592 20.320781277492642,200.47707330143749 20.24476508886437,200.48760871649574 20.13549181772396,200.47707330143749 20.04522259370424,200.46653788464027 19.940700334351277,200.508679541319 19.916945275414037,200.53501806245185 19.93119831077638,200.59823046822567 19.92644729895983,200.68251357730696 19.90269224002259,200.7193874020886 19.893190216447692,200.76152888970682 19.883688192843692,200.80893802960054 19.864684145723004,200.90375620239502 19.783916945249075,200.99330656793973 19.679394685925217,200.9775035715029 19.603378497296944,201.0091095604257 19.513109273277223,201.05125085431428 19.432342072861502,201.05651851408038 19.41333802571171,201.01964488653903 19.370578919595573,201.00384189669785 19.34207284884178,200.9827712374281 19.31831778990454,200.9511652353067 19.35632588423323,200.93536222828698 19.370578919595573,200.88795318351185 19.332570825266885,200.91955921733825 19.304064754542196,200.9458975667294 19.304064754542196,201.0407155334833 19.304064754542196,201.19874516108757 19.346823860658333,201.340971487145 19.432342072861502,201.47266224362465 19.31831778990454,201.5253384691714 19.223297554126475,201.62542317643602 19.152032377256546,201.7887189365756 19.190040471585235,201.93621151757907 19.08551821220317,202.0731686051986 19.009502023604,202.23646320535045 19.03325708254124,202.41029247612096 19.142530353710754,202.44716529011203 19.133028330135858,202.53671346286865 19.152032377256546,202.6473316182637 19.08551821220317,202.81062473098427 19.166285412647994,202.88436986902525 19.26605666024261,202.95811492079883 19.408587013895158,203.010789904969 19.541615344031015,203.12667471517852 19.598627485480392,203.26362921622058 19.726904803828802,203.39004849153207 19.89794122823514,203.49013023802036 20.073728664428927,203.54807222915406 20.221010029898025,203.45325803411833 20.396797466120915,203.48486278164637 20.56308287876891,203.5375373256502 20.748372338537592,203.5744094802576 20.93366179833538,203.59021182562356 21.009677986992756,203.60601416703867 21.156959352461854,203.65342116749525 21.28523667078116,203.66395605164143 21.42776702446281,203.66922349306697 21.546542319178116,203.70082813231056 21.703325708280317,203.71136300855142 21.845856061961967,203.71663044600064 21.974133380281273,203.76403736327848 22.11666373393382,203.79564195498097 22.26394509943202,203.80090938539797 22.444483547413256,203.81144424490049 22.591764912911458,203.7587699297801 22.70578919586842,203.72189788300602 22.84356853776262,203.76403736327848 23.005102938594064,203.79037452413468 23.081119127222337,203.69556069354076 23.152384304092266,203.7851070928482 23.313918704923708,203.87465336494643 23.323420728498604,204.0379432983791 23.413689952518325,204.14329141805865 23.446947035030462,204.2591741463766 23.598979412287008,204.14855881941912 23.7747668485099,204.21703499708383 23.97430934367003,204.1643610208739 24.121590709139127,204.02740847673704 24.278374098212225,203.92206016339333 24.43515748725622,204.02740847673704 24.56818581733387,204.1222218082039 24.791483371460345,204.1169544046461 24.9245117015671,204.095884786002 25.071793067036197,204.04321070855076 25.214323420717847,203.95893209308633 25.38060883336584,203.92732758323837 25.489882104535354,203.84831623929858 25.608657399279764,203.93786242160058 25.746436741144862,204.0379432983791 25.884216083068168,204.0484781182713 26.002991377812577,204.04321070855076 26.10751363716554,203.99053658709454 26.27855006160098,203.96419950985 26.435333450644976,203.99053658709454 26.568361780780833,203.93786242160058 26.68238606370869,203.90099047958574 26.786908323090756,203.8693859406958 26.953193735709647,203.90625790120248 27.105226112966193,203.96946692617348 27.185993313411018,203.99580400121704 27.328523667092668,204.02740847673704 27.447298961837078,204.12748921133607 27.480556044349214,204.27497632010272 27.58032729194383,204.40666094704648 27.566074256552383,204.5752168681829 27.518564138677903,204.71743557608352 27.504311103286454,204.89125800559486 27.480556044349214,205.0492779801898 27.594580327306176,205.17042635913458 27.5280661622528,205.30737642021631 27.366531761421356,205.36531674112484 27.247756466676947,205.46539535182092 27.20499736056081,205.60234477217818 27.276262537401635,205.7656302307114 27.361780749604804,205.91311350721298 27.504311103286454,205.9973895103103 27.651592468784656,206.09219987916003 27.627837409818312,206.23441516507228 27.779869787103962,206.29762185585787 27.893894070060924,206.35029404976376 27.969910258660093,206.49250875353755 28.136195671308087,206.59785277173796 28.29297906035208,206.6979294260018 28.402252331521595,206.7980059214351 28.487770543753868,206.92968527867197 28.606545838469174,207.05609720289794 28.687313038884895,207.20884460654634 28.844096427957993,207.31945456438552 29.01513285236433,207.31945456438552 29.186169276799774,207.35105737384947 29.33820165405632,207.40899581672056 29.51874010206666,207.46166708222154 29.647017420385964,207.51433830372116 29.827555868396303,207.56174236547304 29.94633116311161,207.63548194622854 30.103114552184707,207.6038792793188 30.250395917653805,207.57754371146802 30.421432342089247,207.54594101551265 30.597219778283034,207.54067389799093" stroke="#4DD2FF" stroke-dasharray="none" stroke-linecap="round" stroke-linejoin="round" stroke-width="0.5"><title>2026-03-14 12.0km</title><desc>9223370263378906807</desc></polyline></svg>