<?xml version="1.0" encoding="utf-8" ?>
<svg baseProfile="full" height="300mm" version="1.1" viewBox="0,0,200,300" width="200mm" xmlns="http://www.w3.org/2000/svg" xmlns:ev="http://www.w3.org/2001/xml-events" xmlns:xlink="http://www.w3.org/1999/xlink"><defs /><rect fill="#222222" height="300" width="200" x="0" y="0" /><text fill="#FFFFFF" style="font-size:12px; font-family:Arial; font-weight:bold;" x="10" y="20">Over 10km Runs</text><text fill="#FFFFFF" style="font-size:4px; font-family:Arial" x="10" y="280">Runner</text><text fill="#FFFFFF" style="font-size:9px; font-family:Arial" x="10" y="290">yihong0618</text><text fill="#FFFFFF" style="font-size:4px; font-family:Arial" x="65" y="280">SPECIAL TRACKS</text><rect fill="yellow" height="2.6" width="2.6" x="65" y="283" /><text fill="#FFFFFF" style="font-size:3px; font-family:Arial" x="70" y="285.5">Over 20.0 km</text><rect fill="red" height="2.6" width="2.6" x="65" y="287" /><text fill="#FFFFFF" style="font-size:3px; font-family:Arial" x="70" y="289.5">Over 40.0 km</text><text fill="#FFFFFF" style="font-size:4px; font-family:Arial" x="120" y="280">STATISTICS</text><text fill="#FFFFFF" style="font-size:3px; font-family:Arial" x="120" y="285">Number: 1</text><text fill="#FFFFFF" style="font-size:3px; font-family:Arial" x="120" y="290">Weekly: 1.0</text><text fill="#FFFFFF" style="font-size:3px; font-family:Arial" x="141" y="285">Total: 12.0 km</text><text fill="#FFFFFF" style="font-size:3px; font-family:Arial" x="141" y="290">Avg: 12.0 km</text><text fill="#FFFFFF" style="font-size:3px; font-family:Arial" x="167" y="285">Min: 12.0 km</text><text fill="#FFFFFF" style="font-size:3px; font-family:Arial" x="167" y="290">Max: 12.0 km</text><polyline fill="none" opacity="1" points="28.478268520149868,207.02449409051405 28.421256378671387,206.85067749867812 28.316734119318426,206.78220416426484 28.24071793066105,206.67686042767673 28.178954777424224,206.6399900782817 28.07443251804216,206.59785250973437 27.946155199722853,206.57151651507593 27.860636987519683,206.47670684324112 27.879641034669476,206.38189702884847 27.779869787103962,206.33449206819205 27.656343480543,206.3397592878173 27.613584374455968,206.18174250805532 27.59933133906452,206.05532879912062 27.49005806792411,206.03425982298359 27.376033784996253,205.98158735184188 27.304768608126324,205.870975019232 27.219250395923154,205.7761642939622 27.157487242657226,205.63921521685552 27.16698926623212,205.5075331314256 27.333274678880116,205.39691996709007 27.456800985411974,205.36531617020592 27.566074256552383,205.2072969481669 27.532817174011143,205.10195058009776 27.442547950020526,205.0018713673744 27.466303008957766,204.87545529265844 27.49480907971156,204.72796955175363 27.542319197615143,204.5910181976833 27.58032729194383,204.46460129908883 27.49005806792411,204.3592536899414 27.480556044349214,204.20123194613916 27.376033784996253,204.10115130351915 27.22875241949805,204.03794239474155 27.22875241949805,204.0537446278795 27.252507478464395,204.0537446278795 27.22875241949805,204.05901203805115 27.224001407710603,204.0642794477717 27.224001407710603,204.0537446278795 27.214499384135706,204.0695468570484 27.214499384135706,204.0695468570484 27.214499384135706,204.0642794477717 27.138483195507433,203.98526825567387 27.138483195507433,203.84304786035136 27.152736230869778,203.76403639098498 27.219250395923154,203.66395505426772 27.29051557276398,203.5849433604235 27.35227872602991,203.53226884282776 27.471054020774318,203.46379190416337 27.570825268368935,203.3742450259815 27.680098539509345,203.27416307040767 27.72760865741293,203.18988340563374 27.70385359847569,203.0950686480719 27.58507830373128,203.02132373803397 27.55182122119004,202.90017119852564 27.556572232977487,202.77901842617575 27.566074256552383,202.67366800006857 27.566074256552383,202.5630498631508 27.618335386243416,202.43136135180612 27.504311103286454,202.35761566526708 27.480556044349214,202.3049401220669 27.395037832146045,202.21012403337227 27.409290867537493,202.03102658779244 27.485307056136662,201.95201284707946 27.49956009152811,201.82559065590976 27.504311103286454,201.67283016995134 27.58507830373128,201.5358721781049 27.623086398059968,201.4252520443515 27.63733943339321,201.30409643699386 27.642090445180656,201.1882082468219 27.618335386243416,201.0775875028885 27.60883336266852,200.97750190059742 27.594580327306176,200.8879514901455 27.589829315518728,200.7246533552934 27.684849551296793,200.60876409965567 27.699102586659137,200.48233921414067 27.665845504147,200.35591407500033 27.675347527721897,200.21895322141063 27.665845504147,200.0767243276532 27.684849551296793,199.87128202555323 27.67059651593445,199.81860440432138 27.16698926623212,199.08638090931709 27.081471054028952,199.0600417761416 27.06246700687916,198.95995296972615 27.03396093615447,198.88093537867826 27.00545486540068,198.84932831451442 26.981699806434335,198.7650427326007 26.934189688559854,198.7123641866383 26.867675523506477,198.64914987335578 26.80591237024055,198.6228105574628 26.76790427591186,198.59120336382693 26.701390110887587,198.4963816878153 26.62537392223021,198.4226313967265 26.511349639302352,198.3278094670677 26.440084462432424,198.26986266204403 26.387823332770495,198.25405897868768 26.27855006160098,198.28566634142044 26.188280837610364,198.31727368830616 26.07900756644085,198.31727368830616 26.007742389600025,198.25405897868768 25.969734295271337,198.1434330842785 25.922224177367752,198.0802182002626 25.82245292980224,198.06441446935787 25.71317965866183,198.0749502904073 25.71317965866183,198.02753908181694 25.717930670420174,198.01700325284764 25.71317965866183,198.02753908181694 25.694175611482933,198.0591465581747 25.679922576091485,198.0486107344732 25.67517156433314,198.0486107344732 25.684673587908037,198.06441446935787 25.679922576091485,198.03807490904 25.69892662327038,198.03280699565585 25.694175611482933,198.03807490904 25.6419144817919,197.93271655763238 25.618159422825556,197.85369767847078 25.599155375675764,197.7746787002361 25.55639626958873,197.71673138653932 25.527890198864043,197.70092756445592 25.447122998419218,197.664051964206 25.39486186875729,197.60610454877678 25.314094668312464,197.62190839463074 25.280837585800327,197.60610454877678 25.257082526833983,197.60083659928205 25.195319373568054,197.62717634237197 25.119303184968885,197.664051964206 25.06704205524875,197.70092756445592 24.986274854833027,197.69565962288107 24.948266760533443,197.72726726571636 24.85799753651372,197.76941076482035 24.819989442214137,197.8273580300738 24.767728312523104,197.8431618204304 24.710716171044623,197.8800373158847 24.65845504135359,197.88530524202724 24.563434805575525,197.94852032156996 24.463663557980908,197.9748599193299 24.382896357565187,198.06441446935787 24.297378145332914,198.15396889210388 24.211859933129745,198.18030840398933 24.131092732714023,198.16450469819029 24.026570473331958,198.175040502505 23.955305296491133,198.16450469819029 23.964807320095133,198.13816517970554 23.964807320095133,198.13816517970554 23.983811367244925,198.14870098841493 23.94580327294534,198.16977260056228 23.888791131437756,198.12236146331998 23.822276966413483,198.08548610969228 23.7747668485099,198.11182565019772 23.698750659881625,198.09602192722014 23.6179834594368,198.06441446935787 23.541967270808527,198.0802182002626 23.470702093967702,197.9906636727028 23.413689952518325,197.92744863544794 23.356677811039845,197.8958410930245 23.347175787435845,197.89057316774415 23.318669716682052,197.8431618204304 23.25215555165778,197.7746787002361 23.19039239839185,197.8062863034138 23.1951434101793,197.79048250380947 23.185641386604402,197.76414282896803 23.176139363029506,197.69565962288107 23.204645433754195,197.61137249784224 23.185641386604402,197.5481570800548 23.11912722152192,197.47967363922726 23.09537216258468,197.4322619827435 23.057364068285096,197.3690463852945 23.043111032922752,197.29002679924815 23.009853950381512,197.18466719708158 22.99560091504827,197.01609146715055 22.924335738178343,196.9528754521416 22.881576632062206,196.85805131071902 22.81031145522138,196.81590720204986 22.80556044340483,196.742154944066 22.753299313772004,196.65259851473456 22.68203413693118,196.56830999439626 22.67253211332718,196.50509353012603 22.639275030815043,196.49455744657098 22.620270983636146,196.5103615712287 22.64877705438994,196.5103615712287 22.629773007211043,196.49982548857588 22.644026042573387,196.49982548857588 22.644026042573387,196.49982548857588 22.663030089752283,196.49982548857588 22.70578919586842,196.42607286059865 22.691536160506075,196.43134090831882 22.6155199718487,196.43134090831882 22.629773007211043,196.4471450488236 22.620270983636146,196.4471450488236 22.639275030815043,196.4524130947866 22.629773007211043,196.4524130947866 22.629773007211043,196.4471450488236 22.629773007211043,196.43660895558423 22.629773007211043,196.4471450488236 22.644026042573387,196.43660895558423 180.90973077600938,92.42256268779602 180.81471054023132,92.48060726598487 180.81471054023132,92.48060726598487 180.81471054023132,92.48060726598487 180.81946155201877,92.47533048838523 180.62942108043353,92.59669626078175 23.114376209763577,197.4269940187187 23.161886327638058,197.532353215709 23.180890374816954,197.62717634237197 23.176139363029506,197.73780314312899 23.1951434101793,197.85896560683977 23.24740453987033,197.93798447938025 23.290163645986468,198.0433428219767 23.294914657744812,198.16450469819029 23.318669716682052,198.29620212546797 23.342424775648396,198.4858459372408 23.36617983461474,198.64388201105976 23.380432869977085,198.7492391734304 23.385183881764533,198.90727458671608 23.36617983461474,199.05477394819536 23.380432869977085,199.13905914260613 23.323420728498604,199.25495110086922 23.13338025691337,199.25495110086922 23.000351926806616,199.30236138598775 22.867323596699862,199.32870041787828 22.734295266593108,199.37611064752855 22.596515924698906,199.43405643533333 22.47298961816705,199.48673437801335 22.38272039417643,199.52360891168428 22.273447123006918,199.57628677949106 22.168924863624852,199.62896460328193 22.09290867499658,199.68164238303143 22.050149568909546,199.74485566061048 22.059651592484443,199.72905234716018 22.021643498155754,199.76065897008812 21.96938236846472,199.80280110935564 21.883864156261552,199.8238721684247 21.765088861546246,199.83440769530716 21.693823684676317,199.9081563342188 21.617807496048044,199.94503062130752 21.589301425294252,200.01877913077624 21.513285236695083,200.0767243276532 21.408762977313017,200.05565335313804 21.313742741534952,200.05565335313804 21.20446947036544,200.08725981228417 21.08569417562103,200.08725981228417 21.004926975205308,200.04511786322473 20.900404715823242,200.03985011761688 20.810135491832625,200.08725981228417 20.757874362141592,200.08725981228417 20.686609185300767,200.14520494620228 20.582086925947806,200.15574041937725 20.496568713715533,200.19261456160166 20.4443075840245,200.2768982342568 20.425303536874708,200.36644951294875 20.430054548662156,200.4401975292676 20.368291395396227,200.45600066439147 20.33028330106754,200.48233921414067 20.27802217140561,200.48233921414067 20.178250923810992,200.50341004599613 20.092732711607823,200.4770715050763 19.98345944043831,200.50341004599613 19.912194263597485,200.54028398482114 19.93119831077638,200.5771579020584 19.92644729895983,200.66670875410637 19.916945275414037,200.7141179772043 19.893190216447692,200.76152716466095 19.888439204660244,200.81947167864928 19.864684145723004,200.87741613937396 19.81717402781942,200.9722342329187 19.712651768437354,200.98276956782865 19.622382544446737,201.01437556203018 19.555868379364256,201.03017855319558 19.47035016719019,201.09339047820686 19.427591061074054,201.0565168629837 19.38958296677447,201.01437556203018 19.36582790777902,201.00910789744012 19.327819813479437,200.9722342329187 19.332570825266885,200.94589588790768 19.361076896020677,200.89321916487825 19.37532993138302,200.90375451301225 19.327819813479437,200.94589588790768 19.280309695575852,201.00384023240622 19.332570825266885,201.13553172631146 19.313566778117092,201.30936407694753 19.40383600210771,201.4252520443515 19.36582790777902,201.52533693563237 19.251803624851163,201.58328074741803 19.161534400860546,201.7307738461459 19.156783389073098,201.90460455510765 19.128277318319306,202.04682932405922 19.023755058966344,202.18905377207557 19.004751011787448,202.37868587022604 19.099771247594617,202.4208262590073 19.166285412647994,202.52617710770937 19.147281365498202,202.62099272097475 19.11877529474441,202.74741331684345 19.11402428295696,202.89490369153646 19.223297554126475,202.9581137464702 19.370578919595573,202.99498624926127 19.49410522612743,203.07399868257198 19.565370402968256,203.2214882931221 19.684145697712665,203.35317515380302 19.85043111036066,203.46905936361873 20.011965511192102,203.52700138864384 20.149744853086304,203.50593156752075 20.33978532467154,203.46905936361873 20.491817701928085,203.55333865515058 20.672356149938423,203.5744084604121 20.862396621523658,203.61128060270494 21.009677986992756,203.62708294279219 21.118951258133166,203.63235038860512 21.237726552877575,203.66922249699564 21.366003871225985,203.67975738114183 21.48477916594129,203.71136202304115 21.636811543197837,203.73243177550103 21.79359493224183,203.7271643380518 21.92662326237769,203.7693038253492 22.06440260427189,203.7851061258225 22.202181946166093,203.81671071489836 22.363716346997535,203.83251300350094 22.544254795007873,203.81144328448136 22.67253211332718,203.7376992125064 22.777054372709244,203.76403639098498 22.93383776175324,203.81144328448136 23.0478620447102,203.7482340852148 23.13338025691337,203.7482340852148 23.24740453987033,203.82197814486426 23.356677811039845,203.99053567156807 23.356677811039845,204.15382534576565 23.41844096427667,204.274975475877 23.51346120008384,204.19596454785278 23.713003695273073,204.22756893095357 23.898293155041756,204.19596454785278 24.064578567660647,204.10115130351915 24.202357909583952,203.97473342258672 24.392398381140083,204.0168727443961 24.49692064052215,204.10115130351915 24.686961112107383,204.14329054083646 24.886503607267514,204.14329054083646 25.00527890198282,204.08008167431035 25.15731127926847,204.00633791659493 25.314094668312464,203.96946600537194 25.456625021994114,203.86411756879897 25.56114728137618,203.91679180908613 25.71317965866183,204.00107050202496 25.81770191801479,204.0537446278795 25.960232271725545,204.08008167431035 26.05525250750361,204.0168727443961 26.212035896547604,203.97473342258672 26.3783213091956,204.01160533071743 26.511349639302352,203.96946600537194 26.668133028317243,203.92205923070287 26.748900228762068,203.89572211825725 26.88667957065627,203.89572211825725 27.03396093615447,203.96419858773152 27.181242301594466,203.99580308701115 27.271511525614187,204.02740757045467 27.399788843933493,204.10115130351915 27.480556044349214,204.23810372179287 27.54707020940259,204.3750558425345 27.55182122119004,204.5225424090786 27.54707020940259,204.69109806261258 27.518564138677903,204.84911857852057 27.46155199719942,205.0018713673744 27.594580327306176,205.1282871886142 27.556572232977487,205.27050468450398 27.437796938233078,205.37058347079437 27.29051557276398,205.4232564523918 27.22875241949805,205.55493871385625 27.2335034312855,205.72349160721205 27.333274678880116,205.86044050125565 27.452049973624526,206.00265634559764 27.613584374455968,206.05532879912062 27.64684145699721,206.1975442038638 27.70385359847569,206.31342318535826 27.884392046456924,206.31342318535826 27.917649128998164,206.47670684324112 28.055428470892366,206.56098211414428 28.235966918902704,206.6610588520125 28.354742213647114,206.77693698162693 28.47351750836242,206.8875477248621 28.559035720594693,207.0350284140004 28.65405595637276,207.15090585634607 28.772831251117168,207.30365306858585 28.953369699098403,207.33525589388591 29.124406123533845,207.34052302988857 29.276438500819495,207.38266010213556 29.447474925225833,207.46166703669587 29.580503255332587,207.51960539243737 29.765792715130374,207.55120810950757" stroke="#4DD2FF" stroke-dasharray="none" stroke-linecap="round" stroke-linejoin="round" stroke-width="0.5"><title>2026-03-14 12.0km</title><desc>9223370263378906807</desc></polyline></svg>