<?xml version="1.0" encoding="utf-8" ?>
<svg baseProfile="full" height="300mm" version="1.1" viewBox="0,0,200,300" width="200mm" xmlns="http://www.w3.org/2000/svg" xmlns:ev="http://www.w3.org/2001/xml-events" xmlns:xlink="http://www.w3.org/1999/xlink"><defs /><rect fill="#222222" height="300" width="200" x="0" y="0" /><text fill="#FFFFFF" style="font-size:12px; font-family:Arial; font-weight:bold;" x="10" y="20">Over 10km Runs</text><text fill="#FFFFFF" style="font-size:4px; font-family:Arial" x="10" y="280">Runner</text><text fill="#FFFFFF" style="font-size:9px; font-family:Arial" x="10" y="290">yihong0618</text><text fill="#FFFFFF" style="font-size:4px; font-family:Arial" x="65" y="280">SPECIAL TRACKS</text><rect fill="yellow" height="2.6" width="2.6" x="65" y="283" /><text fill="#FFFFFF" style="font-size:3px; font-family:Arial" x="70" y="285.5">Over 20.0 km</text><rect fill="red" height="2.6" width="2.6" x="65" y="287" /><text fill="#FFFFFF" style="font-size:3px; font-family:Arial" x="70" y="289.5">Over 40.0 km</text><text fill="#FFFFFF" style="font-size:4px; font-family:Arial" x="120" y="280">STATISTICS</text><text fill="#FFFFFF" style="font-size:3px; font-family:Arial" x="120" y="285">Number: 1</text><text fill="#FFFFFF" style="font-size:3px; font-family:Arial" x="120" y="290">Weekly: 1.0</text><text fill="#FFFFFF" style="font-size:3px; font-family:Arial" x="141" y="285">Total: 12.0 km</text><text fill="#FFFFFF" style="font-size:3px; font-family:Arial" x="141" y="290">Avg: 12.0 km</text><text fill="#FFFFFF" style="font-size:3px; font-family:Arial" x="167" y="285">Min: 12.0 km</text><text fill="#FFFFFF" style="font-size:3px; font-family:Arial" x="167" y="290">Max: 12.0 km</text><polyline fill="none" opacity="1" points="31.07707196904812,207.0824373926407 30.972549709666055,207.13510862292242 30.863276438525645,207.1772455754981 30.749252155568684,207.20884827145346 30.654231919761514,207.1772455754981 30.544958648621105,207.16671133999262 30.4166813303018,207.16671133999262 30.269399964803597,207.19304692545848 30.11736758754705,207.20884827145346 29.989090269227745,207.2720536158231 29.87031497451244,207.229916726621 29.69452753828955,207.16671133999262 29.59475629069493,207.1193072584756 29.42847087807604,207.1087730132749 29.31444659511908,207.02976611832491 29.167165229620878,206.9823619338349 29.019883864180883,206.95075912437096 28.896357557649026,206.9770948000296 28.64930494458531,206.90335488048004 28.630300897406414,206.7980119886888 28.559035720594693,206.69266892088854 28.46401548475842,206.63473015858835 28.41650536688394,206.44511201880596 28.283477036777185,206.33976836142028 28.235966918902704,206.29236365816178 28.12669364773319,206.2449589192729 28.026922400167678,206.18175254531525 27.893894070060924,206.1396149274624 27.860636987519683,206.0237363332053 27.80837585782865,205.93946085813513 27.67059651593445,205.96579695620312 27.613584374455968,205.8077802028456 27.594580327306176,205.66556478622806 27.471054020774318,205.6444958083266 27.35227872602991,205.57075433026694 27.29051557276398,205.45487469046566 27.17649128983612,205.35479664833838 27.152736230869778,205.1967783636428 27.2335034312855,205.01242319757512 27.399788843933493,204.99662130111028 27.54707020940259,204.87020598685558 27.54707020940259,204.7279884553027 27.437796938233078,204.62790925932495 27.466303008957766,204.4909585231435 27.504311103286454,204.33293807325026 27.532817174011143,204.18545196267223 27.570825268368935,204.04850026532222 27.471054020774318,203.92735043887296 27.433045926474733,203.7693285762507 27.333274678880116,203.66924785836454 27.22875241949805,203.66398044775997 27.2430054548895,203.66924785836454 27.2335034312855,203.6745152685362 27.219250395923154,203.6745152685362 27.22875241949805,203.66398044775997 27.20974837234826,203.67978267825674 27.214499384135706,203.68505008753345 27.214499384135706,203.67978267825674 27.12423016014509,203.55336472337876 27.138483195507433,203.4322139453834 27.181242301594466,203.3163303746478 27.257258490251843,203.2320512803235 27.338025690667564,203.17410933760402 27.437796938233078,203.08983005312984 27.556572232977487,203.00028318991463 27.67059651593445,202.89493377620602 27.72760865741293,202.80538663611878 27.694351574900793,202.70003689669102 27.58032729194383,202.6262919743167 27.537568185827695,202.4682668501846 27.566074256552383,202.3629165473285 27.57557628012728,202.25756606838695 27.59933133906452,202.10480756117977 27.561323244764935,201.9836539991229 27.480556044349214,201.9362460201337 27.414041879295837,201.86776776533588 27.40453985572094,201.67286770983628 27.471054020774318,201.5727836633523 27.49956009152811,201.4410938863948 27.509062115073903,201.27253057040434 27.60408235088107,201.1408401661174 27.627837409818312,200.99334658665975 27.656343480543,200.87745853206798 27.623086398059968,200.7510349567965 27.63258842160576,200.6351464566833 27.594580327306176,200.53506076238045 27.58507830373128,200.38229808042888 27.675347527721897,200.2453381197447 27.699102586659137,200.10837786142292 27.665845504147,199.97141730548537 27.67059651593445,199.82392098929267 27.656343480543,199.66062109370978 27.675347527721897,199.46044645092115 27.20499736056081,198.68081283414722 27.138483195507433,198.68081283414722 27.067218018637504,198.62813453920535 27.03396093615447,198.52277781720113 27.014956888975576,198.4595636994418 26.986450818250887,198.40688521953416 26.94369171213475,198.33840312984103 26.877177547081374,198.26465310384083 26.801161358482204,198.23304592343993 26.753651240549516,198.19090299154777 26.68713707549614,198.09608129178014 26.577863804326626,198.00652733317838 26.501847615727456,197.90643746414935 26.430582438857527,197.86956220917273 26.326060179504566,197.90643746414935 26.2215379201225,197.9169732473274 26.112264648952987,197.93804480839026 26.01724441317492,197.8748301040614 25.974485307058785,197.76947212258892 25.922224177367752,197.69572143074765 25.808199894439895,197.67464978865974 25.70367763505783,197.67991769984292 25.69892662327038,197.6483102261409 25.746436741144862,197.643042312302 25.732183705782518,197.6272385681732 25.69892662327038,197.65357813952505 25.66566954072914,197.65357813952505 25.694175611482933,197.6483102261409 25.694175611482933,197.65884605246174 25.694175611482933,197.6483102261409 25.69892662327038,197.643042312302 25.637163470004452,197.53768394328654 25.618159422825556,197.46920090895583 25.58015132852597,197.36384224927315 25.542143234197283,197.33223461702437 25.49938412811025,197.2953590260222 25.432869963056874,197.24794752016533 25.342600739037152,197.25321546701525 25.29509062116267,197.21107187982125 25.26183353862143,197.2163398297671 25.200070385384606,197.23214367694527 25.128805208514677,197.2742872500312 25.06704205524875,197.31643079494097 24.98152384304558,197.3111628533661 24.934013725141995,197.35857431167096 24.843744501151377,197.4007178002139 24.80098539503524,197.45866505091544 24.739222241798416,197.46920090895583 24.667957064928487,197.51134432350955 24.596691888087662,197.542951865933 24.501671652309597,197.59563106803398 24.392398381140083,197.66411396495823 24.311631180724362,197.75893631476356 24.211859933129745,197.79581163447438 24.131092732714023,197.78000792867533 24.02181946154451,197.78000792867533 23.94580327294534,197.78000792867533 23.964807320095133,197.75366841019058 23.964807320095133,197.76947212258892 23.964807320095133,197.75893631476356 23.9125461904041,197.75893631476356 23.85078303713817,197.70098934017733 23.79377089565969,197.70098934017733 23.698750659881625,197.72732888068276 23.636987506615696,197.67464978865974 23.541967270808527,197.69572143074765 23.470702093967702,197.60616690318784 23.39468590533943,197.54821978811742 23.356677811039845,197.51134432350955 23.3329227520735,197.5060763982292 23.285412634169916,197.42705746623324 23.209396445541643,197.39544986568217 23.1951434101793,197.4007178002139 23.19039239839185,197.3849139953054 23.176139363029506,197.32696667676646 23.199894421966746,197.23741162511578 23.185641386604402,197.16366031053985 23.11912722152192,197.0951768697123 23.100123174401233,197.04249724920373 23.05261305649765,196.9687457064938 23.028857997560408,196.86865418901652 23.005102938594064,196.75802653736173 22.96709484429448,196.5999866980601 22.891078655637102,196.520966629756 22.83406651415862,196.45775050376687 22.80556044340483,196.39453431433503 22.76755234913435,196.28390583024157 22.686785148689523,196.18908126069437 22.67253211332718,196.12059676061108 22.63452401899849,196.11006067705603 22.620270983636146,196.12586480171376 22.644026042573387,196.13113284238716 22.629773007211043,196.12059676061108 22.644026042573387,196.12586480171376 22.64877705438994,196.12059676061108 22.686785148689523,196.05211218606928 22.691536160506075,196.0415760910837 22.629773007211043,196.04684413880386 22.629773007211043,196.06264827930863 22.620270983636146,196.06264827930863 22.63452401899849,196.06791632527165 22.629773007211043,196.06791632527165 22.629773007211043,196.06264827930863 22.639275030815043,196.04684413880386 22.639275030815043,196.05738023290542 180.90973077600938,92.03806591828106 180.81471054023132,92.09611049646992 180.81471054023132,92.09611049646992 180.81471054023132,92.09611049646992 180.7244413162407,92.1541550207985 180.62942108043353,92.2121994912668 23.114376209763577,197.04249724920373 23.161886327638058,197.14785644619406 23.185641386604402,197.25321546701525 23.19039239839185,197.3691101864497 23.204645433754195,197.49554054636974 23.27115959880757,197.59563106803398 23.304416681348812,197.73786469380502 23.313918704923708,197.86956220917273 23.3329227520735,198.0539382682946 23.347175787435845,198.22251019310715 23.380432869977085,198.3489388407943 23.38993489355198,198.51750997647105 23.36617983461474,198.68081283414722 23.380432869977085,198.76509801447173 23.280661622382468,198.87045433135427 23.090621150826337,198.87572214256943 22.952841808932135,198.92313242373712 22.81031145522138,198.97054266923078 22.65827907793573,199.04429186912967 22.520499736070633,199.08116643670655 22.392222417751327,199.12330877322165 22.297202181944158,199.19705779433207 22.1736758754123,199.24446783376698 22.09290867499658,199.29714561351648 22.050149568909546,199.36035889109553 22.050149568909546,199.3498233492428 22.00739046279341,199.3814299695332 21.931374274165137,199.42883987025925 21.83160302657052,199.44464316256563 21.727080767217558,199.48151749589306 21.636811543197837,199.53946283324694 21.598803448898252,199.602675867769 21.532289283844875,199.69222755813826 21.423016012646258,199.68169207175742 21.313742741534952,199.6711565836231 21.19496744676144,199.69749530067566 21.08094316383358,199.7080307844153 20.985922928055516,199.65008560205752 20.876649656886002,199.66062109370978 20.805384480045177,199.69222755813826 20.7293682913878,199.72383400671242 20.624846032063942,199.76597591349855 20.520323772652773,199.79231459091534 20.458560619415948,199.8713305571364 20.42055252508726,199.97668502467786 20.439556572237052,200.05043304715946 20.368291395396227,200.0715038948765 20.33028330106754,200.0978424446257 20.26376913601416,200.11364556918488 20.154495864873752,200.11364556918488 20.04522259370424,200.0978424446257 19.935949322534725,200.13998410130444 19.92169628717238,200.17159032533164 19.935949322534725,200.25060581605067 19.92169628717238,200.3243535180045 19.893190216447692,200.371762709412 19.888439204660244,200.42443954691043 19.864684145723004,200.492919369859 19.81717402781942,200.58773746340376 19.69364772128756,200.5982727983137 19.603378497296944,200.64041412041115 19.527362308639567,200.67202009346875 19.432342072861502,200.68782307406582 19.418089037499158,200.65094944652446 19.36582790777902,200.64041412041115 19.34207284884178,200.5982727983137 19.313566778117092,200.58246979529213 19.35632588423323,200.51399006965585 19.38008094317047,200.5192577434973 19.327819813479437,200.56139911839273 19.285060707392404,200.6351464566833 19.313566778117092,200.79844382724696 19.332570825266885,200.95647313786685 19.427591061074054,201.0881639273539 19.31831778990454,201.15664302915684 19.209044518735027,201.28306579086347 19.147281365498202,201.4621642692 19.161534400860546,201.60965675161424 19.03800809432869,201.7782191660226 19.014253035391448,201.9520486837646 19.099771247594617,202.03632948949235 19.161534400860546,202.14168033819442 19.152032377256546,202.2417634813537 19.104522259382065,202.4103242053825 19.161534400860546,202.5104069220215 19.26605666024261,202.58941948078427 19.418089037499158,202.64209446495443 19.555868379364256,202.76851424734923 19.622382544446737,202.92127114613686 19.79341896888218,203.05295783073962 19.988210452225758,203.13723716451568 20.140242829482304,203.14250461912889 20.33978532467154,203.08456259410377 20.510821749077877,203.16884188563563 20.70561323245056,203.20044659090854 20.909906739427242,203.21624893759508 21.009677986992756,203.2373187270241 21.156959352461854,203.2847257274807 21.294738694356056,203.29526061162687 21.442020059854258,203.30579549404138 21.6035544606857,203.34793500598607 21.7603378497588,203.33740013063652 21.917121238802793,203.37953962147003 22.04064754533465,203.39007448976554 22.225937005103333,203.4374813753493 22.401724441326223,203.44274880488592 22.572760865732562,203.3953419232639 22.69628717226442,203.34793500598607 22.84356853776262,203.3953419232639 23.01460496216896,203.40587678892916 23.11912722152192,203.3163303746478 23.1951434101793,203.4374813753493 23.342424775648396,203.5586321432238 23.3329227520735,203.7429915606226 23.42319197609322,203.86940913525177 23.51346120008384,203.81146777833783 23.732007742393762,203.84833955706927 23.93630124934134,203.8167351766242 24.102586661989335,203.6745152685362 24.264121062820777,203.5586321432238 24.43515748725622,203.66398044775997 24.587189864512766,203.75352636818934 24.83899348936393,203.75352636818934 24.967270807683235,203.70611972027473 25.133556220302125,203.64291080093972 25.304592644737568,203.59023665307177 25.451874010206666,203.48488822529907 25.575400316738524,203.54282988234627 25.72268168220762,203.63764338812325 25.86996304767672,203.66398044775997 25.993489354208577,203.67978267825674 26.10751363716554,203.62184114707998 26.292803096963326,203.60077148615892 26.463839521398768,203.60603890205311 26.60161886329297,203.5586321432238 26.72039415803738,203.51649277212346 26.858173499902477,203.50069050068123 27.019707900763024,203.57443440012503 27.181242301594466,203.6113063174962 27.285764561005635,203.64291080093972 27.418792891083285,203.73245675130238 27.480556044349214,203.89574609803458 27.58032729194383,204.03269812724102 27.566074256552383,204.20652142816834 27.509062115073903,204.36980954698447 27.485307056136662,204.55416659218827 27.55182122119004,204.70165184019424 27.58032729194383,204.8544040547531 27.456800985411974,204.970284798208 27.295266584551428,205.0334923866867 27.22875241949805,205.1704419443413 27.252507478464395,205.35479664833838 27.342776702455012,205.51281453700358 27.504311103286454,205.62869407029575 27.651592468784656,205.72350443914547 27.627837409818312,205.88678862902816 27.8036248460121,205.9289264158433 27.89864508184837,206.03953797222857 28.026922400167678,206.16068373990856 28.207460848148912,206.26076050285337 28.335738166468218,206.38717302901568 28.47351750836242,206.50305095534713 28.563786732353037,206.65579880558653 28.668308991735103,206.7980119886888 28.806088333629305,206.93495771370362 29.01513285236433,206.95075912437096 29.186169276799774,206.9823619338349 29.36195671299356,207.0613688881822 29.5519971846079,207.10350589003065 29.699278550047893,207.1509099834475 29.865563962695887,207.229916726621 30.02709836352733,207.2825878337244 30.193383776175324,207.20358115654744 30.369171212398214,207.17197845797637 30.544958648621105,207.17197845797637 30.7112440612691,207.1825126925978 30.858525426738197,207.1509099834475 31.015308815753087,207.10350589003065 31.138835122284945,207.0455675052326 31.2718634523917,207.12457438039564 31.381136723561212,207.19831404123033 31.533169100846862,207.2562522856715 31.55217314796755,207.3879299159671 31.61868731305003,207.5301414478272 31.73746260779444,207.64075019532174 31.818229808210162,207.75662581791767 31.903748020442436,207.78296115700505 31.96551117367926,207.76715995486666 31.970262185495812,207.6776197347026 32.03202533876174,207.7197563247355 32.10329051557346,207.8303647396133 32.19831075138063,207.94097296048858" stroke="#4DD2FF" stroke-dasharray="none" stroke-linecap="round" stroke-linejoin="round" stroke-width="0.5"><title>2026-03-14 12.0km</title><desc>9223370263378906807</desc></polyline></svg>