<?xml version="1.0" encoding="utf-8" ?>
<svg baseProfile="full" height="300mm" version="1.1" viewBox="0,0,200,300" width="200mm" xmlns="http://www.w3.org/2000/svg" xmlns:ev="http://www.w3.org/2001/xml-events" xmlns:xlink="http://www.w3.org/1999/xlink"><defs /><rect fill="#222222" height="300" width="200" x="0" y="0" /><text fill="#FFFFFF" style="font-size:12px; font-family:Arial; font-weight:bold;" x="10" y="20">Over 10km Runs</text><text fill="#FFFFFF" style="font-size:4px; font-family:Arial" x="10" y="280">Runner</text><text fill="#FFFFFF" style="font-size:9px; font-family:Arial" x="10" y="290">yihong0618</text><text fill="#FFFFFF" style="font-size:4px; font-family:Arial" x="65" y="280">SPECIAL TRACKS</text><rect fill="yellow" height="2.6" width="2.6" x="65" y="283" /><text fill="#FFFFFF" style="font-size:3px; font-family:Arial" x="70" y="285.5">Over 20.0 km</text><rect fill="red" height="2.6" width="2.6" x="65" y="287" /><text fill="#FFFFFF" style="font-size:3px; font-family:Arial" x="70" y="289.5">Over 40.0 km</text><text fill="#FFFFFF" style="font-size:4px; font-family:Arial" x="120" y="280">STATISTICS</text><text fill="#FFFFFF" style="font-size:3px; font-family:Arial" x="120" y="285">Number: 1</text><text fill="#FFFFFF" style="font-size:3px; font-family:Arial" x="120" y="290">Weekly: 1.0</text><text fill="#FFFFFF" style="font-size:3px; font-family:Arial" x="141" y="285">Total: 12.0 km</text><text fill="#FFFFFF" style="font-size:3px; font-family:Arial" x="141" y="290">Avg: 12.0 km</text><text fill="#FFFFFF" style="font-size:3px; font-family:Arial" x="167" y="285">Min: 12.0 km</text><text fill="#FFFFFF" style="font-size:3px; font-family:Arial" x="167" y="290">Max: 12.0 km</text><polyline fill="none" opacity="1" points="29.181418265012326,207.36159164013952 29.048389934934676,207.31945456438552 28.93911666373606,207.3352559710911 28.663557979947655,207.26151603923063 28.644553932797862,207.2720503204946 28.563786732353037,207.09823445466463 28.525778638053453,207.04029572622312 28.41650536688394,206.91388377031035 28.383248284371803,206.80854028013346 28.26922400141484,206.676860669897 28.231215907115256,206.66105909817634 28.12669364773319,206.61365435928747 28.036424423742574,206.5504479853298 27.89864508184837,206.52937917992313 27.846383952128235,206.41876783605403 27.860636987519683,206.30288907722206 27.732359669200378,206.32922517747647 27.594580327306176,206.28708741179435 27.623086398059968,206.0974671176882 27.54707020940259,206.03426022624262 27.437796938233078,206.00265675675837 27.338025690667564,205.91311350721298 27.276262537401635,205.81303560722154 27.16698926623212,205.71822481856725 27.152736230869778,205.57074108619054 27.214499384135706,205.38638593554424 27.376033784996253,205.36004944143133 27.518564138677903,205.29157450527782 27.556572232977487,205.13882245664354 27.485307056136662,205.05981263106878 27.471054020774318,204.92286203220283 27.442547950020526,204.79117848350143 27.532817174011143,204.66476201796468 27.54707020940259,204.52254319123676 27.566074256552383,204.3908588063423 27.471054020774318,204.27497632010272 27.433045926474733,204.13802401626526 27.35227872602991,204.04321070855076 27.224001407710603,204.0379432983791 27.224001407710603,204.03267588777453 27.2430054548895,204.0379432983791 27.214499384135706,204.04321070855076 27.22875241949805,204.04321070855076 27.219250395923154,204.04321070855076 27.20974837234826,204.0484781182713 27.214499384135706,204.05374552754802 27.219250395923154,204.0484781182713 27.12423016014509,203.90099047958574 27.14798521908233,203.79564195498097 27.17649128983612,203.69029325431984 27.247756466676947,203.6112816132918 27.338025690667564,203.54807222915406 27.399788843933493,203.4795953248322 27.518564138677903,203.39531595584776 27.623086398059968,203.28996658615142 27.70385359847569,203.22675687983428 27.71810663380893,203.1319422014858 27.656343480543,203.04766236768774 27.57557628012728,202.95811492079883 27.532817174011143,202.81062473098427 27.566074256552383,202.72107694737133 27.57557628012728,202.6262615084015 27.594580327306176,202.48403808252988 27.58032729194383,202.37341964056031 27.480556044349214,202.32074412377915 27.452049973624526,202.25753344551413 27.3807847967837,202.15744974196787 27.442547950020526,201.97308460890417 27.504311103286454,201.88880322560726 27.504311103286454,201.7465781357496 27.532817174011143,201.59908511097456 27.60408235088107,201.4831974922563 27.627837409818312,201.34623912267853 27.661094492359553,201.2408863281853 27.627837409818312,201.13026570444345 27.63258842160576,201.0143772236952 27.594580327306176,200.93536222828698 27.594580327306176,200.80893802960054 27.651592468784656,200.64037203686166 27.70385359847569,200.52448265532075 27.70385359847569,200.41386077414427 27.661094492359553,200.2821678053224 27.67059651593445,200.14520682580405 27.665845504147,199.99244230519616 27.675347527721897,199.81860636580677 27.20499736056081,199.0442404466412 27.138483195507433,199.04950827416178 27.06246700687916,198.9968299792199 27.043462959700264,198.91254461569042 27.019707900763024,198.83352698501403 27.00070385361323,198.80718775277273 26.96744677107199,198.73343784393 26.905683617835166,198.68602714266672 26.843920464569237,198.6333485438554 26.763153264124412,198.58593776728958 26.729896181612276,198.52799121415228 26.677635051921243,198.44897310128363 26.568361780780833,198.36468700499972 26.501847615727456,198.2751329041639 26.430582438857527,198.2382576491873 26.335562203079462,198.2645971192469 26.235790955484845,198.28566868734197 26.14077071970678,198.2962044687556 26.036248460324714,198.29093657827616 25.98873834242113,198.18557867607524 25.94122822454665,198.10656013381958 25.884216083068168,198.03807731704728 25.765440788323758,198.06441687076222 25.69892662327038,198.0275414924763 25.708428646845277,198.00646983805927 25.741685729357414,198.00120192334725 25.732183705782518,197.99593400818776 25.694175611482933,198.01700566615546 25.66566954072914,198.02227357953961 25.694175611482933,198.01700566615546 25.670420552545693,198.0328094049728 25.67517156433314,198.02227357953961 25.69892662327038,197.99593400818776 25.694175611482933,197.98539817658457 25.622910434642108,197.885307688357 25.608657399279764,197.8168246311252 25.565898293163627,197.7220018136286 25.546894246013835,197.70093005703893 25.49938412811025,197.66405446603676 25.43762097484432,197.62191090702981 25.352102762641152,197.62717885343955 25.290339609375224,197.58503526978166 25.257082526833983,197.60083911695983 25.24282949147164,197.58503526978166 25.15731127926847,197.6166429601799 25.090797114215093,197.66932240892493 25.03853598452406,197.66932240892493 24.97677283125813,197.69566211678102 24.915009677992202,197.74307356318604 24.843744501151377,197.7957529062478 24.78198134788545,197.83262842017575 24.739222241798416,197.8378963489704 24.677459088503383,197.8800397635241 24.610944923450006,197.9063793833011 24.52067569945939,197.94852275205267 24.42565546365222,197.98539817658457 24.354390286811395,198.08022059771974 24.25461903924588,198.1592391730046 24.154847791680368,198.16450707448894 24.097835650201887,198.16450707448894 24.002815414394718,198.1487033686899 23.94105226112879,198.14343546586315 23.964807320095133,198.12236385020515 23.99331339081982,198.13816756260348 23.96955833188258,198.13816756260348 23.9125461904041,198.13289965891454 23.865036072500516,198.08548850581792 23.79852190744714,198.0696847801919 23.727256730606314,198.12236385020515 23.670244589156937,198.04861313985748 23.584726376924664,198.07495268917046 23.50871018829639,198.02227357953961 23.437445011455566,197.9379869125114 23.375681858189637,197.90111146023264 23.356677811039845,197.8800397635241 23.3329227520735,197.87477183824376 23.285412634169916,197.7957529062478 23.209396445541643,197.75887737073572 23.1951434101793,197.77468117430908 23.209396445541643,197.76414530569673 23.171388351242058,197.7220018136286 23.185641386604402,197.63771474495297 23.1951434101793,197.57449936944613 23.142882280488266,197.5112839305366 23.114376209763577,197.4480684281989 23.090621150826337,197.37431692864993 23.0478620447102,197.32690520478718 23.028857997560408,197.2320816500287 23.005102938594064,197.1267219773763 22.96709484429448,196.96868213807466 22.900580679212,196.9001980846042 22.857821573124966,196.84751799281366 22.81031145522138,196.779033807652 22.78180538446759,196.68420942839657 22.720042231230764,196.59465293915855 22.677283125114627,196.51563240176984 22.663030089752283,196.4840241590755 22.6250219954527,196.4840241590755 22.639275030815043,196.49456024172832 22.644026042573387,196.49982828240172 22.63452401899849,196.48929220062564 22.644026042573387,196.49456024172832 22.644026042573387,196.4840241590755 22.686785148689523,196.43661176528622 22.691536160506075,196.41553957881843 22.68203413693118,196.44714785587712 22.639275030815043,196.42607567291998 22.6250219954527,196.43661176528622 22.6155199718487,196.44714785587712 22.6250219954527,196.43661176528622 22.6250219954527,196.4313437193232 22.629773007211043,196.42607567291998 22.629773007211043,196.42080762608384 22.639275030815043,196.42607567291998 181.0,92.34871672625741 180.90973077600938,92.40676135829563 180.81471054023132,92.46480593648448 180.81471054023132,92.46480593648448 180.81471054023132,92.46480593648448 180.7244413162407,92.52285046081306 23.08587013903889,197.36378099308058 23.11912722152192,197.47967618729672 23.1951434101793,197.5376237044511 23.16663733945461,197.66405446603676 23.19039239839185,197.76941324022846 23.209396445541643,197.87477183824376 23.27115959880757,197.96432650804854 23.313918704923708,198.08022059771974 23.299665669561364,198.22245396187645 23.328171740286052,198.39102642219586 23.36142882279819,198.5332590848302 23.375681858189637,198.67022356764937 23.38993489355198,198.78611635906418 23.380432869977085,198.95995514655806 23.380432869977085,199.08111522997933 23.37093084640219,199.16540036804508 23.25215555165778,199.24968539335168 23.057364068285096,199.26548882306088 22.948090797115583,199.29709567057216 22.815062467037933,199.33397030596097 22.68203413693118,199.397183916426 22.55375681858277,199.44986187672112 22.425479500263464,199.48673642272115 22.339961288060294,199.53414652157517 22.23068801689078,199.5868243673831 22.126165757508716,199.6342343909564 22.078655639634235,199.7027154731586 22.050149568909546,199.72378656040019 22.050149568909546,199.72378656040019 22.00263945100596,199.76592871376124 21.931374274165137,199.79753531027382 21.83160302657052,199.8133386025802 21.741333802579902,199.84494517532585 21.651064578589285,199.90289051751824 21.6130564842897,199.95556805509113 21.560795354569564,200.05565525518978 21.446771071641706,200.05565525518978 21.375505894771777,200.03985202363765 21.25197958823992,200.06619074069022 21.14270631709951,200.05565525518978 21.05718810489634,200.06092299815282 20.96216786908917,200.01878104207208 20.867147633311106,200.03985202363765 20.805384480045177,200.06092299815282 20.734119303204352,200.08726170639784 20.639099067397183,200.1294036167019 20.548829843406565,200.1610100309299 20.47281365474919,200.2136873527561 20.430054548662156,200.30323869881613 20.439556572237052,200.3822544867362 20.396797466120915,200.4349316236221 20.35403836000478,200.46127017557592 20.320781277492642,200.47707330143749 20.24476508886437,200.48760871649574 20.13549181772396,200.47707330143749 20.040471581945894,200.46653788464027 19.935949322534725,200.508679541319 19.92169628717238,200.5402857653462 19.935949322534725,200.59823046822567 19.92644729895983,200.68778126787947 19.89794122823514,200.72465508957248 19.893190216447692,200.77206425722034 19.878937181085348,200.82474106830705 19.864684145723004,200.90375620239502 19.774414921703283,200.9985742325298 19.669892662321217,200.9775035715029 19.598627485480392,201.00384189669785 19.513109273277223,201.05125085431428 19.427591061074054,201.05125085431428 19.418089037499158,201.01964488653903 19.370578919595573,201.00384189669785 19.34207284884178,200.9775035715029 19.31831778990454,200.9511652353067 19.35632588423323,200.93536222828698 19.370578919595573,200.88795318351185 19.332570825266885,200.91955921733825 19.304064754542196,200.9458975667294 19.308815766329644,201.04598319412253 19.299313742725644,201.20401280851365 19.35632588423323,201.3515067577755 19.427591061074054,201.47266224362465 19.31831778990454,201.5253384691714 19.223297554126475,201.63595839953632 19.152032377256546,201.80452172961304 19.190040471585235,201.93621151757907 19.071265176840825,202.0942388999465 19.004751011787448,202.2417307660471 19.03800809432869,202.41556002230573 19.147281365498202,202.4524328332118 19.128277318319306,202.54724853365042 19.142530353710754,202.65786667056818 19.08551821220317,202.81589224369964 19.17578743622289,202.88963737558151 19.280309695575852,202.95811492079883 19.418089037499158,203.010789904969 19.55111736760591,203.12667471517852 19.598627485480392,203.26362921622058 19.726904803828802,203.39004849153207 19.90744325183914,203.49013023802036 20.083230688032927,203.55333968026025 20.230512053502025,203.45325803411833 20.396797466120915,203.48486278164637 20.582086925947806,203.5375373256502 20.748372338537592,203.5744094802576 20.947914833726827,203.59021182562356 21.0239310223551,203.60601416703867 21.156959352461854,203.65342116749525 21.28523667078116,203.66395605164143 21.42776702446281,203.66922349306697 21.560795354569564,203.70082813231056 21.71282773182611,203.7060955706511 21.850607073749416,203.72189788300602 21.974133380281273,203.7587699297801 22.126165757508716,203.79564195498097 22.273447123006918,203.80090938539797 22.444483547413256,203.81144424490049 22.601266936486354,203.7587699297801 22.710540207655868,203.72716531958213 22.848319549520966,203.7693047963221 23.009853950381512,203.7851070928482 23.09537216258468,203.68502581466237 23.161886327638058,203.79037452413468 23.313918704923708,203.88518821213802 23.323420728498604,204.04321070855076 23.404187928914325,204.15382622034303 23.45169804681791,204.24863936169277 23.608481435861904,204.1590936208231 23.779517860297346,204.2065002053714 23.97430934367003,204.15382622034303 24.121590709139127,204.02740847673704 24.28787612178712,203.92732758323837 24.43515748725622,204.03267588777453 24.577687840966973,204.1222218082039 24.81523843042669,204.1222218082039 24.9245117015671,204.095884786002 25.07654407885275,204.0379432983791 25.223825444321847,203.95893209308633 25.38535984515329,203.92206016339333 25.489882104535354,203.84831623929858 25.622910434642108,203.9431298401396 25.746436741144862,204.04321070855076 25.884216083068168,204.0484781182713 26.007742389600025,204.0379432983791 26.12651768431533,203.98526917252457 26.27855006160098,203.96419950985 26.440084462432424,203.98526917252457 26.577863804326626,203.93786242160058 26.691888087254483,203.89572305754336 26.801161358482204,203.8693859406958 26.962695759313647,203.91152532236083 27.11472813654109,203.96946692617348 27.185993313411018,203.99580400121704 27.333274678880116,204.02740847673704 27.452049973624526,204.1327566140244 27.480556044349214,204.2855111003737 27.58507830373128,204.41719570533678 27.566074256552383,204.5752168681829 27.51381312686135,204.7227029294736 27.49956009152811,204.89652534446577 27.49956009152811,205.0545453058512 27.594580327306176,205.18096098977912 27.518564138677903,205.3126437243227 27.366531761421356,205.36531674112484 27.2430054548895,205.47592993317812 27.20974837234826,205.61287933063795 27.285764561005635,205.7708974965317 27.366531761421356,205.9183807607078 27.51381312686135,206.00265675675837 27.651592468784656,206.0974671176882 27.623086398059968,206.25021684370222 27.78462079889141,206.29762185585787 27.893894070060924,206.36082848326987 27.98891430583899,206.50304316327674 28.145697694882983,206.60311996802557 28.297730072168633,206.70319661392932 28.407003343309043,206.7980059214351 28.487770543753868,206.93495244724545 28.606545838469174,207.05609720289794 28.692064050701447,207.21937889658875 28.844096427957993,207.31945456438552 29.019883864180883,207.31418742794267 29.186169276799774,207.35105737384947 29.342952665872872,207.41953007334814 29.528242125641555,207.46166708222154 29.656519443931757,207.51433830372116 29.83230688018375,207.5670094812449 29.95108217492816,207.64074905583766 30.103114552184707,207.6038792793188 30.250395917653805,207.57754371146802 30.421432342089247,207.54594101551265 30.606721801887034,207.53540678000718 30.749252155568684,207.55120813261237" stroke="#4DD2FF" stroke-dasharray="none" stroke-linecap="round" stroke-linejoin="round" stroke-width="0.5"><title>2026-03-14 12.0km</title><desc>9223370263378906807</desc></polyline></svg>