<?xml version="1.0" encoding="utf-8" ?>
<svg baseProfile="full" height="300mm" version="1.1" viewBox="0,0,200,300" width="200mm" xmlns="http://www.w3.org/2000/svg" xmlns:ev="http://www.w3.org/2001/xml-events" xmlns:xlink="http://www.w3.org/1999/xlink"><defs /><rect fill="#222222" height="300" width="200" x="0" y="0" /><text fill="#FFFFFF" style="font-size:12px; font-family:Arial; font-weight:bold;" x="10" y="20">Over 10km Runs</text><text fill="#FFFFFF" style="font-size:4px; font-family:Arial" x="10" y="280">Runner</text><text fill="#FFFFFF" style="font-size:9px; font-family:Arial" x="10" y="290">yihong0618</text><text fill="#FFFFFF" style="font-size:4px; font-family:Arial" x="65" y="280">SPECIAL TRACKS</text><rect fill="yellow" height="2.6" width="2.6" x="65" y="283" /><text fill="#FFFFFF" style="font-size:3px; font-family:Arial" x="70" y="285.5">Over 20.0 km</text><rect fill="red" height="2.6" width="2.6" x="65" y="287" /><text fill="#FFFFFF" style="font-size:3px; font-family:Arial" x="70" y="289.5">Over 40.0 km</text><text fill="#FFFFFF" style="font-size:4px; font-family:Arial" x="120" y="280">STATISTICS</text><text fill="#FFFFFF" style="font-size:3px; font-family:Arial" x="120" y="285">Number: 1</text><text fill="#FFFFFF" style="font-size:3px; font-family:Arial" x="120" y="290">Weekly: 1.0</text><text fill="#FFFFFF" style="font-size:3px; font-family:Arial" x="141" y="285">Total: 12.0 km</text><text fill="#FFFFFF" style="font-size:3px; font-family:Arial" x="141" y="290">Avg: 12.0 km</text><text fill="#FFFFFF" style="font-size:3px; font-family:Arial" x="167" y="285">Min: 12.0 km</text><text fill="#FFFFFF" style="font-size:3px; font-family:Arial" x="167" y="290">Max: 12.0 km</text><polyline fill="none" opacity="1" points="30.483195495355176,207.27731957231663 30.35491817703587,207.28258668983835 30.193383776175324,207.28785380693807 30.069857469643466,207.36159340001177 29.936829139565816,207.37212762055424 29.79904979764251,207.27731957231663 29.651768432173412,207.25098397804686 29.5424951610039,207.20357988067553 29.385711771959905,207.18251138152118 29.243181418278255,207.12457297252695 29.1101530881715,207.05610023871122 28.96762273448985,207.05610023871122 28.82034136899165,207.08243591436985 28.65405595637276,207.00342885440477 28.56853774416959,206.83488012899033 28.525778638053453,206.77694140054882 28.421256378671387,206.62419358860643 28.359493225434562,206.53991877531735 28.254970966052497,206.408239154076 28.202709836361464,206.36610161719364 28.083934541617054,206.32396405216787 27.946155199722853,206.29236085990124 27.841632940340787,206.18701677129138 27.884392046456924,206.08167250667248 27.751363716379274,206.0606036326426 27.60408235088107,206.03426753018357 27.623086398059968,205.8341127920139 27.532817174011143,205.77090590056832 27.414041879295837,205.734035184636 27.319021643488668,205.62342290746892 27.238254443072947,205.5180777011701 27.157487242657226,205.38639594576307 27.162238254473777,205.23364476494316 27.338025690667564,205.11776431191538 27.475805032561766,205.07562591254828 27.566074256552383,204.89653740105132 27.49956009152811,204.81226027843513 27.46155199719942,204.66477504276554 27.437796938233078,204.51728946204457 27.532817174011143,204.38560561627673 27.566074256552383,204.22758463826904 27.532817174011143,204.10116757068317 27.49480907971156,203.95894806661818 27.3807847967837,203.8325304603277 27.22875241949805,203.75878673956686 27.22875241949805,203.7745889727048 27.247756466676947,203.76932156210023 27.214499384135706,203.7745889727048 27.22875241949805,203.77985638287646 27.219250395923154,203.77985638287646 27.20974837234826,203.785123792597 27.214499384135706,203.77985638287646 27.185993313411018,203.76932156210023 27.133732183719985,203.60076419032703 27.152736230869778,203.4901481701745 27.214499384135706,203.38479939909303 27.29051557276398,203.3057877052488 27.357029737817356,203.23731082380255 27.485307056136662,203.14776402043572 27.60408235088107,203.04768214849173 27.699102586659137,202.9686700320999 27.71810663380893,202.86332038950422 27.63733943339321,202.77377305486152 27.566074256552383,202.66842308655032 27.537568185827695,202.52093283510112 27.566074256552383,202.4103149200273 27.570825268368935,202.29969681086004 27.618335386243416,202.15220569663143 27.49480907971156,202.07319245775216 27.471054020774318,202.00471423728231 27.385535808542045,201.90463055047076 27.437796938233078,201.7202654482171 27.504311103286454,201.62544889993296 27.504311103286454,201.47268860545955 27.542319197615143,201.31992794076723 27.618335386243416,201.19350504169415 27.627837409818312,201.04601133896358 27.651592468784656,200.91958789047203 27.618335386243416,200.80369950658496 27.60408235088107,200.69834624542273 27.59933133906452,200.5877251316706 27.623086398059968,200.4086238691707 27.70385359847569,200.28219914212968 27.70385359847569,200.16104187409292 27.661094492359553,200.0135457551478 27.675347527721897,199.8607815537689 27.67059651593445,199.69221372941684 27.665845504147,199.5499842769059 27.17174027801957,198.79668960218987 27.0862220658164,198.7808861209669 27.06246700687916,198.68079731455146 27.02445891255047,198.5965118805907 27.00545486540068,198.56490481378205 26.972197782888543,198.47535137174418 26.905683617835166,198.4279406744463 26.843920464569237,198.3699942181811 26.763153264124412,198.32258344161528 26.725145169824827,198.25410114583065 26.64912898116745,198.1803508978919 26.535104698239593,198.07499325110985 26.44958648600732,197.98543911285742 26.387823332770495,197.974903323513 26.27855006160098,198.00651068624575 26.178778814006364,198.03811803313147 26.050501495716162,198.02758225260186 25.998240365996026,197.92749224968793 25.94122822454665,197.84320580814529 25.884216083068168,197.77472299137298 25.746436741144862,197.81686627204544 25.708428646845277,197.75365134048116 25.69892662327038,197.73257968251346 25.71317965866183,197.74311551238497 25.69892662327038,197.74838342664225 25.679922576091485,197.7694550792985 25.670420552545693,197.764187166802 25.670420552545693,197.779990903 25.684673587908037,197.764187166802 25.694175611482933,197.73784759767295 25.694175611482933,197.72204385091027 25.622910434642108,197.60088166071 25.608657399279764,197.5323985805735 25.565898293163627,197.45337954947172 25.532641210622387,197.43230779110672 25.456625021994114,197.39016425325462 25.39486186875729,197.33748479128553 25.30934365655412,197.34802068719728 25.27133556222543,197.3269488936021 25.26183353862143,197.3164129941615 25.166813302843366,197.35855658135551 25.10029913778999,197.40070014036246 25.033784972736612,197.40070014036246 24.98152384304558,197.43757573136463 24.891254619025858,197.49025510964566 24.829491465789033,197.54820237489912 24.772479324310552,197.5640061652557 24.72021819461952,197.59561373409815 24.65845504135359,197.60614958685255 24.558683793788077,197.6746325868371 24.45891254619346,197.70624010018582 24.363892310415395,197.8063304545176 24.268872074608225,197.90115274881464 24.154847791680368,197.90115274881464 24.08358261481044,197.8958848473303 23.988562379032373,197.8853490430156 23.95055428473279,197.88008114018885 23.964807320095133,197.85900952453085 23.983811367244925,197.86954533324024 23.94580327294534,197.8906169453876 23.888791131437756,197.84320580814529 23.822276966413483,197.8063304545176 23.755762801360106,197.84847371405704 23.67974661270273,197.79052672493708 23.589477388712112,197.80106254508792 23.50871018829639,197.75891925386532 23.437445011455566,197.65882882420556 23.36142882279819,197.6219533626827 23.347175787435845,197.62722128707537 23.323420728498604,197.57980995166508 23.256906563445227,197.50605891455416 23.19039239839185,197.5271306482391 23.1951434101793,197.51132684863478 23.180890374816954,197.47971923751174 23.180890374816954,197.39016425325462 23.1951434101793,197.31114504377183 23.142882280488266,197.2479296048623 23.114376209763577,197.17944614114094 23.08587013903889,197.11096260297563 23.0478620447102,197.03721101710835 23.009853950381512,196.92658347642646 23.009853950381512,196.74747180829945 22.919584726390895,196.67898780063115 22.881576632062206,196.57889565554433 22.81031145522138,196.53148353131837 22.800809431646485,196.44719522236846 22.724793243018212,196.34710270906362 22.67253211332718,196.2575461150118 22.663030089752283,196.2206698334012 22.6250219954527,196.22593787495134 22.644026042573387,196.23120591605402 22.64877705438994,196.23120591605402 22.629773007211043,196.2206698334012 22.639275030815043,196.2206698334012 22.663030089752283,196.2206698334012 22.701038184051868,196.14691720542396 22.691536160506075,196.17325743961192 22.606017948273802,196.15745330040954 22.6250219954527,196.17325743961192 22.6155199718487,196.18379353020282 22.6250219954527,196.1679893936489 22.6250219954527,196.1679893936489 22.629773007211043,196.16272134724568 22.629773007211043,196.16272134724568 22.644026042573387,196.15745330040954 180.90973077600938,92.14340703262133 180.81471054023132,92.20145161081018 180.81471054023132,92.20145161081018 180.81471054023132,92.20145161081018 180.7244413162407,92.25949613513876 23.08587013903889,197.10042666740628 23.11912722152192,197.21632186162242 23.180890374816954,197.300609141701 23.176139363029506,197.42177190928123 23.180890374816954,197.54820237489912 23.228400492691435,197.6430250576268 23.285412634169916,197.75365134048116 23.294914657744812,197.8853490430156 23.323420728498604,198.02758225260186 23.347175787435845,198.23302965522817 23.375681858189637,198.39106566299233 23.38993489355198,198.51749418385225 23.380432869977085,198.69660082088376 23.380432869977085,198.83356437628754 23.37093084640219,198.91258167670458 23.1951434101793,198.99686668793584 23.028857997560408,199.01793792311946 22.891078655637102,199.03374134489786 22.748548301955452,199.09695499235386 22.591764912911458,199.16016857639988 22.458736582804704,199.20757872283866 22.354214323451743,199.2602566214664 22.240190040465677,199.31820225911724 22.12141474575037,199.3708800652821 22.078655639634235,199.4393611474843 22.050149568909546,199.4604322347259 22.050149568909546,199.4657000054358 21.99313742740196,199.51310992200888 21.898117191623896,199.5394487491467 21.76983987330459,199.55525204013247 21.693823684676317,199.6290006790441 21.617807496048044,199.66587496613283 21.57504838996101,199.76596220805004 21.475277142366394,199.80283641501592 21.385007918346673,199.7712299532286 21.25197958823992,199.80283641501592 21.147457328886958,199.81863963995784 21.042935069533996,199.7870331860977 20.93366179833538,199.75542671639778 20.829139538982417,199.79230092951548 20.76262537392904,199.80810415710948 20.686609185300767,199.8660492910276 20.582086925947806,199.87658476420256 20.491817701928085,199.91872663928007 20.439556572237052,200.0188134796481 20.439556572237052,200.11363244493623 20.396797466120915,200.1715772979478 20.35403836000478,200.19791584990162 20.311279253917746,200.20845126758286 20.21625901813968,200.2295220976921 20.116487770545064,200.20318355896597 19.997712475829758,200.22425439082144 19.90744325183914,200.25586062541697 19.93119831077638,200.2980022468837 19.92644729895983,200.38755309893168 19.90744325183914,200.44023001129608 19.90269224002259,200.4929068796191 19.888439204660244,200.54558370392624 19.864684145723004,200.64040187672072 19.769663909915835,200.72995224226543 19.650888615171425,200.7194169117538 19.593876473722048,200.7510228980209 19.49410522612743,200.80896716503048 19.427591061074054,200.78262886844823 19.38958296677447,200.7352199068555 19.36582790777902,200.72995224226543 19.31831778990454,200.6878109096324 19.35632588423323,200.66147256240583 19.370578919595573,200.62459885783755 19.332570825266885,200.65620489166395 19.304064754542196,200.6825432410551 19.31831778990454,200.79316418840608 19.299313742725644,200.98279964640824 19.384831954957917,201.1197582334753 19.38958296677447,201.23564603622435 19.251803624851163,201.29885747517983 19.161534400860546,201.4516181909712 19.166285412647994,201.63071648969708 19.104522259382065,201.79401155382584 19.004751011787448,201.95203863246206 19.02850607072469,202.1416706038326 19.147281365498202,202.1890785075375 19.128277318319306,202.28389420797612 19.128277318319306,202.4103149200273 19.08551821220317,202.59467800395942 19.199542495189235,202.65788808002253 19.35157487244578,202.70002809552898 19.48935421431088,202.78957553493092 19.565370402968256,202.95286759694136 19.69839873307501,203.0898219034134 19.878937181085348,203.21097354189988 20.059475629066583,203.27945045194429 20.221010029898025,203.18990370844404 20.40629948969581,203.22677591234606 20.582086925947806,203.2741829999759 20.781629421078833,203.31632260347033 20.981171916238964,203.32685749994926 21.095196199195925,203.33739239466377 21.218722505727783,203.3953342841196 21.366003871225985,203.40060172596714 21.499032201303635,203.43747380663626 21.65581559034763,203.45327612032634 21.82685201478307,203.45327612032634 21.964631356706377,203.5059504706478 22.126165757508716,203.53228762930667 22.282949146581814,203.54282248968957 22.4777406299836,203.55335734832624 22.63452401899849,203.4743458657431 22.75805032553035,203.4690784300401 22.919584726390895,203.52702019846038 23.043111032922752,203.4690784300401 23.13338025691337,203.4743458657431 23.27115959880757,203.5480899192262 23.33767376386095,203.74825191527998 23.408938940701773,203.87466969059096 23.446947035030462,203.9958198207023 23.608481435861904,203.89573929514881 23.808023931022035,203.92207629096447 24.012317437998718,203.87466969059096 24.17385183883016,203.72191484685027 24.368643322202843,203.7008451841757 24.4921696287347,203.82199564834445 24.686961112107383,203.86413488566177 24.900756642629858,203.8588674825296 25.02903396092006,203.7956586107248 25.195319373568054,203.7008451841757 25.375857821607497,203.6692406769689 25.489882104535354,203.58496191362428 25.632412458217004,203.68504293255683 25.765440788323758,203.79039120187372 25.917473165609408,203.80619342709906 26.036248460324714,203.75351932763442 26.193031849368708,203.70611260049918 26.373570297379047,203.72718226142024 26.520851662848145,203.68504293255683 26.672884040133795,203.63763615391144 26.76790427591186,203.61129903927213 26.938940700347302,203.63236873186906 27.105226112966193,203.70611260049918 27.195495336985914,203.72191484685027 27.342776702455012,203.7745889727048 27.471054020774318,203.9010066951996 27.509062115073903,204.0748306496971 27.566074256552383,204.21704989232967 27.556572232977487,204.40140769229038 27.518564138677903,204.56996292334588 27.46155199719942,204.7385177037322 27.594580327306176,204.87546813096924 27.542319197615143,205.01768556745446 27.376033784996253,205.10196241545054 27.2430054548895,205.21257560750382 27.200246348773362,205.37059411665177 27.304768608126324,205.5338794933341 27.3807847967837,205.68136269590468 27.58032729194383,205.76037141251436 27.651592468784656,205.90258685288063 27.694351574900793,206.03426753018357 27.884392046456924,206.0448019724754 27.936653176147956,206.2133528099548 28.10293858879595,206.3081624580118 28.283477036777185,206.408239154076 28.402252331521595,206.5346515957608 28.487770543753868,206.6979339578138 28.61604786204407,206.813811506614 28.706317086034687,206.9718260027148 28.896357557649026,207.06136737471388 29.086398029205156,207.05083310226837 29.2574344536406,207.10350444696087 29.447474925225833,207.18251138152118 29.604258314269828,207.24044973726268 29.784796762280166,207.28785380693807 29.932078127749264,207.36686051050856 30.09836354039726,207.34579206590206 30.250395917653805,207.31418938579372 30.43568537745159,207.27731957231663 30.620974837220274,207.27205245433288 30.78250923808082,207.27731957231663 30.929790603549918,207.22464837281586 31.062818933656672,207.17724425562483 31.200598275579978,207.18251138152118 31.319373570324387,207.28258668983835 31.471405947580934,207.31945650023044 31.547422136209207,207.41426448512357 31.580679218721343,207.55647619516822 31.675699454528512,207.6934205017169 31.780221713910578,207.7882279243313 31.846735878963955,207.90937053467133 31.903748020442436,207.89883640388507" stroke="#4DD2FF" stroke-dasharray="none" stroke-linecap="round" stroke-linejoin="round" stroke-width="0.5"><title>2026-03-14 12.0km</title><desc>9223370263378906807</desc></polyline></svg>