<?xml version="1.0" encoding="utf-8" ?>
<svg baseProfile="full" height="300mm" version="1.1" viewBox="0,0,200,300" width="200mm" xmlns="http://www.w3.org/2000/svg" xmlns:ev="http://www.w3.org/2001/xml-events" xmlns:xlink="http://www.w3.org/1999/xlink"><defs /><rect fill="#222222" height="300" width="200" x="0" y="0" /><text fill="#FFFFFF" style="font-size:12px; font-family:Arial; font-weight:bold;" x="10" y="20">Over 10km Runs</text><text fill="#FFFFFF" style="font-size:4px; font-family:Arial" x="10" y="280">Runner</text><text fill="#FFFFFF" style="font-size:9px; font-family:Arial" x="10" y="290">yihong0618</text><text fill="#FFFFFF" style="font-size:4px; font-family:Arial" x="65" y="280">SPECIAL TRACKS</text><rect fill="yellow" height="2.6" width="2.6" x="65" y="283" /><text fill="#FFFFFF" style="font-size:3px; font-family:Arial" x="70" y="285.5">Over 20.0 km</text><rect fill="red" height="2.6" width="2.6" x="65" y="287" /><text fill="#FFFFFF" style="font-size:3px; font-family:Arial" x="70" y="289.5">Over 40.0 km</text><text fill="#FFFFFF" style="font-size:4px; font-family:Arial" x="120" y="280">STATISTICS</text><text fill="#FFFFFF" style="font-size:3px; font-family:Arial" x="120" y="285">Number: 1</text><text fill="#FFFFFF" style="font-size:3px; font-family:Arial" x="120" y="290">Weekly: 1.0</text><text fill="#FFFFFF" style="font-size:3px; font-family:Arial" x="141" y="285">Total: 12.0 km</text><text fill="#FFFFFF" style="font-size:3px; font-family:Arial" x="141" y="290">Avg: 12.0 km</text><text fill="#FFFFFF" style="font-size:3px; font-family:Arial" x="167" y="285">Min: 12.0 km</text><text fill="#FFFFFF" style="font-size:3px; font-family:Arial" x="167" y="290">Max: 12.0 km</text><polyline fill="none" opacity="1" points="31.518916065455414,207.32999196739183 31.44289987682714,207.22991692657524 31.347879641049076,207.22464981476878 31.252859405241907,207.20358136311916 31.167341193038737,207.08243762954226 31.04856589832343,207.08243762954226 30.934541615337366,207.12457460675796 30.834770367771853,207.17197867246068 30.706493049452547,207.19304713466045 30.61147281367448,207.1509102031996 30.478444483567728,207.15617732118335 30.340665141644422,207.1667115558048 30.17913074081298,207.17197867246068 30.055604434281122,207.25625247903008 29.908323068812024,207.25098536942096 29.75153967976803,207.15617732118335 29.628013373236172,207.12457460675796 29.475980995979626,207.09823899930052 29.342952665872872,207.02449923991298 29.186169276799774,206.97709506333194 29.034136899543228,206.93495798757795 28.91061059301137,206.96129366323657 28.64930494458531,206.88755374368702 28.630300897406414,206.7822108518958 28.55428470877814,206.67686778409552 28.435509414062835,206.58205887260556 28.402252331521595,206.42404370332588 28.26922400141484,206.29236409308942 28.221713883511256,206.27129532992694 28.098187577008503,206.218623391218 27.98891430583899,206.16595140852223 27.87013901109458,206.07640893693315 27.884392046456924,205.97106468991842 27.756114728137618,205.93946138150932 27.60408235088107,205.9131252790503 27.623086398059968,205.71297054088063 27.5280661622528,205.64449640562452 27.399788843933493,205.60762568661448 27.309519619942876,205.48647888660344 27.219250395923154,205.37586638765424 27.162238254473777,205.22311547481877 27.185993313411018,205.04402772640242 27.3712827731797,204.97555286462375 27.532817174011143,204.88600870238588 27.556572232977487,204.7332566026962 27.433045926474733,204.63317744014785 27.471054020774318,204.48569206892353 27.49956009152811,204.32240429116064 27.532817174011143,204.16965082587922 27.570825268368935,204.02743174960415 27.471054020774318,203.89047974329515 27.42829491465818,203.73772523139633 27.29051557276398,203.64817931096695 27.22875241949805,203.65344672157153 27.257258490251843,203.64817931096695 27.219250395923154,203.65871413174318 27.224001407710603,203.65871413174318 27.219250395923154,203.65871413174318 27.20974837234826,203.66398154146373 27.214499384135706,203.65871413174318 27.181242301594466,203.63237707650114 27.133732183719985,203.46908708850606 27.152736230869778,203.36373848467701 27.22875241949805,203.25312226116876 27.319021643488668,203.16357565234648 27.395037832146045,203.0950987480246 27.52331515046535,203.0055519147245 27.642090445180656,202.88966758870083 27.72760865741293,202.81065542608485 27.708604610263137,202.70003823204388 27.58507830373128,202.621025831726 27.54707020940259,202.47353575282614 27.566074256552383,202.34711541053548 27.57557628012728,202.24176493159393 27.60408235088107,202.08373888304777 27.542319197615143,201.96258531086278 27.480556044349214,201.92044488334068 27.399788843933493,201.82036125507148 27.418792891083285,201.62019352177958 27.49956009152811,201.53064459318193 27.49956009152811,201.37261676179332 27.537568185827695,201.20932091976647 27.613584374455968,201.0828980418446 27.627837409818312,200.93013672600864 27.651592468784656,200.79844563933875 27.618335386243416,200.67728959658052 27.59933133906452,200.57720399428945 27.60408235088107,200.4560475262333 27.64684145699721,200.26114315414452 27.699102586659137,200.12945066962493 27.684849551296793,199.99249019380295 27.67059651593445,199.85026169234698 27.661094492359553,199.6922296476223 27.684849551296793,199.46044859851827 27.656343480543,199.41303873346624 27.157487242657226,198.67027952442004 27.06246700687916,198.61233340241233 27.03871194794192,198.5175123605186 27.014956888975576,198.44376256264877 26.986450818250887,198.39108408274114 26.938940700347302,198.31206628033033 26.867675523506477,198.2488519670478 26.786908323090756,198.18563759037352 26.73464719337062,198.14876250802263 26.677635051921243,198.06447652447605 26.54460672181449,197.96438677257902 26.468590533186216,197.8590289672684 26.40207636813284,197.8590289672684 26.27855006160098,197.88536843511247 26.178778814006364,197.9169757819982 26.050501495716162,197.90644000146858 25.98873834242113,197.80108209926766 25.950730248121545,197.7062598366756 25.85571001234348,197.6641165630499 25.732183705782518,197.6851882033843 25.71317965866183,197.62724117550897 25.717930670420174,197.61670534653967 25.708428646845277,197.63250908934788 25.689424599695485,197.64831282816522 25.66566954072914,197.63777700273204 25.69892662327038,197.63777700273204 25.694175611482933,197.64304491566872 25.694175611482933,197.63250908934788 25.69892662327038,197.62724117550897 25.637163470004452,197.52188280649352 25.622910434642108,197.44813184336817 25.570649304951075,197.34277317487795 25.546894246013835,197.31643348023135 25.485131092747906,197.27428994588627 25.40911490409053,197.22161048832277 25.323596691916464,197.2321463833723 25.280837585800327,197.20580664246881 25.266584550437983,197.19527074302823 25.176315326418262,197.24268227663197 25.10029913778999,197.27955788922918 25.033784972736612,197.27955788922918 24.972021819470683,197.31643348023135 24.881752595450962,197.36911285851238 24.819989442214137,197.42706012376584 24.762977300735656,197.44286391412243 24.69171212389483,197.49027526143618 24.629948970628902,197.5060790359421 24.52067569945939,197.5640261752451 24.416153440106427,197.61670534653967 24.325884216086706,197.73259936837349 24.226112968521193,197.77474259619703 24.140594756318023,197.7536709857959 24.02181946154451,197.76420679188232 23.94580327294534,197.76420679188232 23.964807320095133,197.73786727339757 23.99331339081982,197.7536709857959 23.96005630827858,197.74840308210696 23.9125461904041,197.74313517797054 23.82702797820093,197.6851882033843 23.7747668485099,197.71152774388975 23.684497624490177,197.67465238409932 23.598979412287008,197.67465238409932 23.51346120008384,197.64304491566872 23.437445011455566,197.548222415262 23.36142882279819,197.5008111115494 23.347175787435845,197.5060790359421 23.318669716682052,197.4533997721628 23.25215555165778,197.37438079392814 23.19039239839185,197.40598839710583 23.209396445541643,197.37964872888915 23.171388351242058,197.33750523682102 23.1951434101793,197.23741433022224 23.204645433754195,197.16893098672153 23.128629245155025,197.09517961048914 23.104874186159577,197.03723204003472 23.05261305649765,196.96348050965753 23.0383600211062,196.8686569866113 23.005102938594064,196.7422254005687 22.96709484429448,196.58418556126708 22.886327643849654,196.4998974848786 22.829315502371173,196.43668135359985 22.800809431646485,196.35766110030818 22.753299313772004,196.2523006084266 22.68203413693118,196.15747601511248 22.65827907793573,196.094259540263 22.629773007211043,196.0995275822679 22.644026042573387,196.11006366492074 22.64877705438994,196.11006366492074 22.629773007211043,196.0995275822679 22.639275030815043,196.0995275822679 22.67253211332718,196.08899149784338 22.69628717226442,196.02577495429068 22.686785148689523,196.06791932370106 22.639275030815043,196.0415790961124 22.6250219954527,196.04684714251562 22.620270983636146,196.0573832339942 22.6250219954527,196.04684714251562 22.629773007211043,196.04684714251562 22.629773007211043,196.03631104927626 22.639275030815043,196.0415790961124 181.0,91.96422014944983 180.81471054023132,92.0803093596769 180.81471054023132,92.0803093596769 180.81471054023132,92.0803093596769 180.80995952844387,92.06975580400831 180.62942108043353,92.19639835447379 23.11912722152192,197.03723204003472 23.180890374816954,197.13732326463287 23.16663733945461,197.26902200212135 23.19039239839185,197.3901845975015 23.223649480903987,197.5113469599055 23.280661622382468,197.61143743138018 23.294914657744812,197.75893888905557 23.318669716682052,197.9011721105344 23.347175787435845,198.1118874040949 23.375681858189637,198.26992341185905 23.38993489355198,198.4016197822566 23.380432869977085,198.5859942384086 23.380432869977085,198.7176899482729 23.342424775648396,198.8283141318425 23.147633292275714,198.8599210057764 22.99560091504827,198.9073312869441 22.838817525975173,198.9389381212277 22.69628717226442,199.01268733961842 22.55375681858277,199.06536529991354 22.401724441326223,199.10750763642864 22.306704205548158,199.17072108838693 22.178426887228852,199.22866669697396 22.09290867499658,199.28134447672346 22.050149568909546,199.3445577543025 22.050149568909546,199.33402221244978 22.00263945100596,199.38143213695366 21.92662326237769,199.41303873346624 21.812598979420727,199.4183064980134 21.71282773182611,199.48678739702154 21.622558507835492,199.539464961028 21.584550413506804,199.62901671877262 21.48477916594129,199.68169416388264 21.385007918346673,199.65008770209533 21.25197958823992,199.68169416388264 21.133204293524614,199.70276512959026 21.028682034171652,199.66062319111734 20.928910786577035,199.6395522113089 20.82438852719497,199.68169416388264 20.753123350354144,199.6922296476223 20.662854126334423,199.74490703989431 20.558331866952358,199.77124571951208 20.47281365474919,199.82919077594852 20.430054548662156,199.92927756612335 20.439556572237052,200.02409648387766 20.368291395396227,200.0557027580835 20.33028330106754,200.0820413078327 20.268520147830714,200.0925767246299 20.154495864873752,200.09784443239187 20.04522259370424,200.0820413078327 19.92644729895983,200.12418296451142 19.92644729895983,200.1610568909964 19.93119831077638,200.24534007053444 19.916945275414037,200.31382007089633 19.893190216447692,200.36122925835298 19.888439204660244,200.4191737723413 19.864684145723004,200.50872428008734 19.774414921703283,200.6140776557222 19.655639626958873,200.59300699469532 19.593876473722048,200.6298806468876 19.49410522612743,200.6878249138972 19.427591061074054,200.65621895667573 19.37532993138302,200.60354232609825 19.361076896020677,200.60880999113215 19.31831778990454,200.5666686584991 19.35632588423323,200.5508656514794 19.37532993138302,200.50345660670428 19.332570825266885,200.55613332092616 19.26605666024261,200.58247166152069 19.332570825266885,200.7352338200035 19.327819813479437,200.93013672600864 19.432342072861502,201.06182753753455 19.31831778990454,201.14084189236382 19.209044518735027,201.26726465407046 19.142530353710754,201.45689832117205 19.161534400860546,201.60439077890987 19.03800809432869,201.7729531651603 19.004751011787448,201.98365551406096 19.123526306531858,202.04159853653255 19.142530353710754,202.1469493500117 19.142530353710754,202.2733700937606 19.080767200444825,202.45773322390232 19.194791483372683,202.52094331581975 19.34207284884178,202.5788858443957 19.48935421431088,202.66843328379764 19.570121414755704,202.83699282463203 19.707900756649906,202.9844820531216 19.893190216447692,203.10563366121278 20.092732711607823,203.16884310345267 20.273271159589058,203.0634939978554 20.449058595811948,203.1319709365198 20.658103114546975,203.17411055410412 20.862396621523658,203.21098269639697 21.009677986992756,203.2162501435305 21.156959352461854,203.26892459068767 21.28523667078116,203.27945947483386 21.432518036250258,203.2847269162594 21.594052437110804,203.33740130619844 21.7603378497588,203.3215989938435 21.921872250561137,203.36373848467701 22.073904627846787,203.39007565213615 22.249692064069677,203.4164128085904 22.430230512050912,203.4269476680929 22.601266936486354,203.37427335297252 22.72954425480566,203.33740130619844 22.891078655637102,203.39534308431394 23.033609009347856,203.36373848467701 23.13338025691337,203.34793617890682 23.261657575232675,203.4216802385563 23.33767376386095,203.6271096641467 23.408938940701773,203.75352743945768 23.45169804681791,203.85887539189207 23.64648953016149,203.7903992428328 23.841281013563275,203.7903992428328 24.05507654408575,203.71665561450936 24.202357909583952,203.57443551627875 24.40190040471498,203.6271096641467 24.539679746638285,203.7271904238296 24.791483371460345,203.73245782783852 24.934013725141995,203.7061208034247 25.10029913778999,203.64291189992946 25.28558859755867,203.57970293304243 25.44237198663177,203.46908708850606 25.575400316738524,203.52702874555325 25.727432694024174,203.6271096641467 25.874714059464168,203.65871413174318 26.007742389600025,203.65344672157153 26.14077071970678,203.600772595717 26.326060179504566,203.5902377652601 26.497096603910904,203.57443551627875 26.6538799929549,203.5217613243949 26.763153264124412,203.49542421194928 26.924687664955854,203.50069163533044 27.09097307760385,203.5849703493659 27.195495336985914,203.600772595717 27.35227872602991,203.65871413174318 27.471054020774318,203.7903992428328 27.532817174011143,203.96422316827739 27.55182122119004,204.12224450277063 27.537568185827695,204.3066022257226 27.51381312686135,204.48042472785528 27.480556044349214,204.66478140338222 27.589829315518728,204.80699904185894 27.49005806792411,204.94394905717854 27.32377265530522,204.9913547624019 27.22875241949805,205.15464080754828 27.2335034312855,205.32319370090408 27.338025690667564,205.49174614362346 27.504311103286454,205.61289293350274 27.651592468784656,205.71297054088063 27.63733943339321,205.88152194157738 27.827379905007547,205.9131252790503 27.908147105423268,206.04480568132203 28.055428470892366,206.1606842078363 28.2454689424776,206.27129532992694 28.378497272584355,206.39244062194484 28.487770543753868,206.5451887018644 28.61604786204407,206.67686778409552 28.69681506245979,206.85068375158153 28.896357557649026,206.9402251235806 29.095900052809156,206.93495798757795 29.276438500819495,206.9823621958276 29.46647897240473,207.0613691303879 29.632764384994516,207.12457460675796 29.827555868396303,207.17724578866546 29.97958824565285,207.26151958820628 30.14587365827174,207.19831424909717 30.312159070919733,207.18251290443732 30.506950554292416,207.16144443870508 30.682737990515307,207.16144443870508 30.8395213795593,207.14564308479385 31.001055780419847,207.0929718764819 31.134084110497497,207.0297663684396 31.2718634523917,207.10877324360263 31.40014077074011,207.18778001975443 31.53792011263431,207.24571825937528 31.56167517157155,207.3879300763365 31.632940348412376,207.52487448583634 31.751715643156786,207.64601736937766 31.837233855359955,207.7934953482836 31.90849903220078,207.78296121835956 31.979764209041605,207.72502347239788 31.979764209041605,207.63548321482813 32.05578039769898,207.7460917498138 32.1460496216896,207.86723420838825 32.245820869284216,207.97784233687707 32.37409818760352,208.01997871573258 32.54038360022241,207.9936434822339 32.51662854128517,207.97784233687707 32.559387647372205,207.97784233687707 32.559387647372205,208.00417757696414 32.559387647372205,208.01997871573258" stroke="#4DD2FF" stroke-dasharray="none" stroke-linecap="round" stroke-linejoin="round" stroke-width="0.5"><title>2026-03-14 12.0km</title><desc>9223370263378906807</desc></polyline></svg>