<?xml version="1.0" encoding="utf-8" ?>
<svg baseProfile="full" height="300mm" version="1.1" viewBox="0,0,200,300" width="200mm" xmlns="http://www.w3.org/2000/svg" xmlns:ev="http://www.w3.org/2001/xml-events" xmlns:xlink="http://www.w3.org/1999/xlink"><defs /><rect fill="#222222" height="300" width="200" x="0" y="0" /><text fill="#FFFFFF" style="font-size:12px; font-family:Arial; font-weight:bold;" x="10" y="20">Over 10km Runs</text><text fill="#FFFFFF" style="font-size:4px; font-family:Arial" x="10" y="280">Runner</text><text fill="#FFFFFF" style="font-size:9px; font-family:Arial" x="10" y="290">yihong0618</text><text fill="#FFFFFF" style="font-size:4px; font-family:Arial" x="65" y="280">SPECIAL TRACKS</text><rect fill="yellow" height="2.6" width="2.6" x="65" y="283" /><text fill="#FFFFFF" style="font-size:3px; font-family:Arial" x="70" y="285.5">Over 20.0 km</text><rect fill="red" height="2.6" width="2.6" x="65" y="287" /><text fill="#FFFFFF" style="font-size:3px; font-family:Arial" x="70" y="289.5">Over 40.0 km</text><text fill="#FFFFFF" style="font-size:4px; font-family:Arial" x="120" y="280">STATISTICS</text><text fill="#FFFFFF" style="font-size:3px; font-family:Arial" x="120" y="285">Number: 1</text><text fill="#FFFFFF" style="font-size:3px; font-family:Arial" x="120" y="290">Weekly: 1.0</text><text fill="#FFFFFF" style="font-size:3px; font-family:Arial" x="141" y="285">Total: 12.0 km</text><text fill="#FFFFFF" style="font-size:3px; font-family:Arial" x="141" y="290">Avg: 12.0 km</text><text fill="#FFFFFF" style="font-size:3px; font-family:Arial" x="167" y="285">Min: 12.0 km</text><text fill="#FFFFFF" style="font-size:3px; font-family:Arial" x="167" y="290">Max: 12.0 km</text><polyline fill="none" opacity="1" points="29.224177371128462,207.38266016747002 29.100651064596605,207.31945456438552 28.9723737462773,207.31945456438552 28.84884743974544,207.3563245072146 28.65405595637276,207.26151603923063 28.606545838469174,207.15090597973904 28.549533696990693,207.05609720289794 28.46401548475842,207.00342559860292 28.421256378671387,206.82434181488134 28.311983107530978,206.75586846903025 28.24071793066105,206.66632628917796 28.164701742032776,206.6241887487813 28.06968150625471,206.57678398217467 27.93190216436051,206.56098238539198 27.841632940340787,206.45037109696568 27.884392046456924,206.355561266726 27.770367763529066,206.31869073869166 27.642090445180656,206.31869073869166 27.618335386243416,206.1554067124889 27.594580327306176,206.03426022624262 27.480556044349214,206.01319124834117 27.366531761421356,205.95525152284972 27.304768608126324,205.84463917175526 27.214499384135706,205.75509569776113 27.157487242657226,205.61287933063795 27.16698926623212,205.47592993317812 27.342776702455012,205.38111863758968 27.475805032561766,205.34424753969506 27.566074256552383,205.18096098977912 27.52331515046535,205.08614925059737 27.447298961837078,204.97553537467684 27.46155199719942,204.84385193598064 27.504311103286454,204.70163351326482 27.537568185827695,204.56468213630433 27.58032729194383,204.4382652165914 27.485307056136662,204.3381849753714 27.471054020774318,204.1801632183524 27.366531761421356,204.0748151602893 27.214499384135706,204.02740847673704 27.22875241949805,204.0379432983791 27.252507478464395,204.0379432983791 27.219250395923154,204.04321070855076 27.224001407710603,204.0484781182713 27.224001407710603,204.04321070855076 27.20974837234826,204.0484781182713 27.214499384135706,204.05374552754802 27.214499384135706,204.0484781182713 27.138483195507433,203.95366467587155 27.133732183719985,203.82197910264586 27.157487242657226,203.74296762667655 27.22875241949805,203.64288628159557 27.295266584551428,203.5638745811375 27.35227872602991,203.50593260453024 27.471054020774318,203.4374556544317 27.58032729194383,203.34790876127227 27.684849551296793,203.25309426516833 27.72760865741293,203.16354711011445 27.694351574900793,203.06873233670558 27.58507830373128,203.0002549116507 27.55182122119004,202.86856734671528 27.55182122119004,202.75268206198962 27.57557628012728,202.65259914464696 27.570825268368935,202.53671346286865 27.618335386243416,202.41029247612096 27.49480907971156,202.33654678342646 27.475805032561766,202.27860367864196 27.390286820358597,202.18905513919526 27.418792891083285,202.00469009858716 27.485307056136662,201.93094393135107 27.49480907971156,201.80452172961304 27.509062115073903,201.64649362087584 27.594580327306176,201.50953560613198 27.618335386243416,201.398915453894 27.63733943339321,201.27775982628737 27.642090445180656,201.1618716167577 27.623086398059968,201.05125085431428 27.60408235088107,200.96170057109703 27.594580327306176,200.8563471338348 27.59933133906452,200.69304895801906 27.694351574900793,200.58242737272667 27.694351574900793,200.45600246606773 27.67059651593445,200.32957730579074 27.67059651593445,200.19261642930724 27.661094492359553,200.050387511772 27.680098539509345,199.83967741431115 27.656343480543,199.79753531027382 27.157487242657226,199.0705795798167 27.076720042241504,199.03897261869497 27.052964983304264,198.92834812994988 27.02445891255047,198.859866206265 27.00545486540068,198.82825913945635 26.981699806434335,198.7492414031003 26.929438676772406,198.6965628571379 26.867675523506477,198.6333485438554 26.801161358482204,198.59120563312172 26.753651240549516,198.55959843156234 26.696639099071035,198.47531248325322 26.606369875080418,198.39629430432615 26.511349639302352,198.30674024840482 26.435333450644976,198.25406133254364 26.383072320953943,198.2382576491873 26.27379904978443,198.2751329041639 26.188280837610364,198.30147235880577 26.064754531078506,198.30147235880577 26.002991377812577,198.21718606523427 25.960232271725545,198.12236385020515 25.917473165609408,198.0591489609069 25.808199894439895,198.0433452286743 25.71317965866183,198.0591489609069 25.69892662327038,198.01700566615546 25.717930670420174,198.00120192334725 25.708428646845277,198.01700566615546 25.694175611482933,198.0433452286743 25.679922576091485,198.02227357953961 25.670420552545693,198.0275414924763 25.67517156433314,198.0433452286743 25.679922576091485,198.02227357953961 25.69892662327038,198.01173775231655 25.70367763505783,198.00646983805927 25.637163470004452,197.9063793833011 25.618159422825556,197.8378963489704 25.594404363888316,197.74834149946764 25.55639626958873,197.70093005703893 25.523139187076595,197.67459035136926 25.447122998419218,197.64298269004576 25.390110856940737,197.59557116834185 25.304592644737568,197.60083911695983 25.27133556222543,197.5903032192764 25.266584550437983,197.5797673198358 25.18106633820571,197.62717885343955 25.114552173152333,197.65351857892892 25.057540031673852,197.68512623495553 24.98152384304558,197.67985829338068 24.94351574871689,197.7220018136286 24.848495512938825,197.75887737073572 24.819989442214137,197.8168246311252 24.762977300735656,197.82736049093 24.705965159257175,197.86950391252685 24.653704029566143,197.8800397635241 24.558683793788077,197.9379869125114 24.45891254619346,197.96959442586012 24.37339433399029,198.0591489609069 24.28787612178712,198.1487033686899 24.188104874192504,198.1592391730046 24.131092732714023,198.1487033686899 24.02181946154451,198.1487033686899 23.95055428473279,198.1487033686899 23.97430934367003,198.12763175477812 23.964807320095133,198.12236385020515 23.95055428473279,198.12763175477812 23.94105226112879,198.1592391730046 23.87928910786286,198.10129222747128 23.822276966413483,198.0696847801919 23.770015836693347,198.10129222747128 23.689248636277625,198.0696847801919 23.6179834594368,198.04861313985748 23.53721625902108,198.0591489609069 23.470702093967702,197.9748623432024 23.408938940701773,197.91164730594755 23.356677811039845,197.8800397635241 23.347175787435845,197.87477183824376 23.313918704923708,197.81155670057342 23.24740453987033,197.75887737073572 23.19039239839185,197.7904849739134 23.1951434101793,197.77468117430908 23.180890374816954,197.74307356318604 23.176139363029506,197.66405446603676 23.204645433754195,197.58503526978166 23.180890374816954,197.53235575055442 23.11912722152192,197.45860434967835 23.100123174401233,197.4111926892183 23.05261305649765,197.3479770864651 23.043111032922752,197.26895749383402 23.009853950381512,197.15306191204945 22.98609889144427,196.9844861398342 22.919584726390895,196.93180611853313 22.881576632062206,196.84224998121863 22.81031145522138,196.79483785699267 22.81031145522138,196.72108559284607 22.743797290168004,196.6315291560204 22.68203413693118,196.54724062862078 22.66778110153973,196.4840241590755 22.63452401899849,196.4787561170706 22.620270983636146,196.49456024172832 22.644026042573387,196.49456024172832 22.63452401899849,196.48929220062564 22.644026042573387,196.4840241590755 22.644026042573387,196.4787561170706 22.68203413693118,196.46822003177294 22.701038184051868,196.41027153109826 22.69628717226442,196.4313437193232 22.6155199718487,196.42080762608384 22.629773007211043,196.4313437193232 22.620270983636146,196.43661176528622 22.629773007211043,196.43661176528622 22.629773007211043,196.43661176528622 22.629773007211043,196.4313437193232 22.629773007211043,196.42080762608384 22.639275030815043,196.4313437193232 22.639275030815043,196.42080762608384 180.90973077600938,92.40676135829563 180.81471054023132,92.46480593648448 180.81471054023132,92.46480593648448 180.81471054023132,92.46480593648448 180.81946155201877,92.45952915888483 180.62942108043353,92.58089493128136 23.11912722152192,197.41646065324312 23.161886327638058,197.51655188620862 23.180890374816954,197.61137501287158 23.176139363029506,197.7220018136286 23.1951434101793,197.84316427733938 23.256906563445227,197.93271899206957 23.294914657744812,198.0328094049728 23.294914657744812,198.18557867607524 23.323420728498604,198.29093657827616 23.347175787435845,198.49111610714317 23.375681858189637,198.64388426715595 23.380432869977085,198.74397355048131 23.385183881764533,198.9072767767393 23.36617983461474,199.04950827416178 23.380432869977085,199.1337934544863 23.313918704923708,199.23388195970256 23.11912722152192,199.23914977136883 22.99560091504827,199.29182786375168 22.857821573124966,199.31816689342668 22.734295266593108,199.3655771191261 22.582262889336562,199.42352290207418 22.4682386063796,199.47093304851296 22.373218370601535,199.5078075821839 22.26869611121947,199.56575323434663 22.154671828262508,199.62369883326392 22.10241069860058,199.67110882907946 22.050149568909546,199.7290543311101 22.054900580696994,199.71851878925736 22.021643498155754,199.74485764058772 21.955129333102377,199.78699977985525 21.869611120899208,199.80807083892432 21.755586837942246,199.83440965283808 21.679570649343077,199.8976227613457 21.617807496048044,199.92922929180713 21.57504838996101,200.02931653372434 21.499032201303635,200.07145848278378 21.40401196552557,200.03985202363765 21.299489706143504,200.050387511772 21.19496744676144,200.06619074069022 21.08569417562103,200.07145848278378 20.995424951601308,200.0240487881165 20.895653704035794,200.02931653372434 20.810135491832625,200.06619074069022 20.753123350354144,200.07672622442988 20.67710716172587,200.1294036167019 20.56783389058546,200.14520682580405 20.491817701928085,200.18208096495437 20.4443075840245,200.26636463055547 20.430054548662156,200.36118361963236 20.430054548662156,200.42439619976722 20.368291395396227,200.44019933489108 20.33028330106754,200.46653788464027 20.273271159589058,200.47707330143749 20.168748900236096,200.48760871649574 20.087981699820375,200.46127017557592 19.964455393288517,200.4928764233664 19.912194263597485,200.52448265532075 19.93119831077638,200.5666242732732 19.92644729895983,200.65090742460598 19.90744325183914,200.70358433697038 19.893190216447692,200.74572583516056 19.888439204660244,200.8036703491489 19.864684145723004,200.8721501606451 19.81717402781942,200.96170057109703 19.69839873307501,200.96170057109703 19.612880520842737,201.0091095604257 19.54636635578936,201.01964488653903 19.46559915537364,201.07758914870647 19.432342072861502,201.0249125489354 19.37532993138302,200.98803890290583 19.36582790777902,200.99330656793973 19.327819813479437,200.95643290341832 19.35632588423323,200.93536222828698 19.361076896020677,200.87741783537786 19.38008094317047,200.89848852986688 19.327819813479437,200.9300945584073 19.285060707392404,201.00384189669785 19.327819813479437,201.14080101029322 19.32306880169199,201.30936566463788 19.41333802571171,201.42525360298896 19.35632588423323,201.50953560613198 19.23755058948882,201.57801465070224 19.156783389073098,201.73077532817842 19.166285412647994,201.89407081537138 19.11402428295696,202.04156314985084 19.019004047149792,202.18378757409664 19.004751011787448,202.37868718982645 19.11402428295696,202.41556002230573 19.161534400860546,202.51564331601548 19.147281365498202,202.61045892136826 19.11402428295696,202.74741454397372 19.123526306531858,202.87910236203606 19.232799577672267,202.94757991869847 19.37532993138302,202.98971991657527 19.503607249702327,203.0634648451014 19.570121414755704,203.2214894014396 19.69839873307501,203.3531762290877 19.864684145723004,203.46906040987233 20.026218546554446,203.51646751332737 20.163997888477752,203.4795953248322 20.349287348246435,203.4585254931444 20.510821749077877,203.5375373256502 20.696111208875664,203.5691420309231 20.876649656886002,203.59547927320455 21.009677986992756,203.60074672033807 21.133204293524614,203.62708394942092 21.24722857645247,203.6586886097939 21.375505894771777,203.6586886097939 21.499032201303635,203.70082813231056 21.651064578589285,203.71663044600064 21.803096955874935,203.71136300855142 21.931374274165137,203.7587699297801 22.078655639634235,203.7851070928482 22.225937005103333,203.80617681536387 22.38272039417643,203.81671167400054 22.55850783039932,203.7851070928482 22.68203413693118,203.71663044600064 22.796058419859037,203.7587699297801 22.952841808932135,203.80090938539797 23.062115080072545,203.71663044600064 23.13338025691337,203.74296762667655 23.261657575232675,203.80617681536387 23.347175787435845,203.99580400121704 23.36142882279819,204.14329141805865 23.42319197609322,204.2855111003737 23.522963223658735,204.17489581964037 23.732007742393762,204.21703499708383 23.922048213978997,204.19069801448495 24.078831603052095,204.05374552754802 24.216610944917193,203.95366467587155 24.39714939292753,204.0063388281378 24.51592468767194,204.095884786002 24.705965159257175,204.1222218082039 24.900756642629858,204.1222218082039 25.00527890198282,204.06428034480996 25.162062291055918,203.98526917252457 25.33309871549136,203.94839725823113 25.470878057385562,203.83778138595153 25.575400316738524,203.91152532236083 25.71317965866183,203.99580400121704 25.836705965164583,204.0379432983791 25.969734295271337,204.05901293639909 26.064754531078506,203.99053658709454 26.2215379201225,203.96419950985 26.397325356316287,203.99580400121704 26.525602674664697,203.94839725823113 26.672884040133795,203.90099047958574 26.763153264124412,203.87992078875686 26.905683617835166,203.88518821213802 27.043462959700264,203.95366467587155 27.185993313411018,203.98526917252457 27.285764561005635,204.01160624095428 27.409290867537493,204.0906173802323 27.480556044349214,204.23810457526633 27.566074256552383,204.36452189635747 27.55182122119004,204.52254319123676 27.54707020940259,204.68583144649892 27.518564138677903,204.84385193598064 27.46155199719942,205.0018720294065 27.594580327306176,205.123020499439 27.55182122119004,205.25997066350828 27.414041879295837,205.36531674112484 27.281013549189083,205.41798971392927 27.219250395923154,205.5444046691009 27.2335034312855,205.70769027771166 27.338025690667564,205.8604409480613 27.466303008957766,205.98685501609725 27.63258842160576,206.05532919709367 27.642090445180656,206.19227733600928 27.71810663380893,206.29762185585787 27.884392046456924,206.31342351863714 27.93190216436051,206.47143992876954 28.083934541617054,206.56624958475732 28.2454689424776,206.65579190673452 28.36899524900946,206.76640283476445 28.478268520149868,206.88754791428073 28.563786732353037,207.0244942456011 28.658806968160206,207.14037167825154 28.787084286479512,207.29311887773656 28.962871722702403,207.31945456438552 29.129157135321293,207.32998883596883 29.28594052439439,207.37739303629496 29.461727960588178,207.44586570719548 29.604258314269828,207.50380406293698 29.780045750463614,207.54594101551265 29.913074080628576,207.62494772568607 30.060355446097674,207.63548194622854 30.20288579975022,207.572276596562 30.373922224214766,207.54067389799093 30.52595460144221,207.54594101551265 30.7112440612691,207.55120813261237 30.825268344196957,207.53013966160142" stroke="#4DD2FF" stroke-dasharray="none" stroke-linecap="round" stroke-linejoin="round" stroke-width="0.5"><title>2026-03-14 12.0km</title><desc>9223370263378906807</desc></polyline></svg>