<?xml version="1.0" encoding="utf-8" ?>
<svg baseProfile="full" height="300mm" version="1.1" viewBox="0,0,200,300" width="200mm" xmlns="http://www.w3.org/2000/svg" xmlns:ev="http://www.w3.org/2001/xml-events" xmlns:xlink="http://www.w3.org/1999/xlink"><defs /><rect fill="#222222" height="300" width="200" x="0" y="0" /><text fill="#FFFFFF" style="font-size:12px; font-family:Arial; font-weight:bold;" x="10" y="20">Over 10km Runs</text><text fill="#FFFFFF" style="font-size:4px; font-family:Arial" x="10" y="280">Runner</text><text fill="#FFFFFF" style="font-size:9px; font-family:Arial" x="10" y="290">yihong0618</text><text fill="#FFFFFF" style="font-size:4px; font-family:Arial" x="65" y="280">SPECIAL TRACKS</text><rect fill="yellow" height="2.6" width="2.6" x="65" y="283" /><text fill="#FFFFFF" style="font-size:3px; font-family:Arial" x="70" y="285.5">Over 20.0 km</text><rect fill="red" height="2.6" width="2.6" x="65" y="287" /><text fill="#FFFFFF" style="font-size:3px; font-family:Arial" x="70" y="289.5">Over 40.0 km</text><text fill="#FFFFFF" style="font-size:4px; font-family:Arial" x="120" y="280">STATISTICS</text><text fill="#FFFFFF" style="font-size:3px; font-family:Arial" x="120" y="285">Number: 1</text><text fill="#FFFFFF" style="font-size:3px; font-family:Arial" x="120" y="290">Weekly: 1.0</text><text fill="#FFFFFF" style="font-size:3px; font-family:Arial" x="141" y="285">Total: 12.0 km</text><text fill="#FFFFFF" style="font-size:3px; font-family:Arial" x="141" y="290">Avg: 12.0 km</text><text fill="#FFFFFF" style="font-size:3px; font-family:Arial" x="167" y="285">Min: 12.0 km</text><text fill="#FFFFFF" style="font-size:3px; font-family:Arial" x="167" y="290">Max: 12.0 km</text><polyline fill="none" opacity="1" points="29.423719866288593,207.4722013300452 29.304944571544183,207.393194428485 29.167165229620878,207.35105737384947 29.024634875939228,207.31945456438552 28.91061059301137,207.34579024004415 28.635051909222966,207.2720503204946 28.635051909222966,207.21937889658875 28.573288755957037,207.07189867560737 28.49727256729966,207.01922708450002 28.430758402246283,206.85067769732268 28.326236142893322,206.78220438008793 28.2454689424776,206.66105909817634 28.178954777424224,206.6241887487813 28.06968150625471,206.57678398217467 27.93190216436051,206.56098238539198 27.836881928582443,206.45037109696568 27.884392046456924,206.34502683234678 27.756114728137618,206.3239579583169 27.613584374455968,206.3081562981497 27.623086398059968,206.11853606740624 27.556572232977487,206.0289929824321 27.442547950020526,206.00792400277714 27.338025690667564,205.91311350721298 27.26676051382674,205.80250108217297 27.162238254473777,205.70769027771166 27.152736230869778,205.54967195339486 27.2430054548895,205.38111863758968 27.399788843933493,205.36531674112484 27.54707020940259,205.24416873669907 27.55182122119004,205.10195121702418 27.433045926474733,205.01767401695543 27.471054020774318,204.88072332653974 27.485307056136662,204.72797028243076 27.54707020940259,204.58575159828615 27.57557628012728,204.45406734541393 27.49005806792411,204.343452360441 27.480556044349214,204.18543061663877 27.366531761421356,204.0748151602893 27.214499384135706,204.02740847673704 27.22875241949805,204.0379432983791 27.247756466676947,204.03267588777453 27.214499384135706,204.0379432983791 27.224001407710603,204.04321070855076 27.219250395923154,204.04321070855076 27.20974837234826,204.0484781182713 27.214499384135706,204.05374552754802 27.214499384135706,204.0484781182713 27.128981171903433,203.88518821213802 27.157487242657226,203.7798396611215 27.190744325169362,203.6797583745829 27.26200950203929,203.59547927320455 27.338025690667564,203.5375373256502 27.437796938233078,203.4585254931444 27.55182122119004,203.37424609598747 27.665845504147,203.26362921622058 27.72760865741293,203.18461704039873 27.708604610263137,203.08453480885146 27.594580327306176,203.010789904969 27.55182122119004,202.88436986902525 27.556572232977487,202.75794957956168 27.57557628012728,202.65259914464696 27.570825268368935,202.526178390337 27.613584374455968,202.4050249295069 27.49005806792411,202.33127923066058 27.46155199719942,202.26280100446093 27.3807847967837,202.16798487614506 27.437796938233078,201.9836197738914 27.504311103286454,201.89407081537138 27.504311103286454,201.7465781357496 27.537568185827695,201.59381749657405 27.60883336266852,201.47266224362465 27.618335386243416,201.33043621473553 27.656343480543,201.20401280851365 27.618335386243416,201.0986597762785 27.627837409818312,200.98803890290583 27.594580327306176,200.8932208568949 27.58507830373128,200.75099352044344 27.675347527721897,200.61403355975926 27.699102586659137,200.48234100919944 27.67059651593445,200.35064818344836 27.67059651593445,200.20841962255872 27.665845504147,200.06092299815282 27.684849551296793,199.84494517532585 27.656343480543,199.79753531027382 27.157487242657226,199.0705795798167 27.076720042241504,199.03897261869497 27.048213971487712,198.9230802923048 27.02920992433792,198.83879483015335 27.00070385361323,198.81245560011303 26.96744677107199,198.73343784393 26.905683617835166,198.6912950001206 26.843920464569237,198.6333485438554 26.763153264124412,198.58593776728958 26.725145169824827,198.5227233430487 26.672884040133795,198.44897310128363 26.54460672181449,198.3488833493866 26.478092556761112,198.24879343853172 26.406827379891183,198.2382576491873 26.302305120567326,198.2751329041639 26.202533872972708,198.29093657827616 26.098011613590643,198.30147235880577 26.01724441317492,198.2382576491873 25.974485307058785,198.13816756260348 25.922224177367752,198.06441687076222 25.82245292980224,198.04861313985748 25.71317965866183,198.0591489609069 25.69892662327038,198.01700566615546 25.717930670420174,198.00120192334725 25.708428646845277,198.01700566615546 25.689424599695485,198.0328094049728 25.679922576091485,198.01173775231655 25.684673587908037,198.02227357953961 25.670420552545693,198.0328094049728 25.67517156433314,198.02227357953961 25.69892662327038,197.99593400818776 25.694175611482933,197.98539817658457 25.622910434642108,197.8642359863843 25.608657399279764,197.8010208381238 25.565898293163627,197.71673387514602 25.53739222243894,197.69566211678102 25.475629069143906,197.65351857892892 25.40911490409053,197.60610706513035 25.342600739037152,197.6166429601799 25.28558859755867,197.58503526978166 25.26183353862143,197.58503526978166 25.195319373568054,197.60610706513035 25.119303184968885,197.64825063470562 25.06704205524875,197.68512623495553 24.986274854833027,197.68512623495553 24.94351574871689,197.7220018136286 24.848495512938825,197.75887737073572 24.805736406851793,197.82736049093 24.758226288919104,197.83262842017575 24.69171212389483,197.87477183824376 24.629948970628902,197.89057561274967 24.525426711246837,197.9379869125114 24.43040647546877,197.9748623432024 24.354390286811395,198.08022059771974 24.25461903924588,198.1592391730046 24.145345768076368,198.1592391730046 24.08358261481044,198.1592391730046 23.988562379032373,198.1487033686899 23.94580327294534,198.13816756260348 23.964807320095133,198.12236385020515 23.964807320095133,198.14343546586315 23.955305296491133,198.14343546586315 23.903044166829204,198.12236385020515 23.82702797820093,198.0696847801919 23.7747668485099,198.09602432069732 23.693999648094177,198.08022059771974 23.6179834594368,198.04861313985748 23.541967270808527,198.06441687076222 23.470702093967702,197.9748623432024 23.408938940701773,197.91164730594755 23.356677811039845,197.8800397635241 23.342424775648396,197.87477183824376 23.294914657744812,197.80628876955598 23.228400492691435,197.75887737073572 23.1951434101793,197.77468117430908 23.209396445541643,197.76414530569673 23.171388351242058,197.7220018136286 23.19039239839185,197.63244679942363 23.1951434101793,197.56923141862717 23.13338025691337,197.50601597443892 23.114376209763577,197.44280046681524 23.08587013903889,197.37431692864993 23.0478620447102,197.30056534278265 23.009853950381512,197.1952057846429 22.99560091504827,197.02136212854384 22.92908674996579,196.95287813233153 22.886327643849654,196.86332202497942 22.819813478796277,196.80537388768425 22.80556044340483,196.7263536145656 22.753299313772004,196.63679718523417 22.68203413693118,196.54724062862078 22.66778110153973,196.4840241590755 22.629773007211043,196.4787561170706 22.620270983636146,196.49456024172832 22.644026042573387,196.49982828240172 22.629773007211043,196.48929220062564 22.644026042573387,196.48929220062564 22.644026042573387,196.4787561170706 22.686785148689523,196.44187981080177 22.691536160506075,196.41553957881843 22.677283125114627,196.44714785587712 22.639275030815043,196.42607567291998 22.6250219954527,196.4313437193232 22.620270983636146,196.44187981080177 22.6250219954527,196.4313437193232 22.6250219954527,196.4313437193232 22.629773007211043,196.42607567291998 22.629773007211043,196.42607567291998 22.644026042573387,196.42080762608384 180.90973077600938,92.40676135829563 180.81471054023132,92.46480593648448 180.81471054023132,92.46480593648448 180.81471054023132,92.46480593648448 180.81946155201877,92.45952915888483 180.62942108043353,92.58089493128136 23.11912722152192,197.4217286168423 23.176139363029506,197.52181984144045 23.180890374816954,197.62717885343955 23.19039239839185,197.73780562646425 23.199894421966746,197.85896805977245 23.27115959880757,197.94852275205267 23.309167693107156,198.06441687076222 23.299665669561364,198.22245396187645 23.328171740286052,198.39102642219586 23.36142882279819,198.53852695506066 23.375681858189637,198.68602714266672 23.385183881764533,198.81772344700585 23.380432869977085,198.986294314931 23.380432869977085,199.10218652508047 23.347175787435845,199.20754289480828 23.176139363029506,199.244417582584 23.019355973956408,199.28129224879376 22.891078655637102,199.29709567057216 22.75805032553035,199.35504151648274 22.596515924698906,199.41825510583294 22.47298961816705,199.47093304851296 22.373218370601535,199.5078075821839 22.26869611121947,199.56575323434663 22.14992081647506,199.62896661232662 22.09765968681313,199.68164437887026 22.050149568909546,199.72378656040019 22.050149568909546,199.71851878925736 22.00263945100596,199.75539317806397 21.931374274165137,199.79753531027382 21.836354038357968,199.8133386025802 21.741333802579902,199.84494517532585 21.646313566772733,199.9081582732615 21.60830547247315,199.9608358064288 21.546542319178116,200.06092299815282 21.42776702446281,200.05565525518978 21.351750835834537,200.0345842789029 21.22347351751523,200.07145848278378 21.11420024637482,200.07672622442988 21.0239310223551,200.03985202363765 20.928910786577035,200.0240487881165 20.829139538982417,200.06092299815282 20.76262537392904,200.07145848278378 20.686609185300767,200.1294036167019 20.582086925947806,200.13993908987686 20.496568713715533,200.17681323210127 20.4443075840245,200.26636463055547 20.430054548662156,200.36645133706043 20.411050501512364,200.4349316236221 20.35878937182133,200.44546704572713 20.325532289309194,200.47707330143749 20.25426711246837,200.48760871649574 20.140242829482304,200.47707330143749 20.04522259370424,200.46653788464027 19.935949322534725,200.508679541319 19.92169628717238,200.5402857653462 19.935949322534725,200.61403355975926 19.92644729895983,200.68778126787947 19.89794122823514,200.735190463256 19.878937181085348,200.78259962295488 19.864684145723004,200.84054410304088 19.831427063181764,200.9300945584073 19.731655815587146,200.9775035715029 19.646137603383977,200.99330656793973 19.574872426543152,201.0143772236952 19.484603202552535,201.07232149070478 19.427591061074054,201.0407155334833 19.38958296677447,200.9985742325298 19.36582790777902,200.99330656793973 19.327819813479437,200.95643290341832 19.35157487244578,200.9300945584073 19.370578919595573,200.8826855096704 19.36582790777902,200.91429154612342 19.31831778990454,200.93536222828698 19.304064754542196,201.03544787241117 19.304064754542196,201.19874516108757 19.346823860658333,201.340971487145 19.427591061074054,201.47266224362465 19.313566778117092,201.5253384691714 19.209044518735027,201.65176123087804 19.152032377256546,201.8203245187069 19.17578743622289,201.96254944216344 19.05701214147848,202.12584432888252 19.004751011787448,202.2680685629566 19.076016188657377,202.39975738244902 19.161534400860546,202.48930562255555 19.152032377256546,202.58938879916968 19.11877529474441,202.70527438410136 19.104522259382065,202.86856734671528 19.213795530522475,202.93704491482276 19.370578919595573,202.97918491976088 19.49410522612743,203.0581973530716 19.570121414755704,203.2214894014396 19.69839873307501,203.3531762290877 19.864684145723004,203.46906040987233 20.049973605491687,203.53226987323433 20.18300193559844,203.4585254931444 20.377793419000227,203.47432786757417 20.553580855194014,203.5375373256502 20.748372338537592,203.5744094802576 20.947914833726827,203.59021182562356 21.038184057717444,203.60074672033807 21.156959352461854,203.65342116749525 21.3089917297184,203.66395605164143 21.442020059854258,203.67449093405594 21.594052437110804,203.72189788300602 21.74608481436735,203.7060955706511 21.898117191623896,203.7324327557144 22.026394509943202,203.7587699297801 22.1736758754123,203.80090938539797 22.344712299847743,203.81144424490049 22.534752771432977,203.80617681536387 22.66778110153973,203.72189788300602 22.777054372709244,203.7482350614846 22.943339785328135,203.80090938539797 23.062115080072545,203.71663044600064 23.13338025691337,203.74296762667655 23.27591061059502,203.82197910264586 23.33767376386095,204.01160624095428 23.408938940701773,204.1327566140244 23.437445011455566,204.26970892929603 23.579975365108112,204.14855881941912 23.7747668485099,204.21703499708383 23.97430934367003,204.15382622034303 24.131092732714023,204.02214106524116 24.306880168936914,203.93786242160058 24.454161534406012,204.04321070855076 24.610944923450006,204.1169544046461 24.83899348936393,204.1222218082039 24.967270807683235,204.0748151602893 25.105050149577437,204.02740847673704 25.28558859755867,203.96419950985 25.432869963056874,203.8693859406958 25.546894246013835,203.89045563505715 25.69892662327038,203.97473434206768 25.812950906227343,204.03267588777453 25.960232271725545,204.06428034480996 26.064754531078506,203.99580400121704 26.2215379201225,203.96419950985 26.397325356316287,203.99580400121704 26.53985571002704,203.94839725823113 26.672884040133795,203.90099047958574 26.777406299486756,203.87465336494643 26.938940700347302,203.89572305754336 27.09097307760385,203.96946692617348 27.185993313411018,203.99580400121704 27.333274678880116,204.02740847673704 27.452049973624526,204.14329141805865 27.485307056136662,204.3065806556515 27.58032729194383,204.4382652165914 27.570825268368935,204.60682105321393 27.504311103286454,204.7595743908787 27.475805032561766,204.93339670421847 27.566074256552383,205.07561460410943 27.58032729194383,205.22309949476767 27.466303008957766,205.33371293633172 27.319021643488668,205.37585133920948 27.22875241949805,205.53913738435585 27.224001407710603,205.6971557350771 27.333274678880116,205.84463917175526 27.456800985411974,205.98685501609725 27.63258842160576,206.05532919709367 27.63733943339321,206.2028117959162 27.732359669200378,206.29762185585787 27.889143058244372,206.33449239621768 27.9604082351143,206.4872415480022 28.13144465952064,206.5925855750029 28.283477036777185,206.676860669897 28.402252331521595,206.7980059214351 28.487770543753868,206.93495244724545 28.61604786204407,207.0613643609031 28.692064050701447,207.21937889658875 28.867851486895233,207.32472170038818 29.048389934934676,207.32472170038818 29.224177371128462,207.36685877263517 29.3952137955348,207.44059858129913 29.561499208182795,207.4827355761081 29.71828259722679,207.5248725427591 29.865563962695887,207.59861216663558 30.02709836352733,207.65128327373895 30.193383776175324,207.572276596562 30.335914129856974,207.55120813261237 30.511701566079864,207.54067389799093 30.682737990515307,207.54594101551265 30.825268344196957,207.53013966160142 30.986802745057503,207.47746845328948 31.091325004410464,207.41953007334814" stroke="#4DD2FF" stroke-dasharray="none" stroke-linecap="round" stroke-linejoin="round" stroke-width="0.5"><title>2026-03-14 12.0km</title><desc>9223370263378906807</desc></polyline></svg>