<?xml version="1.0" encoding="utf-8" ?>
<svg baseProfile="full" height="300mm" version="1.1" viewBox="0,0,200,300" width="200mm" xmlns="http://www.w3.org/2000/svg" xmlns:ev="http://www.w3.org/2001/xml-events" xmlns:xlink="http://www.w3.org/1999/xlink"><defs /><rect fill="#222222" height="300" width="200" x="0" y="0" /><text fill="#FFFFFF" style="font-size:12px; font-family:Arial; font-weight:bold;" x="10" y="20">Over 10km Runs</text><text fill="#FFFFFF" style="font-size:4px; font-family:Arial" x="10" y="280">Runner</text><text fill="#FFFFFF" style="font-size:9px; font-family:Arial" x="10" y="290">yihong0618</text><text fill="#FFFFFF" style="font-size:4px; font-family:Arial" x="65" y="280">SPECIAL TRACKS</text><rect fill="yellow" height="2.6" width="2.6" x="65" y="283" /><text fill="#FFFFFF" style="font-size:3px; font-family:Arial" x="70" y="285.5">Over 20.0 km</text><rect fill="red" height="2.6" width="2.6" x="65" y="287" /><text fill="#FFFFFF" style="font-size:3px; font-family:Arial" x="70" y="289.5">Over 40.0 km</text><text fill="#FFFFFF" style="font-size:4px; font-family:Arial" x="120" y="280">STATISTICS</text><text fill="#FFFFFF" style="font-size:3px; font-family:Arial" x="120" y="285">Number: 1</text><text fill="#FFFFFF" style="font-size:3px; font-family:Arial" x="120" y="290">Weekly: 1.0</text><text fill="#FFFFFF" style="font-size:3px; font-family:Arial" x="141" y="285">Total: 12.0 km</text><text fill="#FFFFFF" style="font-size:3px; font-family:Arial" x="141" y="290">Avg: 12.0 km</text><text fill="#FFFFFF" style="font-size:3px; font-family:Arial" x="167" y="285">Min: 12.0 km</text><text fill="#FFFFFF" style="font-size:3px; font-family:Arial" x="167" y="290">Max: 12.0 km</text><polyline fill="none" opacity="1" points="28.58754179131938,207.12457022269518 28.540031673415797,207.05609720289794 28.435509414062835,206.96655544941314 28.41650536688394,206.81380745882052 28.297730072168633,206.72953254698587 28.24071793066105,206.66105909817634 28.150448706699535,206.6241887487813 28.064930494467262,206.56624958475732 27.912898117210716,206.56098238539198 27.83213091676589,206.4451038879197 27.884392046456924,206.34502683234678 27.760865739925066,206.3239579583169 27.623086398059968,206.31342351863714 27.623086398059968,206.1448722446803 27.58032729194383,206.0289929824321 27.471054020774318,206.01319124834117 27.357029737817356,205.94471702157898 27.300017596338876,205.83410465198904 27.20499736056081,205.74982843062753 27.162238254473777,205.60234477217818 27.17174027801957,205.46012806048748 27.35227872602991,205.37585133920948 27.485307056136662,205.33371293633172 27.566074256552383,205.16515904314292 27.51381312686135,205.08088192757714 27.456800985411974,204.96500070970433 27.456800985411974,204.83331724902018 27.52331515046535,204.69109880253018 27.532817174011143,204.5541474026868 27.57557628012728,204.42773046184084 27.485307056136662,204.3276502038898 27.46155199719942,204.1696284204845 27.366531761421356,204.06428034480996 27.219250395923154,204.02740847673704 27.22875241949805,204.0379432983791 27.247756466676947,204.03267588777453 27.214499384135706,204.0379432983791 27.224001407710603,204.04321070855076 27.224001407710603,204.04321070855076 27.20974837234826,204.0484781182713 27.214499384135706,204.05374552754802 27.214499384135706,204.0484781182713 27.133732183719985,203.93786242160058 27.133732183719985,203.81671167400054 27.162238254473777,203.7324327557144 27.2335034312855,203.63235139392054 27.304768608126324,203.55333968026025 27.361780749604804,203.4953976939796 27.480556044349214,203.42165327075418 27.589829315518728,203.32683888556858 27.689600563113345,203.24782678897463 27.72760865741293,203.1530121423275 27.684849551296793,203.0634648451014 27.58032729194383,202.99498741433126 27.54707020940259,202.85803232963372 27.561323244764935,202.74741454397372 27.58032729194383,202.65259914464696 27.570825268368935,202.52091085339634 27.613584374455968,202.4050249295069 27.49005806792411,202.33127923066058 27.471054020774318,202.2680685629566 27.390286820358597,202.1785200085542 27.42829491465818,201.9994225180817 27.49480907971156,201.92040875755265 27.49005806792411,201.7887189365756 27.51381312686135,201.63595839953632 27.60408235088107,201.50953560613198 27.627837409818312,201.3831125591496 27.642090445180656,201.26722454332776 27.63733943339321,201.1513363144113 27.627837409818312,201.0407155334833 27.59933133906452,200.96170057109703 27.60408235088107,200.8458117804148 27.613584374455968,200.671978194845 27.699102586659137,200.5666242732732 27.699102586659137,200.44546704572713 27.661094492359553,200.3243095852813 27.67059651593445,200.18208096495437 27.656343480543,200.02931653372434 27.675347527721897,199.83440965283808 27.656343480543,199.79753531027382 27.152736230869778,199.06531175407144 27.076720042241504,199.03897261869497 27.052964983304264,198.92834812994988 27.02445891255047,198.859866206265 27.00545486540068,198.82825913945635 26.972197782888543,198.74397355048131 26.91993665319751,198.6965628571379 26.858173499902477,198.6333485438554 26.786908323090756,198.57540203432654 26.753651240549516,198.5490626941828 26.68713707549614,198.4647767317947 26.60161886329297,198.38575853963266 26.511349639302352,198.30674024840482 26.42583142707008,198.25406133254364 26.3688192855916,198.24879343853172 26.25004399084719,198.2751329041639 26.17402780224802,198.30147235880577 26.05525250750361,198.2962044687556 25.998240365996026,198.21191816813734 25.960232271725545,198.12236385020515 25.907971142005408,198.05388105061138 25.79394685907755,198.04861313985748 25.70367763505783,198.04861313985748 25.69892662327038,198.01700566615546 25.732183705782518,198.00646983805927 25.708428646845277,198.01700566615546 25.689424599695485,198.0328094049728 25.679922576091485,198.02227357953961 25.684673587908037,198.0275414924763 25.670420552545693,198.0433452286743 25.67517156433314,198.0275414924763 25.69892662327038,198.00120192334725 25.69892662327038,198.00120192334725 25.627661446429556,197.89584353671307 25.622910434642108,197.83262842017575 25.58490234031342,197.73780562646425 25.551645257801283,197.70093005703893 25.518388175260043,197.66932240892493 25.44237198663177,197.62717885343955 25.38060883336584,197.60083911695983 25.304592644737568,197.59557116834185 25.266584550437983,197.5903032192764 25.266584550437983,197.5797673198358 25.176315326418262,197.62717885343955 25.105050149577437,197.65351857892892 25.057540031673852,197.69039417609747 24.98152384304558,197.68512623495553 24.934013725141995,197.72726975168553 24.848495512938825,197.75887737073572 24.805736406851793,197.82736049093 24.758226288919104,197.83262842017575 24.69171212389483,197.87477183824376 24.644202005991247,197.8800397635241 24.553932781971525,197.9379869125114 24.45891254619346,197.96959442586012 24.368643322202843,198.06441687076222 24.28787612178712,198.1592391730046 24.188104874192504,198.1592391730046 24.131092732714023,198.1487033686899 24.02181946154451,198.14343546586315 23.94580327294534,198.1487033686899 23.964807320095133,198.12236385020515 23.96955833188258,198.14343546586315 23.95055428473279,198.12763175477812 23.94105226112879,198.1592391730046 23.884040119679412,198.09602432069732 23.812774942809483,198.06441687076222 23.755762801360106,198.11182803973134 23.684497624490177,198.0591489609069 23.608481435861904,198.05388105061138 23.527714235446183,198.04861313985748 23.456449058605358,197.96432650804854 23.39468590533943,197.91691522813198 23.356677811039845,197.8800397635241 23.342424775648396,197.87477183824376 23.304416681348812,197.80628876955598 23.24265352805378,197.75360943531996 23.19039239839185,197.7904849739134 23.1951434101793,197.77468117430908 23.180890374816954,197.74307356318604 23.180890374816954,197.66405446603676 23.199894421966746,197.58503526978166 23.16663733945461,197.52708779622117 23.11912722152192,197.45333638915326 23.090621150826337,197.4059247247351 23.05261305649765,197.34270911669955 23.043111032922752,197.2636895174619 23.009853950381512,197.1477939260003 22.99084990323172,196.9792181396806 22.914833714603446,196.9265381139703 22.881576632062206,196.84224998121863 22.81031145522138,196.78956984099932 22.80556044340483,196.71054954804276 22.734295266593108,196.62099309626137 22.677283125114627,196.54197259192006 22.66778110153973,196.4840241590755 22.629773007211043,196.4840241590755 22.620270983636146,196.49456024172832 22.644026042573387,196.49982828240172 22.629773007211043,196.48929220062564 22.644026042573387,196.4840241590755 22.644026042573387,196.4787561170706 22.68203413693118,196.46295198844746 22.69628717226442,196.41027153109826 22.691536160506075,196.43661176528622 22.61076896006125,196.42080762608384 22.629773007211043,196.43661176528622 22.620270983636146,196.44714785587712 22.629773007211043,196.44187981080177 22.629773007211043,196.43661176528622 22.629773007211043,196.4313437193232 22.63452401899849,196.41553957881843 22.639275030815043,196.42607567291998 22.629773007211043,196.42080762608384 180.90973077600938,92.40676135829563 180.81471054023132,92.46480593648448 180.81471054023132,92.46480593648448 180.81471054023132,92.46480593648448 180.7244413162407,92.52285046081306 180.62942108043353,92.58089493128136 23.11912722152192,197.4217286168423 23.176139363029506,197.52181984144045 23.185641386604402,197.62191090702981 23.180890374816954,197.72726975168553 23.199894421966746,197.85370013272768 23.256906563445227,197.93271899206957 23.299665669561364,198.03807731704728 23.299665669561364,198.19084657536223 23.323420728498604,198.31200813756732 23.347175787435845,198.49638398090246 23.375681858189637,198.64388426715595 23.385183881764533,198.75450925526457 23.380432869977085,198.9230802923048 23.36617983461474,199.06004392786417 23.37093084640219,199.14432909408788 23.285412634169916,199.23914977136883 23.114376209763577,199.244417582584 22.98609889144427,199.29709567057216 22.848319549520966,199.31816689342668 22.710540207655868,199.38138051976057 22.57751187752001,199.42879069787887 22.449234559229808,199.4762008403486 22.363716346997535,199.51307537093817 22.26394509943202,199.56575323434663 22.14992081647506,199.62896661232662 22.09765968681313,199.68164437887026 22.050149568909546,199.7290543311101 22.050149568909546,199.71851878925736 22.01689248639741,199.74485764058772 21.950378321344033,199.7817320139875 21.86486010911176,199.80807083892432 21.755586837942246,199.83440965283808 21.66531761395163,199.90289051751824 21.617807496048044,199.9397647984406 21.57504838996101,200.02931653372434 21.48477916594129,200.06619074069022 21.394509941950673,200.0345842789029 21.28048565899371,200.050387511772 21.190216435003094,200.07145848278378 21.076192152046133,200.07145848278378 20.985922928055516,200.01878104207208 20.886151680460898,200.02931653372434 20.805384480045177,200.06092299815282 20.748372338537592,200.07672622442988 20.662854126334423,200.1294036167019 20.56308287876891,200.1504745612874 20.487066690140637,200.18734869734544 20.439556572237052,200.2769000808221 20.430054548662156,200.37171905406285 20.411050501512364,200.4349316236221 20.35878937182133,200.44546704572713 20.325532289309194,200.47707330143749 20.26376913601416,200.48234100919944 20.1592468766612,200.48234100919944 20.06897765264148,200.46653788464027 19.95495336971362,200.4928764233664 19.916945275414037,200.52975035911368 19.93119831077638,200.57189197352272 19.92644729895983,200.65090742460598 19.90744325183914,200.70358433697038 19.89794122823514,200.7562612052934 19.888439204660244,200.8036703491489 19.864684145723004,200.8826855096704 19.81242301603197,200.9775035715029 19.69364772128756,200.96696823832826 19.603378497296944,201.0091095604257 19.536864332243567,201.0249125489354 19.460848143615294,201.07232149070478 19.427591061074054,201.0249125489354 19.370578919595573,200.9985742325298 19.361076896020677,200.99330656793973 19.31831778990454,200.9511652353067 19.35632588423323,200.92482688808013 19.370578919595573,200.8826855096704 19.37532993138302,200.90902387447204 19.31831778990454,200.9300945584073 19.299313742725644,201.0249125489354 19.313566778117092,201.16713926726152 19.327819813479437,201.3199009405689 19.422840049257502,201.43578885954412 19.34207284884178,201.5148032275938 19.23755058948882,201.59381749657405 19.147281365498202,201.75184573739898 19.17578743622289,201.90987358200073 19.104522259382065,202.05736587950014 19.009502023604,202.1995902680901 19.009502023604,202.38922228702722 19.123526306531858,202.42609511334012 19.152032377256546,202.5314459268193 19.152032377256546,202.6209939798282 19.104522259382065,202.77375212960396 19.133028330135858,202.8738348545994 19.242301601276267,202.9528474199651 19.384831954957917,202.99498741433126 19.517860285093775,203.08453480885146 19.574872426543152,203.2320243577742 19.703149744862458,203.3637111634198 19.864684145723004,203.46906040987233 20.040471581945894,203.527002420371 20.173499912023544,203.46379295173756 20.35878937182133,203.46906040987233 20.534576808015117,203.53226987323433 20.70561323245056,203.5691420309231 20.890902692248346,203.59547927320455 21.009677986992756,203.60074672033807 21.13795530531206,203.63235139392054 21.25197958823992,203.65342116749525 21.394509941950673,203.66395605164143 21.527538272057427,203.70082813231056 21.65581559034763,203.71663044600064 21.817349991208175,203.71663044600064 21.955129333102377,203.7693047963221 22.078655639634235,203.7851070928482 22.249692064069677,203.80090938539797 22.401724441326223,203.81144424490049 22.568009853945114,203.7693047963221 22.69628717226442,203.71136300855142 22.81031145522138,203.7587699297801 22.952841808932135,203.80090938539797 23.062115080072545,203.71663044600064 23.142882280488266,203.7587699297801 23.27591061059502,203.82197910264586 23.342424775648396,204.0063388281378 23.39468590533943,204.1327566140244 23.437445011455566,204.29604587888753 23.541967270808527,204.1696284204845 23.746260777756106,204.22230239229248 23.93630124934134,204.18543061663877 24.08358261481044,204.0484781182713 24.226112968521193,203.94839725823113 24.406651416502427,204.01160624095428 24.525426711246837,204.10115219131694 24.734471229981864,204.1222218082039 24.905507654417306,204.1222218082039 25.02903396092006,204.05901293639909 25.166813302843366,203.98000175751076 25.347351750853704,203.94839725823113 25.470878057385562,203.83778138595153 25.594404363888316,203.91679274310445 25.727432694024174,204.01160624095428 25.850959000526927,204.03267588777453 25.974485307058785,204.05374552754802 26.083758578199195,203.98526917252457 26.231039943697397,203.96419950985 26.40207636813284,204.0010714148957 26.53985571002704,203.94839725823113 26.672884040133795,203.90099047958574 26.76790427591186,203.87465336494643 26.905683617835166,203.88518821213802 27.057715995091712,203.95893209308633 27.190744325169362,203.99053658709454 27.29051557276398,204.01160624095428 27.418792891083285,204.10115219131694 27.480556044349214,204.2591741463766 27.57557628012728,204.38032404367914 27.55182122119004,204.53307793014756 27.532817174011143,204.6963661581176 27.518564138677903,204.85965396315805 27.466303008957766,205.01767401695543 27.594580327306176,205.13882245664354 27.54707020940259,205.27050527919346 27.40453985572094,205.36531674112484 27.271511525614187,205.42852430321 27.214499384135706,205.56547380365737 27.257258490251843,205.72875935768752 27.338025690667564,205.87624272043104 27.49005806792411,205.99212226342206 27.642090445180656,206.06586367986893 27.63733943339321,206.2028117959162 27.732359669200378,206.29762185585787 27.889143058244372,206.3239579583169 27.946155199722853,206.48197434203394 28.098187577008503,206.5715167836861 28.259721977839945,206.66105909817634 28.378497272584355,206.77693719875242 28.478268520149868,206.88754791428073 28.57803976771538,207.04029572622312 28.668308991735103,207.16670742870338 28.79658631005441,207.29838601594383 28.9723737462773,207.31945456438552 29.148161182471085,207.3352559710911 29.300193559756735,207.38792729820125 29.475980995979626,207.44586570719548 29.618511349632172,207.50380406293698 29.784796762280166,207.55120813261237 29.927327115961816,207.62494772568607 30.074608481460018,207.63021483618286" stroke="#4DD2FF" stroke-dasharray="none" stroke-linecap="round" stroke-linejoin="round" stroke-width="0.5"><title>2026-03-14 12.0km</title><desc>9223370263378906807</desc></polyline></svg>