<?xml version="1.0" encoding="utf-8" ?>
<svg baseProfile="full" height="300mm" version="1.1" viewBox="0,0,200,300" width="200mm" xmlns="http://www.w3.org/2000/svg" xmlns:ev="http://www.w3.org/2001/xml-events" xmlns:xlink="http://www.w3.org/1999/xlink"><defs /><rect fill="#222222" height="300" width="200" x="0" y="0" /><text fill="#FFFFFF" style="font-size:12px; font-family:Arial; font-weight:bold;" x="10" y="20">Over 10km Runs</text><text fill="#FFFFFF" style="font-size:4px; font-family:Arial" x="10" y="280">Runner</text><text fill="#FFFFFF" style="font-size:9px; font-family:Arial" x="10" y="290">yihong0618</text><text fill="#FFFFFF" style="font-size:4px; font-family:Arial" x="65" y="280">SPECIAL TRACKS</text><rect fill="yellow" height="2.6" width="2.6" x="65" y="283" /><text fill="#FFFFFF" style="font-size:3px; font-family:Arial" x="70" y="285.5">Over 20.0 km</text><rect fill="red" height="2.6" width="2.6" x="65" y="287" /><text fill="#FFFFFF" style="font-size:3px; font-family:Arial" x="70" y="289.5">Over 40.0 km</text><text fill="#FFFFFF" style="font-size:4px; font-family:Arial" x="120" y="280">STATISTICS</text><text fill="#FFFFFF" style="font-size:3px; font-family:Arial" x="120" y="285">Number: 1</text><text fill="#FFFFFF" style="font-size:3px; font-family:Arial" x="120" y="290">Weekly: 1.0</text><text fill="#FFFFFF" style="font-size:3px; font-family:Arial" x="141" y="285">Total: 12.0 km</text><text fill="#FFFFFF" style="font-size:3px; font-family:Arial" x="141" y="290">Avg: 12.0 km</text><text fill="#FFFFFF" style="font-size:3px; font-family:Arial" x="167" y="285">Min: 12.0 km</text><text fill="#FFFFFF" style="font-size:3px; font-family:Arial" x="167" y="290">Max: 12.0 km</text><polyline fill="none" opacity="1" points="29.628013373236172,207.50907118356554 29.499736054916866,207.47746845328948 29.36195671299356,207.43006432819675 29.224177371128462,207.38266016747002 29.09114904102171,207.31945456438552 28.96762273448985,207.31945456438552 28.82034136899165,207.34579024004415 28.65405595637276,207.26678318007907 28.573288755957037,207.11403591679846 28.5305296498409,207.04556288555978 28.421256378671387,206.91915094020806 28.383248284371803,206.80854028013346 28.26922400141484,206.676860669897 28.22646489532781,206.66105909817634 28.112440612370847,206.61365435928747 28.017420376534574,206.5504479853298 27.893894070060924,206.50304316327674 27.860636987519683,206.39243177321987 27.813126869645203,206.30288907722206 27.684849551296793,206.33449239621768 27.60408235088107,206.20807902520392 27.60883336266852,206.04479471254672 27.49480907971156,206.02372573818866 27.3807847967837,205.9710532714489 27.304768608126324,205.8551736897316 27.214499384135706,205.75509569776113 27.157487242657226,205.61287933063795 27.17174027801957,205.4706626427178 27.35227872602991,205.37585133920948 27.49005806792411,205.33371293633172 27.561323244764935,205.15462440987176 27.49956009152811,205.07561460410943 27.466303008957766,204.9386640395751 27.442547950020526,204.79644583073605 27.532817174011143,204.66476201796468 27.54707020940259,204.51727582113017 27.55182122119004,204.38032404367914 27.480556044349214,204.2591741463766 27.42829491465818,204.1222218082039 27.300017596338876,204.03267588777453 27.22875241949805,204.0379432983791 27.247756466676947,204.0379432983791 27.2335034312855,204.04321070855076 27.219250395923154,204.04321070855076 27.22875241949805,204.0379432983791 27.214499384135706,204.05374552754802 27.214499384135706,204.05374552754802 27.214499384135706,204.0484781182713 27.138483195507433,203.95893209308633 27.133732183719985,203.82197910264586 27.162238254473777,203.7377001914174 27.2335034312855,203.63235139392054 27.304768608126324,203.55333968026025 27.376033784996253,203.49013023802036 27.49480907971156,203.40058341970507 27.60883336266852,203.3057690028254 27.699102586659137,203.2320243577742 27.71810663380893,203.1319422014858 27.64684145699721,203.04239487433733 27.570825268368935,202.94757991869847 27.532817174011143,202.79482219018246 27.566074256552383,202.70000686214553 27.570825268368935,202.59992386116573 27.60883336266852,202.4524328332118 27.532817174011143,202.34708188767036 27.480556044349214,202.30494146014826 27.414041879295837,202.23119564419903 27.40453985572094,202.04156314985084 27.471054020774318,201.94147910336687 27.49956009152811,201.81505692278006 27.504311103286454,201.65702884045095 27.58507830373128,201.52007084860452 27.618335386243416,201.398915453894 27.63733943339321,201.27249218502402 27.63733943339321,201.1513363144113 27.627837409818312,201.03544787241117 27.59933133906452,200.95643290341832 27.59933133906452,200.83527642523768 27.642090445180656,200.65090742460598 27.70385359847569,200.53501806245185 27.70385359847569,200.41386077414427 27.661094492359553,200.2769000808221 27.675347527721897,200.1294036167019 27.67059651593445,199.976639057797 27.67059651593445,199.8133386025802 27.181242301594466,199.05477610122762 27.105226112966193,199.0442404466412 27.071969030454056,198.97049081521618 27.014956888975576,198.8756697337085 27.00070385361323,198.83879483015335 26.986450818250887,198.7650449582943 26.938940700347302,198.6965628571379 26.877177547081374,198.6333485438554 26.80591237024055,198.6070092279624 26.76790427591186,198.57540203432654 26.696639099071035,198.47531248325322 26.606369875080418,198.39102642219586 26.511349639302352,198.30674024840482 26.42583142707008,198.25406133254364 26.359317262016702,198.25406133254364 26.25004399084719,198.28040079596758 26.15977476685657,198.30147235880577 26.036248460324714,198.29093657827616 25.98873834242113,198.18557867607524 25.945979236334097,198.09602432069732 25.874714059464168,198.03807731704728 25.746436741144862,198.08022059771974 25.708428646845277,198.01700566615546 25.708428646845277,197.99593400818776 25.727432694024174,198.00646983805927 25.69892662327038,198.01173775231655 25.689424599695485,198.0275414924763 25.670420552545693,198.02227357953961 25.689424599695485,198.0328094049728 25.684673587908037,198.0275414924763 25.69892662327038,198.01700566615546 25.694175611482933,198.02227357953961 25.637163470004452,197.9063793833011 25.618159422825556,197.8378963489704 25.58965335212997,197.74307356318604 25.551645257801283,197.70093005703893 25.513637163472595,197.66405446603676 25.44237198663177,197.62191090702981 25.366355798003497,197.6166429601799 25.29509062116267,197.5903032192764 25.26183353862143,197.59557116834185 25.24282949147164,197.58503526978166 25.147809255693574,197.62191090702981 25.086046102427645,197.67459035136926 25.02903396092006,197.66405446603676 24.972021819470683,197.70093005703893 24.891254619025858,197.75360943531996 24.829491465789033,197.81155670057342 24.777230336098,197.8378963489704 24.72021819461952,197.85370013272768 24.653704029566143,197.86950391252685 24.577687840966973,197.92218314987986 24.477916593372356,197.9590585898295 24.382896357565187,198.04861313985748 24.297378145332914,198.13816756260348 24.197606897796504,198.1592391730046 24.131092732714023,198.1487033686899 24.02181946154451,198.1487033686899 23.94580327294534,198.1487033686899 23.964807320095133,198.12236385020515 23.96955833188258,198.14343546586315 23.95055428473279,198.12763175477812 23.91729720219155,198.13816756260348 23.865036072500516,198.08548850581792 23.79852190744714,198.0696847801919 23.722505718818866,198.12763175477812 23.670244589156937,198.04861313985748 23.575224353349768,198.08022059771974 23.4897061411466,198.00646983805927 23.437445011455566,197.92218314987986 23.36142882279819,197.885307688357 23.347175787435845,197.89057561274967 23.323420728498604,197.84316427733938 23.261657575232675,197.76941324022846 23.1951434101793,197.76941324022846 23.1951434101793,197.77468117430908 23.185641386604402,197.74834149946764 23.176139363029506,197.67985829338068 23.204645433754195,197.59557116834185 23.180890374816954,197.53235575055442 23.11912722152192,197.45860434967835 23.090621150826337,197.4059247247351 23.05261305649765,197.33744114650835 23.0383600211062,197.2531535634189 23.009853950381512,197.13725795256687 22.981347879656823,196.96868213807466 22.900580679212,196.91073409766614 22.857821573124966,196.84751799281366 22.81031145522138,196.779033807652 22.777054372709244,196.67894140313 22.710540207655868,196.5841168732295 22.68203413693118,196.50509632263856 22.66778110153973,196.48929220062564 22.63452401899849,196.49456024172832 22.64877705438994,196.49456024172832 22.64877705438994,196.48929220062564 22.629773007211043,196.4840241590755 22.639275030815043,196.4840241590755 22.65827907793573,196.4840241590755 22.70578919586842,196.4050034829379 22.691536160506075,196.41553957881843 22.6155199718487,196.41553957881843 22.629773007211043,196.4313437193232 22.620270983636146,196.44187981080177 22.629773007211043,196.44187981080177 22.6250219954527,196.4313437193232 22.629773007211043,196.4313437193232 22.639275030815043,196.41553957881843 22.639275030815043,196.42607567291998 181.0,92.34871672625741 180.90973077600938,92.40676135829563 180.81471054023132,92.46480593648448 180.81471054023132,92.46480593648448 180.81471054023132,92.46480593648448 180.7244413162407,92.52285046081306 23.090621150826337,197.37431692864993 23.138131268700818,197.50074801788287 23.185641386604402,197.5797673198358 23.16663733945461,197.69039417609747 23.180890374816954,197.81155670057342 23.233151504478883,197.91164730594755 23.285412634169916,198.01700566615546 23.294914657744812,198.14343546586315 23.318669716682052,198.28040079596758 23.347175787435845,198.4805803583149 23.375681858189637,198.64388426715595 23.380432869977085,198.7492414031003 23.380432869977085,198.9230802923048 23.36617983461474,199.06004392786417 23.37093084640219,199.1495969132411 23.266408587020123,199.24968539335168 23.081119127222337,199.24968539335168 22.952841808932135,199.29182786375168 22.815062467037933,199.33397030596097 22.66778110153973,199.40771951201168 22.544254795007873,199.45512967032482 22.401724441326223,199.4920042132362 22.316206229123054,199.54468209427432 22.202181946166093,199.59735993126014 22.09290867499658,199.66584105353104 22.06440260427189,199.7132510176598 22.050149568909546,199.72378656040019 22.031145521759754,199.7290543311101 21.97888439206872,199.78699977985525 21.888615168078104,199.80807083892432 21.76983987330459,199.81860636580677 21.693823684676317,199.8923550047184 21.617807496048044,199.92922929180713 21.57504838996101,200.02931653372434 21.489530177757842,200.07145848278378 21.394509941950673,200.0345842789029 21.270983635418816,200.050387511772 21.175963399611646,200.07145848278378 21.066690128471237,200.06092299815282 20.971669892664067,200.0240487881165 20.87189864506945,200.03985202363765 20.805384480045177,200.06092299815282 20.7293682913878,200.09252944672699 20.624846032063942,200.1346713535131 20.529825796256773,200.1610100309299 20.47281365474919,200.22949054071432 20.425303536874708,200.3243095852813 20.439556572237052,200.40332534676054 20.38729544254602,200.44019933489108 20.344536336429883,200.47180559325716 20.297026218555402,200.47180559325716 20.192503959173337,200.4928764233664 20.10223473518272,200.45600246606773 19.98345944043831,200.48760871649574 19.912194263597485,200.52448265532075 19.93119831077638,200.5666242732732 19.92644729895983,200.65090742460598 19.90744325183914,200.70358433697038 19.89794122823514,200.7562612052934 19.893190216447692,200.80893802960054 19.864684145723004,200.88795318351185 19.79341896888218,200.98803890290583 19.67464367413777,200.9722359051484 19.603378497296944,201.0091095604257 19.513109273277223,201.05125085431428 19.427591061074054,201.05125085431428 19.41333802571171,201.0091095604257 19.36582790777902,201.0091095604257 19.337321837054333,200.9722359051484 19.327819813479437,200.9458975667294 19.370578919595573,200.88795318351185 19.38008094317047,200.88795318351185 19.332570825266885,200.94062989773374 19.26605666024261,200.95643290341832 19.332570825266885,201.10392743206103 19.313566778117092,201.27775982628737 19.40383600210771,201.40945071485112 19.36582790777902,201.50953560613198 19.242301601276267,201.57274703453368 19.156783389073098,201.73077532817842 19.17578743622289,201.90987358200073 19.104522259382065,202.05736587950014 19.004751011787448,202.20485783187905 19.023755058966344,202.39975738244902 19.133028330135858,202.43136265818976 19.142530353710754,202.53671346286865 19.152032377256546,202.6473316182637 19.08551821220317,202.81589224369964 19.18053844801034,202.9001723873953 19.2945627309673,202.96338242120328 19.418089037499158,203.010789904969 19.560619391180808,203.1530121423275 19.622382544446737,203.28996658615142 19.79341896888218,203.42165327075418 19.969206405075965,203.50066514947684 20.125989794149064,203.527002420371 20.311279253917746,203.4427231147638 20.47281365474919,203.527002420371 20.662854126334423,203.5586071309117 20.85764560973621,203.59547927320455 21.009677986992756,203.6112816132918 21.123702269949717,203.62708394942092 21.24722857645247,203.6586886097939 21.389758930163225,203.6586886097939 21.527538272057427,203.70082813231056 21.65581559034763,203.71663044600064 21.82685201478307,203.71663044600064 21.964631356706377,203.7693047963221 22.111912722175475,203.79037452413468 22.26394509943202,203.80090938539797 22.444483547413256,203.81144424490049 22.601266936486354,203.7587699297801 22.710540207655868,203.72716531958213 22.872074608516414,203.77457222894373 23.024106985743856,203.76403736327848 23.123878233338473,203.69029325431984 23.199894421966746,203.80617681536387 23.342424775648396,203.92732758323837 23.3329227520735,204.10115219131694 23.41844096427667,204.23283718137463 23.4897061411466,204.19596541189094 23.698750659881625,204.20123280884582 23.893542143225204,204.17489581964037 24.064578567660647,204.08534997401875 24.211859933129745,203.95366467587155 24.39714939292753,204.0063388281378 24.52067569945939,204.10115219131694 24.734471229981864,204.1222218082039 24.915009677992202,204.1169544046461 25.043286996311508,204.05374552754802 25.195319373568054,203.96419950985 25.375857821607497,203.9325950026432 25.489882104535354,203.84831623929858 25.622910434642108,203.9431298401396 25.76068977653631,204.0484781182713 25.898469118430512,204.05901293639909 26.01724441317492,204.03267588777453 26.145521731494227,203.98000175751076 26.321309167688014,203.96946692617348 26.478092556761112,203.96419950985 26.62537392223021,203.92206016339333 26.725145169824827,203.88518821213802 26.858173499902477,203.8693859406958 27.014956888975576,203.93786242160058 27.16698926623212,203.96946692617348 27.26676051382674,204.01160624095428 27.399788843933493,204.08534997401875 27.480556044349214,204.23810457526633 27.566074256552383,204.36452189635747 27.55182122119004,204.5278105609068 27.532817174011143,204.6963661581176 27.51381312686135,204.86492130466286 27.471054020774318,205.02820867312403 27.59933133906452,205.15462440987176 27.532817174011143,205.302109115677 27.366531761421356,205.36531674112484 27.2430054548895,205.47592993317812 27.20499736056081,205.62341388735513 27.295266584551428,205.7814320268444 27.3807847967837,205.94471702157898 27.54707020940259,206.01319124834117 27.656343480543,206.13433777507453 27.651592468784656,206.2765529659555 27.841632940340787,206.29762185585787 27.908147105423268,206.4293022581296 28.036424423742574,206.53464638194419 28.21221185993636,206.63472313652528 28.335738166468218,206.75586846903025 28.468766496574972,206.86647922152042 28.559035720594693,207.01922708450002 28.658806968160206,207.14037167825154 28.787084286479512,207.29311887773656 28.962871722702403,207.31945456438552 29.148161182471085,207.3352559710911 29.300193559756735,207.38792729820125 29.494985043100314,207.45113283265528 29.642266408598516,207.50907118356554 29.82280485657975,207.56174236547304 29.94633116311161,207.63548194622854 30.103114552184707,207.6038792793188 30.264648953045253,207.57754371146802 30.43568537745159,207.54067389799093 30.61622382546193,207.53540678000718 30.773007214505924,207.54594101551265 30.90128453282523,207.50907118356554 31.04381488650688,207.45639995766032 31.172092204826185,207.42479720099072 31.290867499570595,207.51960542346205" stroke="#4DD2FF" stroke-dasharray="none" stroke-linecap="round" stroke-linejoin="round" stroke-width="0.5"><title>2026-03-14 12.0km</title><desc>9223370263378906807</desc></polyline></svg>