<?xml version="1.0" encoding="utf-8" ?>
<svg baseProfile="full" height="300mm" version="1.1" viewBox="0,0,200,300" width="200mm" xmlns="http://www.w3.org/2000/svg" xmlns:ev="http://www.w3.org/2001/xml-events" xmlns:xlink="http://www.w3.org/1999/xlink"><defs /><rect fill="#222222" height="300" width="200" x="0" y="0" /><text fill="#FFFFFF" style="font-size:12px; font-family:Arial; font-weight:bold;" x="10" y="20">Over 10km Runs</text><text fill="#FFFFFF" style="font-size:4px; font-family:Arial" x="10" y="280">Runner</text><text fill="#FFFFFF" style="font-size:9px; font-family:Arial" x="10" y="290">yihong0618</text><text fill="#FFFFFF" style="font-size:4px; font-family:Arial" x="65" y="280">SPECIAL TRACKS</text><rect fill="yellow" height="2.6" width="2.6" x="65" y="283" /><text fill="#FFFFFF" style="font-size:3px; font-family:Arial" x="70" y="285.5">Over 20.0 km</text><rect fill="red" height="2.6" width="2.6" x="65" y="287" /><text fill="#FFFFFF" style="font-size:3px; font-family:Arial" x="70" y="289.5">Over 40.0 km</text><text fill="#FFFFFF" style="font-size:4px; font-family:Arial" x="120" y="280">STATISTICS</text><text fill="#FFFFFF" style="font-size:3px; font-family:Arial" x="120" y="285">Number: 1</text><text fill="#FFFFFF" style="font-size:3px; font-family:Arial" x="120" y="290">Weekly: 1.0</text><text fill="#FFFFFF" style="font-size:3px; font-family:Arial" x="141" y="285">Total: 12.0 km</text><text fill="#FFFFFF" style="font-size:3px; font-family:Arial" x="141" y="290">Avg: 12.0 km</text><text fill="#FFFFFF" style="font-size:3px; font-family:Arial" x="167" y="285">Min: 12.0 km</text><text fill="#FFFFFF" style="font-size:3px; font-family:Arial" x="167" y="290">Max: 12.0 km</text><polyline fill="none" opacity="1" points="29.3952137955348,207.45113283265528 29.2574344536406,207.38792729820125 29.129157135321293,207.32472170038818 28.986626781639643,207.31945456438552 28.863100475107785,207.3563245072146 28.65405595637276,207.26151603923063 28.606545838469174,207.15090597973904 28.544782685203245,207.05609720289794 28.435509414062835,206.96655544941314 28.41175435509649,206.80854028013346 28.283477036777185,206.70846380143485 28.235966918902704,206.66632628917796 28.13144465952064,206.61892155425812 28.041175435530022,206.55571518557554 27.89864508184837,206.52937917992313 27.851134963944787,206.41876783605403 27.851134963944787,206.29762185585787 27.71810663380893,206.33449239621768 27.59933133906452,206.25021684370222 27.618335386243416,206.0763981609125 27.518564138677903,206.0289929824321 27.399788843933493,205.99212226342206 27.31427063170122,205.87624272043104 27.2335034312855,205.77616476191906 27.157487242657226,205.64975027143737 27.162238254473777,205.50753366668505 27.328523667092668,205.38638593554424 27.456800985411974,205.34951484070552 27.566074256552383,205.1862283044502 27.52331515046535,205.08614925059737 27.452049973624526,204.97026804239795 27.456800985411974,204.83331724902018 27.5280661622528,204.69109880253018 27.537568185827695,204.54361266729393 27.570825268368935,204.41192832641173 27.471054020774318,204.29604587888753 27.437796938233078,204.14329141805865 27.35227872602991,204.04321070855076 27.224001407710603,204.0379432983791 27.22875241949805,204.0379432983791 27.2430054548895,204.04321070855076 27.214499384135706,204.0484781182713 27.22875241949805,204.0379432983791 27.219250395923154,204.04321070855076 27.214499384135706,204.0484781182713 27.214499384135706,204.04321070855076 27.157487242657226,203.99580400121704 27.133732183719985,203.85358366531364 27.152736230869778,203.7535024958488 27.214499384135706,203.64815372476733 27.29051557276398,203.5691420309231 27.35227872602991,203.51120005914345 27.471054020774318,203.4374556544317 27.58032729194383,203.34264129299845 27.689600563113345,203.24782678897463 27.72760865741293,203.1530121423275 27.67059651593445,203.0581973530716 27.58032729194383,202.98445241839363 27.537568185827695,202.8264272678207 27.566074256552383,202.72634446757002 27.57557628012728,202.6262615084015 27.594580327306176,202.4787705420822 27.570825268368935,202.36288454072564 27.480556044349214,202.31547656968178 27.437796938233078,202.2522658861344 27.40453985572094,202.11530918766584 27.456800985411974,201.9572818581255 27.504311103286454,201.84139489797963 27.504311103286454,201.6991697011399 27.566074256552383,201.54640894706608 27.623086398059968,201.4305212314939 27.63258842160576,201.29356274744714 27.64684145699721,201.17767456695947 27.618335386243416,201.0617861733881 27.60408235088107,200.96170057109703 27.594580327306176,200.8563471338348 27.60883336266852,200.68251357730696 27.699102586659137,200.5666242732732 27.699102586659137,200.44019933489108 27.656343480543,200.30850642108635 27.675347527721897,200.1662777650963 27.661094492359553,200.00297780127585 27.675347527721897,199.81860636580677 27.20499736056081,199.0442404466412 27.11947914835764,199.05477610122762 27.067218018637504,198.9968299792199 27.03871194794192,198.90200893732617 27.014956888975576,198.82825913945635 26.991201830038335,198.78611635906418 26.957944747497095,198.7123664255596 26.905683617835166,198.64388426715595 26.820165405602893,198.61227709202285 26.763153264124412,198.5701341671811 26.70614112264593,198.49111610714317 26.63012493401766,198.41209794803217 26.516100651060697,198.32254391457536 26.440084462432424,198.25406133254364 26.387823332770495,198.2382576491873 26.27379904978443,198.2751329041639 26.178778814006364,198.30147235880577 26.05525250750361,198.2962044687556 25.998240365996026,198.21191816813734 25.950730248121545,198.11182803973134 25.888967094855616,198.0433452286743 25.774942811898654,198.0591489609069 25.69892662327038,198.0275414924763 25.708428646845277,198.00646983805927 25.741685729357414,198.00120192334725 25.72268168220762,197.99593400818776 25.69892662327038,198.02227357953961 25.66566954072914,198.02227357953961 25.69892662327038,198.02227357953961 25.694175611482933,198.0275414924763 25.684673587908037,198.02227357953961 25.69892662327038,198.01173775231655 25.656167517154245,197.94325483249486 25.618159422825556,197.84316427733938 25.603906387492316,197.76941324022846 25.55639626958873,197.70093005703893 25.527890198864043,197.68512623495553 25.447122998419218,197.64825063470562 25.390110856940737,197.59557116834185 25.304592644737568,197.59557116834185 25.266584550437983,197.5903032192764 25.26183353862143,197.5797673198358 25.176315326418262,197.62717885343955 25.10029913778999,197.66405446603676 25.043286996311508,197.67459035136926 24.97677283125813,197.69566211678102 24.915009677992202,197.74307356318604 24.83424247757648,197.7957529062478 24.78198134788545,197.83262842017575 24.734471229981864,197.84316427733938 24.663206053170143,197.87477183824376 24.587189864512766,197.91691522813198 24.501671652309597,197.96432650804854 24.40190040471498,198.0275414924763 24.325884216086706,198.11709594518106 24.226112968521193,198.1592391730046 24.140594756318023,198.1592391730046 24.036072496935958,198.16450707448894 23.955305296491133,198.14343546586315 23.964807320095133,198.12236385020515 23.964807320095133,198.12236385020515 23.95055428473279,198.12763175477812 23.94105226112879,198.1592391730046 23.884040119679412,198.09602432069732 23.812774942809483,198.06441687076222 23.755762801360106,198.11182803973134 23.67974661270273,198.05388105061138 23.589477388712112,198.06441687076222 23.51346120008384,198.0275414924763 23.437445011455566,197.9379869125114 23.36617983461474,197.90111146023264 23.356677811039845,197.8800397635241 23.342424775648396,197.8642359863843 23.266408587020123,197.77994910794223 23.199894421966746,197.76414530569673 23.199894421966746,197.76941324022846 23.19039239839185,197.75360943531996 23.176139363029506,197.69566211678102 23.199894421966746,197.60610706513035 23.1951434101793,197.5376237044511 23.123878233338473,197.46914026936065 23.104874186159577,197.4217286168423 23.057364068285096,197.3532450557941 23.043111032922752,197.27422546974776 23.009853950381512,197.15306191204945 22.98609889144427,196.9792181396806 22.914833714603446,196.9265381139703 22.881576632062206,196.84224998121863 22.81031145522138,196.78956984099932 22.796058419859037,196.70001350151506 22.724793243018212,196.6051890033268 22.67253211332718,196.5209004406861 22.663030089752283,196.4840241590755 22.6250219954527,196.4840241590755 22.644026042573387,196.49456024172832 22.644026042573387,196.49456024172832 22.629773007211043,196.4840241590755 22.639275030815043,196.4840241590755 22.653528066177387,196.48929220062564 22.70578919586842,196.39973543434826 22.691536160506075,196.41027153109826 22.620270983636146,196.41027153109826 22.629773007211043,196.4313437193232 22.620270983636146,196.4313437193232 22.639275030815043,196.43661176528622 22.629773007211043,196.43661176528622 22.629773007211043,196.4313437193232 22.629773007211043,196.42080762608384 22.639275030815043,196.42607567291998 22.629773007211043,196.42080762608384 180.90973077600938,92.40676135829563 180.81471054023132,92.46480593648448 180.81471054023132,92.46480593648448 180.81471054023132,92.46480593648448 180.7244413162407,92.52285046081306 23.08587013903889,197.36378099308058 23.11912722152192,197.47967618729672 23.185641386604402,197.5534275635291 23.171388351242058,197.67459035136926 23.185641386604402,197.7904849739134 23.223649480903987,197.89584353671307 23.280661622382468,197.99593400818776 23.299665669561364,198.13816756260348 23.313918704923708,198.25406133254364 23.3329227520735,198.4437052235662 23.351926799223293,198.6017413634545 23.380432869977085,198.71763428080885 23.38993489355198,198.8862054164856 23.36617983461474,199.03897261869497 23.380432869977085,199.1337934544863 23.313918704923708,199.23388195970256 23.114376209763577,199.244417582584 22.98609889144427,199.29709567057216 22.838817525975173,199.32343469803527 22.701038184051868,199.38664831907954 22.568009853945114,199.43932628818584 22.43973253565491,199.4762008403486 22.34946331163519,199.53414652157517 22.23068801689078,199.5868243673831 22.111912722175475,199.63950216914964 22.078655639634235,199.7027154731586 22.050149568909546,199.72378656040019 22.050149568909546,199.7290543311101 21.99313742740196,199.77646424768318 21.91237022698624,199.80280307482099 21.798345944058383,199.80807083892432 21.71282773182611,199.87128397382912 21.62730951962294,199.91869378340925 21.589301425294252,199.99771005345247 21.513285236695083,200.06092299815282 21.418265000887914,200.03985202363765 21.313742741534952,200.03985202363765 21.19496744676144,200.06619074069022 21.08569417562103,200.07145848278378 20.995424951601308,200.01878104207208 20.886151680460898,200.02931653372434 20.805384480045177,200.06092299815282 20.743621326779248,200.08199396563214 20.658103114546975,200.1241358794432 20.558331866952358,200.15574229631966 20.47281365474919,200.2136873527561 20.430054548662156,200.30323869881613 20.4443075840245,200.3875222023962 20.396797466120915,200.44019933489108 20.349287348246435,200.46127017557592 20.311279253917746,200.47180559325716 20.21625901813968,200.4928764233664 20.121238782361615,200.47180559325716 19.997712475829758,200.48760871649574 19.90744325183914,200.51921495109127 19.93119831077638,200.561356572558 19.92644729895983,200.63510434231648 19.916945275414037,200.6983166477039 19.893190216447692,200.74572583516056 19.888439204660244,200.8036703491489 19.864684145723004,200.86161480987357 19.81717402781942,200.96170057109703 19.69364772128756,200.96696823832826 19.603378497296944,201.0091095604257 19.536864332243567,201.0249125489354 19.451346120011294,201.05651851408038 19.41333802571171,201.01964488653903 19.370578919595573,200.9985742325298 19.34207284884178,200.9827712374281 19.31831778990454,200.9511652353067 19.35632588423323,200.93536222828698 19.361076896020677,200.8826855096704 19.332570825266885,200.92482688808013 19.2945627309673,200.9458975667294 19.327819813479437,201.07232149070478 19.299313742725644,201.24615397208254 19.384831954957917,201.3831125591496 19.38958296677447,201.49900036189865 19.26130564842606,201.54640894706608 19.17578743622289,201.69390209509947 19.156783389073098,201.87826804476936 19.137779341894202,202.01522525829205 19.023755058966344,202.17325244257518 19.004751011787448,202.36815209086853 19.11402428295696,202.41556002230573 19.156783389073098,202.52091085339634 19.152032377256546,202.6209939798282 19.104522259382065,202.77901964539706 19.156783389073098,202.88436986902525 19.25655463663861,202.9528474199651 19.40383600210771,203.00552240853358 19.541615344031015,203.12667471517852 19.598627485480392,203.26362921622058 19.741157839191146,203.39531595584776 19.92644729895983,203.4953976939796 20.09748372339527,203.54807222915406 20.273271159589058,203.44799057466298 20.430054548662156,203.50593260453024 20.629597043822287,203.54807222915406 20.79588245647028,203.57967692914463 20.981171916238964,203.59547927320455 21.095196199195925,203.60074672033807 21.209220482123783,203.6586886097939 21.35650184765109,203.66922349306697 21.48477916594129,203.70082813231056 21.636811543197837,203.71663044600064 21.803096955874935,203.71136300855142 21.931374274165137,203.7587699297801 22.078655639634235,203.7851070928482 22.249692064069677,203.80090938539797 22.41122646490112,203.81144424490049 22.582262889336562,203.76403736327848 22.69628717226442,203.71663044600064 22.83406651415862,203.7693047963221 23.005102938594064,203.79037452413468 23.09537216258468,203.68502581466237 23.161886327638058,203.79037452413468 23.323420728498604,203.89572305754336 23.318669716682052,204.05901293639909 23.404187928914325,204.1590936208231 23.456449058605358,204.22230239229248 23.660742565552937,204.18543061663877 23.841281013563275,204.17489581964037 24.050325532298302,204.11168700063718 24.183353862405056,203.97473434206768 24.37339433399029,203.97473434206768 24.4921696287347,204.08534997401875 24.686961112107383,204.12748921133607 24.886503607267514,204.12748921133607 25.00527890198282,204.06428034480996 25.162062291055918,203.98526917252457 25.33309871549136,203.94839725823113 25.470878057385562,203.83778138595153 25.599155375675764,203.91679274310445 25.732183705782518,204.01687365330872 25.874714059464168,204.04321070855076 25.993489354208577,204.0484781182713 26.10751363716554,203.99053658709454 26.27855006160098,203.96419950985 26.44958648600732,203.98526917252457 26.59686785150552,203.92732758323837 26.70614112264593,203.89572305754336 26.824916417419445,203.86411851600133 26.995952841825783,203.9325950026432 27.138483195507433,203.96946692617348 27.22875241949805,204.0010714148957 27.376033784996253,204.05374552754802 27.485307056136662,204.19069801448495 27.532817174011143,204.34871974508496 27.556572232977487,204.49620633626546 27.55182122119004,204.67002937575307 27.518564138677903,204.83331724902018 27.46155199719942,204.9966046993395 27.594580327306176,205.123020499439 27.54707020940259,205.2652379715728 27.40453985572094,205.36531674112484 27.26676051382674,205.43379159718825 27.214499384135706,205.57600836827987 27.26200950203929,205.74456116305737 27.35227872602991,205.90257899890275 27.504311103286454,205.9973895103103 27.651592468784656,206.0974671176882 27.627837409818312,206.25548406904272 27.794122822466306,206.29762185585787 27.89864508184837,206.39243177321987 28.01266936477623,206.51884477458225 28.183705789211672,206.61365435928747 28.311983107530978,206.72953254698587 28.44976244942518,206.84541052172062 28.51152560269111,206.99815843575925 28.644553932797862,207.10876876318798 28.753827203938272,207.2773174604772 28.93911666373606,207.31945456438552 29.105402076384053,207.31945456438552 29.276438500819495,207.36685877263517 29.45697694880073,207.44059858129913 29.604258314269828,207.50380406293698 29.780045750463614,207.54594101551265 29.927327115961816,207.62494772568607 30.084110505034914,207.62494772568607 30.23614288229146,207.572276596562 30.40242829491035,207.54067389799093 30.58771775473724,207.54067389799093 30.739750131964684,207.55120813261237 30.87277846210054,207.51960542346205 31.015308815753087,207.4722013300452" stroke="#4DD2FF" stroke-dasharray="none" stroke-linecap="round" stroke-linejoin="round" stroke-width="0.5"><title>2026-03-14 12.0km</title><desc>9223370263378906807</desc></polyline></svg>