<?xml version="1.0" encoding="utf-8" ?>
<svg baseProfile="full" height="300mm" version="1.1" viewBox="0,0,200,300" width="200mm" xmlns="http://www.w3.org/2000/svg" xmlns:ev="http://www.w3.org/2001/xml-events" xmlns:xlink="http://www.w3.org/1999/xlink"><defs /><rect fill="#222222" height="300" width="200" x="0" y="0" /><text fill="#FFFFFF" style="font-size:12px; font-family:Arial; font-weight:bold;" x="10" y="20">Over 10km Runs</text><text fill="#FFFFFF" style="font-size:4px; font-family:Arial" x="10" y="280">Runner</text><text fill="#FFFFFF" style="font-size:9px; font-family:Arial" x="10" y="290">yihong0618</text><text fill="#FFFFFF" style="font-size:4px; font-family:Arial" x="65" y="280">SPECIAL TRACKS</text><rect fill="yellow" height="2.6" width="2.6" x="65" y="283" /><text fill="#FFFFFF" style="font-size:3px; font-family:Arial" x="70" y="285.5">Over 20.0 km</text><rect fill="red" height="2.6" width="2.6" x="65" y="287" /><text fill="#FFFFFF" style="font-size:3px; font-family:Arial" x="70" y="289.5">Over 40.0 km</text><text fill="#FFFFFF" style="font-size:4px; font-family:Arial" x="120" y="280">STATISTICS</text><text fill="#FFFFFF" style="font-size:3px; font-family:Arial" x="120" y="285">Number: 1</text><text fill="#FFFFFF" style="font-size:3px; font-family:Arial" x="120" y="290">Weekly: 1.0</text><text fill="#FFFFFF" style="font-size:3px; font-family:Arial" x="141" y="285">Total: 12.0 km</text><text fill="#FFFFFF" style="font-size:3px; font-family:Arial" x="141" y="290">Avg: 12.0 km</text><text fill="#FFFFFF" style="font-size:3px; font-family:Arial" x="167" y="285">Min: 12.0 km</text><text fill="#FFFFFF" style="font-size:3px; font-family:Arial" x="167" y="290">Max: 12.0 km</text><polyline fill="none" opacity="1" points="30.66373394333641,207.28785380693807 30.55921168398345,207.27205245433288 30.430934365664143,207.27731957231663 30.283653000195045,207.29838803979874 30.131620622909395,207.3036551555706 30.00809431640664,207.37739473016336 29.87981699805823,207.35105917770852 29.71353158543934,207.27205245433288 29.604258314269828,207.2351826162194 29.447474925225833,207.21411412761518 29.328699630481424,207.14037436207582 29.181418265012326,207.09823731446522 29.034136899543228,207.05610023871122 28.915361604769714,207.07716878011706 28.635051909222966,207.0086959948203 28.635051909222966,206.94549028087204 28.563786732353037,206.7980100352288 28.48301953196642,206.74533843533936 28.421256378671387,206.5662546665808 28.311983107530978,206.487246959834 28.24071793066105,206.39770477250204 28.136195671308087,206.35556722858382 28.041175435530022,206.29236085990124 27.89864508184837,206.2607576517912 27.855885975732235,206.14487908656884 27.83213091676589,206.03426753018357 27.689600563113345,206.07113807054338 27.60408235088107,205.94472469952962 27.60408235088107,205.78144038687242 27.49005806792411,205.7551041678089 27.366531761421356,205.69189719717542 27.300017596338876,205.57075032631474 27.195495336985914,205.4759395693727 27.152736230869778,205.31792132426926 27.214499384135706,205.12303160986994 27.390286820358597,205.09669511575703 27.537568185827695,204.99661633783398 27.556572232977487,204.8491315334395 27.433045926474733,204.75431969128113 27.471054020774318,204.61210166068486 27.49005806792411,204.44881389657894 27.542319197615143,204.30659517679305 27.57557628012728,204.169643513771 27.475805032561766,204.0590284918071 27.452049973624526,203.89047189466874 27.35227872602991,203.77985638287646 27.224001407710603,203.7745889727048 27.22875241949805,203.7745889727048 27.2430054548895,203.7745889727048 27.219250395923154,203.77985638287646 27.22875241949805,203.7745889727048 27.214499384135706,203.79039120187372 27.214499384135706,203.79039120187372 27.214499384135706,203.785123792597 27.133732183719985,203.67450809592629 27.138483195507433,203.54282248968957 27.16698926623212,203.43747380663626 27.247756466676947,203.3479272876175 27.338025690667564,203.27945045194429 27.418792891083285,203.20570608419803 27.54707020940259,203.1214267011237 27.665845504147,203.00027489054628 27.72760865741293,202.92126271472443 27.708604610263137,202.82118048317716 27.58507830373128,202.74216808285928 27.54707020940259,202.59994551272757 27.566074256552383,202.47879269986515 27.57557628012728,202.37344223854598 27.589829315518728,202.22595129688125 27.57557628012728,202.10479776519423 27.480556044349214,202.05212224400748 27.42829491465818,201.9836440006402 27.40453985572094,201.82561700124643 27.471054020774318,201.68865994796943 27.49956009152811,201.5569701930326 27.504311103286454,201.39367451477665 27.594580327306176,201.24618128045768 27.627837409818312,201.1197582334753 27.64684145699721,200.99860257550245 27.627837409818312,200.87217903191413 27.63258842160576,200.7510228980209 27.59933133906452,200.65620489166395 27.58032729194383,200.49817456403252 27.665845504147,200.35067923408496 27.70385359847569,200.2295220976921 27.67059651593445,200.09256157609343 27.67059651593445,199.94506529688442 27.661094492359553,199.79230092951548 27.675347527721897,199.57105532716378 27.656343480543,199.53418098459952 27.157487242657226,198.79142177555332 27.06246700687916,198.74927914664295 27.043462959700264,198.643922451065 27.014956888975576,198.56490481378205 26.991201830038335,198.52276203338988 26.953193735709647,198.4437442441813 26.88192855886882,198.37526208005147 26.810663382027997,198.3436549022881 26.76790427591186,198.31204770865224 26.696639099071035,198.21195815757892 26.60161886329297,198.12240421395836 26.5065986274858,198.0328501430813 26.435333450644976,197.974903323513 26.335562203079462,198.0012427935726 26.22628893190995,198.02231436166767 26.12651768431533,198.04338592273052 26.02199542496237,197.99597490043016 25.979236318846233,197.8853490430156 25.922224177367752,197.80106254508792 25.82245292980224,197.78525881418318 25.71317965866183,197.7957946352326 25.69892662327038,197.75365134048116 25.732183705782518,197.74311551238497 25.71317965866183,197.75891925386532 25.694175611482933,197.75365134048116 25.66566954072914,197.75891925386532 25.69892662327038,197.75891925386532 25.684673587908037,197.75891925386532 25.684673587908037,197.75891925386532 25.69892662327038,197.74838342664225 25.6419144817919,197.65356090245768 25.618159422825556,197.5745420232961 25.594404363888316,197.48498717379334 25.551645257801283,197.43757573136463 25.513637163472595,197.40070014036246 25.43762097484432,197.35855658135551 25.352102762641152,197.36382452776525 25.290339609375224,197.32168094410736 25.266584550437983,197.33748479128553 25.214323420717847,197.33221684266755 25.133556220302125,197.37436041927867 25.071793067036197,197.41650396770638 24.995776878437027,197.41650396770638 24.94351574871689,197.45337954947172 24.848495512938825,197.49552304506142 24.80098539503524,197.5640061652557 24.75347527716076,197.56927409450145 24.677459088503383,197.6166854378498 24.606193911691662,197.6430250576268 24.51117367585539,197.6957042641552 24.406651416502427,197.75365134048116 24.325884216086706,197.85374161950676 24.226112968521193,197.8958848473303 24.140594756318023,197.8853490430156 24.026570473331958,197.8958848473303 23.95055428473279,197.8853490430156 23.964807320095133,197.85900952453085 23.96955833188258,197.88008114018885 23.96955833188258,197.87481323692919 23.9125461904041,197.86954533324024 23.85078303713817,197.81159836349616 23.79377089565969,197.8063304545176 23.70825268345652,197.84847371405704 23.65599155376549,197.7694550792985 23.54671828262508,197.81686627204544 23.47545310575515,197.7115080175281 23.408938940701773,197.64829298027325 23.356677811039845,197.6166854378498 23.342424775648396,197.61141751256946 23.294914657744812,197.54293444388168 23.21889846911654,197.50079098002243 23.1951434101793,197.51132684863478 23.19039239839185,197.49025510964566 23.16663733945461,197.44284367117143 23.1951434101793,197.34802068719728 23.199894421966746,197.2742693787768 23.123878233338473,197.20578594368635 23.09537216258468,197.15310632756882 23.05261305649765,197.0846227607908 23.043111032922752,197.0003351917876 23.009853950381512,196.87390362689257 22.981347879656823,196.70532781240036 22.900580679212,196.6368437589299 22.84356853776262,196.57889565554433 22.81031145522138,196.51041146465286 22.76755234913435,196.39451497203117 22.691536160506075,196.30495844535835 22.677283125114627,196.22593787495134 22.639275030815043,196.2154017913963 22.620270983636146,196.23120591605402 22.644026042573387,196.23120591605402 22.63452401899849,196.22593787495134 22.644026042573387,196.22593787495134 22.644026042573387,196.2206698334012 22.686785148689523,196.1679893936489 22.691536160506075,196.14691720542396 22.653528066177387,196.1679893936489 22.629773007211043,196.1679893936489 22.620270983636146,196.1679893936489 22.629773007211043,196.17852548512747 22.629773007211043,196.17325743961192 22.629773007211043,196.1679893936489 22.63452401899849,196.15218525314413 22.639275030815043,196.16272134724568 181.0,92.08536240058311 180.90973077600938,92.14340703262133 180.81471054023132,92.20145161081018 180.81471054023132,92.20145161081018 180.81471054023132,92.20145161081018 180.62942108043353,92.31754060560706 23.104874186159577,197.12676650301364 23.161886327638058,197.2479296048623 23.180890374816954,197.34802068719728 23.180890374816954,197.46391542601123 23.199894421966746,197.59034580705338 23.27115959880757,197.68516842637837 23.309167693107156,197.80106254508792 23.304416681348812,197.96436753241142 23.3329227520735,198.1434757415518 23.36142882279819,198.31204770865224 23.380432869977085,198.4384763880371 23.385183881764533,198.59124403722672 23.36617983461474,198.7650826357858 23.380432869977085,198.85990348743144 23.313918704923708,198.97052763402826 23.114376209763577,198.9810632569097 22.96709484429448,199.02847353807738 22.824564490583725,199.06534817654392 22.68203413693118,199.1338295907517 22.544254795007873,199.19177534465052 22.401724441326223,199.22864988756191 22.311455217335606,199.2865955542802 22.18792891080375,199.33927338686408 22.09290867499658,199.40248672785674 22.050149568909546,199.4604322347259 22.059651592484443,199.4498966919855 22.01689248639741,199.48150331491343 21.94562730952748,199.52364545418095 21.850607073749416,199.5499842769059 21.74608481436735,199.58159084965155 21.646313566772733,199.6448039475872 21.60830547247315,199.6974814807545 21.546542319178116,199.79756867247852 21.423016012646258,199.7870331860977 21.33274678865564,199.77649769796335 21.209220482123783,199.80810415710948 21.08569417562103,199.80810415710948 20.995424951601308,199.7606944624422 20.886151680460898,199.76596220805004 20.805384480045177,199.79756867247852 20.734119303204352,199.81863963995784 20.639099067397183,199.8660492910276 20.529825796256773,199.8976557052556 20.47281365474919,199.96613621504002 20.430054548662156,200.06622298011644 20.439556572237052,200.14523873501093 20.368291395396227,200.17684500921678 20.33978532467154,200.20318355896597 20.273271159589058,200.20845126758286 20.1592468766612,200.21898668352515 20.064226640883135,200.20318355896597 19.940700334351277,200.2400575101019 19.916945275414037,200.27166373677755 19.935949322534725,200.34541153735336 19.92644729895983,200.42442694220517 19.89794122823514,200.47710382375226 19.883688192843692,200.52451297948573 19.864684145723004,200.5877251316706 19.826676051394315,200.6825432410551 19.712651768437354,200.70361391265396 19.612880520842737,200.7457552347514 19.536864332243567,200.7615582232611 19.451346120011294,200.79316418840608 19.41333802571171,200.75629056086473 19.370578919595573,200.74048757102355 19.337321837054333,200.7141492458286 19.327819813479437,200.6825432410551 19.370578919595573,200.62459885783755 19.38008094317047,200.62459885783755 19.332570825266885,200.67727557205944 19.275558683788404,200.7141492458286 19.327819813479437,200.86691137876915 19.327819813479437,201.05127897714192 19.432342072861502,201.18296978866783 19.332570825266885,201.25671652293022 19.223297554126475,201.36206885076172 19.152032377256546,201.55170259710576 19.190040471585235,201.67812477769257 19.05701214147848,201.86249000320822 19.004751011787448,202.0205169101646 19.09502023580717,202.13640305677472 19.161534400860546,202.23121883645945 19.147281365498202,202.34183706580006 19.11402428295696,202.48406021829942 19.133028330135858,202.6104805289251 19.25655463663861,202.6894930942908 19.40383600210771,202.74216808285928 19.55111736760591,202.86332038950422 19.603378497296944,203.01607731382683 19.75541087455349,203.13722909403077 19.964455393288517,203.23731082380255 20.125989794149064,203.2636480946967 20.316030265705194,203.18463624898868 20.487066690140637,203.2741829999759 20.681858173484216,203.3005202554632 20.886151680460898,203.33212494753025 21.009677986992756,203.33739239466377 21.156959352461854,203.39006684182095 21.28523667078116,203.40060172596714 21.432518036250258,203.40586916739267 21.57504838996101,203.44800868287712 21.74608481436735,203.4427412449768 21.898117191623896,203.4690784300401 22.026394509943202,203.4954156041058 22.192679922591196,203.54282248968957 22.363716346997535,203.55335734832624 22.55850783039932,203.5217527671739 22.69628717226442,203.44800868287712 22.819813478796277,203.5059504706478 22.99084990323172,203.53228762930667 23.09537216258468,203.42167148898807 23.16663733945461,203.53228762930667 23.3329227520735,203.64290357552818 23.323420728498604,203.83779786564264 23.408938940701773,203.93787848317152 23.4897061411466,203.93261108621664 23.70825268345652,203.93787848317152 23.9125461904041,203.92207629096447 24.08358261481044,203.785123792597 24.23561499209609,203.6797755144653 24.416153440106427,203.75351932763442 24.56818581733387,203.8588674825296 24.824740454001585,203.8588674825296 24.95301777232089,203.811460834615 25.10029913778999,203.76405415106274 25.27133556222543,203.69557776741203 25.432869963056874,203.6060316150215 25.546894246013835,203.62710130938285 25.71317965866183,203.72191484685027 25.836705965164583,203.7745889727048 25.974485307058785,203.79039120187372 26.098011613590643,203.72191484685027 26.25954601445119,203.7008451841757 26.440084462432424,203.72191484685027 26.59686785150552,203.66397325756407 26.71089213443338,203.62710130938285 26.843920464569237,203.60076419032703 27.00545486540068,203.67450809592629 27.16698926623212,203.70611260049918 27.26676051382674,203.74825191527998 27.399788843933493,203.82199564834445 27.480556044349214,203.98528503601847 27.58032729194383,204.12223709954196 27.561323244764935,204.29606044403772 27.518564138677903,204.45408125040922 27.49480907971156,204.6384383572149 27.532817174011143,204.79645830539448 27.589829315518728,204.9492105454883 27.475805032561766,205.07035861065742 27.319021643488668,205.11249701353518 27.22875241949805,205.27578305868155 27.2335034312855,205.44433595203736 27.338025690667564,205.597086622387 27.49005806792411,205.72876793774776 27.642090445180656,205.8130438352382 27.627837409818312,205.97106083939798 27.78462079889141,206.03426753018357 27.89864508184837,206.11854301930725 28.01266936477623,206.25549044890795 28.18845680099912,206.35556722858382 28.321485131105874,206.47671259145136 28.459264473000076,206.5925905468248 28.540031673415797,206.75060559730628 28.658806968160206,206.87701735257724 28.79658631005441,207.03503169026953 28.98187576982309,207.06136737471388 29.181418265012326,207.08243591436985 29.33820165405632,207.14564149104626 29.532993137458107,207.20357988067553 29.680274502927205,207.2615182170848 29.85606193912099,207.32472361425243 30.00334330459009,207.38792894806465 30.17913074081298,207.31418938579372 30.33116311809863,207.29312092359396 30.511701566079864,207.27731957231663 30.7112440612691,207.28785380693807 30.8395213795593,207.26678533592712 30.991553756815847,207.21411412761518 31.119831075135153,207.14564149104626 31.257610417029355,207.21411412761518 31.381136723561212,207.3089222708877 31.518916065455414,207.34579206590206 31.556924159784103,207.47220262794872 31.613936301262584,207.61441420732808 31.7137075488572,207.73555715159455 31.81347879639361,207.84089865308852 31.894245996838436,207.8883022713453 31.951258138316916,207.87776813703385 31.96551117367926,207.79876207360212" stroke="#4DD2FF" stroke-dasharray="none" stroke-linecap="round" stroke-linejoin="round" stroke-width="0.5"><title>2026-03-14 12.0km</title><desc>9223370263378906807</desc></polyline></svg>