<?xml version="1.0" encoding="utf-8" ?>
<svg baseProfile="full" height="300mm" version="1.1" viewBox="0,0,200,300" width="200mm" xmlns="http://www.w3.org/2000/svg" xmlns:ev="http://www.w3.org/2001/xml-events" xmlns:xlink="http://www.w3.org/1999/xlink"><defs /><rect fill="#222222" height="300" width="200" x="0" y="0" /><text fill="#FFFFFF" style="font-size:12px; font-family:Arial; font-weight:bold;" x="10" y="20">Over 10km Runs</text><text fill="#FFFFFF" style="font-size:4px; font-family:Arial" x="10" y="280">Runner</text><text fill="#FFFFFF" style="font-size:9px; font-family:Arial" x="10" y="290">yihong0618</text><text fill="#FFFFFF" style="font-size:4px; font-family:Arial" x="65" y="280">SPECIAL TRACKS</text><rect fill="yellow" height="2.6" width="2.6" x="65" y="283" /><text fill="#FFFFFF" style="font-size:3px; font-family:Arial" x="70" y="285.5">Over 20.0 km</text><rect fill="red" height="2.6" width="2.6" x="65" y="287" /><text fill="#FFFFFF" style="font-size:3px; font-family:Arial" x="70" y="289.5">Over 40.0 km</text><text fill="#FFFFFF" style="font-size:4px; font-family:Arial" x="120" y="280">STATISTICS</text><text fill="#FFFFFF" style="font-size:3px; font-family:Arial" x="120" y="285">Number: 1</text><text fill="#FFFFFF" style="font-size:3px; font-family:Arial" x="120" y="290">Weekly: 1.0</text><text fill="#FFFFFF" style="font-size:3px; font-family:Arial" x="141" y="285">Total: 12.0 km</text><text fill="#FFFFFF" style="font-size:3px; font-family:Arial" x="141" y="290">Avg: 12.0 km</text><text fill="#FFFFFF" style="font-size:3px; font-family:Arial" x="167" y="285">Min: 12.0 km</text><text fill="#FFFFFF" style="font-size:3px; font-family:Arial" x="167" y="290">Max: 12.0 km</text><polyline fill="none" opacity="1" points="28.259721977839945,206.77166870029396 28.221713883511256,206.7400655502861 28.112440612370847,206.70846238442027 28.022171388351126,206.65052320587347 27.89864508184837,206.6189199951259 27.851134963944787,206.5188430565977 27.860636987519683,206.40296429776572 27.737110680987826,206.42930039802013 27.60408235088107,206.39769707640153 27.623086398059968,206.2186112879499 27.570825268368935,206.12906820297576 27.46155199719942,206.1079992233208 27.357029737817356,206.04479224212264 27.304768608126324,205.93944713263772 27.214499384135706,205.8551709183048 27.157487242657226,205.71822182976757 27.16698926623212,205.59180702246886 27.328523667092668,205.4864611560879 27.442547950020526,205.45485736183764 27.561323244764935,205.31264009170627 27.54707020940259,205.1967591158609 27.433045926474733,205.11774923749908 27.480556044349214,204.99133322613852 27.456800985411974,204.843847559172 27.537568185827695,204.73850044295614 27.561323244764935,204.60154892868013 27.54707020940259,204.4698644997734 27.480556044349214,204.3645167585928 27.433045926474733,204.23283183456806 27.35227872602991,204.14328592909442 27.219250395923154,204.13801851892276 27.219250395923154,204.13801851892276 27.247756466676947,204.13801851892276 27.214499384135706,204.13801851892276 27.224001407710603,204.14328592909442 27.224001407710603,204.14328592909442 27.20974837234826,204.14855333881496 27.214499384135706,204.15382074809168 27.214499384135706,204.14855333881496 27.138483195507433,204.06954214671714 27.138483195507433,203.94312403339427 27.152736230869778,203.85357771639246 27.20974837234826,203.75876383033756 27.271511525614187,203.6850195981533 27.338025690667564,203.63761254619385 27.437796938233078,203.55860071368807 27.54707020940259,203.48485624734167 27.642090445180656,203.37423938605207 27.71810663380893,203.31629714315932 27.71810663380893,203.2214824489747 27.642090445180656,203.142470094881 27.570825268368935,203.05292264050877 27.532817174011143,202.91069995152793 27.566074256552383,202.82641968811367 27.57557628012728,202.73687178476393 27.58032729194383,202.59991592180813 27.60883336266852,202.4945650554946 27.49005806792411,202.43135445120424 27.471054020774318,202.36814378350027 27.390286820358597,202.2838627946403 27.418792891083285,202.10476531913082 27.485307056136662,202.03628673812273 27.49956009152811,201.90986454695303 27.504311103286454,201.76763927879801 27.58032729194383,201.62541368971506 27.623086398059968,201.53059645203757 27.627837409818312,201.40417324657028 27.656343480543,201.2882850854512 27.618335386243416,201.19346734058854 27.627837409818312,201.0881141234495 27.594580327306176,201.00383142293867 27.58032729194383,200.86160411025048 27.651592468784656,200.7193764766089 27.699102586659137,200.61402246697617 27.699102586659137,200.5086682812289 27.661094492359553,200.38224302586605 27.675347527721897,200.25054978183107 27.661094492359553,200.1030530218195 27.675347527721897,199.92921711147937 27.656343480543,199.90287829536464 27.157487242657226,199.16011914840783 27.076720042241504,199.13904783923863 27.052964983304264,199.02842335049354 27.02445891255047,198.95994142680865 27.00545486540068,198.92833436 26.981699806434335,198.84931662364397 26.938940700347302,198.79663807768156 26.877177547081374,198.73342376439905 26.810663382027997,198.70708444850607 26.763153264124412,198.67020938772475 26.71089213443338,198.59645920144612 26.64912898116745,198.54378044410987 26.535104698239593,198.4384227973278 26.478092556761112,198.34886865907538 26.411578391707735,198.33306497440935 26.326060179504566,198.37520812470757 26.22628893190995,198.38574390788563 26.14077071970678,198.40154757934943 26.036248460324714,198.39101179881982 25.98873834242113,198.2856538966189 25.945979236334097,198.21717116572472 25.888967094855616,198.14342044921796 25.79394685907755,198.14868836040114 25.70367763505783,198.14868836040114 25.69892662327038,198.1170808866991 25.717930670420174,198.1012771438909 25.708428646845277,198.1170808866991 25.694175611482933,198.14342044921796 25.679922576091485,198.13288462551645 25.67517156433314,198.13288462551645 25.69892662327038,198.14868836040114 25.684673587908037,198.12761671301996 25.694175611482933,198.1170808866991 25.69892662327038,198.1118129728602 25.670420552545693,198.04859797259633 25.622910434642108,197.95377535327134 25.608657399279764,197.89056019445707 25.565898293163627,197.81680909568968 25.546894246013835,197.79573733732468 25.485131092747906,197.76412968658042 25.432869963056874,197.71671818072355 25.352102762641152,197.7272540739832 25.29509062116267,197.69037843982005 25.26183353862143,197.6956463888855 25.257082526833983,197.67984254037947 25.176315326418262,197.7272540739832 25.105050149577437,197.75359379947258 25.057540031673852,197.79046939664113 24.98152384304558,197.77993351392433 24.94351574871689,197.82207703417225 24.848495512938825,197.85895259127938 24.819989442214137,197.91163192111708 24.767728312523104,197.92743571147366 24.72021819461952,197.9590432803161 24.653704029566143,197.9695791330705 24.582438852725318,198.01699044867564 24.4921696287347,198.0644017285922 24.40190040471498,198.12761671301996 24.325884216086706,198.21717116572472 24.23561499209609,198.25931439354827 24.154847791680368,198.25931439354827 24.08358261481044,198.25931439354827 23.988562379032373,198.24877858923355 23.94105226112879,198.2435106864068 23.964807320095133,198.2224390707488 23.964807320095133,198.23824278314714 23.96955833188258,198.23824278314714 23.92679922579555,198.23824278314714 23.874538096104516,198.18556372636158 23.812774942809483,198.16449209130587 23.755762801360106,198.211903260275 23.684497624490177,198.15922418145055 23.6179834594368,198.14868836040114 23.541967270808527,198.16449209130587 23.470702093967702,198.07493756374606 23.42319197609322,198.01699044867564 23.356677811039845,197.98011498406777 23.347175787435845,197.99065083329333 23.323420728498604,197.94323949788304 23.266408587020123,197.87475639485274 23.1951434101793,197.8642205262404 23.199894421966746,197.86948846077212 23.19039239839185,197.85368465586362 23.16663733945461,197.81154115675963 23.1951434101793,197.72198612757347 23.1951434101793,197.66930663917083 23.13338025691337,197.61135915108025 23.114376209763577,197.54814364874255 23.090621150826337,197.4901960492316 23.0478620447102,197.43224839640243 23.028857997560408,197.33742484957475 23.009853950381512,197.23733317311053 22.99084990323172,197.07402535964502 22.914833714603446,197.02661333451397 22.881576632062206,196.9423252017623 22.81031145522138,196.89491307753633 22.80556044340483,196.82116081338972 22.753299313772004,196.73687240577783 22.68203413693118,196.65258388543953 22.677283125114627,196.5893674211693 22.644026042573387,196.57883133761425 22.6250219954527,196.59463546227198 22.64877705438994,196.59463546227198 22.64877705438994,196.59463546227198 22.629773007211043,196.58409937961915 22.639275030815043,196.58409937961915 22.653528066177387,196.5893674211693 22.686785148689523,196.52615089346364 22.691536160506075,196.51034675164192 22.677283125114627,196.54722307642078 22.639275030815043,196.52615089346364 22.6250219954527,196.53668698582987 22.620270983636146,196.54722307642078 22.6250219954527,196.53668698582987 22.6250219954527,196.53141893986685 22.629773007211043,196.53141893986685 22.63452401899849,196.51561479936208 22.639275030815043,196.52615089346364 22.639275030815043,196.5208828466275 180.90973077600938,92.50683657883928 180.81471054023132,92.56488115702814 180.81471054023132,92.56488115702814 180.81471054023132,92.56488115702814 180.80995952844387,92.55432760135955 180.62942108043353,92.68097015182502 23.09537216258468,197.47966011630706 23.138131268700818,197.60082323842653 23.185641386604402,197.67984254037947 23.176139363029506,197.7852014554992 23.185641386604402,197.89056019445707 23.209396445541643,197.98538290890065 23.280661622382468,198.08020548065178 23.309167693107156,198.19609954124098 23.299665669561364,198.3225291824201 23.313918704923708,198.45949434079375 23.36142882279819,198.6175306920486 23.375681858189637,198.7544952092103 23.39468590533943,198.86512017883797 23.380432869977085,199.02842335049354 23.36617983461474,199.16011914840783 23.380432869977085,199.23386867502995 23.313918704923708,199.33395718024622 23.128629245155025,199.3392249919125 23.000351926806616,199.38663527703102 22.872074608516414,199.40770650342893 22.75805032553035,199.4551167370264 22.6155199718487,199.5183303263766 22.50149568892084,199.56047268402835 22.387471405934775,199.59734722386202 22.306704205548158,199.65529288573816 22.202181946166093,199.6974351518038 22.10241069860058,199.7659162740747 22.078655639634235,199.80805846616204 22.050149568909546,199.82386178094384 22.050149568909546,199.82912955165375 21.997888439218514,199.86073616666908 21.931374274165137,199.89761053081747 21.836354038357968,199.91341382312385 21.7508358261548,199.9397526348548 21.66531761395163,200.0029657380619 21.6130564842897,200.05037552386057 21.570297378173564,200.13465949944657 21.48477916594129,200.16626596123388 21.40401196552557,200.1399272441813 21.299489706143504,200.15046273231565 21.19496744676144,200.16626596123388 21.08569417562103,200.17153370332744 21.009677986992756,200.129391754268 20.914657751185587,200.12412400866015 20.829139538982417,200.16099821869648 20.77212739753304,200.16626596123388 20.691360197088216,200.2136756241889 20.610592996672494,200.24001431042052 20.50607073729043,200.26635298563997 20.468062642990844,200.3348334896982 20.430054548662156,200.41384936347458 20.439556572237052,200.49286513817788 20.396797466120915,200.54027455543473 20.35403836000478,200.56134539611958 20.320781277492642,200.57714852198114 20.24476508886437,200.5876839370394 20.140242829482304,200.57714852198114 20.059475629066583,200.56134539611958 19.950202357926173,200.59295164391006 19.916945275414037,200.62982557965734 19.93119831077638,200.67196719406638 19.92644729895983,200.75098264514963 19.90744325183914,200.80365955751404 19.893190216447692,200.84580105570421 19.888439204660244,200.90374556969255 19.864684145723004,200.96169003041723 19.826676051394315,201.04597278727306 19.726904803828802,201.07757879204655 19.646137603383977,201.09338178848338 19.584374450118048,201.11972010708268 19.49410522612743,201.17239671124844 19.432342072861502,201.15132607485793 19.40383600210771,201.09864945307345 19.36582790777902,201.10918478096937 19.337321837054333,201.07231112569207 19.31831778990454,201.05124045585035 19.35632588423323,201.03543744883063 19.370578919595573,200.9880284040555 19.332570825266885,201.0196344378819 19.304064754542196,201.04597278727306 19.304064754542196,201.13552309295483 19.304064754542196,201.27774978750313 19.332570825266885,201.42524379842507 19.422840049257502,201.53586408008778 19.35157487244578,201.61487844813746 19.23755058948882,201.6780898712459 19.156783389073098,201.82558294532282 19.156783389073098,201.98887844615092 19.137779341894202,202.1153004788357 19.03800809432869,202.25752496251152 19.014253035391448,202.4208193443228 19.09502023580717,202.49983260299268 19.161534400860546,202.5893808430992 19.133028330135858,202.67892895597834 19.123526306531858,202.78427951415142 19.08551821220317,202.95284004096538 19.194791483372683,202.99498010224852 19.304064754542196,203.06345764174694 19.418089037499158,203.11086512551265 19.555868379364256,203.23201742202946 19.598627485480392,203.36370443676424 19.726904803828802,203.49012371207573 19.893190216447692,203.59020545856401 20.059475629066583,203.64287999816224 20.18300193559844,203.55860071368807 20.35878937182133,203.56913563041599 20.534576808015117,203.63234509377799 20.70086222066311,203.66921725146676 20.876649656886002,203.6955544937482 21.009677986992756,203.70608938758232 21.118951258133166,203.71662427964839 21.22822452930268,203.7534963880389 21.35650184765109,203.76929871361062 21.465775118762394,203.7903684748635 21.622558507835492,203.8167056665443 21.7603378497588,203.80617079119475 21.898117191623896,203.83250797625806 22.026394509943202,203.85884515032376 22.14992081647506,203.89571717552462 22.297202181944158,203.90625203590753 22.463487594592152,203.91151946544414 22.6155199718487,203.84831028202825 22.710540207655868,203.82724054012579 22.848319549520966,203.86938001686576 23.005102938594064,203.89044974467834 23.07636811543489,203.80090335285422 23.147633292275714,203.87464744948738 23.294914657744812,203.9536588858573 23.33767376386095,204.11168146149794 23.39468590533943,204.23283183456806 23.42794298788067,204.39612109943118 23.522963223658735,204.27497104018403 23.727256730606314,204.3171102176275 23.898293155041756,204.28023843889605 24.05507654408575,204.2012274118606 24.188104874192504,204.05900731363 24.37339433399029,204.07480956261134 24.482667605159804,204.17489038083295 24.653704029566143,204.22229702874756 24.862748548330273,204.22229702874756 24.967270807683235,204.17489038083295 25.10029913778999,204.1274836972807 25.24282949147164,204.05900731363 25.39486186875729,204.0116005429045 25.49938412811025,203.96419373654498 25.632412458217004,204.04847247877478 25.746436741144862,204.14328592909442 25.884216083068168,204.14855333881496 25.993489354208577,204.14855333881496 26.098011613590643,204.0906118076382 26.25004399084719,204.06954214671714 26.40207636813284,204.10114663543936 26.53985571002704,204.04847247877478 26.672884040133795,204.0010657001294 26.763153264124412,203.97999600930052 26.900932606018614,203.98526343268168 27.03396093615447,204.04847247877478 27.17649128983612,204.07480956261134 27.257258490251843,204.11168146149794 27.3807847967837,204.16435556535362 27.485307056136662,204.2907732350286 27.518564138677903,204.44352758098466 27.566074256552383,204.57521206490128 27.566074256552383,204.72796572164953 27.504311103286454,204.85964961142236 27.485307056136662,205.0229372527465 27.532817174011143,205.15988785161244 27.589829315518728,205.29157083921018 27.504311103286454,205.41798624853618 27.366531761421356,205.4653919616685 27.247756466676947,205.56547057236457 27.20974837234826,205.69715271283349 27.26200950203929,205.84463638360103 27.34752771424246,205.98685245368688 27.49005806792411,206.09219748396572 27.642090445180656,206.16593890041258 27.63733943339321,206.30288701645986 27.71810663380893,206.39769707640153 27.884392046456924,206.40823151869336 27.917649128998164,206.56098073428439 28.055428470892366,206.64525600518755 28.21696287172381,206.7400655502861 28.326236142893322,206.85067650605197 28.454513461183524,206.95075291786634 28.51152560269111,207.0982336563029 28.635051909222966,207.1983096752083 28.71106809785124,207.34578983459505 28.88210452228668,207.41952978492918 29.048389934934676,207.42479692093184 29.214675347524462,207.45639972775825 29.36195671299356,207.5301395487404" stroke="#4DD2FF" stroke-dasharray="none" stroke-linecap="round" stroke-linejoin="round" stroke-width="0.5"><title>2026-03-14 12.0km</title><desc>9223370263378906807</desc></polyline></svg>