<?xml version="1.0" encoding="utf-8" ?>
<svg baseProfile="full" height="300mm" version="1.1" viewBox="0,0,200,300" width="200mm" xmlns="http://www.w3.org/2000/svg" xmlns:ev="http://www.w3.org/2001/xml-events" xmlns:xlink="http://www.w3.org/1999/xlink"><defs /><rect fill="#222222" height="300" width="200" x="0" y="0" /><text fill="#FFFFFF" style="font-size:12px; font-family:Arial; font-weight:bold;" x="10" y="20">Over 10km Runs</text><text fill="#FFFFFF" style="font-size:4px; font-family:Arial" x="10" y="280">Runner</text><text fill="#FFFFFF" style="font-size:9px; font-family:Arial" x="10" y="290">yihong0618</text><text fill="#FFFFFF" style="font-size:4px; font-family:Arial" x="65" y="280">SPECIAL TRACKS</text><rect fill="yellow" height="2.6" width="2.6" x="65" y="283" /><text fill="#FFFFFF" style="font-size:3px; font-family:Arial" x="70" y="285.5">Over 20.0 km</text><rect fill="red" height="2.6" width="2.6" x="65" y="287" /><text fill="#FFFFFF" style="font-size:3px; font-family:Arial" x="70" y="289.5">Over 40.0 km</text><text fill="#FFFFFF" style="font-size:4px; font-family:Arial" x="120" y="280">STATISTICS</text><text fill="#FFFFFF" style="font-size:3px; font-family:Arial" x="120" y="285">Number: 1</text><text fill="#FFFFFF" style="font-size:3px; font-family:Arial" x="120" y="290">Weekly: 1.0</text><text fill="#FFFFFF" style="font-size:3px; font-family:Arial" x="141" y="285">Total: 12.0 km</text><text fill="#FFFFFF" style="font-size:3px; font-family:Arial" x="141" y="290">Avg: 12.0 km</text><text fill="#FFFFFF" style="font-size:3px; font-family:Arial" x="167" y="285">Min: 12.0 km</text><text fill="#FFFFFF" style="font-size:3px; font-family:Arial" x="167" y="290">Max: 12.0 km</text><polyline fill="none" opacity="1" points="28.383248284371803,206.8717456456252 28.26922400141484,206.74533322506977 28.235966918902704,206.72426446366808 28.136195671308087,206.68212691974986 28.055428470892366,206.62418775088372 27.903396093606716,206.61892055106728 27.83213091676589,206.50830925341143 27.884392046456924,206.4134994152555 27.770367763529066,206.3818961041834 27.64684145699721,206.38716332380864 27.613584374455968,206.22914654404667 27.60408235088107,206.10273283511196 27.49480907971156,206.0869311036804 27.390286820358597,206.03952588558604 27.309519619942876,205.93944808592278 27.238254443072947,205.84463739233615 27.152736230869778,205.73402473628812 27.157487242657226,205.5970754646769 27.257258490251843,205.44432400308142 27.395037832146045,205.42325480692307 27.532817174011143,205.32844333706453 27.561323244764935,205.19149318443306 27.475805032561766,205.12301799656052 27.471054020774318,204.98606739769457 27.442547950020526,204.8596511962278 27.532817174011143,204.73850209860393 27.537568185827695,204.60155066443986 27.570825268368935,204.48040107082852 27.475805032561766,204.38558818297315 27.46155199719942,204.23283378597625 27.366531761421356,204.13802052578103 27.214499384135706,204.09061384222878 27.22875241949805,204.10114866387084 27.252507478464395,204.10114866387084 27.22875241949805,204.1064160740425 27.224001407710603,204.11168348376304 27.22875241949805,204.10114866387084 27.219250395923154,204.1064160740425 27.214499384135706,204.11168348376304 27.214499384135706,204.1064160740425 27.185993313411018,204.09588125326627 27.138483195507433,203.93259130618753 27.157487242657226,203.84304502661325 27.185993313411018,203.74296374007463 27.257258490251843,203.6692195325304 27.338025690667564,203.6112775946458 27.399788843933493,203.54280069032393 27.509062115073903,203.4585213213395 27.60883336266852,203.36897436831714 27.699102586659137,203.30049720076568 27.72760865741293,203.21095002328002 27.680098539509345,203.12140271856333 27.58032729194383,203.058192779823 27.54707020940259,202.9265052038936 27.55182122119004,202.81588742748136 27.570825268368935,202.72107203605992 27.566074256552383,202.61045389914216 27.618335386243416,202.4840329335384 27.51381312686135,202.40501970125842 27.480556044349214,202.36287927022204 27.414041879295837,202.29440100969077 27.409290867537493,202.1416415450367 27.46155199719942,202.02048722361724 27.509062115073903,201.9098678571827 27.509062115073903,201.77817788213724 27.542319197615143,201.64648763193327 27.60883336266852,201.5358676091164 27.623086398059968,201.39890921666301 27.661094492359553,201.29355640455105 27.627837409818312,201.19347106993519 27.627837409818312,201.08285025203077 27.59933133906452,201.00910293222114 27.59933133906452,200.89848179072942 27.63258842160576,200.72464817608488 27.699102586659137,200.61929423690162 27.699102586659137,200.50867241121887 27.661094492359553,200.38751495077304 27.67059651593445,200.25582179479898 27.661094492359553,200.11886062068152 27.684849551296793,199.91868606154458 27.675347527721897,199.86600844031273 27.16698926623212,199.12851711956318 27.0862220658164,199.10744581213294 27.071969030454056,199.03369618070792 27.014956888975576,198.93887509920023 27.014956888975576,198.8914645049481 26.991201830038335,198.84932172455592 26.957944747497095,198.77557179105133 26.905683617835166,198.71235749361585 26.82966742917779,198.68601818430398 26.763153264124412,198.64914313278132 26.725145169824827,198.58592870854045 26.677635051921243,198.51217846677537 26.573112792539177,198.4331602548118 26.5065986274858,198.34360616145932 26.435333450644976,198.30146301467903 26.359317262016702,198.31726669803538 26.25004399084719,198.33833826965565 26.17402780224802,198.3646777242975 26.05525250750361,198.3646777242975 26.002991377812577,198.280391430726 25.96498328348389,198.1855692156969 25.922224177367752,198.12762223625396 25.82245292980224,198.11181850534922 25.717930670420174,198.12235432639864 25.71317965866183,198.0749431178083 25.71317965866183,198.0591393736795 25.71317965866183,198.06967520355101 25.69892662327038,198.0749431178083 25.684673587908037,198.08547894503135 25.670420552545693,198.08547894503135 25.69892662327038,198.08547894503135 25.689424599695485,198.09074685796804 25.679922576091485,198.0802110316472 25.69892662327038,198.0591393736795 25.694175611482933,198.0486035420763 25.622910434642108,197.9537809782414 25.608657399279764,197.88529792675035 25.570649304951075,197.79047511717727 25.542143234197283,197.76413542253067 25.513637163472595,197.7272598315285 25.44237198663177,197.69038421893129 25.38535984515329,197.6587765338336 25.304592644737568,197.66404448245157 25.27133556222543,197.65350858476813 25.257082526833983,197.6482406352734 25.195319373568054,197.67458037836332 25.128805208514677,197.7061880555375 25.071793067036197,197.74306365887242 25.01478092558682,197.73252777441667 24.967270807683235,197.76940336233747 24.886503607267514,197.8168148008117 24.829491465789033,197.87476206606516 24.78198134788545,197.8958337856675 24.734471229981864,197.90636964283112 24.663206053170143,197.9379772037355 24.606193911691662,197.96958474879284 24.51592468767194,198.01699603664747 24.42565546365222,198.0486035420763 24.354390286811395,198.14342596321148 24.268872074608225,198.22771243998068 24.169100827042712,198.22771243998068 24.121590709139127,198.21190873418163 24.017068449757062,198.21190873418163 23.94580327294534,198.21190873418163 23.97430934367003,198.19083712026986 23.964807320095133,198.1855692156969 23.983811367244925,198.19610502440628 23.94580327294534,198.21717663655363 23.888791131437756,198.16976549931132 23.82702797820093,198.13289014568363 23.784268872084795,198.15922968618906 23.698750659881625,198.15922968618906 23.65599155376549,198.09601477046454 23.56097131795832,198.15396177897492 23.484955129330046,198.064407288839 23.437445011455566,197.9853885153716 23.36142882279819,197.9590489022048 23.356677811039845,197.94324512901585 23.33767376386095,197.9327092780186 23.27591061059502,197.85369033940515 23.209396445541643,197.82208273622746 23.1951434101793,197.83788653980082 23.209396445541643,197.82735067118847 23.171388351242058,197.801010991956 23.180890374816954,197.71672394442066 23.1951434101793,197.64297268532755 23.16663733945461,197.5902931617129 23.11912722152192,197.5218097151701 23.100123174401233,197.47439805471004 23.057364068285096,197.41645042128584 23.043111032922752,197.3374308352395 23.009853950381512,197.23207123307293 23.005102938594064,197.0740314994655 22.924335738178343,197.01608349782327 22.886327643849654,196.92652739047116 22.829315502371173,196.8791152820886 22.80556044340483,196.82643511984134 22.76755234913435,196.72107466319721 22.701038184051868,196.63678617103142 22.68203413693118,196.5683016881303 22.66778110153973,196.55249756611738 22.6250219954527,196.54722952456723 22.644026042573387,196.55249756611738 22.644026042573387,196.56303364789346 22.63452401899849,196.55249756611738 22.644026042573387,196.55776560722006 22.644026042573387,196.54196148256233 22.68203413693118,196.51562126600038 22.69628717226442,196.47347689659 22.691536160506075,196.49981713077796 22.6155199718487,196.48401299157558 22.629773007211043,196.49454908481493 22.620270983636146,196.49454908481493 22.639275030815043,196.49981713077796 22.629773007211043,196.49981713077796 22.629773007211043,196.49454908481493 22.629773007211043,196.48401299157558 22.629773007211043,196.48928103841172 22.639275030815043,196.48401299157558 180.90973077600938,92.46996672378737 180.81471054023132,92.52801130197622 180.81471054023132,92.52801130197622 180.81471054023132,92.52801130197622 180.81471054023132,92.52801130197622 180.7244413162407,92.5860558263048 23.08587013903889,197.42698635857232 23.11912722152192,197.54288155278846 23.1951434101793,197.60082906994285 23.16663733945461,197.7061880555375 23.19039239839185,197.81154686495938 23.199894421966746,197.9221734252642 23.256906563445227,197.9959243575613 23.299665669561364,198.10128268253902 23.294914657744812,198.24878404156698 23.323420728498604,198.3541419437679 23.347175787435845,198.54378572380665 23.36617983461474,198.6912860470511 23.380432869977085,198.7808396463006 23.39468590533943,198.94414294080343 23.36617983461474,199.08637449768503 23.380432869977085,199.17592753546342 23.347175787435845,199.27074826030002 23.1951434101793,199.31815856919275 23.033609009347856,199.33396199758135 22.919584726390895,199.36556884243691 22.796058419859037,199.40771127760308 22.65827907793573,199.47619267463597 22.544254795007873,199.51833503581656 22.425479500263464,199.5499417882129 22.339961288060294,199.5973518870669 22.23068801689078,199.65002973287483 22.126165757508716,199.69743975644815 22.083406651421683,199.76065306573946 22.050149568909546,199.78699192589193 22.050149568909546,199.7817241547491 22.01689248639741,199.80806300607946 21.950378321344033,199.84493737947923 21.869611120899208,199.87127620441606 21.765088861546246,199.8818117312985 21.693823684676317,199.95556037021015 21.622558507835492,199.9871669033273 21.589301425294252,200.0609154189442 21.527538272057427,200.12412836364456 21.423016012646258,200.11359287726373 21.337497800472192,200.1030573891294 21.22347351751523,200.13466384827552 21.123702269949717,200.14519933112388 21.038184057717444,200.10832513341666 20.952665845514275,200.08725415360823 20.84339257434476,200.10832513341666 20.79113144465373,200.12412836364456 20.7293682913878,200.15573481221872 20.639099067397183,200.19260898219363 20.548829843406565,200.2189476618114 20.487066690140637,200.27689271824784 20.439556572237052,200.35590861843957 20.434805560449604,200.4349244195546 20.401548477937467,200.49286927741923 20.35878937182133,200.50867241121887 20.33028330106754,200.52974325013201 20.273271159589058,200.54027866692923 20.173499912023544,200.55081408198748 20.092732711607823,200.52447554106766 19.98345944043831,200.55081408198748 19.90744325183914,200.582420316583 19.93119831077638,200.62456193804974 19.93119831077638,200.69304201283376 19.92644729895983,200.7562543235108 19.893190216447692,200.8036635149183 19.878937181085348,200.84580498844662 19.869435157481348,200.89848179072942 19.85043111036066,200.97749691161516 19.76016188634094,201.05124426839757 19.655639626958873,201.04070893699463 19.593876473722048,201.06177959802153 19.513109273277223,201.11445621980602 19.432342072861502,201.11972387957212 19.41333802571171,201.08285025203077 19.370578919595573,201.06177959802153 19.361076896020677,201.05651193343147 19.31831778990454,201.01437060079843 19.35632588423323,200.98803225357187 19.370578919595573,200.94589087516215 19.38008094317047,200.96169389535862 19.327819813479437,200.99329992389903 19.280309695575852,201.05124426839757 19.332570825266885,201.1829357623028 19.313566778117092,201.3409651917791 19.39908499032026,201.45685318824326 19.38958296677447,201.5622057273904 19.26130564842606,201.60961431255782 19.185289459797787,201.75183985409603 19.142530353710754,201.92040304332113 19.171036424435442,202.0362899743959 19.06176315326593,202.17851455315758 19.009502023604,202.32600636995267 19.05701214147848,202.4734978416127 19.161534400860546,202.5314408253471 19.128277318319306,202.61045389914216 19.152032377256546,202.71053698375545 19.09502023580717,202.8632950697065 19.161534400860546,202.9423077275278 19.25655463663861,203.01605278545685 19.384831954957917,203.058192779823 19.517860285093775,203.1477401743432 19.574872426543152,203.29522972326595 19.69839873307501,203.41638159457943 19.855182122119004,203.52173085863615 20.011965511192102,203.5744054246352 20.140242829482304,203.56387051496858 20.320781277492642,203.51646339961007 20.47281365474919,203.59020778586273 20.648601091001183,203.62181249640344 20.810135491832625,203.64814974310138 20.981171916238964,203.6534171911153 21.071441140258685,203.6639520858298 21.175963399611646,203.72716141713317 21.3089917297184,203.72716141713317 21.442020059854258,203.73769629954768 21.57504838996101,203.77456837404316 21.71757874364266,203.76930093614283 21.850607073749416,203.78510324849776 21.974133380281273,203.82724272877022 22.111912722175475,203.85357988962642 22.26394509943202,203.8641147508897 22.430230512050912,203.87464961039223 22.572760865732562,203.82724272877022 22.69628717226442,203.77456837404316 22.800809431646485,203.82197529527184 22.952841808932135,203.8641147508897 23.057364068285096,203.79037068507387 23.13338025691337,203.79563812120614 23.233151504478883,203.87464961039223 23.36142882279819,204.02213745857807 23.3329227520735,204.17489236612892 23.41844096427667,204.29604254686637 23.480204117571702,204.26443817433756 23.670244589156937,204.2486359821305 23.836530001746723,204.2381011851321 24.012317437998718,204.201229381757 24.150096779863816,204.08007901880046 24.31638219251181,204.00106778709232 24.444659510802012,204.09588125326627 24.582438852725318,204.18542717369564 24.81523843042669,204.18542717369564 24.9245117015671,204.15909015149373 25.057540031673852,204.11168348376304 25.195319373568054,204.02740487534174 25.3568537744286,204.00633520563133 25.475629069143906,203.90098675144327 25.594404363888316,203.9799981085962 25.72268168220762,204.06954419362955 25.836705965164583,204.10114866387084 25.96498328348389,204.12221830189083 26.05525250750361,204.06427678038744 26.202533872972708,204.02213745857807 26.36406827380415,204.05374195258628 26.497096603910904,204.02213745857807 26.63012493401766,203.9799981085962 26.725145169824827,203.94839357762976 26.843920464569237,203.92732388149307 26.995952841825783,204.00106778709232 27.133732183719985,204.03267229166522 27.195495336985914,204.0484745380163 27.342776702455012,204.10114866387084 27.456800985411974,204.21176418491086 27.485307056136662,204.35925124437927 27.58507830373128,204.48040107082852 27.566074256552383,204.63842223367465 27.518564138677903,204.77537358774498 27.509062115073903,204.94392869203148 27.471054020774318,205.09141403861577 27.594580327306176,205.20729514031336 27.54707020940259,205.3337106446852 27.414041879295837,205.42852210661658 27.281013549189083,205.481195079421 27.22875241949805,205.6023427498476 27.2335034312855,205.7708956432034 27.333274678880116,205.9025772775858 27.437796938233078,206.04479313380216 27.594580327306176,206.09746559173436 27.651592468784656,206.21861207798065 27.67059651593445,206.35029277728609 27.841632940340787,206.3608272213496 27.89864508184837,206.4767059898586 28.01266936477623,206.582050140074 28.183705789211672,206.6768597247792 28.302481083926978,206.77693635396645 28.42600739048794,206.87701282431226 28.487770543753868,207.02449364897984 28.606545838469174,207.11930256838968 28.687313038884895,207.27204997203808 28.834594404353993,207.38265992987726 28.99612880521454,207.38792706587992 29.167165229620878,207.4037284712831 29.300193559756735,207.451132663693 29.475980995979626,207.50907107268722 29.618511349632172,207.56700942842872" stroke="#4DD2FF" stroke-dasharray="none" stroke-linecap="round" stroke-linejoin="round" stroke-width="0.5"><title>2026-03-14 12.0km</title><desc>9223370263378906807</desc></polyline></svg>