<?xml version="1.0" encoding="utf-8" ?>
<svg baseProfile="full" height="300mm" version="1.1" viewBox="0,0,200,300" width="200mm" xmlns="http://www.w3.org/2000/svg" xmlns:ev="http://www.w3.org/2001/xml-events" xmlns:xlink="http://www.w3.org/1999/xlink"><defs /><rect fill="#222222" height="300" width="200" x="0" y="0" /><text fill="#FFFFFF" style="font-size:12px; font-family:Arial; font-weight:bold;" x="10" y="20">Over 10km Runs</text><text fill="#FFFFFF" style="font-size:4px; font-family:Arial" x="10" y="280">Runner</text><text fill="#FFFFFF" style="font-size:9px; font-family:Arial" x="10" y="290">yihong0618</text><text fill="#FFFFFF" style="font-size:4px; font-family:Arial" x="65" y="280">SPECIAL TRACKS</text><rect fill="yellow" height="2.6" width="2.6" x="65" y="283" /><text fill="#FFFFFF" style="font-size:3px; font-family:Arial" x="70" y="285.5">Over 20.0 km</text><rect fill="red" height="2.6" width="2.6" x="65" y="287" /><text fill="#FFFFFF" style="font-size:3px; font-family:Arial" x="70" y="289.5">Over 40.0 km</text><text fill="#FFFFFF" style="font-size:4px; font-family:Arial" x="120" y="280">STATISTICS</text><text fill="#FFFFFF" style="font-size:3px; font-family:Arial" x="120" y="285">Number: 1</text><text fill="#FFFFFF" style="font-size:3px; font-family:Arial" x="120" y="290">Weekly: 1.0</text><text fill="#FFFFFF" style="font-size:3px; font-family:Arial" x="141" y="285">Total: 12.0 km</text><text fill="#FFFFFF" style="font-size:3px; font-family:Arial" x="141" y="290">Avg: 12.0 km</text><text fill="#FFFFFF" style="font-size:3px; font-family:Arial" x="167" y="285">Min: 12.0 km</text><text fill="#FFFFFF" style="font-size:3px; font-family:Arial" x="167" y="290">Max: 12.0 km</text><polyline fill="none" opacity="1" points="30.620974837220274,207.27205245433288 30.497448530746624,207.27731957231663 30.373922224214766,207.27731957231663 30.21238782335422,207.29312092359396 30.084110505034914,207.3563262890675 29.94633116311161,207.37212762055424 29.827555868396303,207.28785380693807 29.66127045574831,207.25625109778775 29.56625021994114,207.19831275654724 29.404715819109697,207.19304563198602 29.26218546545715,207.12457297252695 29.129157135321293,207.06136737471388 28.986626781639643,207.05610023871122 28.84884743974544,207.0929701815403 28.658806968160206,207.00342885440477 28.573288755957037,206.85068159112416 28.5305296498409,206.78220855988548 28.41650536688394,206.65052944463605 28.373746260767803,206.53991877531735 28.264472989627393,206.4135063442227 28.21696287172381,206.37136881085098 28.09343656519195,206.33449844606366 27.969910258660093,206.29236085990124 27.87013901109458,206.19755118806643 27.884392046456924,206.09747415759557 27.765616751712514,206.05533641301736 27.618335386243416,206.05006919296284 27.623086398059968,205.85518174173194 27.55182122119004,205.7656386567578 27.42829491465818,205.73930243108407 27.328523667092668,205.63395741841668 27.247756466676947,205.5286122297257 27.152736230869778,205.40746504512208 27.162238254473777,205.25471391532847 27.319021643488668,205.11776431191538 27.456800985411974,205.08616051503122 27.566074256552383,204.91760666410482 27.51381312686135,204.81752760190284 27.46155199719942,204.6858443832607 27.447298961837078,204.54362619818858 27.532817174011143,204.40140769229038 27.55182122119004,204.24865412488725 27.542319197615143,204.10643495355544 27.49005806792411,203.97475024959203 27.399788843933493,203.84306527052468 27.252507478464395,203.74825191527998 27.22875241949805,203.7745889727048 27.252507478464395,203.7745889727048 27.214499384135706,203.77985638287646 27.224001407710603,203.77985638287646 27.219250395923154,203.77985638287646 27.20974837234826,203.785123792597 27.214499384135706,203.79039120187372 27.214499384135706,203.785123792597 27.138483195507433,203.6060316150215 27.152736230869778,203.50068303760418 27.20499736056081,203.3953342841196 27.276262537401635,203.31632260347033 27.35227872602991,203.25311318765307 27.471054020774318,203.1741013287574 27.589829315518728,203.06348455989428 27.694351574900793,202.97393750959964 27.722857645596378,202.8791228471091 27.656343480543,202.78430804201344 27.570825268368935,202.68422559302417 27.532817174011143,202.53146786450816 27.566074256552383,202.4261174912208 27.566074256552383,202.32076694184798 27.613584374455968,202.16274078766583 27.504311103286454,202.07846001009239 27.475805032561766,202.01524935296766 27.390286820358597,201.92043324842234 27.42829491465818,201.7360681924074 27.49956009152811,201.64125166787926 27.49956009152811,201.48849141172468 27.537568185827695,201.33046317089975 27.60883336266852,201.20930791795035 27.623086398059968,201.05654661489461 27.656343480543,200.93012318753244 27.618335386243416,200.8195024805791 27.60883336266852,200.70361391265396 27.594580327306176,200.6087958349708 27.59933133906452,200.42969463234476 27.699102586659137,200.3032699475989 27.699102586659137,200.17684500921678 27.656343480543,200.03461665041687 27.67059651593445,199.88185250012975 27.67059651593445,199.71855248170323 27.67059651593445,199.5499842769059 27.181242301594466,198.79142177555332 27.0957240894204,198.77561829302067 27.067218018637504,198.69133298586894 27.02920992433792,198.60177972350357 27.00545486540068,198.56490481378205 26.981699806434335,198.485887077426 26.905683617835166,198.4279406744463 26.848671476356685,198.3699942181811 26.786908323090756,198.3067798415068 26.725145169824827,198.2593690173744 26.672884040133795,198.18561877560933 26.54460672181449,198.0855290237123 26.468590533186216,197.98017121840167 26.40207636813284,197.98017121840167 26.292803096963326,198.00651068624575 26.188280837610364,198.03811803313147 26.064754531078506,198.03811803313147 25.998240365996026,197.94856384246305 25.950730248121545,197.84847371405704 25.888967094855616,197.779990903 25.765440788323758,197.80106254508792 25.69892662327038,197.764187166802 25.708428646845277,197.73257968251346 25.727432694024174,197.74311551238497 25.69892662327038,197.74838342664225 25.684673587908037,197.7694550792985 25.67517156433314,197.7694550792985 25.679922576091485,197.77472299137298 25.679922576091485,197.75891925386532 25.694175611482933,197.73784759767295 25.69892662327038,197.73784759767295 25.622910434642108,197.62722128707537 25.608657399279764,197.5534703054509 25.565898293163627,197.45337954947172 25.53739222243894,197.43230779110672 25.470878057385562,197.39543219701955 25.40911490409053,197.34275273945605 25.323596691916464,197.3532886345056 25.280837585800327,197.3269488936021 25.266584550437983,197.3164129941615 25.176315326418262,197.36382452776525 25.105050149577437,197.39543219701955 25.043286996311508,197.41123602569496 24.97677283125813,197.43230779110672 24.910258666204754,197.47971923751174 24.83424247757648,197.5376665124495 24.777230336098,197.5745420232961 24.72021819461952,197.59034580705338 24.653704029566143,197.60614958685255 24.563434805575525,197.66409674551687 24.463663557980908,197.6957042641552 24.37339433399029,197.7957946352326 24.28787612178712,197.8958848473303 24.169100827042712,197.90115274881464 24.102586661989335,197.90115274881464 24.002815414394718,197.8853490430156 23.95055428473279,197.87481323692919 23.964807320095133,197.85900952453085 23.964807320095133,197.88008114018885 23.94580327294534,197.8853490430156 23.893542143225204,197.84847371405704 23.822276966413483,197.8063304545176 23.770015836693347,197.83793790179698 23.684497624490177,197.7957946352326 23.598979412287008,197.7957946352326 23.518212211871287,197.77472299137298 23.437445011455566,197.6746325868371 23.36617983461474,197.63775713455834 23.347175787435845,197.6219533626827 23.3329227520735,197.59034580705338 23.266408587020123,197.51132684863478 23.1951434101793,197.50605891455416 23.1951434101793,197.51132684863478 23.180890374816954,197.48498717379334 23.180890374816954,197.40070014036246 23.1951434101793,197.3164129941615 23.161886327638058,197.25846551576615 23.114376209763577,197.1847141025246 23.08587013903889,197.1056946354256 23.05261305649765,197.04774696322784 23.019355973956408,196.9476554039138 23.005102938594064,196.863367651702 22.92908674996579,196.68952380665723 22.886327643849654,196.58416366713936 22.81031145522138,196.53675154687517 22.81031145522138,196.45773126717177 22.734295266593108,196.35763877058707 22.677283125114627,196.27335022908665 22.65827907793573,196.2154017913963 22.6250219954527,196.2206698334012 22.644026042573387,196.23120591605402 22.64877705438994,196.23120591605402 22.629773007211043,196.2206698334012 22.639275030815043,196.2206698334012 22.65827907793573,196.2206698334012 22.70578919586842,196.1416491572636 22.691536160506075,196.1679893936489 22.6155199718487,196.15745330040954 22.6250219954527,196.17325743961192 22.620270983636146,196.18379353020282 22.6250219954527,196.17325743961192 22.6250219954527,196.17325743961192 22.629773007211043,196.16272134724568 22.63452401899849,196.16272134724568 22.639275030815043,196.15218525314413 180.90973077600938,92.14340703262133 180.81471054023132,92.20145161081018 180.81471054023132,92.20145161081018 180.81471054023132,92.20145161081018 180.7244413162407,92.25949613513876 180.62942108043353,92.31754060560706 23.128629245155025,197.1741781792989 23.1951434101793,197.2742693787768 23.16663733945461,197.40596808325063 23.185641386604402,197.5271306482391 23.223649480903987,197.63248921103877 23.280661622382468,197.73257968251346 23.294914657744812,197.88008114018885 23.318669716682052,198.0117785784896 23.347175787435845,198.2172260326406 23.375681858189637,198.38052994148165 23.39468590533943,198.49642278131796 23.380432869977085,198.67552947822332 23.37093084640219,198.81776090430503 23.37093084640219,198.90731385976324 23.209396445541643,198.99686668793584 23.0383600211062,199.00740230641532 22.905331690999446,199.03374134489786 22.76755234913435,199.09168719080844 22.61076896006125,199.14963298346993 22.47298961816705,199.20757872283866 22.373218370601535,199.2444532565096 22.26394509943202,199.30239890867233 22.130916769296164,199.3708800652821 22.078655639634235,199.4393611474843 22.050149568909546,199.4604322347259 22.050149568909546,199.4657000054358 21.99313742740196,199.51310992200888 21.91237022698624,199.5394487491467 21.788843920483487,199.5499842769059 21.698574696463766,199.61846516447986 21.622558507835492,199.66060721216127 21.584550413506804,199.7501589699059 21.489530177757842,199.80810415710948 21.389758930163225,199.7712299532286 21.261481611814816,199.79756867247852 21.161710364249302,199.81337189875558 21.052437093108892,199.79230092951548 20.952665845514275,199.7606944624422 20.84339257434476,199.7870331860977 20.77212739753304,199.80283641501592 20.691360197088216,199.8607815537689 20.591588949522702,199.87658476420256 20.496568713715533,199.91345890642697 20.4443075840245,200.00301030488117 20.430054548662156,200.10836472838855 20.401548477937467,200.1663095862532 20.35878937182133,200.19791584990162 20.320781277492642,200.2137189757632 20.230512053502025,200.2295220976921 20.125989794149064,200.20845126758286 20.00721449937555,200.22425439082144 19.90744325183914,200.25586062541697 19.93119831077638,200.2980022468837 19.92644729895983,200.37701771118736 19.916945275414037,200.4349623220296 19.89794122823514,200.4929068796191 19.893190216447692,200.54558370392624 19.864684145723004,200.6298665312206 19.783916945249075,200.72995224226543 19.665141650562873,200.7141492458286 19.589125461905496,200.74048757102355 19.49410522612743,200.7984318477138 19.427591061074054,200.78262886844823 19.38958296677447,200.7352199068555 19.36582790777902,200.7352199068555 19.327819813479437,200.69307857774402 19.35632588423323,200.67200790261268 19.370578919595573,200.6193311839961 19.35632588423323,200.65093722044912 19.304064754542196,200.6825432410551 19.308815766329644,200.78262886844823 19.304064754542196,200.9564614224946 19.37532993138302,201.1039553347764 19.408587013895158,201.23037841344194 19.26130564842606,201.28305462139178 19.17578743622289,201.43054776942517 19.156783389073098,201.62018130973956 19.128277318319306,201.76767366888453 19.014253035391448,201.92570081352096 19.014253035391448,202.13113550927665 19.133028330135858,202.16800833251546 19.133028330135858,202.27335913719435 19.137779341894202,202.39977987038583 19.080767200444825,202.5788754750356 19.194791483372683,202.636818061721 19.31831778990454,202.70002809552898 19.46559915537364,202.76850556061981 19.560619391180808,202.9423326379474 19.684145697712665,203.07401949862833 19.864684145723004,203.20570608419803 20.040471581945894,203.2636480946967 20.18300193559844,203.1951711674701 20.38254443075857,203.2162409991579 20.582086925947806,203.2741829999759 20.77212739753304,203.3110551545833 20.96691888087662,203.33212494753025 21.071441140258685,203.33739239466377 21.19496744676144,203.40060172596714 21.351750835834537,203.40586916739267 21.48477916594129,203.43747380663626 21.636811543197837,203.45327612032634 21.817349991208175,203.44800868287712 21.955129333102377,203.5059504706478 22.09765968681313,203.5217527671739 22.26394509943202,203.53755505972367 22.444483547413256,203.5480899192262 22.620270983636146,203.47961330100225 22.734295266593108,203.45854355733172 22.900580679212,203.51648533544721 23.033609009347856,203.4848807358103 23.128629245155025,203.45854355733172 23.24740453987033,203.54282248968957 23.347175787435845,203.73244967554274 23.39468590533943,203.8694022883501 23.437445011455566,204.01688938478037 23.579975365108112,203.88520449374482 23.779517860297346,203.9431458796971 23.988562379032373,203.87993709238435 24.150096779863816,203.75351932763442 24.335386239661602,203.69031035019725 24.477916593372356,203.80092601913566 24.667957064928487,203.86413488566177 24.877001583692618,203.86413488566177 25.00527890198282,203.80092601913566 25.162062291055918,203.72191484685027 25.347351750853704,203.68504293255683 25.485131092747906,203.5796944871763 25.608657399279764,203.67450809592629 25.76068977653631,203.785123792597 25.898469118430512,203.80092601913566 26.02199542496237,203.76405415106274 26.16452577864402,203.71138001639338 26.349815238441806,203.72191484685027 26.5065986274858,203.69031035019725 26.668133028317243,203.64290357552818 26.763153264124412,203.61656646308256 26.905683617835166,203.62183388646372 27.067218018637504,203.7008451841757 27.185993313411018,203.73244967554274 27.333274678880116,203.76405415106274 27.456800985411974,203.88520449374482 27.49005806792411,204.0642958782155 27.58032729194383,204.2012477700955 27.566074256552383,204.38033825673847 27.509062115073903,204.5488935440917 27.466303008957766,204.71744838082304 27.594580327306176,204.8596661737647 27.54707020940259,205.0018836458985 27.395037832146045,205.10196241545054 27.257258490251843,205.18097185814986 27.20499736056081,205.33899044650389 27.29051557276398,205.5075431708574 27.3807847967837,205.68136269590468 27.561323244764935,205.7551041678089 27.656343480543,205.88678515312859 27.675347527721897,206.02900030836463 27.874890022882028,206.03426753018357 27.917649128998164,206.19755118806643 28.083934541617054,206.30289525908302 28.259721977839945,206.39770477250204 28.378497272584355,206.51358287307812 28.487770543753868,206.66633095299767 28.606545838469174,206.79274287722365 28.692064050701447,206.95602457091445 28.87735351047013,207.06136737471388 29.062642970267916,207.06136737471388 29.243181418278255,207.09823731446522 29.41896885447204,207.18251138152118 29.580503255332587,207.24044973726268 29.765792715130374,207.27731957231663 29.91782509238692,207.36159340001177 30.084110505034914,207.36159340001177 30.24089389407891,207.3089222708877 30.421432342089247,207.28258668983835 30.61147281367448,207.27205245433288 30.75875417914358,207.28258668983835 30.90128453282523,207.24571685789124 31.04856589832343,207.18777850698098 31.18634524018853,207.17197712930283 31.30512053493294,207.27205245433288 31.452401900402037,207.31418938579372 31.547422136209207,207.3931960563641 31.575928206933895,207.5354078139244 31.661446419166168,207.6776192507641 31.770719690306578,207.7776937732997 31.841984867147403,207.90937053467133 31.90849903220078,207.90410346949284 31.979764209041605,207.84616572353116" stroke="#4DD2FF" stroke-dasharray="none" stroke-linecap="round" stroke-linejoin="round" stroke-width="0.5"><title>2026-03-14 12.0km</title><desc>9223370263378906807</desc></polyline></svg>