<?xml version="1.0" encoding="utf-8" ?>
<svg baseProfile="full" height="300mm" version="1.1" viewBox="0,0,200,300" width="200mm" xmlns="http://www.w3.org/2000/svg" xmlns:ev="http://www.w3.org/2001/xml-events" xmlns:xlink="http://www.w3.org/1999/xlink"><defs /><rect fill="#222222" height="300" width="200" x="0" y="0" /><text fill="#FFFFFF" style="font-size:12px; font-family:Arial; font-weight:bold;" x="10" y="20">Over 10km Runs</text><text fill="#FFFFFF" style="font-size:4px; font-family:Arial" x="10" y="280">Runner</text><text fill="#FFFFFF" style="font-size:9px; font-family:Arial" x="10" y="290">yihong0618</text><text fill="#FFFFFF" style="font-size:4px; font-family:Arial" x="65" y="280">SPECIAL TRACKS</text><rect fill="yellow" height="2.6" width="2.6" x="65" y="283" /><text fill="#FFFFFF" style="font-size:3px; font-family:Arial" x="70" y="285.5">Over 20.0 km</text><rect fill="red" height="2.6" width="2.6" x="65" y="287" /><text fill="#FFFFFF" style="font-size:3px; font-family:Arial" x="70" y="289.5">Over 40.0 km</text><text fill="#FFFFFF" style="font-size:4px; font-family:Arial" x="120" y="280">STATISTICS</text><text fill="#FFFFFF" style="font-size:3px; font-family:Arial" x="120" y="285">Number: 1</text><text fill="#FFFFFF" style="font-size:3px; font-family:Arial" x="120" y="290">Weekly: 1.0</text><text fill="#FFFFFF" style="font-size:3px; font-family:Arial" x="141" y="285">Total: 12.0 km</text><text fill="#FFFFFF" style="font-size:3px; font-family:Arial" x="141" y="290">Avg: 12.0 km</text><text fill="#FFFFFF" style="font-size:3px; font-family:Arial" x="167" y="285">Min: 12.0 km</text><text fill="#FFFFFF" style="font-size:3px; font-family:Arial" x="167" y="290">Max: 12.0 km</text><polyline fill="none" opacity="1" points="31.40014077074011,207.22728333702253 31.30036952314549,207.232550448829 31.224353334517218,207.13774236890822 31.110329051560257,207.06400265264165 31.001055780419847,207.12194100838315 30.87752947388799,207.15354372545335 30.768256202718476,207.19041354200817 30.66373394333641,207.16934507805854 30.549709660408553,207.15354372545335 30.4166813303018,207.15354372545335 30.264648953045253,207.17461219471443 30.112616575759603,207.2114819989547 29.970086222077953,207.25888600128383 29.846559915546095,207.18514642669106 29.675523491110653,207.14300948820528 29.571001231728587,207.085071151796 29.409466830897145,207.06926977810144 29.26218546545715,207.00606424364742 29.124406123533845,206.94285864583435 28.9723737462773,206.9375915098317 28.82034136899165,206.96392718549032 28.64930494458531,206.89018726594077 28.56853774416959,206.7163714001108 28.521027626266005,206.6478983517045 28.430758402246283,206.4846161669666 28.326236142893322,206.4056085064185 28.24071793066105,206.2791960436225 28.159950730245328,206.24232569422747 28.055428470892366,206.17911933083815 27.89864508184837,206.15278332739035 27.851134963944787,206.0263703576893 27.83213091676589,205.91575880130404 27.684849551296793,205.95262934166385 27.60883336266852,205.81568151163447 27.594580327306176,205.6523971716888 27.471054020774318,205.63132819378734 27.34752771424246,205.54705221181575 27.276262537401635,205.4311725526677 27.157487242657226,205.31529268052327 27.157487242657226,205.15200704463132 27.300017596338876,204.99925558303585 27.452049973624526,204.97291908674015 27.566074256552383,204.7990979352253 27.504311103286454,204.6990188730233 27.466303008957766,204.55680098502125 27.437796938233078,204.39878073316504 27.532817174011143,204.26182952785894 27.566074256552383,204.1038085366381 27.504311103286454,203.97739145848027 27.480556044349214,203.80356756208494 27.366531761421356,203.69295210573546 27.219250395923154,203.6508128332207 27.224001407710603,203.6508128332207 27.2430054548895,203.65608024382527 27.219250395923154,203.66134765399693 27.22875241949805,203.65608024382527 27.214499384135706,203.67188247299418 27.214499384135706,203.67188247299418 27.214499384135706,203.66661506371747 27.12423016014509,203.5401971088395 27.14798521908233,203.41377890042713 27.185993313411018,203.29789532002906 27.26676051382674,203.2136162186507 27.338025690667564,203.15567427109636 27.46155199719942,203.06612752010915 27.58032729194383,202.96604570671843 27.694351574900793,202.8554287807201 27.722857645596378,202.76061411822957 27.64684145699721,202.6605318197835 27.566074256552383,202.55518186026893 27.537568185827695,202.4024241062216 27.566074256552383,202.28653866656168 27.566074256552383,202.16538547909659 27.618335386243416,202.02316187495308 27.485307056136662,201.94941617610675 27.456800985411974,201.8809379499071 27.390286820358597,201.75451641378095 27.456800985411974,201.57541880357167 27.504311103286454,201.44899665466073 27.504311103286454,201.2909686119565 27.58507830373128,201.1382077940507 27.627837409818312,201.00124950459576 27.651592468784656,200.8800938466229 27.627837409818312,200.7484026498896 27.63258842160576,200.62197884214402 27.594580327306176,200.51662547531305 27.589829315518728,200.36386278060672 27.684849551296793,200.21636741367183 27.694351574900793,200.0741394115139 27.656343480543,199.9319110883771 27.675347527721897,199.77914697637607 27.67059651593445,199.60531150194947 27.67059651593445,199.43147554802636 27.181242301594466,198.67291304667378 27.0862220658164,198.66237739208736 27.06246700687916,198.56228858567192 27.02445891255047,198.47800315171116 27.00070385361323,198.435860392452 26.96744677107199,198.35157478937617 26.905683617835166,198.28836051309554 26.820165405602893,198.23041403746902 26.763153264124412,198.18827111262726 26.701390110887587,198.10398517839712 26.62537392223021,198.02496701267228 26.511349639302352,197.924877193851 26.435333450644976,197.85639459463346 26.335562203079462,197.88273406469307 26.22628893190995,197.90380563278813 26.112264648952987,197.924877193851 26.01724441317492,197.86166248952213 25.974485307058785,197.7510366043607 25.917473165609408,197.67728590635306 25.79394685907755,197.66675008530365 25.69892662327038,197.65621426249345 25.71317965866183,197.61407095363393 25.732183705782518,197.62460678350544 25.69892662327038,197.62987469776272 25.684673587908037,197.65094635041896 25.67517156433314,197.65094635041896 25.67517156433314,197.66148217412047 25.684673587908037,197.64567843792247 25.69892662327038,197.61407095363393 25.694175611482933,197.60353512203073 25.622910434642108,197.47183707817385 25.603906387492316,197.3980860533884 25.56114728137618,197.32960288166214 25.523139187076595,197.29799523882684 25.44237198663177,197.2453157988857 25.366355798003497,197.23477990562606 25.290339609375224,197.20317221522782 25.257082526833983,197.218976062406 25.214323420717847,197.21370811378802 25.133556220302125,197.25585169039914 25.06704205524875,197.3032631804017 24.98152384304558,197.29799523882684 24.934013725141995,197.3454066971317 24.848495512938825,197.40335398659226 24.78198134788545,197.45076536562192 24.734471229981864,197.46130122278555 24.65845504135359,197.49290878368993 24.577687840966973,197.54032009532602 24.463663557980908,197.57719553527568 24.37339433399029,197.67728590635306 24.278374098212225,197.77737611845077 24.159598803467816,197.7826440199351 24.08358261481044,197.77737611845077 23.988562379032373,197.77210821650806 23.96005630827858,197.7510366043607 23.964807320095133,197.74050079565131 23.983811367244925,197.7510366043607 23.94105226112879,197.77737611845077 23.874538096104516,197.7036254512641 23.79852190744714,197.68782172563806 23.722505718818866,197.74050079565131 23.65599155376549,197.66148217412047 23.54671828262508,197.7036254512641 23.47545310575515,197.59299928864857 23.408938940701773,197.52978425139372 23.356677811039845,197.49817670897028 23.3329227520735,197.49290878368993 23.27591061059502,197.40862191935958 23.199894421966746,197.3822822511429 23.199894421966746,197.38755018567463 23.185641386604402,197.3664784449138 23.176139363029506,197.29799523882684 23.204645433754195,197.20317221522782 23.16663733945461,197.14522474166733 23.114376209763577,197.06620537364506 23.08587013903889,196.98718590654607 23.05261305649765,196.92397026150138 23.009853950381512,196.80807474754693 23.005102938594064,196.62896307941992 22.919584726390895,196.5499430639793 22.881576632062206,196.4603869266648 22.81031145522138,196.4077067864455 22.78180538446759,196.30234637384274 22.710540207655868,196.20225381867567 22.68203413693118,196.1179652278479 22.653528066177387,196.10216110452166 22.6250219954527,196.1126971871745 22.644026042573387,196.1126971871745 22.63452401899849,196.1074291460718 22.644026042573387,196.1126971871745 22.64877705438994,196.10216110452166 22.686785148689523,196.03894457153 22.691536160506075,196.02840847654443 22.620270983636146,196.02840847654443 22.629773007211043,196.04948066476936 22.620270983636146,196.06001675624793 22.6250219954527,196.05474871073238 22.6250219954527,196.04948066476936 22.629773007211043,196.04421261836615 22.63452401899849,196.04421261836615 22.639275030815043,196.03894457153 180.90973077600938,92.0248983037418 180.81471054023132,92.08294288193065 180.81471054023132,92.08294288193065 180.81471054023132,92.08294288193065 180.7244413162407,92.14098740625923 23.090621150826337,196.98718590654607 23.138131268700818,197.11888496332904 23.185641386604402,197.20317221522782 23.171388351242058,197.32960288166214 23.1951434101793,197.46130122278555 23.256906563445227,197.55085593751573 23.309167693107156,197.68255381620838 23.304416681348812,197.84585880353188 23.3329227520735,198.02496701267228 23.351926799223293,198.20407471273575 23.380432869977085,198.33577122625502 23.385183881764533,198.50961020266186 23.36617983461474,198.66764521960795 23.37093084640219,198.76773385868728 23.25215555165778,198.86782233879785 23.057364068285096,198.88889357753578 22.919584726390895,198.92050042239134 22.772303360921796,198.9731784619289 22.61076896006125,199.0311242545904 22.4682386063796,199.08906999395913 22.363716346997535,199.13121231638434 22.240190040465677,199.1996935302377 22.126165757508716,199.25237133640258 22.078655639634235,199.32612019106455 22.050149568909546,199.34192350584635 22.031145521759754,199.34719127655626 21.96938236846472,199.40513672530142 21.869611120899208,199.4262077843705 21.755586837942246,199.45254659828424 21.65581559034763,199.52629521870767 21.60830547247315,199.57897275187497 21.546542319178116,199.679059943599 21.423016012646258,199.66852445721815 21.327995776897296,199.65798896908382 21.20446947036544,199.68959542822995 21.08094316383358,199.69486316987604 20.981171916238964,199.63691798751825 20.87189864506945,199.65798896908382 20.79113144465373,199.679059943599 20.710364244238008,199.7264696105267 20.601090973068494,199.75280829895928 20.50131972550298,199.78968244427233 20.4443075840245,199.88450157600164 20.430054548662156,199.98985599950902 20.396797466120915,200.05306856906827 20.35403836000478,200.0794071210221 20.311279253917746,200.08994253870333 20.21625901813968,200.11101336881256 20.111736758757615,200.08467483008644 19.98345944043831,200.1057456619419 19.912194263597485,200.14261960076692 19.93119831077638,200.1900289189689 19.92644729895983,200.30065052275313 19.89794122823514,200.34279203501865 19.883688192843692,200.39546888576297 19.864684145723004,200.45868104848705 19.826676051394315,200.55349917373314 19.712651768437354,200.58510518377443 19.603378497296944,200.62724650587188 19.532113320427015,200.65358481785734 19.432342072861502,200.67465545952655 19.41333802571171,200.62724650587188 19.370578919595573,200.62724650587188 19.34207284884178,200.56930218075286 19.308815766329644,200.55349917373314 19.361076896020677,200.49555478082402 19.37532993138302,200.5271608199182 19.31831778990454,200.55349917373314 19.308815766329644,200.6641201395687 19.299313742725644,200.84848798450548 19.38008094317047,200.99071423924397 19.38958296677447,201.11713730734482 19.251803624851163,201.1803487463003 19.156783389073098,201.3489122736246 19.17578743622289,201.5280105274469 19.08551821220317,201.69130555064476 19.004751011787448,201.87040283158058 19.071265176840825,202.0178943278952 19.161534400860546,202.10744256800172 19.152032377256546,202.21279327583397 19.11877529474441,202.34974893278923 19.133028330135858,202.49197180004558 19.25655463663861,202.57098436541128 19.408587013895158,202.62892685041516 19.555868379364256,202.75534663280996 19.622382544446737,202.9081035315976 19.802920992457075,203.04505767787123 20.002463487617206,203.12933700458962 20.154495864873752,203.10299972709254 20.35878937182133,203.0871973553185 20.548829843406565,203.15567427109636 20.748372338537592,203.19254642570377 20.96216786908917,203.21888366578423 21.071441140258685,203.21888366578423 21.20446947036544,203.27682555524007 21.35650184765109,203.28736043851313 21.499032201303635,203.31896507775673 21.65581559034763,203.3347673914468 21.836354038357968,203.3347673914468 21.988386415643618,203.37163944129497 22.140418792900164,203.41377890042713 22.316206229123054,203.42431376081004 22.53000175964553,203.42431376081004 22.67253211332718,203.3400348284522 22.800809431646485,203.37690687522627 22.971845856052823,203.41377890042713 23.081119127222337,203.31369763898692 23.16663733945461,203.41377890042713 23.33767376386095,203.529662267807 23.3329227520735,203.7192891367631 23.42319197609322,203.8562415207125 23.51346120008384,203.79830016379856 23.746260777756106,203.84043933773864 23.96005630827858,203.78776536593068 24.121590709139127,203.6455454221832 24.31638219251181,203.55599936704675 24.463663557980908,203.67714988184525 24.65845504135359,203.74035875365007 24.877001583692618,203.74562615678224 25.00527890198282,203.68241729025613 25.185817350022262,203.58760387161965 25.375857821607497,203.55073194808938 25.49938412811025,203.4822554614475 25.6514165053959,203.57180162131772 25.79394685907755,203.66661506371747 25.936477212730097,203.68768469821953 26.05525250750361,203.61920836034187 26.231039943697397,203.58233645529617 26.42583142707008,203.6139409466632 26.568361780780833,203.55599936704675 26.70614112264593,203.51386000298953 26.824916417419445,203.4822554614475 27.00545486540068,203.55599936704675 27.16698926623212,203.58760387161965 27.285764561005635,203.62974318640045 27.418792891083285,203.7192891367631 27.480556044349214,203.8931132655489 27.58507830373128,204.03533265078295 27.566074256552383,204.2144232720675 27.504311103286454,204.40404808128733 27.471054020774318,204.5778703219912 27.589829315518728,204.72008816247035 27.55182122119004,204.87810760895445 27.395037832146045,204.983453686571 27.252507478464395,205.07826500593364 27.20499736056081,205.2415508328013 27.304768608126324,205.41537076445456 27.390286820358597,205.5733884682959 27.594580327306176,205.6523971716888 27.64684145699721,205.79987981980958 27.72760865741293,205.91575880130404 27.893894070060924,205.95789655994668 27.969910258660093,206.11064569898372 28.159950730245328,206.22125691347173 28.311983107530978,206.34766949243203 28.44976244942518,206.4635474671668 28.5305296498409,206.62682970645983 28.658806968160206,206.7585086236977 28.79658631005441,206.91652296139 28.99612880521454,206.94285864583435 29.186169276799774,206.96919431929564 29.366707724810112,207.0534684004233 29.5519971846079,207.09560539873564 29.71828259722679,207.1482766070476 29.889319021633128,207.23781756018798 30.060355446097674,207.2536188916747 30.22664085868746,207.18514642669106 30.41193031851435,207.16407796095882 30.61147281367448,207.15354372545335 30.773007214505924,207.16407796095882 30.915537568216678,207.11667388733986 31.062818933656672,207.0587355267453 31.200598275579978,207.06400265264165 31.33362660568673,207.16934507805854 31.47615695936838,207.2009477713509 31.55217314796755,207.31682417797856 31.594932254083687,207.46957002496856 31.689952489890857,207.60124718230145 31.803976772847818,207.7013216379819 31.870490937901195,207.77506060895394 31.946507126558572,207.75925940815432 31.96551117367926,207.6802533447226 32.02727432694519,207.69605456532008 32.098539503786014,207.80139593482818 32.193559739593184,207.922538292205 32.307584022550145,208.03314632829643 32.45486538801924,208.0173451921728 32.51662854128517,207.98047585913082 32.51662854128517,207.98047585913082 32.57364068273455,207.98047585913082" stroke="#4DD2FF" stroke-dasharray="none" stroke-linecap="round" stroke-linejoin="round" stroke-width="0.5"><title>2026-03-14 12.0km</title><desc>9223370263378906807</desc></polyline></svg>