<?xml version="1.0" encoding="utf-8" ?>
<svg baseProfile="full" height="300mm" version="1.1" viewBox="0,0,200,300" width="200mm" xmlns="http://www.w3.org/2000/svg" xmlns:ev="http://www.w3.org/2001/xml-events" xmlns:xlink="http://www.w3.org/1999/xlink"><defs /><rect fill="#222222" height="300" width="200" x="0" y="0" /><text fill="#FFFFFF" style="font-size:12px; font-family:Arial; font-weight:bold;" x="10" y="20">Over 10km Runs</text><text fill="#FFFFFF" style="font-size:4px; font-family:Arial" x="10" y="280">Runner</text><text fill="#FFFFFF" style="font-size:9px; font-family:Arial" x="10" y="290">yihong0618</text><text fill="#FFFFFF" style="font-size:4px; font-family:Arial" x="65" y="280">SPECIAL TRACKS</text><rect fill="yellow" height="2.6" width="2.6" x="65" y="283" /><text fill="#FFFFFF" style="font-size:3px; font-family:Arial" x="70" y="285.5">Over 20.0 km</text><rect fill="red" height="2.6" width="2.6" x="65" y="287" /><text fill="#FFFFFF" style="font-size:3px; font-family:Arial" x="70" y="289.5">Over 40.0 km</text><text fill="#FFFFFF" style="font-size:4px; font-family:Arial" x="120" y="280">STATISTICS</text><text fill="#FFFFFF" style="font-size:3px; font-family:Arial" x="120" y="285">Number: 1</text><text fill="#FFFFFF" style="font-size:3px; font-family:Arial" x="120" y="290">Weekly: 1.0</text><text fill="#FFFFFF" style="font-size:3px; font-family:Arial" x="141" y="285">Total: 12.0 km</text><text fill="#FFFFFF" style="font-size:3px; font-family:Arial" x="141" y="290">Avg: 12.0 km</text><text fill="#FFFFFF" style="font-size:3px; font-family:Arial" x="167" y="285">Min: 12.0 km</text><text fill="#FFFFFF" style="font-size:3px; font-family:Arial" x="167" y="290">Max: 12.0 km</text><polyline fill="none" opacity="1" points="31.50466303009307,207.37739587866963 31.499912018305622,207.27732091307917 31.414393806102453,207.22991692657524 31.30512053493294,207.22991692657524 31.233855358092114,207.1509102031996 31.119831075135153,207.0666362558477 31.015308815753087,207.1140403650861 30.89653352103778,207.14037596595153 30.78250923808082,207.18251290443732 30.67323596694041,207.17197867246068 30.563962695770897,207.1509102031996 30.430934365664143,207.15617732118335 30.278901988378493,207.17724578866546 30.126869611121947,207.18778001975443 29.989090269227745,207.25625247903008 29.865563962695887,207.20358136311916 29.689776526472997,207.14564308479385 29.585254267120035,207.09823899930052 29.414217842684593,207.07717050541396 29.28594052439439,207.00343072139367 29.138659158925293,206.94549225916126 28.986626781639643,206.93495798757795 28.84884743974544,206.97182793040702 28.658806968160206,206.8822866032715 28.56853774416959,206.71900503234065 28.525778638053453,206.65579914941554 28.421256378671387,206.50305133747315 28.349991201830562,206.41350934462753 28.250219954235945,206.28182971237038 28.178954777424224,206.23969217197373 28.06968150625471,206.18702020687851 27.89864508184837,206.1606842078363 27.841632940340787,206.03953847050798 27.851134963944787,205.9131252790503 27.70385359847569,205.9499958194101 27.60408235088107,205.83411690567664 27.60408235088107,205.66029813573914 27.49005806792411,205.63396191667562 27.357029737817356,205.5602204447714 27.29051557276398,205.43907355367264 27.16698926623212,205.33372824175967 27.152736230869778,205.16517537658729 27.257258490251843,204.9966220607821 27.42829491465818,204.97555286462375 27.566074256552383,204.81226635563507 27.52331515046535,204.7016526737898 27.456800985411974,204.57523679973747 27.447298961837078,204.4224839470553 27.532817174011143,204.27499808293214 27.561323244764935,204.1169771313289 27.532817174011143,203.9800253195499 27.49005806792411,203.8272710246456 27.376033784996253,203.70085339721118 27.214499384135706,203.64291189992946 27.224001407710603,203.65344672157153 27.2430054548895,203.65344672157153 27.214499384135706,203.65871413174318 27.22875241949805,203.65344672157153 27.219250395923154,203.65871413174318 27.214499384135706,203.66924895074044 27.214499384135706,203.66398154146373 27.133732183719985,203.553365844793 27.138483195507433,203.4216802385563 27.17649128983612,203.30579667751226 27.257258490251843,203.2162501435305 27.338025690667564,203.1530407488426 27.447298961837078,203.07402891633683 27.566074256552383,202.97921458661222 27.684849551296793,202.86859768836075 27.72760865741293,202.76851556551992 27.661094492359553,202.66843328379764 27.570825268368935,202.56835084315753 27.532817174011143,202.41032561337488 27.566074256552383,202.29970771680019 27.570825268368935,202.18382209313495 27.618335386243416,202.03106344549815 27.49005806792411,201.946782653853 27.46155199719942,201.87830442765335 27.385535808542045,201.76768559741322 27.456800985411974,201.5885880320966 27.509062115073903,201.4674335081727 27.504311103286454,201.31467312433233 27.58032729194383,201.14084189236382 27.618335386243416,201.01968650778508 27.642090445180656,200.88272796652018 27.63258842160576,200.76157208576478 27.63258842160576,200.6298806468876 27.594580327306176,200.52979496931584 27.58032729194383,200.37176462848583 27.675347527721897,200.22953698295169 27.699102586659137,200.0925767246299 27.67059651593445,199.94508072898316 27.67059651593445,199.7923166552937 27.661094492359553,199.61848122446827 27.67059651593445,199.4288420257726 27.181242301594466,198.67027952442004 27.105226112966193,198.65974386983362 27.067218018637504,198.57019073473566 27.03396093615447,198.4806374723703 27.00545486540068,198.44376256264877 26.972197782888543,198.3542091206109 26.905683617835166,198.306798423313 26.82966742917779,198.23831624200466 26.758402252366068,198.1803697227915 26.71089213443338,198.1118874040949 26.63012493401766,198.0276013712246 26.511349639302352,197.92224367159724 26.42583142707008,197.86956475573606 26.359317262016702,197.86956475573606 26.235790955484845,197.9011721105344 26.12651768431533,197.92224367159724 26.02199542496237,197.87483264929688 25.979236318846233,197.75893888905557 25.922224177367752,197.67992029395464 25.808199894439895,197.65884865186672 25.70367763505783,197.6641165630499 25.708428646845277,197.6219732612517 25.741685729357414,197.61670534653967 25.72268168220762,197.61143743138018 25.689424599695485,197.64304491566872 25.670420552545693,197.63777700273204 25.684673587908037,197.6641165630499 25.679922576091485,197.63777700273204 25.694175611482933,197.61670534653967 25.69892662327038,197.60616951579868 25.622910434642108,197.47973940957672 25.608657399279764,197.40598839710583 25.565898293163627,197.3269693594084 25.527890198864043,197.31116553997344 25.447122998419218,197.26375405789804 25.38060883336584,197.21634254015225 25.29509062116267,197.21107459153427 25.257082526833983,197.21634254015225 25.233327467896743,197.21107459153427 25.143058243906125,197.24795022261605 25.071793067036197,197.2953617165731 24.995776878437027,197.2953617165731 24.94351574871689,197.33750523682102 24.843744501151377,197.37438079392814 24.80098539503524,197.44286391412243 24.739222241798416,197.4586677005318 24.663206053170143,197.49027526143618 24.582438852725318,197.5324186513244 24.482667605159804,197.57456201302193 24.382896357565187,197.6641165630499 24.28787612178712,197.77474259619703 24.178602850617608,197.78001049768136 24.102586661989335,197.78001049768136 23.988562379032373,197.76420679188232 23.94580327294534,197.7536709857959 23.964807320095133,197.73786727339757 23.983811367244925,197.74840308210696 23.94580327294534,197.7694746942543 23.884040119679412,197.71152774388975 23.808023931022035,197.67992029395464 23.727256730606314,197.73786727339757 23.670244589156937,197.65884865186672 23.56097131795832,197.7062598366756 23.484955129330046,197.60616951579868 23.42319197609322,197.5324186513244 23.356677811039845,197.49554318671653 23.342424775648396,197.49027526143618 23.285412634169916,197.41652426131623 23.209396445541643,197.37438079392814 23.1951434101793,197.38491666342088 23.19039239839185,197.36911285851238 23.176139363029506,197.2953617165731 23.204645433754195,197.21107459153427 23.176139363029506,197.1425912194136 23.114376209763577,197.06357185139132 23.090621150826337,197.00562425188036 23.05261305649765,196.93187268450492 23.019355973956408,196.82651315278054 22.99560091504827,196.63686555173626 22.924335738178343,196.56838155552396 22.881576632062206,196.45775340441105 22.81031145522138,196.40507326419174 22.796058419859037,196.31551692470748 22.720042231230764,196.21015636235097 22.68203413693118,196.120599745831 22.663030089752283,196.10479562381806 22.6250219954527,196.11006366492074 22.64877705438994,196.11006366492074 22.63452401899849,196.10479562381806 22.639275030815043,196.0995275822679 22.644026042573387,196.094259540263 22.686785148689523,196.04684714251562 22.691536160506075,196.02577495429068 22.63452401899849,196.03104300201085 22.629773007211043,196.04684714251562 22.620270983636146,196.04684714251562 22.629773007211043,196.0573832339942 22.6250219954527,196.04684714251562 22.629773007211043,196.0415790961124 22.63452401899849,196.03631104927626 22.639275030815043,196.03631104927626 180.90973077600938,92.02226478148805 180.81471054023132,92.0803093596769 180.81471054023132,92.0803093596769 180.81471054023132,92.0803093596769 180.7244413162407,92.13835388400548 23.08587013903889,196.979284416273 23.11912722152192,197.1109834840936 23.185641386604402,197.19527074302823 23.16663733945461,197.31643348023135 23.19039239839185,197.4533997721628 23.256906563445227,197.548222415262 23.304416681348812,197.6693844738038 23.299665669561364,197.83795738506888 23.328171740286052,198.0065298453883 23.36142882279819,198.18563759037352 23.380432869977085,198.3173341369038 23.38993489355198,198.47536962945742 23.36617983461474,198.6544760418874 23.380432869977085,198.74929687767872 23.27115959880757,198.8651888165441 23.07636811543489,198.87045662689343 22.92908674996579,198.91259909376458 22.796058419859037,198.96000933530377 22.629773007211043,199.03375852902536 22.482491641741944,199.07590088667712 22.373218370601535,199.1233110053763 22.26394509943202,199.18125665753905 22.130916769296164,199.24973781414883 22.078655639634235,199.31821889635103 22.050149568909546,199.3392899835926 22.04064754533465,199.3445577543025 21.983635403827066,199.40250320304767 21.883864156261552,199.42357426211674 21.755586837942246,199.4499130760305 21.66531761395163,199.51839394071067 21.6130564842897,199.57107147828356 21.556044342782116,199.6711586783822 21.42776702446281,199.6711586783822 21.337497800472192,199.65535544683007 21.209220482123783,199.6869619059762 21.08569417562103,199.6869619059762 20.995424951601308,199.6342844652645 20.876649656886002,199.64481995691676 20.805384480045177,199.67642642134524 20.724617279600352,199.71330060980108 20.610592996672494,199.75544251306928 20.50607073729043,199.78178118828873 20.458560619415948,199.86606487504105 20.425303536874708,199.96615160664078 20.411050501512364,200.05043504681453 20.35878937182133,200.0662381793045 20.320781277492642,200.0925767246299 20.225761041714577,200.10837984655882 20.121238782361615,200.08730901644958 19.997712475829758,200.10311213968816 19.912194263597485,200.13998607851318 19.93119831077638,200.1821276964656 19.92169628717238,200.28221392614068 19.90744325183914,200.3296231373497 19.893190216447692,200.38756768041276 19.8741861692979,200.44024449149947 19.831427063181764,200.5455979815997 19.726904803828802,200.59300699469532 19.622382544446737,200.6140776557222 19.541615344031015,200.63514830973145 19.451346120011294,200.6720219372728 19.41333802571171,200.63514830973145 19.36582790777902,200.62461298361814 19.34207284884178,200.58247166152069 19.313566778117092,200.5666686584991 19.35632588423323,200.49818893286283 19.37532993138302,200.50872428008734 19.31831778990454,200.5455979815997 19.304064754542196,200.6509512956036 19.299313742725644,200.81951623170607 19.36582790777902,200.97754544986674 19.408587013895158,201.10923616230866 19.26130564842606,201.1619123702585 19.166285412647994,201.32520833510716 19.166285412647994,201.5095742385638 19.099771247594617,201.67813687837042 19.009502023604,201.8414315058144 19.03800809432869,202.03633099123908 19.147281365498202,202.09427396527462 19.133028330135858,202.1943571586271 19.11877529474441,202.32077780729378 19.11402428295696,202.4946057852285 19.23755058948882,202.5630833418909 19.38958296677447,202.61575833484312 19.541615344031015,202.74217813837095 19.603378497296944,202.89493506269355 19.788667957065627,203.03188923183916 19.988210452225758,203.11616857266927 20.140242829482304,203.12670348233587 20.349287348246435,203.07402891633683 20.534576808015117,203.14777329642675 20.734119303204352,203.18991290345002 20.947914833726827,203.20571524881598 21.04768608129234,203.2162501435305 21.185465423186542,203.2847269162594 21.34699982404709,203.2847269162594 21.48477916594129,203.31633155550298 21.651064578589285,203.33213386919306 21.82685201478307,203.33213386919306 21.964631356706377,203.38480821951453 22.130916769296164,203.4111453781734 22.297202181944158,203.4216802385563 22.49199366531684,203.4269476680929 22.65827907793573,203.34266874277455 22.777054372709244,203.36373848467701 22.952841808932135,203.4164128085904 23.07161710364744,203.31633155550298 23.152384304092266,203.40061051604062 23.323420728498604,203.5112264807358 23.318669716682052,203.695585990572 23.408938940701773,203.81673623203824 23.499208164721495,203.80620143767737 23.727256730606314,203.83253842027625 23.93630124934134,203.8009340398312 24.107337673776783,203.65344672157153 24.28787612178712,203.5428310064308 24.454161534406012,203.65871413174318 24.629948970628902,203.7271904238296 24.867499560088618,203.73772523139633 24.995776878437027,203.68505117596578 25.162062291055918,203.600772595717 25.347351750853704,203.56390068142355 25.489882104535354,203.463819662491 25.632412458217004,203.56390068142355 25.765440788323758,203.66924895074044 25.917473165609408,203.68505117596578 26.04575048389961,203.62184225133024 26.212035896547604,203.57443551627875 26.397325356316287,203.61130742440946 26.558859757176833,203.56390068142355 26.68238606370869,203.51649390277817 26.815414393815445,203.48488936388821 26.995952841825783,203.54809842583563 27.14798521908233,203.5849703493659 27.257258490251843,203.6271096641467 27.399788843933493,203.70085339721118 27.480556044349214,203.87467756956903 27.58032729194383,204.016896990448 27.566074256552383,204.19072029137533 27.504311103286454,204.35927576182075 27.475805032561766,204.5489001274109 27.58032729194383,204.69638535076956 27.566074256552383,204.86493946926566 27.414041879295837,204.98082016431727 27.26676051382674,205.04929502038067 27.20974837234826,205.21258091548225 27.29051557276398,205.3864009197241 27.3807847967837,205.5602204447714 27.57557628012728,205.63396191667562 27.651592468784656,205.78144460174735 27.70385359847569,205.9131252790503 27.884392046456924,205.93419416188408 27.9604082351143,206.10274497119462 28.136195671308087,206.21335619493038 28.297730072168633,206.31870003712174 28.440260425850283,206.4451124154475 28.51152560269111,206.61366185895167 28.64930494458531,206.7348064931648 28.777582262904616,206.90335516227788 28.9723737462773,206.93495798757795 29.181418265012326,206.96129366323657 29.342952665872872,207.03503349654056 29.53774414921645,207.08243762954226 29.699278550047893,207.13510884665448 29.865563962695887,207.214115589828 30.046102410706226,207.25625247903008 30.20288579975022,207.18778001975443 30.392926271335455,207.15617732118335 30.58771775473724,207.15617732118335 30.749252155568684,207.1667115558048 30.90128453282523,207.12457460675796 31.04856589832343,207.0666362558477 31.18634524018853,207.05083487816955 31.309871546720387,207.16144443870508 31.471405947580934,207.19831424909717 31.55217314796755,207.29838934008512 31.580679218721343,207.44586813202113 31.689952489890857,207.5880794975783 31.794474749243818,207.67761982246884 31.856237902509747,207.78296121835956 31.932254091167124,207.7618929532655 31.956009150104364,207.68288689643668 32.0082702797954,207.67761982246884 32.08428646842367,207.78822828353805 32.18880872777663,207.91463771578128 32.2838289635838,208.03051280604268 32.44536336441524,208.01471166991905 32.54038360022241,207.9989105298191 32.51662854128517,207.97784233687707 32.5783916945511,207.96730823775943 32.57364068273455,207.97784233687707 32.592644729913445,207.9936434822339" stroke="#4DD2FF" stroke-dasharray="none" stroke-linecap="round" stroke-linejoin="round" stroke-width="0.5"><title>2026-03-14 12.0km</title><desc>9223370263378906807</desc></polyline></svg>