<?xml version="1.0" encoding="utf-8" ?>
<svg baseProfile="full" height="300mm" version="1.1" viewBox="0,0,200,300" width="200mm" xmlns="http://www.w3.org/2000/svg" xmlns:ev="http://www.w3.org/2001/xml-events" xmlns:xlink="http://www.w3.org/1999/xlink"><defs /><rect fill="#222222" height="300" width="200" x="0" y="0" /><text fill="#FFFFFF" style="font-size:12px; font-family:Arial; font-weight:bold;" x="10" y="20">Over 10km Runs</text><text fill="#FFFFFF" style="font-size:4px; font-family:Arial" x="10" y="280">Runner</text><text fill="#FFFFFF" style="font-size:9px; font-family:Arial" x="10" y="290">yihong0618</text><text fill="#FFFFFF" style="font-size:4px; font-family:Arial" x="65" y="280">SPECIAL TRACKS</text><rect fill="yellow" height="2.6" width="2.6" x="65" y="283" /><text fill="#FFFFFF" style="font-size:3px; font-family:Arial" x="70" y="285.5">Over 20.0 km</text><rect fill="red" height="2.6" width="2.6" x="65" y="287" /><text fill="#FFFFFF" style="font-size:3px; font-family:Arial" x="70" y="289.5">Over 40.0 km</text><text fill="#FFFFFF" style="font-size:4px; font-family:Arial" x="120" y="280">STATISTICS</text><text fill="#FFFFFF" style="font-size:3px; font-family:Arial" x="120" y="285">Number: 1</text><text fill="#FFFFFF" style="font-size:3px; font-family:Arial" x="120" y="290">Weekly: 1.0</text><text fill="#FFFFFF" style="font-size:3px; font-family:Arial" x="141" y="285">Total: 12.0 km</text><text fill="#FFFFFF" style="font-size:3px; font-family:Arial" x="141" y="290">Avg: 12.0 km</text><text fill="#FFFFFF" style="font-size:3px; font-family:Arial" x="167" y="285">Min: 12.0 km</text><text fill="#FFFFFF" style="font-size:3px; font-family:Arial" x="167" y="290">Max: 12.0 km</text><polyline fill="none" opacity="1" points="31.718458560615545,207.56174412352266 31.58543023050879,207.50907326719607 31.50466303009307,207.38793013066243 31.514165053667966,207.3036565071161 31.428646841464797,207.21938277093068 31.324124582111835,207.22464988273714 31.24335738166701,207.17197874482736 31.138835122284945,207.06663633701464 31.034312862931984,207.09297195546242 30.910786556400126,207.12457468307548 30.801513285230612,207.17724586059921 30.692240014090203,207.17197874482736 30.592468766495585,207.1456431593615 30.449938412813935,207.15617739486697 30.312159070919733,207.17197874482736 30.15062467008829,207.16671162862258 30.022347351768985,207.25625254436818 29.884568009874783,207.22991699409613 29.71353158543934,207.1456431593615 29.604258314269828,207.10350619976452 29.43322188986349,207.0877048326438 29.31444659511908,207.0086979376938 29.167165229620878,206.95602661939847 29.010381840576883,206.92969094373984 28.87735351047013,206.9612937532038 28.64930494458531,206.87175241858495 28.601794826681726,206.7558752085679 28.540031673415797,206.66106642379964 28.421256378671387,206.52938731956237 28.373746260767803,206.41350948034597 28.259721977839945,206.28709704925132 28.202709836361464,206.2449595158796 28.083934541617054,206.19755475719649 27.936653176147956,206.1712187647463 27.83213091676589,206.055340267274 27.87013901109458,205.92365989799146 27.732359669200378,205.9394615568308 27.594580327306176,205.8709876732828 27.618335386243416,205.6813672999633 27.504311103286454,205.63922936178642 27.3807847967837,205.58128965080323 27.304768608126324,205.45487555110958 27.195495336985914,205.3547975424117 27.152736230869778,205.19151202929788 27.224001407710603,204.99662231489856 27.395037832146045,204.97028582078565 27.54707020940259,204.84913780622446 27.542319197615143,204.70165295253173 27.442547950020526,204.59630641722833 27.46155199719942,204.448820972073 27.532817174011143,204.29606782585324 27.542319197615143,204.13804694026112 27.55182122119004,203.99056042303346 27.485307056136662,203.8588757410471 27.399788843933493,203.7166559755533 27.2335034312855,203.6218426203086 27.22875241949805,203.64817967773342 27.247756466676947,203.64291226712885 27.214499384135706,203.65344708790508 27.22875241949805,203.65344708790508 27.219250395923154,203.65344708790508 27.214499384135706,203.65871449762562 27.214499384135706,203.65344708790508 27.14323420729488,203.584970721422 27.133732183719985,203.43221548200017 27.16698926623212,203.33740169893645 27.2430054548895,203.22678543845905 27.338025690667564,203.15830860850838 27.418792891083285,203.07929678922665 27.55182122119004,202.98974994096352 27.67059651593445,202.8738655955749 27.72760865741293,202.78431845548766 27.684849551296793,202.67370122445573 27.58032729194383,202.59468879774795 27.537568185827695,202.43139613534004 27.566074256552383,202.32077828497495 27.570825268368935,202.21016024052005 27.613584374455968,202.0521341259373 27.51381312686135,201.952050715121 27.475805032561766,201.88884005799628 27.390286820358597,201.7887563879085 27.433045926474733,201.59912373507177 27.504311103286454,201.49903960496158 27.504311103286454,201.34101170753274 27.55182122119004,201.17771579727196 27.623086398059968,201.04602523889844 27.63733943339321,200.8985314868478 27.642090445180656,200.77210799611203 27.627837409818312,200.6456842517655 27.59933133906452,200.55613394608372 27.589829315518728,200.40863904761864 27.656343480543,200.22953763541955 27.70385359847569,200.10311280272072 27.67059651593445,199.96615228112205 27.675347527721897,199.81338827126456 27.656343480543,199.65008840299197 27.675347527721897,199.43937827029004 27.20499736056081,198.6597446535161 27.11947914835764,198.6597446535161 27.067218018637504,198.58599502825018 27.014956888975576,198.4859061130628 27.00070385361323,198.44903120950767 26.981699806434335,198.35947778245463 26.91993665319751,198.30679923649222 26.848671476356685,198.2435849232097 26.763153264124412,198.1961741466439 26.725145169824827,198.12769185085926 26.64912898116745,198.05394160292053 26.525602674664697,197.94331606918058 26.440084462432424,197.86429771189796 26.383072320953943,197.8484940285416 26.25004399084719,197.88536928351823 26.15977476685657,197.9117087381601 26.02199542496237,197.88536928351823 25.98873834242113,197.76947555235893 25.945979236334097,197.68518906852478 25.831954953377135,197.6588495192118 25.71317965866183,197.66938534026121 25.69892662327038,197.62724204550977 25.732183705782518,197.6167062174136 25.732183705782518,197.60617038754208 25.69892662327038,197.63250995889393 25.670420552545693,197.63250995889393 25.689424599695485,197.63250995889393 25.684673587908037,197.63777787183062 25.69892662327038,197.62197413167087 25.69892662327038,197.61143830270157 25.622910434642108,197.500811992104 25.608657399279764,197.42706101047952 25.565898293163627,197.32697025450034 25.53739222243894,197.30589849613534 25.456625021994114,197.26375495828324 25.39486186875729,197.21107549631415 25.304592644737568,197.21107549631415 25.266584550437983,197.2005395986307 25.257082526833983,197.19000369919013 25.147809255693574,197.23214728638413 25.086046102427645,197.28482673072358 25.01478092558682,197.27429084539108 24.95776878410834,197.3217023155703 24.85799753651372,197.36384581467428 24.81523843042669,197.43232894061293 24.75347527716076,197.44286479953007 24.677459088503383,197.49027614287843 24.606193911691662,197.51661576265542 24.501671652309597,197.57456288740286 24.392398381140083,197.64304578432711 24.311631180724362,197.73786813413244 24.197606897796504,197.76947555235893 24.131092732714023,197.7589397480442 24.00756642621127,197.7589397480442 23.94105226112879,197.75367184521747 23.964807320095133,197.73260022955947 23.964807320095133,197.75367184521747 23.94580327294534,197.7589397480442 23.888791131437756,197.7167965131739 23.822276966413483,197.6799211595462 23.755762801360106,197.72206441908565 23.670244589156937,197.6588495192118 23.579975365108112,197.69045697707406 23.4897061411466,197.6167062174136 23.42794298788067,197.53241952923418 23.356677811039845,197.49027614287843 23.347175787435845,197.48500821759808 23.304416681348812,197.4165251489103 23.237902516295435,197.36911375009004 23.1951434101793,197.3849175536634 23.1951434101793,197.36911375009004 23.16663733945461,197.31643437620005 23.1951434101793,197.2216113922259 23.1951434101793,197.14259212990873 23.11912722152192,197.07410868908119 23.090621150826337,197.0161611040894 23.05261305649765,196.94767752586267 23.028857997560408,196.84231802938302 23.005102938594064,196.7369583567306 22.943339785328135,196.5683825140477 22.886327643849654,196.47355840433374 22.815062467037933,196.41034225190378 22.81031145522138,196.33132197220039 22.734295266593108,196.2259614450777 22.67253211332718,196.14167289652323 22.663030089752283,196.0942605384298 22.6250219954527,196.09952857997996 22.64877705438994,196.10479662108264 22.639275030815043,196.09952857997996 22.644026042573387,196.0942605384298 22.644026042573387,196.0889924964249 22.68203413693118,196.06265227986296 22.691536160506075,196.02577595817274 22.663030089752283,196.05211619015608 22.63452401899849,196.0363120522743 22.620270983636146,196.0415800986775 22.629773007211043,196.05211619015608 22.629773007211043,196.04684814464053 22.629773007211043,196.0415800986775 22.639275030815043,196.02577595817274 22.639275030815043,196.0363120522743 180.90973077600938,92.01699773764994 180.81471054023132,92.0750423158388 180.81471054023132,92.0750423158388 180.81471054023132,92.0750423158388 180.81946155201877,92.06976553823915 180.62942108043353,92.19113131063568 23.128629245155025,197.04776888432752 23.1951434101793,197.15312803727284 23.171388351242058,197.28482673072358 23.180890374816954,197.42179307992774 23.233151504478883,197.52188368530187 23.290163645986468,197.63777787183062 23.294914657744812,197.79581505542956 23.313918704923708,197.94858395613846 23.36142882279819,198.13295972240303 23.375681858189637,198.29626352202104 23.385183881764533,198.43322767280915 23.37093084640219,198.61760202107325 23.380432869977085,198.7282263711022 23.323420728498604,198.84938615072315 23.114376209763577,198.8546539619383 22.95759282069048,198.902064243106 22.815062467037933,198.9442066853153 22.65827907793573,199.02322368849855 22.520499736070633,199.06536604967914 22.387471405934775,199.10750838267268 22.273447123006918,199.17072182934498 22.154671828262508,199.23393521261823 22.09765968681313,199.29188075822458 22.050149568909546,199.3340229397545 22.050149568909546,199.3340229397545 21.99313742740196,199.3867006270375 21.91237022698624,199.4130394541753 21.788843920483487,199.4235749819345 21.693823684676317,199.50259138407273 21.617807496048044,199.5500011777949 21.570297378173564,199.65535614727924 21.451522083429154,199.67115937750714 21.361252859409433,199.65008840299197 21.22822452930268,199.67642712004454 21.11420024637482,199.6869626037842 21.014428998780204,199.65008840299197 20.900404715823242,199.6342851674708 20.805384480045177,199.67115937750714 20.743621326779248,199.69223034498646 20.639099067397183,199.7396399960562 20.529825796256773,199.77124641028422 20.463311631203396,199.84499464850887 20.42055252508726,199.95561684404674 20.430054548662156,200.03463257912153 20.368291395396227,200.0504357142454 20.325532289309194,200.0873096807918 20.24476508886437,200.09784509585006 20.13074080593651,200.08204197261148 20.030969558341894,200.0873096807918 19.916945275414037,200.12418362578683 19.93119831077638,200.17159295191232 19.92644729895983,200.2611438039603 19.90744325183914,200.3138207163247 19.90269224002259,200.36649758464773 19.883688192843692,200.41917440895486 19.855182122119004,200.51926025382636 19.741157839191146,200.59300761678242 19.646137603383977,200.59827528226015 19.574872426543152,200.6246136030495 19.47035016719019,200.68782552806078 19.427591061074054,200.6351489282897 19.370578919595573,200.6088106118841 19.34207284884178,200.5877399508572 19.327819813479437,200.55613394608372 19.370578919595573,200.49818956286617 19.38008094317047,200.49818956286617 19.332570825266885,200.55086627708806 19.285060707392404,200.61407827605217 19.313566778117092,200.77737564661584 19.34207284884178,200.9459402305256 19.427591061074054,201.08289862297897 19.2945627309673,201.14084246866332 19.185289459797787,201.2988708679586 19.156783389073098,201.48850442412368 19.128277318319306,201.64126437391315 19.014253035391448,201.79929151854958 19.023755058966344,202.00999376180334 19.142530353710754,202.05740166946634 19.128277318319306,202.15748491300474 19.123526306531858,202.28917314923092 19.099771247594617,202.46826870898803 19.20429350694758,202.54201379157894 19.370578919595573,202.5894212991152 19.517860285093775,202.69477118820578 19.579623438359704,202.85806316832895 19.726904803828802,203.0002848708864 19.940700334351277,203.10563407333393 20.116487770545064,203.1477737050045 20.311279253917746,203.0529594941181 20.487066690140637,203.1477737050045 20.696111208875664,203.17937841027742 20.905155727639794,203.20044820497787 21.009677986992756,203.21625054639298 21.156959352461854,203.26365754684957 21.3089917297184,203.27419243099575 21.465775118762394,203.2952621940167 21.63206053141039,203.32686682535495 21.79359493224183,203.32159938790574 21.950378321344033,203.3742737426328 22.09765968681313,203.3953434722025 22.26394509943202,203.4111457647523 22.458736582804704,203.4216806242548 22.629773007211043,203.35320400603086 22.75805032553035,203.34266913506872 22.919584726390895,203.400610903489 23.057364068285096,203.33740169893645 23.142882280488266,203.36900630913442 23.299665669561364,203.4690874702319 23.323420728498604,203.65344708790508 23.404187928914325,203.76933000017743 23.456449058605358,203.8325387716468 23.67974661270273,203.80093439383927 23.893542143225204,203.7851321989947 24.078831603052095,203.66398190690234 24.23561499209609,203.5533662194939 24.42565546365222,203.63237744459548 24.582438852725318,203.73245818755822 24.83899348936393,203.73245818755822 24.967270807683235,203.6850515396436 25.143058243906125,203.61657520749213 25.314094668312464,203.56390105522587 25.470878057385562,203.44801776530585 25.608657399279764,203.53229654274764 25.746436741144862,203.64817967773342 25.898469118430512,203.6692493157534 26.02199542496237,203.63764485609136 26.17402780224802,203.5797033055278 26.36406827380415,203.60077296644886 26.520851662848145,203.55863363758544 26.672884040133795,203.51122685894006 26.782157311274204,203.48488974430074 26.962695759313647,203.52176170171515 27.128981171903433,203.5797033055278 27.219250395923154,203.60604038057136 27.3807847967837,203.67451672416428 27.480556044349214,203.8220039808075 27.566074256552383,203.9747582757118 27.55182122119004,204.1591164145575 27.518564138677903,204.32240460160756 27.49480907971156,204.51202906224353 27.537568185827695,204.6753163352114 27.589829315518728,204.82806856252864 27.456800985411974,204.9492166175769 27.29051557276398,205.01769150224573 27.219250395923154,205.1704429000274 27.26200950203929,205.34953027440133 27.361780749604804,205.5233498865673 27.532817174011143,205.6234276276955 27.656343480543,205.74457415442885 27.67059651593445,205.89732379114866 27.874890022882028,205.9078582352122 27.917649128998164,206.07114189309505 28.098187577008503,206.1817531630404 28.283477036777185,206.28182985910462 28.407003343309043,206.40824230078942 28.49727256729966,206.58205899426684 28.635051909222966,206.70847083401895 28.739574168575928,206.88228669984892 28.94386767555261,206.92969094373984 29.129157135321293,206.94022521532315 29.300193559756735,206.99816367755557 29.51874010206666,207.06663633701464 29.666021467535757,207.12984180281637 29.841808903758647,207.18251297591632 30.00334330459009,207.26151965309327 30.193383776175324,207.18251297591632 30.350167165248422,207.15617739486697 30.544958648621105,207.15091027734525 30.72549709660234,207.1614445119667 30.86802745028399,207.12984180281637 31.015308815753087,207.08243770939953 31.16259018125129,207.02976645270246 31.290867499570595,207.12984180281637 31.428646841464797,207.18251297591632 31.547422136209207,207.26151965309327 31.575928206933895,207.408998518953 31.661446419166168,207.55120995579273 31.780221713910578,207.6618186293599 31.846735878963955,207.78296123969994 31.898997008625884,207.76189297637393 31.96551117367926,207.70395521587125 31.994017244433053,207.6512844783283 32.07003343303222,207.76189297637393 32.16505366883939,207.88303539444678 32.26957592822146,207.99891053312604 32.39785324654076,208.01471167189447 32.54038360022241,207.9883764383958 32.51662854128517,207.97257529303897 32.5688896709471,207.97784234193023 32.58789371809689,208.01471167189447 32.57364068273455,207.99891053312604 32.63540383600048,207.95677414369493 32.63540383600048,207.96204119392132 32.649656871391926,207.97784234193023 32.773183177923784,208.02524576220458" stroke="#4DD2FF" stroke-dasharray="none" stroke-linecap="round" stroke-linejoin="round" stroke-width="0.5"><title>2026-03-14 12.0km</title><desc>9223370263378906807</desc></polyline></svg>