<?xml version="1.0" encoding="utf-8" ?>
<svg baseProfile="full" height="300mm" version="1.1" viewBox="0,0,200,300" width="200mm" xmlns="http://www.w3.org/2000/svg" xmlns:ev="http://www.w3.org/2001/xml-events" xmlns:xlink="http://www.w3.org/1999/xlink"><defs /><rect fill="#222222" height="300" width="200" x="0" y="0" /><text fill="#FFFFFF" style="font-size:12px; font-family:Arial; font-weight:bold;" x="10" y="20">Over 10km Runs</text><text fill="#FFFFFF" style="font-size:4px; font-family:Arial" x="10" y="280">Runner</text><text fill="#FFFFFF" style="font-size:9px; font-family:Arial" x="10" y="290">yihong0618</text><text fill="#FFFFFF" style="font-size:4px; font-family:Arial" x="65" y="280">SPECIAL TRACKS</text><rect fill="yellow" height="2.6" width="2.6" x="65" y="283" /><text fill="#FFFFFF" style="font-size:3px; font-family:Arial" x="70" y="285.5">Over 20.0 km</text><rect fill="red" height="2.6" width="2.6" x="65" y="287" /><text fill="#FFFFFF" style="font-size:3px; font-family:Arial" x="70" y="289.5">Over 40.0 km</text><text fill="#FFFFFF" style="font-size:4px; font-family:Arial" x="120" y="280">STATISTICS</text><text fill="#FFFFFF" style="font-size:3px; font-family:Arial" x="120" y="285">Number: 1</text><text fill="#FFFFFF" style="font-size:3px; font-family:Arial" x="120" y="290">Weekly: 1.0</text><text fill="#FFFFFF" style="font-size:3px; font-family:Arial" x="141" y="285">Total: 12.0 km</text><text fill="#FFFFFF" style="font-size:3px; font-family:Arial" x="141" y="290">Avg: 12.0 km</text><text fill="#FFFFFF" style="font-size:3px; font-family:Arial" x="167" y="285">Min: 12.0 km</text><text fill="#FFFFFF" style="font-size:3px; font-family:Arial" x="167" y="290">Max: 12.0 km</text><polyline fill="none" opacity="1" points="31.68045046631596,207.5933466162096 31.590181242325343,207.51434035481725 31.509414041880518,207.39319722839355 31.514165053667966,207.3089236118867 31.433397853252245,207.22464988273714 31.33362660568673,207.22464988273714 31.24810839345446,207.17724586059921 31.153088157676393,207.06663633701464 31.03906387471943,207.0877048326438 30.925039591791574,207.11930756291986 30.81576632062206,207.17197874482736 30.69699102587765,207.17197874482736 30.60197079007048,207.1456431593615 30.45944043638883,207.15617739486697 30.32166109449463,207.17197874482736 30.160126693663187,207.1614445119667 30.03660038713133,207.25098543519198 29.889319021633128,207.24045121553718 29.732535632589133,207.15091027734525 29.609009326057276,207.1140404422913 29.447474925225833,207.0877048326438 29.323948618693976,207.01396506710444 29.176667253224878,206.9665608865689 29.019883864180883,206.92969094373984 28.891606545832474,206.95602661939847 28.64930494458531,206.8770195594334 28.611296850285726,206.76640950918954 28.540031673415797,206.66633358225226 28.42600739048794,206.55045599472214 28.383248284371803,206.41877665948778 28.264472989627393,206.28709704925132 28.21696287172381,206.2449595158796 28.088685553404503,206.2028219543572 27.950906211539404,206.16595156492986 27.841632940340787,206.06060747632 27.884392046456924,205.944728775572 27.74661270456272,205.9394615568308 27.594580327306176,205.8867893453098 27.623086398059968,205.6919017801156 27.51381312686135,205.63922936178642 27.390286820358597,205.58655689944862 27.304768608126324,205.46541006908592 27.20974837234826,205.36006480998185 27.157487242657226,205.20204659129377 27.20499736056081,205.00188961238746 27.390286820358597,204.97028582078565 27.542319197615143,204.85967242542756 27.54707020940259,204.7121875963785 27.437796938233078,204.60684107869383 27.46155199719942,204.45935565817126 27.52331515046535,204.3013351818845 27.537568185827695,204.14858167830243 27.566074256552383,204.0010951856966 27.480556044349214,203.86941052573093 27.409290867537493,203.7271907840004 27.276262537401635,203.63764485609136 27.22875241949805,203.64817967773342 27.252507478464395,203.64817967773342 27.214499384135706,203.64817967773342 27.22875241949805,203.65344708790508 27.219250395923154,203.65344708790508 27.20974837234826,203.65871449762562 27.214499384135706,203.65344708790508 27.152736230869778,203.60077296644886 27.138483195507433,203.4374829102053 27.162238254473777,203.3479365707717 27.238254443072947,203.23732032877524 27.333274678880116,203.15830860850838 27.409290867537493,203.0845642469285 27.537568185827695,202.99501740615233 27.665845504147,202.8738655955749 27.72760865741293,202.7895859378441 27.699102586659137,202.6842362072166 27.58032729194383,202.60522379368558 27.537568185827695,202.44193115858434 27.566074256552383,202.33131332672565 27.570825268368935,202.21542777082868 27.60883336266852,202.0626692125661 27.518564138677903,201.95731826702468 27.480556044349214,201.89937517192084 27.390286820358597,201.79929151854958 27.42829491465818,201.60965889743602 27.49956009152811,201.5095747840387 27.504311103286454,201.3515469130034 27.542319197615143,201.19351864579585 27.618335386243416,201.0618281204297 27.63258842160576,200.90906676630038 27.642090445180656,200.78264329667581 27.623086398059968,200.65621957347685 27.59933133906452,200.56666928277264 27.594580327306176,200.42970976853394 27.651592468784656,200.24007302669634 27.699102586659137,200.11364821513052 27.675347527721897,199.97668771641474 27.67059651593445,199.82392373211042 27.661094492359553,199.6658916345441 27.675347527721897,199.4446460321924 27.656343480543,199.4130394541753 27.138483195507433,198.6597446535161 27.06246700687916,198.60179852664805 27.02445891255047,198.5122453166805 27.00070385361323,198.44903120950767 26.981699806434335,198.37001348634658 26.929438676772406,198.30679923649222 26.858173499902477,198.2435849232097 26.786908323090756,198.1803705465354 26.725145169824827,198.13295972240303 26.6633820165589,198.05920948063795 26.535104698239593,197.94858395613846 26.44958648600732,197.85902981788604 26.387823332770495,197.8484940285416 26.25954601445119,197.88536928351823 26.169276790431468,197.9117087381601 26.036248460324714,197.90117295763048 25.98873834242113,197.77474345384326 25.950730248121545,197.7009927928375 25.84145697695203,197.6588495192118 25.717930670420174,197.66938534026121 25.71317965866183,197.62197413167087 25.732183705782518,197.6167062174136 25.71317965866183,197.63250995889393 25.694175611482933,197.62724204550977 25.66566954072914,197.63250995889393 25.694175611482933,197.62724204550977 25.694175611482933,197.63777787183062 25.69892662327038,197.62724204550977 25.70367763505783,197.6167062174136 25.627661446429556,197.5060799160674 25.608657399279764,197.43232894061293 25.565898293163627,197.3322381929829 25.546894246013835,197.30589849613534 25.470878057385562,197.26902290204816 25.399612880544737,197.21107549631415 25.314094668312464,197.21634344448466 25.27133556222543,197.2005395986307 25.257082526833983,197.19000369919013 25.162062291055918,197.2268793395342 25.086046102427645,197.28482673072358 25.02903396092006,197.27429084539108 24.967270807683235,197.31643437620005 24.877001583692618,197.36911375009004 24.819989442214137,197.42706101047952 24.758226288919104,197.44286479953007 24.682210100319935,197.48500821759808 24.610944923450006,197.51661576265542 24.51117367585539,197.56929496918383 24.406651416502427,197.62724204550977 24.31638219251181,197.73260022955947 24.211859933129745,197.77474345384326 24.131092732714023,197.7589397480442 24.017068449757062,197.7589397480442 23.94105226112879,197.7589397480442 23.964807320095133,197.73260022955947 23.99331339081982,197.7484039419578 23.955305296491133,197.7484039419578 23.903044166829204,197.73260022955947 23.822276966413483,197.6799211595462 23.760513813147554,197.7167965131739 23.684497624490177,197.6641174299657 23.589477388712112,197.67465325011653 23.499208164721495,197.62724204550977 23.437445011455566,197.53241952923418 23.36142882279819,197.4955440677113 23.347175787435845,197.500811992104 23.313918704923708,197.42706101047952 23.24265352805378,197.36384581467428 23.19039239839185,197.39018548729655 23.209396445541643,197.37438168505105 23.16663733945461,197.32697025450034 23.1951434101793,197.2268793395342 23.199894421966746,197.14786008380543 23.123878233338473,197.07937664871497 23.100123174401233,197.02142906857262 23.05261305649765,196.94767752586267 23.028857997560408,196.8475860083854 23.005102938594064,196.7369583567306 22.95759282069048,196.57365051594752 22.891078655637102,196.4893624325232 22.824564490583725,196.41561026703857 22.80556044340483,196.33658999391992 22.739046278380556,196.2364975057062 22.677283125114627,196.14694093411526 22.663030089752283,196.0889924964249 22.6250219954527,196.0942605384298 22.644026042573387,196.10479662108264 22.64877705438994,196.09952857997996 22.639275030815043,196.0942605384298 22.644026042573387,196.0889924964249 22.68203413693118,196.07318836780178 22.691536160506075,196.02050791045258 22.68203413693118,196.05738423523144 22.639275030815043,196.0363120522743 22.620270983636146,196.0415800986775 22.620270983636146,196.05211619015608 22.629773007211043,196.04684814464053 22.629773007211043,196.0415800986775 22.63452401899849,196.02577595817274 22.639275030815043,196.0363120522743 180.90973077600938,92.01699773764994 180.81471054023132,92.0750423158388 180.81471054023132,92.0750423158388 180.81471054023132,92.0750423158388 180.81946155201877,92.06976553823915 180.62942108043353,92.19113131063568 23.11912722152192,197.04250092205257 23.1951434101793,197.14786008380543 23.16663733945461,197.27955878827925 23.185641386604402,197.41125721747812 23.228400492691435,197.51661576265542 23.285412634169916,197.62724204550977 23.294914657744812,197.7589397480442 23.323420728498604,197.92224451692164 23.356677811039845,198.1224239788644 23.375681858189637,198.2804599470037 23.38993489355198,198.42269197946734 23.380432869977085,198.60706635857423 23.380432869977085,198.722958549326 23.3329227520735,198.84411833905688 23.11912722152192,198.84938615072315 22.981347879656823,198.90733204992648 22.824564490583725,198.93893888157254 22.66778110153973,199.017955891366 22.53000175964553,199.06536604967914 22.392222417751327,199.10224059259053 22.297202181944158,199.17598961370095 22.168924863624852,199.22339965313586 22.09290867499658,199.28661298354564 22.050149568909546,199.3340229397545 22.050149568909546,199.3340229397545 21.997888439218514,199.37616509311556 21.917121238802793,199.40777168962813 21.788843920483487,199.4235749819345 21.698574696463766,199.49205586950848 21.617807496048044,199.53946567116145 21.57504838996101,199.63955291307866 21.465775118762394,199.67642712004454 21.375505894771777,199.65008840299197 21.237726552877575,199.67642712004454 21.123702269949717,199.69223034498646 21.0239310223551,199.65008840299197 20.909906739427242,199.6290174214264 20.810135491832625,199.67642712004454 20.748372338537592,199.6869626037842 20.658103114546975,199.73437225879752 20.534576808015117,199.77124641028422 20.47281365474919,199.83972692006864 20.425303536874708,199.95034912485426 20.439556572237052,200.02936486652834 20.368291395396227,200.0504357142454 20.33028330106754,200.0767742639946 20.25426711246837,200.09784509585006 20.13549181772396,200.0873096807918 20.030969558341894,200.08204197261148 19.92169628717238,200.12418362578683 19.92644729895983,200.1663252507642 19.92644729895983,200.25060841621598 19.916945275414037,200.30855302705822 19.89794122823514,200.36649758464773 19.883688192843692,200.41917440895486 19.864684145723004,200.51399258174933 19.76016188634094,200.59827528226015 19.650888615171425,200.59300761678242 19.584374450118048,200.62988126589335 19.484603202552535,200.6825578700591 19.432342072861502,200.6351489282897 19.370578919595573,200.6088106118841 19.34207284884178,200.59300761678242 19.31831778990454,200.561401614661 19.37532993138302,200.5087249092212 19.38008094317047,200.49818956286617 19.332570825266885,200.55086627708806 19.280309695575852,200.59827528226015 19.32306880169199,200.76684034515347 19.332570825266885,200.93540495723573 19.432342072861502,201.08289862297897 19.313566778117092,201.13557484852572 19.190040471585235,201.27780043760868 19.147281365498202,201.47796924152863 19.142530353710754,201.62019405800675 19.023755058966344,201.7887563879085 19.009502023604,201.99945866638154 19.133028330135858,202.04159903754407 19.128277318319306,202.15748491300474 19.133028330135858,202.27863810046983 19.08551821220317,202.46826870898803 19.199542495189235,202.53147878505115 19.35632588423323,202.57888630052184 19.503607249702327,202.67370122445573 19.574872426543152,202.85279569169143 19.717402780253906,202.99501740615233 19.92169628717238,203.10563407333393 20.106985746970167,203.15830860850838 20.292275206767954,203.0582269540173 20.47281365474919,203.1372387997253 20.672356149938423,203.16884351026602 20.886151680460898,203.20571565255887 21.009677986992756,203.21098309969238 21.156959352461854,203.26365754684957 21.294738694356056,203.27419243099575 21.442020059854258,203.28472731341026 21.6130564842897,203.32686682535495 21.788843920483487,203.32159938790574 21.931374274165137,203.36900630913442 22.078655639634235,203.3953434722025 22.26394509943202,203.4111457647523 22.444483547413256,203.4216806242548 22.620270983636146,203.35320400603086 22.748548301955452,203.33740169893645 22.910082702816,203.3953434722025 23.043111032922752,203.34266913506872 23.13338025691337,203.35320400603086 23.280661622382468,203.44275033798112 23.328171740286052,203.64291226712885 23.404187928914325,203.76406259969735 23.45169804681791,203.84307356072895 23.670244589156937,203.7956669959931 23.865036072500516,203.7851321989947 24.064578567660647,203.69558635337307 24.216610944917193,203.56390105522587 24.416153440106427,203.62711003266304 24.56818581733387,203.73245818755822 24.829491465789033,203.73245818755822 24.962519795895787,203.67978413212768 25.133556220302125,203.6218426203086 25.304592644737568,203.56916847244065 25.46612704556901,203.44801776530585 25.594404363888316,203.52702912245877 25.732183705782518,203.63237744459548 25.884216083068168,203.65871449762562 26.01724441317492,203.64291226712885 26.155023755069124,203.584970721422 26.349815238441806,203.5955055518789 26.511349639302352,203.56390105522587 26.672884040133795,203.51122685894006 26.76790427591186,203.48488974430074 26.948442723951302,203.5164942805568 27.11947914835764,203.5797033055278 27.195495336985914,203.5955055518789 27.376033784996253,203.66398190690234 27.485307056136662,203.81146918820014 27.54707020940259,203.96949089238842 27.55182122119004,204.13804694026112 27.5280661622528,204.31713724732253 27.504311103286454,204.50149438494918 27.52331515046535,204.6700490104231 27.589829315518728,204.82280125051693 27.466303008957766,204.94394931568604 27.31427063170122,204.991355016944 27.22875241949805,205.14937376371017 27.257258490251843,205.33899573704184 27.35227872602991,205.5022808681897 27.51381312686135,205.6128931361127 27.656343480543,205.73403968309867 27.651592468784656,205.8867893453098 27.851134963944787,205.90259101339325 27.917649128998164,206.06587468492216 28.083934541617054,206.17648596411163 28.26922400141484,206.27656266853228 28.402252331521595,206.40824230078942 28.487770543753868,206.57152466284242 28.62554988564807,206.68740221164262 28.725321133213583,206.86648527730358 28.93436565194861,206.92969094373984 29.124406123533845,206.9349580797425 29.28594052439439,206.98762941564928 29.494985043100314,207.0613692120096 29.647017420385964,207.12457468307548 29.83230688018375,207.17724586059921 29.989090269227745,207.25625254436818 30.169628717238083,207.18778009082234 30.33116311809863,207.16671162862258 30.52595460144221,207.15617739486697 30.7112440612691,207.1614445119667 30.858525426738197,207.12984180281637 31.015308815753087,207.08243770939953 31.153088157676393,207.0244993246015 31.290867499570595,207.12457468307548 31.414393806102453,207.18251297591632 31.547422136209207,207.25098543519198 31.566426183359,207.3984643256954 31.65669540737872,207.54594287124564 31.770719690306578,207.6512844783283 31.841984867147403,207.78296123969994 31.903748020442436,207.7724271089137 31.975013197254157,207.71975642855978 31.994017244433053,207.63548324847943 32.06528242127388,207.75662590942738 32.16030265708105,207.877768337632 32.26007390461746,207.9883764383958 32.393102234753314,208.01471167189447 32.535632588434964,207.9831093903813 32.51662854128517,207.97257529303897 32.56413865915965,207.97257529303897 32.58789371809689,208.01997871727144 32.559387647372205,208.01471167189447 32.63540383600048,207.95677414369493 32.63540383600048,207.96204119392132 32.63540383600048,207.96730824369297 32.763681154319784,208.01997871727144" stroke="#4DD2FF" stroke-dasharray="none" stroke-linecap="round" stroke-linejoin="round" stroke-width="0.5"><title>2026-03-14 12.0km</title><desc>9223370263378906807</desc></polyline></svg>