<?xml version="1.0" encoding="utf-8" ?>
<svg baseProfile="full" height="300mm" version="1.1" viewBox="0,0,200,300" width="200mm" xmlns="http://www.w3.org/2000/svg" xmlns:ev="http://www.w3.org/2001/xml-events" xmlns:xlink="http://www.w3.org/1999/xlink"><defs /><rect fill="#222222" height="300" width="200" x="0" y="0" /><text fill="#FFFFFF" style="font-size:12px; font-family:Arial; font-weight:bold;" x="10" y="20">Over 10km Runs</text><text fill="#FFFFFF" style="font-size:4px; font-family:Arial" x="10" y="280">Runner</text><text fill="#FFFFFF" style="font-size:9px; font-family:Arial" x="10" y="290">yihong0618</text><text fill="#FFFFFF" style="font-size:4px; font-family:Arial" x="65" y="280">SPECIAL TRACKS</text><rect fill="yellow" height="2.6" width="2.6" x="65" y="283" /><text fill="#FFFFFF" style="font-size:3px; font-family:Arial" x="70" y="285.5">Over 20.0 km</text><rect fill="red" height="2.6" width="2.6" x="65" y="287" /><text fill="#FFFFFF" style="font-size:3px; font-family:Arial" x="70" y="289.5">Over 40.0 km</text><text fill="#FFFFFF" style="font-size:4px; font-family:Arial" x="120" y="280">STATISTICS</text><text fill="#FFFFFF" style="font-size:3px; font-family:Arial" x="120" y="285">Number: 1</text><text fill="#FFFFFF" style="font-size:3px; font-family:Arial" x="120" y="290">Weekly: 1.0</text><text fill="#FFFFFF" style="font-size:3px; font-family:Arial" x="141" y="285">Total: 12.0 km</text><text fill="#FFFFFF" style="font-size:3px; font-family:Arial" x="141" y="290">Avg: 12.0 km</text><text fill="#FFFFFF" style="font-size:3px; font-family:Arial" x="167" y="285">Min: 12.0 km</text><text fill="#FFFFFF" style="font-size:3px; font-family:Arial" x="167" y="290">Max: 12.0 km</text><polyline fill="none" opacity="1" points="29.590005278907483,207.48800269849016 29.42847087807604,207.47746845328948 29.319197606906528,207.39846155833948 29.181418265012326,207.3563245072146 29.034136899543228,207.31945456438552 28.924863628373714,207.34052310579136 28.620798873831518,207.26678318007907 28.63980292098131,207.2351803283891 28.573288755957037,207.0771658322883 28.506774590874556,207.0244942456011 28.430758402246283,206.86647922152042 28.335738166468218,206.78747156097234 28.250219954235945,206.66632628917796 28.18845680099912,206.6241887487813 28.079183529829606,206.58205118023398 27.946155199722853,206.55571518557554 27.846383952128235,206.45563830556785 27.884392046456924,206.355561266726 27.765616751712514,206.31869073869166 27.623086398059968,206.31342351863714 27.623086398059968,206.13960501009933 27.570825268368935,206.0289929824321 27.456800985411974,206.00792400277714 27.34752771424246,205.9289152663696 27.276262537401635,205.81303560722154 27.16698926623212,205.71822481856725 27.152736230869778,205.56547380365737 27.22875241949805,205.38111863758968 27.395037832146045,205.36004944143133 27.537568185827695,205.25997066350828 27.556572232977487,205.11775317950378 27.442547950020526,205.03347600056077 27.480556044349214,204.89125800559486 27.471054020774318,204.7332376349368 27.542319197615143,204.61208841585176 27.570825268368935,204.4698694702929 27.504311103286454,204.3539871292669 27.485307056136662,204.19069801448495 27.376033784996253,204.08534997401875 27.224001407710603,204.02214106524116 27.22875241949805,204.0379432983791 27.252507478464395,204.0379432983791 27.214499384135706,204.0379432983791 27.224001407710603,204.04321070855076 27.219250395923154,204.04321070855076 27.20974837234826,204.0484781182713 27.214499384135706,204.05374552754802 27.214499384135706,204.0484781182713 27.12423016014509,203.90099047958574 27.14798521908233,203.79564195498097 27.181242301594466,203.68502581466237 27.257258490251843,203.60074672033807 27.338025690667564,203.54280477761858 27.42829491465818,203.46379295173756 27.54707020940259,203.384781026798 27.656343480543,203.2741641655084 27.72760865741293,203.19515200289243 27.71810663380893,203.0950697880653 27.59933133906452,203.01605740097148 27.561323244764935,202.89490488170486 27.55182122119004,202.76848461336704 27.566074256552383,202.65786667056818 27.566074256552383,202.54198099847417 27.618335386243416,202.41029247612096 27.49005806792411,202.33127923066058 27.471054020774318,202.2680685629566 27.390286820358597,202.17325244257518 27.42829491465818,201.9941549371215 27.49956009152811,201.90460599355356 27.49956009152811,201.7571133386009 27.5280661622528,201.60435272495306 27.60408235088107,201.4831974922563 27.623086398059968,201.340971487145 27.661094492359553,201.2198157481689 27.618335386243416,201.10919508742518 27.627837409818312,200.9985742325298 27.594580327306176,200.90375620239502 27.58032729194383,200.7562612052934 27.67059651593445,200.61403355975926 27.70385359847569,200.4928764233664 27.67059651593445,200.36118361963236 27.67059651593445,200.22422281183754 27.661094492359553,200.07672622442988 27.684849551296793,199.85548069605284 27.67059651593445,199.80280307482099 27.16698926623212,199.0705795798167 27.076720042241504,199.03897261869497 27.052964983304264,198.92834812994988 27.02445891255047,198.859866206265 27.00545486540068,198.82299129345483 26.972197782888543,198.73870569741848 26.905683617835166,198.6912950001206 26.848671476356685,198.6333485438554 26.786908323090756,198.5701341671811 26.729896181612276,198.52799121415228 26.677635051921243,198.44897310128363 26.549357733601937,198.3594191202501 26.48284356854856,198.25406133254364 26.411578391707735,198.2329897538657 26.311807144113118,198.2751329041639 26.216786908335052,198.28566868734197 26.112264648952987,198.30674024840482 26.01724441317492,198.24352554407596 25.979236318846233,198.14343546586315 25.922224177367752,198.06441687076222 25.82245292980224,198.04861313985748 25.717930670420174,198.0591489609069 25.71317965866183,198.01173775231655 25.717930670420174,198.00120192334725 25.708428646845277,198.01700566615546 25.694175611482933,198.0433452286743 25.679922576091485,198.02227357953961 25.684673587908037,198.02227357953961 25.670420552545693,198.0433452286743 25.67517156433314,198.02227357953961 25.694175611482933,198.00120192334725 25.69892662327038,197.99066609260626 25.622910434642108,197.885307688357 25.608657399279764,197.8168246311252 25.565898293163627,197.7220018136286 25.546894246013835,197.69566211678102 25.485131092747906,197.65878652269384 25.40911490409053,197.61137501287158 25.342600739037152,197.62191090702981 25.290339609375224,197.58503526978166 25.26183353862143,197.58503526978166 25.200070385384606,197.60083911695983 25.128805208514677,197.64298269004576 25.06704205524875,197.68512623495553 24.995776878437027,197.67985829338068 24.948266760533443,197.71146593621597 24.848495512938825,197.75887737073572 24.819989442214137,197.8168246311252 24.758226288919104,197.83262842017575 24.69171212389483,197.87477183824376 24.6394509942038,197.885307688357 24.534928734850837,197.9379869125114 24.439908499043668,197.9748623432024 24.354390286811395,198.07495268917046 24.268872074608225,198.16450707448894 24.154847791680368,198.16450707448894 24.097835650201887,198.16450707448894 23.988562379032373,198.1487033686899 23.95055428473279,198.13816756260348 23.964807320095133,198.12236385020515 23.964807320095133,198.14343546586315 23.955305296491133,198.13816756260348 23.9125461904041,198.12763175477812 23.836530001746723,198.0696847801919 23.789019883872243,198.08548850581792 23.698750659881625,198.09602432069732 23.636987506615696,198.0433452286743 23.54671828262508,198.07495268917046 23.470702093967702,197.9748623432024 23.408938940701773,197.91164730594755 23.356677811039845,197.8800397635241 23.342424775648396,197.87477183824376 23.304416681348812,197.80628876955598 23.237902516295435,197.75887737073572 23.19039239839185,197.77994910794223 23.209396445541643,197.76414530569673 23.16663733945461,197.7325376892877 23.185641386604402,197.63771474495297 23.1951434101793,197.57449936944613 23.13338025691337,197.5112839305366 23.114376209763577,197.44280046681524 23.08587013903889,197.37431692864993 23.05261305649765,197.31110128890214 23.019355973956408,197.2110097295881 23.005102938594064,197.1267219773763 22.938588773540687,196.95287813233153 22.891078655637102,196.8738580442041 22.829315502371173,196.81064190236066 22.800809431646485,196.74215767711576 22.75805032553035,196.64733324236659 22.68203413693118,196.55250866489587 22.67253211332718,196.48929220062564 22.63452401899849,196.4787561170706 22.620270983636146,196.49456024172832 22.644026042573387,196.49456024172832 22.629773007211043,196.48929220062564 22.639275030815043,196.4840241590755 22.644026042573387,196.4840241590755 22.68203413693118,196.44714785587712 22.691536160506075,196.41553957881843 22.686785148689523,196.44714785587712 22.639275030815043,196.42607567291998 22.6250219954527,196.43661176528622 22.620270983636146,196.44714785587712 22.6250219954527,196.43661176528622 22.6250219954527,196.4313437193232 22.629773007211043,196.42607567291998 22.629773007211043,196.42607567291998 22.639275030815043,196.41553957881843 180.90973077600938,92.40676135829563 180.81471054023132,92.46480593648448 180.81471054023132,92.46480593648448 180.81471054023132,92.46480593648448 180.73869435160304,92.50702014132912 180.62942108043353,92.58089493128136 23.114376209763577,197.4111926892183 23.161886327638058,197.51655188620862 23.185641386604402,197.62191090702981 23.180890374816954,197.72726975168553 23.199894421966746,197.85370013272768 23.27115959880757,197.94852275205267 23.309167693107156,198.06441687076222 23.299665669561364,198.22245396187645 23.313918704923708,198.3594191202501 23.36142882279819,198.5332590848302 23.375681858189637,198.680759284769 23.39468590533943,198.79665205678975 23.380432869977085,198.97049081521618 23.380432869977085,199.09691870196184 23.356677811039845,199.19173945056536 23.1951434101793,199.26022101361013 23.033609009347856,199.27602444065633 22.900580679212,199.29709567057216 22.76755234913435,199.35504151648274 22.6155199718487,199.41825510583294 22.482491641741944,199.4603974634847 22.38272039417643,199.5078075821839 22.273447123006918,199.56048544999067 22.168924863624852,199.61316327378154 22.10241069860058,199.67110882907946 22.050149568909546,199.7290543311101 22.050149568909546,199.71851878925736 22.01689248639741,199.74485764058772 21.936125285952585,199.79226754528645 21.850607073749416,199.8133386025802 21.7508358261548,199.83967741431115 21.65581559034763,199.9081582732615 21.6130564842897,199.95556805509113 21.556044342782116,200.05565525518978 21.446771071641706,200.05565525518978 21.361252859409433,200.03985202363765 21.237726552877575,200.06619074069022 21.12845328170806,200.08199396563214 21.028682034171652,200.04511976792492 20.928910786577035,200.0240487881165 20.829139538982417,200.05565525518978 20.77212739753304,200.06619074069022 20.691360197088216,200.1241358794432 20.591588949522702,200.13993908987686 20.50131972550298,200.17154549882616 20.4443075840245,200.2610969047564 20.425303536874708,200.35064818344836 20.430054548662156,200.42439619976722 20.368291395396227,200.44546704572713 20.325532289309194,200.47707330143749 20.259018124226714,200.48760871649574 20.154495864873752,200.48234100919944 20.059475629066583,200.46127017557592 19.940700334351277,200.508679541319 19.916945275414037,200.53501806245185 19.935949322534725,200.59823046822567 19.92644729895983,200.68778126787947 19.89794122823514,200.735190463256 19.888439204660244,200.7667965736764 19.8741861692979,200.82474106830705 19.83617807496921,200.91955921733825 19.741157839191146,200.9827712374281 19.650888615171425,200.9827712374281 19.584374450118048,201.01964488653903 19.49410522612743,201.07232149070478 19.427591061074054,201.04598319412253 19.38958296677447,200.9985742325298 19.36582790777902,200.9985742325298 19.327819813479437,200.95643290341832 19.34207284884178,200.93536222828698 19.361076896020677,200.87741783537786 19.38008094317047,200.89848852986688 19.31831778990454,200.9300945584073 19.299313742725644,201.0249125489354 19.304064754542196,201.17767456695947 19.337321837054333,201.33043621473553 19.427591061074054,201.45685936736845 19.31831778990454,201.5253384691714 19.223297554126475,201.63595839953632 19.152032377256546,201.81505692278006 19.190040471585235,201.94147910336687 19.06176315326593,202.1100416164045 19.009502023604,202.26280100446093 19.076016188657377,202.39975738244902 19.147281365498202,202.4787705420822 19.133028330135858,202.57885373543468 19.11877529474441,202.70000686214553 19.104522259382065,202.86856734671528 19.20429350694758,202.92650990918264 19.35157487244578,202.96338242120328 19.48935421431088,203.05292986060522 19.565370402968256,203.2056869636217 19.69364772128756,203.34790876127227 19.864684145723004,203.46906040987233 20.030969558341894,203.52173496706382 20.173499912023544,203.46379295173756 20.35878937182133,203.46906040987233 20.544078831619117,203.53226987323433 20.734119303204352,203.5744094802576 20.93366179833538,203.59021182562356 21.009677986992756,203.60601416703867 21.156959352461854,203.65342116749525 21.294738694356056,203.66395605164143 21.432518036250258,203.66922349306697 21.57504838996101,203.71136300855142 21.731831779005006,203.7060955706511 21.89336617983645,203.7324327557144 22.026394509943202,203.7587699297801 22.154671828262508,203.79564195498097 22.32570825269795,203.81144424490049 22.52525074785808,203.81144424490049 22.65827907793573,203.72716531958213 22.772303360921796,203.74296762667655 22.924335738178343,203.79564195498097 23.0478620447102,203.7324327557144 23.13338025691337,203.7377001914174 23.261657575232675,203.80617681536387 23.347175787435845,204.0010714148957 23.39468590533943,204.1327566140244 23.44219602321391,204.2855111003737 23.56097131795832,204.15382622034303 23.770015836693347,204.22230239229248 23.964807320095133,204.1696284204845 24.121590709139127,204.02740847673704 24.28787612178712,203.92732758323837 24.43515748725622,204.03267588777453 24.587189864512766,204.1222218082039 24.83899348936393,204.1222218082039 24.95301777232089,204.0748151602893 25.10029913778999,204.02740847673704 25.266584550437983,203.95893209308633 25.423367939481977,203.87992078875686 25.527890198864043,203.88518821213802 25.679922576091485,203.96419950985 25.812950906227343,204.03267588777453 25.945979236334097,204.06954775277336 26.050501495716162,204.0010714148957 26.212035896547604,203.95893209308633 26.397325356316287,203.99580400121704 26.525602674664697,203.94839725823113 26.672884040133795,203.90099047958574 26.76790427591186,203.87465336494643 26.924687664955854,203.88518821213802 27.067218018637504,203.96419950985 27.185993313411018,203.99580400121704 27.319021643488668,204.02214106524116 27.447298961837078,204.12748921133607 27.480556044349214,204.2855111003737 27.58507830373128,204.41719570533678 27.566074256552383,204.59628632662134 27.504311103286454,204.74377233862833 27.485307056136662,204.92286203220283 27.54707020940259,205.06507995585707 27.589829315518728,205.2125648711626 27.475805032561766,205.33371293633172 27.32377265530522,205.37585133920948 27.22875241949805,205.53387009918515 27.219250395923154,205.69188846309407 27.333274678880116,205.83410465198904 27.442547950020526,205.98685501609725 27.613584374455968,206.03952746962023 27.642090445180656,206.18701010540826 27.71810663380893,206.29762185585787 27.884392046456924,206.31869073869166 27.946155199722853,206.48197434203394 28.10293858879595,206.5715167836861 28.283477036777185,206.6715934797503 28.39750131976325,206.79273874142746 28.487770543753868,206.92968527867197 28.606545838469174,207.05609720289794 28.692064050701447,207.21937889658875 28.85834946334944,207.32472170038818 29.02938588775578,207.31945456438552 29.214675347524462,207.3563245072146 29.37145873659756,207.43533145497713 29.5519971846079,207.47746845328948 29.699278550047893,207.51960542346205 29.86081295090844,207.59334505350853 30.00809431640664,207.65128327373895 30.17913074081298,207.57754371146802 30.32166109449463,207.5670094812449 30.506950554292416,207.54594101551265 30.682737990515307,207.54594101551265 30.825268344196957,207.53013966160142 30.953545662516262,207.4827355761081 31.086573992623016,207.42479720099072 31.214851310942322,207.45639995766032" stroke="#4DD2FF" stroke-dasharray="none" stroke-linecap="round" stroke-linejoin="round" stroke-width="0.5"><title>2026-03-14 12.0km</title><desc>9223370263378906807</desc></polyline></svg>