<?xml version="1.0" encoding="utf-8" ?>
<svg baseProfile="full" height="300mm" version="1.1" viewBox="0,0,200,300" width="200mm" xmlns="http://www.w3.org/2000/svg" xmlns:ev="http://www.w3.org/2001/xml-events" xmlns:xlink="http://www.w3.org/1999/xlink"><defs /><rect fill="#222222" height="300" width="200" x="0" y="0" /><text fill="#FFFFFF" style="font-size:12px; font-family:Arial; font-weight:bold;" x="10" y="20">Over 10km Runs</text><text fill="#FFFFFF" style="font-size:4px; font-family:Arial" x="10" y="280">Runner</text><text fill="#FFFFFF" style="font-size:9px; font-family:Arial" x="10" y="290">yihong0618</text><text fill="#FFFFFF" style="font-size:4px; font-family:Arial" x="65" y="280">SPECIAL TRACKS</text><rect fill="yellow" height="2.6" width="2.6" x="65" y="283" /><text fill="#FFFFFF" style="font-size:3px; font-family:Arial" x="70" y="285.5">Over 20.0 km</text><rect fill="red" height="2.6" width="2.6" x="65" y="287" /><text fill="#FFFFFF" style="font-size:3px; font-family:Arial" x="70" y="289.5">Over 40.0 km</text><text fill="#FFFFFF" style="font-size:4px; font-family:Arial" x="120" y="280">STATISTICS</text><text fill="#FFFFFF" style="font-size:3px; font-family:Arial" x="120" y="285">Number: 1</text><text fill="#FFFFFF" style="font-size:3px; font-family:Arial" x="120" y="290">Weekly: 1.0</text><text fill="#FFFFFF" style="font-size:3px; font-family:Arial" x="141" y="285">Total: 12.0 km</text><text fill="#FFFFFF" style="font-size:3px; font-family:Arial" x="141" y="290">Avg: 12.0 km</text><text fill="#FFFFFF" style="font-size:3px; font-family:Arial" x="167" y="285">Min: 12.0 km</text><text fill="#FFFFFF" style="font-size:3px; font-family:Arial" x="167" y="290">Max: 12.0 km</text><polyline fill="none" opacity="1" points="29.965335210290505,207.5722767195366 29.85606193912099,207.50907137516697 29.689776526472997,207.46166732530037 29.590005278907483,207.4195303621891 29.42847087807604,207.40899611698842 29.319197606906528,207.32998922203842 29.181418265012326,207.28785217091354 29.034136899543228,207.25098222808447 28.924863628373714,207.2720507694903 28.620798873831518,207.19831084377802 28.63980292098131,207.16670799208805 28.573288755957037,207.00869349598725 28.506774590874556,206.95602190930003 28.430758402246283,206.79800688521937 28.335738166468218,206.71899922467128 28.250219954235945,206.5978539528769 28.18845680099912,206.55571641248025 28.079183529829606,206.51357884393292 27.946155199722853,206.48724284927448 27.846383952128235,206.3871659692668 27.884392046456924,206.28708893042494 27.765616751712514,206.2502184023906 27.623086398059968,206.24495118233608 27.623086398059968,206.07113267379827 27.570825268368935,205.96052064613104 27.456800985411974,205.9394516664761 27.34752771424246,205.86044293006853 27.276262537401635,205.74456327092048 27.16698926623212,205.6497524822662 27.152736230869778,205.4970014673563 27.22875241949805,205.31264630128862 27.395037832146045,205.29157710513027 27.537568185827695,205.19149832720723 27.556572232977487,205.04928084320272 27.442547950020526,204.9650036642597 27.480556044349214,204.8227856692938 27.471054020774318,204.66476529863576 27.542319197615143,204.5436160795507 27.570825268368935,204.40139713399185 27.504311103286454,204.28551479296584 27.485307056136662,204.1222256781839 27.376033784996253,204.0168776377177 27.224001407710603,203.9536687289401 27.22875241949805,203.96947096207805 27.252507478464395,203.96947096207805 27.214499384135706,203.96947096207805 27.224001407710603,203.9747383722497 27.219250395923154,203.9747383722497 27.20974837234826,203.98000578197025 27.214499384135706,203.98527319124696 27.214499384135706,203.98000578197025 27.12423016014509,203.8325181432847 27.14798521908233,203.7271696186799 27.181242301594466,203.6165534783613 27.257258490251843,203.532274384037 27.338025690667564,203.47433244131753 27.42829491465818,203.3953206154365 27.54707020940259,203.31630869049695 27.656343480543,203.20569182920735 27.72760865741293,203.12667966659137 27.71810663380893,203.02659745176425 27.59933133906452,202.94758506467042 27.561323244764935,202.8264325454038 27.55182122119004,202.70001227706598 27.566074256552383,202.58939433426713 27.566074256552383,202.47350866217312 27.618335386243416,202.3418201398199 27.49005806792411,202.26280689435953 27.471054020774318,202.19959622665556 27.390286820358597,202.10478010627412 27.42829491465818,201.92568260082044 27.49956009152811,201.8361336572525 27.49956009152811,201.68864100229985 27.5280661622528,201.535880388652 27.60408235088107,201.41472515595524 27.623086398059968,201.27249915084394 27.661094492359553,201.15134341186786 27.618335386243416,201.04072275112412 27.627837409818312,200.93010189622873 27.594580327306176,200.83528386609396 27.58032729194383,200.68778886899236 27.67059651593445,200.5455612234582 27.70385359847569,200.42440408706534 27.67059651593445,200.2927112833313 27.67059651593445,200.15575047553648 27.661094492359553,200.00825388812882 27.684849551296793,199.78700835975178 27.67059651593445,199.73433073851993 27.16698926623212,199.00210724351564 27.076720042241504,198.9705002823939 27.052964983304264,198.85987579364883 27.02445891255047,198.79139386996394 27.00545486540068,198.75451895715378 26.972197782888543,198.67023336111743 26.905683617835166,198.62282266381953 26.848671476356685,198.56487620755433 26.786908323090756,198.50166183088004 26.729896181612276,198.45951887785122 26.677635051921243,198.38050076498257 26.549357733601937,198.29094678394904 26.48284356854856,198.1855889962426 26.411578391707735,198.16451741756464 26.311807144113118,198.20666056786285 26.216786908335052,198.2171963510409 26.112264648952987,198.23826791210377 26.01724441317492,198.1750532077749 25.979236318846233,198.0749631295621 25.922224177367752,197.99594453446116 25.82245292980224,197.98014080355642 25.717930670420174,197.99067662460584 25.71317965866183,197.9432654160155 25.717930670420174,197.9327295870462 25.708428646845277,197.9485333298544 25.694175611482933,197.97487289237324 25.679922576091485,197.95380124323856 25.684673587908037,197.95380124323856 25.670420552545693,197.97487289237324 25.67517156433314,197.95380124323856 25.694175611482933,197.9327295870462 25.69892662327038,197.9221937563052 25.622910434642108,197.81683535205593 25.608657399279764,197.74835229482414 25.565898293163627,197.65352947732754 25.546894246013835,197.62718978047997 25.485131092747906,197.5903141863928 25.40911490409053,197.54290267657052 25.342600739037152,197.55343857072876 25.290339609375224,197.5165629334806 25.26183353862143,197.5165629334806 25.200070385384606,197.53236678065878 25.128805208514677,197.5745103537447 25.06704205524875,197.61665389865448 24.995776878437027,197.61138595707962 24.948266760533443,197.64299359991492 24.848495512938825,197.69040503443466 24.819989442214137,197.74835229482414 24.758226288919104,197.7641560838747 24.69171212389483,197.8062995019427 24.6394509942038,197.81683535205593 24.534928734850837,197.86951457621035 24.439908499043668,197.90639000690135 24.354390286811395,198.0064803528694 24.268872074608225,198.09603473818788 24.154847791680368,198.09603473818788 24.097835650201887,198.09603473818788 23.988562379032373,198.08023103238884 23.95055428473279,198.06969522630243 23.964807320095133,198.0538915139041 23.964807320095133,198.0749631295621 23.955305296491133,198.06969522630243 23.9125461904041,198.05915941847707 23.836530001746723,198.00121244389084 23.789019883872243,198.01701616951686 23.698750659881625,198.02755198439627 23.636987506615696,197.97487289237324 23.54671828262508,198.0064803528694 23.470702093967702,197.90639000690135 23.408938940701773,197.8431749696465 23.356677811039845,197.81156742722305 23.342424775648396,197.8062995019427 23.304416681348812,197.73781643325492 23.237902516295435,197.69040503443466 23.19039239839185,197.71147677164117 23.209396445541643,197.69567296939567 23.16663733945461,197.66406535298665 23.185641386604402,197.56924240865192 23.1951434101793,197.50602703314507 23.13338025691337,197.44281159423554 23.114376209763577,197.3743281305142 23.08587013903889,197.30584459234888 23.05261305649765,197.24262895260108 23.019355973956408,197.14253739328706 23.005102938594064,197.05824964107524 22.938588773540687,196.88440579603048 22.891078655637102,196.80538570790304 22.829315502371173,196.7421695660596 22.800809431646485,196.6736853408147 22.75805032553035,196.57886090606553 22.68203413693118,196.4840363285948 22.67253211332718,196.42081986432459 22.63452401899849,196.41028378076953 22.620270983636146,196.42608790542727 22.644026042573387,196.42608790542727 22.629773007211043,196.42081986432459 22.639275030815043,196.41555182277443 22.644026042573387,196.41555182277443 22.68203413693118,196.37867551957606 22.691536160506075,196.34706724251737 22.686785148689523,196.37867551957606 22.639275030815043,196.35760333661892 22.6250219954527,196.36813942898516 22.620270983636146,196.37867551957606 22.6250219954527,196.36813942898516 22.6250219954527,196.36287138302214 22.629773007211043,196.35760333661892 22.629773007211043,196.35760333661892 22.639275030815043,196.34706724251737 180.90973077600938,92.33828902199457 180.81471054023132,92.39633360018343 180.81471054023132,92.39633360018343 180.81471054023132,92.39633360018343 180.73869435160304,92.43854780502807 180.62942108043353,92.51242259498031 23.114376209763577,197.34272035291724 23.161886327638058,197.44807954990756 23.185641386604402,197.55343857072876 23.180890374816954,197.65879741538447 23.199894421966746,197.78522779642662 23.27115959880757,197.8800504157516 23.309167693107156,197.99594453446116 23.299665669561364,198.1539816255754 23.313918704923708,198.29094678394904 23.36142882279819,198.46478674852915 23.375681858189637,198.61228694846795 23.39468590533943,198.7281797204887 23.380432869977085,198.90201847891512 23.380432869977085,199.02844636566078 23.356677811039845,199.1232671142643 23.1951434101793,199.19174867730908 23.033609009347856,199.20755210435527 22.900580679212,199.2286233342711 22.76755234913435,199.2865691801817 22.6155199718487,199.34978276953188 22.482491641741944,199.39192512718364 22.38272039417643,199.43933524588283 22.273447123006918,199.4920131136896 22.168924863624852,199.54469093748048 22.10241069860058,199.6026364927784 22.050149568909546,199.66058199480904 22.050149568909546,199.6500464529563 22.01689248639741,199.67638530428667 21.936125285952585,199.7237952089854 21.850607073749416,199.74486626627913 21.7508358261548,199.7712050780101 21.65581559034763,199.83968593696045 21.6130564842897,199.88709571879008 21.556044342782116,199.98718291888872 21.446771071641706,199.98718291888872 21.361252859409433,199.9713796873366 21.237726552877575,199.99771840438916 21.12845328170806,200.01352162933108 21.028682034171652,199.97664743162386 20.928910786577035,199.95557645181543 20.829139538982417,199.98718291888872 20.77212739753304,199.99771840438916 20.691360197088216,200.05566354314215 20.591588949522702,200.0714667535758 20.50131972550298,200.1030731625251 20.4443075840245,200.19262456845536 20.425303536874708,200.2821758471473 20.430054548662156,200.35592386346616 20.368291395396227,200.37699470942607 20.325532289309194,200.40860096513643 20.259018124226714,200.4191363801947 20.154495864873752,200.4138686728984 20.059475629066583,200.39279783927486 19.940700334351277,200.44020720501794 19.916945275414037,200.4665457261508 19.935949322534725,200.5297581319246 19.92644729895983,200.61930893157842 19.89794122823514,200.66671812695495 19.888439204660244,200.69832423737535 19.8741861692979,200.756268732006 19.83617807496921,200.8510868810372 19.741157839191146,200.91429890112704 19.650888615171425,200.91429890112704 19.584374450118048,200.95117255023797 19.49410522612743,201.00384915440372 19.427591061074054,200.97751085782147 19.38958296677447,200.93010189622873 19.36582790777902,200.93010189622873 19.327819813479437,200.88796056711726 19.34207284884178,200.86688989198592 19.361076896020677,200.8089454990768 19.38008094317047,200.83001619356583 19.31831778990454,200.86162222210623 19.299313742725644,200.95644021263433 19.304064754542196,201.1092022306584 19.337321837054333,201.26196387843447 19.427591061074054,201.3883870310674 19.31831778990454,201.45686613287035 19.223297554126475,201.56748606323526 19.152032377256546,201.746584586479 19.190040471585235,201.87300676706582 19.06176315326593,202.04156928010343 19.009502023604,202.19432866815987 19.076016188657377,202.33128504614797 19.147281365498202,202.41029820578115 19.133028330135858,202.51038139913362 19.11877529474441,202.63153452584447 19.104522259382065,202.80009501041422 19.20429350694758,202.85803757288159 19.35157487244578,202.89491008490222 19.48935421431088,202.98445752430416 19.565370402968256,203.13721462732065 19.69364772128756,203.2794364249712 19.864684145723004,203.40058807357127 20.030969558341894,203.45326263076277 20.173499912023544,203.3953206154365 20.35878937182133,203.40058807357127 20.544078831619117,203.46379753693327 20.734119303204352,203.50593714395654 20.93366179833538,203.5217394893225 21.009677986992756,203.5375418307376 21.156959352461854,203.5849488311942 21.294738694356056,203.59548371534038 21.432518036250258,203.6007511567659 21.57504838996101,203.64289067225036 21.731831779005006,203.63762323435003 21.89336617983645,203.66396041941334 22.026394509943202,203.69029759347904 22.154671828262508,203.7271696186799 22.32570825269795,203.74297190859943 22.52525074785808,203.74297190859943 22.65827907793573,203.65869298328107 22.772303360921796,203.6744952903755 22.924335738178343,203.7271696186799 23.0478620447102,203.66396041941334 23.13338025691337,203.66922785511633 23.261657575232675,203.7377044790628 23.347175787435845,203.93259907859465 23.39468590533943,204.06428427772335 23.44219602321391,204.21703876407264 23.56097131795832,204.08535388404198 23.770015836693347,204.15383005599142 23.964807320095133,204.10115608418346 24.121590709139127,203.95893614043598 24.28787612178712,203.8588552469373 24.43515748725622,203.96420355147347 24.587189864512766,204.05374947190285 24.83899348936393,204.05374947190285 24.95301777232089,204.00634282398823 25.10029913778999,203.95893614043598 25.266584550437983,203.89045975678528 25.423367939481977,203.8114484524558 25.527890198864043,203.81671587583696 25.679922576091485,203.89572717354895 25.812950906227343,203.96420355147347 25.945979236334097,204.0010754164723 26.050501495716162,203.93259907859465 26.212035896547604,203.89045975678528 26.397325356316287,203.92733166491598 26.525602674664697,203.87992492193007 26.672884040133795,203.8325181432847 26.76790427591186,203.80618102864537 26.924687664955854,203.81671587583696 27.067218018637504,203.89572717354895 27.185993313411018,203.92733166491598 27.319021643488668,203.9536687289401 27.447298961837078,204.059016875035 27.480556044349214,204.21703876407264 27.58507830373128,204.34872336903572 27.566074256552383,204.52781399032028 27.504311103286454,204.67530000232728 27.485307056136662,204.85438969590177 27.54707020940259,204.99660761955602 27.589829315518728,205.14409253486156 27.475805032561766,205.26524060003067 27.32377265530522,205.30737900290842 27.22875241949805,205.4653977628841 27.219250395923154,205.62341612679302 27.333274678880116,205.76563231568798 27.442547950020526,205.9183826797962 27.613584374455968,205.97105513331917 27.642090445180656,206.1185377691072 27.71810663380893,206.2291495195568 27.884392046456924,206.2502184023906 27.946155199722853,206.41350200573288 28.10293858879595,206.50304444738504 28.283477036777185,206.60312114344924 28.39750131976325,206.7242664051264 28.487770543753868,206.8612129423709 28.606545838469174,206.9876248665969 28.692064050701447,207.1509065602877 28.85834946334944,207.25624936408713 29.02938588775578,207.25098222808447 29.214675347524462,207.28785217091354 29.37145873659756,207.36685911867608 29.5519971846079,207.40899611698842 29.699278550047893,207.451133087161 29.86081295090844,207.52487271720747 30.00809431640664,207.5828109374379 30.17913074081298,207.50907137516697 30.32166109449463,207.49853714494384 30.506950554292416,207.4774686792116 30.682737990515307,207.4774686792116 30.825268344196957,207.46166732530037 30.953545662516262,207.41426323980704 31.086573992623016,207.35632486468967 31.214851310942322,207.38792762135927 31.338377617445076,207.4880029129672 31.47615695936838,207.5143384896037 31.55217314796755,207.61441358059164" stroke="#4DD2FF" stroke-dasharray="none" stroke-linecap="round" stroke-linejoin="round" stroke-width="0.5"><title>2026-03-14 12.0km</title><desc>9223370263378906807</desc></polyline></svg>