<?xml version="1.0" encoding="utf-8" ?>
<svg baseProfile="full" height="300mm" version="1.1" viewBox="0,0,200,300" width="200mm" xmlns="http://www.w3.org/2000/svg" xmlns:ev="http://www.w3.org/2001/xml-events" xmlns:xlink="http://www.w3.org/1999/xlink"><defs /><rect fill="#222222" height="300" width="200" x="0" y="0" /><text fill="#FFFFFF" style="font-size:12px; font-family:Arial; font-weight:bold;" x="10" y="20">Over 10km Runs</text><text fill="#FFFFFF" style="font-size:4px; font-family:Arial" x="10" y="280">Runner</text><text fill="#FFFFFF" style="font-size:9px; font-family:Arial" x="10" y="290">yihong0618</text><text fill="#FFFFFF" style="font-size:4px; font-family:Arial" x="65" y="280">SPECIAL TRACKS</text><rect fill="yellow" height="2.6" width="2.6" x="65" y="283" /><text fill="#FFFFFF" style="font-size:3px; font-family:Arial" x="70" y="285.5">Over 20.0 km</text><rect fill="red" height="2.6" width="2.6" x="65" y="287" /><text fill="#FFFFFF" style="font-size:3px; font-family:Arial" x="70" y="289.5">Over 40.0 km</text><text fill="#FFFFFF" style="font-size:4px; font-family:Arial" x="120" y="280">STATISTICS</text><text fill="#FFFFFF" style="font-size:3px; font-family:Arial" x="120" y="285">Number: 1</text><text fill="#FFFFFF" style="font-size:3px; font-family:Arial" x="120" y="290">Weekly: 1.0</text><text fill="#FFFFFF" style="font-size:3px; font-family:Arial" x="141" y="285">Total: 12.0 km</text><text fill="#FFFFFF" style="font-size:3px; font-family:Arial" x="141" y="290">Avg: 12.0 km</text><text fill="#FFFFFF" style="font-size:3px; font-family:Arial" x="167" y="285">Min: 12.0 km</text><text fill="#FFFFFF" style="font-size:3px; font-family:Arial" x="167" y="290">Max: 12.0 km</text><polyline fill="none" opacity="1" points="30.060355446097674,207.51960577192222 29.932078127749264,207.51960577192222 29.79904979764251,207.4247977236846 29.651768432173412,207.39846212941484 29.556748196395347,207.3510580320435 29.404715819109697,207.340523783354 29.271687489002943,207.27205112389493 29.138659158925293,207.2141126616625 28.99612880521454,207.20884552608186 28.87260249868268,207.23518119954315 28.64930494458531,207.1456398649243 28.620798873831518,207.04556410517398 28.55428470877814,206.94548818659678 28.46401548475842,206.8875494242966 28.41650536688394,206.70319846277198 28.297730072168633,206.61365637267954 28.24071793066105,206.54518292387002 28.145697694882983,206.50831257447499 28.050677459104918,206.44510621108566 27.89864508184837,206.4240374091969 27.841632940340787,206.30815887300923 27.860636987519683,206.18701290291574 27.722857645596378,206.21861622191136 27.594580327306176,206.15540956808763 27.623086398059968,205.97105646586715 27.5280661622528,205.91311680812578 27.409290867537493,205.881513336004 27.319021643488668,205.7709010588369 27.2430054548895,205.6655558525381 27.157487242657226,205.5496759223097 27.162238254473777,205.40219206669644 27.309519619942876,205.26524246328336 27.442547950020526,205.23890596698766 27.566074256552383,205.08088675813633 27.532817174011143,204.97027307629105 27.447298961837078,204.86492653219102 27.46155199719942,204.72797576167432 27.518564138677903,204.58048998381128 27.532817174011143,204.43827122838047 27.57557628012728,204.3065869094862 27.471054020774318,204.19070448134516 27.452049973624526,204.0379500460367 27.357029737817356,203.93260194396498 27.219250395923154,203.92206712407278 27.224001407710603,203.9167997134682 27.2430054548895,203.92206712407278 27.214499384135706,203.92733453424444 27.22875241949805,203.92733453424444 27.219250395923154,203.92733453424444 27.214499384135706,203.93260194396498 27.214499384135706,203.92733453424444 27.181242301594466,203.9009974790024 27.133732183719985,203.748242341695 27.152736230869778,203.64289375547378 27.20974837234826,203.54281243548758 27.276262537401635,203.4638007548383 27.34752771424246,203.4058587927575 27.471054020774318,203.33211440035666 27.57557628012728,203.23730005478137 27.684849551296793,203.137218090862 27.72760865741293,203.04240345214203 27.684849551296793,202.94758867079508 27.58032729194383,202.87911124002494 27.537568185827695,202.72108611589283 27.566074256552383,202.61573581303674 27.57557628012728,202.52092038991395 27.589829315518728,202.37342944824923 27.58032729194383,202.257543466254 27.480556044349214,202.20486794947283 27.442547950020526,202.1416572712078 27.395037832146045,202.01523572453516 27.456800985411974,201.85194085145122 27.509062115073903,201.73605391067395 27.509062115073903,201.59382873760842 27.556572232977487,201.44106800906957 27.623086398059968,201.3304479400358 27.627837409818312,201.1882218517203 27.651592468784656,201.06706604184 27.618335386243416,200.95644531639846 27.60883336266852,200.8458243967907 27.594580327306176,200.75627398633878 27.594580327306176,200.58770816266406 27.694351574900793,200.46655119842035 27.699102586659137,200.3401262917614 27.661094492359553,200.20843341097498 27.67059651593445,200.06093705779494 27.661094492359553,199.89763712127387 27.675347527721897,199.7132657166294 27.20499736056081,198.93363209985546 27.14798521908233,198.93363209985546 27.06246700687916,198.8809538049136 27.043462959700264,198.791400602433 27.019707900763024,198.7176508107077 26.995952841825783,198.68604373070775 26.962695759313647,198.59649025125327 26.905683617835166,198.52800809284963 26.820165405602893,198.49640091771653 26.753651240549516,198.44899012529277 26.71089213443338,198.38050780659614 26.63487594583421,198.30675753400283 26.525602674664697,198.21720351551994 26.44958648600732,198.1329172642254 26.387823332770495,198.12238147488097 26.27855006160098,198.15398883761372 26.188280837610364,198.18559618449945 26.064754531078506,198.18559618449945 25.998240365996026,198.09604199383102 25.960232271725545,198.00648767589882 25.898469118430512,197.93800487630506 25.79394685907755,197.93273696555116 25.70367763505783,197.92746905436798 25.708428646845277,197.89059366375295 25.741685729357414,197.89059366375295 25.732183705782518,197.88005783388144 25.69892662327038,197.90112949184913 25.66566954072914,197.9063974052333 25.69892662327038,197.9063974052333 25.684673587908037,197.9063974052333 25.684673587908037,197.9063974052333 25.69892662327038,197.89059366375295 25.670420552545693,197.83264657774635 25.627661446429556,197.7325560309473 25.603906387492316,197.65353706592214 25.56114728137618,197.59558976190965 25.527890198864043,197.5797859424747 25.456625021994114,197.5323744603993 25.39486186875729,197.47442704497007 25.30934365655412,197.49549883856525 25.27133556222543,197.47442704497007 25.266584550437983,197.4638911455295 25.176315326418262,197.51130267913322 25.105050149577437,197.5376424046226 25.057540031673852,197.57451800179115 24.98152384304558,197.57451800179115 24.91976068977965,197.62192945215793 24.843744501151377,197.67460879960709 24.78198134788545,197.71675224586943 24.739222241798416,197.72728810303306 24.667957064928487,197.7641635892178 24.601442899904214,197.80103905382566 24.51117367585539,197.8431824155232 24.406651416502427,197.90112949184913 24.325884216086706,198.00121977087474 24.230863980279537,198.04863090018262 24.150096779863816,198.04336299869829 24.0598275558732,198.03809509675557 23.964807320095133,198.02755929155683 23.964807320095133,198.0117555804718 23.964807320095133,198.00648767589882 23.983811367244925,198.01702348460822 23.94580327294534,198.03809509675557 23.87928910786286,197.98541605316495 23.822276966413483,197.95380860588557 23.755762801360106,197.995951865425 23.684497624490177,197.93800487630506 23.598979412287008,197.94327278660057 23.518212211871287,197.92220114274096 23.44219602321391,197.82737865818854 23.380432869977085,197.79050320899478 23.356677811039845,197.7641635892178 23.3329227520735,197.75889566393744 23.27591061059502,197.67460879960709 23.199894421966746,197.6482691313904 23.1951434101793,197.65353706592214 23.19039239839185,197.63773326101364 23.16663733945461,197.5903218225394 23.1951434101793,197.49549883856525 23.204645433754195,197.4270154836122 23.128629245155025,197.3638000129904 23.104874186159577,197.30585244253598 23.062115080072545,197.2426368503584 23.043111032922752,197.1688852459847 23.009853950381512,197.05298969327487 22.99560091504827,196.87914596451083 22.919584726390895,196.8159299442268 22.881576632062206,196.7263738069123 22.81031145522138,196.673693666693 22.800809431646485,196.59467337373644 22.72954425480566,196.4945808604316 22.677283125114627,196.42082838045462 22.65827907793573,196.36287994276427 22.629773007211043,196.36814798476917 22.639275030815043,196.378684067422 22.644026042573387,196.378684067422 22.629773007211043,196.37341602631932 22.644026042573387,196.378684067422 22.653528066177387,196.37341602631932 22.686785148689523,196.2996634045121 22.691536160506075,196.29439535679194 22.63452401899849,196.2996634045121 22.629773007211043,196.31019949861366 22.620270983636146,196.31546754501687 22.620270983636146,196.32600363649544 22.629773007211043,196.3207355909799 22.629773007211043,196.31546754501687 22.629773007211043,196.30493145177752 22.63452401899849,196.31546754501687 22.639275030815043,196.30493145177752 180.90973077600938,92.2908851839893 180.81471054023132,92.34892976217816 180.81471054023132,92.34892976217816 180.81471054023132,92.34892976217816 180.7244413162407,92.40697428650674 23.08587013903889,197.24790481877426 23.128629245155025,197.32165633066688 23.1951434101793,197.42174753014478 23.16663733945461,197.54817829173044 23.19039239839185,197.65880500000276 23.209396445541643,197.76943151405067 23.280661622382468,197.86952200227825 23.309167693107156,198.00648767589882 23.313918704923708,198.1329172642254 23.33767376386095,198.3120254134701 23.347175787435845,198.4753294588154 23.380432869977085,198.59649025125327 23.38993489355198,198.74399003195867 23.36617983461474,198.91256078715378 23.380432869977085,199.00738163879942 23.323420728498604,199.1232735970625 23.128629245155025,199.1232735970625 22.99560091504827,199.17595168944536 22.857821573124966,199.20229071912036 22.710540207655868,199.26550434545425 22.572760865732562,199.3181823189443 22.43973253565491,199.3603246660423 22.354214323451743,199.40773477283437 22.240190040465677,199.46568041048522 22.12141474575037,199.51835821665009 22.078655639634235,199.58683929885228 22.050149568909546,199.60791038609386 22.050149568909546,199.61317815680377 21.997888439218514,199.65005253945492 21.917121238802793,199.6816591359675 21.812598979420727,199.68692690051466 21.727080767217558,199.74487228145517 21.636811543197837,199.79754985425097 21.594052437110804,199.8660306330712 21.527538272057427,199.9450468238465 21.423016012646258,199.93451133746566 21.313742741534952,199.92397584933133 21.20446947036544,199.95558230847746 21.08569417562103,199.95558230847746 20.995424951601308,199.90817261381017 20.895653704035794,199.91344035941802 20.810135491832625,199.9503145663839 20.748372338537592,199.96085005012355 20.662854126334423,200.01352744239557 20.56308287876891,200.0345983869811 20.487066690140637,200.08727571760392 20.430054548662156,200.18209480178484 20.439556572237052,200.26637831242988 20.396797466120915,200.31905544931578 20.35403836000478,200.3453940012696 20.311279253917746,200.35592941895084 20.225761041714577,200.37700024906007 20.125989794149064,200.35592941895084 20.021467534766998,200.37173254218942 19.916945275414037,200.39807107212619 19.92644729895983,200.44021269710356 19.93119831077638,200.5139604730357 19.92644729895983,200.57717278371274 19.893190216447692,200.62458197512024 19.888439204660244,200.67725881261867 19.864684145723004,200.74573863556725 19.81717402781942,200.840556729112 19.707900756649906,200.85109206402194 19.612880520842737,200.8932333861194 19.541615344031015,200.9037687122327 19.460848143615294,200.95644531639846 19.418089037499158,200.90903637462907 19.370578919595573,200.88269805822347 19.35157487244578,200.8774303936334 19.31831778990454,200.83528906100037 19.35632588423323,200.81948605398065 19.370578919595573,200.77207700920553 19.332570825266885,200.8089507137738 19.299313742725644,200.83528906100037 19.31831778990454,200.94064233977406 19.304064754542196,201.12501015387897 19.38008094317047,201.25670111949148 19.408587013895158,201.37785656480992 19.26605666024261,201.42526515395002 19.17578743622289,201.57802592079315 19.147281365498202,201.75185668786798 19.147281365498202,201.88881392428084 19.03800809432869,202.04157356766154 19.0,202.2417408158435 19.099771247594617,202.28914875520059 19.161534400860546,202.39449960390266 19.147281365498202,202.49458274706194 19.10927327114041,202.64207340525536 19.133028330135858,202.7579586802931 19.251803624851163,202.8369712456588 19.38958296677447,202.88437873734438 19.527362308639567,202.97919361375898 19.589125461905496,203.14248556660095 19.726904803828802,203.27417231722575 19.90744325183914,203.37425406371403 20.092732711607823,203.43746350595393 20.24001407707692,203.337381859812 20.42055252508726,203.3795215196733 20.605841984885046,203.42166115134387 20.781629421078833,203.4638007548383 20.971669892664067,203.47433565131723 21.08094316383358,203.47960309889822 21.19496744676144,203.5480798773351 21.34699982404709,203.55334731876064 21.465775118762394,203.57441708001352 21.63206053141039,203.6007542716943 21.79359493224183,203.5954868342451 21.92662326237769,203.63762632154248 22.073904627846787,203.6586960546374 22.225937005103333,203.69030064105755 22.401724441326223,203.69556807059416 22.568009853945114,203.65342862201578 22.69628717226442,203.5954868342451 22.819813478796277,203.65342862201578 22.981347879656823,203.67976578067464 23.07636811543489,203.58495195800424 23.152384304092266,203.66923091854187 23.313918704923708,203.7693120378317 23.318669716682052,203.93260194396498 23.404187928914325,204.0432174465168 23.45169804681791,204.12222840096 23.64648953016149,204.05901964533405 23.82702797820093,204.06428704404607 24.036072496935958,204.01161303702975 24.17385183883016,203.86939299821825 24.354390286811395,203.84832333554368 24.482667605159804,203.95893898598297 24.667957064928487,204.01161303702975 24.877001583692618,204.01161303702975 24.995776878437027,203.95367157846704 25.15731127926847,203.87466041278822 25.318845680099912,203.83778850156523 25.470878057385562,203.7219052116452 25.58490234031342,203.80091656879813 25.727432694024174,203.89573006664796 25.86996304767672,203.9167997134682 25.993489354208577,203.93260194396498 26.098011613590643,203.87466041278822 26.25954601445119,203.84832333554368 26.435333450644976,203.87466041278822 26.577863804326626,203.82198624729426 26.70614112264593,203.77984688323704 26.815414393815445,203.75350976638947 26.981699806434335,203.80091656879813 27.128981171903433,203.85359075186716 27.214499384135706,203.87466041278822 27.366531761421356,203.93260194396498 27.471054020774318,204.05901964533405 27.518564138677903,204.22757618613468 27.566074256552383,204.36452804369765 27.561323244764935,204.5436184854334 27.51381312686135,204.70690638597443 27.466303008957766,204.86492653219102 27.594580327306176,204.99660968480748 27.556572232977487,205.13882718069726 27.414041879295837,205.24944056681852 27.276262537401635,205.30211353962295 27.214499384135706,205.44959762935105 27.257258490251843,205.6128831833812 27.34752771424246,205.7709010588369 27.504311103286454,205.881513336004 27.64684145699721,205.97105646586715 27.627837409818312,206.11853899076596 27.78462079889141,206.18174568155155 27.89864508184837,206.26602117067523 28.003167341201333,206.39770139694883 28.169452753820224,206.4925109895703 28.311983107530978,206.608389186953 28.440260425850283,206.71373281794877 28.49727256729966,206.87174793443046 28.635051909222966,206.9823582803583 28.734823156817583,207.15090700577275 28.920112616586266,207.2035783900792 29.095900052809156,207.2035783900792 29.2574344536406,207.25098259832885 29.437972901650937,207.32998953288916 29.580503255332587,207.38792788863066 29.765792715130374,207.4247977236846 29.913074080628576,207.50907155137975 30.069857469643466,207.51960577192222 30.221889846929116,207.45113330693857 30.392926271335455,207.4247977236846 30.563962695770897,207.4247977236846 30.72549709660234,207.43533195830605 30.858525426738197,207.40372924915573 31.015308815753087,207.3563251557389 31.134084110497497,207.29838677094085 31.267112440633355,207.37212652418384 31.381136723561212,207.45640042225568 31.509414041880518,207.49327021727004 31.556924159784103,207.61441367761654 31.59968326590024,207.7460910879272" stroke="#4DD2FF" stroke-dasharray="none" stroke-linecap="round" stroke-linejoin="round" stroke-width="0.5"><title>2026-03-14 12.0km</title><desc>9223370263378906807</desc></polyline></svg>