<?xml version="1.0" encoding="utf-8" ?>
<svg baseProfile="full" height="300mm" version="1.1" viewBox="0,0,200,300" width="200mm" xmlns="http://www.w3.org/2000/svg" xmlns:ev="http://www.w3.org/2001/xml-events" xmlns:xlink="http://www.w3.org/1999/xlink"><defs /><rect fill="#222222" height="300" width="200" x="0" y="0" /><text fill="#FFFFFF" style="font-size:12px; font-family:Arial; font-weight:bold;" x="10" y="20">Over 10km Runs</text><text fill="#FFFFFF" style="font-size:4px; font-family:Arial" x="10" y="280">Runner</text><text fill="#FFFFFF" style="font-size:9px; font-family:Arial" x="10" y="290">yihong0618</text><text fill="#FFFFFF" style="font-size:4px; font-family:Arial" x="65" y="280">SPECIAL TRACKS</text><rect fill="yellow" height="2.6" width="2.6" x="65" y="283" /><text fill="#FFFFFF" style="font-size:3px; font-family:Arial" x="70" y="285.5">Over 20.0 km</text><rect fill="red" height="2.6" width="2.6" x="65" y="287" /><text fill="#FFFFFF" style="font-size:3px; font-family:Arial" x="70" y="289.5">Over 40.0 km</text><text fill="#FFFFFF" style="font-size:4px; font-family:Arial" x="120" y="280">STATISTICS</text><text fill="#FFFFFF" style="font-size:3px; font-family:Arial" x="120" y="285">Number: 1</text><text fill="#FFFFFF" style="font-size:3px; font-family:Arial" x="120" y="290">Weekly: 1.0</text><text fill="#FFFFFF" style="font-size:3px; font-family:Arial" x="141" y="285">Total: 12.0 km</text><text fill="#FFFFFF" style="font-size:3px; font-family:Arial" x="141" y="290">Avg: 12.0 km</text><text fill="#FFFFFF" style="font-size:3px; font-family:Arial" x="167" y="285">Min: 12.0 km</text><text fill="#FFFFFF" style="font-size:3px; font-family:Arial" x="167" y="290">Max: 12.0 km</text><polyline fill="none" opacity="1" points="28.95812071088585,207.31945456438552 28.806088333629305,207.34052310579136 28.65405595637276,207.26678318007907 28.573288755957037,207.11403591679846 28.540031673415797,207.05083004444532 28.435509414062835,206.95075395031017 28.402252331521595,206.80854028013346 28.283477036777185,206.70846380143485 28.24071793066105,206.66105909817634 28.145697694882983,206.6241887487813 28.055428470892366,206.56098238539198 27.89864508184837,206.5451807846439 27.836881928582443,206.43456946849255 27.884392046456924,206.31869073869166 27.751363716379274,206.3239579583169 27.613584374455968,206.3081562981497 27.623086398059968,206.12907053964227 27.570825268368935,206.0289929824321 27.456800985411974,206.00792400277714 27.35227872602991,205.93418251855473 27.29051557276398,205.828837391462 27.195495336985914,205.739293895047 27.157487242657226,205.59181021193945 27.185993313411018,205.42852430321 27.361780749604804,205.37058404039635 27.49956009152811,205.31791102799252 27.561323244764935,205.15462440987176 27.504311103286454,205.07561460410943 27.46155199719942,204.949198708935 27.456800985411974,204.82278256028076 27.532817174011143,204.68583144649892 27.537568185827695,204.54361266729393 27.570825268368935,204.41719570533678 27.471054020774318,204.3065806556515 27.456800985411974,204.1696284204845 27.361780749604804,204.05374552754802 27.219250395923154,204.03267588777453 27.224001407710603,204.0379432983791 27.247756466676947,204.0379432983791 27.214499384135706,204.0379432983791 27.224001407710603,204.04321070855076 27.219250395923154,204.04321070855076 27.20974837234826,204.0484781182713 27.214499384135706,204.05374552754802 27.214499384135706,204.0484781182713 27.128981171903433,203.92732758323837 27.138483195507433,203.80617681536387 27.16698926623212,203.72716531958213 27.238254443072947,203.62708394942092 27.319021643488668,203.54807222915406 27.376033784996253,203.49013023802036 27.485307056136662,203.4058508831331 27.59933133906452,203.31630394508102 27.694351574900793,203.23729183527394 27.72760865741293,203.14774465778828 27.67059651593445,203.0581973530716 27.58032729194383,202.98445241839363 27.537568185827695,202.83696229019915 27.566074256552383,202.73687950665408 27.58032729194383,202.64206409144754 27.57557628012728,202.50510823995137 27.60883336266852,202.39448983495095 27.485307056136662,202.33127923066058 27.46155199719942,202.26280100446093 27.385535808542045,202.16798487614506 27.42829491465818,201.9941549371215 27.49956009152811,201.90987358200073 27.49005806792411,201.77291613956186 27.518564138677903,201.62542317643602 27.60883336266852,201.49900036189865 27.627837409818312,201.3725772937978 27.64684145699721,201.26195690117675 27.63258842160576,201.14606866257236 27.627837409818312,201.03018021088792 27.59933133906452,200.95643290341832 27.60408235088107,200.84054410304088 27.63258842160576,200.66144281059314 27.699102586659137,200.55082116983613 27.699102586659137,200.44019933489108 27.656343480543,200.30850642108635 27.67059651593445,200.17154549882616 27.661094492359553,200.0135132955802 27.675347527721897,199.82914189093572 27.656343480543,199.80280307482099 27.157487242657226,199.05477610122762 27.076720042241504,199.0231691321933 27.043462959700264,198.9230802923048 27.02920992433792,198.83879483015335 27.00070385361323,198.81772344700585 26.972197782888543,198.73870569741848 26.905683617835166,198.6912950001206 26.848671476356685,198.6333485438554 26.786908323090756,198.5701341671811 26.73939820518717,198.54379482484364 26.68713707549614,198.4647767317947 26.587365827930626,198.37522277319295 26.5065986274858,198.2962044687556 26.42583142707008,198.25406133254364 26.359317262016702,198.25406133254364 26.25004399084719,198.28040079596758 26.169276790431468,198.30147235880577 26.050501495716162,198.29093657827616 25.998240365996026,198.19611447423085 25.950730248121545,198.11182803973134 25.898469118430512,198.04861313985748 25.79394685907755,198.04861313985748 25.70367763505783,198.0433452286743 25.69892662327038,198.01700566615546 25.732183705782518,198.00646983805927 25.71317965866183,198.02227357953961 25.684673587908037,198.0275414924763 25.679922576091485,198.01173775231655 25.684673587908037,198.02227357953961 25.670420552545693,198.0433452286743 25.684673587908037,198.0275414924763 25.694175611482933,198.00120192334725 25.694175611482933,198.00120192334725 25.627661446429556,197.89584353671307 25.618159422825556,197.82209256125861 25.570649304951075,197.72726975168553 25.542143234197283,197.70093005703893 25.513637163472595,197.66405446603676 25.44237198663177,197.62191090702981 25.375857821607497,197.6166429601799 25.29509062116267,197.59557116834185 25.266584550437983,197.5903032192764 25.257082526833983,197.5797673198358 25.176315326418262,197.62717885343955 25.105050149577437,197.65878652269384 25.057540031673852,197.69039417609747 24.98152384304558,197.69039417609747 24.934013725141995,197.72726975168553 24.843744501151377,197.76941324022846 24.80098539503524,197.82736049093 24.75347527716076,197.83262842017575 24.69171212389483,197.87477183824376 24.629948970628902,197.885307688357 24.534928734850837,197.9379869125114 24.439908499043668,197.9748623432024 24.363892310415395,198.0696847801919 24.278374098212225,198.1592391730046 24.178602850617608,198.16450707448894 24.121590709139127,198.1487033686899 24.00756642621127,198.1487033686899 23.94105226112879,198.1487033686899 23.964807320095133,198.12236385020515 23.96955833188258,198.14343546586315 23.95055428473279,198.12763175477812 23.931550237553893,198.14343546586315 23.874538096104516,198.08548850581792 23.808023931022035,198.06441687076222 23.755762801360106,198.11182803973134 23.684497624490177,198.05388105061138 23.598979412287008,198.0591489609069 23.522963223658735,198.0433452286743 23.446947035030462,197.94852275205267 23.38993489355198,197.91691522813198 23.356677811039845,197.8800397635241 23.342424775648396,197.87477183824376 23.294914657744812,197.80628876955598 23.237902516295435,197.75887737073572 23.19039239839185,197.77994910794223 23.209396445541643,197.76414530569673 23.171388351242058,197.73780562646425 23.180890374816954,197.65351857892892 23.1951434101793,197.5797673198358 23.16663733945461,197.52708779622117 23.114376209763577,197.4480684281989 23.090621150826337,197.39538879447719 23.05261305649765,197.33744114650835 23.0383600211062,197.2531535634189 23.009853950381512,197.13725795256687 22.981347879656823,196.9792181396806 22.905331690999446,196.92127010898548 22.881576632062206,196.84224998121863 22.81031145522138,196.78956984099932 22.796058419859037,196.70528152499537 22.72954425480566,196.61045703473792 22.677283125114627,196.53670455476095 22.65827907793573,196.4787561170706 22.629773007211043,196.4840241590755 22.629773007211043,196.48929220062564 22.644026042573387,196.49982828240172 22.629773007211043,196.48929220062564 22.639275030815043,196.4840241590755 22.644026042573387,196.4840241590755 22.68203413693118,196.45241590050864 22.69628717226442,196.41027153109826 22.691536160506075,196.44714785587712 22.606017948273802,196.42080762608384 22.6250219954527,196.43661176528622 22.6155199718487,196.44714785587712 22.6250219954527,196.43661176528622 22.6250219954527,196.4313437193232 22.629773007211043,196.4313437193232 22.63452401899849,196.41553957881843 22.639275030815043,196.42607567291998 22.63452401899849,196.42080762608384 180.90973077600938,92.40676135829563 180.81471054023132,92.46480593648448 180.81471054023132,92.46480593648448 180.81471054023132,92.46480593648448 180.7244413162407,92.52285046081306 180.62942108043353,92.58089493128136 23.11912722152192,197.43226454269825 23.180890374816954,197.52181984144045 23.180890374816954,197.63244679942363 23.19039239839185,197.73780562646425 23.199894421966746,197.85896805977245 23.27115959880757,197.94852275205267 23.304416681348812,198.05388105061138 23.299665669561364,198.20665027059658 23.313918704923708,198.33834757678414 23.356677811039845,198.51218759951007 23.375681858189637,198.65441998866663 23.39468590533943,198.7650449582943 23.380432869977085,198.93361596714385 23.37093084640219,199.06531175407144 23.37093084640219,199.1495969132411 23.27115959880757,199.24968539335168 23.090621150826337,199.244417582584 22.96709484429448,199.29182786375168 22.838817525975173,199.32343469803527 22.701038184051868,199.38664831907954 22.572760865732562,199.43405849325063 22.43973253565491,199.4762008403486 22.358965335210087,199.5236109471407 22.254443075857125,199.5710210182733 22.130916769296164,199.6342343909564 22.09290867499658,199.68164437887026 22.050149568909546,199.72378656040019 22.050149568909546,199.71851878925736 22.00739046279341,199.75012540954776 21.936125285952585,199.79226754528645 21.850607073749416,199.8133386025802 21.7508358261548,199.83967741431115 21.66531761395163,199.90289051751824 21.6130564842897,199.9503003033169 21.570297378173564,200.04511976792492 21.475277142366394,200.06619074069022 21.389758930163225,200.0345842789029 21.270983635418816,200.050387511772 21.175963399611646,200.07145848278378 21.066690128471237,200.06092299815282 20.981171916238964,200.01878104207208 20.876649656886002,200.02931653372434 20.805384480045177,200.06092299815282 20.743621326779248,200.08199396563214 20.658103114546975,200.1241358794432 20.56308287876891,200.1504745612874 20.487066690140637,200.20315189191024 20.439556572237052,200.29270325294783 20.434805560449604,200.37171905406285 20.401548477937467,200.4296639119275 20.35878937182133,200.44546704572713 20.325532289309194,200.47707330143749 20.25426711246837,200.48760871649574 20.154495864873752,200.48234100919944 20.059475629066583,200.46127017557592 19.950202357926173,200.4928764233664 19.916945275414037,200.52975035911368 19.935949322534725,200.58769507165925 19.92644729895983,200.6772458862979 19.90744325183914,200.70358433697038 19.90269224002259,200.7562612052934 19.883688192843692,200.80893802960054 19.864684145723004,200.88795318351185 19.802920992457075,200.9827712374281 19.679394685925217,200.96170057109703 19.603378497296944,201.0091095604257 19.532113320427015,201.03544787241117 19.451346120011294,201.05651851408038 19.418089037499158,201.0249125489354 19.370578919595573,200.9985742325298 19.361076896020677,200.99330656793973 19.31831778990454,200.9511652353067 19.35157487244578,200.92482688808013 19.370578919595573,200.8826855096704 19.35632588423323,200.91429154612342 19.31831778990454,200.93536222828698 19.299313742725644,201.0249125489354 19.304064754542196,201.17767456695947 19.332570825266885,201.3251685778814 19.432342072861502,201.44632411434213 19.332570825266885,201.52007084860452 19.232799577672267,201.61488795157493 19.147281365498202,201.7623809393699 19.17578743622289,201.9151411699895 19.09502023580717,202.062633455178 19.004751011787448,202.21539295813636 19.023755058966344,202.39975738244902 19.128277318319306,202.43136265818976 19.142530353710754,202.5314459268193 19.152032377256546,202.6209939798282 19.099771247594617,202.78428716077542 19.156783389073098,202.88436986902525 19.25655463663861,202.9528474199651 19.38958296677447,203.0002549116507 19.52261129685212,203.0950697880653 19.574872426543152,203.2425593123371 19.712651768437354,203.37424609598747 19.883688192843692,203.49013023802036 20.054724617279135,203.54280477761858 20.18300193559844,203.4585254931444 20.373042407183675,203.46906040987233 20.544078831619117,203.53226987323433 20.719866267812904,203.5744094802576 20.909906739427242,203.58494437760965 21.009677986992756,203.60074672033807 21.156959352461854,203.65342116749525 21.270983635418816,203.65342116749525 21.408762977313017,203.66395605164143 21.527538272057427,203.70082813231056 21.670068625709973,203.71663044600064 21.82685201478307,203.71663044600064 21.964631356706377,203.7693047963221 22.09765968681313,203.7851070928482 22.254443075857125,203.80617681536387 22.430230512050912,203.81144424490049 22.582262889336562,203.76403736327848 22.69628717226442,203.71136300855142 22.819813478796277,203.7693047963221 22.971845856052823,203.79564195498097 23.07161710364744,203.70082813231056 23.147633292275714,203.76403736327848 23.294914657744812,203.85358366531364 23.3329227520735,204.01687365330872 23.408938940701773,204.1327566140244 23.437445011455566,204.28024371045467 23.56097131795832,204.15382622034303 23.760513813147554,204.22230239229248 23.95055428473279,204.17489581964037 24.102586661989335,204.04321070855076 24.25937005103333,203.93786242160058 24.416153440106427,204.01687365330872 24.539679746638285,204.11168700063718 24.75347527716076,204.1222218082039 24.91976068977965,204.11168700063718 25.043286996311508,204.05374552754802 25.195319373568054,203.96419950985 25.3568537744286,203.9431298401396 25.485131092747906,203.83778138595153 25.608657399279764,203.92206016339333 25.732183705782518,204.01687365330872 25.86996304767672,204.0379432983791 25.993489354208577,204.0484781182713 26.098011613590643,203.98526917252457 26.25004399084719,203.96946692617348 26.42583142707008,203.99580400121704 26.558859757176833,203.94839725823113 26.672884040133795,203.90099047958574 26.777406299486756,203.87465336494643 26.929438676772406,203.89045563505715 27.067218018637504,203.96419950985 27.185993313411018,203.99580400121704 27.304768608126324,204.02214106524116 27.42829491465818,204.11168700063718 27.480556044349214,204.26444153804914 27.58032729194383,204.3908588063423 27.556572232977487,204.5541474026868 27.5280661622528,204.70690086796822 27.51381312686135,204.86492130466286 27.471054020774318,205.02820867312403 27.594580327306176,205.14935709257406 27.542319197615143,205.28103989312876 27.385535808542045,205.36531674112484 27.26200950203929,205.4390588907154 27.214499384135706,205.57600836827987 27.26200950203929,205.739293895047 27.34752771424246,205.88677723314322 27.49956009152811,205.99212226342206 27.642090445180656,206.0763981609125 27.63258842160576,206.21861348248422 27.74661270456272,206.29762185585787 27.893894070060924,206.3397596145005 27.9604082351143,206.4872415480022 28.11719162412919,206.58205118023398 28.283477036777185,206.6715934797503 28.378497272584355,206.77693719875242 28.48301953196642,206.91388377031035 28.58754179131938,207.04029572622312 28.673060003551655,207.17197457747534 28.806088333629305,207.3036531537182 28.986626781639643,207.32472170038818 29.167165229620878,207.34052310579136 29.300193559756735,207.38792729820125 29.494985043100314,207.45113283265528 29.632764384994516,207.50907118356554 29.80380080942996,207.55647524926826 29.932078127749264,207.63021483618286 30.084110505034914,207.6196806147418 30.23614288229146,207.572276596562 30.40242829491035,207.54067389799093 30.563962695770897,207.54067389799093" stroke="#4DD2FF" stroke-dasharray="none" stroke-linecap="round" stroke-linejoin="round" stroke-width="0.5"><title>2026-03-14 12.0km</title><desc>9223370263378906807</desc></polyline></svg>