<?xml version="1.0" encoding="utf-8" ?>
<svg baseProfile="full" height="300mm" version="1.1" viewBox="0,0,200,300" width="200mm" xmlns="http://www.w3.org/2000/svg" xmlns:ev="http://www.w3.org/2001/xml-events" xmlns:xlink="http://www.w3.org/1999/xlink"><defs /><rect fill="#222222" height="300" width="200" x="0" y="0" /><text fill="#FFFFFF" style="font-size:12px; font-family:Arial; font-weight:bold;" x="10" y="20">Over 10km Runs</text><text fill="#FFFFFF" style="font-size:4px; font-family:Arial" x="10" y="280">Runner</text><text fill="#FFFFFF" style="font-size:9px; font-family:Arial" x="10" y="290">yihong0618</text><text fill="#FFFFFF" style="font-size:4px; font-family:Arial" x="65" y="280">SPECIAL TRACKS</text><rect fill="yellow" height="2.6" width="2.6" x="65" y="283" /><text fill="#FFFFFF" style="font-size:3px; font-family:Arial" x="70" y="285.5">Over 20.0 km</text><rect fill="red" height="2.6" width="2.6" x="65" y="287" /><text fill="#FFFFFF" style="font-size:3px; font-family:Arial" x="70" y="289.5">Over 40.0 km</text><text fill="#FFFFFF" style="font-size:4px; font-family:Arial" x="120" y="280">STATISTICS</text><text fill="#FFFFFF" style="font-size:3px; font-family:Arial" x="120" y="285">Number: 1</text><text fill="#FFFFFF" style="font-size:3px; font-family:Arial" x="120" y="290">Weekly: 1.0</text><text fill="#FFFFFF" style="font-size:3px; font-family:Arial" x="141" y="285">Total: 12.0 km</text><text fill="#FFFFFF" style="font-size:3px; font-family:Arial" x="141" y="290">Avg: 12.0 km</text><text fill="#FFFFFF" style="font-size:3px; font-family:Arial" x="167" y="285">Min: 12.0 km</text><text fill="#FFFFFF" style="font-size:3px; font-family:Arial" x="167" y="290">Max: 12.0 km</text><polyline fill="none" opacity="1" points="30.302657047344837,207.3431581641853 30.160126693663187,207.32735681555278 30.046102410706226,207.41689773877806 29.908323068812024,207.41163062916894 29.765792715130374,207.31682258093133 29.642266408598516,207.28521986650594 29.532993137458107,207.24308288929024 29.380960760172457,207.21674726423953 29.243181418278255,207.16407598114165 29.119655111746397,207.10087038332858 28.986626781639643,207.09560324732593 28.84884743974544,207.132473190155 28.658806968160206,207.03766472217103 28.58754179131938,206.90071890563559 28.540031673415797,206.82697872738572 28.435509414062835,206.72690263325057 28.402252331521595,206.58468896307386 28.273975013231393,206.46354373177383 28.235966918902704,206.43720778111674 28.12669364773319,206.38980304222787 28.036424423742574,206.3265966682702 27.89864508184837,206.29499345752265 27.855885975732235,206.18438209518354 27.841632940340787,206.07377053879827 27.70385359847569,206.11064107915809 27.59933133906452,206.00529662092958 27.613584374455968,205.84201236280933 27.509062115073903,205.79987442112906 27.395037832146045,205.75773645125082 27.309519619942876,205.64712414635142 27.224001407710603,205.5417789136518 27.157487242657226,205.41536440207346 27.16698926623212,205.2678804848656 27.338025690667564,205.15726732053008 27.475805032561766,205.12039622263546 27.566074256552383,204.9518423576228 27.51381312686135,204.85703061051754 27.456800985411974,204.73588205948545 27.456800985411974,204.59893124322116 27.532817174011143,204.4567127729715 27.537568185827695,204.30922661308796 27.566074256552383,204.17754225019598 27.471054020774318,204.05112500304313 27.433045926474733,203.9089052969648 27.333274678880116,203.8140919813195 27.22875241949805,203.8140919813195 27.2335034312855,203.8140919813195 27.2430054548895,203.8140919813195 27.219250395923154,203.81935939149116 27.22875241949805,203.8140919813195 27.219250395923154,203.81935939149116 27.214499384135706,203.8246268012117 27.214499384135706,203.81935939149116 27.14798521908233,203.75615044045117 27.138483195507433,203.619197495791 27.152736230869778,203.524383744425 27.224001407710603,203.41903496453597 27.295266584551428,203.3400232640779 27.357029737817356,203.27681383241725 27.480556044349214,203.19780195369458 27.594580327306176,203.09772009848894 27.694351574900793,203.01344051821434 27.72760865741293,202.9186258557238 27.661094492359553,202.82907854354562 27.57557628012728,202.75006610362107 27.532817174011143,202.58677341392467 27.566074256552383,202.49195810965466 27.57557628012728,202.391875133766 27.60408235088107,202.24438414279575 27.561323244764935,202.12849812207787 27.475805032561766,202.0863576980737 27.42829491465818,202.0231470092549 27.40453985572094,201.86512000986113 27.46155199719942,201.7334305410659 27.504311103286454,201.60700839215497 27.504311103286454,201.45951556462387 27.58032729194383,201.3014871521118 27.623086398059968,201.19086702760978 27.63733943339321,201.06444379043387 27.642090445180656,200.94328795020192 27.623086398059968,200.82739953725468 27.59933133906452,200.73784925403743 27.60408235088107,200.6219604633552 27.623086398059968,200.4481268777854 27.699102586659137,200.32696985277653 27.699102586659137,200.2110803065625 27.656343480543,200.07411965903157 27.675347527721897,199.9266232442278 27.665845504147,199.76859098813657 27.67059651593445,199.5894872855206 27.190744325169362,198.82565695710218 27.11947914835764,198.82565695710218 27.06246700687916,198.75717516507575 27.02445891255047,198.67815762026657 27.014956888975576,198.60440782239675 26.991201830038335,198.56226504200458 26.953193735709647,198.4779793966518 26.88192855886882,198.41476508866617 26.810663382027997,198.3831579109028 26.76790427591186,198.35155071726695 26.701390110887587,198.26199691589136 26.62537392223021,198.1829787501665 26.511349639302352,198.08288893134522 26.435333450644976,198.03021001548404 26.373570297379047,198.01967422701637 26.25004399084719,198.0512815871043 26.169276790431468,198.07762104174617 26.050501495716162,198.06708526121656 25.998240365996026,197.96699525830263 25.945979236334097,197.89324462812147 25.888967094855616,197.8194939116147 25.765440788323758,197.84056555370262 25.69892662327038,197.8036901754167 25.708428646845277,197.77735060628765 25.732183705782518,197.78261852099968 25.72268168220762,197.77208269112816 25.694175611482933,197.79315434909586 25.670420552545693,197.79842226248002 25.689424599695485,197.79842226248002 25.694175611482933,197.8036901754167 25.694175611482933,197.79315434909586 25.69892662327038,197.78788643525695 25.6419144817919,197.6930639110724 25.618159422825556,197.6140450319108 25.599155375675764,197.53502605367612 25.55639626958873,197.47707873997933 25.523139187076595,197.45073903430966 25.447122998419218,197.40859548236403 25.38060883336584,197.37698779990023 25.29509062116267,197.37171985128225 25.266584550437983,197.3664519022168 25.257082526833983,197.3559160027762 25.166813302843366,197.39805958997022 25.10029913778999,197.44020314897716 25.03853598452406,197.44547109186533 24.97677283125813,197.47181079972142 24.910258666204754,197.51922224612645 24.83424247757648,197.5771695210642 24.78198134788545,197.60877710311615 24.734471229981864,197.61931296027979 24.65845504135359,197.65092052118416 24.582438852725318,197.6930639110724 24.4921696287347,197.74047519098895 24.392398381140083,197.8089580879132 24.311631180724362,197.90378043771852 24.211859933129745,197.94065575742934 24.140594756318023,197.9143162455439 24.026570473331958,197.935387855945 23.95055428473279,197.9248520516303 23.97430934367003,197.90378043771852 23.96955833188258,197.91958414880355 23.95055428473279,197.90378043771852 23.94105226112879,197.935387855945 23.874538096104516,197.86163718875832 23.808023931022035,197.84056555370262 23.741509765968658,197.89851253314555 23.670244589156937,197.82476182279788 23.584726376924664,197.85110137211086 23.50871018829639,197.79842226248002 23.437445011455566,197.70886767500997 23.36617983461474,197.67726014317304 23.347175787435845,197.6614563712974 23.3329227520735,197.62984881566808 23.266408587020123,197.55082985724948 23.1951434101793,197.54029398863713 23.199894421966746,197.54556192316886 23.19039239839185,197.52975811826036 23.176139363029506,197.45600697632108 23.199894421966746,197.38225574807075 23.185641386604402,197.30850443349482 23.11912722152192,197.24002099266727 23.09537216258468,197.19260933618352 23.05261305649765,197.1241257694055 23.043111032922752,197.04510617677442 23.009853950381512,196.9239426089407 22.99084990323172,196.75009882204176 22.905331690999446,196.69741879192588 22.881576632062206,196.62366667575407 22.81031145522138,196.56045050748435 22.786556396255037,196.4656261361415 22.720042231230764,196.37080162209895 22.677283125114627,196.2865130453647 22.663030089752283,196.26544088356604 22.6250219954527,196.26544088356604 22.644026042573387,196.27070892466872 22.64877705438994,196.27070892466872 22.629773007211043,196.2601728420159 22.639275030815043,196.2601728420159 22.65827907793573,196.26544088356604 22.70578919586842,196.17588411728866 22.691536160506075,196.18642021403866 22.620270983636146,196.19168826175883 22.629773007211043,196.2074924022636 22.620270983636146,196.2074924022636 22.63452401899849,196.21276044822662 22.629773007211043,196.21276044822662 22.629773007211043,196.2074924022636 22.63452401899849,196.19168826175883 22.639275030815043,196.20222435586038 22.63452401899849,196.19695630902424 180.90973077600938,92.18291004123603 180.81471054023132,92.24095461942488 180.81471054023132,92.24095461942488 180.81471054023132,92.24095461942488 180.7244413162407,92.29899914375346 23.090621150826337,197.1451976440403 23.11912722152192,197.27162874384157 23.185641386604402,197.35064805238653 23.176139363029506,197.46127491789593 23.180890374816954,197.58243745249638 23.223649480903987,197.67726014317304 23.280661622382468,197.77208269112816 23.299665669561364,197.91958414880355 23.313918704923708,198.03547790904486 23.33767376386095,198.23038966149397 23.36142882279819,198.39896150175264 23.380432869977085,198.5095865268704 23.385183881764533,198.67815762026657 23.36617983461474,198.82565695710218 23.380432869977085,198.9099421374267 23.285412634169916,199.01529845430923 23.100123174401233,199.0205662655244 22.96709484429448,199.06797654669208 22.829315502371173,199.10485118515862 22.69628717226442,199.1733325993664 22.55375681858277,199.22601055966152 22.425479500263464,199.26288510566155 22.335210276272846,199.3155629910907 22.216434981528437,199.3629730503235 22.107161710358923,199.43145418403947 22.078655639634235,199.48413192855878 22.050149568909546,199.4999352433406 22.04064754533465,199.5052030140505 21.99313742740196,199.55261293062358 21.902868203411344,199.5789517577614 21.788843920483487,199.5894872855206 21.698574696463766,199.65796817309456 21.622558507835492,199.70011022077597 21.589301425294252,199.77912648421625 21.513285236695083,199.83707168109322 21.408762977313017,199.81600070657805 21.299489706143504,199.8265361947124 21.190216435003094,199.84760716572418 21.076192152046133,199.84760716572418 20.985922928055516,199.79492972501248 20.876649656886002,199.80546521666474 20.805384480045177,199.83707168109322 20.734119303204352,199.85814264857254 20.64385007918463,199.9055522996423 20.548829843406565,199.9371587138703 20.47281365474919,199.9898360356965 20.430054548662156,200.08992282587133 20.439556572237052,200.16893860057462 20.396797466120915,200.21634801783148 20.349287348246435,200.23741885851632 20.306528242130298,200.24795427619756 20.211508006352233,200.2690251063068 20.116487770545064,200.24268656758068 19.997712475829758,200.26375739943614 19.90744325183914,200.29536363403167 19.93119831077638,200.3375052554984 19.92644729895983,200.41652071980207 19.916945275414037,200.4744653306443 19.893190216447692,200.52187451810096 19.888439204660244,200.5798190320893 19.864684145723004,200.6482988435855 19.81242301603197,200.7536522544433 19.69364772128756,200.74311692126867 19.603378497296944,200.78525824336612 19.527362308639567,200.8168642164237 19.441844096436398,200.82739953725468 19.41333802571171,200.79579356947943 19.370578919595573,200.77999057963825 19.337321837054333,200.7536522544433 19.31831778990454,200.7273139182471 19.37532993138302,200.67463721280728 19.37532993138302,200.66410186645226 19.34207284884178,200.71151091122738 19.2945627309673,200.7220462496698 19.332570825266885,200.8590054891938 19.308815766329644,201.04337322626816 19.38958296677447,201.15926124209 19.384831954957917,201.2804166671849 19.251803624851163,201.33836048379453 19.166285412647994,201.48585359485514 19.156783389073098,201.66495190854766 19.128277318319306,201.80717667749923 19.019004047149792,201.95993625703704 19.004751011787448,202.1601034215928 19.123526306531858,202.20224379628053 19.152032377256546,202.3075946097597 19.152032377256546,202.3971426627686 19.099771247594617,202.57097087312286 19.171036424435442,202.66051855196565 19.26605666024261,202.73426360373924 19.418089037499158,202.7869385879094 19.555868379364256,202.9080908844262 19.603378497296944,203.05558032244153 19.75541087455349,203.17673210264547 19.945451346138725,203.27154637692 20.116487770545064,203.3136860085906 20.292275206767954,203.22413925760338 20.449058595811948,203.29261619626777 20.64385007918463,203.32948836320065 20.81963751540752,203.36109306055005 21.009677986992756,203.3874302962322 21.099947210983373,203.3874302962322 21.22822452930268,203.42956985043566 21.366003871225985,203.44010473458184 21.48477916594129,203.47170937648116 21.651064578589285,203.49277912894104 21.817349991208175,203.48751169149182 21.955129333102377,203.5454534792625 22.08815766320913,203.5612557757886 22.254443075857125,203.58232549830427 22.430230512050912,203.5875929278409 22.58701390112401,203.54018604621888 22.70578919586842,203.49804656594642 22.848319549520966,203.5454534792625 23.01460496216896,203.55072091188413 23.10962519797613,203.46117449760277 23.180890374816954,203.58232549830427 23.3329227520735,203.68240658414288 23.318669716682052,203.85623125031998 23.404187928914325,203.97211409483134 23.47545310575515,203.98264888831181 23.670244589156937,203.96157929957917 23.86028506074217,203.95104450258077 24.05507654408575,203.87730087425734 24.188104874192504,203.73508077602673 24.382896357565187,203.76141785546497 24.49692064052215,203.86149865695916 24.69171212389483,203.8983704911443 24.900756642629858,203.8983704911443 25.019531937374268,203.84042902775036 25.166813302843366,203.75615044045117 25.347351750853704,203.72454594117153 25.485131092747906,203.61393006889193 25.608657399279764,203.69820884633373 25.746436741144862,203.8140919813195 25.884216083068168,203.8246268012117 26.007742389600025,203.8140919813195 26.131268696131883,203.75615044045117 26.297554108750774,203.7403481927904 26.463839521398768,203.75088302500808 26.60161886329297,203.70347626617877 26.71089213443338,203.66660431799755 26.843920464569237,203.64026719894173 26.995952841825783,203.714011104541 27.14798521908233,203.74561560911388 27.2430054548895,203.78248751107822 27.3807847967837,203.84042902775036 27.480556044349214,203.98791628439358 27.54707020940259,204.1301358122073 27.55182122119004,204.2828897625186 27.54707020940259,204.4514454160526 27.518564138677903,204.62000061892104 27.46155199719942,204.78855537115305 27.594580327306176,204.91497113958394 27.54707020940259,205.05192126931797 27.385535808542045,205.14146542406525 27.257258490251843,205.22047486676456 27.20974837234826,205.37322617523023 27.276262537401635,205.5417789136518 27.366531761421356,205.6945294436482 27.51381312686135,205.77880543969877 27.656343480543,205.89468475034664 27.63733943339321,206.04216720132536 27.80837585782865,206.07377053879827 27.89864508184837,206.18438209518354 28.022171388351126,206.3002606604059 28.18845680099912,206.39507023719852 28.321485131105874,206.51621560006606 28.454513461183524,206.62682638026308 28.521027626266005,206.77957428154332 28.64930494458531,206.89545175291278 28.772831251117168,207.05873328294183 28.953369699098403,207.09560324732593 29.129157135321293,207.10613751890924 29.28594052439439,207.15354171923536 29.46647897240473,207.22201439013588 29.618511349632172,207.27995274587738 29.80380080942996,207.33262393220866 29.932078127749264,207.40636351912326 30.09361252860981,207.39056218632322 30.24089389407891,207.3484252795024 30.421432342089247,207.32208969845306 30.606721801887034,207.31155546294758 30.749252155568684,207.32735681555278 30.89178250922123,207.28521986650594 31.034312862931984,207.24308288929024 31.153088157676393,207.19041162818758 31.27661446420825,207.28521986650594 31.40014077074011,207.3484252795024 31.533169100846862,207.40109640862647 31.55217314796755,207.53277403892207 31.613936301262584,207.65918430529564 31.7137075488572,207.77506016020925" stroke="#4DD2FF" stroke-dasharray="none" stroke-linecap="round" stroke-linejoin="round" stroke-width="0.5"><title>2026-03-14 12.0km</title><desc>9223370263378906807</desc></polyline></svg>