<?xml version="1.0" encoding="utf-8" ?>
<svg baseProfile="full" height="300mm" version="1.1" viewBox="0,0,200,300" width="200mm" xmlns="http://www.w3.org/2000/svg" xmlns:ev="http://www.w3.org/2001/xml-events" xmlns:xlink="http://www.w3.org/1999/xlink"><defs /><rect fill="#222222" height="300" width="200" x="0" y="0" /><text fill="#FFFFFF" style="font-size:12px; font-family:Arial; font-weight:bold;" x="10" y="20">Over 10km Runs</text><text fill="#FFFFFF" style="font-size:4px; font-family:Arial" x="10" y="280">Runner</text><text fill="#FFFFFF" style="font-size:9px; font-family:Arial" x="10" y="290">yihong0618</text><text fill="#FFFFFF" style="font-size:4px; font-family:Arial" x="65" y="280">SPECIAL TRACKS</text><rect fill="yellow" height="2.6" width="2.6" x="65" y="283" /><text fill="#FFFFFF" style="font-size:3px; font-family:Arial" x="70" y="285.5">Over 20.0 km</text><rect fill="red" height="2.6" width="2.6" x="65" y="287" /><text fill="#FFFFFF" style="font-size:3px; font-family:Arial" x="70" y="289.5">Over 40.0 km</text><text fill="#FFFFFF" style="font-size:4px; font-family:Arial" x="120" y="280">STATISTICS</text><text fill="#FFFFFF" style="font-size:3px; font-family:Arial" x="120" y="285">Number: 1</text><text fill="#FFFFFF" style="font-size:3px; font-family:Arial" x="120" y="290">Weekly: 1.0</text><text fill="#FFFFFF" style="font-size:3px; font-family:Arial" x="141" y="285">Total: 12.0 km</text><text fill="#FFFFFF" style="font-size:3px; font-family:Arial" x="141" y="290">Avg: 12.0 km</text><text fill="#FFFFFF" style="font-size:3px; font-family:Arial" x="167" y="285">Min: 12.0 km</text><text fill="#FFFFFF" style="font-size:3px; font-family:Arial" x="167" y="290">Max: 12.0 km</text><polyline fill="none" opacity="1" points="28.311983107530978,206.82434089091112 28.24071793066105,206.74006589458077 28.174203765636776,206.6979283541841 28.07443251804216,206.65579078563678 27.950906211539404,206.62945479097834 27.87013901109458,206.53991232688713 27.87013901109458,206.45036973561946 27.798873834253754,206.3818959035525 27.684849551296793,206.4082320016205 27.59933133906452,206.29762031584687 27.618335386243416,206.1448705260118 27.518564138677903,206.1027325878349 27.414041879295837,206.07112911571312 27.328523667092668,205.9710513494938 27.26200950203929,205.8709734244112 27.16698926623212,205.78669715376236 27.152736230869778,205.64448069159334 27.20499736056081,205.46539283843595 27.366531761421356,205.43905634652765 27.504311103286454,205.3863833297255 27.561323244764935,205.22836401527456 27.504311103286454,205.15462153297995 27.456800985411974,205.03874031510713 27.46155199719942,204.9123241981215 27.504311103286454,204.77537311866763 27.542319197615143,204.64368910787016 27.58032729194383,204.52253957499124 27.49480907971156,204.4171919658438 27.485307056136662,204.27497241424862 27.390286820358597,204.17489179671975 27.276262537401635,204.10114808213984 27.22875241949805,204.1116829037819 27.247756466676947,204.1116829037819 27.238254443072947,204.11695031395357 27.219250395923154,204.11695031395357 27.22875241949805,204.11695031395357 27.219250395923154,204.11695031395357 27.20974837234826,204.1222177236741 27.214499384135706,204.12748513295082 27.219250395923154,204.1222177236741 27.12423016014509,203.9799975066053 27.138483195507433,203.87464899080078 27.16698926623212,203.7798351760539 27.238254443072947,203.70082355482373 27.304768608126324,203.62707928566306 27.361780749604804,203.56913729938242 27.475805032561766,203.50066033782787 27.58032729194383,203.42164836667507 27.684849551296793,203.32683387057114 27.72760865741293,203.24782168153615 27.708604610263137,203.15827441425427 27.594580327306176,203.0845295103718 27.561323244764935,202.97917949803013 27.54707020940259,202.85275925079986 27.566074256552383,202.7526763752794 27.566074256552383,202.65786087292508 27.60883336266852,202.5261724386146 27.55182122119004,202.42608904454028 27.475805032561766,202.3839486205361 27.442547950020526,202.33127305091693 27.390286820358597,202.2101190737376 27.447298961837078,202.04682421430698 27.504311103286454,201.96254283101007 27.49956009152811,201.8255853428018 27.52331515046535,201.68335994389417 27.60883336266852,201.57273996730146 27.627837409818312,201.4463168992006 27.642090445180656,201.34096414873056 27.63733943339321,201.22507591981412 27.623086398059968,201.11972279952533 27.60408235088107,201.03544017649983 27.594580327306176,200.94062209088588 27.589829315518728,200.78259163119583 27.684849551296793,200.67197007362847 27.699102586659137,200.5508129068403 27.67059651593445,200.42965550717054 27.67059651593445,200.30323014611713 27.665845504147,200.17153679201147 27.675347527721897,200.00823665075586 27.665845504147,199.887078207983 27.181242301594466,199.12851570663042 27.11947914835764,199.1232478795646 27.06246700687916,199.06530175269654 27.03871194794192,198.97574854272898 27.019707900763024,198.90726659041684 27.00070385361323,198.88092735817554 26.96744677107199,198.8071774493328 26.905683617835166,198.7650346055234 26.848671476356685,198.7070881492582 26.786908323090756,198.6438737725839 26.74414921697462,198.61753443024645 26.68713707549614,198.5385163371975 26.606369875080418,198.46476602759867 26.511349639302352,198.38047985380763 26.440084462432424,198.32780093794645 26.387823332770495,198.3119972545901 26.28330107338843,198.34360461732285 26.193031849368708,198.37521196420857 26.093260601803195,198.3699440741584 26.01724441317492,198.31726514947877 25.979236318846233,198.2224429740927 25.945979236334097,198.14869229457327 25.85571001234348,198.1223527452603 25.741685729357414,198.15396020312255 25.708428646845277,198.09074527155826 25.708428646845277,198.07494152875006 25.73693471759907,198.08020944346208 25.732183705782518,198.06967361359057 25.694175611482933,198.09074527155826 25.670420552545693,198.09074527155826 25.684673587908037,198.09601318494242 25.670420552545693,198.1170848340771 25.684673587908037,198.1012810978791 25.694175611482933,198.07494152875006 25.69892662327038,198.07494152875006 25.637163470004452,197.97485106563545 25.618159422825556,197.9116359543732 25.594404363888316,197.82734904072277 25.55639626958873,197.77466966244174 25.523139187076595,197.76413378150028 25.456625021994114,197.72199024010843 25.399612880544737,197.67457872236264 25.33309871549136,197.6903825655827 25.290339609375224,197.65877487518446 25.26183353862143,197.65877487518446 25.214323420717847,197.66931077374466 25.143058243906125,197.70618640482644 25.086046102427645,197.74832995677207 25.02903396092006,197.73779407143957 24.98152384304558,197.77466966244174 24.910258666204754,197.81681316858885 24.843744501151377,197.8694925116506 24.78198134788545,197.90636802557856 24.75347527716076,197.90636802557856 24.682210100319935,197.94851144364657 24.629948970628902,197.9590472937598 24.539679746638285,198.0117265179142 24.45891254619346,198.04333403126293 24.37339433399029,198.1328885663097 24.28787612178712,198.2224429740927 24.197606897796504,198.23297877840741 24.131092732714023,198.2224429740927 24.036072496935958,198.23297877840741 23.964807320095133,198.21717507126596 23.964807320095133,198.20137136018093 23.964807320095133,198.19610345560795 23.964807320095133,198.21717507126596 23.955305296491133,198.2119071680063 23.9125461904041,198.20137136018093 23.85078303713817,198.1434243855947 23.79377089565969,198.1434243855947 23.722505718818866,198.19610345560795 23.670244589156937,198.1223527452603 23.579975365108112,198.15396020312255 23.50871018829639,198.09601318494242 23.44219602321391,198.01699443789767 23.385183881764533,197.98538691135036 23.356677811039845,197.95377936892692 23.342424775648396,197.94851144364657 23.299665669561364,197.88002837495878 23.24265352805378,197.82734904072277 23.19039239839185,197.86422457931621 23.1951434101793,197.8484207797119 23.180890374816954,197.82208110487045 23.176139363029506,197.75359789878348 23.199894421966746,197.67457872236264 23.1951434101793,197.60609535595722 23.13338025691337,197.54814783394977 23.104874186159577,197.50073618540773 23.07161710364744,197.4427885665027 23.0478620447102,197.37430494818545 23.01460496216896,197.27421337212945 23.005102938594064,197.2004615827791 22.95759282069048,197.037153741996 22.891078655637102,196.96340167517337 22.84356853776262,196.91598958662144 22.81031145522138,196.85277341305482 22.78180538446759,196.75794903379938 22.720042231230764,196.67366057686013 22.67253211332718,196.60517612257172 22.65827907793573,196.5524957224734 22.629773007211043,196.5577637644783 22.6250219954527,196.56829984713113 22.644026042573387,196.57356788780453 22.629773007211043,196.56303180602845 22.644026042573387,196.5577637644783 22.644026042573387,196.5524957224734 22.663030089752283,196.5577637644783 22.70578919586842,196.4787430883407 22.691536160506075,196.48401113650107 22.620270983636146,196.48401113650107 22.629773007211043,196.505083324726 22.620270983636146,196.505083324726 22.620270983636146,196.51561941620457 22.6250219954527,196.505083324726 22.6250219954527,196.49981527832279 22.629773007211043,196.49981527832279 22.63452401899849,196.49454723148665 22.639275030815043,196.48927918422123 180.90973077600938,92.48050096369843 180.90973077600938,92.48050096369843 180.81471054023132,92.53854554188729 180.81471054023132,92.53854554188729 180.81471054023132,92.53854554188729 180.7244413162407,92.59659006621587 180.62942108043353,92.65463453668417 23.11912722152192,197.4954682222451 23.171388351242058,197.59029149161142 23.180890374816954,197.68511461827438 23.176139363029506,197.7957414190314 23.1951434101793,197.9169038827422 23.24265352805378,197.9906548335348 23.285412634169916,198.09074527155826 23.294914657744812,198.21717507126596 23.313918704923708,198.32780093794645 23.33767376386095,198.51217695081868 23.351926799223293,198.65967737269239 23.380432869977085,198.7755703191142 23.385183881764533,198.89673089885764 23.380432869977085,199.05476608753816 23.380432869977085,199.17065830736465 23.37093084640219,199.24967560778168 23.24265352805378,199.3234249987545 23.057364068285096,199.33922842846368 22.952841808932135,199.36556746915448 22.824564490583725,199.40244210762103 22.701038184051868,199.46038792448235 22.572760865732562,199.50779809865344 22.444483547413256,199.54467265391577 22.363716346997535,199.58681497634097 22.26394509943202,199.63949283974944 22.154671828262508,199.69743843866672 22.09290867499658,199.73958065893385 22.050149568909546,199.8027939365129 22.059651592484443,199.7869906230626 22.026394509943202,199.80806170678625 21.97888439206872,199.86073938525806 21.898117191623896,199.8765426802238 21.788843920483487,199.887078207983 21.71282773182611,199.94502357923193 21.636811543197837,199.9871656339601 21.598803448898252,200.04511091318636 21.546542319178116,200.13466260355563 21.437269048037706,200.12939486059258 21.361252859409433,200.11359162904046 21.242477564694127,200.13993034609302 21.14270631709951,200.12939486059258 21.05718810489634,200.13466260355563 20.971669892664067,200.0977883935193 20.876649656886002,200.10305613912715 20.805384480045177,200.13466260355563 20.748372338537592,200.15046582983268 20.662854126334423,200.2031432221047 20.56783389058546,200.21894643120686 20.491817701928085,200.25582057035717 20.4443075840245,200.34010423595828 20.425303536874708,200.42438778885116 20.430054548662156,200.49813580517002 20.368291395396227,200.51393894029388 20.344536336429883,200.54554519865997 20.297026218555402,200.54554519865997 20.202005982777337,200.5666160287692 20.116487770545064,200.54027749004308 20.00721449937555,200.56134832189855 19.92169628717238,200.58768685183531 19.92644729895983,200.6192930732068 19.935949322534725,200.69304086146803 19.92644729895983,200.76152087328228 19.89794122823514,200.7983946949753 19.893190216447692,200.84580386262314 19.883688192843692,200.88267763500335 19.864684145723004,200.97749580779782 19.79341896888218,201.06177850830863 19.679394685925217,201.03544017649983 19.603378497296944,201.08284916582852 19.536864332243567,201.0986521543382 19.460848143615294,201.1460610961076 19.432342072861502,201.0986521543382 19.37532993138302,201.0723138379326 19.36582790777902,201.06704617334253 19.327819813479437,201.03017250882112 19.308815766329644,201.00910183368978 19.35632588423323,200.95642511507322 19.38008094317047,200.96169278891466 19.332570825266885,201.01436950313655 19.285060707392404,201.0196371721322 19.327819813479437,201.1460610961076 19.299313742725644,201.31989357748535 19.37532993138302,201.4410492658535 19.418089037499158,201.5569370976591 19.313566778117092,201.5990780745742 19.209044518735027,201.7149656158217 19.152032377256546,201.87826133501585 19.190040471585235,202.00995112298187 19.08551821220317,202.1469082106014 19.004751011787448,202.28913256353917 19.023755058966344,202.47349698785183 19.123526306531858,202.49983471874293 19.152032377256546,202.6051855322221 19.152032377256546,202.68419852677107 19.11402428295696,202.82115414937653 19.123526306531858,202.95284196743887 19.223297554126475,203.0160520223726 19.35632588423323,203.04238952657033 19.47035016719019,203.11086698593863 19.565370402968256,203.25835664580154 19.655639626958873,203.38477607956884 19.802920992457075,203.50066033782787 19.969206405075965,203.57440475487965 20.116487770545064,203.611276931053 20.282773183193058,203.5217301800658 20.425303536874708,203.57440475487965 20.582086925947806,203.611276931053 20.77212739753304,203.6481490856604 20.957416857301723,203.66921887860735 21.0239310223551,203.67975377244147 21.156959352461854,203.72716077289806 21.275734647206264,203.7324282151967 21.413513989100466,203.73769565704424 21.527538272057427,203.77456773771337 21.65581559034763,203.79037005140344 21.817349991208175,203.79037005140344 21.950378321344033,203.83777696868128 22.078655639634235,203.858846698251 22.225937005103333,203.87991642076668 22.363716346997535,203.89045127940335 22.539503783220425,203.86938156038377 22.663030089752283,203.79563748840883 22.76755234913435,203.81670723207935 22.910082702816,203.858846698251 23.028857997560408,203.83777696868128 23.123878233338473,203.76930029894356 23.199894421966746,203.87991642076668 23.33767376386095,203.98526492776364 23.318669716682052,204.14328735817617 23.404187928914325,204.23283322622592 23.45169804681791,204.31184418066914 23.608481435861904,204.23283322622592 23.779517860297346,204.28023981077422 23.97430934367003,204.23810062627672 24.11208868556423,204.10641549317734 24.25937005103333,204.0116020270034 24.416153440106427,204.09061325871153 24.534928734850837,204.18015920160178 24.734471229981864,204.1959614136067 24.900756642629858,204.1959614136067 25.00527890198282,204.13801995021277 25.15731127926847,204.06427619249735 25.314094668312464,204.02740428127436 25.451874010206666,203.92732327071644 25.546894246013835,203.96419524045996 25.684673587908037,204.0379391152528 25.798697870865,204.11695031395357 25.926975189184304,204.14328735817617 26.036248460324714,204.09061325871153 26.155023755069124,204.04847394747048 26.321309167688014,204.0432065315763 26.463839521398768,204.0432065315763 26.60161886329297,204.00106718864117 26.70614112264593,203.96946266294617 26.80591237024055,203.9431255460986 26.962695759313647,203.98526492776364 27.105226112966193,204.0432065315763 27.185993313411018,204.06954360661985 27.31427063170122,204.09061325871153 27.42829491465818,204.18542660603998 27.480556044349214,204.33291375177942 27.57557628012728,204.45406364908195 27.55182122119004,204.6015501663096 27.54707020940259,204.75957105190173 27.518564138677903,204.9123241981215 27.46155199719942,205.05980964327682 27.589829315518728,205.175690822427 27.57557628012728,205.3073737220002 27.456800985411974,205.41271984362538 27.319021643488668,205.44959094461228 27.22875241949805,205.60234241897706 27.20974837234826,205.7445589761992 27.31427063170122,205.88150795032197 27.3807847967837,206.0184566269818 27.54707020940259,206.08693085374398 27.656343480543,206.19754290914716 27.63733943339321,206.33975812378776 27.78937181067886,206.37136146126068 27.893894070060924,206.43456808867268 27.969910258660093,206.56624835894036 28.136195671308087,206.67159237714077 28.283477036777185,206.7453330851531 28.378497272584355,206.85067680415523 28.48301953196642,206.97182186342252 28.57803976771538,207.11403533162593 28.663557979947655,207.21937843461637 28.787084286479512,207.36685848313937 28.953369699098403,207.39319416978833 29.124406123533845,207.398461305791 29.26218546545715,207.4458655100825 29.43322188986349,207.5196053125983 29.57575224354514,207.5722765472965" stroke="#4DD2FF" stroke-dasharray="none" stroke-linecap="round" stroke-linejoin="round" stroke-width="0.5"><title>2026-03-14 12.0km</title><desc>9223370263378906807</desc></polyline></svg>