<?xml version="1.0" encoding="utf-8" ?>
<svg baseProfile="full" height="300mm" version="1.1" viewBox="0,0,200,300" width="200mm" xmlns="http://www.w3.org/2000/svg" xmlns:ev="http://www.w3.org/2001/xml-events" xmlns:xlink="http://www.w3.org/1999/xlink"><defs /><rect fill="#222222" height="300" width="200" x="0" y="0" /><text fill="#FFFFFF" style="font-size:12px; font-family:Arial; font-weight:bold;" x="10" y="20">Over 10km Runs</text><text fill="#FFFFFF" style="font-size:4px; font-family:Arial" x="10" y="280">Runner</text><text fill="#FFFFFF" style="font-size:9px; font-family:Arial" x="10" y="290">yihong0618</text><text fill="#FFFFFF" style="font-size:4px; font-family:Arial" x="65" y="280">SPECIAL TRACKS</text><rect fill="yellow" height="2.6" width="2.6" x="65" y="283" /><text fill="#FFFFFF" style="font-size:3px; font-family:Arial" x="70" y="285.5">Over 20.0 km</text><rect fill="red" height="2.6" width="2.6" x="65" y="287" /><text fill="#FFFFFF" style="font-size:3px; font-family:Arial" x="70" y="289.5">Over 40.0 km</text><text fill="#FFFFFF" style="font-size:4px; font-family:Arial" x="120" y="280">STATISTICS</text><text fill="#FFFFFF" style="font-size:3px; font-family:Arial" x="120" y="285">Number: 1</text><text fill="#FFFFFF" style="font-size:3px; font-family:Arial" x="120" y="290">Weekly: 1.0</text><text fill="#FFFFFF" style="font-size:3px; font-family:Arial" x="141" y="285">Total: 12.0 km</text><text fill="#FFFFFF" style="font-size:3px; font-family:Arial" x="141" y="290">Avg: 12.0 km</text><text fill="#FFFFFF" style="font-size:3px; font-family:Arial" x="167" y="285">Min: 12.0 km</text><text fill="#FFFFFF" style="font-size:3px; font-family:Arial" x="167" y="290">Max: 12.0 km</text><polyline fill="none" opacity="1" points="28.421256378671387,206.963921394341 28.38799929615925,206.85331073426642 28.26922400141484,206.726898313711 28.235966918902704,206.7058295523093 28.13144465952064,206.65842481342042 28.041175435530022,206.6004856397085 27.89864508184837,206.57941683607714 27.841632940340787,206.46880550144851 27.86538799930713,206.35292675228266 27.737110680987826,206.37399563160943 27.59933133906452,206.3371250881719 27.623086398059968,206.14750480988732 27.55182122119004,206.07376343656506 27.442547950020526,206.0526944569101 27.342776702455012,205.96315121484076 27.276262537401635,205.8578060613545 27.17649128983612,205.7682625424859 27.152736230869778,205.62077882241283 27.20499736056081,205.4364236871661 27.3712827731797,205.4048198955643 27.51381312686135,205.3416122648414 27.55182122119004,205.1835929107765 27.49005806792411,205.10985040999003 27.46155199719942,204.9728998225728 27.442547950020526,204.841216284869 27.537568185827695,204.71479982988603 27.542319197615143,204.57258101503976 27.566074256552383,204.44616402138854 27.471054020774318,204.32501416458763 27.437796938233078,204.1880618721916 27.35227872602991,204.08798116268372 27.219250395923154,204.08271375251206 27.224001407710603,204.0774463419075 27.2430054548895,204.08271375251206 27.214499384135706,204.08798116268372 27.22875241949805,204.09324857240426 27.219250395923154,204.08798116268372 27.20974837234826,204.09324857240426 27.214499384135706,204.09851598168098 27.214499384135706,204.09324857240426 27.12423016014509,203.95102835533544 27.138483195507433,203.84567983953093 27.17174027801957,203.74033114767371 27.247756466676947,203.65605206742475 27.333274678880116,203.59284268328702 27.395037832146045,203.52436577896515 27.509062115073903,203.44008640998072 27.618335386243416,203.3400045129456 27.699102586659137,203.27679481190717 27.722857645596378,203.17671265561876 27.656343480543,203.09770031473818 27.57557628012728,203.01868787481362 27.537568185827695,202.86593021011868 27.566074256552383,202.77111492170297 27.57557628012728,202.67103196253447 27.589829315518728,202.5340760766885 27.58032729194383,202.41819009469327 27.485307056136662,202.370782131562 27.456800985411974,202.30757145859388 27.385535808542045,202.19695262835376 27.442547950020526,202.02312264576176 27.504311103286454,201.93884126950434 27.49956009152811,201.79661619153194 27.5280661622528,201.64912317908602 27.60408235088107,201.53323557004114 27.627837409818312,201.39627721190845 27.656343480543,201.2909244262155 27.627837409818312,201.1803038117214 27.627837409818312,201.06441534067199 27.594580327306176,200.9854003518667 27.594580327306176,200.86424384331258 27.64684145699721,200.69041018508506 27.70385359847569,200.5797885165848 27.70385359847569,200.46916665390017 27.656343480543,200.3374737070808 27.675347527721897,200.19524501542037 27.665845504147,200.04248050758542 27.675347527721897,199.86337681993973 27.20499736056081,199.09427872829474 27.14798521908233,199.09427872829474 27.06246700687916,199.0574039264502 27.03871194794192,198.96258290835976 27.019707900763024,198.878297439147 27.00070385361323,198.8519582069057 26.96744677107199,198.77820829806296 26.905683617835166,198.73606545425355 26.848671476356685,198.67811899798835 26.786908323090756,198.61490462131405 26.729896181612276,198.57276166828524 26.677635051921243,198.49901143268653 26.573112792539177,198.41472534345303 26.501847615727456,198.31990335829687 26.435333450644976,198.28302810332025 26.34031321486691,198.30936757337986 26.235790955484845,198.33043914147493 26.150272743281676,198.34624281293873 26.036248460324714,198.33570703240912 25.98873834242113,198.2303491302082 25.94122822454665,198.15133058795254 25.888967094855616,198.08811568280726 25.765440788323758,198.10918732489517 25.69892662327038,198.07231194660926 25.708428646845277,198.05124029219223 25.741685729357414,198.05124029219223 25.732183705782518,198.04070446232072 25.694175611482933,198.0617761202884 25.670420552545693,198.0617761202884 25.684673587908037,198.06704403367257 25.670420552545693,198.07757985910575 25.67517156433314,198.06704403367257 25.69892662327038,198.04070446232072 25.69892662327038,198.03543654673922 25.622910434642108,197.93534606688263 25.608657399279764,197.86686301539157 25.565898293163627,197.76677226776155 25.546894246013835,197.7457005111719 25.49938412811025,197.70882492016972 25.43762097484432,197.66668136116277 25.36160478621605,197.66141341431285 25.29509062116267,197.63507367340935 25.26183353862143,197.6403416224748 25.247580503259087,197.62453777396877 25.162062291055918,197.66141341431285 25.10029913778999,197.70882492016972 25.043286996311508,197.71936080550222 24.97677283125813,197.74043257091398 24.915009677992202,197.787844017319 24.843744501151377,197.83525542804637 24.78198134788545,197.8773988743087 24.74397325355676,197.8773988743087 24.677459088503383,197.92481021765707 24.615695935266558,197.9458819143656 24.52067569945939,197.98275736664436 24.43040647546877,198.01963279733536 24.354390286811395,198.1249910518527 24.268872074608225,198.2092775286219 24.159598803467816,198.2092775286219 24.102586661989335,198.2092775286219 24.002815414394718,198.19347382282285 23.94105226112879,198.19347382282285 23.964807320095133,198.1671343043381 23.964807320095133,198.18293801673644 23.96955833188258,198.18293801673644 23.91729720219155,198.18293801673644 23.865036072500516,198.13025895995088 23.79852190744714,198.11445523432485 23.741509765968658,198.1671343043381 23.670244589156937,198.09338359399044 23.589477388712112,198.10918732489517 23.51346120008384,198.07231194660926 23.44219602321391,197.98802528662782 23.380432869977085,197.95114983743406 23.356677811039845,197.92481021765707 23.3329227520735,197.91954229237672 23.285412634169916,197.84052336038076 23.21889846911654,197.8089157598297 23.1951434101793,197.81945162844204 23.209396445541643,197.8089157598297 23.16663733945461,197.77730814342067 23.185641386604402,197.68248519908593 23.1951434101793,197.6192698235791 23.152384304092266,197.5665902955734 23.114376209763577,197.49283888233185 23.090621150826337,197.4348912828209 23.0478620447102,197.37167565892014 23.028857997560408,197.27685210416166 23.005102938594064,197.17149243150925 22.976596867869375,197.0134525922076 22.900580679212,196.9555045517991 22.867323596699862,196.89228844694662 22.81031145522138,196.82380426178497 22.786556396255037,196.73424790733407 22.720042231230764,196.64469142559028 22.67253211332718,196.56567089481905 22.663030089752283,196.52352657120355 22.629773007211043,196.52879461320845 22.639275030815043,196.53933069586128 22.644026042573387,196.54459873653468 22.63452401899849,196.5340626547586 22.644026042573387,196.5340626547586 22.644026042573387,196.52879461320845 22.686785148689523,196.48665026493472 22.691536160506075,196.46031003295138 22.686785148689523,196.49191831001008 22.639275030815043,196.47084612705294 22.6250219954527,196.48138221941917 22.6155199718487,196.49191831001008 22.6250219954527,196.48138221941917 22.6250219954527,196.47611417345615 22.629773007211043,196.47084612705294 22.63452401899849,196.4655780802168 22.639275030815043,196.47084612705294 181.0,92.39348718039037 180.90973077600938,92.45153181242858 180.81471054023132,92.50957639061744 180.81471054023132,92.50957639061744 180.81471054023132,92.50957639061744 180.7244413162407,92.56762091494602 23.08587013903889,197.40855144721354 23.128629245155025,197.48230295910616 23.1951434101793,197.58239415858407 23.16663733945461,197.69828903306188 23.19039239839185,197.80364782486868 23.204645433754195,197.90900644051726 23.27115959880757,198.0090969621815 23.309167693107156,198.10918732489517 23.299665669561364,198.2672244160094 23.313918704923708,198.40418957438305 23.36142882279819,198.56749379718167 23.375681858189637,198.7097261625604 23.38993489355198,198.83088681319714 23.380432869977085,198.9994577656762 23.37093084640219,199.1258856841123 23.37093084640219,199.21017082217804 23.25215555165778,199.29445584748464 23.07636811543489,199.29972365783397 22.952841808932135,199.33659831788464 22.815062467037933,199.37874076009393 22.69628717226442,199.44195437055896 22.55375681858277,199.49463233085407 22.425479500263464,199.5315068768541 22.34946331163519,199.57891697570813 22.23068801689078,199.63159482151605 22.12141474575037,199.67900484508937 22.078655639634235,199.74748592729156 22.050149568909546,199.76855701453314 22.050149568909546,199.76855701453314 22.00263945100596,199.8106991678942 21.931374274165137,199.84230576440677 21.836354038357968,199.85810905671315 21.74608481436735,199.8897156294588 21.65581559034763,199.95292872739446 21.6130564842897,200.0003385092241 21.560795354569564,200.10042570932274 21.451522083429154,200.10569345228578 21.385007918346673,200.07935473303587 21.25197958823992,200.11096119482318 21.161710364249302,200.12149667856283 21.05718810489634,200.10569345228578 20.971669892664067,200.06881924224945 20.87189864506945,200.0846224777706 20.805384480045177,200.10569345228578 20.734119303204352,200.1267644197651 20.64385007918463,200.17417407083485 20.548829843406565,200.20051275045262 20.47281365474919,200.25845780688906 20.430054548662156,200.3480091529491 20.439556572237052,200.42702494086916 20.396797466120915,200.47970207775506 20.35403836000478,200.50604062970888 20.320781277492642,200.52184375557044 20.24476508886437,200.5323791706287 20.13549181772396,200.52184375557044 20.04522259370424,200.51130833877323 19.940700334351277,200.55344999545196 19.916945275414037,200.5797885165848 19.93119831077638,200.64300092235862 19.92644729895983,200.72728403143992 19.90269224002259,200.76415785622157 19.893190216447692,200.80629934383978 19.883688192843692,200.8537084837335 19.864684145723004,200.94852665652797 19.783916945249075,201.03807702207268 19.679394685925217,201.02227402563585 19.603378497296944,201.05388001455867 19.513109273277223,201.09602130844723 19.432342072861502,201.10128896821334 19.41333802571171,201.06441534067199 19.370578919595573,201.0486123508308 19.34207284884178,201.02754169156105 19.31831778990454,200.99593568943965 19.35632588423323,200.98013268241994 19.370578919595573,200.9327236376448 19.332570825266885,200.9643296714712 19.304064754542196,200.99066802086236 19.304064754542196,201.08548598761627 19.304064754542196,201.24351561522053 19.346823860658333,201.38574194127796 19.432342072861502,201.5174326977576 19.31831778990454,201.57010892330436 19.223297554126475,201.67019363056897 19.152032377256546,201.83348939070856 19.190040471585235,201.98098197171203 19.08551821220317,202.11793905933155 19.009502023604,202.2812336594834 19.03325708254124,202.45506293025392 19.142530353710754,202.49193574424498 19.133028330135858,202.5814839170016 19.152032377256546,202.69210207239666 19.08551821220317,202.85539518511723 19.166285412647994,202.9291403231582 19.26605666024261,203.0028853749318 19.408587013895158,203.05556035910195 19.541615344031015,203.17144516931148 19.598627485480392,203.30839967035354 19.726904803828802,203.43481894566503 19.89794122823514,203.53490069215331 20.073728664428927,203.59284268328702 20.221010029898025,203.4980284882513 20.396797466120915,203.52963323577933 20.56308287876891,203.58230777978315 20.748372338537592,203.61917993439056 20.93366179833538,203.6349822797565 21.009677986992756,203.65078462117162 21.156959352461854,203.6981916216282 21.28523667078116,203.7087265057744 21.42776702446281,203.71399394719992 21.546542319178116,203.74559858644352 21.703325708280317,203.75613346268437 21.845856061961967,203.7614009001336 21.974133380281273,203.80880781741143 22.11666373393382,203.84041240911392 22.26394509943202,203.84567983953093 22.444483547413256,203.85621469903344 22.591764912911458,203.80354038391306 22.70578919586842,203.76666833713898 22.84356853776262,203.80880781741143 23.005102938594064,203.83514497826764 23.081119127222337,203.74033114767371 23.152384304092266,203.82987754698115 23.313918704923708,203.91942381907938 23.323420728498604,204.08271375251206 23.413689952518325,204.1880618721916 23.446947035030462,204.30394460050957 23.598979412287008,204.19332927355208 23.7747668485099,204.2618054512168 23.97430934367003,204.20913147500687 24.121590709139127,204.07217893087 24.278374098212225,203.96683061752628 24.43515748725622,204.07217893087 24.56818581733387,204.16699226233686 24.791483371460345,204.16172485877905 24.9245117015671,204.14065524013495 25.071793067036197,204.08798116268372 25.214323420717847,204.0037025472193 25.38060883336584,203.97209803737132 25.489882104535354,203.89308669343154 25.608657399279764,203.98263287573354 25.746436741144862,204.08271375251206 25.884216083068168,204.09324857240426 26.002991377812577,204.08798116268372 26.10751363716554,204.0353070412275 26.27855006160098,204.00896996398296 26.435333450644976,204.0353070412275 26.568361780780833,203.98263287573354 26.68238606370869,203.9457609337187 26.786908323090756,203.91415639482875 26.953193735709647,203.95102835533544 27.105226112966193,204.01423738030644 27.185993313411018,204.04057445535 27.328523667092668,204.07217893087 27.447298961837078,204.17225966546903 27.480556044349214,204.31974677423568 27.58032729194383,204.45143140117943 27.566074256552383,204.61998732231586 27.518564138677903,204.76220603021648 27.504311103286454,204.93602845972782 27.480556044349214,205.09404843432276 27.594580327306176,205.21519681326754 27.5280661622528,205.35214687434927 27.366531761421356,205.4100871952578 27.247756466676947,205.51016580595387 27.20499736056081,205.64711522631114 27.276262537401635,205.81040068484435 27.361780749604804,205.95788396134594 27.504311103286454,206.04215996444327 27.651592468784656,206.136970333293 27.627837409818312,206.27918561920524 27.779869787103962,206.34239230999083 27.893894070060924,206.39506450389672 27.969910258660093,206.5372792076705 28.136195671308087,206.64262322587092 28.29297906035208,206.74269988013475 28.402252331521595,206.84277637556806 28.487770543753868,206.97445573280493 28.606545838469174,207.1008676570309 28.687313038884895,207.2536150606793 28.844096427957993,207.36422501851848 29.01513285236433,207.36422501851848 29.186169276799774,207.39582782798243 29.33820165405632,207.45376627085352 29.51874010206666,207.5064375363545 29.647017420385964,207.55910875785412" stroke="#4DD2FF" stroke-dasharray="none" stroke-linecap="round" stroke-linejoin="round" stroke-width="0.5"><title>2026-03-14 12.0km</title><desc>9223370263378906807</desc></polyline></svg>