<?xml version="1.0" encoding="utf-8" ?>
<svg baseProfile="full" height="300mm" version="1.1" viewBox="0,0,200,300" width="200mm" xmlns="http://www.w3.org/2000/svg" xmlns:ev="http://www.w3.org/2001/xml-events" xmlns:xlink="http://www.w3.org/1999/xlink"><defs /><rect fill="#222222" height="300" width="200" x="0" y="0" /><text fill="#FFFFFF" style="font-size:12px; font-family:Arial; font-weight:bold;" x="10" y="20">Over 10km Runs</text><text fill="#FFFFFF" style="font-size:4px; font-family:Arial" x="10" y="280">Runner</text><text fill="#FFFFFF" style="font-size:9px; font-family:Arial" x="10" y="290">yihong0618</text><text fill="#FFFFFF" style="font-size:4px; font-family:Arial" x="65" y="280">SPECIAL TRACKS</text><rect fill="yellow" height="2.6" width="2.6" x="65" y="283" /><text fill="#FFFFFF" style="font-size:3px; font-family:Arial" x="70" y="285.5">Over 20.0 km</text><rect fill="red" height="2.6" width="2.6" x="65" y="287" /><text fill="#FFFFFF" style="font-size:3px; font-family:Arial" x="70" y="289.5">Over 40.0 km</text><text fill="#FFFFFF" style="font-size:4px; font-family:Arial" x="120" y="280">STATISTICS</text><text fill="#FFFFFF" style="font-size:3px; font-family:Arial" x="120" y="285">Number: 1</text><text fill="#FFFFFF" style="font-size:3px; font-family:Arial" x="120" y="290">Weekly: 1.0</text><text fill="#FFFFFF" style="font-size:3px; font-family:Arial" x="141" y="285">Total: 12.0 km</text><text fill="#FFFFFF" style="font-size:3px; font-family:Arial" x="141" y="290">Avg: 12.0 km</text><text fill="#FFFFFF" style="font-size:3px; font-family:Arial" x="167" y="285">Min: 12.0 km</text><text fill="#FFFFFF" style="font-size:3px; font-family:Arial" x="167" y="290">Max: 12.0 km</text><polyline fill="none" opacity="1" points="30.207636811566772,207.369493451577 30.084110505034914,207.43269881705055 29.95583318671561,207.44850014853728 29.841808903758647,207.37476056778178 29.675523491110653,207.33789074506785 29.580503255332587,207.29048665559822 29.414217842684593,207.27995240865857 29.304944571544183,207.20621263079374 29.167165229620878,207.1588084423529 29.019883864180883,207.13247276669426 28.905859581223922,207.1588084423529 28.63980292098131,207.08506852280334 28.635051909222966,207.02186280885508 28.56853774416959,206.87964972079135 28.49727256729966,206.82697812528932 28.42600739048794,206.65842872402936 28.321485131105874,206.58995540106116 28.24071793066105,206.47407730048508 28.174203765636776,206.43720695109005 28.06968150625471,206.38980218448341 27.917649128998164,206.37400058770072 27.83213091676589,206.25812209022843 27.884392046456924,206.14751059852642 27.751363716379274,206.13697616062564 27.60883336266852,206.1159072795308 27.623086398059968,205.92628703294395 27.55182122119004,205.84201118474084 27.437796938233078,205.8156749590671 27.333274678880116,205.72086445557943 27.26200950203929,205.61025202131714 27.157487242657226,205.51017393738584 27.152736230869778,205.35742287140965 27.257258490251843,205.19413683989842 27.409290867537493,205.17833494343358 27.54707020940259,205.05191962917888 27.54707020940259,204.91496941933292 27.42829491465818,204.8201575613275 27.471054020774318,204.6884741886679 27.49005806792411,204.53045377839226 27.542319197615143,204.39350243575973 27.58032729194383,204.26181817189718 27.485307056136662,204.15120317768015 27.471054020774318,203.99318142066113 27.366531761421356,203.88783336259803 27.219250395923154,203.84042667904578 27.224001407710603,203.85096150068784 27.247756466676947,203.85096150068784 27.214499384135706,203.8562289108595 27.22875241949805,203.8562289108595 27.219250395923154,203.8562289108595 27.20974837234826,203.86149632058004 27.214499384135706,203.86676372985676 27.214499384135706,203.86149632058004 27.133732183719985,203.6929389910656 27.157487242657226,203.59285786343025 27.195495336985914,203.48750913636468 27.26676051382674,203.4084974755133 27.338025690667564,203.35055552795893 27.442547950020526,203.27154369545315 27.556572232977487,203.18199683223793 27.67059651593445,203.07664741852932 27.72760865741293,202.99236776079852 27.708604610263137,202.8975530111602 27.58507830373128,202.81854061084232 27.55182122119004,202.6921205643448 27.55182122119004,202.56570026429836 27.58032729194383,202.4656173469557 27.570825268368935,202.33392905570508 27.60883336266852,202.21277558475776 27.485307056136662,202.14429743296932 27.46155199719942,202.07581920676967 27.3807847967837,201.97573551157984 27.442547950020526,201.79137039393754 27.504311103286454,201.701821427916 27.504311103286454,201.55432873595782 27.542319197615143,201.4068356988828 27.60883336266852,201.2856804459334 27.618335386243416,201.13818678019015 27.656343480543,201.0117633633963 27.618335386243416,200.90641032235362 27.618335386243416,200.79578943973684 27.594580327306176,200.7009713858206 27.589829315518728,200.5587440374693 27.680098539509345,200.4217840653364 27.699102586659137,200.29009150374623 27.67059651593445,200.1636663857571 27.675347527721897,200.01617009421898 27.661094492359553,199.86867345749852 27.680098539509345,199.6526956166199 27.656343480543,199.61055351258256 27.152736230869778,198.87832995638018 27.076720042241504,198.83618733450203 27.043462959700264,198.73609849461354 27.02920992433792,198.6518130324621 27.00070385361323,198.62547380242177 26.96744677107199,198.54645604623875 26.905683617835166,198.49904534497546 26.843920464569237,198.44636674616413 26.763153264124412,198.39895596959832 26.725145169824827,198.33047367381369 26.6633820165589,198.26199130359237 26.54460672181449,198.16190155169534 26.473341544973664,198.06181164084046 26.406827379891183,198.05127585149603 26.292803096963326,198.0828832142288 26.202533872972708,198.1039547805849 26.093260601803195,198.10922267106434 26.01724441317492,198.05127585149603 25.974485307058785,197.94591786122328 25.922224177367752,197.87743507307096 25.808199894439895,197.85636343098304 25.71317965866183,197.87216716321564 25.69892662327038,197.8300238684642 25.732183705782518,197.81948804036801 25.71317965866183,197.83529178184835 25.684673587908037,197.84055969478504 25.679922576091485,197.8247559546253 25.684673587908037,197.83529178184835 25.670420552545693,197.84582760728154 25.67517156433314,197.83529178184835 25.69892662327038,197.8089522104965 25.694175611482933,197.7984163788933 25.622910434642108,197.6719862620812 25.608657399279764,197.60877110855654 25.565898293163627,197.52975207745476 25.53739222243894,197.50868031908976 25.470878057385562,197.47180472500258 25.40911490409053,197.41912526743909 25.33309871549136,197.42966116248863 25.28558859755867,197.3980534720904 25.25233151507564,197.39278552214455 25.195319373568054,197.42439321518032 25.119303184968885,197.46126883701436 25.06704205524875,197.49814443726427 24.98152384304558,197.49287649568942 24.94351574871689,197.53502001593733 24.848495512938825,197.57189557304446 24.80098539503524,197.64037869323874 24.75347527716076,197.6456466224845 24.682210100319935,197.6877900405525 24.620446947054006,197.71412966254138 24.52067569945939,197.75100511482015 24.42565546365222,197.7984163788933 24.354390286811395,197.90377461579192 24.25461903924588,197.97225737531335 24.145345768076368,197.97225737531335 24.078831603052095,197.97225737531335 23.988562379032373,197.96698947337063 23.95055428473279,197.9564536681719 23.964807320095133,197.9353820525139 23.964807320095133,197.9564536681719 23.94580327294534,197.96172157099863 23.903044166829204,197.9353820525139 23.82702797820093,197.88270298250063 23.7747668485099,197.90904252300606 23.698750659881625,197.89323880002848 23.6179834594368,197.86163134216622 23.53721625902108,197.87216716321564 23.456449058605358,197.77734471035728 23.39468590533943,197.72993343044072 23.356677811039845,197.69305796583285 23.342424775648396,197.6877900405525 23.294914657744812,197.61930697186472 23.223649480903987,197.57189557304446 23.1951434101793,197.58769937661782 23.209396445541643,197.57716350800547 23.171388351242058,197.53502001593733 23.1951434101793,197.44019705574829 23.199894421966746,197.37698166968403 23.13338025691337,197.31903417674766 23.114376209763577,197.25581866912398 23.08587013903889,197.18733513095867 23.0478620447102,197.1135835450914 23.009853950381512,197.0029560044095 23.009853950381512,196.829112333784 22.924335738178343,196.76589633464027 22.886327643849654,196.6605361951224 22.815062467037933,196.6131240748582 22.80556044340483,196.53937181687434 22.748548301955452,196.44454735832915 22.68203413693118,196.36025883092952 22.66778110153973,196.29704236138423 22.629773007211043,196.29704236138423 22.6250219954527,196.30757844403706 22.644026042573387,196.31284648471046 22.63452401899849,196.30231040293438 22.644026042573387,196.30757844403706 22.644026042573387,196.29704236138423 22.686785148689523,196.24962996759496 22.691536160506075,196.223289733407 22.663030089752283,196.2548980131105 22.639275030815043,196.23909387522872 22.6250219954527,196.24436192163193 22.620270983636146,196.2548980131105 22.6250219954527,196.24436192163193 22.6250219954527,196.24436192163193 22.629773007211043,196.23909387522872 22.629773007211043,196.23909387522872 22.644026042573387,196.23382582839258 180.90973077600938,92.21977956060437 180.81471054023132,92.27782413879322 180.81471054023132,92.27782413879322 180.81471054023132,92.27782413879322 180.81946155201877,92.27254736119357 180.62942108043353,92.3939131335901 23.11912722152192,197.23474681915104 23.180890374816954,197.3348380437492 23.180890374816954,197.44546500173237 23.19039239839185,197.56135970177638 23.204645433754195,197.67725418869304 23.27115959880757,197.77734471035728 23.313918704923708,197.89323880002848 23.304416681348812,198.04074006039446 23.328171740286052,198.2093125066349 23.36617983461474,198.36734876541232 23.380432869977085,198.50431320242933 23.385183881764533,198.63600949576357 23.380432869977085,198.80984818152865 23.380432869977085,198.9204725500531 23.347175787435845,199.02056109711702 23.171388351242058,199.05743578489273 23.019355973956408,199.0995782587961 22.891078655637102,199.1101138728809 22.748548301955452,199.1733275203369 22.596515924698906,199.23127330814168 22.4682386063796,199.2839512508217 22.373218370601535,199.32082578449263 22.26394509943202,199.37877143665537 22.14992081647506,199.44198481463536 22.09765968681313,199.494662581179 22.050149568909546,199.53680476270893 22.050149568909546,199.5315369915661 22.00263945100596,199.5684113803727 21.931374274165137,199.61055351258256 21.83160302657052,199.62635680488893 21.736582790792454,199.66323113821636 21.636811543197837,199.72117647557025 21.60830547247315,199.77385400873754 21.546542319178116,199.87394120046156 21.42776702446281,199.86867345749852 21.34699982404709,199.84760248121165 21.22347351751523,199.88447668509252 21.11420024637482,199.88974442673862 21.0239310223551,199.8528702259464 20.91940876300214,199.83706699042523 20.82438852719497,199.87920894299896 20.76262537392904,199.88447668509252 20.686609185300767,199.94242181901063 20.582086925947806,199.9529572921856 20.491817701928085,199.9950991672631 20.4443075840245,200.08465055821944 20.430054548662156,200.1847372563716 20.401548477937467,200.24268211423623 20.35878937182133,200.25848524803587 20.320781277492642,200.29535921150818 20.24476508886437,200.30062691880448 20.13549181772396,200.29009150374623 20.040471581945894,200.27955608694901 19.935949322534725,200.32169774362774 19.92169628717238,200.35330396765494 19.935949322534725,200.43231945837397 19.92644729895983,200.5007994701882 19.89794122823514,200.5534763517353 19.878937181085348,200.59561782526362 19.864684145723004,200.65356230534962 19.831427063181764,200.74838043059572 19.731655815587146,200.79052177381163 19.64138659159653,200.81159243483853 19.574872426543152,200.82739542600393 19.484603202552535,200.88533969301352 19.427591061074054,200.85373373579205 19.37532993138302,200.81159243483853 19.36582790777902,200.80632477024847 19.31831778990454,200.76418343761543 19.35632588423323,200.73784509038887 19.370578919595573,200.69570371197915 19.35632588423323,200.72730974843216 19.31831778990454,200.74838043059572 19.304064754542196,200.85373373579205 19.304064754542196,201.0117633633963 19.35632588423323,201.16452496008424 19.427591061074054,201.2856804459334 19.313566778117092,201.33835667148014 19.199542495189235,201.46477943318678 19.147281365498202,201.6438779115233 19.171036424435442,201.7861028112129 19.052261129691033,201.94413010115022 19.004751011787448,202.09688943814763 19.08551821220317,202.21277558475776 19.161534400860546,202.3075913644425 19.152032377256546,202.40767453269655 19.11877529474441,202.5182925864101 19.10927327114041,202.68685305690815 19.223297554126475,202.75533061927854 19.370578919595573,202.79220312206962 19.503607249702327,202.87648304741015 19.574872426543152,203.04504256008295 19.703149744862458,203.17672936572853 19.878937181085348,203.28734606988291 20.054724617279135,203.35582297992732 20.192503959173337,203.26627623642707 20.38254443075857,203.29261352714093 20.56308287876891,203.35055552795893 20.748372338537592,203.38742768256634 20.957416857301723,203.4084974755133 21.042935069533996,203.4137649226468 21.16646137603675,203.47170681210264 21.3089917297184,203.47697425395017 21.442020059854258,203.48750913636468 21.6035544606857,203.52964864830938 21.74608481436735,203.51911377295983 21.907619215227896,203.55071839372613 22.026394509943202,203.57178813208884 22.192679922591196,203.6191950176726 22.354214323451743,203.62972987630928 22.539503783220425,203.6086601572897 22.67253211332718,203.53491608531476 22.786556396255037,203.57178813208884 22.952841808932135,203.6139275877067 23.062115080072545,203.52964864830938 23.142882280488266,203.57178813208884 23.280661622382468,203.64553216093555 23.3329227520735,203.82989185561746 23.408938940701773,203.951042218574 23.44219602321391,204.07745974035788 23.598979412287008,203.96157702172786 23.779517860297346,204.01951840768015 23.983811367244925,203.96157702172786 24.140594756318023,203.82989185561746 24.31638219251181,203.75088062390932 24.463663557980908,203.86149632058004 24.610944923450006,203.92997260695483 24.843744501151377,203.9405074136448 24.967270807683235,203.88783336259803 25.133556220302125,203.82462444326302 25.290339609375224,203.77195029539507 25.432869963056874,203.68240414300453 25.546894246013835,203.7034738373659 25.71317965866183,203.7982873748333 25.81770191801479,203.85096150068784 25.96498328348389,203.87203113870783 26.064754531078506,203.80355478940328 26.231039943697397,203.77721771215874 26.40207636813284,203.81408961720444 26.554108745389385,203.75614804244833 26.672884040133795,203.71400868189448 26.782157311274204,203.68767156725517 26.948442723951302,203.71927610351122 27.105226112966193,203.78248512848222 27.185993313411018,203.80882220352578 27.338025690667564,203.84569409008327 27.456800985411974,203.96157702172786 27.485307056136662,204.13013363295977 27.58032729194383,204.25655079562057 27.566074256552383,204.4303739803472 27.504311103286454,204.5989293381499 27.475805032561766,204.75694957678206 27.566074256552383,204.88863280641817 27.58032729194383,205.0361176970764 27.456800985411974,205.15199844053132 27.31427063170122,205.19413683989842 27.22875241949805,205.3521555866646 27.2335034312855,205.5207084800204 27.333274678880116,205.657657374064 27.466303008957766,205.799873218406 27.642090445180656,205.87888188217767 27.63733943339321,206.01582999822494 27.737110680987826,206.1106400581666 27.893894070060924,206.15277781680925 27.9604082351143,206.30025975031094 28.136195671308087,206.4108709740467 28.29297906035208,206.51094762831053 28.407003343309043,206.61102412374385 28.487770543753868,206.77430648579684 28.61604786204407,206.8849168779161 28.69681506245979,207.04819853069785 28.87735351047013,207.13773990269692 29.05314094669302,207.13773990269692 29.228928382886807,207.1798769749439 29.3952137955348,207.25361678360787 29.571001231728587,207.3010209007989 29.71828259722679,207.34315786391016 29.87981699805823,207.43269881705055 30.03660038713133,207.4643014760477 30.193383776175324,207.38529479887075 30.350167165248422,207.3589592178214 30.52595460144221,207.3589592178214 30.7112440612691,207.3642263349211 30.834770367771853,207.34315786391016 30.986802745057503,207.29048665559822 31.105578039801912,207.2272811475559 31.233855358092114,207.27995240865857 31.352630652836524,207.38002768355364 31.485658982943278,207.39582902821348 31.55217314796755,207.51170543484113 31.580679218721343,207.64338291113745 31.68045046631596,207.7803271948069" stroke="#4DD2FF" stroke-dasharray="none" stroke-linecap="round" stroke-linejoin="round" stroke-width="0.5"><title>2026-03-14 12.0km</title><desc>9223370263378906807</desc></polyline></svg>