<?xml version="1.0" encoding="utf-8" ?>
<svg baseProfile="full" height="300mm" version="1.1" viewBox="0,0,200,300" width="200mm" xmlns="http://www.w3.org/2000/svg" xmlns:ev="http://www.w3.org/2001/xml-events" xmlns:xlink="http://www.w3.org/1999/xlink"><defs /><rect fill="#222222" height="300" width="200" x="0" y="0" /><text fill="#FFFFFF" style="font-size:12px; font-family:Arial; font-weight:bold;" x="10" y="20">Over 10km Runs</text><text fill="#FFFFFF" style="font-size:4px; font-family:Arial" x="10" y="280">Runner</text><text fill="#FFFFFF" style="font-size:9px; font-family:Arial" x="10" y="290">yihong0618</text><text fill="#FFFFFF" style="font-size:4px; font-family:Arial" x="65" y="280">SPECIAL TRACKS</text><rect fill="yellow" height="2.6" width="2.6" x="65" y="283" /><text fill="#FFFFFF" style="font-size:3px; font-family:Arial" x="70" y="285.5">Over 20.0 km</text><rect fill="red" height="2.6" width="2.6" x="65" y="287" /><text fill="#FFFFFF" style="font-size:3px; font-family:Arial" x="70" y="289.5">Over 40.0 km</text><text fill="#FFFFFF" style="font-size:4px; font-family:Arial" x="120" y="280">STATISTICS</text><text fill="#FFFFFF" style="font-size:3px; font-family:Arial" x="120" y="285">Number: 1</text><text fill="#FFFFFF" style="font-size:3px; font-family:Arial" x="120" y="290">Weekly: 1.0</text><text fill="#FFFFFF" style="font-size:3px; font-family:Arial" x="141" y="285">Total: 12.0 km</text><text fill="#FFFFFF" style="font-size:3px; font-family:Arial" x="141" y="290">Avg: 12.0 km</text><text fill="#FFFFFF" style="font-size:3px; font-family:Arial" x="167" y="285">Min: 12.0 km</text><text fill="#FFFFFF" style="font-size:3px; font-family:Arial" x="167" y="290">Max: 12.0 km</text><polyline fill="none" opacity="1" points="31.24810839345446,207.1956806569142 31.167341193038737,207.085071151796 31.053316910081776,207.085071151796 30.944043638941366,207.1272081290117 30.84427239134675,207.16934507805854 30.7112440612691,207.2062148853729 30.630476860824274,207.15354372545335 30.511701566079864,207.1588108434371 30.38342424776056,207.1588108434371 30.22664085868746,207.17461219471443 30.09361252860981,207.22728333702253 29.960584198503057,207.25888600128383 29.841808903758647,207.1798793109192 29.675523491110653,207.14300948820528 29.571001231728587,207.085071151796 29.414217842684593,207.0745369031065 29.276438500819495,207.00606424364742 29.138659158925293,206.948125781415 28.99137779342709,206.9375915098317 28.863100475107785,206.97446145266076 28.65405595637276,206.8796529846768 28.58754179131938,206.74270716814135 28.540031673415797,206.6689669898915 28.42600739048794,206.54782222411814 28.383248284371803,206.42667722557962 28.26922400141484,206.29499761534316 28.221713883511256,206.2686616602914 28.098187577008503,206.22125691347173 27.993665317626437,206.16858493077598 27.874890022882028,206.0895768742157 27.874890022882028,205.98423264479425 27.779869787103962,205.93682768413782 27.63258842160576,205.93682768413782 27.623086398059968,205.7577419555455 27.566074256552383,205.64712992787827 27.442547950020526,205.6260609482233 27.333274678880116,205.52598319871686 27.257258490251843,205.41537076445456 27.152736230869778,205.2994908632645 27.157487242657226,205.14673975902042 27.300017596338876,204.99925558303585 27.442547950020526,204.97291908674015 27.566074256552383,204.8096325641127 27.52331515046535,204.70428619604354 27.456800985411974,204.5831376551505 27.456800985411974,204.44091950572692 27.532817174011143,204.29343367855836 27.54707020940259,204.14068013668293 27.55182122119004,203.9984609891253 27.485307056136662,203.8720436996955 27.409290867537493,203.73509135009226 27.281013549189083,203.6508128332207 27.22875241949805,203.65608024382527 27.257258490251843,203.6508128332207 27.224001407710603,203.66134765399693 27.224001407710603,203.66134765399693 27.219250395923154,203.66134765399693 27.20974837234826,203.66661506371747 27.214499384135706,203.67188247299418 27.214499384135706,203.66661506371747 27.133732183719985,203.49805773420303 27.157487242657226,203.3927091743899 27.195495336985914,203.28736043851313 27.271511525614187,203.2030813230558 27.342776702455012,203.14513936581716 27.471054020774318,203.06612752010915 27.58032729194383,202.96604570671843 27.689600563113345,202.8659637344208 27.72760865741293,202.76588160323445 27.661094492359553,202.67106680605139 27.57557628012728,202.576251866245 27.532817174011143,202.41822664966094 27.566074256552383,202.3181438075917 27.570825268368935,202.2180608066119 27.613584374455968,202.06003469202915 27.51381312686135,201.96521883311652 27.480556044349214,201.9072757380127 27.395037832146045,201.80719208464143 27.423543902870733,201.62282704403333 27.49956009152811,201.53327811543568 27.49005806792411,201.38578548513033 27.5280661622528,201.22248967039923 27.60408235088107,201.10133443770246 27.618335386243416,200.9485731601817 27.656343480543,200.81688210653374 27.618335386243416,200.71152906549105 27.60883336266852,200.59037285059458 27.589829315518728,200.49555478082402 27.589829315518728,200.3269889712392 27.694351574900793,200.20056431817284 27.699102586659137,200.0636039911733 27.656343480543,199.92664336653252 27.675347527721897,199.77914697637607 27.665845504147,199.61057925064233 27.67059651593445,199.43147554802636 27.181242301594466,198.67291304667378 27.105226112966193,198.66237739208736 27.071969030454056,198.58862776066235 27.019707900763024,198.49380667915466 27.00545486540068,198.4516639304602 26.981699806434335,198.36737834854648 26.924687664955854,198.31996765915756 26.858173499902477,198.25148548930156 26.786908323090756,198.18827111262726 26.729896181612276,198.14612815959845 26.677635051921243,198.0671100467298 26.54460672181449,197.96702029483276 26.478092556761112,197.8669303839779 26.406827379891183,197.85639459463346 26.292803096963326,197.8880019573662 26.193031849368708,197.91960930425194 26.07900756644085,197.91960930425194 26.002991377812577,197.83532301068044 25.960232271725545,197.74050079565131 25.898469118430512,197.66675008530365 25.774942811898654,197.67728590635306 25.69892662327038,197.64567843792247 25.708428646845277,197.61933886879342 25.732183705782518,197.62460678350544 25.69892662327038,197.62987469776272 25.689424599695485,197.64567843792247 25.670420552545693,197.64041052498578 25.689424599695485,197.66675008530365 25.679922576091485,197.64041052498578 25.69892662327038,197.61933886879342 25.694175611482933,197.61933886879342 25.622910434642108,197.50871255819584 25.608657399279764,197.44022950670478 25.565898293163627,197.34013875907476 25.546894246013835,197.3137990622272 25.475629069143906,197.2716555243751 25.40911490409053,197.2242440105765 25.33309871549136,197.23477990562606 25.28558859755867,197.20317221522782 25.257082526833983,197.20317221522782 25.18106633820571,197.2453157988857 25.105050149577437,197.2716555243751 25.057540031673852,197.30853112154364 24.98152384304558,197.30853112154364 24.915009677992202,197.3612105086322 24.83424247757648,197.41388985169397 24.78198134788545,197.45076536562192 24.72496920643607,197.4665691506998 24.653704029566143,197.48764085797302 24.577687840966973,197.54032009532602 24.463663557980908,197.57719553527568 24.37339433399029,197.67201799605755 24.28787612178712,197.77737611845077 24.183353862405056,197.7826440199351 24.11208868556423,197.77210821650806 24.002815414394718,197.76684031413606 23.94105226112879,197.76157241130932 23.964807320095133,197.74050079565131 23.964807320095133,197.76157241130932 23.955305296491133,197.75630450804965 23.903044166829204,197.74050079565131 23.82702797820093,197.68782172563806 23.7747668485099,197.7141612661435 23.689248636277625,197.68782172563806 23.608481435861904,197.67201799605755 23.522963223658735,197.66148217412047 23.44219602321391,197.56139177794103 23.375681858189637,197.5192484056788 23.356677811039845,197.49817670897028 23.3329227520735,197.47183707817385 23.266408587020123,197.39281811975525 23.1951434101793,197.3822822511429 23.1951434101793,197.39281811975525 23.185641386604402,197.3664784449138 23.176139363029506,197.29272729681543 23.204645433754195,197.20317221522782 23.16663733945461,197.14522474166733 23.114376209763577,197.06620537364506 23.090621150826337,197.0082577741341 23.05261305649765,196.9397741787143 23.024106985743856,196.82914667503428 23.005102938594064,196.74485892282246 22.938588773540687,196.5710150777777 22.886327643849654,196.4814589704256 22.819813478796277,196.42351083313042 22.80556044340483,196.34449056001176 22.743797290168004,196.24966610146657 22.677283125114627,196.16010953736622 22.65827907793573,196.09689306251676 22.629773007211043,196.10216110452166 22.639275030815043,196.1126971871745 22.644026042573387,196.1126971871745 22.629773007211043,196.10216110452166 22.639275030815043,196.1074291460718 22.65827907793573,196.1074291460718 22.70578919586842,196.01787237979443 22.691536160506075,196.0336765242646 22.6155199718487,196.0336765242646 22.629773007211043,196.04948066476936 22.620270983636146,196.0652848013233 22.6250219954527,196.05474871073238 22.6250219954527,196.04948066476936 22.629773007211043,196.04421261836615 22.63452401899849,196.03894457153 22.639275030815043,196.03894457153 180.90973077600938,92.0248983037418 180.81471054023132,92.08294288193065 180.81471054023132,92.08294288193065 180.81471054023132,92.08294288193065 180.81946155201877,92.077666104331 180.62942108043353,92.19903187672753 23.11912722152192,197.05040148814442 23.1951434101793,197.15049269600058 23.16663733945461,197.28219141148293 23.19039239839185,197.39281811975525 23.214147457358195,197.51398048215924 23.280661622382468,197.61407095363393 23.299665669561364,197.76157241130932 23.313918704923708,197.87746617155062 23.33767376386095,198.08291367724087 23.37093084640219,198.25148548930156 23.380432869977085,198.36737834854648 23.380432869977085,198.54648507539605 23.37093084640219,198.69398435056064 23.37093084640219,198.78353731349125 23.24265352805378,198.86782233879785 23.0478620447102,198.88889357753578 22.919584726390895,198.92050042239134 22.78180538446759,198.96791065996513 22.620270983636146,199.0363920512791 22.482491641741944,199.07853440893086 22.38272039417643,199.12594452763005 22.26869611121947,199.1838901797928 22.14992081647506,199.2471035577728 22.09290867499658,199.29978132431643 22.050149568909546,199.34192350584635 22.050149568909546,199.34192350584635 21.997888439218514,199.3840656592074 21.917121238802793,199.41567225571998 21.803096955874935,199.4262077843705 21.71282773182611,199.4894209192753 21.62730951962294,199.53683072885542 21.589301425294252,199.62111474672201 21.499032201303635,199.68959542822995 21.40401196552557,199.65798896908382 21.270983635418816,199.66852445721815 21.1712123878242,199.68959542822995 21.05718810489634,199.679059943599 20.96216786908917,199.64218573356266 20.84339257434476,199.66325671337108 20.77212739753304,199.68432768613638 20.691360197088216,199.73173734909142 20.596339961281046,199.75807603532303 20.50131972550298,199.78968244427233 20.4443075840245,199.87923385020258 20.430054548662156,199.97932056507852 20.411050501512364,200.05306856906827 20.35878937182133,200.0636039911733 20.320781277492642,200.09521024688365 20.24476508886437,200.1057456619419 20.13074080593651,200.08994253870333 20.030969558341894,200.09521024688365 19.916945275414037,200.13208419187868 19.92644729895983,200.17422581685605 19.92644729895983,200.25324128776265 19.916945275414037,200.31645359315007 19.893190216447692,200.36386278060672 19.888439204660244,200.42180729459506 19.869435157481348,200.50082245511658 19.79341896888218,200.606175848352 19.679394685925217,200.59564051694906 19.593876473722048,200.61671117797596 19.508358261489775,200.67992311883427 19.432342072861502,200.66938779976044 19.394333978532813,200.6114435133859 19.370578919595573,200.62197884214402 19.337321837054333,200.57456984886448 19.332570825266885,200.54823150385346 19.361076896020677,200.49555478082402 19.37532993138302,200.5271608199182 19.31831778990454,200.55349917373314 19.304064754542196,200.65885247892948 19.299313742725644,200.82214975395982 19.361076896020677,200.974911337893 19.418089037499158,201.10133443770246 19.280309695575852,201.15401065444166 19.17578743622289,201.31203904054564 19.156783389073098,201.49640499021552 19.137779341894202,201.63336220373822 19.023755058966344,201.79665695400035 19.004751011787448,202.00209168409856 19.123526306531858,202.0442320587863 19.142530353710754,202.14958287226546 19.152032377256546,202.26546856370987 19.08551821220317,202.4340291891458 19.190040471585235,202.51830933284145 19.313566778117092,202.5867868666137 19.451346120011294,202.64999683174028 19.570121414755704,202.79748650393594 19.669892662321217,202.94497583101474 19.85043111036066,203.0713949795645 20.026218546554446,203.13460445877354 20.173499912023544,203.08192989718373 20.373042407183675,203.0871973553185 20.553580855194014,203.15567427109636 20.748372338537592,203.19254642570377 20.96216786908917,203.21888366578423 21.052437093108892,203.21888366578423 21.185465423186542,203.28736043851313 21.33274678865564,203.28736043851313 21.465775118762394,203.308430199766 21.63206053141039,203.3347673914468 21.803096955874935,203.32949995399758 21.950378321344033,203.38217430872464 22.08815766320913,203.40324403829436 22.26394509943202,203.41904633084414 22.444483547413256,203.42958119034665 22.601266936486354,203.37690687522627 22.72954425480566,203.3400348284522 22.886327643849654,203.39797660656768 23.028857997560408,203.38217430872464 23.128629245155025,203.32423251609725 23.233151504478883,203.42958119034665 23.356677811039845,203.59287128751384 23.36142882279819,203.76142836350482 23.437445011455566,203.9141828243337 23.56097131795832,203.7719631657892 23.770015836693347,203.84043933773864 23.97430934367003,203.7719631657892 24.140594756318023,203.6350105987549 24.330635227874154,203.56126678558576 24.463663557980908,203.67714988184525 24.653704029566143,203.74035875365007 24.87225057190517,203.74035875365007 24.995776878437027,203.68768469821953 25.15731127926847,203.6086735325407 25.33309871549136,203.5665342036773 25.475629069143906,203.4559183313977 25.608657399279764,203.5401971088395 25.746436741144862,203.65608024382527 25.89371810661396,203.67188247299418 26.01724441317492,203.6508128332207 26.155023755069124,203.59287128751384 26.34031321486691,203.59287128751384 26.497096603910904,203.5770690385325 26.644377969380002,203.529662267807 26.748900228762068,203.49805773420303 26.905683617835166,203.5033251575842 27.057715995091712,203.5770690385325 27.185993313411018,203.6139409466632 27.319021643488668,203.64027801068733 27.452049973624526,203.75089355947057 27.485307056136662,203.92471760109765 27.58032729194383,204.061669538758 27.566074256552383,204.24602744655203 27.509062115073903,204.41458277618221 27.471054020774318,204.5831376551505 27.589829315518728,204.72008816247035 27.556572232977487,204.87284030044975 27.414041879295837,204.983453686571 27.26676051382674,205.0519285426344 27.20974837234826,205.215214437736 27.276262537401635,205.38376717615756 27.376033784996253,205.54178495921224 27.537568185827695,205.63132819378734 27.656343480543,205.7524747205207 27.661094492359553,205.89995713454482 27.851134963944787,205.9104915794851 27.912898117210716,206.06324083336585 28.055428470892366,206.16331773009006 28.2454689424776,206.2739288521807 28.378497272584355,206.3950741441986 28.48301953196642,206.53202071575652 28.597043814894278,206.66369983100594 28.692064050701447,206.83751584203492 28.863100475107785,206.9375915098317 29.048389934934676,206.94285864583435 29.228928382886807,206.98499571808134 29.404715819109697,207.0587355267453 29.57575224354514,207.11667388733986 29.765792715130374,207.15354372545335 29.903572056995472,207.24308467113224 30.069857469643466,207.2536188916747 30.22664085868746,207.18514642669106 30.40242829491035,207.1588108434371 30.597219778283034,207.1588108434371 30.749252155568684,207.16934507805854 30.89178250922123,207.1272081290117 31.034312862931984,207.0798040276677 31.172092204826185,207.0429341464369 31.295618511358043,207.14300948820528 31.428646841464797,207.19041354200817 31.547422136209207,207.26942021918512 31.566426183359,207.40636489178723 31.642442371987272,207.53804218109144 31.756466654944234,207.65391796825133 31.837233855359955,207.79612887053736 31.90849903220078,207.7855947406133 31.979764209041605,207.72765699465162 31.979764209041605,207.6486508916314 32.051029385911534,207.73292406466499 32.1270455745107,207.84353243335863 32.22206581031787,207.95414060803523 32.331339081487386,208.0278792833633 32.48337145874393,208.0120781459118" stroke="#4DD2FF" stroke-dasharray="none" stroke-linecap="round" stroke-linejoin="round" stroke-width="0.5"><title>2026-03-14 12.0km</title><desc>9223370263378906807</desc></polyline></svg>