<?xml version="1.0" encoding="utf-8" ?>
<svg baseProfile="full" height="300mm" version="1.1" viewBox="0,0,200,300" width="200mm" xmlns="http://www.w3.org/2000/svg" xmlns:ev="http://www.w3.org/2001/xml-events" xmlns:xlink="http://www.w3.org/1999/xlink"><defs /><rect fill="#222222" height="300" width="200" x="0" y="0" /><text fill="#FFFFFF" style="font-size:12px; font-family:Arial; font-weight:bold;" x="10" y="20">Over 10km Runs</text><text fill="#FFFFFF" style="font-size:4px; font-family:Arial" x="10" y="280">Runner</text><text fill="#FFFFFF" style="font-size:9px; font-family:Arial" x="10" y="290">yihong0618</text><text fill="#FFFFFF" style="font-size:4px; font-family:Arial" x="65" y="280">SPECIAL TRACKS</text><rect fill="yellow" height="2.6" width="2.6" x="65" y="283" /><text fill="#FFFFFF" style="font-size:3px; font-family:Arial" x="70" y="285.5">Over 20.0 km</text><rect fill="red" height="2.6" width="2.6" x="65" y="287" /><text fill="#FFFFFF" style="font-size:3px; font-family:Arial" x="70" y="289.5">Over 40.0 km</text><text fill="#FFFFFF" style="font-size:4px; font-family:Arial" x="120" y="280">STATISTICS</text><text fill="#FFFFFF" style="font-size:3px; font-family:Arial" x="120" y="285">Number: 1</text><text fill="#FFFFFF" style="font-size:3px; font-family:Arial" x="120" y="290">Weekly: 1.0</text><text fill="#FFFFFF" style="font-size:3px; font-family:Arial" x="141" y="285">Total: 12.0 km</text><text fill="#FFFFFF" style="font-size:3px; font-family:Arial" x="141" y="290">Avg: 12.0 km</text><text fill="#FFFFFF" style="font-size:3px; font-family:Arial" x="167" y="285">Min: 12.0 km</text><text fill="#FFFFFF" style="font-size:3px; font-family:Arial" x="167" y="290">Max: 12.0 km</text><polyline fill="none" opacity="1" points="28.64930494458531,207.26151603923063 28.62554988564807,207.16670742870338 28.559035720594693,207.0613643609031 28.48301953196642,207.00869276101366 28.421256378671387,206.84014334566018 28.321485131105874,206.77693719875242 28.2454689424776,206.66105909817634 28.18845680099912,206.6241887487813 28.079183529829606,206.58205118023398 27.950906211539404,206.55571518557554 27.87013901109458,206.46090551374073 27.874890022882028,206.36609569934808 27.78462079889141,206.31342351863714 27.656343480543,206.32922517747647 27.613584374455968,206.17647564286017 27.60408235088107,206.03952746962023 27.49005806792411,206.0184584934832 27.3807847967837,205.9710532714489 27.304768608126324,205.8604409480613 27.224001407710603,205.76036296446182 27.157487242657226,205.63921571913306 27.162238254473777,205.49699909061746 27.328523667092668,205.38638593554424 27.452049973624526,205.35478214129398 27.566074256552383,205.19676293244265 27.532817174011143,205.08614925059737 27.442547950020526,204.99133736882868 27.466303008957766,204.85965396315805 27.49005806792411,204.71216822225324 27.542319197615143,204.580484233451 27.57557628012728,204.45406734541393 27.49480907971156,204.343452360441 27.485307056136662,204.19069801448495 27.3807847967837,204.095884786002 27.22875241949805,204.01160624095428 27.22875241949805,204.0379432983791 27.257258490251843,204.03267588777453 27.22875241949805,204.04321070855076 27.224001407710603,204.0484781182713 27.22875241949805,204.03267588777453 27.214499384135706,204.05374552754802 27.214499384135706,204.05374552754802 27.214499384135706,204.0484781182713 27.14323420729488,203.97473434206768 27.138483195507433,203.8430488128506 27.152736230869778,203.7535024958488 27.214499384135706,203.64815372476733 27.281013549189083,203.5744094802576 27.34752771424246,203.52173496706382 27.46155199719942,203.44799057466298 27.566074256552383,203.3637111634198 27.675347527721897,203.25836174090728 27.72760865741293,203.17408207613335 27.708604610263137,203.08453480885146 27.594580327306176,203.010789904969 27.556572232977487,202.88963737558151 27.55182122119004,202.76848461336704 27.566074256552383,202.66313419606013 27.570825268368935,202.5525160683792 27.618335386243416,202.42082756804666 27.504311103286454,202.34181433576668 27.480556044349214,202.28913879256652 27.399788843933493,202.20485783187905 27.40453985572094,202.02576041624343 27.471054020774318,201.94147910336687 27.49956009152811,201.81505692278006 27.504311103286454,201.66756405825436 27.58032729194383,201.5253384691714 27.623086398059968,201.41471834466938 27.63733943339321,201.28829510749347 27.64684145699721,201.17767456695947 27.618335386243416,201.06705383225926 27.60883336266852,200.96170057109703 27.589829315518728,200.8721501606451 27.589829315518728,200.72992277663434 27.684849551296793,200.59823046822567 27.699102586659137,200.47707330143749 27.67059651593445,200.35064818344836 27.67059651593445,200.20841962255872 27.661094492359553,200.07145848278378 27.684849551296793,199.85548069605284 27.675347527721897,199.80280307482099 27.16698926623212,199.06531175407144 27.081471054028952,199.0442404466412 27.06246700687916,198.94415164022575 27.02920992433792,198.86513404917787 27.00545486540068,198.83352698501403 26.981699806434335,198.75977710699226 26.938940700347302,198.6965628571379 26.877177547081374,198.6333485438554 26.810663382027997,198.6070092279624 26.76790427591186,198.57540203432654 26.701390110887587,198.48584823295096 26.63012493401766,198.41209794803217 26.516100651060697,198.32254391457536 26.440084462432424,198.25406133254364 26.387823332770495,198.2382576491873 26.28330107338843,198.26986501192005 26.193031849368708,198.30147235880577 26.07900756644085,198.30147235880577 26.01724441317492,198.2382576491873 25.974485307058785,198.13289965891454 25.922224177367752,198.06441687076222 25.82245292980224,198.04861313985748 25.717930670420174,198.0591489609069 25.71317965866183,198.01173775231655 25.717930670420174,198.00120192334725 25.71317965866183,198.01173775231655 25.694175611482933,198.0433452286743 25.679922576091485,198.0328094049728 25.67517156433314,198.0328094049728 25.689424599695485,198.04861313985748 25.684673587908037,198.0275414924763 25.69892662327038,198.01700566615546 25.69892662327038,198.01173775231655 25.6419144817919,197.91691522813198 25.618159422825556,197.8378963489704 25.599155375675764,197.75887737073572 25.55639626958873,197.70093005703893 25.523139187076595,197.69039417609747 25.456625021994114,197.64825063470562 25.39486186875729,197.60083911695983 25.323596691916464,197.6166429601799 25.280837585800327,197.5903032192764 25.257082526833983,197.58503526978166 25.195319373568054,197.61137501287158 25.119303184968885,197.64825063470562 25.06704205524875,197.68512623495553 24.995776878437027,197.67985829338068 24.948266760533443,197.71146593621597 24.862748548330273,197.75887737073572 24.819989442214137,197.81155670057342 24.767728312523104,197.82736049093 24.710716171044623,197.8642359863843 24.653704029566143,197.86950391252685 24.563434805575525,197.92745107119117 24.463663557980908,197.9590585898295 24.382896357565187,198.04861313985748 24.311631180724362,198.12763175477812 24.211859933129745,198.16450707448894 24.140594756318023,198.13816756260348 24.036072496935958,198.1592391730046 23.955305296491133,198.14343546586315 23.964807320095133,198.12236385020515 23.964807320095133,198.12236385020515 23.983811367244925,198.13289965891454 23.94580327294534,198.1539712710619 23.888791131437756,198.10656013381958 23.822276966413483,198.0696847801919 23.7747668485099,198.09602432069732 23.693999648094177,198.08022059771974 23.62273447122425,198.0433452286743 23.54671828262508,198.07495268917046 23.47545310575515,197.9748623432024 23.42319197609322,197.91691522813198 23.356677811039845,197.8800397635241 23.347175787435845,197.87477183824376 23.318669716682052,197.82736049093 23.256906563445227,197.76941324022846 23.19039239839185,197.76941324022846 23.1951434101793,197.77468117430908 23.185641386604402,197.74834149946764 23.176139363029506,197.67985829338068 23.199894421966746,197.60083911695983 23.185641386604402,197.53235575055442 23.123878233338473,197.46914026936065 23.104874186159577,197.4217286168423 23.062115080072545,197.35851302466472 23.043111032922752,197.28476142029103 23.009853950381512,197.1688658675812 22.99560091504827,197.00555813603205 22.919584726390895,196.94234212630545 22.886327643849654,196.84224998121863 22.815062467037933,196.80010587254947 22.80556044340483,196.7263536145656 22.753299313772004,196.6420652140223 22.68203413693118,196.55250866489587 22.67253211332718,196.48929220062564 22.639275030815043,196.4787561170706 22.6250219954527,196.49456024172832 22.64877705438994,196.49456024172832 22.63452401899849,196.4840241590755 22.644026042573387,196.4840241590755 22.644026042573387,196.4840241590755 22.65827907793573,196.4840241590755 22.70578919586842,196.4050034829379 22.691536160506075,196.41553957881843 22.6155199718487,196.41553957881843 22.629773007211043,196.4313437193232 22.620270983636146,196.4313437193232 22.639275030815043,196.43661176528622 22.629773007211043,196.43661176528622 22.629773007211043,196.4313437193232 22.629773007211043,196.42080762608384 22.629773007211043,196.42607567291998 22.644026042573387,196.42080762608384 180.90973077600938,92.40676135829563 180.81471054023132,92.46480593648448 180.81471054023132,92.46480593648448 180.81471054023132,92.46480593648448 180.73869435160304,92.50702014132912 180.62942108043353,92.58089493128136 23.104874186159577,197.39538879447719 23.161886327638058,197.5112839305366 23.185641386604402,197.60610706513035 23.171388351242058,197.71146593621597 23.19039239839185,197.8378963489704 23.24265352805378,197.91691522813198 23.290163645986468,198.0275414924763 23.294914657744812,198.14343546586315 23.318669716682052,198.2751329041639 23.33767376386095,198.4647767317947 23.36142882279819,198.62281281881224 23.380432869977085,198.71763428080885 23.38993489355198,198.8862054164856 23.36617983461474,199.03897261869497 23.380432869977085,199.12325781310574 23.3329227520735,199.23388195970256 23.147633292275714,199.244417582584 23.009853950381512,199.28656005648736 22.872074608516414,199.30763128288527 22.748548301955452,199.36030931802816 22.596515924698906,199.41825510583294 22.482491641741944,199.4603974634847 22.38272039417643,199.5078075821839 22.273447123006918,199.56048544999067 22.168924863624852,199.61316327378154 22.09290867499658,199.66584105353104 22.050149568909546,199.72378656040019 22.059651592484443,199.7132510176598 22.026394509943202,199.73432210138344 21.96938236846472,199.78699977985525 21.883864156261552,199.80807083892432 21.76983987330459,199.81860636580677 21.693823684676317,199.8923550047184 21.622558507835492,199.92396153783557 21.589301425294252,200.00297780127585 21.513285236695083,200.06092299815282 21.418265000887914,200.03985202363765 21.313742741534952,200.03985202363765 21.20446947036544,200.07145848278378 21.099947210983373,200.07672622442988 21.009677986992756,200.02931653372434 20.909906739427242,200.01878104207208 20.82438852719497,200.06619074069022 20.76262537392904,200.07145848278378 20.686609185300767,200.1294036167019 20.582086925947806,200.13993908987686 20.50131972550298,200.17154549882616 20.449058595811948,200.2558291785208 20.425303536874708,200.35064818344836 20.430054548662156,200.42439619976722 20.368291395396227,200.44019933489108 20.33978532467154,200.46653788464027 20.282773183193058,200.47180559325716 20.178250923810992,200.48760871649574 20.092732711607823,200.46127017557592 19.98345944043831,200.48760871649574 19.912194263597485,200.52448265532075 19.93119831077638,200.561356572558 19.92644729895983,200.64037203686166 19.916945275414037,200.6983166477039 19.893190216447692,200.74572583516056 19.888439204660244,200.8036703491489 19.864684145723004,200.86161480987357 19.821925039577764,200.9511652353067 19.712651768437354,200.96696823832826 19.64138659159653,200.9985742325298 19.565370402968256,201.0091095604257 19.484603202552535,201.07232149070478 19.427591061074054,201.0407155334833 19.38958296677447,200.9985742325298 19.36582790777902,200.9985742325298 19.327819813479437,200.95643290341832 19.327819813479437,200.9458975667294 19.35632588423323,200.8826855096704 19.37532993138302,200.88795318351185 19.332570825266885,200.94062989773374 19.275558683788404,200.9775035715029 19.332570825266885,201.11973039681106 19.313566778117092,201.29356274744714 19.40383600210771,201.40945071485112 19.37532993138302,201.50953560613198 19.251803624851163,201.56221180085413 19.166285412647994,201.70970491191474 19.156783389073098,201.88353563541386 19.137779341894202,202.01522525829205 19.03325708254124,202.1627173092711 19.0,202.35761699014984 19.099771247594617,202.4050249295069 19.161534400860546,202.50510823995137 19.142530353710754,202.5946563303878 19.11402428295696,202.72107694737133 19.10927327114041,202.8738348545994 19.213795530522475,202.93704491482276 19.35632588423323,202.96864992116753 19.48935421431088,203.05292986060522 19.560619391180808,203.2056869636217 19.679394685925217,203.33210635516662 19.84092908675666,203.44799057466298 20.011965511192102,203.51120005914345 20.140242829482304,203.50066514947684 20.33978532467154,203.45325803411833 20.487066690140637,203.5375373256502 20.672356149938423,203.5586071309117 20.85764560973621,203.59547927320455 21.009677986992756,203.6112816132918 21.11420024637482,203.6112816132918 21.22822452930268,203.65342116749525 21.35650184765109,203.66922349306697 21.48477916594129,203.70082813231056 21.63206053141039,203.71663044600064 21.79359493224183,203.71136300855142 21.921872250561137,203.7482350614846 22.04064754533465,203.7587699297801 22.202181946166093,203.80617681536387 22.358965335210087,203.81671167400054 22.539503783220425,203.79564195498097 22.66778110153973,203.72189788300602 22.777054372709244,203.7482350614846 22.924335738178343,203.79564195498097 23.043111032922752,203.7324327557144 23.13338025691337,203.7324327557144 23.233151504478883,203.81144424490049 23.36142882279819,203.95893209308633 23.356677811039845,204.1327566140244 23.42319197609322,204.24863936169277 23.503959176508943,204.18543061663877 23.70825268345652,204.20123280884582 23.893542143225204,204.17489581964037 24.05507654408575,204.10115219131694 24.202357909583952,203.95893209308633 24.382896357565187,203.98526917252457 24.4921696287347,204.08534997401875 24.686961112107383,204.12748921133607 24.877001583692618,204.12748921133607 24.995776878437027,204.06954775277336 25.147809255693574,204.0010714148957 25.314094668312464,203.95366467587155 25.451874010206666,203.85358366531364 25.55639626958873,203.90099047958574 25.71317965866183,203.98526917252457 25.812950906227343,204.03267588777453 25.945979236334097,204.06954775277336 26.050501495716162,204.0010714148957 26.202533872972708,203.95893209308633 26.373570297379047,203.99053658709454 26.511349639302352,203.95366467587155 26.6538799929549,203.90625790120248 26.748900228762068,203.87992078875686 26.877177547081374,203.87992078875686 27.02920992433792,203.9431298401396 27.17649128983612,203.97473434206768 27.26676051382674,204.01160624095428 27.390286820358597,204.06954775277336 27.480556044349214,204.21176760145318 27.54707020940259,204.3539871292669 27.55182122119004,204.50147370813647 27.55182122119004,204.67002937575307 27.518564138677903,204.82804990486693 27.466303008957766,204.98080270649734 27.589829315518728,205.10195121702418 27.566074256552383,205.24943604607324 27.447298961837078,205.34951484070552 27.295266584551428,205.40218782670127 27.22875241949805,205.53913738435585 27.224001407710603,205.6971557350771 27.333274678880116,205.83937191209407 27.442547950020526,205.98685501609725 27.613584374455968,206.03952746962023 27.651592468784656,206.17120841092037 27.694351574900793,206.29762185585787 27.884392046456924,206.29762185585787 27.917649128998164,206.45563830556785 28.055428470892366,206.5451807846439 28.22646489532781,206.63999032974243 28.345240190043114,206.75586846903025 28.468766496574972,206.86647922152042 28.540031673415797,207.01395992298058 28.64930494458531,207.12457022269518 28.772831251117168,207.28258460000143 28.94386767555261,207.31945456438552 29.105402076384053,207.31945456438552 29.26218546545715,207.3721259046797 29.437972901650937,207.44586570719548 29.580503255332587,207.50380406293698 29.765792715130374,207.53540678000718 29.889319021633128,207.6196806147418 30.046102410706226,207.64074905583766 30.193383776175324,207.572276596562" stroke="#4DD2FF" stroke-dasharray="none" stroke-linecap="round" stroke-linejoin="round" stroke-width="0.5"><title>2026-03-14 12.0km</title><desc>9223370263378906807</desc></polyline></svg>