<?xml version="1.0" encoding="utf-8" ?>
<svg baseProfile="full" height="300mm" version="1.1" viewBox="0,0,200,300" width="200mm" xmlns="http://www.w3.org/2000/svg" xmlns:ev="http://www.w3.org/2001/xml-events" xmlns:xlink="http://www.w3.org/1999/xlink"><defs /><rect fill="#222222" height="300" width="200" x="0" y="0" /><text fill="#FFFFFF" style="font-size:12px; font-family:Arial; font-weight:bold;" x="10" y="20">Over 10km Runs</text><text fill="#FFFFFF" style="font-size:4px; font-family:Arial" x="10" y="280">Runner</text><text fill="#FFFFFF" style="font-size:9px; font-family:Arial" x="10" y="290">yihong0618</text><text fill="#FFFFFF" style="font-size:4px; font-family:Arial" x="65" y="280">SPECIAL TRACKS</text><rect fill="yellow" height="2.6" width="2.6" x="65" y="283" /><text fill="#FFFFFF" style="font-size:3px; font-family:Arial" x="70" y="285.5">Over 20.0 km</text><rect fill="red" height="2.6" width="2.6" x="65" y="287" /><text fill="#FFFFFF" style="font-size:3px; font-family:Arial" x="70" y="289.5">Over 40.0 km</text><text fill="#FFFFFF" style="font-size:4px; font-family:Arial" x="120" y="280">STATISTICS</text><text fill="#FFFFFF" style="font-size:3px; font-family:Arial" x="120" y="285">Number: 1</text><text fill="#FFFFFF" style="font-size:3px; font-family:Arial" x="120" y="290">Weekly: 1.0</text><text fill="#FFFFFF" style="font-size:3px; font-family:Arial" x="141" y="285">Total: 12.0 km</text><text fill="#FFFFFF" style="font-size:3px; font-family:Arial" x="141" y="290">Avg: 12.0 km</text><text fill="#FFFFFF" style="font-size:3px; font-family:Arial" x="167" y="285">Min: 12.0 km</text><text fill="#FFFFFF" style="font-size:3px; font-family:Arial" x="167" y="290">Max: 12.0 km</text><polyline fill="none" opacity="1" points="28.283477036777185,206.80063833513123 28.24071793066105,206.75323363187272 28.150448706699535,206.7163632824777 28.06968150625471,206.66369131738247 27.93190216436051,206.65315691908836 27.846383952128235,206.54781283926422 27.879641034669476,206.45827023304446 27.78462079889141,206.40559805233352 27.665845504147,206.42139971117285 27.60883336266852,206.29498632961258 27.60883336266852,206.14750373079005 27.509062115073903,206.11590027188504 27.399788843933493,206.08429679711844 27.319021643488668,205.9789517668396 27.247756466676947,205.88414108909637 27.152736230869778,205.78406299679045 27.152736230869778,205.64184648709124 27.22875241949805,205.47329317128606 27.3807847967837,205.4522239751277 27.518564138677903,205.3837490389742 27.55182122119004,205.23099699033992 27.49480907971156,205.1625218139052 27.466303008957766,205.0361059081697 27.456800985411974,204.91495709397714 27.5280661622528,204.78327333622656 27.532817174011143,204.64632193638317 27.57557628012728,204.5251723731417 27.485307056136662,204.43035950906778 27.480556044349214,204.27760515033515 27.376033784996253,204.17752450771513 27.22875241949805,204.10378077465066 27.22875241949805,204.13011783207548 27.257258490251843,204.13011783207548 27.2335034312855,204.13538524224714 27.219250395923154,204.13538524224714 27.22875241949805,204.13011783207548 27.219250395923154,204.13538524224714 27.214499384135706,204.14065265196768 27.214499384135706,204.13538524224714 27.214499384135706,204.14065265196768 27.128981171903433,203.9773627458344 27.14798521908233,203.88781648867734 27.17649128983612,203.78246778801622 27.247756466676947,203.70345614698817 27.333274678880116,203.64024676285044 27.3807847967837,203.58230477171674 27.485307056136662,203.49802541682948 27.594580327306176,203.4137459492449 27.689600563113345,203.34000132267101 27.72760865741293,203.25045416014473 27.694351574900793,203.16090687040196 27.58507830373128,203.09769694222996 27.55182122119004,202.97654440272163 27.55182122119004,202.86065914706342 27.566074256552383,202.7605762548119 27.570825268368935,202.6604932036389 27.613584374455968,202.52880473629557 27.52331515046535,202.43925642136674 27.480556044349214,202.39711599384464 27.42829491465818,202.33917286001088 27.40453985572094,202.20748372136222 27.456800985411974,202.05999155945392 27.509062115073903,201.9599073958707 27.504311103286454,201.82821746483023 27.537568185827695,201.68599203027043 27.60408235088107,201.57537202595267 27.627837409818312,201.44368129147188 27.656343480543,201.34359614925052 27.63258842160576,201.23824319626874 27.627837409818312,201.1223547445843 27.59933133906452,201.0486074371147 27.60408235088107,200.93798631411119 27.60883336266852,200.77468811100334 27.694351574900793,200.67460190642305 27.694351574900793,200.5534447092723 27.665845504147,200.43228727919632 27.67059651593445,200.3005941562551 27.661094492359553,200.16890075812626 27.684849551296793,199.9581907487118 27.67059651593445,199.9002453726207 27.17174027801957,199.15221846156055 27.105226112966193,199.13641498033758 27.071969030454056,199.06266534891256 27.02445891255047,198.99418347102255 27.014956888975576,198.92043367315273 26.995952841825783,198.89409443871045 26.96744677107199,198.80980881450523 26.905683617835166,198.7729338184654 26.843920464569237,198.72552307755177 26.786908323090756,198.66230870087747 26.73464719337062,198.62543361852659 26.68238606370869,198.5516833890906 26.587365827930626,198.46739730688932 26.5065986274858,198.39364689250215 26.42583142707008,198.34623586624002 26.373570297379047,198.33570007777234 26.27379904978443,198.3673074378603 26.188280837610364,198.39364689250215 26.07900756644085,198.39364689250215 26.01724441317492,198.33043218288367 25.974485307058785,198.23034209629986 25.922224177367752,198.1565914044586 25.831954953377135,198.14078767355386 25.732183705782518,198.16185931388827 25.708428646845277,198.10918019985183 25.708428646845277,198.08810854188414 25.732183705782518,198.09864437175565 25.72268168220762,198.08810854188414 25.69892662327038,198.114448113236 25.66566954072914,198.114448113236 25.694175611482933,198.10918019985183 25.670420552545693,198.12498393866917 25.67517156433314,198.114448113236 25.694175611482933,198.09337645704363 25.69892662327038,198.09337645704363 25.627661446429556,197.98801807040945 25.622910434642108,197.92480295387213 25.58490234031342,197.82998016016063 25.551645257801283,197.7931045907353 25.523139187076595,197.76676488506564 25.447122998419218,197.740425168402 25.39486186875729,197.68247775297277 25.323596691916464,197.70881749387627 25.28558859755867,197.67720980347804 25.26183353862143,197.67720980347804 25.200070385384606,197.6930136506562 25.133556220302125,197.72988927864935 25.07654407885275,197.77203282707706 25.02903396092006,197.75622899973314 24.972021819470683,197.7931045907353 24.905507654417306,197.83524809688242 24.83424247757648,197.89319537182018 24.78198134788545,197.92480295387213 24.739222241798416,197.93533881103576 24.677459088503383,197.9722142972205 24.615695935266558,197.99328599392902 24.525426711246837,198.03016144620779 24.439908499043668,198.06703687689878 24.363892310415395,198.16185931388827 24.28787612178712,198.251413706701 24.188104874192504,198.251413706701 24.131092732714023,198.24087790238627 24.02181946154451,198.24087790238627 23.95055428473279,198.24087790238627 23.964807320095133,198.21453838390153 23.964807320095133,198.21453838390153 23.983811367244925,198.22507419261092 23.94580327294534,198.24087790238627 23.903044166829204,198.21453838390153 23.836530001746723,198.16185931388827 23.79377089565969,198.16185931388827 23.70825268345652,198.20400257342772 23.660742565552937,198.13551976237068 23.575224353349768,198.17239513141612 23.494457152904943,198.10391228601293 23.437445011455566,198.02489352576595 23.36617983461474,197.99328599392902 23.356677811039845,197.9722142972205 23.3329227520735,197.96694637194014 23.285412634169916,197.89319537182018 23.228400492691435,197.8510519044321 23.19039239839185,197.8721236416386 23.209396445541643,197.8563198393931 23.180890374816954,197.83524809688242 23.180890374816954,197.75622899973314 23.204645433754195,197.67720980347804 23.180890374816954,197.6245302842508 23.11912722152192,197.55604684342325 23.104874186159577,197.51390315053868 23.062115080072545,197.4506875583611 23.043111032922752,197.38220392858784 23.009853950381512,197.276844352833 22.99560091504827,197.11353666224022 22.938588773540687,197.0450526660279 22.895829667453654,196.97130058686525 22.83406651415862,196.91862047747782 22.81031145522138,196.86594032402354 22.772303360921796,196.76584791112327 22.710540207655868,196.67629140692588 22.677283125114627,196.60253889612068 22.663030089752283,196.57619869277187 22.629773007211043,196.57619869277187 22.63452401899849,196.58146673432202 22.644026042573387,196.5920028160981 22.629773007211043,196.58146673432202 22.639275030815043,196.57619869277187 22.644026042573387,196.57093065076697 22.68203413693118,196.55512652214384 22.701038184051868,196.50244606479464 22.691536160506075,196.52351825301957 22.6155199718487,196.5077141125148 22.629773007211043,196.52351825301957 22.620270983636146,196.52351825301957 22.620270983636146,196.53405434449814 22.6250219954527,196.52351825301957 22.6250219954527,196.52351825301957 22.629773007211043,196.51825020661636 22.629773007211043,196.51825020661636 22.639275030815043,196.51298215978022 180.90973077600938,92.498935891992 180.81471054023132,92.55698047018086 180.81471054023132,92.55698047018086 180.81471054023132,92.55698047018086 180.81471054023132,92.55698047018086 180.7244413162407,92.61502499450944 23.08587013903889,197.45595552677696 23.123878233338473,197.52970703866959 23.180890374816954,197.61399437513683 23.180890374816954,197.71935338713593 23.180890374816954,197.8194442853819 23.1951434101793,197.93533881103576 23.256906563445227,198.02489352576595 23.294914657744812,198.12498393866917 23.294914657744812,198.24087790238627 23.318669716682052,198.3673074378603 23.33767376386095,198.54641551224995 23.351926799223293,198.69391589715087 23.380432869977085,198.80454095925597 23.385183881764533,198.93623720852702 23.375681858189637,199.09427234438408 23.380432869977085,199.19436105877685 23.356677811039845,199.28391398426174 23.209396445541643,199.35239554730651 23.0478620447102,199.362931165786 22.92908674996579,199.38927020426854 22.81031145522138,199.43141264294172 22.68203413693118,199.48935845012238 22.55375681858277,199.5420364104175 22.43973253565491,199.568375374045 22.354214323451743,199.61578548083708 22.254443075857125,199.6631955519697 22.140418792900164,199.7264089246528 22.09765968681313,199.77381891256664 22.050149568909546,199.82122886480647 22.054900580696994,199.81069332295374 22.021643498155754,199.8370321742841 21.96938236846472,199.87917431355163 21.883864156261552,199.9002453726207 21.76983987330459,199.91078089950315 21.698574696463766,199.97399402385054 21.62730951962294,200.01086831710563 21.594052437110804,200.0740813410739 21.532289283844875,200.1530975318492 21.42776702446281,200.14782978888616 21.351750835834537,200.1267588125993 21.237726552877575,200.1583652743866 21.133204293524614,200.17943624009422 21.052437093108892,200.14782978888616 20.96216786908917,200.11622332181287 20.867147633311106,200.13202655733403 20.805384480045177,200.1530975318492 20.734119303204352,200.17416849932852 20.658103114546975,200.21631041313958 20.56308287876891,200.2426490949838 20.487066690140637,200.27952323104182 20.439556572237052,200.36907461451847 20.430054548662156,200.4586258707568 20.430054548662156,200.5165707334636 20.368291395396227,200.53237386858746 20.33028330106754,200.55871241833665 20.282773183193058,200.56398012695354 20.192503959173337,200.58505095706278 20.106985746970167,200.5534447092723 19.997712475829758,200.57978325019212 19.90744325183914,200.61138948478765 19.92644729895983,200.64826340510626 19.935949322534725,200.71674348561282 19.92169628717238,200.78522349171544 19.89794122823514,200.82736499695238 19.888439204660244,200.85897110737278 19.8741861692979,200.91691560200343 19.859933133906452,201.00119840816842 19.774414921703283,201.09074876622617 19.679394685925217,201.06967810519927 19.603378497296944,201.1012840941221 19.527362308639567,201.1328900671797 19.451346120011294,201.14869304777676 19.418089037499158,201.11708708263177 19.370578919595573,201.09074876622617 19.36582790777902,201.0854811016361 19.327819813479437,201.0486074371147 19.34207284884178,201.02753676198336 19.361076896020677,200.96959236907423 19.37532993138302,200.98012771720823 19.332570825266885,201.03280443143012 19.26605666024261,201.05914277202464 19.332570825266885,201.1908343099749 19.308815766329644,201.35939907702414 19.384831954957917,201.47528709284597 19.408587013895158,201.58590727281262 19.2945627309673,201.62278062300538 19.199542495189235,201.74393576457442 19.152032377256546,201.9124990524033 19.190040471585235,202.03365363706325 19.071265176840825,202.19694857839568 19.004751011787448,202.3339052997435 19.03325708254124,202.50246700981734 19.137779341894202,202.53407228027936 19.142530353710754,202.62362046051567 19.152032377256546,202.71316851352458 19.104522259382065,202.87119417909344 19.133028330135858,202.9660093882958 19.23755058948882,203.03975445239485 19.37532993138302,203.08189445027165 19.49410522612743,203.15037188676797 19.565370402968256,203.29786149731808 19.679394685925217,203.424280888863 19.83617807496921,203.53489764846017 19.988210452225758,203.59810713822662 20.125989794149064,203.61917695406737 20.306528242130298,203.54016510835936 20.449058595811948,203.60864204702375 20.629597043822287,203.64024676285044 20.781629421078833,203.671851462841 20.96691888087662,203.68765380690093 21.04768608129234,203.69292125403445 21.156959352461854,203.74559570119163 21.294738694356056,203.75613058533781 21.42776702446281,203.76139802676335 21.546542319178116,203.79300266600694 21.693823684676317,203.80880497969702 21.82685201478307,203.80880497969702 21.964631356706377,203.86147933001848 22.08815766320913,203.87728162654457 22.249692064069677,203.89308391909435 22.401724441326223,203.90361877859687 22.55850783039932,203.87728162654457 22.67253211332718,203.8140724167024 22.777054372709244,203.84040959518097 22.924335738178343,203.88781648867734 23.043111032922752,203.82460728941078 23.128629245155025,203.80880497969702 23.223649480903987,203.89835134906025 23.342424775648396,204.01950211693475 23.323420728498604,204.19332672501332 23.404187928914325,204.28813994558732 23.456449058605358,204.31447692598886 23.64648953016149,204.26707035333675 23.808023931022035,204.27760515033515 23.988562379032373,204.23546595175503 24.131092732714023,204.11431559893754 24.28787612178712,204.01950211693475 24.43515748725622,204.11958301043342 24.558683793788077,204.20912893834247 24.772479324310552,204.20912893834247 24.91976068977965,204.20386153433356 25.02903396092006,204.15118747009546 25.166813302843366,204.07217629120714 25.33309871549136,204.0405717919275 25.470878057385562,203.9299559196479 25.575400316738524,204.0036998560572 25.71317965866183,204.07744370622095 25.812950906227343,204.1248504214709 25.945979236334097,204.16172228646974 26.04575048389961,204.0985133618342 26.188280837610364,204.05637404354638 26.34031321486691,204.06690887576406 26.478092556761112,204.05637404354638 26.615871898655314,204.0142346970897 26.71089213443338,203.98263016875353 26.824916417419445,203.9562930496977 26.981699806434335,204.00896727680083 27.128981171903433,204.06164145986986 27.195495336985914,204.07744370622095 27.333274678880116,204.11958301043342 27.447298961837078,204.21966374503245 27.480556044349214,204.3671508537991 27.58032729194383,204.49356810095196 27.556572232977487,204.64632193638317 27.532817174011143,204.7938080469612 27.518564138677903,204.95182849685443 27.46155199719942,205.10458122190903 27.594580327306176,205.2151950331354 27.556572232977487,205.34687788869996 27.437796938233078,205.44695667499036 27.295266584551428,205.49436236039764 27.22875241949805,205.63131191805223 27.219250395923154,205.78406299679045 27.32377265530522,205.9157446641766 27.40453985572094,206.0632278051453 27.57557628012728,206.11063302717957 27.656343480543,206.2317795437957 27.642090445180656,206.36346027609034 27.80837585782865,206.38979638955425 27.89864508184837,206.48460630691625 28.003167341201333,206.60575210495153 28.159950730245328,206.69529450172195 28.297730072168633,206.7953711476257 28.402252331521595,206.89018045513149 28.487770543753868,207.02185981236835 28.597043814894278,207.13773741925615 28.673060003551655,207.26414911117172 28.79658631005441,207.3905605496402 28.9723737462773,207.4116290980819 29.143410170683637,207.42743050478748 29.28594052439439,207.46956756999134 29.45697694880073,207.5327731149955" stroke="#4DD2FF" stroke-dasharray="none" stroke-linecap="round" stroke-linejoin="round" stroke-width="0.5"><title>2026-03-14 12.0km</title><desc>9223370263378906807</desc></polyline></svg>