<?xml version="1.0" encoding="utf-8" ?>
<svg baseProfile="full" height="300mm" version="1.1" viewBox="0,0,200,300" width="200mm" xmlns="http://www.w3.org/2000/svg" xmlns:ev="http://www.w3.org/2001/xml-events" xmlns:xlink="http://www.w3.org/1999/xlink"><defs /><rect fill="#222222" height="300" width="200" x="0" y="0" /><text fill="#FFFFFF" style="font-size:12px; font-family:Arial; font-weight:bold;" x="10" y="20">Over 10km Runs</text><text fill="#FFFFFF" style="font-size:4px; font-family:Arial" x="10" y="280">Runner</text><text fill="#FFFFFF" style="font-size:9px; font-family:Arial" x="10" y="290">yihong0618</text><text fill="#FFFFFF" style="font-size:4px; font-family:Arial" x="65" y="280">SPECIAL TRACKS</text><rect fill="yellow" height="2.6" width="2.6" x="65" y="283" /><text fill="#FFFFFF" style="font-size:3px; font-family:Arial" x="70" y="285.5">Over 20.0 km</text><rect fill="red" height="2.6" width="2.6" x="65" y="287" /><text fill="#FFFFFF" style="font-size:3px; font-family:Arial" x="70" y="289.5">Over 40.0 km</text><text fill="#FFFFFF" style="font-size:4px; font-family:Arial" x="120" y="280">STATISTICS</text><text fill="#FFFFFF" style="font-size:3px; font-family:Arial" x="120" y="285">Number: 1</text><text fill="#FFFFFF" style="font-size:3px; font-family:Arial" x="120" y="290">Weekly: 1.0</text><text fill="#FFFFFF" style="font-size:3px; font-family:Arial" x="141" y="285">Total: 12.0 km</text><text fill="#FFFFFF" style="font-size:3px; font-family:Arial" x="141" y="290">Avg: 12.0 km</text><text fill="#FFFFFF" style="font-size:3px; font-family:Arial" x="167" y="285">Min: 12.0 km</text><text fill="#FFFFFF" style="font-size:3px; font-family:Arial" x="167" y="290">Max: 12.0 km</text><polyline fill="none" opacity="1" points="31.167341193038737,207.085071151796 31.058067921869224,207.0798040276677 30.948794650728814,207.12194100838315 30.849023403134197,207.16934507805854 30.72074608481489,207.2062148853729 30.635227872611722,207.15354372545335 30.511701566079864,207.15354372545335 30.388175259548007,207.1588108434371 30.23614288229146,207.17461219471443 30.09836354039726,207.22201622476496 29.965335210290505,207.25888600128383 29.841808903758647,207.18514642669106 29.675523491110653,207.14300948820528 29.580503255332587,207.09033827549138 29.414217842684593,207.0745369031065 29.28594052439439,207.00606424364742 29.148161182471085,206.948125781415 28.99612880521454,206.94285864583435 28.863100475107785,206.97446145266076 28.65405595637276,206.8796529846768 28.601794826681726,206.76377577465973 28.540031673415797,206.6689669898915 28.42600739048794,206.558356560814 28.38799929615925,206.42667722557962 28.26922400141484,206.29499761534316 28.221713883511256,206.2739288521807 28.10293858879595,206.22125691347173 28.003167341201333,206.16858493077598 27.884392046456924,206.09484408107528 27.874890022882028,205.99476707566282 27.779869787103962,205.93682768413782 27.642090445180656,205.93682768413782 27.623086398059968,205.76300919012647 27.570825268368935,205.64712992787827 27.452049973624526,205.6260609482233 27.338025690667564,205.53125045265915 27.26200950203929,205.41537076445456 27.152736230869778,205.31002540854024 27.157487242657226,205.15200704463132 27.281013549189083,205.0045228809904 27.437796938233078,204.97291908674015 27.566074256552383,204.81489987788882 27.5280661622528,204.70428619604354 27.452049973624526,204.58840498784411 27.456800985411974,204.4461868503131 27.532817174011143,204.29870103547728 27.542319197615143,204.14594750635297 27.566074256552383,204.00372837066243 27.480556044349214,203.87731109182278 27.409290867537493,203.73509135009226 27.285764561005635,203.6508128332207 27.22875241949805,203.65608024382527 27.257258490251843,203.6508128332207 27.22875241949805,203.66134765399693 27.224001407710603,203.66661506371747 27.224001407710603,203.66134765399693 27.20974837234826,203.66661506371747 27.214499384135706,203.67188247299418 27.219250395923154,203.66661506371747 27.128981171903433,203.5033251575842 27.157487242657226,203.39797660656768 27.195495336985914,203.28736043851313 27.271511525614187,203.2030813230558 27.342776702455012,203.1504068186805 27.46155199719942,203.06612752010915 27.57557628012728,202.97131317453386 27.689600563113345,202.8659637344208 27.72760865741293,202.77114908777367 27.67059651593445,202.67106680605139 27.57557628012728,202.59205436612683 27.532817174011143,202.42349416327124 27.566074256552383,202.32341132954753 27.570825268368935,202.2180608066119 27.60883336266852,202.0653022355582 27.518564138677903,201.96521883311652 27.480556044349214,201.91781085017647 27.395037832146045,201.81245964931804 27.418792891083285,201.62282704403333 27.49480907971156,201.53854570299882 27.49005806792411,201.39105308500802 27.52331515046535,201.22775728393754 27.60408235088107,201.10133443770246 27.623086398059968,200.95384079661744 27.656343480543,200.82214975395982 27.618335386243416,200.71152906549105 27.613584374455968,200.59564051694906 27.589829315518728,200.50082245511658 27.589829315518728,200.3480597220805 27.694351574900793,200.20583201710542 27.699102586659137,200.0741394115139 27.656343480543,199.9319110883771 27.675347527721897,199.78441471054248 27.665845504147,199.61584699889863 27.67059651593445,199.43147554802636 27.181242301594466,198.67291304667378 27.10997712475364,198.66237739208736 27.071969030454056,198.58862776066235 27.014956888975576,198.49380667915466 27.00070385361323,198.45693177559951 26.981699806434335,198.36737834854648 26.929438676772406,198.31469980258407 26.858173499902477,198.25148548930156 26.786908323090756,198.18827111262726 26.73464719337062,198.15139603027637 26.677635051921243,198.0671100467298 26.549357733601937,197.97755606569626 26.48284356854856,197.8669303839779 26.406827379891183,197.85639459463346 26.292803096963326,197.8880019573662 26.19778286118526,197.91434141420177 26.07900756644085,197.91960930425194 26.007742389600025,197.84585880353188 25.960232271725545,197.74050079565131 25.898469118430512,197.67201799605755 25.79394685907755,197.66675008530365 25.69892662327038,197.64567843792247 25.71317965866183,197.61407095363393 25.732183705782518,197.62460678350544 25.72268168220762,197.61407095363393 25.689424599695485,197.64567843792247 25.670420552545693,197.64041052498578 25.69892662327038,197.66675008530365 25.679922576091485,197.64041052498578 25.69892662327038,197.62987469776272 25.69892662327038,197.61933886879342 25.627661446429556,197.51398048215924 25.608657399279764,197.44022950670478 25.565898293163627,197.34013875907476 25.546894246013835,197.3190670024851 25.485131092747906,197.27692346814 25.40911490409053,197.22951195831774 25.342600739037152,197.23477990562606 25.28558859755867,197.20317221522782 25.257082526833983,197.20317221522782 25.18106633820571,197.24004785247598 25.105050149577437,197.2716555243751 25.057540031673852,197.30853112154364 24.98152384304558,197.30853112154364 24.915009677992202,197.3612105086322 24.83424247757648,197.41388985169397 24.78198134788545,197.45076536562192 24.734471229981864,197.46130122278555 24.65845504135359,197.49290878368993 24.582438852725318,197.53505217357815 24.477916593372356,197.57719553527568 24.382896357565187,197.66675008530365 24.28787612178712,197.76684031413606 24.188104874192504,197.77737611845077 24.121590709139127,197.76684031413606 24.00756642621127,197.76684031413606 23.94105226112879,197.76157241130932 23.964807320095133,197.74050079565131 23.99331339081982,197.75630450804965 23.955305296491133,197.75630450804965 23.903044166829204,197.74050079565131 23.82702797820093,197.68782172563806 23.7747668485099,197.7141612661435 23.698750659881625,197.68782172563806 23.608481435861904,197.66675008530365 23.527714235446183,197.66675008530365 23.44219602321391,197.56139177794103 23.380432869977085,197.52451632874727 23.356677811039845,197.49817670897028 23.342424775648396,197.48237293183047 23.266408587020123,197.3980860533884 23.1951434101793,197.3822822511429 23.199894421966746,197.38755018567463 23.185641386604402,197.3664784449138 23.176139363029506,197.29799523882684 23.204645433754195,197.20317221522782 23.16663733945461,197.14522474166733 23.114376209763577,197.06620537364506 23.090621150826337,197.0082577741341 23.0478620447102,196.94504215023335 23.024106985743856,196.83968263613497 23.005102938594064,196.74485892282246 22.943339785328135,196.57628308013955 22.891078655637102,196.49199498965027 22.824564490583725,196.42351083313042 22.80556044340483,196.34449056001176 22.748548301955452,196.24966610146657 22.68203413693118,196.16010953736622 22.663030089752283,196.09689306251676 22.629773007211043,196.10216110452166 22.639275030815043,196.1126971871745 22.644026042573387,196.1126971871745 22.629773007211043,196.1074291460718 22.639275030815043,196.10216110452166 22.65827907793573,196.1074291460718 22.70578919586842,196.01787237979443 22.691536160506075,196.02840847654443 22.6155199718487,196.0336765242646 22.629773007211043,196.04948066476936 22.620270983636146,196.0652848013233 22.6250219954527,196.05474871073238 22.6250219954527,196.04948066476936 22.629773007211043,196.04421261836615 22.63452401899849,196.03894457153 22.639275030815043,196.03894457153 180.90973077600938,92.0248983037418 180.81471054023132,92.08294288193065 180.81471054023132,92.08294288193065 180.81471054023132,92.08294288193065 180.81946155201877,92.077666104331 180.62942108043353,92.19903187672753 23.11912722152192,197.0451335254511 23.185641386604402,197.14522474166733 23.16663733945461,197.2716555243751 23.19039239839185,197.38755018567463 23.209396445541643,197.50344463380316 23.280661622382468,197.60353512203073 23.299665669561364,197.75630450804965 23.313918704923708,197.8721982779898 23.33767376386095,198.07237792399974 23.36617983461474,198.24621762700554 23.380432869977085,198.36211049592748 23.380432869977085,198.54121723775097 23.37093084640219,198.6834486995176 23.375681858189637,198.7782694956586 23.25215555165778,198.86782233879785 23.057364068285096,198.88889357753578 22.919584726390895,198.92050042239134 22.786556396255037,198.9626428575575 22.629773007211043,199.0363920512791 22.49199366531684,199.07853440893086 22.38272039417643,199.12594452763005 22.273447123006918,199.17862239543683 22.14992081647506,199.2471035577728 22.09765968681313,199.29978132431643 22.050149568909546,199.34192350584635 22.050149568909546,199.34192350584635 21.997888439218514,199.3787978915716 21.917121238802793,199.41567225571998 21.812598979420727,199.42094002026715 21.71282773182611,199.4894209192753 21.62730951962294,199.53683072885542 21.589301425294252,199.61584699889863 21.513285236695083,199.679059943599 21.40401196552557,199.65798896908382 21.28048565899371,199.66852445721815 21.175963399611646,199.68959542822995 21.061939116654685,199.679059943599 20.96216786908917,199.63691798751825 20.85764560973621,199.66325671337108 20.781629421078833,199.679059943599 20.70086222066311,199.73173734909142 20.601090973068494,199.75280829895928 20.50131972550298,199.78968244427233 20.449058595811948,199.87396612396697 20.425303536874708,199.96878512889452 20.411050501512364,200.05306856906827 20.35878937182133,200.0636039911733 20.320781277492642,200.1004779546456 20.24476508886437,200.1057456619419 20.13074080593651,200.08994253870333 20.030969558341894,200.09521024688365 19.92169628717238,200.13208419187868 19.92644729895983,200.17422581685605 19.93119831077638,200.24797359278818 19.916945275414037,200.31645359315007 19.893190216447692,200.36386278060672 19.888439204660244,200.42180729459506 19.864684145723004,200.50082245511658 19.802920992457075,200.60090818287426 19.67464367413777,200.59037285059458 19.598627485480392,200.62197884214402 19.513109273277223,200.67465545952655 19.427591061074054,200.66938779976044 19.40383600210771,200.61671117797596 19.370578919595573,200.62197884214402 19.34207284884178,200.56930218075286 19.327819813479437,200.56403451217557 19.361076896020677,200.49555478082402 19.38008094317047,200.51662547531305 19.31831778990454,200.54823150385346 19.304064754542196,200.65358481785734 19.304064754542196,200.81688210653374 19.361076896020677,200.96964370322166 19.418089037499158,201.10133443770246 19.2945627309673,201.14874303475517 19.185289459797787,201.30677143405046 19.147281365498202,201.48586980762047 19.142530353710754,201.6280946240986 19.023755058966344,201.79138938802134 19.004751011787448,201.99682413527262 19.123526306531858,202.0442320587863 19.142530353710754,202.14958287226546 19.152032377256546,202.25493350966644 19.08551821220317,202.4340291891458 19.190040471585235,202.51830933284145 19.313566778117092,202.58151936664945 19.451346120011294,202.64999683174028 19.570121414755704,202.7922190215795 19.665141650562873,202.93444089052718 19.84092908675666,203.06612752010915 20.021467534766998,203.12933700458962 20.168748900236096,203.0871973553185 20.35878937182133,203.0871973553185 20.548829843406565,203.15567427109636 20.748372338537592,203.19254642570377 20.957416857301723,203.2136162186507 21.04768608129234,203.21888366578423 21.175963399611646,203.2820929970876 21.33274678865564,203.28736043851313 21.465775118762394,203.308430199766 21.63206053141039,203.3347673914468 21.79359493224183,203.32949995399758 21.931374274165137,203.37690687522627 22.078655639634235,203.40324403829436 22.254443075857125,203.42431376081004 22.43973253565491,203.42958119034665 22.601266936486354,203.37690687522627 22.710540207655868,203.3453022650283 22.876825620274758,203.39797660656768 23.024106985743856,203.38217430872464 23.128629245155025,203.31896507775673 23.228400492691435,203.42431376081004 23.36142882279819,203.5770690385325 23.36142882279819,203.76142836350482 23.42794298788067,203.9141828243337 23.551469294383423,203.7719631657892 23.770015836693347,203.84043933773864 23.97430934367003,203.78249796632008 24.131092732714023,203.64027801068733 24.31638219251181,203.55599936704675 24.463663557980908,203.67714988184525 24.634699982387247,203.73509135009226 24.867499560088618,203.74035875365007 24.991025866620475,203.68768469821953 25.15731127926847,203.6086735325407 25.33309871549136,203.5665342036773 25.470878057385562,203.4559183313977 25.608657399279764,203.5401971088395 25.746436741144862,203.65608024382527 25.884216083068168,203.66661506371747 26.01724441317492,203.6508128332207 26.145521731494227,203.59813870295693 26.326060179504566,203.59287128751384 26.487594580336008,203.5770690385325 26.639626957592554,203.529662267807 26.748900228762068,203.49805773420303 26.900932606018614,203.5033251575842 27.052964983304264,203.5770690385325 27.190744325169362,203.6086735325407 27.31427063170122,203.6350105987549 27.447298961837078,203.74562615678224 27.485307056136662,203.9141828243337 27.58032729194383,204.05640216203756 27.566074256552383,204.23549272348464 27.504311103286454,204.40404808128733 27.471054020774318,204.5778703219912 27.589829315518728,204.71482084076342 27.556572232977487,204.87284030044975 27.414041879295837,204.983453686571 27.271511525614187,205.04666124865616 27.214499384135706,205.19414531372604 27.276262537401635,205.378499909908 27.366531761421356,205.53651770615397 27.532817174011143,205.63132819378734 27.656343480543,205.74720748508844 27.651592468784656,205.89468991140166 27.841632940340787,205.91575880130404 27.912898117210716,206.06324083336585 28.055428470892366,206.16331773009006 28.24071793066105,206.2686616602914 28.36899524900946,206.38453978021062 28.48301953196642,206.51621920346588 28.597043814894278,206.66369983100594 28.687313038884895,206.8269815519925 28.85834946334944,206.94285864583435 29.043638923118124,206.9375915098317 29.224177371128462,206.98499571808134 29.3952137955348,207.0587355267453 29.571001231728587,207.10613964393633 29.73728664437658,207.1482766070476 29.89407003344968,207.24308467113224 30.060355446097674,207.2536188916747 30.221889846929116,207.18514642669106 30.40242829491035,207.1588108434371 30.58771775473724,207.1588108434371 30.749252155568684,207.16934507805854 30.89178250922123,207.1272081290117 31.034312862931984,207.085071151796 31.16259018125129,207.0376670187943 31.290867499570595,207.13774236890822 31.42389582967735,207.19041354200817 31.547422136209207,207.25888600128383 31.566426183359,207.4010977944854 31.632940348412376,207.52750800809008 31.751715643156786,207.6486508916314 31.837233855359955,207.79612887053736 31.913250043988228,207.77506060895394 31.979764209041605,207.73292406466499 31.979764209041605,207.6486508916314 32.04627837409498,207.72765699465162 32.12229456275236,207.8382653725821 32.22206581031787,207.95414060803523 32.331339081487386,208.0278792833633" stroke="#4DD2FF" stroke-dasharray="none" stroke-linecap="round" stroke-linejoin="round" stroke-width="0.5"><title>2026-03-14 12.0km</title><desc>9223370263378906807</desc></polyline></svg>