<?xml version="1.0" encoding="utf-8" ?>
<svg baseProfile="full" height="300mm" version="1.1" viewBox="0,0,200,300" width="200mm" xmlns="http://www.w3.org/2000/svg" xmlns:ev="http://www.w3.org/2001/xml-events" xmlns:xlink="http://www.w3.org/1999/xlink"><defs /><rect fill="#222222" height="300" width="200" x="0" y="0" /><text fill="#FFFFFF" style="font-size:12px; font-family:Arial; font-weight:bold;" x="10" y="20">Over 10km Runs</text><text fill="#FFFFFF" style="font-size:4px; font-family:Arial" x="10" y="280">Runner</text><text fill="#FFFFFF" style="font-size:9px; font-family:Arial" x="10" y="290">yihong0618</text><text fill="#FFFFFF" style="font-size:4px; font-family:Arial" x="65" y="280">SPECIAL TRACKS</text><rect fill="yellow" height="2.6" width="2.6" x="65" y="283" /><text fill="#FFFFFF" style="font-size:3px; font-family:Arial" x="70" y="285.5">Over 20.0 km</text><rect fill="red" height="2.6" width="2.6" x="65" y="287" /><text fill="#FFFFFF" style="font-size:3px; font-family:Arial" x="70" y="289.5">Over 40.0 km</text><text fill="#FFFFFF" style="font-size:4px; font-family:Arial" x="120" y="280">STATISTICS</text><text fill="#FFFFFF" style="font-size:3px; font-family:Arial" x="120" y="285">Number: 1</text><text fill="#FFFFFF" style="font-size:3px; font-family:Arial" x="120" y="290">Weekly: 1.0</text><text fill="#FFFFFF" style="font-size:3px; font-family:Arial" x="141" y="285">Total: 12.0 km</text><text fill="#FFFFFF" style="font-size:3px; font-family:Arial" x="141" y="290">Avg: 12.0 km</text><text fill="#FFFFFF" style="font-size:3px; font-family:Arial" x="167" y="285">Min: 12.0 km</text><text fill="#FFFFFF" style="font-size:3px; font-family:Arial" x="167" y="290">Max: 12.0 km</text><polyline fill="none" opacity="1" points="31.523667077271966,207.419532658776 31.518916065455414,207.34579327511528 31.461903923976934,207.23518403793423 31.352630652836524,207.22991692657524 31.262361428845907,207.214115589828 31.176843216613634,207.0929718764819 31.062818933656672,207.07717050541396 30.948794650728814,207.1193074861294 30.84427239134675,207.1667115558048 30.7112440612691,207.20358136311916 30.620974837220274,207.1509102031996 30.492697518930072,207.15617732118335 30.359669188823318,207.15617732118335 30.193383776175324,207.1667115558048 30.069857469643466,207.24571825937528 29.922576104174368,207.25098536942096 29.780045750463614,207.15617732118335 29.637515396811068,207.12457460675796 29.499736054916866,207.0929718764819 29.357205701206112,207.03503349654056 29.200422312162118,206.98762932787213 29.05314094669302,206.93495798757795 28.929614640161162,206.95075939428352 28.62554988564807,206.88755374368702 28.635051909222966,206.82434802973876 28.563786732353037,206.67686778409552 28.468766496574972,206.61892902179534 28.41650536688394,206.42931088201294 28.278726024989737,206.31343284919421 28.231215907115256,206.27656252136876 28.112440612370847,206.2291577824799 28.00791835298878,206.16595140852223 27.884392046456924,206.09221055882153 27.874890022882028,205.9815991225405 27.770367763529066,205.93419416188408 27.618335386243416,205.92892694182956 27.623086398059968,205.72877225382763 27.537568185827695,205.64976364943504 27.414041879295837,205.61289293350274 27.31427063170122,205.49701340021056 27.22875241949805,205.3864009197241 27.157487242657226,205.23891731054755 27.17174027801957,205.08616606591022 27.361780749604804,204.98608746358877 27.51381312686135,204.91234523390085 27.561323244764935,204.74379124213374 27.452049973624526,204.65424675072427 27.475805032561766,204.50149408948346 27.49005806792411,204.33293899927594 27.542319197615143,204.18545292565977 27.57557628012728,204.04323388503326 27.471054020774318,203.91154930207995 27.433045926474733,203.75352743945768 27.32377265530522,203.65344672157153 27.22875241949805,203.65344672157153 27.252507478464395,203.65344672157153 27.22875241949805,203.65871413174318 27.224001407710603,203.66398154146373 27.219250395923154,203.65871413174318 27.20974837234826,203.66398154146373 27.214499384135706,203.66924895074044 27.20974837234826,203.65871413174318 27.133732183719985,203.47962193919375 27.152736230869778,203.36900591904123 27.219250395923154,203.26365714795975 27.295266584551428,203.17937800432992 27.376033784996253,203.10563366121278 27.509062115073903,203.01081937904019 27.63733943339321,202.89493506269355 27.71810663380893,202.82645786652938 27.71810663380893,202.71584070020253 27.594580327306176,202.6262933281614 27.55182122119004,202.4946057852285 27.561323244764935,202.36291796716614 27.57557628012728,202.2522999874127 27.594580327306176,202.0995415057223 27.566074256552383,201.97838796391807 27.480556044349214,201.92044488334068 27.414041879295837,201.84669906739146 27.40453985572094,201.64126383943585 27.485307056136662,201.5464473545435 27.485307056136662,201.39895476121455 27.52331515046535,201.2251237616838 27.60408235088107,201.09870091544872 27.618335386243416,200.94067200107384 27.656343480543,200.80898093639917 27.618335386243416,200.6930925718989 27.60883336266852,200.57720399428945 27.59933133906452,200.46658288053732 27.63258842160576,200.27694623378557 27.70385359847569,200.15052148564428 27.699102586659137,200.01882876995296 27.661094492359553,199.87133260171322 27.665845504147,199.71330060980108 27.684849551296793,199.48151963820783 27.665845504147,199.41303873346624 27.152736230869778,198.68081517726387 27.06246700687916,198.6334047256605 27.043462959700264,198.52804803888284 27.014956888975576,198.44376256264877 26.991201830038335,198.4016197822566 26.94369171213475,198.322601993048 26.877177547081374,198.2488519670478 26.801161358482204,198.20670905631414 26.74414921697462,198.15929824803607 26.677635051921243,198.069744401746 26.558859757176833,197.98019042819215 26.48284356854856,197.86429686172414 26.406827379891183,197.8537610723797 26.302305120567326,197.88536843511247 26.188280837610364,197.9169757819982 26.05525250750361,197.9169757819982 25.998240365996026,197.81161789742328 25.94122822454665,197.722063557012 25.874714059464168,197.6535807402397 25.741685729357414,197.69572402091217 25.708428646845277,197.63250908934788 25.717930670420174,197.61670534653967 25.708428646845277,197.63250908934788 25.689424599695485,197.64831282816522 25.679922576091485,197.62724117550897 25.694175611482933,197.63250908934788 25.689424599695485,197.64304491566872 25.684673587908037,197.63777700273204 25.69892662327038,197.62724117550897 25.6419144817919,197.5324186513244 25.618159422825556,197.4533997721628 25.58015132852597,197.34804111248013 25.546894246013835,197.31643348023135 25.485131092747906,197.27955788922918 25.41861692769453,197.2321463833723 25.342600739037152,197.2321463833723 25.28558859755867,197.20053869297408 25.257082526833983,197.20053869297408 25.176315326418262,197.24268227663197 25.105050149577437,197.27428994588627 25.043286996311508,197.29009377456168 24.98152384304558,197.31643348023135 24.891254619025858,197.36911285851238 24.824740454001585,197.4217921927484 24.772479324310552,197.44286391412243 24.705965159257175,197.48500733571927 24.644202005991247,197.49554318671653 24.525426711246837,197.55349033570383 24.42565546365222,197.600901599777 24.344888263265602,197.722063557012 24.230863980279537,197.78001049768136 24.140594756318023,197.77474259619703 24.036072496935958,197.77474259619703 23.95055428473279,197.76420679188232 23.964807320095133,197.73786727339757 23.964807320095133,197.7536709857959 23.964807320095133,197.74313517797054 23.9125461904041,197.74313517797054 23.836530001746723,197.67992029395464 23.784268872084795,197.71152774388975 23.698750659881625,197.69572402091217 23.608481435861904,197.6641165630499 23.522963223658735,197.65884865186672 23.44219602321391,197.55875825568728 23.36617983461474,197.51661488342506 23.347175787435845,197.5060790359421 23.323420728498604,197.4586677005318 23.256906563445227,197.38491666342088 23.19039239839185,197.40598839710583 23.1951434101793,197.3901845975015 23.171388351242058,197.35330904965667 23.185641386604402,197.2532181681454 23.199894421966746,197.1794668905677 23.13338025691337,197.1109834840936 23.104874186159577,197.04250000319735 23.062115080072545,196.97401644785714 23.043111032922752,196.88446091702644 23.009853950381512,196.75802936270702 22.981347879656823,196.58418556126708 22.895829667453654,196.51570150779662 22.838817525975173,196.44721737988948 22.80556044340483,196.37873317754202 22.76755234913435,196.262836665559 22.68203413693118,196.1680120880883 22.66778110153973,196.0995275822679 22.629773007211043,196.0995275822679 22.639275030815043,196.11006366492074 22.644026042573387,196.11006366492074 22.629773007211043,196.0995275822679 22.639275030815043,196.0995275822679 22.65827907793573,196.0995275822679 22.69628717226442,196.02577495429068 22.691536160506075,196.05211518847864 22.606017948273802,196.03631104927626 22.6250219954527,196.05211518847864 22.620270983636146,196.0573832339942 22.6250219954527,196.04684714251562 22.629773007211043,196.04684714251562 22.629773007211043,196.03631104927626 22.639275030815043,196.04684714251562 22.63452401899849,196.03631104927626 180.90973077600938,92.02226478148805 180.81471054023132,92.0803093596769 180.81471054023132,92.0803093596769 180.7244413162407,92.13835388400548 180.62942108043353,92.19639835447379 23.114376209763577,197.02669611241072 23.171388351242058,197.13205530940104 23.180890374816954,197.24795022261605 23.19039239839185,197.37438079392814 23.209396445541643,197.5008111115494 23.280661622382468,197.600901599777 23.299665669561364,197.75893888905557 23.313918704923708,197.88010054243932 23.347175787435845,198.09608378150733 23.375681858189637,198.25938769034838 23.39468590533943,198.38581623233767 23.380432869977085,198.57545856975048 23.380432869977085,198.71242212515426 23.356677811039845,198.8072428737578 23.171388351242058,198.8599210057764 23.009853950381512,198.90206347967978 22.857821573124966,198.9336703166191 22.710540207655868,198.996883942953 22.568009853945114,199.05482971137826 22.425479500263464,199.10223984591357 22.316206229123054,199.16018551746674 22.202181946166093,199.21286335445257 22.09290867499658,199.28134447672346 22.050149568909546,199.3445577543025 22.054900580696994,199.33402221244978 22.00739046279341,199.36562883274019 21.931374274165137,199.41303873346624 21.822101002995623,199.4183064980134 21.727080767217558,199.47625187895392 21.62730951962294,199.53419720660168 21.589301425294252,199.6132134766449 21.499032201303635,199.6869619059762 21.394509941950673,199.65008770209533 21.261481611814816,199.67642642134524 21.14270631709951,199.6711586783822 21.042935069533996,199.6658909349644 20.93366179833538,199.6342844652645 20.829139538982417,199.67642642134524 20.76262537392904,199.6869619059762 20.67710716172587,199.74490703989431 20.56308287876891,199.76597798447983 20.487066690140637,199.82919077594852 20.430054548662156,199.91874212200855 20.439556572237052,200.01882876995296 20.38729544254602,200.0557027580835 20.344536336429883,200.08730901644958 20.27802217140561,200.0820413078327 20.1592468766612,200.09784443239187 20.059475629066583,200.07677359876834 19.940700334351277,200.12418296451142 19.92169628717238,200.15578918853862 19.935949322534725,200.23480467925765 19.92644729895983,200.30855238121148 19.893190216447692,200.36122925835298 19.888439204660244,200.4191737723413 19.864684145723004,200.49818893286283 19.79341896888218,200.60354232609825 19.669892662321217,200.59300699469532 19.589125461905496,200.61934531989027 19.49410522612743,200.68255725545168 19.427591061074054,200.66148661731495 19.38958296677447,200.6140776557222 19.36582790777902,200.60880999113215 19.31831778990454,200.5666686584991 19.35632588423323,200.5508656514794 19.361076896020677,200.49818893286283 19.332570825266885,200.54033031127256 19.285060707392404,200.56140098992182 19.332570825266885,200.71943085525345 19.313566778117092,200.90906617063956 19.418089037499158,201.04602465468633 19.332570825266885,201.13557427179694 19.223297554126475,201.24092659962844 19.152032377256546,201.43056034597248 19.171036424435442,201.5885880320966 19.03800809432869,201.7624180292296 19.014253035391448,201.93624754697157 19.099771247594617,202.02052835269933 19.152032377256546,202.1469493500117 19.152032377256546,202.2522999874127 19.08551821220317,202.43139566689206 19.190040471585235,202.5156758105877 19.31831778990454,202.5788858443957 19.46559915537364,202.64736330948654 19.560619391180808,202.82119038681412 19.69839873307501,202.96867965228012 19.878937181085348,203.0898312907666 20.059475629066583,203.158308200811 20.235263065289473,203.06876145731076 20.425303536874708,203.11616857266927 20.634348055609735,203.16357565234648 20.84814358613221,203.20571524881598 21.009677986992756,203.22678503648422 21.133204293524614,203.24785481711297 21.270983635418816,203.26892459068767 21.42776702446281,203.2847269162594 21.57504838996101,203.32686643174384 21.74608481436735,203.3215989938435 21.907619215227896,203.3532036146098 22.031145521759754,203.37427335297252 22.225937005103333,203.4216802385563 22.401724441326223,203.4269476680929 22.582262889336562,203.3795407864709 22.710540207655868,203.34266874277455 22.872074608516414,203.39007565213615 23.024106985743856,203.3795407864709 23.128629245155025,203.3215989938435 23.233151504478883,203.4269476680929 23.347175787435845,203.61130742440946 23.39468590533943,203.74826003721682 23.44219602321391,203.87994496124156 23.608481435861904,203.77459704401554 23.812774942809483,203.8009340398312 24.045574520510854,203.73245782783852 24.183353862405056,203.5849703493659 24.392398381140083,203.61657483808813 24.52067569945939,203.71665561450936 24.75347527716076,203.73772523139633 24.9245117015671,203.7113882091944 25.086046102427645,203.64817931096695 25.257082526833983,203.57443551627875 25.428118951269425,203.49015678813885 25.546894246013835,203.50595905824957 25.71317965866183,203.600772595717 25.850959000526927,203.64817931096695 25.993489354208577,203.66398154146373 26.12651768431533,203.600772595717 26.311807144113118,203.57970293304243 26.478092556761112,203.57970293304243 26.63012493401766,203.53229616629687 26.748900228762068,203.49542421194928 26.905683617835166,203.50069163533044 27.067218018637504,203.57970293304243 27.185993313411018,203.61130742440946 27.338025690667564,203.64817931096695 27.456800985411974,203.76932964353546 27.509062115073903,203.95368839856383 27.566074256552383,204.0959076411964 27.54707020940259,204.2908001563046 27.518564138677903,204.4698900443982 27.471054020774318,204.64371209631645 27.594580327306176,204.785929782327 27.504311103286454,204.93341445118494 27.333274678880116,204.98082016431727 27.22875241949805,205.14410623676667 27.224001407710603,205.31265915826953 27.333274678880116,205.46014259494768 27.49005806792411,205.60762568661448 27.642090445180656,205.69190158410493 27.623086398059968,205.86572026689464 27.8036248460121,205.9131252790503 27.89864508184837,206.02900404755928 28.036424423742574,206.1501498051366 28.22646489532781,206.25549375293485 28.36899524900946,206.38190625795687 28.48301953196642,206.51358568121213 28.597043814894278,206.6610663087522 28.692064050701447,206.83488231978117 28.87735351047013,206.9402251235806 29.072144993871916,206.9402251235806 29.247932430065703,206.9823621958276 29.447474925225833,207.0613691303879 29.618511349632172,207.1193074861294 29.80380080942996,207.17197867246068 29.94633116311161,207.25098536942096 30.126869611121947,207.20884847670095 30.283653000195045,207.19304713466045 30.487946507142624,207.16144443870508 30.677986978698755,207.16144443870508 30.825268344196957,207.14564308479385 30.986802745057503,207.0929718764819 31.115080063347705,207.0297663684396 31.257610417029355,207.0929718764819 31.381136723561212,207.18778001975443 31.523667077271966,207.23518403793423 31.55217314796755,207.3721287791741 31.62343832483748,207.51434031103418 31.73746260779444,207.6302161368949 31.832482843572507,207.7934953482836 31.913250043988228,207.7724270867002 31.979764209041605,207.73029054241124 31.979764209041605,207.64601736937766 32.05578039769898,207.74082468112465 32.13654759814381,207.8514330313301 32.24106985749677,207.96730823775943 32.359845152212074,208.02524576110955 32.54038360022241,207.9936434822339 32.51662854128517,207.97784233687707 32.559387647372205,207.97784233687707 32.56413865915965,207.98310938576833 32.55463663561386,208.00944462365806 32.63065282421303,207.96730823775943" stroke="#4DD2FF" stroke-dasharray="none" stroke-linecap="round" stroke-linejoin="round" stroke-width="0.5"><title>2026-03-14 12.0km</title><desc>9223370263378906807</desc></polyline></svg>