<?xml version="1.0" encoding="utf-8" ?>
<svg baseProfile="full" height="300mm" version="1.1" viewBox="0,0,200,300" width="200mm" xmlns="http://www.w3.org/2000/svg" xmlns:ev="http://www.w3.org/2001/xml-events" xmlns:xlink="http://www.w3.org/1999/xlink"><defs /><rect fill="#222222" height="300" width="200" x="0" y="0" /><text fill="#FFFFFF" style="font-size:12px; font-family:Arial; font-weight:bold;" x="10" y="20">Over 10km Runs</text><text fill="#FFFFFF" style="font-size:4px; font-family:Arial" x="10" y="280">Runner</text><text fill="#FFFFFF" style="font-size:9px; font-family:Arial" x="10" y="290">yihong0618</text><text fill="#FFFFFF" style="font-size:4px; font-family:Arial" x="65" y="280">SPECIAL TRACKS</text><rect fill="yellow" height="2.6" width="2.6" x="65" y="283" /><text fill="#FFFFFF" style="font-size:3px; font-family:Arial" x="70" y="285.5">Over 20.0 km</text><rect fill="red" height="2.6" width="2.6" x="65" y="287" /><text fill="#FFFFFF" style="font-size:3px; font-family:Arial" x="70" y="289.5">Over 40.0 km</text><text fill="#FFFFFF" style="font-size:4px; font-family:Arial" x="120" y="280">STATISTICS</text><text fill="#FFFFFF" style="font-size:3px; font-family:Arial" x="120" y="285">Number: 1</text><text fill="#FFFFFF" style="font-size:3px; font-family:Arial" x="120" y="290">Weekly: 1.0</text><text fill="#FFFFFF" style="font-size:3px; font-family:Arial" x="141" y="285">Total: 12.0 km</text><text fill="#FFFFFF" style="font-size:3px; font-family:Arial" x="141" y="290">Avg: 12.0 km</text><text fill="#FFFFFF" style="font-size:3px; font-family:Arial" x="167" y="285">Min: 12.0 km</text><text fill="#FFFFFF" style="font-size:3px; font-family:Arial" x="167" y="290">Max: 12.0 km</text><polyline fill="none" opacity="1" points="28.620798873831518,207.1614402794803 28.559035720594693,207.0613643609031 28.478268520149868,207.00869276101366 28.421256378671387,206.83487616917773 28.316734119318426,206.76640283476445 28.24071793066105,206.66105909817634 28.178954777424224,206.6241887487813 28.07443251804216,206.58205118023398 27.946155199722853,206.55571518557554 27.860636987519683,206.46090551374073 27.879641034669476,206.36609569934808 27.779869787103962,206.31869073869166 27.656343480543,206.3239579583169 27.613584374455968,206.16594117855493 27.59933133906452,206.03952746962023 27.49005806792411,206.0184584934832 27.376033784996253,205.9657860223415 27.304768608126324,205.8551736897316 27.219250395923154,205.76036296446182 27.157487242657226,205.62341388735513 27.16698926623212,205.4917318019252 27.333274678880116,205.38111863758968 27.456800985411974,205.34951484070552 27.566074256552383,205.19149561866652 27.532817174011143,205.08614925059737 27.442547950020526,204.98607003787401 27.466303008957766,204.85965396315805 27.49480907971156,204.71216822225324 27.542319197615143,204.5752168681829 27.58032729194383,204.44879996958844 27.49005806792411,204.343452360441 27.480556044349214,204.18543061663877 27.376033784996253,204.08534997401875 27.22875241949805,204.02214106524116 27.22875241949805,204.0379432983791 27.252507478464395,204.0379432983791 27.22875241949805,204.04321070855076 27.224001407710603,204.0484781182713 27.224001407710603,204.0379432983791 27.214499384135706,204.05374552754802 27.214499384135706,204.05374552754802 27.214499384135706,204.0484781182713 27.138483195507433,203.96946692617348 27.138483195507433,203.82724653085097 27.152736230869778,203.7482350614846 27.219250395923154,203.64815372476733 27.29051557276398,203.5691420309231 27.35227872602991,203.51646751332737 27.471054020774318,203.44799057466298 27.570825268368935,203.35844369648112 27.680098539509345,203.25836174090728 27.72760865741293,203.17408207613335 27.70385359847569,203.0792673185715 27.58507830373128,203.00552240853358 27.55182122119004,202.88436986902525 27.556572232977487,202.76321709667536 27.566074256552383,202.65786667056818 27.566074256552383,202.54724853365042 27.618335386243416,202.41556002230573 27.504311103286454,202.34181433576668 27.480556044349214,202.28913879256652 27.395037832146045,202.19432270387188 27.409290867537493,202.01522525829205 27.485307056136662,201.93621151757907 27.49956009152811,201.80978932640937 27.504311103286454,201.65702884045095 27.58507830373128,201.52007084860452 27.623086398059968,201.40945071485112 27.63733943339321,201.28829510749347 27.642090445180656,201.1724069173215 27.618335386243416,201.0617861733881 27.60883336266852,200.96170057109703 27.594580327306176,200.8721501606451 27.589829315518728,200.70885202579302 27.684849551296793,200.59296277015528 27.699102586659137,200.46653788464027 27.665845504147,200.34011274549994 27.675347527721897,200.20315189191024 27.665845504147,200.06092299815282 27.684849551296793,199.85548069605284 27.67059651593445,199.80280307482099 27.16698926623212,199.0705795798167 27.081471054028952,199.0442404466412 27.06246700687916,198.94415164022575 27.03396093615447,198.86513404917787 27.00545486540068,198.83352698501403 26.981699806434335,198.7492414031003 26.934189688559854,198.6965628571379 26.867675523506477,198.6333485438554 26.80591237024055,198.6070092279624 26.76790427591186,198.57540203432654 26.701390110887587,198.4805803583149 26.62537392223021,198.4068300672261 26.511349639302352,198.31200813756732 26.440084462432424,198.25406133254364 26.387823332770495,198.2382576491873 26.27855006160098,198.26986501192005 26.188280837610364,198.30147235880577 26.07900756644085,198.30147235880577 26.007742389600025,198.2382576491873 25.969734295271337,198.12763175477812 25.922224177367752,198.06441687076222 25.82245292980224,198.04861313985748 25.71317965866183,198.0591489609069 25.71317965866183,198.01173775231655 25.717930670420174,198.00120192334725 25.71317965866183,198.01173775231655 25.694175611482933,198.0433452286743 25.679922576091485,198.0328094049728 25.67517156433314,198.0328094049728 25.684673587908037,198.04861313985748 25.679922576091485,198.02227357953961 25.69892662327038,198.01700566615546 25.694175611482933,198.02227357953961 25.6419144817919,197.91691522813198 25.618159422825556,197.8378963489704 25.599155375675764,197.75887737073572 25.55639626958873,197.70093005703893 25.527890198864043,197.68512623495553 25.447122998419218,197.64825063470562 25.39486186875729,197.5903032192764 25.314094668312464,197.60610706513035 25.280837585800327,197.5903032192764 25.257082526833983,197.58503526978166 25.195319373568054,197.61137501287158 25.119303184968885,197.64825063470562 25.06704205524875,197.68512623495553 24.986274854833027,197.67985829338068 24.948266760533443,197.71146593621597 24.85799753651372,197.75360943531996 24.819989442214137,197.81155670057342 24.767728312523104,197.82736049093 24.710716171044623,197.8642359863843 24.65845504135359,197.86950391252685 24.563434805575525,197.93271899206957 24.463663557980908,197.9590585898295 24.382896357565187,198.04861313985748 24.297378145332914,198.13816756260348 24.211859933129745,198.16450707448894 24.131092732714023,198.1487033686899 24.026570473331958,198.1592391730046 23.955305296491133,198.1487033686899 23.964807320095133,198.12236385020515 23.964807320095133,198.12236385020515 23.983811367244925,198.13289965891454 23.94580327294534,198.1539712710619 23.888791131437756,198.10656013381958 23.822276966413483,198.0696847801919 23.7747668485099,198.09602432069732 23.698750659881625,198.08022059771974 23.6179834594368,198.04861313985748 23.541967270808527,198.06441687076222 23.470702093967702,197.9748623432024 23.413689952518325,197.91164730594755 23.356677811039845,197.8800397635241 23.347175787435845,197.87477183824376 23.318669716682052,197.82736049093 23.25215555165778,197.75887737073572 23.19039239839185,197.7904849739134 23.1951434101793,197.77468117430908 23.185641386604402,197.74834149946764 23.176139363029506,197.67985829338068 23.204645433754195,197.59557116834185 23.185641386604402,197.53235575055442 23.11912722152192,197.46387230972687 23.09537216258468,197.41646065324312 23.057364068285096,197.3532450557941 23.043111032922752,197.27422546974776 23.009853950381512,197.1688658675812 22.99560091504827,197.00029013765015 22.924335738178343,196.9370741226412 22.881576632062206,196.84224998121863 22.81031145522138,196.80010587254947 22.80556044340483,196.7263536145656 22.753299313772004,196.63679718523417 22.68203413693118,196.55250866489587 22.67253211332718,196.48929220062564 22.639275030815043,196.4787561170706 22.620270983636146,196.49456024172832 22.64877705438994,196.49456024172832 22.629773007211043,196.4840241590755 22.644026042573387,196.4840241590755 22.644026042573387,196.4840241590755 22.663030089752283,196.4840241590755 22.70578919586842,196.41027153109826 22.691536160506075,196.41553957881843 22.6155199718487,196.41553957881843 22.629773007211043,196.4313437193232 22.620270983636146,196.4313437193232 22.639275030815043,196.43661176528622 22.629773007211043,196.43661176528622 22.629773007211043,196.4313437193232 22.629773007211043,196.42080762608384 22.629773007211043,196.4313437193232 22.644026042573387,196.42080762608384 180.90973077600938,92.40676135829563 180.81471054023132,92.46480593648448 180.81471054023132,92.46480593648448 180.81471054023132,92.46480593648448 180.81946155201877,92.45952915888483 180.62942108043353,92.58089493128136 23.114376209763577,197.4111926892183 23.161886327638058,197.51655188620862 23.180890374816954,197.61137501287158 23.176139363029506,197.7220018136286 23.1951434101793,197.84316427733938 23.24740453987033,197.92218314987986 23.290163645986468,198.0275414924763 23.294914657744812,198.1487033686899 23.318669716682052,198.28040079596758 23.342424775648396,198.47004460774042 23.36617983461474,198.62808068155937 23.380432869977085,198.73343784393 23.385183881764533,198.8914732572157 23.36617983461474,199.03897261869497 23.380432869977085,199.12325781310574 23.323420728498604,199.23914977136883 23.13338025691337,199.23914977136883 23.000351926806616,199.28656005648736 22.867323596699862,199.3128990883779 22.734295266593108,199.36030931802816 22.596515924698906,199.41825510583294 22.47298961816705,199.47093304851296 22.38272039417643,199.5078075821839 22.273447123006918,199.56048544999067 22.168924863624852,199.61316327378154 22.09290867499658,199.66584105353104 22.050149568909546,199.7290543311101 22.059651592484443,199.7132510176598 22.021643498155754,199.74485764058772 21.96938236846472,199.78699977985525 21.883864156261552,199.80807083892432 21.765088861546246,199.81860636580677 21.693823684676317,199.8923550047184 21.617807496048044,199.92922929180713 21.589301425294252,200.00297780127585 21.513285236695083,200.06092299815282 21.408762977313017,200.03985202363765 21.313742741534952,200.03985202363765 21.20446947036544,200.07145848278378 21.08569417562103,200.07145848278378 21.004926975205308,200.02931653372434 20.900404715823242,200.0240487881165 20.810135491832625,200.07145848278378 20.757874362141592,200.07145848278378 20.686609185300767,200.1294036167019 20.582086925947806,200.13993908987686 20.496568713715533,200.17681323210127 20.4443075840245,200.2610969047564 20.425303536874708,200.35064818344836 20.430054548662156,200.42439619976722 20.368291395396227,200.44019933489108 20.33028330106754,200.46653788464027 20.27802217140561,200.46653788464027 20.178250923810992,200.48760871649574 20.092732711607823,200.46127017557592 19.98345944043831,200.48760871649574 19.912194263597485,200.52448265532075 19.93119831077638,200.561356572558 19.92644729895983,200.65090742460598 19.916945275414037,200.6983166477039 19.893190216447692,200.74572583516056 19.888439204660244,200.8036703491489 19.864684145723004,200.86161480987357 19.81717402781942,200.95643290341832 19.712651768437354,200.96696823832826 19.622382544446737,200.9985742325298 19.555868379364256,201.0143772236952 19.47035016719019,201.07758914870647 19.427591061074054,201.0407155334833 19.38958296677447,200.9985742325298 19.36582790777902,200.99330656793973 19.327819813479437,200.95643290341832 19.332570825266885,200.9300945584073 19.361076896020677,200.87741783537786 19.37532993138302,200.88795318351185 19.327819813479437,200.9300945584073 19.280309695575852,200.98803890290583 19.332570825266885,201.11973039681106 19.313566778117092,201.29356274744714 19.40383600210771,201.40945071485112 19.36582790777902,201.50953560613198 19.251803624851163,201.56747941791764 19.161534400860546,201.7149725166455 19.156783389073098,201.88880322560726 19.128277318319306,202.03102799455883 19.023755058966344,202.17325244257518 19.004751011787448,202.36288454072564 19.099771247594617,202.4050249295069 19.166285412647994,202.51037577820898 19.147281365498202,202.60519139147436 19.11877529474441,202.73161198734306 19.11402428295696,202.87910236203606 19.223297554126475,202.9423124169698 19.370578919595573,202.97918491976088 19.49410522612743,203.0581973530716 19.565370402968256,203.2056869636217 19.684145697712665,203.33737382430263 19.85043111036066,203.45325803411833 20.011965511192102,203.51120005914345 20.149744853086304,203.49013023802036 20.33978532467154,203.45325803411833 20.491817701928085,203.5375373256502 20.672356149938423,203.5586071309117 20.862396621523658,203.59547927320455 21.009677986992756,203.6112816132918 21.118951258133166,203.61654905910473 21.237726552877575,203.65342116749525 21.366003871225985,203.66395605164143 21.48477916594129,203.69556069354076 21.636811543197837,203.71663044600064 21.79359493224183,203.71136300855142 21.92662326237769,203.7535024958488 22.06440260427189,203.7693047963221 22.202181946166093,203.80090938539797 22.363716346997535,203.81671167400054 22.544254795007873,203.79564195498097 22.67253211332718,203.72189788300602 22.777054372709244,203.7482350614846 22.93383776175324,203.79564195498097 23.0478620447102,203.7324327557144 23.13338025691337,203.7324327557144 23.24740453987033,203.80617681536387 23.356677811039845,203.97473434206768 23.356677811039845,204.13802401626526 23.41844096427667,204.2591741463766 23.51346120008384,204.1801632183524 23.713003695273073,204.21176760145318 23.898293155041756,204.1801632183524 24.064578567660647,204.08534997401875 24.202357909583952,203.95893209308633 24.392398381140083,204.0010714148957 24.49692064052215,204.08534997401875 24.686961112107383,204.12748921133607 24.886503607267514,204.12748921133607 25.00527890198282,204.06428034480996 25.15731127926847,203.99053658709454 25.314094668312464,203.95366467587155 25.456625021994114,203.84831623929858 25.56114728137618,203.90099047958574 25.71317965866183,203.98526917252457 25.81770191801479,204.0379432983791 25.960232271725545,204.06428034480996 26.05525250750361,204.0010714148957 26.212035896547604,203.95893209308633 26.3783213091956,203.99580400121704 26.511349639302352,203.95366467587155 26.668133028317243,203.90625790120248 26.748900228762068,203.87992078875686 26.88667957065627,203.87992078875686 27.03396093615447,203.94839725823113 27.181242301594466,203.98000175751076 27.271511525614187,204.01160624095428 27.399788843933493,204.08534997401875 27.480556044349214,204.22230239229248 27.54707020940259,204.3592545130341 27.55182122119004,204.5067410795782 27.54707020940259,204.6752967331122 27.518564138677903,204.83331724902018 27.46155199719942,204.98607003787401 27.594580327306176,205.1124858591138 27.556572232977487,205.25470335500358 27.437796938233078,205.35478214129398 27.29051557276398,205.4074551228914 27.22875241949805,205.53913738435585 27.2335034312855,205.70769027771166 27.333274678880116,205.84463917175526 27.452049973624526,205.98685501609725 27.613584374455968,206.03952746962023 27.64684145699721,206.1817428743634 27.70385359847569,206.29762185585787 27.884392046456924,206.29762185585787 27.917649128998164,206.46090551374073 28.055428470892366,206.5451807846439 28.235966918902704,206.6452575225121 28.354742213647114,206.76113565212654 28.47351750836242,206.8717463953617 28.559035720594693,207.01922708450002 28.65405595637276,207.13510452684568 28.772831251117168,207.28785173908545 28.953369699098403,207.31945456438552 29.124406123533845,207.32472170038818 29.276438500819495,207.36685877263517 29.447474925225833,207.44586570719548 29.580503255332587,207.50380406293698 29.765792715130374,207.53540678000718 29.89407003344968,207.62494772568607 30.050853422522778,207.64074905583766" stroke="#4DD2FF" stroke-dasharray="none" stroke-linecap="round" stroke-linejoin="round" stroke-width="0.5"><title>2026-03-14 12.0km</title><desc>9223370263378906807</desc></polyline></svg>