<?xml version="1.0" encoding="utf-8" ?>
<svg baseProfile="full" height="300mm" version="1.1" viewBox="0,0,200,300" width="200mm" xmlns="http://www.w3.org/2000/svg" xmlns:ev="http://www.w3.org/2001/xml-events" xmlns:xlink="http://www.w3.org/1999/xlink"><defs /><rect fill="#222222" height="300" width="200" x="0" y="0" /><text fill="#FFFFFF" style="font-size:12px; font-family:Arial; font-weight:bold;" x="10" y="20">Over 10km Runs</text><text fill="#FFFFFF" style="font-size:4px; font-family:Arial" x="10" y="280">Runner</text><text fill="#FFFFFF" style="font-size:9px; font-family:Arial" x="10" y="290">yihong0618</text><text fill="#FFFFFF" style="font-size:4px; font-family:Arial" x="65" y="280">SPECIAL TRACKS</text><rect fill="yellow" height="2.6" width="2.6" x="65" y="283" /><text fill="#FFFFFF" style="font-size:3px; font-family:Arial" x="70" y="285.5">Over 20.0 km</text><rect fill="red" height="2.6" width="2.6" x="65" y="287" /><text fill="#FFFFFF" style="font-size:3px; font-family:Arial" x="70" y="289.5">Over 40.0 km</text><text fill="#FFFFFF" style="font-size:4px; font-family:Arial" x="120" y="280">STATISTICS</text><text fill="#FFFFFF" style="font-size:3px; font-family:Arial" x="120" y="285">Number: 1</text><text fill="#FFFFFF" style="font-size:3px; font-family:Arial" x="120" y="290">Weekly: 1.0</text><text fill="#FFFFFF" style="font-size:3px; font-family:Arial" x="141" y="285">Total: 12.0 km</text><text fill="#FFFFFF" style="font-size:3px; font-family:Arial" x="141" y="290">Avg: 12.0 km</text><text fill="#FFFFFF" style="font-size:3px; font-family:Arial" x="167" y="285">Min: 12.0 km</text><text fill="#FFFFFF" style="font-size:3px; font-family:Arial" x="167" y="290">Max: 12.0 km</text><polyline fill="none" opacity="1" points="29.87981699805823,207.59334507637323 29.727784620801685,207.51960547098133 29.613760337844724,207.48800275655594 29.475980995979626,207.4616671490985 29.352454689418664,207.39319451823758 29.205173323949566,207.3510574776701 29.07689600563026,207.29838613737593 28.953369699098403,207.3036532733786 28.739574168575928,207.27205045072697 28.64930494458531,207.250981893485 28.563786732353037,207.07716602765504 28.525778638053453,207.01922729921353 28.41650536688394,206.87701383101012 28.36899524900946,206.78220467398205 28.264472989627393,206.6557922428874 28.221713883511256,206.61892190273284 28.098187577008503,206.58205154101597 28.003167341201333,206.52937955832022 27.889143058244372,206.46090591502434 27.87013901109458,206.36082891797196 27.794122822466306,206.2870878711401 27.665845504147,206.30815675046688 27.613584374455968,206.15540721585057 27.59933133906452,206.01845904261063 27.49005806792411,205.9973900664736 27.366531761421356,205.93418309584013 27.304768608126324,205.81830348508447 27.20499736056081,205.72876000361794 27.157487242657226,205.57600906528023 27.185993313411018,205.4074558762004 27.366531761421356,205.34424831411525 27.504311103286454,205.28630799320672 27.55182122119004,205.11775402963394 27.485307056136662,205.03874420405918 27.471054020774318,204.89652626851603 27.442547950020526,204.74904066317322 27.532817174011143,204.62789151494144 27.561323244764935,204.48040528112688 27.542319197615143,204.34872085222014 27.49005806792411,204.21703614825674 27.399788843933493,204.08535116918938 27.281013549189083,204.01160746076494 27.22875241949805,204.0168748713695 27.257258490251843,204.0168748713695 27.2335034312855,204.02214228154116 27.224001407710603,204.0274096912617 27.224001407710603,204.0168748713695 27.20974837234826,204.0274096912617 27.214499384135706,204.03267710053842 27.214499384135706,204.0274096912617 27.133732183719985,203.916793994591 27.133732183719985,203.79564324699095 27.16698926623212,203.70609689257253 27.2430054548895,203.60074807747878 27.333274678880116,203.52700380214446 27.395037832146045,203.4585268978226 27.518564138677903,203.37424752883817 27.627837409818312,203.26363068604405 27.70385359847569,203.20042097443002 27.71810663380893,203.10033880142146 27.63258842160576,203.01605895352623 27.566074256552383,202.91070898521502 27.537568185827695,202.76848624867853 27.566074256552383,202.66313586659817 27.566074256552383,202.56305284051268 27.613584374455968,202.4155617755896 27.51381312686135,202.32601346066076 27.480556044349214,202.2786054777207 27.399788843933493,202.18378940486946 27.409290867537493,201.99415683128245 27.485307056136662,201.91514309056947 27.49480907971156,201.78345330260345 27.509062115073903,201.6201575834093 27.60408235088107,201.48846717912238 27.627837409818312,201.3567764996842 27.64684145699721,201.24088847416715 27.63258842160576,201.12500023556277 27.627837409818312,200.99857645952943 27.594580327306176,200.91956147072415 27.594580327306176,200.78786960259094 27.651592468784656,200.61403591530689 27.699102586659137,200.4928788194229 27.694351574900793,200.37172149062462 27.661094492359553,200.24002847774682 27.67059651593445,200.09253197663566 27.675347527721897,199.918696371431 27.665845504147,199.7922701755706 27.17174027801957,199.03897550085458 27.09097307760385,199.01263636329531 27.067218018637504,198.93361888453364 27.02445891255047,198.84933346466278 27.00545486540068,198.81245855800444 26.981699806434335,198.72817297609072 26.929438676772406,198.6754944301283 26.867675523506477,198.6122801168458 26.7916593348491,198.56486934027998 26.753651240549516,198.5279942671732 26.68713707549614,198.4437083047851 26.587365827930626,198.35415434618335 26.5065986274858,198.25933236895798 26.435333450644976,198.2171892221777 26.34031321486691,198.2435286922373 26.235790955484845,198.26460026033237 26.14077071970678,198.28040393179617 26.02199542496237,198.24879658491045 25.98873834242113,198.14343864747934 25.950730248121545,198.06968798647358 25.85571001234348,198.02754471284788 25.741685729357414,198.05915217071015 25.708428646845277,197.99593723914586 25.69892662327038,197.97486558117816 25.71317965866183,197.98540141104968 25.69892662327038,197.99066932530695 25.679922576091485,198.0117409779632 25.67517156433314,198.0117409779632 25.684673587908037,198.02754471284788 25.679922576091485,198.00120515253002 25.69892662327038,197.99066932530695 25.69892662327038,197.98013349633766 25.627661446429556,197.87477510970348 25.622910434642108,197.81155999316616 25.570649304951075,197.70620132467593 25.542143234197283,197.67986163002934 25.508886151685147,197.64825398191533 25.43762097484432,197.60084248002022 25.352102762641152,197.60611042642995 25.290339609375224,197.56396684277206 25.257082526833983,197.57977068995024 25.233327467896743,197.57450274133225 25.143058243906125,197.61137837241404 25.086046102427645,197.65352192435967 25.02903396092006,197.64298603902716 24.967270807683235,197.68512956983614 24.881752595450962,197.73254100831036 24.824740454001585,197.78522034254638 24.772479324310552,197.8062920639204 24.72021819461952,197.83789963276286 24.653704029566143,197.84843548551726 24.563434805575525,197.91165056505997 24.463663557980908,197.93799016281991 24.37339433399029,198.0380805338973 24.28787612178712,198.138170745995 24.188104874192504,198.138170745995 24.121590709139127,198.12236703885355 24.00756642621127,198.1276349416803 23.94105226112879,198.1276349416803 23.964807320095133,198.10129542319555 23.964807320095133,198.1170991355939 23.96955833188258,198.1170991355939 23.9125461904041,198.11183123190494 23.85078303713817,198.05388426216086 23.79377089565969,198.0486163531823 23.713003695273073,198.10129542319555 23.660742565552937,198.0222768016647 23.56097131795832,198.06968798647358 23.484955129330046,197.98013349633766 23.42794298788067,197.90111472287026 23.36142882279819,197.8642392613474 23.347175787435845,197.86950718574008 23.318669716682052,197.8168279219608 23.256906563445227,197.74834481321886 23.19039239839185,197.7694165469038 23.1951434101793,197.75361274729948 23.180890374816954,197.72200513617645 23.180890374816954,197.64298603902716 23.199894421966746,197.56396684277206 23.16663733945461,197.50601936921157 23.114376209763577,197.4270000011893 23.090621150826337,197.36905240167835 23.0478620447102,197.31110474884917 23.028857997560408,197.2110132230191 23.005102938594064,197.1056535503667 22.96709484429448,196.94761371106506 22.891078655637102,196.86859364276097 22.838817525975173,196.8159135421629 22.81031145522138,196.75269736331757 22.76755234913435,196.64206889770503 22.69628717226442,196.55251237853008 22.68203413693118,196.47349181471873 22.663030089752283,196.46822377361605 22.6250219954527,196.47349181471873 22.64877705438994,196.47349181471873 22.63452401899849,196.4629557320659 22.644026042573387,196.4629557320659 22.644026042573387,196.4629557320659 22.67253211332718,196.45241964764136 22.701038184051868,196.38920310408866 22.691536160506075,196.4102752923136 22.61076896006125,196.39973919907425 22.6250219954527,196.41554333827662 22.6155199718487,196.42607942886752 22.6250219954527,196.41554333827662 22.6250219954527,196.4102752923136 22.629773007211043,196.40500724591038 22.629773007211043,196.39973919907425 22.639275030815043,196.40500724591038 180.90973077600938,92.38569293128603 180.81471054023132,92.44373750947489 180.81471054023132,92.44373750947489 180.81471054023132,92.44373750947489 180.81471054023132,92.44373750947489 180.7244413162407,92.50178203380347 23.09537216258468,197.3585164687538 23.142882280488266,197.48494754742933 23.185641386604402,197.5692347922668 23.171388351242058,197.69039750920638 23.19039239839185,197.8168279219608 23.24740453987033,197.90111472287026 23.294914657744812,198.0117409779632 23.294914657744812,198.16451024906564 23.323420728498604,198.28040393179617 23.347175787435845,198.47531555389287 23.375681858189637,198.62808370111452 23.39468590533943,198.74397653128472 23.380432869977085,198.91781537688803 23.37093084640219,199.05477897810488 23.37093084640219,199.1443319410355 23.25215555165778,199.2286169663421 23.057364068285096,199.24968820508002 22.92908674996579,199.27602724356257 22.800809431646485,199.32343748510175 22.65827907793573,199.39191888213463 22.520499736070633,199.42879344971152 22.392222417751327,199.46566799571156 22.306704205548158,199.5341492381849 22.18792891080375,199.58155928552878 22.09290867499658,199.64477262652144 22.050149568909546,199.7027181333906 22.050149568909546,199.7027181333906 22.026394509943202,199.71325367437385 21.96938236846472,199.76593135284566 21.879113144474104,199.78700241191473 21.755586837942246,199.81334122582848 21.66531761395163,199.8765543343361 21.617807496048044,199.918696371431 21.570297378173564,200.01351585189332 21.475277142366394,200.04512231368062 21.385007918346673,200.01351585189332 21.261481611814816,200.03985457114322 21.161710364249302,200.05565779742028 21.05718810489634,200.03985457114322 20.96216786908917,200.0029803611069 20.85764560973621,200.02405134091532 20.79113144465373,200.03985457114322 20.710364244238008,200.08726423807093 20.610592996672494,200.11887066286727 20.50607073729043,200.14520933808672 20.458560619415948,200.21895757014136 20.425303536874708,200.31904431849034 20.439556572237052,200.39279234713467 20.368291395396227,200.41913090788148 20.33978532467154,200.44546945763068 20.282773183193058,200.45073716624756 20.178250923810992,200.46654028948615 20.087981699820375,200.44020174856632 19.964455393288517,200.4718079963568 19.912194263597485,200.50341422831116 19.93119831077638,200.55082354651313 19.92169628717238,200.64564207593867 19.90744325183914,200.68251590996078 19.90269224002259,200.73519277828382 19.888439204660244,200.78786960259094 19.864684145723004,200.88268777538542 19.774414921703283,200.9775058055202 19.665141650562873,200.9564351444933 19.593876473722048,200.9775058055202 19.508358261489775,201.0407177463785 19.427591061074054,201.03018242730468 19.40383600210771,200.9775058055202 19.370578919595573,200.98804113341612 19.34207284884178,200.93536447640872 19.313566778117092,200.9300968082971 19.35632588423323,200.8616170826608 19.38008094317047,200.86688475650226 19.332570825266885,200.91956147072415 19.275558683788404,200.9564351444933 19.332570825266885,201.09866196980147 19.32306880169199,201.28829723762829 19.41333802571171,201.40418517597936 19.35157487244578,201.4937348005842 19.23755058948882,201.57274906956445 19.147281365498202,201.73077731038939 19.17578743622289,201.89407274297992 19.08551821220317,202.04683260340607 19.009502023604,202.20485965561238 19.03325708254124,202.38922404911136 19.147281365498202,202.4313644062022 19.128277318319306,202.52618010664082 19.137779341894202,202.64206576905053 19.080767200444825,202.8211613737003 19.194791483372683,202.87383645469527 19.313566778117092,202.94758149415793 19.451346120011294,203.01079145928452 19.565370402968256,203.1477461663344 19.63663557980908,203.27943310403862 19.81242301603197,203.4111197666316 19.988210452225758,203.48486417752065 20.140242829482304,203.49013163213385 20.33978532467154,203.43218960710874 20.491817701928085,203.5164688986406 20.681858173484216,203.5428061541279 20.876649656886002,203.57441084619495 21.009677986992756,203.57967829332847 21.13795530531206,203.61128296691095 21.261481611814816,203.63235274048566 21.408762977313017,203.64288762463184 21.537040295632323,203.67975970530097 21.693823684676317,203.69556201899104 21.845856061961967,203.69556201899104 21.974133380281273,203.7377015027705 22.130916769296164,203.77457352797137 22.282949146581814,203.78510838835427 22.463487594592152,203.7903758178909 22.620270983636146,203.72189919966695 22.734295266593108,203.70082945599643 22.891078655637102,203.75877123411192 23.028857997560408,203.74296893626888 23.128629245155025,203.67975970530097 23.223649480903987,203.78510838835427 23.356677811039845,203.93259624886196 23.351926799223293,204.10642078432647 23.42319197609322,204.22757093468317 23.51346120008384,204.1590947913428 23.727256730606314,204.19596657007423 23.922048213978997,204.16962958747536 24.08358261481044,204.0274096912617 24.226112968521193,203.92732883122153 24.41140242831898,203.99580522629913 24.539679746638285,204.09061857362758 24.772479324310552,204.0958859776365 24.91976068977965,204.08008376430735 25.071793067036197,204.02214228154116 25.223825444321847,203.93786366607674 25.39486186875729,203.89045689535124 25.49938412811025,203.84305008899173 25.632412458217004,203.92732883122153 25.765440788323758,204.03267710053842 25.912722153792856,204.04847932576376 26.026746436749818,203.99580522629913 26.16452577864402,203.95366591505808 26.34031321486691,203.95366591505808 26.497096603910904,203.93786366607674 26.639626957592554,203.89045689535124 26.748900228762068,203.85885236174727 26.877177547081374,203.85885236174727 27.03396093615447,203.92732883122153 27.181242301594466,203.95893333050117 27.285764561005635,203.99053781394468 27.414041879295837,204.0748163589924 27.480556044349214,204.238105719367 27.58032729194383,204.36452299820667 27.556572232977487,204.5330789756772 27.52331515046535,204.68583244095862 27.504311103286454,204.86492223928144 27.480556044349214,205.0282095531802 27.594580327306176,205.15989256276953 27.504311103286454,205.29684260098293 27.35227872602991,205.33898101442173 27.238254443072947,205.47593066360787 27.200246348773362,205.6339491199251 27.304768608126324,205.7761653919988 27.3807847967837,205.92364859456939 27.57557628012728,205.9973900664736 27.651592468784656,206.13433828547932 27.675347527721897,206.27128620702933 27.86538799930713,206.27655342884827 27.912898117210716,206.4240354609101 28.055428470892366,206.5241123576343 28.235966918902704,206.62418909550252 28.359493225434562,206.74006722511695 28.478268520149868,206.86647948727114 28.573288755957037,207.01396013945123 28.668308991735103,207.14563900169378 28.79658631005441,207.27731758893424 28.986626781639643,207.3036532733786 29.181418265012326,207.32472181303456 29.328699630481424,207.38266026074052 29.51874010206666,207.44059865521194 29.656519443931757,207.49326987671157 29.83230688018375,207.5459410542353 29.97958824565285,207.62494773800427 30.131620622909395,207.57227662649893 30.283653000195045,207.55647528445843 30.46894245999283,207.51960547098133 30.644729896186618,207.51433835299758 30.78250923808082,207.51960547098133 30.929790603549918,207.46693427148057 31.053316910081776,207.42479728018589 31.18634524018853,207.41426302796754 31.30512053493294,207.51433835299758 31.44289987682714,207.5512081695524 31.547422136209207,207.63021484672936" stroke="#4DD2FF" stroke-dasharray="none" stroke-linecap="round" stroke-linejoin="round" stroke-width="0.5"><title>2026-03-14 12.0km</title><desc>9223370263378906807</desc></polyline></svg>