<?xml version="1.0" encoding="utf-8" ?>
<svg baseProfile="full" height="300mm" version="1.1" viewBox="0,0,200,300" width="200mm" xmlns="http://www.w3.org/2000/svg" xmlns:ev="http://www.w3.org/2001/xml-events" xmlns:xlink="http://www.w3.org/1999/xlink"><defs /><rect fill="#222222" height="300" width="200" x="0" y="0" /><text fill="#FFFFFF" style="font-size:12px; font-family:Arial; font-weight:bold;" x="10" y="20">Over 10km Runs</text><text fill="#FFFFFF" style="font-size:4px; font-family:Arial" x="10" y="280">Runner</text><text fill="#FFFFFF" style="font-size:9px; font-family:Arial" x="10" y="290">yihong0618</text><text fill="#FFFFFF" style="font-size:4px; font-family:Arial" x="65" y="280">SPECIAL TRACKS</text><rect fill="yellow" height="2.6" width="2.6" x="65" y="283" /><text fill="#FFFFFF" style="font-size:3px; font-family:Arial" x="70" y="285.5">Over 20.0 km</text><rect fill="red" height="2.6" width="2.6" x="65" y="287" /><text fill="#FFFFFF" style="font-size:3px; font-family:Arial" x="70" y="289.5">Over 40.0 km</text><text fill="#FFFFFF" style="font-size:4px; font-family:Arial" x="120" y="280">STATISTICS</text><text fill="#FFFFFF" style="font-size:3px; font-family:Arial" x="120" y="285">Number: 1</text><text fill="#FFFFFF" style="font-size:3px; font-family:Arial" x="120" y="290">Weekly: 1.0</text><text fill="#FFFFFF" style="font-size:3px; font-family:Arial" x="141" y="285">Total: 12.0 km</text><text fill="#FFFFFF" style="font-size:3px; font-family:Arial" x="141" y="290">Avg: 12.0 km</text><text fill="#FFFFFF" style="font-size:3px; font-family:Arial" x="167" y="285">Min: 12.0 km</text><text fill="#FFFFFF" style="font-size:3px; font-family:Arial" x="167" y="290">Max: 12.0 km</text><polyline fill="none" opacity="1" points="28.516276614478556,207.04029562503638 28.42600739048794,206.8875477875481 28.359493225434562,206.8138073197697 28.259721977839945,206.68739488867504 28.221713883511256,206.65052454852048 28.10293858879595,206.61365418680361 28.01266936477623,206.56098220410786 27.893894070060924,206.5135773820548 27.855885975732235,206.40823320544223 27.83213091676589,206.30815607463592 27.70385359847569,206.34502661499573 27.594580327306176,206.24494938385033 27.618335386243416,206.08693237969055 27.518564138677903,206.03952720121015 27.409290867537493,206.00792372908836 27.319021643488668,205.90257870761343 27.247756466676947,205.80250077417804 27.152736230869778,205.6918881365964 27.152736230869778,205.5496716031339 27.257258490251843,205.39165285636773 27.399788843933493,205.3758509599029 27.542319197615143,205.2599702648513 27.556572232977487,205.12828739828183 27.452049973624526,205.0492775463099 27.475805032561766,204.91759423966505 27.452049973624526,204.75957390859912 27.537568185827695,204.64895944119053 27.566074256552383,204.50147318272138 27.542319197615143,204.38032349800778 27.485307056136662,204.25917358047082 27.409290867537493,204.12748862342414 27.300017596338876,204.04321010655258 27.22875241949805,204.04321010655258 27.238254443072947,204.04847751715715 27.2430054548895,204.04847751715715 27.219250395923154,204.0537449273288 27.22875241949805,204.04847751715715 27.219250395923154,204.0537449273288 27.214499384135706,204.05901233704935 27.214499384135706,204.0537449273288 27.195495336985914,204.04847751715715 27.138483195507433,203.87992015947384 27.157487242657226,203.78510644772177 27.195495336985914,203.685025152834 27.26200950203929,203.6060134919826 27.338025690667564,203.55333899639663 27.42829491465818,203.4743271705156 27.537568185827695,203.39531524557606 27.642090445180656,203.28469838428646 27.71810663380893,203.221488662115 27.71810663380893,203.12140647238266 27.627837409818312,203.04239410507216 27.566074256552383,202.94231163100267 27.537568185827695,202.80008889446617 27.566074256552383,202.705273558513 27.570825268368935,202.61045807994378 27.60883336266852,202.46823459465304 27.55182122119004,202.36288365791552 27.475805032561766,202.32074323391134 27.42829491465818,202.25753254509254 27.40453985572094,202.1258434064439 27.456800985411974,201.96781607690355 27.509062115073903,201.86246430375832 27.509062115073903,201.72550673542355 27.54707020940259,201.58328125331172 27.613584374455968,201.47266121201028 27.623086398059968,201.33043515934696 27.656343480543,201.20927937986562 27.618335386243416,201.10919399505656 27.627837409818312,201.00384078671777 27.594580327306176,200.91429042117306 27.58032729194383,200.76679542407146 27.661094492359553,200.62983547484328 27.699102586659137,200.51394605455425 27.684849551296793,200.38752098938858 27.661094492359553,200.26636339729885 27.67059651593445,200.1241346224233 27.67059651593445,199.96610227386918 27.665845504147,199.82387282135824 27.181242301594466,199.06531032000566 27.10997712475364,199.05477466541925 27.067218018637504,198.9862928676739 27.02445891255047,198.91254315610422 27.014956888975576,198.8387933582344 26.991201830038335,198.79665057784223 26.957944747497095,198.72290064433764 26.905683617835166,198.654418485934 26.820165405602893,198.6228113108009 26.758402252366068,198.57540051837714 26.71564314624993,198.51745394586396 26.6538799929549,198.45950732006168 26.54460672181449,198.35941756816464 26.478092556761112,198.25932765730977 26.411578391707735,198.24352397264374 26.311807144113118,198.28566712294196 26.2215379201225,198.29620290612002 26.112264648952987,198.31727446718287 26.02199542496237,198.2698634448825 25.98873834242113,198.16977339178266 25.950730248121545,198.10129063226123 25.85571001234348,198.05914735863553 25.741685729357414,198.0907548164978 25.708428646845277,198.0275398849335 25.708428646845277,198.0064682269658 25.732183705782518,198.01700405683732 25.72268168220762,198.0064682269658 25.694175611482933,198.0275398849335 25.670420552545693,198.03280779831766 25.69892662327038,198.03280779831766 25.684673587908037,198.03280779831766 25.684673587908037,198.03280779831766 25.69892662327038,198.01700405683732 25.679922576091485,197.9748607268266 25.622910434642108,197.86423435150573 25.608657399279764,197.80101919269146 25.565898293163627,197.72726809392407 25.53739222243894,197.70619633555907 25.475629069143906,197.66405279770697 25.40911490409053,197.62190923164962 25.342600739037152,197.63244512580786 25.29509062116267,197.59030153861386 25.26183353862143,197.60083743805444 25.233327467896743,197.6061053871199 25.143058243906125,197.64298101820168 25.086046102427645,197.6851245701473 25.02903396092006,197.6745886848148 24.972021819470683,197.71146427581698 24.891254619025858,197.764143654098 24.83424247757648,197.81155505690185 24.78198134788545,197.8431626389538 24.734471229981864,197.85369849611743 24.65845504135359,197.8853060570218 24.587189864512766,197.92744944691003 24.501671652309597,197.9748607268266 24.406651416502427,198.0275398849335 24.330635227874154,198.12236225850938 24.23561499209609,198.16977339178266 24.154847791680368,198.16450548983994 24.078831603052095,198.16977339178266 23.988562379032373,198.16450548983994 23.94580327294534,198.14870178138153 23.964807320095133,198.1328980689832 23.964807320095133,198.1539696846412 23.96005630827858,198.1434338776926 23.9125461904041,198.13816597355617 23.85078303713817,198.08021899896994 23.79377089565969,198.08021899896994 23.713003695273073,198.1276301639591 23.660742565552937,198.05387944745235 23.56097131795832,198.0907548164978 23.484955129330046,198.0117361421253 23.437445011455566,197.9327173686579 23.36142882279819,197.89584190713504 23.347175787435845,197.90110983152772 23.3329227520735,197.86423435150573 23.266408587020123,197.79048332672028 23.199894421966746,197.77467952447478 23.199894421966746,197.7799474590065 23.19039239839185,197.764143654098 23.16663733945461,197.71673221562378 23.1951434101793,197.62717717895794 23.204645433754195,197.56922973445762 23.13338025691337,197.50601427967922 23.114376209763577,197.4533346855933 23.08587013903889,197.38485114742798 23.05261305649765,197.31636753483326 23.019355973956408,197.22154394836616 23.005102938594064,197.13725619615434 22.948090797115583,196.97394835537125 22.891078655637102,196.89492828046423 22.83406651415862,196.83698016255948 22.80556044340483,196.7843000091052 22.76755234913435,196.67367154349267 22.701038184051868,196.58411502431773 22.68203413693118,196.51036250117977 22.66778110153973,196.4998264194037 22.63452401899849,196.50509446050637 22.644026042573387,196.50509446050637 22.64877705438994,196.50509446050637 22.629773007211043,196.49455837785354 22.639275030815043,196.49455837785354 22.64877705438994,196.4998264194037 22.686785148689523,196.42607379759647 22.691536160506075,196.4208057498763 22.653528066177387,196.44187793810124 22.63452401899849,196.43660989169803 22.620270983636146,196.44187793810124 22.620270983636146,196.4524140295798 22.6250219954527,196.44187793810124 22.6250219954527,196.43660989169803 22.629773007211043,196.43660989169803 22.63452401899849,196.43660989169803 22.639275030815043,196.4313418448619 180.90973077600938,92.41729557707367 180.81471054023132,92.47534015526253 180.81471054023132,92.47534015526253 180.81471054023132,92.47534015526253 180.81471054023132,92.47534015526253 180.7244413162407,92.53338467959111 23.090621150826337,197.38485114742798 23.13338025691337,197.50601427967922 23.185641386604402,197.59030153861386 23.176139363029506,197.69566045373358 23.185641386604402,197.81155505690185 23.223649480903987,197.90637775549112 23.280661622382468,197.99593239536262 23.309167693107156,198.1328980689832 23.313918704923708,198.24879186796534 23.3329227520735,198.42790004716153 23.36142882279819,198.5859362531046 23.380432869977085,198.70182921889864 23.385183881764533,198.83352551223288 23.380432869977085,198.99682853370905 23.380432869977085,199.11272074385852 23.356677811039845,199.2022736693434 23.204645433754195,199.27075523238818 23.0383600211062,199.28129085086766 22.919584726390895,199.31289769572322 22.796058419859037,199.3550401308894 22.65827907793573,199.42352152792228 22.520499736070633,199.46039609549916 22.392222417751327,199.4972706414992 22.316206229123054,199.55521631305237 22.202181946166093,199.6078941500382 22.10241069860058,199.6763752723091 22.06440260427189,199.71851746439643 22.050149568909546,199.73432077917823 22.050149568909546,199.73958854988814 21.99313742740196,199.78699846646123 21.917121238802793,199.80806952905186 21.812598979420727,199.81333729359903 21.727080767217558,199.87128267453954 21.636811543197837,199.91869249203955 21.598803448898252,199.9819055265616 21.546542319178116,200.07145721693087 21.42776702446281,200.06618947396782 21.351750835834537,200.04511849768096 21.22822452930268,200.07672495946827 21.12845328170806,200.09252818441018 21.038184057717444,200.05565398670296 20.947914833726827,200.03458300689454 20.84339257434476,200.06092173055004 20.77212739753304,200.07672495946827 20.710364244238008,200.11886688385857 20.610592996672494,200.1504733086549 20.520323772652773,200.17154424970795 20.468062642990844,200.2452924879326 20.425303536874708,200.33484380405935 20.439556572237052,200.4138595655386 20.39204645436257,200.45073355366912 20.349287348246435,200.47180439435397 20.311279253917746,200.4823398120352 20.21625901813968,200.50341064214444 20.125989794149064,200.4823398120352 20.021467534766998,200.4981429352738 19.92169628717238,200.52448146521056 19.92644729895983,200.55608768658203 19.935949322534725,200.62983547484328 19.92169628717238,200.7035831767971 19.89794122823514,200.7509923682046 19.878937181085348,200.79313384173292 19.869435157481348,200.84581064401573 19.83617807496921,200.9300934361163 19.741157839191146,200.99330545620614 19.650888615171425,200.99330545620614 19.589125461905496,201.0143761154759 19.49410522612743,201.07232039216615 19.432342072861502,201.06178507309232 19.40383600210771,201.00910845130784 19.370578919595573,201.01964377920376 19.34207284884178,200.9775024571063 19.327819813479437,200.95643178550745 19.37532993138302,200.90375507567296 19.37532993138302,200.8984874022899 19.34207284884178,200.94589644706502 19.2945627309673,200.95643178550745 19.327819813479437,201.08285570948283 19.299313742725644,201.2566881908606 19.38008094317047,201.38311151257585 19.41333802571171,201.49899933468623 19.2945627309673,201.54114030808705 19.190040471585235,201.6780982770324 19.142530353710754,201.85192911675767 19.171036424435442,201.98361882768222 19.05701214147848,202.13637854766057 19.004751011787448,202.27860278173466 19.076016188657377,202.41029160122707 19.147281365498202,202.48930476086025 19.11877529474441,202.5841204216813 19.123526306531858,202.68947098865465 19.08551821220317,202.86329903919977 19.194791483372683,202.91070660617333 19.313566778117092,202.97918413994557 19.451346120011294,203.04239410507216 19.560619391180808,203.16354636110555 19.622382544446737,203.30050080492947 19.788667957065627,203.42692002742479 19.964455393288517,203.5111993682549 20.116487770545064,203.54807154442824 20.282773183193058,203.45852479344103 20.430054548662156,203.5164668233083 20.62009502024739,203.55333899639663 20.781629421078833,203.59021114792267 20.971669892664067,203.6007460444016 21.066690128471237,203.6112809391161 21.175963399611646,203.67449027041948 21.32324476510985,203.679757711845 21.442020059854258,203.685025152834 21.594052437110804,203.73243210178407 21.74608481436735,203.71662978942913 21.89336617983645,203.74296697449245 22.021643498155754,203.76930414855815 22.14992081647506,203.806176173759 22.297202181944158,203.81671103414192 22.4777406299836,203.8272458927786 22.629773007211043,203.7535018454546 22.734295266593108,203.73243210178407 22.886327643849654,203.79037387989956 23.024106985743856,203.77457158205652 23.123878233338473,203.7008274730979 23.1951434101793,203.81671103414192 23.33767376386095,203.92205954113888 23.318669716682052,204.09061678615763 23.404187928914325,204.18543003841842 23.456449058605358,204.23283661107052 23.65124054197804,204.19069743713044 23.82702797820093,204.19069743713044 24.012317437998718,204.1485582350433 24.159598803467816,204.0063382199951 24.330635227874154,203.95366405891764 24.463663557980908,204.06954715517713 24.610944923450006,204.12748862342414 24.83899348936393,204.13275602698195 24.962519795895787,204.0800819715514 25.10029913778999,204.03794269551508 25.257082526833983,203.96946631186438 25.41386591590708,203.9009898538352 25.518388175260043,203.8904550075349 25.656167517154245,203.96946631186438 25.78444483547355,204.06427974632606 25.912722153792856,204.0800819715514 26.02199542496237,204.03794269551508 26.155023755069124,203.98526856084573 26.321309167688014,203.98000114495153 26.463839521398768,203.98000114495153 26.60161886329297,203.9378618020164 26.71089213443338,203.9009898538352 26.824916417419445,203.87465273477937 26.995952841825783,203.94312922142126 27.133732183719985,203.98000114495153 27.214499384135706,204.0010708058726 27.357029737817356,204.05901233704935 27.471054020774318,204.17489523965196 27.49956009152811,204.34345180862147 27.58032729194383,204.46986893958456 27.566074256552383,204.62788999681652 27.504311103286454,204.77010860965675 27.485307056136662,204.93339625098088 27.54707020940259,205.07561417463512 27.589829315518728,205.22309908994066 27.49005806792411,205.33897985276417 27.333274678880116,205.3758509599029 27.2335034312855,205.52333517284933 27.200246348773362,205.67081904076622 27.304768608126324,205.80776803778645 27.3807847967837,205.95525124035703 27.561323244764935,206.02899271226124 27.656343480543,206.14487199385258 27.642090445180656,206.281819961172 27.817877881403547,206.30815607463592 27.89864508184837,206.41876763102118 28.01266936477623,206.5293789933603 28.183705789211672,206.6241885780655 28.311983107530978,206.7400667657639 28.440260425850283,206.84014321103314 28.49727256729966,206.98762399873158 28.635051909222966,207.0982343631258 28.706317086034687,207.24571454716715 28.88210452228668,207.32998878316357 29.05314094669302,207.33525591916623 29.224177371128462,207.37739299141322 29.37145873659756,207.44586567375518 29.5519971846079,207.48800267206752 29.689776526472997,207.53540676153716 29.85606193912099,207.59861215870478" stroke="#4DD2FF" stroke-dasharray="none" stroke-linecap="round" stroke-linejoin="round" stroke-width="0.5"><title>2026-03-14 12.0km</title><desc>9223370263378906807</desc></polyline></svg>