<?xml version="1.0" encoding="utf-8" ?>
<svg baseProfile="full" height="300mm" version="1.1" viewBox="0,0,200,300" width="200mm" xmlns="http://www.w3.org/2000/svg" xmlns:ev="http://www.w3.org/2001/xml-events" xmlns:xlink="http://www.w3.org/1999/xlink"><defs /><rect fill="#222222" height="300" width="200" x="0" y="0" /><text fill="#FFFFFF" style="font-size:12px; font-family:Arial; font-weight:bold;" x="10" y="20">Over 10km Runs</text><text fill="#FFFFFF" style="font-size:4px; font-family:Arial" x="10" y="280">Runner</text><text fill="#FFFFFF" style="font-size:9px; font-family:Arial" x="10" y="290">yihong0618</text><text fill="#FFFFFF" style="font-size:4px; font-family:Arial" x="65" y="280">SPECIAL TRACKS</text><rect fill="yellow" height="2.6" width="2.6" x="65" y="283" /><text fill="#FFFFFF" style="font-size:3px; font-family:Arial" x="70" y="285.5">Over 20.0 km</text><rect fill="red" height="2.6" width="2.6" x="65" y="287" /><text fill="#FFFFFF" style="font-size:3px; font-family:Arial" x="70" y="289.5">Over 40.0 km</text><text fill="#FFFFFF" style="font-size:4px; font-family:Arial" x="120" y="280">STATISTICS</text><text fill="#FFFFFF" style="font-size:3px; font-family:Arial" x="120" y="285">Number: 1</text><text fill="#FFFFFF" style="font-size:3px; font-family:Arial" x="120" y="290">Weekly: 1.0</text><text fill="#FFFFFF" style="font-size:3px; font-family:Arial" x="141" y="285">Total: 12.0 km</text><text fill="#FFFFFF" style="font-size:3px; font-family:Arial" x="141" y="290">Avg: 12.0 km</text><text fill="#FFFFFF" style="font-size:3px; font-family:Arial" x="167" y="285">Min: 12.0 km</text><text fill="#FFFFFF" style="font-size:3px; font-family:Arial" x="167" y="290">Max: 12.0 km</text><polyline fill="none" opacity="1" points="29.670772479323205,207.51960542346205 29.571001231728587,207.46693420634983 29.414217842684593,207.45639995766032 29.29069153618184,207.38792729820125 29.152912194287637,207.34052310579136 29.010381840576883,207.31945456438552 28.891606545832474,207.34579024004415 28.64930494458531,207.2720503204946 28.635051909222966,207.1983103147213 28.563786732353037,207.0613643609031 28.48301953196642,207.00869276101366 28.421256378671387,206.83487616917773 28.316734119318426,206.76113565212654 28.24071793066105,206.66632628917796 28.159950730245328,206.6241887487813 28.064930494467262,206.56624958475732 27.903396093606716,206.55571518557554 27.836881928582443,206.43456946849255 27.87013901109458,206.31342351863714 27.74661270456272,206.32922517747647 27.59933133906452,206.29235463403893 27.623086398059968,206.0974671176882 27.537568185827695,206.03426022624262 27.423543902870733,205.9973895103103 27.328523667092668,205.89731174409098 27.257258490251843,205.7919665554 27.152736230869778,205.68135391781834 27.157487242657226,205.53387009918515 27.271511525614187,205.38638593554424 27.42829491465818,205.36004944143133 27.556572232977487,205.21783218317432 27.542319197615143,205.0914165731774 27.437796938233078,204.9966046993395 27.466303008957766,204.85965396315805 27.49480907971156,204.71216822225324 27.542319197615143,204.56994950246735 27.58032729194383,204.4382652165914 27.485307056136662,204.33291758984342 27.46155199719942,204.1696284204845 27.366531761421356,204.06428034480996 27.219250395923154,204.03267588777453 27.219250395923154,204.0379432983791 27.2430054548895,204.0379432983791 27.214499384135706,204.04321070855076 27.22875241949805,204.04321070855076 27.219250395923154,204.04321070855076 27.20974837234826,204.0484781182713 27.214499384135706,204.04321070855076 27.20974837234826,204.04321070855076 27.138483195507433,203.8693859406958 27.157487242657226,203.7693047963221 27.195495336985914,203.66922349306697 27.271511525614187,203.58494437760965 27.338025690667564,203.5375373256502 27.456800985411974,203.45325803411833 27.566074256552383,203.3637111634198 27.675347527721897,203.25836174090728 27.72760865741293,203.17408207613335 27.699102586659137,203.07399982786228 27.58507830373128,203.0002549116507 27.54707020940259,202.86329983840187 27.561323244764935,202.74741454397372 27.58032729194383,202.64206409144754 27.57557628012728,202.50510823995137 27.60883336266852,202.39448983495095 27.485307056136662,202.32601167742905 27.456800985411974,202.26280100446093 27.3807847967837,202.15744974196787 27.447298961837078,201.97308460890417 27.509062115073903,201.87300045369557 27.504311103286454,201.73077532817842 27.542319197615143,201.58328226644153 27.613584374455968,201.46212699323223 27.627837409818312,201.31463330281622 27.656343480543,201.19347751320674 27.618335386243416,201.08812446336378 27.60883336266852,200.9722359051484 27.589829315518728,200.8826855096704 27.589829315518728,200.72992277663434 27.684849551296793,200.59823046822567 27.699102586659137,200.46653788464027 27.665845504147,200.34011274549994 27.67059651593445,200.19261642930724 27.656343480543,200.03985202363765 27.675347527721897,199.83440965283808 27.656343480543,199.79753531027382 27.157487242657226,199.05477610122762 27.06246700687916,199.0179013024681 27.03871194794192,198.9178124542268 27.019707900763024,198.83352698501403 27.00070385361323,198.80718775277273 26.96744677107199,198.72290213562155 26.905683617835166,198.67022356764937 26.82966742917779,198.62281281881224 26.763153264124412,198.58593776728958 26.71564314624993,198.50691972708591 26.64912898116745,198.4437052235662 26.535104698239593,198.33834757678414 26.463839521398768,198.24352554407596 26.40207636813284,198.24352554407596 26.302305120567326,198.26986501192005 26.193031849368708,198.30147235880577 26.07900756644085,198.30147235880577 26.007742389600025,198.2382576491873 25.96498328348389,198.12236385020515 25.917473165609408,198.0591489609069 25.803448882623343,198.04861313985748 25.70367763505783,198.04861313985748 25.69892662327038,198.01700566615546 25.732183705782518,198.00646983805927 25.71317965866183,198.02227357953961 25.694175611482933,198.0275414924763 25.670420552545693,198.01700566615546 25.694175611482933,198.01700566615546 25.694175611482933,198.0328094049728 25.679922576091485,198.01700566615546 25.69892662327038,197.99593400818776 25.684673587908037,197.96432650804854 25.622910434642108,197.85370013272768 25.608657399279764,197.7852170411461 25.565898293163627,197.71146593621597 25.532641210622387,197.69566211678102 25.456625021994114,197.65351857892892 25.399612880544737,197.60083911695983 25.323596691916464,197.6166429601799 25.280837585800327,197.5903032192764 25.257082526833983,197.58503526978166 25.18106633820571,197.62191090702981 25.114552173152333,197.65351857892892 25.057540031673852,197.68512623495553 24.98152384304558,197.68512623495553 24.934013725141995,197.72726975168553 24.843744501151377,197.76941324022846 24.80098539503524,197.82736049093 24.75347527716076,197.83262842017575 24.677459088503383,197.8800397635241 24.610944923450006,197.9063793833011 24.51592468767194,197.95379067115573 24.416153440106427,197.99593400818776 24.344888263265602,198.10656013381958 24.249868027458433,198.1592391730046 24.154847791680368,198.1539712710619 24.064578567660647,198.1592391730046 23.979060355457477,198.1487033686899 23.96005630827858,198.13289965891454 23.964807320095133,198.12236385020515 23.983811367244925,198.13289965891454 23.94580327294534,198.1539712710619 23.888791131437756,198.10656013381958 23.822276966413483,198.0696847801919 23.7747668485099,198.09602432069732 23.689248636277625,198.0696847801919 23.608481435861904,198.04861313985748 23.527714235446183,198.04861313985748 23.45169804681791,197.95379067115573 23.38993489355198,197.91691522813198 23.356677811039845,197.8800397635241 23.3329227520735,197.87477183824376 23.285412634169916,197.7957529062478 23.209396445541643,197.75887737073572 23.1951434101793,197.77468117430908 23.1951434101793,197.75887737073572 23.16663733945461,197.71673387514602 23.1951434101793,197.62191090702981 23.204645433754195,197.55869551567957 23.13338025691337,197.49548006090117 23.104874186159577,197.42699658000492 23.07161710364744,197.3690489610999 23.043111032922752,197.29002939489146 23.009853950381512,197.17413385186956 23.005102938594064,197.01082613397375 22.919584726390895,196.94234212630545 22.881576632062206,196.84224998121863 22.81031145522138,196.79483785699267 22.81031145522138,196.72108559284607 22.739046278380556,196.6262611263519 22.677283125114627,196.54197259192006 22.663030089752283,196.4787561170706 22.629773007211043,196.4840241590755 22.629773007211043,196.48929220062564 22.644026042573387,196.49982828240172 22.63452401899849,196.48929220062564 22.644026042573387,196.49456024172832 22.64877705438994,196.4840241590755 22.686785148689523,196.42607567291998 22.691536160506075,196.41027153109826 22.65827907793573,196.4313437193232 22.63452401899849,196.42607567291998 22.620270983636146,196.4313437193232 22.620270983636146,196.44187981080177 22.6250219954527,196.4313437193232 22.629773007211043,196.4313437193232 22.629773007211043,196.42080762608384 22.629773007211043,196.42607567291998 22.644026042573387,196.42080762608384 180.90973077600938,92.40676135829563 180.81471054023132,92.46480593648448 180.81471054023132,92.46480593648448 180.81471054023132,92.46480593648448 180.7244413162407,92.52285046081306 180.62942108043353,92.58089493128136 23.11912722152192,197.43226454269825 23.185641386604402,197.52708779622117 23.16663733945461,197.64298269004576 23.19039239839185,197.75887737073572 23.209396445541643,197.87477183824376 23.280661622382468,197.96959442586012 23.304416681348812,198.10656013381958 23.313918704923708,198.2382576491873 23.3329227520735,198.4068300672261 23.36142882279819,198.57540203432654 23.380432869977085,198.7018307137114 23.380432869977085,198.83352698501403 23.37093084640219,199.00736564171893 23.380432869977085,199.11272216997168 23.342424775648396,199.21807852207712 23.15713531585061,199.244417582584 23.009853950381512,199.28656005648736 22.867323596699862,199.3128990883779 22.734295266593108,199.36030931802816 22.582262889336562,199.42352290207418 22.458736582804704,199.47093304851296 22.363716346997535,199.51307537093817 22.26394509943202,199.56575323434663 22.130916769296164,199.6342343909564 22.083406651421683,199.69744770024772 22.050149568909546,199.72378656040019 22.050149568909546,199.72378656040019 22.00263945100596,199.76592871376124 21.92662326237769,199.79753531027382 21.822101002995623,199.80280307482099 21.727080767217558,199.8607484557615 21.636811543197837,199.9081582732615 21.598803448898252,199.97137130778356 21.54179130741977,200.06092299815282 21.423016012646258,200.050387511772 21.337497800472192,200.03985202363765 21.218722505727783,200.07145848278378 21.099947210983373,200.07672622442988 21.014428998780204,200.03985202363765 20.909906739427242,200.01878104207208 20.810135491832625,200.07145848278378 20.757874362141592,200.07145848278378 20.67710716172587,200.1294036167019 20.56783389058546,200.14520682580405 20.487066690140637,200.18734869734544 20.439556572237052,200.2821678053224 20.434805560449604,200.37171905406285 20.396797466120915,200.4349316236221 20.35878937182133,200.46127017557592 20.320781277492642,200.47707330143749 20.24476508886437,200.48760871649574 20.13074080593651,200.47180559325716 20.030969558341894,200.47180559325716 19.92169628717238,200.5139472464325 19.92644729895983,200.54555346780398 19.935949322534725,200.61930125606523 19.92169628717238,200.69304895801906 19.893190216447692,200.74045814942656 19.888439204660244,200.793134986925 19.864684145723004,200.8510794573449 19.826676051394315,200.93536222828698 19.72215379201225,200.9722359051484 19.64138659159653,200.9985742325298 19.555868379364256,201.0143772236952 19.47035016719019,201.07758914870647 19.432342072861502,201.0249125489354 19.37532993138302,200.98803890290583 19.361076896020677,200.99330656793973 19.31831778990454,200.9511652353067 19.35157487244578,200.92482688808013 19.370578919595573,200.88795318351185 19.346823860658333,200.9300945584073 19.304064754542196,200.9458975667294 19.308815766329644,201.04598319412253 19.299313742725644,201.20401280851365 19.361076896020677,201.35677439244682 19.418089037499158,201.4831974922563 19.2945627309673,201.530606089309 19.190040471585235,201.66756405825436 19.142530353710754,201.8571976778294 19.161534400860546,201.98888735571745 19.03800809432869,202.14691460603717 19.009502023604,202.31547656968178 19.09502023580717,202.39975738244902 19.161534400860546,202.49457316213375 19.142530353710754,202.5946563303878 19.11877529474441,202.73161198734306 19.123526306531858,202.87910236203606 19.232799577672267,202.94757991869847 19.37532993138302,202.98971991657527 19.517860285093775,203.08453480885146 19.574872426543152,203.2425593123371 19.712651768437354,203.37424609598747 19.883688192843692,203.49013023802036 20.059475629066583,203.54280477761858 20.221010029898025,203.45325803411833 20.396797466120915,203.48486278164637 20.582086925947806,203.5375373256502 20.77212739753304,203.5744094802576 20.96216786908917,203.60074672033807 21.052437093108892,203.60074672033807 21.175963399611646,203.66395605164143 21.327995776897296,203.67449093405594 21.465775118762394,203.68502581466237 21.6130564842897,203.71663044600064 21.774590885121142,203.71136300855142 21.917121238802793,203.7482350614846 22.031145521759754,203.7587699297801 22.202181946166093,203.80617681536387 22.363716346997535,203.81671167400054 22.55850783039932,203.7851070928482 22.68203413693118,203.71663044600064 22.800809431646485,203.7587699297801 22.952841808932135,203.80090938539797 23.066866091859993,203.71136300855142 23.147633292275714,203.76403736327848 23.299665669561364,203.85885109087758 23.328171740286052,204.03267588777453 23.413689952518325,204.14329141805865 23.45169804681791,204.24863936169277 23.608481435861904,204.1590936208231 23.80327291926369,204.19596541189094 23.988562379032373,204.14329141805865 24.150096779863816,204.01687365330872 24.330635227874154,203.9431298401396 24.463663557980908,204.05901293639909 24.634699982387247,204.1169544046461 24.862748548330273,204.1222218082039 24.98152384304558,204.06954775277336 25.143058243906125,204.0063388281378 25.304592644737568,203.95893209308633 25.451874010206666,203.85358366531364 25.56114728137618,203.90099047958574 25.71317965866183,203.98526917252457 25.836705965164583,204.0379432983791 25.974485307058785,204.05374552754802 26.083758578199195,203.98526917252457 26.235790955484845,203.96946692617348 26.42583142707008,203.99580400121704 26.56361076896428,203.9431298401396 26.677635051921243,203.90625790120248 26.786908323090756,203.8693859406958 26.962695759313647,203.91152532236083 27.11947914835764,203.96946692617348 27.195495336985914,203.98526917252457 27.342776702455012,204.0379432983791 27.456800985411974,204.15382622034303 27.49956009152811,204.33291758984342 27.58032729194383,204.4646020957698 27.566074256552383,204.63842522241248 27.509062115073903,204.79644583073605 27.471054020774318,204.95973337654505 27.58507830373128,205.08614925059737 27.57557628012728,205.2336341165974 27.447298961837078,205.34951484070552 27.29051557276398,205.4074551228914 27.22875241949805,205.53913738435585 27.2335034312855,205.70769027771166 27.338025690667564,205.87624272043104 27.49005806792411,205.99212226342206 27.642090445180656,206.06586367986893 27.63258842160576,206.21861348248422 27.756114728137618,206.29762185585787 27.893894070060924,206.35029404976376 27.969910258660093,206.49250875353755 28.145697694882983,206.60311996802557 28.297730072168633,206.70319661392932 28.42600739048794,206.81380745882052 28.49727256729966,206.97182261491253 28.62554988564807,207.0771658322883 28.706317086034687,207.2351803283891 28.891606545832474,207.32472170038818 29.072144993871916,207.32472170038818 29.243181418278255,207.36159164013952 29.414217842684593,207.44586570719548 29.57575224354514,207.4985369418937 29.73728664437658,207.53013966160142 29.889319021633128,207.6196806147418 30.050853422522778,207.64074905583766 30.193383776175324,207.5670094812449 30.373922224214766,207.54067389799093 30.544958648621105,207.54067389799093 30.7112440612691,207.55120813261237 30.849023403134197,207.5248725427591 30.991553756815847,207.47746845328948 31.115080063347705,207.41426294524717 31.24810839345446,207.4722013300452 31.366883688198868,207.572276596562" stroke="#4DD2FF" stroke-dasharray="none" stroke-linecap="round" stroke-linejoin="round" stroke-width="0.5"><title>2026-03-14 12.0km</title><desc>9223370263378906807</desc></polyline></svg>