<?xml version="1.0" encoding="utf-8" ?>
<svg baseProfile="full" height="300mm" version="1.1" viewBox="0,0,200,300" width="200mm" xmlns="http://www.w3.org/2000/svg" xmlns:ev="http://www.w3.org/2001/xml-events" xmlns:xlink="http://www.w3.org/1999/xlink"><defs /><rect fill="#222222" height="300" width="200" x="0" y="0" /><text fill="#FFFFFF" style="font-size:12px; font-family:Arial; font-weight:bold;" x="10" y="20">Over 10km Runs</text><text fill="#FFFFFF" style="font-size:4px; font-family:Arial" x="10" y="280">Runner</text><text fill="#FFFFFF" style="font-size:9px; font-family:Arial" x="10" y="290">yihong0618</text><text fill="#FFFFFF" style="font-size:4px; font-family:Arial" x="65" y="280">SPECIAL TRACKS</text><rect fill="yellow" height="2.6" width="2.6" x="65" y="283" /><text fill="#FFFFFF" style="font-size:3px; font-family:Arial" x="70" y="285.5">Over 20.0 km</text><rect fill="red" height="2.6" width="2.6" x="65" y="287" /><text fill="#FFFFFF" style="font-size:3px; font-family:Arial" x="70" y="289.5">Over 40.0 km</text><text fill="#FFFFFF" style="font-size:4px; font-family:Arial" x="120" y="280">STATISTICS</text><text fill="#FFFFFF" style="font-size:3px; font-family:Arial" x="120" y="285">Number: 1</text><text fill="#FFFFFF" style="font-size:3px; font-family:Arial" x="120" y="290">Weekly: 1.0</text><text fill="#FFFFFF" style="font-size:3px; font-family:Arial" x="141" y="285">Total: 12.0 km</text><text fill="#FFFFFF" style="font-size:3px; font-family:Arial" x="141" y="290">Avg: 12.0 km</text><text fill="#FFFFFF" style="font-size:3px; font-family:Arial" x="167" y="285">Min: 12.0 km</text><text fill="#FFFFFF" style="font-size:3px; font-family:Arial" x="167" y="290">Max: 12.0 km</text><polyline fill="none" opacity="1" points="29.357205701206112,207.41953007334814 29.214675347524462,207.37739303629496 29.09114904102171,207.31945456438552 28.96762273448985,207.31945456438552 28.844096427957993,207.3563245072146 28.658806968160206,207.26151603923063 28.601794826681726,207.14563882921357 28.544782685203245,207.05609720289794 28.459264473000076,206.9928912724681 28.41650536688394,206.8190746370783 28.311983107530978,206.7506012855083 28.24071793066105,206.66105909817634 28.159950730245328,206.6241887487813 28.06968150625471,206.5715167836861 27.917649128998164,206.56098238539198 27.836881928582443,206.45037109696568 27.884392046456924,206.35029404976376 27.765616751712514,206.31869073869166 27.63258842160576,206.31869073869166 27.618335386243416,206.15013947880288 27.58507830373128,206.0289929824321 27.471054020774318,206.01319124834117 27.366531761421356,205.94998427242172 27.304768608126324,205.83937191209407 27.20974837234826,205.74982843062753 27.162238254473777,205.60761205162635 27.17174027801957,205.4706626427178 27.34752771424246,205.38111863758968 27.475805032561766,205.33898023822258 27.566074256552383,205.1756936746824 27.518564138677903,205.08088192757714 27.452049973624526,204.97026804239795 27.46155199719942,204.8385845927187 27.518564138677903,204.6963661581176 27.537568185827695,204.56468213630433 27.57557628012728,204.4329978394453 27.485307056136662,204.33291758984342 27.471054020774318,204.1801632183524 27.366531761421356,204.0748151602893 27.214499384135706,204.02740847673704 27.224001407710603,204.0379432983791 27.252507478464395,204.0379432983791 27.214499384135706,204.04321070855076 27.224001407710603,204.04321070855076 27.224001407710603,204.04321070855076 27.20974837234826,204.0484781182713 27.214499384135706,204.05374552754802 27.214499384135706,204.0484781182713 27.133732183719985,203.94839725823113 27.133732183719985,203.82197910264586 27.162238254473777,203.7377001914174 27.22875241949805,203.63761883797633 27.295266584551428,203.5638745811375 27.357029737817356,203.50066514947684 27.475805032561766,203.42692073242506 27.58032729194383,203.34264129299845 27.689600563113345,203.24782678897463 27.72760865741293,203.15827962644835 27.684849551296793,203.0634648451014 27.58507830373128,203.0002549116507 27.54707020940259,202.86329983840187 27.556572232977487,202.75268206198962 27.58032729194383,202.65259914464696 27.570825268368935,202.526178390337 27.618335386243416,202.4050249295069 27.49005806792411,202.33127923066058 27.471054020774318,202.27333612102666 27.390286820358597,202.18378757409664 27.423543902870733,202.00469009858716 27.49005806792411,201.92567634467923 27.49005806792411,201.79398653469252 27.509062115073903,201.6412260104189 27.594580327306176,201.50953560613198 27.623086398059968,201.3883801911652 27.63733943339321,201.27249218502402 27.642090445180656,201.15660396579915 27.623086398059968,201.04598319412253 27.59933133906452,200.96170057109703 27.59933133906452,200.8510794573449 27.60883336266852,200.68251357730696 27.699102586659137,200.57189197352272 27.699102586659137,200.45600246606773 27.661094492359553,200.3243095852813 27.67059651593445,200.18734869734544 27.656343480543,200.03985202363765 27.675347527721897,199.83440965283808 27.656343480543,199.79753531027382 27.157487242657226,199.0705795798167 27.076720042241504,199.03897261869497 27.052964983304264,198.92834812994988 27.02445891255047,198.859866206265 27.00545486540068,198.82825913945635 26.981699806434335,198.7492414031003 26.924687664955854,198.7018307137114 26.858173499902477,198.63861640572577 26.7916593348491,198.58593776728958 26.753651240549516,198.55959843156234 26.691888087254483,198.47004460774042 26.606369875080418,198.39102642219586 26.511349639302352,198.30674024840482 26.435333450644976,198.25932922610446 26.373570297379047,198.24352554407596 26.25954601445119,198.2751329041639 26.178778814006364,198.30147235880577 26.05525250750361,198.30147235880577 25.998240365996026,198.21191816813734 25.960232271725545,198.12236385020515 25.912722153792856,198.05388105061138 25.803448882623343,198.04861313985748 25.70367763505783,198.05388105061138 25.69892662327038,198.01700566615546 25.717930670420174,198.00120192334725 25.708428646845277,198.01700566615546 25.694175611482933,198.0433452286743 25.679922576091485,198.02227357953961 25.679922576091485,198.02227357953961 25.67517156433314,198.0433452286743 25.679922576091485,198.02227357953961 25.69892662327038,198.00120192334725 25.69892662327038,198.00120192334725 25.637163470004452,197.90111146023264 25.618159422825556,197.8378963489704 25.58965335212997,197.74307356318604 25.551645257801283,197.70093005703893 25.518388175260043,197.66932240892493 25.447122998419218,197.63244679942363 25.38535984515329,197.59557116834185 25.304592644737568,197.59557116834185 25.27133556222543,197.5903032192764 25.266584550437983,197.5797673198358 25.176315326418262,197.62717885343955 25.105050149577437,197.65351857892892 25.057540031673852,197.68512623495553 24.98152384304558,197.67985829338068 24.94351574871689,197.7220018136286 24.848495512938825,197.75887737073572 24.81523843042669,197.82209256125861 24.758226288919104,197.83262842017575 24.705965159257175,197.87477183824376 24.653704029566143,197.8800397635241 24.558683793788077,197.9379869125114 24.45891254619346,197.96959442586012 24.37339433399029,198.0591489609069 24.28787612178712,198.1592391730046 24.188104874192504,198.1592391730046 24.131092732714023,198.1487033686899 24.02181946154451,198.1487033686899 23.95055428473279,198.1487033686899 23.97430934367003,198.12763175477812 23.96955833188258,198.14343546586315 23.95055428473279,198.12763175477812 23.94105226112879,198.1592391730046 23.87928910786286,198.10129222747128 23.822276966413483,198.0696847801919 23.760513813147554,198.10656013381958 23.684497624490177,198.0591489609069 23.608481435861904,198.04861313985748 23.53721625902108,198.0591489609069 23.456449058605358,197.96432650804854 23.408938940701773,197.91164730594755 23.356677811039845,197.8800397635241 23.342424775648396,197.87477183824376 23.304416681348812,197.80628876955598 23.24265352805378,197.75360943531996 23.19039239839185,197.7904849739134 23.1951434101793,197.77468117430908 23.180890374816954,197.74307356318604 23.180890374816954,197.66405446603676 23.204645433754195,197.58503526978166 23.176139363029506,197.52708779622117 23.11912722152192,197.45860434967835 23.100123174401233,197.4111926892183 23.05261305649765,197.3479770864651 23.043111032922752,197.26895749383402 23.009853950381512,197.1477939260003 22.98609889144427,196.9792181396806 22.919584726390895,196.93180611853313 22.881576632062206,196.84224998121863 22.81031145522138,196.79483785699267 22.80556044340483,196.71581757066087 22.739046278380556,196.6262611263519 22.68203413693118,196.54197259192006 22.66778110153973,196.4840241590755 22.629773007211043,196.4787561170706 22.620270983636146,196.49456024172832 22.644026042573387,196.49456024172832 22.629773007211043,196.48929220062564 22.644026042573387,196.4840241590755 22.644026042573387,196.4787561170706 22.68203413693118,196.46295198844746 22.701038184051868,196.41027153109826 22.691536160506075,196.4313437193232 22.6155199718487,196.42080762608384 22.629773007211043,196.4313437193232 22.620270983636146,196.44187981080177 22.629773007211043,196.44187981080177 22.629773007211043,196.43661176528622 22.629773007211043,196.4313437193232 22.63452401899849,196.42080762608384 22.639275030815043,196.42607567291998 22.63452401899849,196.42080762608384 180.90973077600938,92.40676135829563 180.81471054023132,92.46480593648448 180.81471054023132,92.46480593648448 180.81471054023132,92.46480593648448 180.7244413162407,92.52285046081306 180.62942108043353,92.58089493128136 23.11912722152192,197.4217286168423 23.171388351242058,197.51655188620862 23.185641386604402,197.62191090702981 23.180890374816954,197.72726975168553 23.1951434101793,197.84316427733938 23.256906563445227,197.93271899206957 23.294914657744812,198.0328094049728 23.294914657744812,198.18557867607524 23.323420728498604,198.30147235880577 23.347175787435845,198.49638398090246 23.375681858189637,198.64388426715595 23.380432869977085,198.7492414031003 23.380432869977085,198.9178124542268 23.36617983461474,199.04950827416178 23.380432869977085,199.1337934544863 23.299665669561364,199.23914977136883 23.114376209763577,199.244417582584 22.99560091504827,199.29182786375168 22.857821573124966,199.31816689342668 22.720042231230764,199.37611271997957 22.582262889336562,199.42352290207418 22.458736582804704,199.47093304851296 22.363716346997535,199.5078075821839 22.26394509943202,199.56575323434663 22.14992081647506,199.62896661232662 22.09290867499658,199.67637660419132 22.050149568909546,199.7290543311101 22.054900580696994,199.71851878925736 22.01689248639741,199.74485764058772 21.950378321344033,199.7817320139875 21.869611120899208,199.80807083892432 21.755586837942246,199.83440965283808 21.66531761395163,199.8976227613457 21.617807496048044,199.9397647984406 21.57504838996101,200.02931653372434 21.489530177757842,200.07145848278378 21.40401196552557,200.03985202363765 21.289987682568608,200.04511976792492 21.190216435003094,200.07145848278378 21.08094316383358,200.07672622442988 20.995424951601308,200.01878104207208 20.895653704035794,200.02931653372434 20.810135491832625,200.06619074069022 20.753123350354144,200.07672622442988 20.672356149938423,200.1241358794432 20.56783389058546,200.14520682580405 20.491817701928085,200.18208096495437 20.4443075840245,200.2716323559107 20.430054548662156,200.36645133706043 20.411050501512364,200.4349316236221 20.368291395396227,200.44546704572713 20.33028330106754,200.46653788464027 20.268520147830714,200.47707330143749 20.1592468766612,200.48234100919944 20.07847967624548,200.46653788464027 19.95970438150107,200.4981441298005 19.912194263597485,200.52448265532075 19.93119831077638,200.5666242732732 19.92644729895983,200.65090742460598 19.90744325183914,200.70358433697038 19.89794122823514,200.7562612052934 19.888439204660244,200.8036703491489 19.864684145723004,200.8721501606451 19.81242301603197,200.9775035715029 19.69364772128756,200.96696823832826 19.603378497296944,201.0091095604257 19.541615344031015,201.01964488653903 19.460848143615294,201.07232149070478 19.427591061074054,201.0249125489354 19.37532993138302,200.98803890290583 19.36582790777902,200.99330656793973 19.31831778990454,200.9511652353067 19.35157487244578,200.9300945584073 19.370578919595573,200.8826855096704 19.38008094317047,200.89848852986688 19.327819813479437,200.9300945584073 19.285060707392404,201.0091095604257 19.32306880169199,201.15660396579915 19.327819813479437,201.31463330281622 19.418089037499158,201.4305212314939 19.35157487244578,201.5148032275938 19.23755058948882,201.58328226644153 19.152032377256546,201.7465781357496 19.17578743622289,201.90987358200073 19.11402428295696,202.04683072683838 19.014253035391448,202.18905513919526 19.004751011787448,202.3839547386524 19.123526306531858,202.42609511334012 19.156783389073098,202.52091085339634 19.152032377256546,202.61045892136826 19.10927327114041,202.75794957956168 19.133028330135858,202.8738348545994 19.23755058948882,202.94757991869847 19.37532993138302,202.98971991657527 19.503607249702327,203.06873233670558 19.574872426543152,203.2320243577742 19.69839873307501,203.3531762290877 19.864684145723004,203.46906040987233 20.030969558341894,203.52173496706382 20.168748900236096,203.46906040987233 20.35403836000478,203.46379295173756 20.534576808015117,203.53226987323433 20.70086222066311,203.5691420309231 20.886151680460898,203.59547927320455 21.009677986992756,203.60074672033807 21.133204293524614,203.63235139392054 21.25197958823992,203.65342116749525 21.389758930163225,203.6586886097939 21.499032201303635,203.70082813231056 21.651064578589285,203.71663044600064 21.817349991208175,203.71136300855142 21.950378321344033,203.76403736327848 22.078655639634235,203.7851070928482 22.240190040465677,203.80090938539797 22.401724441326223,203.81144424490049 22.56325884218677,203.7798396611215 22.686785148689523,203.71136300855142 22.800809431646485,203.7587699297801 22.952841808932135,203.80090938539797 23.062115080072545,203.71663044600064 23.13338025691337,203.74296762667655 23.27115959880757,203.81144424490049 23.347175787435845,204.0010714148957 23.36142882279819,204.14329141805865 23.42794298788067,204.29604587888753 23.53246524723363,204.17489581964037 23.741509765968658,204.22230239229248 23.92679922579555,204.18543061663877 24.08358261481044,204.0484781182713 24.216610944917193,203.95366467587155 24.40190040471498,204.01160624095428 24.52067569945939,204.10115219131694 24.734471229981864,204.1222218082039 24.900756642629858,204.1222218082039 25.019531937374268,204.06428034480996 25.162062291055918,203.98526917252457 25.33309871549136,203.94839725823113 25.470878057385562,203.83778138595153 25.58490234031342,203.91679274310445 25.72268168220762,204.0063388281378 25.836705965164583,204.0379432983791 25.974485307058785,204.05374552754802 26.07900756644085,203.99053658709454 26.231039943697397,203.96419950985 26.397325356316287,203.99580400121704 26.53985571002704,203.94839725823113 26.672884040133795,203.90099047958574 26.763153264124412,203.87992078875686 26.905683617835166,203.88518821213802 27.052964983304264,203.95893209308633 27.190744325169362,203.99053658709454 27.285764561005635,204.01160624095428 27.414041879295837,204.095884786002 27.480556044349214,204.24863936169277 27.570825268368935,204.37505666167635 27.55182122119004,204.5278105609068 27.537568185827695,204.69109880253018 27.518564138677903,204.85438662120578 27.46155199719942,205.01240668821265 27.594580327306176,205.12828781894132 27.54707020940259,205.2652379715728 27.414041879295837,205.36531674112484 27.276262537401635,205.41798971392927 27.219250395923154,205.5602065206731 27.252507478464395,205.72349208835294 27.338025690667564,205.87624272043104 27.480556044349214,205.99212226342206 27.642090445180656,206.06586367986893 27.63733943339321,206.2028117959162 27.72760865741293,206.29762185585787 27.884392046456924,206.31869073869166 27.936653176147956,206.4767071356291 28.088685553404503,206.56624958475732 28.250219954235945,206.66105909817634 28.36899524900946,206.76640283476445 28.478268520149868,206.88754791428073 28.573288755957037,207.03502856646082 28.663557979947655,207.14563882921357 28.79658631005441,207.29838601594383 28.962871722702403,207.31945456438552 29.143410170683637,207.3352559710911 29.28594052439439,207.37739303629496 29.46647897240473,207.44586570719548 29.618511349632172,207.50380406293698 29.780045750463614,207.54594101551265 29.91782509238692,207.62494772568607 30.069857469643466,207.63548194622854 30.207636811566772,207.572276596562 30.373922224214766,207.54067389799093 30.544958648621105,207.54067389799093 30.7112440612691,207.55120813261237 30.834770367771853,207.53013966160142 30.986802745057503,207.47746845328948" stroke="#4DD2FF" stroke-dasharray="none" stroke-linecap="round" stroke-linejoin="round" stroke-width="0.5"><title>2026-03-14 12.0km</title><desc>9223370263378906807</desc></polyline></svg>