<?xml version="1.0" encoding="utf-8" ?>
<svg baseProfile="full" height="300mm" version="1.1" viewBox="0,0,200,300" width="200mm" xmlns="http://www.w3.org/2000/svg" xmlns:ev="http://www.w3.org/2001/xml-events" xmlns:xlink="http://www.w3.org/1999/xlink"><defs /><rect fill="#222222" height="300" width="200" x="0" y="0" /><text fill="#FFFFFF" style="font-size:12px; font-family:Arial; font-weight:bold;" x="10" y="20">Over 10km Runs</text><text fill="#FFFFFF" style="font-size:4px; font-family:Arial" x="10" y="280">Runner</text><text fill="#FFFFFF" style="font-size:9px; font-family:Arial" x="10" y="290">yihong0618</text><text fill="#FFFFFF" style="font-size:4px; font-family:Arial" x="65" y="280">SPECIAL TRACKS</text><rect fill="yellow" height="2.6" width="2.6" x="65" y="283" /><text fill="#FFFFFF" style="font-size:3px; font-family:Arial" x="70" y="285.5">Over 20.0 km</text><rect fill="red" height="2.6" width="2.6" x="65" y="287" /><text fill="#FFFFFF" style="font-size:3px; font-family:Arial" x="70" y="289.5">Over 40.0 km</text><text fill="#FFFFFF" style="font-size:4px; font-family:Arial" x="120" y="280">STATISTICS</text><text fill="#FFFFFF" style="font-size:3px; font-family:Arial" x="120" y="285">Number: 1</text><text fill="#FFFFFF" style="font-size:3px; font-family:Arial" x="120" y="290">Weekly: 1.0</text><text fill="#FFFFFF" style="font-size:3px; font-family:Arial" x="141" y="285">Total: 12.0 km</text><text fill="#FFFFFF" style="font-size:3px; font-family:Arial" x="141" y="290">Avg: 12.0 km</text><text fill="#FFFFFF" style="font-size:3px; font-family:Arial" x="167" y="285">Min: 12.0 km</text><text fill="#FFFFFF" style="font-size:3px; font-family:Arial" x="167" y="290">Max: 12.0 km</text><polyline fill="none" opacity="1" points="31.53792011263431,207.46166941069532 31.509414041880518,207.36686167924563 31.490409994730726,207.26678669693138 31.395389758923557,207.22464981476878 31.295618511358043,207.22464981476878 31.21960232272977,207.12984172691358 31.10082702798536,207.0613691303879 30.996304768603295,207.1193074861294 30.87752947388799,207.1509102031996 30.75875417914358,207.18778001975443 30.654231919761514,207.16144443870508 30.544958648621105,207.1509102031996 30.4071793066978,207.1509102031996 30.255146929441253,207.17197867246068 30.103114552184707,207.214115589828 29.965335210290505,207.25625247903008 29.841808903758647,207.18251290443732 29.675523491110653,207.14037596595153 29.56625021994114,207.08243762954226 29.404715819109697,207.07190338085275 29.2574344536406,207.00343072139367 29.119655111746397,206.9402251235806 28.96762273448985,206.93495798757795 28.806088333629305,206.95602652898378 28.64930494458531,206.88755374368702 28.573288755957037,206.70320356754019 28.516276614478556,206.64526482945075 28.430758402246283,206.48198264471284 28.326236142893322,206.39770780328035 28.24071793066105,206.28182971237038 28.150448706699535,206.23969217197373 28.050677459104918,206.1764858085844 27.89864508184837,206.14488260311555 27.855885975732235,206.02373683543556 27.822628893190995,205.9131252790503 27.680098539509345,205.9499958194101 27.613584374455968,205.7919790660526 27.594580327306176,205.64976364943504 27.46155199719942,205.62342742596957 27.34752771424246,205.544418689562 27.26676051382674,205.4180045053654 27.152736230869778,205.3073918862865 27.157487242657226,205.14410623676667 27.309519619942876,204.9966220607821 27.456800985411974,204.96501826389795 27.566074256552383,204.79119709787483 27.504311103286454,204.69111802730185 27.46155199719942,204.54363279163226 27.442547950020526,204.38561251337524 27.537568185827695,204.2539286456049 27.566074256552383,204.0959076411964 27.504311103286454,203.96949055245932 27.480556044349214,203.8009340398312 27.366531761421356,203.67978376800238 27.224001407710603,203.65344672157153 27.224001407710603,203.64817931096695 27.2430054548895,203.65871413174318 27.219250395923154,203.65871413174318 27.22875241949805,203.65344672157153 27.214499384135706,203.66924895074044 27.214499384135706,203.66924895074044 27.214499384135706,203.66398154146373 27.12423016014509,203.53229616629687 27.14798521908233,203.4111453781734 27.190744325169362,203.2952617977753 27.26676051382674,203.20571524881598 27.342776702455012,203.14777329642675 27.471054020774318,203.0634939978554 27.58032729194383,202.95814471619087 27.694351574900793,202.85279525846636 27.722857645596378,202.74744562467822 27.642090445180656,202.65789829752975 27.566074256552383,202.54728083541704 27.542319197615143,202.39979058396784 27.566074256552383,202.28390514430794 27.566074256552383,202.1574844216666 27.613584374455968,202.02052835269933 27.485307056136662,201.946782653853 27.452049973624526,201.87303686870655 27.395037832146045,201.7466153220339 27.456800985411974,201.57278528131792 27.504311103286454,201.446363132407 27.504311103286454,201.28306748144678 27.594580327306176,201.1250390293244 27.627837409818312,200.99334834988622 27.656343480543,200.86692503874656 27.623086398059968,200.7352338200035 27.627837409818312,200.6140776557222 27.594580327306176,200.50872428008734 27.589829315518728,200.36122925835298 27.684849551296793,200.2084661933477 27.699102586659137,200.07150588926015 27.656343480543,199.92400984427877 27.675347527721897,199.76597798447983 27.67059651593445,199.59741023056995 27.665845504147,199.4288420257726 27.17174027801957,198.6755473510566 27.0862220658164,198.65974386983362 27.06246700687916,198.55438722709005 27.02445891255047,198.47536962945742 27.00070385361323,198.42795902330545 26.96744677107199,198.34894126712243 26.905683617835166,198.26465555131654 26.820165405602893,198.22778051521527 26.763153264124412,198.18563759037352 26.701390110887587,198.10135165614338 26.606369875080418,198.01179772751857 26.5065986274858,197.9169757819982 26.435333450644976,197.8537610723797 26.33081119126291,197.88536843511247 26.2215379201225,197.9011721105344 26.112264648952987,197.92224367159724 26.01724441317492,197.8537610723797 25.969734295271337,197.74313517797054 25.912722153792856,197.6693844738038 25.79394685907755,197.6641165630499 25.69892662327038,197.64304491566872 25.708428646845277,197.61670534653967 25.732183705782518,197.6219732612517 25.69892662327038,197.62724117550897 25.679922576091485,197.64831282816522 25.670420552545693,197.64304491566872 25.670420552545693,197.65884865186672 25.67517156433314,197.63777700273204 25.69892662327038,197.61143743138018 25.684673587908037,197.58509784905254 25.622910434642108,197.4692035559201 25.603906387492316,197.38491666342088 25.55639626958873,197.31643348023135 25.523139187076595,197.29009377456168 25.44237198663177,197.23741433022224 25.36160478621605,197.2321463833723 25.290339609375224,197.20053869297408 25.266584550437983,197.21634254015225 25.209572408959502,197.21634254015225 25.128805208514677,197.25848611323818 25.06704205524875,197.30062965814795 24.98152384304558,197.2953617165731 24.934013725141995,197.34277317487795 24.843744501151377,197.40598839710583 24.78198134788545,197.44813184336817 24.734471229981864,197.4586677005318 24.653704029566143,197.48500733571927 24.56818581733387,197.5429544943836 24.463663557980908,197.57456201302193 24.368643322202843,197.67992029395464 24.278374098212225,197.77474259619703 24.154847791680368,197.78001049768136 24.08358261481044,197.77474259619703 23.979060355457477,197.76420679188232 23.96005630827858,197.74840308210696 23.964807320095133,197.73786727339757 23.95055428473279,197.74313517797054 23.94105226112879,197.77474259619703 23.865036072500516,197.70099192901034 23.79852190744714,197.6851882033843 23.713003695273073,197.73786727339757 23.65599155376549,197.6535807402397 23.54671828262508,197.69572402091217 23.470702093967702,197.59036576639483 23.408938940701773,197.52715072913998 23.356677811039845,197.49554318671653 23.3329227520735,197.49027526143618 23.27591061059502,197.40598839710583 23.199894421966746,197.37964872888915 23.199894421966746,197.38491666342088 23.185641386604402,197.36384492266006 23.176139363029506,197.29009377456168 23.199894421966746,197.20053869297408 23.161886327638058,197.13732326463287 23.114376209763577,197.06357185139132 23.08587013903889,196.98982035184235 23.0478620447102,196.91606876597507 23.009853950381512,196.80017324232904 22.99560091504827,196.62106155922447 22.919584726390895,196.54730954172555 22.881576632062206,196.45775340441105 22.81031145522138,196.39980524773637 22.777054372709244,196.299712851589 22.70578919586842,196.1943522628062 22.68203413693118,196.11006366492074 22.644026042573387,196.094259540263 22.620270983636146,196.11006366492074 22.644026042573387,196.11006366492074 22.629773007211043,196.10479562381806 22.644026042573387,196.10479562381806 22.64877705438994,196.10479562381806 22.686785148689523,196.03104300201085 22.691536160506075,196.02577495429068 22.620270983636146,196.03104300201085 22.629773007211043,196.04684714251562 22.620270983636146,196.06265127906954 22.6250219954527,196.05211518847864 22.6250219954527,196.04684714251562 22.629773007211043,196.0415790961124 22.629773007211043,196.0415790961124 22.644026042573387,196.03631104927626 180.90973077600938,92.02226478148805 180.81471054023132,92.0803093596769 180.81471054023132,92.0803093596769 180.81471054023132,92.0803093596769 180.7244413162407,92.13835388400548 23.090621150826337,196.98982035184235 23.138131268700818,197.1162514410753 23.185641386604402,197.20580664246881 23.176139363029506,197.33750523682102 23.1951434101793,197.4586677005318 23.27115959880757,197.5640261752451 23.309167693107156,197.67992029395464 23.313918704923708,197.8537610723797 23.3329227520735,198.0328692515759 23.347175787435845,198.20670905631414 23.380432869977085,198.33313770400127 23.385183881764533,198.5175123605186 23.36617983461474,198.6755473510566 23.37093084640219,198.77036815514657 23.25215555165778,198.8651888165441 23.0478620447102,198.88626005528204 22.914833714603446,198.9178669001376 22.76755234913435,198.97054493967516 22.596515924698906,199.03375852902536 22.4682386063796,199.08643647170538 22.354214323451743,199.13911437033312 22.240190040465677,199.19706000798396 22.111912722175475,199.25500559234206 22.078655639634235,199.3234866688108 22.050149568909546,199.3392899835926 22.031145521759754,199.3445577543025 21.96938236846472,199.40250320304767 21.869611120899208,199.42357426211674 21.7508358261548,199.45518083750358 21.65581559034763,199.52366169645393 21.60830547247315,199.57633922962123 21.546542319178116,199.67642642134524 21.423016012646258,199.6658909349644 21.313742741534952,199.65535544683007 21.19496744676144,199.68169416388264 21.076192152046133,199.6869619059762 20.976420904451516,199.6342844652645 20.867147633311106,199.65535544683007 20.79113144465373,199.67642642134524 20.70086222066311,199.72910382683767 20.596339961281046,199.75544251306928 20.50131972550298,199.78704892201858 20.4443075840245,199.8818680537479 20.430054548662156,199.98722247725527 20.396797466120915,200.05043504681453 20.35403836000478,200.07677359876834 20.311279253917746,200.08730901644958 20.211508006352233,200.10837984655882 20.106985746970167,200.07677359876834 19.98345944043831,200.10311213968816 19.912194263597485,200.13998607851318 19.935949322534725,200.20319849485168 19.92644729895983,200.29801700049939 19.89794122823514,200.35069388644843 19.878937181085348,200.3981030461473 19.864684145723004,200.4560475262333 19.826676051394315,200.56140098992182 19.707900756649906,200.58247166152069 19.603378497296944,200.62461298361814 19.527362308639567,200.65621895667573 19.427591061074054,200.6667542775067 19.41333802571171,200.62461298361814 19.370578919595573,200.62461298361814 19.34207284884178,200.5666686584991 19.327819813479437,200.56140098992182 19.361076896020677,200.49292125857028 19.36582790777902,200.52979496931584 19.304064754542196,200.56140098992182 19.308815766329644,200.66148661731495 19.304064754542196,200.85638975137772 19.384831954957917,200.99861598234202 19.384831954957917,201.11977140743693 19.251803624851163,201.18298284111006 19.152032377256546,201.362081558942 19.17578743622289,201.53064459318193 19.08551821220317,201.688672028391 19.009502023604,201.87303686870655 19.076016188657377,202.01526080564145 19.161534400860546,202.10480904574797 19.152032377256546,202.21015975358023 19.11402428295696,202.3523829298465 19.133028330135858,202.48933827779183 19.25655463663861,202.56835084315753 19.418089037499158,202.6262933281614 19.555868379364256,202.75271311055621 19.631884568021633,202.90547000934384 19.81242301603197,203.04769161683362 20.011965511192102,203.12670348233587 20.163997888477752,203.0950987480246 20.35878937182133,203.08456383306475 20.553580855194014,203.1530407488426 20.76737638571649,203.18991290345002 20.96691888087662,203.21098269639697 21.08094316383358,203.21098269639697 21.209220482123783,203.27419203298632 21.366003871225985,203.27945947483386 21.499032201303635,203.31633155550298 21.670068625709973,203.33213386919306 21.845856061961967,203.33213386919306 21.988386415643618,203.36900591904123 22.14992081647506,203.4111453781734 22.32570825269795,203.4269476680929 22.534752771432977,203.4216802385563 22.67253211332718,203.33740130619844 22.81031145522138,203.37427335297252 22.981347879656823,203.4111453781734 23.09537216258468,203.3005292378548 23.180890374816954,203.4216802385563 23.33767376386095,203.53756358658575 23.3329227520735,203.7271904238296 23.42319197609322,203.8641427848852 23.522963223658735,203.7903992428328 23.746260777756106,203.8378058154849 23.964807320095133,203.78513184367694 24.131092732714023,203.63764448843358 24.330635227874154,203.558633263332 24.477916593372356,203.67978376800238 24.667957064928487,203.7429926345285 24.886503607267514,203.7429926345285 25.019531937374268,203.67978376800238 25.195319373568054,203.57970293304243 25.38060883336584,203.5428310064308 25.49938412811025,203.47962193919375 25.656167517154245,203.57443551627875 25.798697870865,203.65871413174318 25.945979236334097,203.68505117596578 26.064754531078506,203.61130742440946 26.231039943697397,203.57970293304243 26.430582438857527,203.61657483808813 26.577863804326626,203.553365844793 26.70614112264593,203.5112264807358 26.843920464569237,203.47962193919375 27.010205877188127,203.553365844793 27.17649128983612,203.5902377652601 27.285764561005635,203.6271096641467 27.42829491465818,203.7219230193914 27.480556044349214,203.89047974329515 27.58507830373128,204.0326991285292 27.570825268368935,204.22232447640636 27.504311103286454,204.40141455903358 27.471054020774318,204.58050413289675 27.594580327306176,204.72798928230623 27.54707020940259,204.8807413947652 27.385535808542045,204.98082016431727 27.247756466676947,205.08089877501334 27.200246348773362,205.2494518655185 27.304768608126324,205.41273724220082 27.40453985572094,205.58655669464133 27.60883336266852,205.64976364943504 27.642090445180656,205.80251352860068 27.732359669200378,205.9131252790503 27.893894070060924,205.96579747295618 27.98891430583899,206.11854658646917 28.169452753820224,206.22389058706904 28.311983107530978,206.3450359701783 28.454513461183524,206.4661811205151 28.540031673415797,206.629463346173 28.658806968160206,206.75587510144396 28.79658631005441,206.91388943913626 29.01513285236433,206.93495798757795 29.200422312162118,206.97182793040702 29.37145873659756,207.05083487816955 29.561499208182795,207.09823899930052 29.71828259722679,207.14564308479385 29.89407003344968,207.2404511488785 30.069857469643466,207.25098536942096 30.23614288229146,207.18778001975443 30.421432342089247,207.16144443870508 30.61147281367448,207.1509102031996 30.773007214505924,207.16144443870508 30.929790603549918,207.10350612168259 31.062818933656672,207.05610200449155 31.205349287338322,207.0666362558477 31.338377617445076,207.17197867246068 31.47615695936838,207.19831424909717 31.55217314796755,207.31419065572481 31.594932254083687,207.47220359429775 31.699454513494857,207.60388074061484 31.803976772847818,207.70922225970935 31.879992961446987,207.7724270867002 31.951258138316916,207.75662588590058 31.96551117367926,207.67761982246884 32.02727432694519,207.69342104306634 32.098539503786014,207.79876241257443 32.19831075138063,207.92517182369556 32.307584022550145,208.03051280604268 32.464367411565036,208.01471166991905 32.51662854128517,207.97784233687707 32.51662854128517,207.97784233687707 32.57364068273455,207.98310938576833 32.57364068273455,207.97784233687707 32.61164877706324,207.98310938576833 32.62590181242558,207.96730823775943 32.63065282421303,207.96204118753303" stroke="#4DD2FF" stroke-dasharray="none" stroke-linecap="round" stroke-linejoin="round" stroke-width="0.5"><title>2026-03-14 12.0km</title><desc>9223370263378906807</desc></polyline></svg>