<?xml version="1.0" encoding="utf-8" ?>
<svg baseProfile="full" height="300mm" version="1.1" viewBox="0,0,200,300" width="200mm" xmlns="http://www.w3.org/2000/svg" xmlns:ev="http://www.w3.org/2001/xml-events" xmlns:xlink="http://www.w3.org/1999/xlink"><defs /><rect fill="#222222" height="300" width="200" x="0" y="0" /><text fill="#FFFFFF" style="font-size:12px; font-family:Arial; font-weight:bold;" x="10" y="20">Over 10km Runs</text><text fill="#FFFFFF" style="font-size:4px; font-family:Arial" x="10" y="280">Runner</text><text fill="#FFFFFF" style="font-size:9px; font-family:Arial" x="10" y="290">yihong0618</text><text fill="#FFFFFF" style="font-size:4px; font-family:Arial" x="65" y="280">SPECIAL TRACKS</text><rect fill="yellow" height="2.6" width="2.6" x="65" y="283" /><text fill="#FFFFFF" style="font-size:3px; font-family:Arial" x="70" y="285.5">Over 20.0 km</text><rect fill="red" height="2.6" width="2.6" x="65" y="287" /><text fill="#FFFFFF" style="font-size:3px; font-family:Arial" x="70" y="289.5">Over 40.0 km</text><text fill="#FFFFFF" style="font-size:4px; font-family:Arial" x="120" y="280">STATISTICS</text><text fill="#FFFFFF" style="font-size:3px; font-family:Arial" x="120" y="285">Number: 1</text><text fill="#FFFFFF" style="font-size:3px; font-family:Arial" x="120" y="290">Weekly: 1.0</text><text fill="#FFFFFF" style="font-size:3px; font-family:Arial" x="141" y="285">Total: 12.0 km</text><text fill="#FFFFFF" style="font-size:3px; font-family:Arial" x="141" y="290">Avg: 12.0 km</text><text fill="#FFFFFF" style="font-size:3px; font-family:Arial" x="167" y="285">Min: 12.0 km</text><text fill="#FFFFFF" style="font-size:3px; font-family:Arial" x="167" y="290">Max: 12.0 km</text><polyline fill="none" opacity="1" points="28.421256378671387,206.8849136209501 28.316734119318426,206.8217074581953 28.24071793066105,206.7216309042451 28.18845680099912,206.68476055485007 28.083934541617054,206.64789018391093 27.969910258660093,206.6162869916443 27.884392046456924,206.53727894169788 27.86538799930713,206.44773636538594 27.813126869645203,206.36346088329083 27.694351574900793,206.39506420228645 27.594580327306176,206.29498697114104 27.623086398059968,206.14223720683003 27.532817174011143,206.0948320323114 27.423543902870733,206.05796131637908 27.333274678880116,205.96841805933946 27.276262537401635,205.8736074132903 27.17649128983612,205.7840638944217 27.152736230869778,205.64184745601233 27.185993313411018,205.47856151999804 27.361780749604804,205.43115584646512 27.49005806792411,205.3942847424005 27.566074256552383,205.2257308492117 27.518564138677903,205.1414537336459 27.447298961837078,205.0361071807456 27.46155199719942,204.9096910848857 27.49480907971156,204.772740028322 27.542319197615143,204.64105603951975 27.570825268368935,204.52517390183857 27.504311103286454,204.41982631910287 27.49480907971156,204.28287419836124 27.399788843933493,204.16699140226774 27.285764561005635,204.0932476938433 27.22875241949805,204.09851510444787 27.238254443072947,204.09851510444787 27.2430054548895,204.10378251461952 27.214499384135706,204.10378251461952 27.22875241949805,204.10904992434007 27.219250395923154,204.10378251461952 27.20974837234826,204.10904992434007 27.214499384135706,204.11431733361678 27.219250395923154,204.10904992434007 27.12423016014509,203.9826319694621 27.138483195507433,203.86674862143263 27.16698926623212,203.7877371256509 27.2335034312855,203.6929231999893 27.295266584551428,203.62444638720626 27.35227872602991,203.566504410599 27.471054020774318,203.50329492083256 27.570825268368935,203.41901550254988 27.675347527721897,203.31893354697604 27.72760865741293,203.23992136455854 27.713355622050585,203.1503741047418 27.59933133906452,203.07662920704024 27.566074256552383,202.97654670785414 27.537568185827695,202.84485896684419 27.566074256552383,202.75004362296386 27.570825268368935,202.6604956672345 27.60883336266852,202.52353972415222 27.566074256552383,202.4234563467944 27.480556044349214,202.37604837575054 27.447298961837078,202.3233728105297 27.3807847967837,202.21802154803663 27.442547950020526,202.03892399769757 27.49956009152811,201.95991021075315 27.49005806792411,201.82822034575292 27.518564138677903,201.68599498250478 27.60408235088107,201.57010741220074 27.627837409818312,201.44368436521836 27.63733943339321,201.33306399109279 27.642090445180656,201.22244342282647 27.623086398059968,201.11709032014915 27.60883336266852,201.0222723771658 27.589829315518728,200.93272196671387 27.589829315518728,200.7904945827031 27.680098539509345,200.66933766909642 27.70385359847569,200.5481805225645 27.675347527721897,200.4270231431292 27.67059651593445,200.30586553078683 27.67059651593445,200.1689044711493 27.67059651593445,200.0161398611599 27.67059651593445,199.87391040864895 27.181242301594466,199.11534790729638 27.11947914835764,199.11008008023055 27.06246700687916,199.05740178528868 27.043462959700264,198.9731164217592 27.019707900763024,198.8940987910828 27.00070385361323,198.8730274061818 26.96744677107199,198.79400964999877 26.905683617835166,198.75186680618935 26.858173499902477,198.69392034992416 26.786908323090756,198.6359738403953 26.753651240549516,198.6201702376311 26.696639099071035,198.53588428932198 26.62537392223021,198.46740187329488 26.511349639302352,198.37257994363608 26.440084462432424,198.3146331386124 26.39257434452884,198.29356155993446 26.302305120567326,198.3304368179888 26.202533872972708,198.35150838434492 26.10751363716554,198.35677627482437 26.01724441317492,198.30936524460049 25.98873834242113,198.21981097907337 25.950730248121545,198.15132821955194 25.86996304767672,198.10391703474306 25.746436741144862,198.1407924037885 25.69892662327038,198.08811329854507 25.71317965866183,198.05650581425652 25.741685729357414,198.06177372941602 25.732183705782518,198.05650581425652 25.694175611482933,198.08811329854507 25.679922576091485,198.0723095583853 25.684673587908037,198.08284538560838 25.670420552545693,198.10391703474306 25.67517156433314,198.08811329854507 25.69892662327038,198.06177372941602 25.70367763505783,198.06704164412804 25.637163470004452,197.96695118936987 25.618159422825556,197.89846815503915 25.599155375675764,197.81944917680448 25.56114728137618,197.77203774228474 25.527890198864043,197.7562339228498 25.456625021994114,197.7140903849977 25.40911490409053,197.6666788711991 25.342600739037152,197.67721476624865 25.290339609375224,197.64560707585042 25.26183353862143,197.65087502534516 25.233327467896743,197.6561429744106 25.143058243906125,197.6930186054924 25.086046102427645,197.73516215743803 25.033784972736612,197.72462627210552 24.97677283125813,197.7562339228498 24.915009677992202,197.8036453692548 24.848495512938825,197.84578884721486 24.80098539503524,197.88793229699877 24.75347527716076,197.89320022624452 24.69171212389483,197.93534364431252 24.644202005991247,197.94061156959287 24.558683793788077,197.99855871858017 24.45891254619346,198.0301662319289 24.37339433399029,198.11445285668015 24.297378145332914,198.19873936867225 24.211859933129745,198.2250788805577 24.140594756318023,198.20927517475866 24.045574520510854,198.2250788805577 23.96955833188258,198.20927517475866 23.96005630827858,198.1934714649833 23.964807320095133,198.1829356562739 23.964807320095133,198.2040072719319 23.96005630827858,198.1934714649833 23.9125461904041,198.1882035608469 23.85078303713817,198.13552449523922 23.79377089565969,198.13025658626066 23.722505718818866,198.1882035608469 23.670244589156937,198.10918494592624 23.589477388712112,198.12498867683098 23.518212211871287,198.09864912311605 23.44219602321391,198.00382663856362 23.38993489355198,197.97748703420075 23.356677811039845,197.94061156959287 23.342424775648396,197.93534364431252 23.304416681348812,197.86686057562474 23.24740453987033,197.81944917680448 23.19039239839185,197.85105677998217 23.1951434101793,197.83525298037785 23.185641386604402,197.8089133055364 23.176139363029506,197.74043009944944 23.199894421966746,197.6666788711991 23.199894421966746,197.59819551051987 23.13338025691337,197.5507839095444 23.104874186159577,197.4875683860737 23.08587013903889,197.4348887347187 23.05261305649765,197.36640512212398 23.019355973956408,197.27158153565688 23.005102938594064,197.18729378344506 22.96234383250703,197.02925394414342 22.895829667453654,196.96076989067296 22.857821573124966,196.90808979888243 22.81031145522138,196.83960561372078 22.79130740807159,196.75531728363785 22.724793243018212,196.67102884080668 22.677283125114627,196.5972763608297 22.663030089752283,196.53932792313935 22.629773007211043,196.54459596514425 22.620270983636146,196.5551320477971 22.644026042573387,196.5551320477971 22.63452401899849,196.54459596514425 22.644026042573387,196.54459596514425 22.644026042573387,196.54459596514425 22.65827907793573,196.54459596514425 22.70578919586842,196.46030724041702 22.691536160506075,196.47084333716703 22.629773007211043,196.4761113848872 22.629773007211043,196.49191552539196 22.620270983636146,196.49191552539196 22.620270983636146,196.50245161687053 22.6250219954527,196.49718357135498 22.6250219954527,196.49191552539196 22.629773007211043,196.48664747898874 22.629773007211043,196.48664747898874 22.639275030815043,196.48664747898874 181.0,92.40928853232617 180.90973077600938,92.46733316436439 180.81471054023132,92.52537774255325 180.81471054023132,92.52537774255325 180.81471054023132,92.52537774255325 180.7244413162407,92.58342226688183 180.62942108043353,92.64146673735013 23.11912722152192,197.47703245931189 23.161886327638058,197.57712369227738 23.180890374816954,197.67194681894034 23.171388351242058,197.77203774228474 23.19039239839185,197.89320022624452 23.233151504478883,197.97221911201632 23.285412634169916,198.0723095583853 23.299665669561364,198.2040072719319 23.313918704923708,198.30936524460049 23.3329227520735,198.48320551437791 23.36142882279819,198.6359738403953 23.380432869977085,198.75186680618935 23.38993489355198,198.8730274061818 23.380432869977085,199.03106262128495 23.380432869977085,199.1416870360481 23.37093084640219,199.22597217411385 23.25215555165778,199.31025719942045 23.081119127222337,199.31025719942045 22.95759282069048,199.35239966982044 22.838817525975173,199.38400650410404 22.710540207655868,199.44195232582933 22.57751187752001,199.48936250394763 22.458736582804704,199.53150485458173 22.373218370601535,199.56837938825265 22.273447123006918,199.62105725605943 22.168924863624852,199.6737350798503 22.09290867499658,199.7264128595998 22.050149568909546,199.78435836646895 22.050149568909546,199.78435836646895 22.031145521759754,199.78962613717886 21.983635403827066,199.84757158592402 21.91237022698624,199.86337488088975 21.803096955874935,199.8686426449931 21.727080767217558,199.92132026183026 21.636811543197837,199.96873007933027 21.60830547247315,200.02140761249757 21.546542319178116,200.12149480422158 21.446771071641706,200.11622706125854 21.375505894771777,200.10042382970641 21.25197958823992,200.12676254675898 21.161710364249302,200.13729803049864 21.066690128471237,200.12149480422158 20.981171916238964,200.07935284814084 20.88140066867345,200.08462059418525 20.805384480045177,200.12149480422158 20.753123350354144,200.13729803049864 20.67710716172587,200.18997542277066 20.582086925947806,200.20051089594563 20.496568713715533,200.23738503817003 20.449058595811948,200.31640098458956 20.42055252508726,200.4059522707612 20.439556572237052,200.4797002932428 20.377793419000227,200.50077114095984 20.344536336429883,200.53237739932592 20.306528242130298,200.53237739932592 20.21625901813968,200.55344822943516 20.125989794149064,200.53237739932592 20.030969558341894,200.53764510750625 19.92169628717238,200.57451905250127 19.92169628717238,200.60085757141496 19.935949322534725,200.66933766909642 19.92644729895983,200.74835307394824 19.90269224002259,200.77995920815738 19.90269224002259,200.81683301136218 19.883688192843692,200.8695098356693 19.864684145723004,200.94852498958062 19.81242301603197,201.03807537757166 19.69364772128756,201.02754004439703 19.603378497296944,201.06968136649448 19.54636635578936,201.0802166926078 19.47035016719019,201.13816095477523 19.427591061074054,201.10128733955207 19.38958296677447,201.05914603859856 19.36582790777902,201.05914603859856 19.34207284884178,201.01173704137545 19.308815766329644,201.00646937279816 19.35632588423323,200.94325731573917 19.38008094317047,200.94852498958062 19.34207284884178,200.99593403435574 19.2945627309673,201.00646937279816 19.31831778990454,201.11709032014915 19.299313742725644,201.29092284512808 19.361076896020677,201.4173461985156 19.427591061074054,201.53323404969342 19.31831778990454,201.58591027524017 19.223297554126475,201.68599498250478 19.152032377256546,201.83875554507904 19.190040471585235,201.98098056362142 19.09502023580717,202.12320526124677 19.004751011787448,202.26542963794782 19.009502023604,202.449794093096 19.123526306531858,202.4866669194089 19.161534400860546,202.57621512208425 19.147281365498202,202.66576319754313 19.11877529474441,202.79218379341182 19.10927327114041,202.93440666066817 19.20429350694758,202.99234921829338 19.35157487244578,203.02395422727204 19.46559915537364,203.09243169236288 19.570121414755704,203.2346538822021 19.63663557980908,203.3558058648814 19.79341896888218,203.48222507682294 19.964455393288517,203.5612369555456 20.106985746970167,203.60864403522282 20.259018124226714,203.50856238073175 20.42055252508726,203.55596950004838 20.582086925947806,203.59810913171896 20.748372338537592,203.63498128632637 20.93366179833538,203.65078363169232 21.009677986992756,203.66658597310743 21.156959352461854,203.71399297356402 21.270983635418816,203.71399297356402 21.39926095373812,203.7245278577102 21.527538272057427,203.76139993837933 21.651064578589285,203.7772022520694 21.803096955874935,203.77193481462018 21.931374274165137,203.81934173584887 22.06440260427189,203.82987660239087 22.202181946166093,203.86674862143263 22.354214323451743,203.8772834800693 22.53000175964553,203.86674862143263 22.64877705438994,203.79300456178316 22.75805032553035,203.79300456178316 22.900580679212,203.84041146719028 23.024106985743856,203.82460916934724 23.123878233338473,203.7508650603886 23.19039239839185,203.86674862143263 23.328171740286052,203.9615622856545 23.318669716682052,204.11958474246785 23.404187928914325,204.2143980264118 23.45169804681791,204.30921116776153 23.598979412287008,204.2091306254879 23.770015836693347,204.28287419836124 23.96005630827858,204.23020022655328 24.102586661989335,204.10378251461952 24.23561499209609,204.00370164620836 24.406651416502427,204.07217804702304 24.52067569945939,204.1617239973857 24.705965159257175,204.18279361427267 24.900756642629858,204.18279361427267 25.00527890198282,204.12485215087872 25.147809255693574,204.06164322096447 25.304592644737568,204.0195038991551 25.432869963056874,203.92995774676456 25.53739222243894,203.95102744112592 25.679922576091485,204.02477131591877 25.79394685907755,204.10904992434007 25.917473165609408,204.13011955884213 26.02199542496237,204.0879802828058 26.145521731494227,204.04057356357953 26.311807144113118,204.02477131591877 26.44958648600732,204.04057356357953 26.582614816114074,203.99316680871198 26.691888087254483,203.95629486361213 26.786908323090756,203.92995774676456 26.948442723951302,203.96682970727124 27.071969030454056,204.02477131591877 27.185993313411018,204.0563758072858 27.304768608126324,204.08271287130992 27.418792891083285,204.1617239973857 27.480556044349214,204.30921116776153 27.566074256552383,204.42509370242624 27.54707020940259,204.57784762719893 27.54707020940259,204.73586853918096 27.518564138677903,204.8886217109357 27.466303008957766,205.0361071807456 27.58507830373128,205.14672105666614 27.58032729194383,205.28367130083643 27.466303008957766,205.3942847424005 27.32377265530522,205.43642314527824 27.22875241949805,205.57864004707153 27.200246348773362,205.72085662805694 27.304768608126324,205.85780562507716 27.3807847967837,206.00528882764775 27.532817174011143,206.07376305440994 27.656343480543,206.16857339948547 27.623086398059968,206.31078864977098 27.779869787103962,206.35819366192663 27.893894070060924,206.41086585583253 27.9604082351143,206.54781335407097 28.11719162412919,206.64262298630274 28.26922400141484,206.72689809524672 28.378497272584355,206.8375090048212 28.478268520149868,206.9481197203495 28.563786732353037,207.08506605166986 28.658806968160206,207.2009434843203 28.772831251117168,207.34842354515422 28.94386767555261,207.3800263704543 29.105402076384053,207.3800263704543 29.247932430065703,207.42743057870393 29.414217842684593,207.50643751326425 29.571001231728587,207.54857450455893 29.699278550047893,207.58017722953082" stroke="#4DD2FF" stroke-dasharray="none" stroke-linecap="round" stroke-linejoin="round" stroke-width="0.5"><title>2026-03-14 12.0km</title><desc>9223370263378906807</desc></polyline></svg>