<?xml version="1.0" encoding="utf-8" ?>
<svg baseProfile="full" height="300mm" version="1.1" viewBox="0,0,200,300" width="200mm" xmlns="http://www.w3.org/2000/svg" xmlns:ev="http://www.w3.org/2001/xml-events" xmlns:xlink="http://www.w3.org/1999/xlink"><defs /><rect fill="#222222" height="300" width="200" x="0" y="0" /><text fill="#FFFFFF" style="font-size:12px; font-family:Arial; font-weight:bold;" x="10" y="20">Over 10km Runs</text><text fill="#FFFFFF" style="font-size:4px; font-family:Arial" x="10" y="280">Runner</text><text fill="#FFFFFF" style="font-size:9px; font-family:Arial" x="10" y="290">yihong0618</text><text fill="#FFFFFF" style="font-size:4px; font-family:Arial" x="65" y="280">SPECIAL TRACKS</text><rect fill="yellow" height="2.6" width="2.6" x="65" y="283" /><text fill="#FFFFFF" style="font-size:3px; font-family:Arial" x="70" y="285.5">Over 20.0 km</text><rect fill="red" height="2.6" width="2.6" x="65" y="287" /><text fill="#FFFFFF" style="font-size:3px; font-family:Arial" x="70" y="289.5">Over 40.0 km</text><text fill="#FFFFFF" style="font-size:4px; font-family:Arial" x="120" y="280">STATISTICS</text><text fill="#FFFFFF" style="font-size:3px; font-family:Arial" x="120" y="285">Number: 1</text><text fill="#FFFFFF" style="font-size:3px; font-family:Arial" x="120" y="290">Weekly: 1.0</text><text fill="#FFFFFF" style="font-size:3px; font-family:Arial" x="141" y="285">Total: 12.0 km</text><text fill="#FFFFFF" style="font-size:3px; font-family:Arial" x="141" y="290">Avg: 12.0 km</text><text fill="#FFFFFF" style="font-size:3px; font-family:Arial" x="167" y="285">Min: 12.0 km</text><text fill="#FFFFFF" style="font-size:3px; font-family:Arial" x="167" y="290">Max: 12.0 km</text><polyline fill="none" opacity="1" points="29.271687489002943,207.38792729820125 29.148161182471085,207.32998883596883 29.00563082881854,207.32472170038818 28.891606545832474,207.34579024004415 28.64930494458531,207.2720503204946 28.635051909222966,207.20884460654634 28.573288755957037,207.07189867560737 28.502023579116212,207.01922708450002 28.430758402246283,206.86647922152042 28.345240190043114,206.79273874142746 28.250219954235945,206.6715934797503 28.202709836361464,206.63472313652528 28.09343656519195,206.59785277173796 27.993665317626437,206.5504479853298 27.889143058244372,206.48197434203394 27.86538799930713,206.38716455931717 27.80837585782865,206.3081562981497 27.684849551296793,206.33449239621768 27.60408235088107,206.21861348248422 27.60883336266852,206.06059643871777 27.509062115073903,206.02372573818866 27.395037832146045,205.98685501609725 27.31427063170122,205.87624272043104 27.238254443072947,205.7814320268444 27.157487242657226,205.665552096616 27.162238254473777,205.5233355275086 27.281013549189083,205.38638593554424 27.42829491465818,205.36004944143133 27.55182122119004,205.22836680590262 27.54707020940259,205.10195121702418 27.433045926474733,205.01767401695543 27.475805032561766,204.88599066629104 27.471054020774318,204.7332376349368 27.542319197615143,204.61735577803847 27.566074256552383,204.48040421800397 27.52331515046535,204.36452189635747 27.49480907971156,204.22230239229248 27.399788843933493,204.10641959619898 27.281013549189083,204.03267588777453 27.22875241949805,204.0379432983791 27.247756466676947,204.0379432983791 27.2335034312855,204.04321070855076 27.219250395923154,204.04321070855076 27.22875241949805,204.0379432983791 27.219250395923154,204.04321070855076 27.214499384135706,204.0484781182713 27.214499384135706,204.04321070855076 27.162238254473777,204.0010714148957 27.133732183719985,203.86411851600133 27.152736230869778,203.7587699297801 27.200246348773362,203.66395605164143 27.271511525614187,203.58494437760965 27.338025690667564,203.5375373256502 27.442547950020526,203.4585254931444 27.55182122119004,203.37424609598747 27.665845504147,203.26362921622058 27.72760865741293,203.19515200289243 27.71810663380893,203.1003372770101 27.618335386243416,203.02659239162676 27.566074256552383,202.91597490178538 27.542319197615143,202.78428716077542 27.566074256552383,202.6789367698766 27.566074256552383,202.58412126752228 27.613584374455968,202.44189774658298 27.52331515046535,202.34708188767036 27.480556044349214,202.30494146014826 27.414041879295837,202.23646320535045 27.409290867537493,202.07843617954495 27.46155199719942,201.9572818581255 27.504311103286454,201.83085970921456 27.504311103286454,201.6991697011399 27.561323244764935,201.55167656545018 27.623086398059968,201.44632411434213 27.627837409818312,201.30936566463788 27.656343480543,201.18820986490755 27.618335386243416,201.08812446336378 27.613584374455968,200.9775035715029 27.594580327306176,200.88795318351185 27.58507830373128,200.75099352044344 27.67059651593445,200.61403355975926 27.70385359847569,200.4928764233664 27.675347527721897,200.36645133706043 27.67059651593445,200.23475826915455 27.665845504147,200.09779718660866 27.675347527721897,199.92922929180713 27.67059651593445,199.8133386025802 27.17174027801957,199.06004392786417 27.0957240894204,199.03897261869497 27.071969030454056,198.97049081521618 27.014956888975576,198.8756697337085 27.00070385361323,198.83879483015335 26.986450818250887,198.77558065954872 26.953193735709647,198.7018307137114 26.891430582443718,198.64388426715595 26.820165405602893,198.61227709202285 26.763153264124412,198.5701341671811 26.71089213443338,198.49638398090246 26.644377969380002,198.43316946681807 26.535104698239593,198.33834757678414 26.463839521398768,198.24352554407596 26.40207636813284,198.24352554407596 26.292803096963326,198.26986501192005 26.202533872972708,198.29093657827616 26.10751363716554,198.2962044687556 26.01724441317492,198.24352554407596 25.979236318846233,198.1487033686899 25.931726200971752,198.0696847801919 25.84145697695203,198.04861313985748 25.732183705782518,198.0696847801919 25.708428646845277,198.01700566615546 25.69892662327038,197.99593400818776 25.71317965866183,198.00646983805927 25.69892662327038,198.01173775231655 25.689424599695485,198.0275414924763 25.670420552545693,198.02227357953961 25.689424599695485,198.02227357953961 25.694175611482933,198.0275414924763 25.684673587908037,198.02227357953961 25.69892662327038,198.01173775231655 25.656167517154245,197.94852275205267 25.627661446429556,197.84843220525363 25.603906387492316,197.77994910794223 25.565898293163627,197.71146593621597 25.532641210622387,197.69566211678102 25.46612704556901,197.65878652269384 25.40911490409053,197.60610706513035 25.342600739037152,197.6166429601799 25.290339609375224,197.58503526978166 25.26183353862143,197.58503526978166 25.209572408959502,197.60083911695983 25.133556220302125,197.63771474495297 25.071793067036197,197.67985829338068 25.01478092558682,197.66405446603676 24.967270807683235,197.70619799684573 24.881752595450962,197.75360943531996 24.824740454001585,197.80628876955598 24.777230336098,197.8378963489704 24.72021819461952,197.85370013272768 24.653704029566143,197.86950391252685 24.582438852725318,197.91691522813198 24.4921696287347,197.96432650804854 24.392398381140083,198.0328094049728 24.325884216086706,198.11709594518106 24.226112968521193,198.16450707448894 24.150096779863816,198.1592391730046 24.0598275558732,198.1539712710619 23.97430934367003,198.1487033686899 23.96005630827858,198.13289965891454 23.964807320095133,198.12236385020515 23.964807320095133,198.14343546586315 23.955305296491133,198.14343546586315 23.903044166829204,198.12236385020515 23.836530001746723,198.0696847801919 23.789019883872243,198.07495268917046 23.698750659881625,198.10129222747128 23.65599155376549,198.0328094049728 23.55622030617087,198.08548850581792 23.484955129330046,197.99593400818776 23.42794298788067,197.92218314987986 23.36142882279819,197.885307688357 23.347175787435845,197.89057561274967 23.323420728498604,197.84316427733938 23.266408587020123,197.77468117430908 23.1951434101793,197.76414530569673 23.199894421966746,197.76941324022846 23.19039239839185,197.75360943531996 23.176139363029506,197.69566211678102 23.1951434101793,197.61137501287158 23.204645433754195,197.54289165791852 23.13338025691337,197.49021210347564 23.104874186159577,197.42699658000492 23.07161710364744,197.3690489610999 23.043111032922752,197.2952973690517 23.009853950381512,197.18993780210076 22.99560091504827,197.02136212854384 22.93383776175324,196.95287813233153 22.891078655637102,196.8738580442041 22.829315502371173,196.81590991659687 22.800809431646485,196.75269371662216 22.76755234913435,196.65260127025613 22.691536160506075,196.56831277103265 22.68203413693118,196.49456024172832 22.663030089752283,196.48929220062564 22.63452401899849,196.49456024172832 22.64877705438994,196.49456024172832 22.64877705438994,196.48929220062564 22.629773007211043,196.4840241590755 22.639275030815043,196.4840241590755 22.65827907793573,196.48929220062564 22.70578919586842,196.39973543434826 22.691536160506075,196.41027153109826 22.629773007211043,196.41553957881843 22.629773007211043,196.42607567291998 22.620270983636146,196.4313437193232 22.620270983636146,196.44187981080177 22.6250219954527,196.4313437193232 22.6250219954527,196.4313437193232 22.629773007211043,196.42607567291998 22.629773007211043,196.42607567291998 22.639275030815043,196.42080762608384 180.90973077600938,92.40676135829563 180.81471054023132,92.46480593648448 180.81471054023132,92.46480593648448 180.81471054023132,92.46480593648448 180.7244413162407,92.52285046081306 180.62942108043353,92.58089493128136 23.09537216258468,197.3795848957634 23.138131268700818,197.50074801788287 23.185641386604402,197.58503526978166 23.16663733945461,197.69039417609747 23.180890374816954,197.81155670057342 23.228400492691435,197.9063793833011 23.280661622382468,197.99593400818776 23.299665669561364,198.14343546586315 23.313918704923708,198.25406133254364 23.33767376386095,198.43843734541588 23.347175787435845,198.59120563312172 23.380432869977085,198.7070985698556 23.385183881764533,198.84406267483064 23.37093084640219,199.00736564171893 23.380432869977085,199.11272216997168 23.347175787435845,199.20754289480828 23.176139363029506,199.244417582584 23.028857997560408,199.28129224879376 22.900580679212,199.29709567057216 22.772303360921796,199.35504151648274 22.629773007211043,199.41825510583294 22.50149568892084,199.4603974634847 22.387471405934775,199.49727200331836 22.306704205548158,199.56575323434663 22.18792891080375,199.60262771253838 22.09290867499658,199.66584105353104 22.06440260427189,199.7132510176598 22.050149568909546,199.72378656040019 22.031145521759754,199.7290543311101 21.983635403827066,199.78699977985525 21.902868203411344,199.80280307482099 21.788843920483487,199.8133386025802 21.71282773182611,199.87128397382912 21.62730951962294,199.91869378340925 21.594052437110804,199.98190680737753 21.532289283844875,200.06092299815282 21.423016012646258,200.050387511772 21.337497800472192,200.03985202363765 21.218722505727783,200.07145848278378 21.11420024637482,200.07672622442988 21.0239310223551,200.03985202363765 20.928910786577035,200.0240487881165 20.829139538982417,200.05565525518978 20.77212739753304,200.06619074069022 20.691360197088216,200.11360040364525 20.601090973068494,200.1346713535131 20.50607073729043,200.1662777650963 20.458560619415948,200.24529372471807 20.425303536874708,200.34011274549994 20.439556572237052,200.40859306068523 20.38254443075857,200.44019933489108 20.344536336429883,200.47180559325716 20.297026218555402,200.47180559325716 20.202005982777337,200.4928764233664 20.116487770545064,200.46653788464027 19.997712475829758,200.48760871649574 19.90744325183914,200.51921495109127 19.92644729895983,200.55608887140988 19.93119831077638,200.62983664734202 19.92644729895983,200.69304895801906 19.893190216447692,200.74045814942656 19.888439204660244,200.793134986925 19.864684145723004,200.84054410304088 19.831427063181764,200.93536222828698 19.731655815587146,200.9775035715029 19.646137603383977,200.98803890290583 19.584374450118048,201.01964488653903 19.49410522612743,201.07232149070478 19.427591061074054,201.04598319412253 19.394333978532813,200.99330656793973 19.370578919595573,201.00384189669785 19.34207284884178,200.9511652353067 19.313566778117092,200.9511652353067 19.35632588423323,200.8826855096704 19.38008094317047,200.88795318351185 19.332570825266885,200.94062989773374 19.26605666024261,200.95643290341832 19.327819813479437,201.09339212004488 19.308815766329644,201.26722454332776 19.384831954957917,201.3831125591496 19.38958296677447,201.49900036189865 19.26130564842606,201.54640894706608 19.17578743622289,201.69390209509947 19.147281365498202,201.8677328621743 19.161534400860546,201.98888735571745 19.03800809432869,202.14691460603717 19.004751011787448,202.29440634886123 19.08551821220317,202.39975738244902 19.161534400860546,202.48930562255555 19.142530353710754,202.58412126752228 19.11877529474441,202.70000686214553 19.099771247594617,202.85803232963372 19.199542495189235,202.92124240569683 19.327819813479437,202.96338242120328 19.460848143615294,203.03185988629411 19.570121414755704,203.17408207613335 19.63663557980908,203.3005015310482 19.802920992457075,203.42692073242506 19.988210452225758,203.50066514947684 20.125989794149064,203.527002420371 20.306528242130298,203.44799057466298 20.458560619415948,203.51646751332737 20.64385007918463,203.55333968026025 20.810135491832625,203.58494437760965 20.981171916238964,203.59547927320455 21.090445187408477,203.60074672033807 21.19496744676144,203.66395605164143 21.33274678865564,203.66922349306697 21.465775118762394,203.68502581466237 21.6130564842897,203.71663044600064 21.7603378497588,203.7060955706511 21.907619215227896,203.7377001914174 22.026394509943202,203.7587699297801 22.168924863624852,203.79564195498097 22.32570825269795,203.81144424490049 22.515748724283185,203.81144424490049 22.644026042573387,203.7377001914174 22.75805032553035,203.7324327557144 22.900580679212,203.7798396611215 23.028857997560408,203.76403736327848 23.128629245155025,203.70082813231056 23.209396445541643,203.80617681536387 23.342424775648396,203.92732758323837 23.3329227520735,204.10115219131694 23.408938940701773,204.20123280884582 23.480204117571702,204.20123280884582 23.670244589156937,204.18543061663877 23.85078303713817,204.17489581964037 24.050325532298302,204.11168700063718 24.178602850617608,203.98000175751076 24.354390286811395,203.96419950985 24.477916593372356,204.06428034480996 24.653704029566143,204.1222218082039 24.862748548330273,204.1222218082039 24.972021819470683,204.0748151602893 25.133556220302125,204.01160624095428 25.28558859755867,203.96419950985 25.428118951269425,203.87465336494643 25.527890198864043,203.88518821213802 25.679922576091485,203.96419950985 25.798697870865,204.04321070855076 25.926975189184304,204.06954775277336 26.036248460324714,204.01687365330872 26.17402780224802,203.96946692617348 26.34031321486691,203.97473434206768 26.487594580336008,203.95893209308633 26.62537392223021,203.92206016339333 26.725145169824827,203.88518821213802 26.85342248811503,203.8693859406958 27.00545486540068,203.93786242160058 27.14798521908233,203.96946692617348 27.238254443072947,204.0063388281378 27.376033784996253,204.05374552754802 27.480556044349214,204.1801632183524 27.518564138677903,204.343452360441 27.566074256552383,204.48040421800397 27.566074256552383,204.64369258241277 27.509062115073903,204.79644583073605 27.471054020774318,204.949198708935 27.566074256552383,205.07561460410943 27.58032729194383,205.22309949476767 27.466303008957766,205.33371293633172 27.32377265530522,205.37585133920948 27.22875241949805,205.52860281357425 27.20974837234826,205.68135391781834 27.319021643488668,205.81830286906916 27.40453985572094,205.9710532714489 27.58032729194383,206.02372573818866 27.651592468784656,206.1554067124889 27.67059651593445,206.28708741179435 27.841632940340787,206.29762185585787 27.908147105423268,206.4293022581296 28.036424423742574,206.53464638194419 28.202709836361464,206.6241887487813 28.321485131105874,206.74006691712566 28.44976244942518,206.84541052172062 28.51152560269111,206.99815843575925 28.644553932797862,207.10350160914822 28.734823156817583,207.26678318007907 28.91061059301137,207.31945456438552 29.072144993871916,207.32472170038818 29.243181418278255,207.36159164013952 29.404715819109697,207.44059858129913 29.571001231728587,207.48800269849016 29.71828259722679,207.5248725427591 29.865563962695887,207.59861216663558 30.00809431640664,207.65128327373895 30.169628717238083,207.57754371146802 30.312159070919733,207.5670094812449 30.487946507142624,207.54594101551265 30.658982931578066,207.53540678000718 30.787260249868268,207.54067389799093 30.929790603549918,207.48800269849016" stroke="#4DD2FF" stroke-dasharray="none" stroke-linecap="round" stroke-linejoin="round" stroke-width="0.5"><title>2026-03-14 12.0km</title><desc>9223370263378906807</desc></polyline></svg>