<?xml version="1.0" encoding="utf-8" ?>
<svg baseProfile="full" height="300mm" version="1.1" viewBox="0,0,200,300" width="200mm" xmlns="http://www.w3.org/2000/svg" xmlns:ev="http://www.w3.org/2001/xml-events" xmlns:xlink="http://www.w3.org/1999/xlink"><defs /><rect fill="#222222" height="300" width="200" x="0" y="0" /><text fill="#FFFFFF" style="font-size:12px; font-family:Arial; font-weight:bold;" x="10" y="20">Over 10km Runs</text><text fill="#FFFFFF" style="font-size:4px; font-family:Arial" x="10" y="280">Runner</text><text fill="#FFFFFF" style="font-size:9px; font-family:Arial" x="10" y="290">yihong0618</text><text fill="#FFFFFF" style="font-size:4px; font-family:Arial" x="65" y="280">SPECIAL TRACKS</text><rect fill="yellow" height="2.6" width="2.6" x="65" y="283" /><text fill="#FFFFFF" style="font-size:3px; font-family:Arial" x="70" y="285.5">Over 20.0 km</text><rect fill="red" height="2.6" width="2.6" x="65" y="287" /><text fill="#FFFFFF" style="font-size:3px; font-family:Arial" x="70" y="289.5">Over 40.0 km</text><text fill="#FFFFFF" style="font-size:4px; font-family:Arial" x="120" y="280">STATISTICS</text><text fill="#FFFFFF" style="font-size:3px; font-family:Arial" x="120" y="285">Number: 1</text><text fill="#FFFFFF" style="font-size:3px; font-family:Arial" x="120" y="290">Weekly: 1.0</text><text fill="#FFFFFF" style="font-size:3px; font-family:Arial" x="141" y="285">Total: 12.0 km</text><text fill="#FFFFFF" style="font-size:3px; font-family:Arial" x="141" y="290">Avg: 12.0 km</text><text fill="#FFFFFF" style="font-size:3px; font-family:Arial" x="167" y="285">Min: 12.0 km</text><text fill="#FFFFFF" style="font-size:3px; font-family:Arial" x="167" y="290">Max: 12.0 km</text><polyline fill="none" opacity="1" points="30.706493049452547,207.29838803979874 30.606721801887034,207.27205245433288 30.478444483567728,207.27731957231663 30.345416153460974,207.28258668983835 30.188632764387876,207.28785380693807 30.069857469643466,207.36686051050856 29.932078127749264,207.37212762055424 29.794298785855062,207.27731957231663 29.647017420385964,207.25098397804686 29.53774414921645,207.20357988067553 29.380960760172457,207.17724425562483 29.238430406490806,207.11930584179572 29.100651064596605,207.05610023871122 28.96762273448985,207.05610023871122 28.806088333629305,207.07716878011706 28.64930494458531,207.0086959948203 28.563786732353037,206.83488012899033 28.525778638053453,206.77167424078652 28.421256378671387,206.62419358860643 28.354742213647114,206.5346515957608 28.250219954235945,206.408239154076 28.197958824574016,206.36610161719364 28.079183529829606,206.31869685455968 27.936653176147956,206.29762805971768 27.836881928582443,206.18701677129138 27.884392046456924,206.07113807054338 27.74661270456272,206.0606036326426 27.59933133906452,206.02900030836463 27.623086398059968,205.8341127920139 27.532817174011143,205.77090590056832 27.409290867537493,205.734035184636 27.31427063170122,205.61815565134384 27.2335034312855,205.51281043624476 27.162238254473777,205.38112866983283 27.16698926623212,205.2283774762509 27.342776702455012,205.11776431191538 27.485307056136662,205.07035861065742 27.561323244764935,204.89127008419746 27.49480907971156,204.8069929545345 27.471054020774318,204.65950770652853 27.442547950020526,204.5067547645085 27.532817174011143,204.38033825673847 27.566074256552383,204.22231726551763 27.52331515046535,204.10116757068317 27.49005806792411,203.94841327577888 27.3807847967837,203.8325304603277 27.224001407710603,203.75878673956686 27.224001407710603,203.7745889727048 27.247756466676947,203.76932156210023 27.214499384135706,203.77985638287646 27.22875241949805,203.785123792597 27.219250395923154,203.77985638287646 27.20974837234826,203.785123792597 27.214499384135706,203.77985638287646 27.181242301594466,203.75351932763442 27.133732183719985,203.59022933963934 27.152736230869778,203.4901481701745 27.219250395923154,203.38479939909303 27.295266584551428,203.3005202554632 27.361780749604804,203.2320433683053 27.485307056136662,203.1424965574588 27.60883336266852,203.0424146771511 27.70385359847569,202.96340255415998 27.71810663380893,202.86332038950422 27.63258842160576,202.77377305486152 27.566074256552383,202.66315558350834 27.542319197615143,202.52093283510112 27.566074256552383,202.40504739544122 27.570825268368935,202.2891617427049 27.618335386243416,202.15220569663143 27.49005806792411,202.06792490498628 27.471054020774318,201.99944667878663 27.3807847967837,201.90463055047076 27.442547950020526,201.7149978659545 27.509062115073903,201.61491371909506 27.504311103286454,201.46742100250412 27.54707020940259,201.30939270885938 27.618335386243416,201.1882374154011 27.627837409818312,201.04074370035232 27.651592468784656,200.91432024128517 27.618335386243416,200.7984318477138 27.60408235088107,200.69834624542273 27.60408235088107,200.5824574547405 27.63258842160576,200.39808848491884 27.70385359847569,200.2769314396719 27.70385359847569,200.15050644846997 27.661094492359553,200.0082780302364 27.67059651593445,199.85551381609184 27.675347527721897,199.6764104727663 27.67059651593445,199.5499842769059 27.17174027801957,198.79668960218987 27.081471054028952,198.7808861209669 27.06246700687916,198.67552947822332 27.02445891255047,198.5965118805907 27.00545486540068,198.55963696778053 26.96744677107199,198.4700835182557 26.905683617835166,198.4279406744463 26.843920464569237,198.3699942181811 26.763153264124412,198.32258344161528 26.71564314624993,198.24356540141162 26.64912898116745,198.1803508978919 26.525602674664697,198.06972536415196 26.44958648600732,197.98543911285742 26.387823332770495,197.974903323513 26.27379904978443,198.0117785784896 26.17402780224802,198.03811803313147 26.050501495716162,198.02758225260186 25.993489354208577,197.92749224968793 25.94122822454665,197.84320580814529 25.874714059464168,197.77472299137298 25.741685729357414,197.81686627204544 25.708428646845277,197.75365134048116 25.69892662327038,197.73257968251346 25.71317965866183,197.74838342664225 25.694175611482933,197.779990903 25.679922576091485,197.75891925386532 25.679922576091485,197.75891925386532 25.670420552545693,197.779990903 25.67517156433314,197.75891925386532 25.69892662327038,197.73257968251346 25.694175611482933,197.72204385091027 25.622910434642108,197.59561373409815 25.608657399279764,197.5271306482391 25.565898293163627,197.44811161054167 25.527890198864043,197.43230779110672 25.456625021994114,197.38489630903132 25.39486186875729,197.3269488936021 25.304592644737568,197.33748479128553 25.266584550437983,197.3269488936021 25.257082526833983,197.3164129941615 25.166813302843366,197.35855658135551 25.090797114215093,197.40596808325063 25.033784972736612,197.40070014036246 24.972021819470683,197.43757573136463 24.891254619025858,197.49025510964566 24.824740454001585,197.54293444388168 24.772479324310552,197.5640061652557 24.710716171044623,197.60088166071 24.65845504135359,197.60614958685255 24.558683793788077,197.6746325868371 24.444659510802012,197.70624010018582 24.354390286811395,197.81159836349616 24.268872074608225,197.90115274881464 24.145345768076368,197.8958848473303 24.08358261481044,197.8958848473303 23.988562379032373,197.8906169453876 23.95055428473279,197.88008114018885 23.964807320095133,197.85900952453085 23.983811367244925,197.86954533324024 23.94580327294534,197.8906169453876 23.87928910786286,197.83793790179698 23.812774942809483,197.80106254508792 23.755762801360106,197.84847371405704 23.670244589156937,197.78525881418318 23.584726376924664,197.81159836349616 23.499208164721495,197.75365134048116 23.437445011455566,197.65882882420556 23.36142882279819,197.6219533626827 23.347175787435845,197.62722128707537 23.318669716682052,197.5745420232961 23.256906563445227,197.50605891455416 23.19039239839185,197.5271306482391 23.1951434101793,197.51132684863478 23.176139363029506,197.47445130078995 23.185641386604402,197.38489630903132 23.1951434101793,197.31114504377183 23.13338025691337,197.2479296048623 23.114376209763577,197.17944614114094 23.08587013903889,197.11096260297563 23.0478620447102,197.03721101710835 23.009853950381512,196.92131549346232 23.005102938594064,196.74747180829945 22.924335738178343,196.6737197969669 22.881576632062206,196.57889565554433 22.81031145522138,196.52621551532502 22.796058419859037,196.44192719932107 22.724793243018212,196.3418346776525 22.677283125114627,196.25227807609554 22.663030089752283,196.22593787495134 22.6250219954527,196.22593787495134 22.644026042573387,196.23120591605402 22.64877705438994,196.22593787495134 22.629773007211043,196.2206698334012 22.644026042573387,196.2206698334012 22.67253211332718,196.21013374897666 22.701038184051868,196.14691720542396 22.691536160506075,196.17852548512747 22.606017948273802,196.15745330040954 22.6250219954527,196.17325743961192 22.620270983636146,196.18379353020282 22.6250219954527,196.17325743961192 22.6250219954527,196.16272134724568 22.629773007211043,196.16272134724568 22.629773007211043,196.16272134724568 22.644026042573387,196.15745330040954 180.90973077600938,92.14340703262133 180.81471054023132,92.20145161081018 180.81471054023132,92.20145161081018 180.81471054023132,92.20145161081018 180.7244413162407,92.25949613513876 23.08587013903889,197.10042666740628 23.11912722152192,197.22158981993198 23.185641386604402,197.31114504377183 23.176139363029506,197.42177190928123 23.180890374816954,197.54820237489912 23.233151504478883,197.64829298027325 23.290163645986468,197.764187166802 23.294914657744812,197.8853490430156 23.323420728498604,198.03811803313147 23.351926799223293,198.24356540141162 23.375681858189637,198.39106566299233 23.38993489355198,198.52276203338988 23.380432869977085,198.70186865543656 23.380432869977085,198.83356437628754 23.356677811039845,198.92838512489107 23.1951434101793,198.9915988780267 23.019355973956408,199.01793792311946 22.891078655637102,199.03374134489786 22.734295266593108,199.09695499235386 22.582262889336562,199.16016857639988 22.449234559229808,199.2128465146743 22.358965335210087,199.2602566214664 22.240190040465677,199.31820225911724 22.126165757508716,199.3708800652821 22.078655639634235,199.4393611474843 22.050149568909546,199.4604322347259 22.04064754533465,199.4657000054358 21.983635403827066,199.52364545418095 21.898117191623896,199.5394487491467 21.76983987330459,199.55525204013247 21.68432166110142,199.6342684356714 21.617807496048044,199.6764104727663 21.570297378173564,199.7712299532286 21.465775118762394,199.80283641501592 21.385007918346673,199.7712299532286 21.242477564694127,199.80283641501592 21.133204293524614,199.82390738072354 21.038184057717444,199.78176544225062 20.928910786577035,199.7606944624422 20.829139538982417,199.79756867247852 20.76262537392904,199.80810415710948 20.686609185300767,199.8660492910276 20.56783389058546,199.88185250012975 20.487066690140637,199.92399437167114 20.439556572237052,200.02934892727353 20.439556572237052,200.11363244493623 20.396797466120915,200.1715772979478 20.35403836000478,200.19791584990162 20.311279253917746,200.20845126758286 20.21625901813968,200.2295220976921 20.116487770545064,200.20318355896597 19.997712475829758,200.22425439082144 19.912194263597485,200.26112832964645 19.93119831077638,200.3032699475989 19.92644729895983,200.38755309893168 19.90744325183914,200.44023001129608 19.90269224002259,200.4929068796191 19.883688192843692,200.54558370392624 19.859933133906452,200.64566954879774 19.76016188634094,200.72468457723153 19.650888615171425,200.7194169117538 19.593876473722048,200.7510228980209 19.49410522612743,200.80896716503048 19.422840049257502,200.777361207809 19.38958296677447,200.7352199068555 19.36582790777902,200.72995224226543 19.31831778990454,200.6878109096324 19.35157487244578,200.66147256240583 19.370578919595573,200.62459885783755 19.332570825266885,200.65620489166395 19.299313742725644,200.6878109096324 19.31831778990454,200.79316418840608 19.299313742725644,200.98279964640824 19.384831954957917,201.1197582334753 19.384831954957917,201.2409136585702 19.251803624851163,201.29885747517983 19.156783389073098,201.46215339910486 19.17578743622289,201.64651925632643 19.099771247594617,201.7992791295037 19.004751011787448,201.95203863246206 19.03325708254124,202.14693815044666 19.161534400860546,202.20488113418105 19.123526306531858,202.2944292769971 19.123526306531858,202.4155824442023 19.08551821220317,202.59467800395942 19.199542495189235,202.65788808002253 19.35157487244578,202.70002809552898 19.49410522612743,202.7948430273973 19.570121414755704,202.9581350757653 19.703149744862458,203.1003568377455 19.883688192843692,203.22677591234606 20.059475629066583,203.27945045194429 20.230512053502025,203.18990370844404 20.42055252508726,203.2320433683053 20.605841984885046,203.2741829999759 20.79588245647028,203.31632260347033 20.981171916238964,203.33212494753025 21.095196199195925,203.34265984136437 21.22822452930268,203.39006684182095 21.37075488298433,203.40060172596714 21.499032201303635,203.43747380663626 21.65581559034763,203.45327612032634 21.82685201478307,203.45327612032634 21.974133380281273,203.50068303760418 22.130916769296164,203.53228762930667 22.29245117015671,203.54282248968957 22.4777406299836,203.55335734832624 22.63452401899849,203.4743458657431 22.76755234913435,203.4743458657431 22.919584726390895,203.52702019846038 23.0478620447102,203.4690784300401 23.13338025691337,203.47961330100225 23.27591061059502,203.55862477697156 23.3329227520735,203.75351932763442 23.408938940701773,203.87466969059096 23.45169804681791,203.98528503601847 23.62273447122425,203.90627409481021 23.812774942809483,203.92207629096447 24.036072496935958,203.86413488566177 24.178602850617608,203.71664743183646 24.37339433399029,203.71138001639338 24.4921696287347,203.82199564834445 24.69171212389483,203.8588674825296 24.900756642629858,203.8588674825296 25.02903396092006,203.7956586107248 25.195319373568054,203.7008451841757 25.38060883336584,203.66397325756407 25.49938412811025,203.60076419032703 25.632412458217004,203.68504293255683 25.78444483547355,203.79039120187372 25.917473165609408,203.80619342709906 26.040999472112162,203.74825191527998 26.202533872972708,203.69557776741203 26.3783213091956,203.73244967554274 26.525602674664697,203.68504293255683 26.672884040133795,203.63763615391144 26.777406299486756,203.61129903927213 26.948442723951302,203.64290357552818 27.11472813654109,203.70611260049918 27.195495336985914,203.72191484685027 27.35227872602991,203.77985638287646 27.471054020774318,203.91154149396607 27.518564138677903,204.0800980347667 27.566074256552383,204.21704989232967 27.55182122119004,204.40667505007877 27.518564138677903,204.5752302670444 27.46155199719942,204.74905236253835 27.594580327306176,204.88073544914732 27.537568185827695,205.02822017960352 27.366531761421356,205.10196241545054 27.2430054548895,205.21784289752395 27.20499736056081,205.37586139345876 27.304768608126324,205.5338794933341 27.390286820358597,205.69189719717542 27.589829315518728,205.7656386567578 27.651592468784656,205.90785408524607 27.70385359847569,206.03426753018357 27.884392046456924,206.05006919296284 27.946155199722853,206.21862001635964 28.11719162412919,206.31869685455968 28.283477036777185,206.4135063442227 28.407003343309043,206.5346515957608 28.492521555512212,206.70320112373884 28.62554988564807,206.813811506614 28.71106809785124,206.9823602883771 28.91061059301137,207.05610023871122 29.095900052809156,207.05610023871122 29.26218546545715,207.1087715790054 29.45697694880073,207.17724425562483 29.618511349632172,207.24044973726268 29.80380080942996,207.29312092359396 29.94158015132416,207.36686051050856 30.103114552184707,207.3405249536445 30.264648953045253,207.31418938579372 30.449938412813935,207.27731957231663 30.635227872611722,207.27205245433288 30.78250923808082,207.27731957231663 30.929790603549918,207.22464837281586 31.062818933656672,207.17724425562483 31.200598275579978,207.18251138152118 31.33362660568673,207.28785380693807 31.47615695936838,207.31945650023044 31.55217314796755,207.4195315912184 31.580679218721343,207.5617432893887 31.675699454528512,207.69868758448501 31.784972725668922,207.79349499917953 31.846735878963955,207.89883640388507 31.898997008625884,207.8883022713453 31.970262185495812,207.83563158218385 31.994017244433053,207.7618925434508" stroke="#4DD2FF" stroke-dasharray="none" stroke-linecap="round" stroke-linejoin="round" stroke-width="0.5"><title>2026-03-14 12.0km</title><desc>9223370263378906807</desc></polyline></svg>