<?xml version="1.0" encoding="utf-8" ?>
<svg baseProfile="full" height="300mm" version="1.1" viewBox="0,0,200,300" width="200mm" xmlns="http://www.w3.org/2000/svg" xmlns:ev="http://www.w3.org/2001/xml-events" xmlns:xlink="http://www.w3.org/1999/xlink"><defs /><rect fill="#222222" height="300" width="200" x="0" y="0" /><text fill="#FFFFFF" style="font-size:12px; font-family:Arial; font-weight:bold;" x="10" y="20">Over 10km Runs</text><text fill="#FFFFFF" style="font-size:4px; font-family:Arial" x="10" y="280">Runner</text><text fill="#FFFFFF" style="font-size:9px; font-family:Arial" x="10" y="290">yihong0618</text><text fill="#FFFFFF" style="font-size:4px; font-family:Arial" x="65" y="280">SPECIAL TRACKS</text><rect fill="yellow" height="2.6" width="2.6" x="65" y="283" /><text fill="#FFFFFF" style="font-size:3px; font-family:Arial" x="70" y="285.5">Over 20.0 km</text><rect fill="red" height="2.6" width="2.6" x="65" y="287" /><text fill="#FFFFFF" style="font-size:3px; font-family:Arial" x="70" y="289.5">Over 40.0 km</text><text fill="#FFFFFF" style="font-size:4px; font-family:Arial" x="120" y="280">STATISTICS</text><text fill="#FFFFFF" style="font-size:3px; font-family:Arial" x="120" y="285">Number: 1</text><text fill="#FFFFFF" style="font-size:3px; font-family:Arial" x="120" y="290">Weekly: 1.0</text><text fill="#FFFFFF" style="font-size:3px; font-family:Arial" x="141" y="285">Total: 12.0 km</text><text fill="#FFFFFF" style="font-size:3px; font-family:Arial" x="141" y="290">Avg: 12.0 km</text><text fill="#FFFFFF" style="font-size:3px; font-family:Arial" x="167" y="285">Min: 12.0 km</text><text fill="#FFFFFF" style="font-size:3px; font-family:Arial" x="167" y="290">Max: 12.0 km</text><polyline fill="none" opacity="1" points="28.62554988564807,207.26151603923063 28.63980292098131,207.26151603923063 28.573288755957037,207.08770014434776 28.525778638053453,207.03502856646082 28.41650536688394,206.8980822580197 28.373746260767803,206.80327310099165 28.26922400141484,206.676860669897 28.22646489532781,206.66105909817634 28.11719162412919,206.61365435928747 28.026922400167678,206.5504479853298 27.89864508184837,206.51884477458225 27.851134963944787,206.40823341224313 27.851134963944787,206.29762185585787 27.71810663380893,206.33449239621768 27.594580327306176,206.27128574239396 27.623086398059968,206.09219987916003 27.532817174011143,206.03426022624262 27.423543902870733,205.9973895103103 27.333274678880116,205.90257899890275 27.26200950203929,205.7972338190084 27.162238254473777,205.70769027771166 27.152736230869778,205.55493923724498 27.22875241949805,205.38111863758968 27.390286820358597,205.36004944143133 27.532817174011143,205.27050527919346 27.561323244764935,205.12828781894132 27.475805032561766,205.0545453058512 27.471054020774318,204.92286203220283 27.442547950020526,204.7701090901828 27.532817174011143,204.65422730106002 27.55182122119004,204.51200845056155 27.55182122119004,204.38032404367914 27.480556044349214,204.26444153804914 27.42829491465818,204.12748921133607 27.333274678880116,204.0379432983791 27.22875241949805,204.03267588777453 27.22875241949805,204.0379432983791 27.2430054548895,204.0379432983791 27.214499384135706,204.04321070855076 27.22875241949805,204.0484781182713 27.219250395923154,204.04321070855076 27.20974837234826,204.0484781182713 27.214499384135706,204.0484781182713 27.214499384135706,204.0484781182713 27.128981171903433,203.88518821213802 27.152736230869778,203.7851070928482 27.181242301594466,203.68502581466237 27.257258490251843,203.60601416703867 27.338025690667564,203.54280477761858 27.409290867537493,203.47432786757417 27.52331515046535,203.39004849153207 27.63733943339321,203.27943163950113 27.70385359847569,203.2214894014396 27.71810663380893,203.12667471517852 27.642090445180656,203.04239487433733 27.570825268368935,202.94757991869847 27.532817174011143,202.80008970421477 27.566074256552383,202.71054190562063 27.57557628012728,202.6157264508256 27.59933133906452,202.47350300119433 27.570825268368935,202.36288454072564 27.480556044349214,202.31547656968178 27.442547950020526,202.25753344551413 27.390286820358597,202.13637946833478 27.456800985411974,201.97308460890417 27.509062115073903,201.87300045369557 27.504311103286454,201.73604293113385 27.542319197615143,201.59381749657405 27.60883336266852,201.47266224362465 27.623086398059968,201.33570385117127 27.661094492359553,201.2198157481689 27.623086398059968,201.11973039681106 27.63258842160576,201.0091095604257 27.59933133906452,200.91955921733825 27.58507830373128,200.793134986925 27.651592468784656,200.62983664734202 27.699102586659137,200.5139472464325 27.699102586659137,200.40332534676054 27.661094492359553,200.2716323559107 27.675347527721897,200.1294036167019 27.67059651593445,199.98190680737753 27.67059651593445,199.8133386025802 27.190744325169362,199.04950827416178 27.11947914835764,199.04950827416178 27.067218018637504,198.9968299792199 27.03871194794192,198.90200893732617 27.019707900763024,198.83352698501403 26.995952841825783,198.80191990501407 26.96744677107199,198.71763428080885 26.905683617835166,198.67022356764937 26.82966742917779,198.62281281881224 26.763153264124412,198.58593776728958 26.725145169824827,198.5227233430487 26.672884040133795,198.44897310128363 26.549357733601937,198.3594191202501 26.487594580336008,198.25932922610446 26.430582438857527,198.2382576491873 26.33081119126291,198.26986501192005 26.22628893190995,198.28566868734197 26.131268696131883,198.30674024840482 26.02199542496237,198.26986501192005 25.98873834242113,198.16450707448894 25.950730248121545,198.09075641348318 25.874714059464168,198.03807731704728 25.755938764748862,198.07495268917046 25.69892662327038,198.0275414924763 25.708428646845277,198.00120192334725 25.73693471759907,198.00646983805927 25.72268168220762,197.99593400818776 25.69892662327038,198.02227357953961 25.66566954072914,198.02227357953961 25.694175611482933,198.01700566615546 25.694175611482933,198.0328094049728 25.679922576091485,198.01700566615546 25.69892662327038,197.99593400818776 25.694175611482933,197.98539817658457 25.622910434642108,197.8642359863843 25.608657399279764,197.80628876955598 25.565898293163627,197.7220018136286 25.546894246013835,197.70093005703893 25.485131092747906,197.66405446603676 25.432869963056874,197.6166429601799 25.347351750853704,197.62717885343955 25.290339609375224,197.58503526978166 25.257082526833983,197.60083911695983 25.24282949147164,197.5903032192764 25.147809255693574,197.62191090702981 25.086046102427645,197.67459035136926 25.033784972736612,197.66405446603676 24.98152384304558,197.70093005703893 24.910258666204754,197.74307356318604 24.83424247757648,197.7957529062478 24.78198134788545,197.83262842017575 24.734471229981864,197.84316427733938 24.667957064928487,197.8800397635241 24.606193911691662,197.9063793833011 24.51592468767194,197.95379067115573 24.416153440106427,197.99593400818776 24.354390286811395,198.09075641348318 24.25461903924588,198.1592391730046 24.145345768076368,198.1592391730046 24.08358261481044,198.1592391730046 23.988562379032373,198.1487033686899 23.95055428473279,198.13816756260348 23.964807320095133,198.12236385020515 23.99331339081982,198.13816756260348 23.96005630827858,198.13289965891454 23.9125461904041,198.13289965891454 23.85078303713817,198.07495268917046 23.79377089565969,198.0696847801919 23.722505718818866,198.12763175477812 23.670244589156937,198.04861313985748 23.575224353349768,198.08022059771974 23.499208164721495,198.01700566615546 23.437445011455566,197.93271899206957 23.36617983461474,197.90111146023264 23.356677811039845,197.8800397635241 23.33767376386095,197.86950391252685 23.27591061059502,197.7904849739134 23.209396445541643,197.76414530569673 23.1951434101793,197.76941324022846 23.1951434101793,197.75887737073572 23.16663733945461,197.71673387514602 23.1951434101793,197.62717885343955 23.1951434101793,197.56923141862717 23.13338025691337,197.5112839305366 23.114376209763577,197.44280046681524 23.08587013903889,197.3690489610999 23.05261305649765,197.3163692613125 23.024106985743856,197.2215456906888 23.005102938594064,197.1267219773763 22.96234383250703,196.96868213807466 22.891078655637102,196.88966206977057 22.84356853776262,196.84224998121863 22.81031145522138,196.779033807652 22.777054372709244,196.67894140313 22.710540207655868,196.5841168732295 22.68203413693118,196.5103643624243 22.663030089752283,196.48929220062564 22.6250219954527,196.4840241590755 22.644026042573387,196.49456024172832 22.644026042573387,196.49456024172832 22.629773007211043,196.48929220062564 22.644026042573387,196.49456024172832 22.64877705438994,196.48929220062564 22.686785148689523,196.42607567291998 22.691536160506075,196.41027153109826 22.663030089752283,196.44187981080177 22.639275030815043,196.42607567291998 22.6250219954527,196.4313437193232 22.620270983636146,196.44714785587712 22.6250219954527,196.4313437193232 22.6250219954527,196.4313437193232 22.629773007211043,196.42607567291998 22.63452401899849,196.42080762608384 22.639275030815043,196.41553957881843 180.90973077600938,92.40676135829563 180.81471054023132,92.46480593648448 180.81471054023132,92.46480593648448 180.81471054023132,92.46480593648448 180.81471054023132,92.46480593648448 180.7244413162407,92.52285046081306 23.090621150826337,197.3690489610999 23.11912722152192,197.48494414560628 23.185641386604402,197.5534275635291 23.16663733945461,197.66932240892493 23.19039239839185,197.77468117430908 23.209396445541643,197.885307688357 23.280661622382468,197.98013026010813 23.304416681348812,198.10656013381958 23.313918704923708,198.2382576491873 23.328171740286052,198.39629430432615 23.36142882279819,198.53852695506066 23.375681858189637,198.68602714266672 23.39468590533943,198.79665205678975 23.380432869977085,198.97049081521618 23.380432869977085,199.09691870196184 23.37093084640219,199.17593600237888 23.21889846911654,199.26022101361013 23.057364068285096,199.27075663208961 22.92908674996579,199.29709567057216 22.80556044340483,199.33923810924534 22.65827907793573,199.40771951201168 22.544254795007873,199.45512967032482 22.415977476688568,199.4920042132362 22.335210276272846,199.5394143081503 22.216434981528437,199.5868243673831 22.107161710358923,199.6500377242337 22.078655639634235,199.7027154731586 22.050149568909546,199.72378656040019 22.050149568909546,199.7290543311101 21.997888439218514,199.76592871376124 21.92662326237769,199.79753531027382 21.822101002995623,199.80280307482099 21.727080767217558,199.85021293590762 21.636811543197837,199.9081582732615 21.60830547247315,199.9608358064288 21.546542319178116,200.06092299815282 21.446771071641706,200.05565525518978 21.361252859409433,200.03985202363765 21.237726552877575,200.06619074069022 21.147457328886958,200.08199396563214 21.052437093108892,200.05565525518978 20.96216786908917,200.0240487881165 20.85764560973621,200.04511976792492 20.79113144465373,200.06092299815282 20.724617279600352,200.09779718660866 20.624846032063942,200.1346713535131 20.529825796256773,200.1610100309299 20.47281365474919,200.22422281183754 20.430054548662156,200.31377414293092 20.4443075840245,200.3875222023962 20.396797466120915,200.44019933489108 20.35403836000478,200.46127017557592 20.311279253917746,200.47180559325716 20.230512053502025,200.4928764233664 20.13074080593651,200.47180559325716 20.030969558341894,200.47180559325716 19.92644729895983,200.508679541319 19.92169628717238,200.5402857653462 19.935949322534725,200.61403355975926 19.92644729895983,200.68778126787947 19.89794122823514,200.735190463256 19.888439204660244,200.7667965736764 19.8741861692979,200.82474106830705 19.855182122119004,200.90902387447204 19.769663909915835,200.99330656793973 19.655639626958873,200.9775035715029 19.593876473722048,200.9985742325298 19.513109273277223,201.05651851408038 19.427591061074054,201.05125085431428 19.41333802571171,201.0091095604257 19.36582790777902,201.0091095604257 19.337321837054333,200.9775035715029 19.31831778990454,200.9511652353067 19.35632588423323,200.93536222828698 19.361076896020677,200.8826855096704 19.332570825266885,200.92482688808013 19.299313742725644,200.9511652353067 19.31831778990454,201.05125085431428 19.304064754542196,201.2198157481689 19.361076896020677,201.35677439244682 19.418089037499158,201.4831974922563 19.313566778117092,201.5253384691714 19.209044518735027,201.65176123087804 19.152032377256546,201.81505692278006 19.190040471585235,201.94147910336687 19.06176315326593,202.1100416164045 19.009502023604,202.25753344551413 19.05701214147848,202.41029247612096 19.161534400860546,202.46823545985535 19.128277318319306,202.54724853365042 19.137779341894202,202.66313419606013 19.08551821220317,202.8264272678207 19.190040471585235,202.9001723873953 19.2945627309673,202.96338242120328 19.418089037499158,203.010789904969 19.555868379364256,203.1372096873638 19.603378497296944,203.27943163950113 19.75541087455349,203.40058341970507 19.92644729895983,203.4953976939796 20.092732711607823,203.55333968026025 20.24001407707692,203.45325803411833 20.42055252508726,203.4953976939796 20.582086925947806,203.5375373256502 20.77212739753304,203.5744094802576 20.96216786908917,203.60074672033807 21.042935069533996,203.60074672033807 21.156959352461854,203.65342116749525 21.294738694356056,203.66395605164143 21.432518036250258,203.66922349306697 21.57504838996101,203.71136300855142 21.727080767217558,203.7060955706511 21.869611120899208,203.72189788300602 21.988386415643618,203.7535024958488 22.130916769296164,203.79564195498097 22.282949146581814,203.80617681536387 22.458736582804704,203.81144424490049 22.6155199718487,203.7482350614846 22.710540207655868,203.72716531958213 22.857821573124966,203.7693047963221 23.019355973956408,203.77457222894373 23.10962519797613,203.68502581466237 23.16663733945461,203.79564195498097 23.323420728498604,203.89572305754336 23.318669716682052,204.05901293639909 23.404187928914325,204.1590936208231 23.45169804681791,204.23810457526633 23.62273447122425,204.1696284204845 23.80327291926369,204.19596541189094 23.988562379032373,204.14329141805865 24.140594756318023,204.01687365330872 24.306880168936914,203.93786242160058 24.444659510802012,204.03267588777453 24.587189864512766,204.1222218082039 24.829491465789033,204.1222218082039 24.934013725141995,204.0906173802323 25.086046102427645,204.03267588777453 25.23807847968419,203.95893209308633 25.39486186875729,203.91152532236083 25.49938412811025,203.86411851600133 25.632412458217004,203.94839725823113 25.765440788323758,204.05374552754802 25.898469118430512,204.05901293639909 26.01724441317492,204.03267588777453 26.13601970791933,203.98526917252457 26.297554108750774,203.96419950985 26.44958648600732,203.98000175751076 26.59686785150552,203.92732758323837 26.70614112264593,203.89572305754336 26.815414393815445,203.8693859406958 26.962695759313647,203.91152532236083 27.128981171903433,203.96946692617348 27.195495336985914,203.98526917252457 27.342776702455012,204.0379432983791 27.456800985411974,204.14855881941912 27.485307056136662,204.3065806556515 27.58507830373128,204.42773046184084 27.566074256552383,204.59628632662134 27.509062115073903,204.73850498699903 27.49005806792411,204.91759469552562 27.52331515046535,205.05981263106878 27.589829315518728,205.19149561866652 27.504311103286454,205.31791102799252 27.35227872602991,205.36004944143133 27.2430054548895,205.48646451277818 27.200246348773362,205.63394844232607 27.295266584551428,205.7814320268444 27.376033784996253,205.93418251855473 27.532817174011143,206.01319124834117 27.656343480543,206.11853606740624 27.63733943339321,206.26601851838495 27.794122822466306,206.29762185585787 27.89864508184837,206.38189734498155 28.003167341201333,206.51357757125515 28.159950730245328,206.60311996802557 28.297730072168633,206.70319661392932 28.42600739048794,206.81380745882052 28.492521555512212,206.96655544941314 28.61604786204407,207.07189867560737 28.692064050701447,207.21937889658875 28.863100475107785,207.31945456438552 29.02938588775578,207.31945456438552 29.200422312162118,207.3563245072146 29.36195671299356,207.43006432819675 29.53774414921645,207.46693420634983 29.675523491110653,207.5248725427591 29.83230688018375,207.5670094812449 29.97958824565285,207.64601616501386 30.126869611121947,207.59334505350853 30.27415097662015,207.57754371146802" stroke="#4DD2FF" stroke-dasharray="none" stroke-linecap="round" stroke-linejoin="round" stroke-width="0.5"><title>2026-03-14 12.0km</title><desc>9223370263378906807</desc></polyline></svg>