<?xml version="1.0" encoding="utf-8" ?>
<svg baseProfile="full" height="300mm" version="1.1" viewBox="0,0,200,300" width="200mm" xmlns="http://www.w3.org/2000/svg" xmlns:ev="http://www.w3.org/2001/xml-events" xmlns:xlink="http://www.w3.org/1999/xlink"><defs /><rect fill="#222222" height="300" width="200" x="0" y="0" /><text fill="#FFFFFF" style="font-size:12px; font-family:Arial; font-weight:bold;" x="10" y="20">Over 10km Runs</text><text fill="#FFFFFF" style="font-size:4px; font-family:Arial" x="10" y="280">Runner</text><text fill="#FFFFFF" style="font-size:9px; font-family:Arial" x="10" y="290">yihong0618</text><text fill="#FFFFFF" style="font-size:4px; font-family:Arial" x="65" y="280">SPECIAL TRACKS</text><rect fill="yellow" height="2.6" width="2.6" x="65" y="283" /><text fill="#FFFFFF" style="font-size:3px; font-family:Arial" x="70" y="285.5">Over 20.0 km</text><rect fill="red" height="2.6" width="2.6" x="65" y="287" /><text fill="#FFFFFF" style="font-size:3px; font-family:Arial" x="70" y="289.5">Over 40.0 km</text><text fill="#FFFFFF" style="font-size:4px; font-family:Arial" x="120" y="280">STATISTICS</text><text fill="#FFFFFF" style="font-size:3px; font-family:Arial" x="120" y="285">Number: 1</text><text fill="#FFFFFF" style="font-size:3px; font-family:Arial" x="120" y="290">Weekly: 1.0</text><text fill="#FFFFFF" style="font-size:3px; font-family:Arial" x="141" y="285">Total: 12.0 km</text><text fill="#FFFFFF" style="font-size:3px; font-family:Arial" x="141" y="290">Avg: 12.0 km</text><text fill="#FFFFFF" style="font-size:3px; font-family:Arial" x="167" y="285">Min: 12.0 km</text><text fill="#FFFFFF" style="font-size:3px; font-family:Arial" x="167" y="290">Max: 12.0 km</text><polyline fill="none" opacity="1" points="30.906035544612678,207.2220151365218 30.801513285230612,207.27468631404554 30.692240014090203,207.26941919827368 30.592468766495585,207.24308361280782 30.45944043638883,207.2536178483133 30.33116311809863,207.2641520820689 30.169628717238083,207.2641520820689 30.055604434281122,207.3484258886383 29.913074080628576,207.34315877902918 29.765792715130374,207.24835073079157 29.637515396811068,207.21674801636618 29.504487066704314,207.18514528609012 29.36195671299356,207.1377411609974 29.214675347524462,207.0850698690956 29.08164701741771,207.02713139718617 28.953369699098403,207.03239853318883 28.67781101531,206.97446001287972 28.63980292098131,206.97446001287972 28.573288755957037,206.7953769771484 28.516276614478556,206.73743823905897 28.430758402246283,206.57415605432107 28.335738166468218,206.49514839377298 28.250219954235945,206.36873593097698 28.178954777424224,206.33186558158195 28.06968150625471,206.28446081497532 27.912898117210716,206.26865921819262 27.836881928582443,206.1422463012932 27.87013901109458,206.01583313095034 27.732359669200378,206.03690201027712 27.594580327306176,205.9789625751946 27.623086398059968,205.7893422335619 27.518564138677903,205.73666981523274 27.395037832146045,205.6945318488979 27.309519619942876,205.57865229621166 27.224001407710603,205.46803979726246 27.157487242657226,205.32582344202456 27.17174027801957,205.17833947551844 27.357029737817356,205.08352817201012 27.504311103286454,205.02032055712334 27.55182122119004,204.84649928944418 27.475805032561766,204.76748946386942 27.471054020774318,204.62527152832627 27.452049973624526,204.45671652262172 27.542319197615143,204.3302999726002 27.566074256552383,204.18281367715826 27.504311103286454,204.06166396206754 27.480556044349214,203.8931074494394 27.366531761421356,203.78249199308993 27.219250395923154,203.73508530953768 27.224001407710603,203.74562013117975 27.2430054548895,203.74562013117975 27.214499384135706,203.7508875413514 27.22875241949805,203.75615495107195 27.219250395923154,203.7508875413514 27.214499384135706,203.75615495107195 27.214499384135706,203.7508875413514 27.152736230869778,203.69821341989518 27.138483195507433,203.55072564565126 27.152736230869778,203.4506444594772 27.22875241949805,203.34529567077698 27.304768608126324,203.2610165130609 27.3807847967837,203.197807070821 27.509062115073903,203.1029927886484 27.627837409818312,202.9923759458543 27.713355622050585,202.9238987554163 27.71810663380893,202.81854908640526 27.618335386243416,202.7342692244274 27.566074256552383,202.61838423023073 27.55182122119004,202.4814289624046 27.566074256552383,202.36554350336883 27.570825268368935,202.2443902956693 27.613584374455968,202.11270176230755 27.485307056136662,202.03895606346123 27.456800985411974,201.97047783726157 27.3807847967837,201.8651265747685 27.456800985411974,201.68076144170482 27.51381312686135,201.57014210302077 27.509062115073903,201.41738174471539 27.561323244764935,201.25935339825082 27.623086398059968,201.13819806429456 27.63733943339321,200.9959719402941 27.642090445180656,200.87481610006216 27.623086398059968,200.75366002692317 27.59933133906452,200.66410973621896 27.59933133906452,200.54295325803832 27.64684145699721,200.35331656375274 27.699102586659137,200.22689178389192 27.694351574900793,200.10046675043486 27.661094492359553,199.96350601132144 27.665845504147,199.81074175886533 27.689600563113345,199.58422856501784 27.675347527721897,199.51047990762163 27.16698926623212,198.77825641261734 27.076720042241504,198.7466494514956 27.052964983304264,198.63602496275053 27.02920992433792,198.546471662954 27.00070385361323,198.52013243291367 26.96744677107199,198.44111467673065 26.905683617835166,198.37790040045002 26.82966742917779,198.33048965161288 26.758402252366068,198.27254313239973 26.71089213443338,198.2040608137031 26.63487594583421,198.1303105411098 26.516100651060697,198.030220747376 26.440084462432424,197.9617381653443 26.373570297379047,197.9512023768766 26.25004399084719,197.98280973696455 26.169276790431468,198.0091491916064 26.036248460324714,197.9986134110768 25.98873834242113,197.8827197089522 25.950730248121545,197.79843324628382 25.85571001234348,197.75628997265812 25.732183705782518,197.7826295219711 25.708428646845277,197.7246824989561 25.717930670420174,197.7088787561479 25.71317965866183,197.7194145851172 25.694175611482933,197.75102206147494 25.679922576091485,197.72995041234026 25.684673587908037,197.72995041234026 25.670420552545693,197.74048623777344 25.67517156433314,197.72995041234026 25.69892662327038,197.7036108409884 25.684673587908037,197.6720033408492 25.622910434642108,197.56137696552832 25.603906387492316,197.48762594074287 25.56114728137618,197.41914276901662 25.523139187076595,197.3980710088981 25.447122998419218,197.35592746750626 25.38535984515329,197.3032480011425 25.29509062116267,197.3032480011425 25.266584550437983,197.29798005207704 25.247580503259087,197.28744415263645 25.147809255693574,197.32958773983046 25.086046102427645,197.3822671841699 25.02903396092006,197.3717312988374 24.967270807683235,197.41387482964637 24.881752595450962,197.4612862681206 24.819989442214137,197.51923353337406 24.767728312523104,197.53503732373065 24.705965159257175,197.5771807453275 24.644202005991247,197.58771659632475 24.534928734850837,197.64566374531205 24.43040647546877,197.68253917600305 24.354390286811395,197.7878974305204 24.25461903924588,197.86691600580525 24.154847791680368,197.86691600580525 24.064578567660647,197.86691600580525 23.97430934367003,197.85638020149054 23.964807320095133,197.83530858757877 23.964807320095133,197.8300406830058 23.983811367244925,197.84057649171518 23.94105226112879,197.86691600580525 23.87928910786286,197.79843324628382 23.808023931022035,197.77209370356286 23.741509765968658,197.8300406830058 23.670244589156937,197.75628997265812 23.575224353349768,197.7878974305204 23.484955129330046,197.7088787561479 23.42794298788067,197.6298599826805 23.36142882279819,197.59298452115763 23.347175787435845,197.59825244555032 23.318669716682052,197.53503732373065 23.24740453987033,197.46655420353636 23.19039239839185,197.49816180671405 23.209396445541643,197.47182213849737 23.16663733945461,197.44021452208835 23.185641386604402,197.34539157775362 23.1951434101793,197.2769082514278 23.13338025691337,197.21369280723957 23.114376209763577,197.1399413754989 23.07161710364744,197.07672579390055 23.043111032922752,196.9977062276921 23.009853950381512,196.87654270038183 22.99560091504827,196.7026989716178 22.919584726390895,196.63948295133378 22.881576632062206,196.54992681401927 22.81031145522138,196.49724667379996 22.786556396255037,196.39715428600175 22.720042231230764,196.3023297719592 22.68203413693118,196.2127731554392 22.66778110153973,196.19696903342629 22.63452401899849,196.20223707452897 22.64877705438994,196.20223707452897 22.63452401899849,196.19170099187613 22.644026042573387,196.19170099187613 22.644026042573387,196.18643294987123 22.68203413693118,196.1706288212481 22.69628717226442,196.1179483638989 22.686785148689523,196.16009273330928 22.639275030815043,196.13375250572062 22.6250219954527,196.13902055212384 22.620270983636146,196.1495566436024 22.6250219954527,196.13902055212384 22.6250219954527,196.13902055212384 22.629773007211043,196.1284844588845 22.629773007211043,196.13375250572062 22.644026042573387,196.1284844588845 180.90973077600938,92.11443819109627 180.81471054023132,92.17248276928512 180.81471054023132,92.17248276928512 180.81471054023132,92.17248276928512 180.7244413162407,92.2305272936137 23.090621150826337,197.07672579390055 23.13338025691337,197.20315689370182 23.185641386604402,197.28744415263645 23.16663733945461,197.40860688983958 23.19039239839185,197.5403052529764 23.24740453987033,197.6298599826805 23.294914657744812,197.74048623777344 23.299665669561364,197.89852340816287 23.313918704923708,198.0460244095848 23.36142882279819,198.2251323043056 23.375681858189637,198.37790040045002 23.39468590533943,198.5043288895904 23.380432869977085,198.688703314936 23.380432869977085,198.8098633578811 23.347175787435845,198.91521972760893 23.161886327638058,198.95736222615233 23.009853950381512,198.994236889288 22.862572584912414,199.02057592117853 22.720042231230764,199.08378955278022 22.572760865732562,199.14173532605128 22.43973253565491,199.18387767314925 22.34946331163519,199.2418233543758 22.225937005103333,199.2892334175922 22.107161710358923,199.3629823338997 22.06440260427189,199.41566007841902 22.050149568909546,199.43146339320083 22.031145521759754,199.43673116391074 21.97888439206872,199.4946766126559 21.883864156261552,199.51574767172497 21.755586837942246,199.54208648563872 21.66531761395163,199.6105673503189 21.6130564842897,199.65797713611755 21.560795354569564,199.75279660072556 21.446771071641706,199.76333208799042 21.361252859409433,199.7475288564383 21.237726552877575,199.77386757349086 21.123702269949717,199.78967079843278 21.0239310223551,199.7475288564383 20.91940876300214,199.73172562091713 20.82438852719497,199.77386757349086 20.757874362141592,199.77913531558443 20.672356149938423,199.83181271224385 20.56308287876891,199.85815139408805 20.487066690140637,199.91082872471088 20.430054548662156,200.01091553161677 20.4443075840245,200.09519903519686 20.396797466120915,200.14787616769172 20.349287348246435,200.16894700837656 20.306528242130298,200.1794824260578 20.202005982777337,200.20055325616704 20.10223473518272,200.16367929886837 19.98345944043831,200.1952855492964 19.912194263597485,200.2321594881214 19.93119831077638,200.27956880632337 19.92644729895983,200.38492271909854 19.90744325183914,200.42179654695792 19.893190216447692,200.47974109002098 19.8741861692979,200.5324179011077 19.85043111036066,200.62196837892407 19.741157839191146,200.69044807022874 19.646137603383977,200.69571573570647 19.574872426543152,200.72205405649584 19.484603202552535,200.77999832350542 19.43709308464895,200.7431247052118 19.37532993138302,200.69571573570647 19.361076896020677,200.70098340074037 19.31831778990454,200.65884206810733 19.35632588423323,200.64303906108762 19.361076896020677,200.59036234247105 19.332570825266885,200.63250372088078 19.2945627309673,200.65357439953004 19.332570825266885,200.79053363905405 19.308815766329644,200.9749013761284 19.39908499032026,201.10132465555216 19.36582790777902,201.21721243893262 19.23755058948882,201.2856914835029 19.147281365498202,201.45952257019962 19.17578743622289,201.62281800279015 19.08551821220317,201.78084543799923 19.004751011787448,201.94940759884776 19.05701214147848,202.1179693089216 19.147281365498202,202.18644737488285 19.128277318319306,202.28653056823532 19.11877529474441,202.40768369494617 19.104522259382065,202.57624417951592 19.213795530522475,202.6447217476234 19.370578919595573,202.68686175256153 19.503607249702327,202.77640916950622 19.574872426543152,202.95023614513775 19.712651768437354,203.08719039440984 19.89794122823514,203.197807070821 20.092732711607823,203.2610165130609 20.259018124226714,203.15566740746362 20.430054548662156,203.2136094373309 20.634348055609735,203.2557490619547 20.81963751540752,203.2926212104103 21.009677986992756,203.31895844609244 21.118951258133166,203.32422589190537 21.24722857645247,203.36636544259454 21.394509941950673,203.37163288444208 21.527538272057427,203.4085049651112 21.693823684676317,203.42430727880128 21.850607073749416,203.42957471580667 21.988386415643618,203.46117932864945 22.140418792900164,203.5033187877816 22.297202181944158,203.5138536481645 22.515748724283185,203.51912107770113 22.65827907793573,203.43484215238277 22.777054372709244,203.45591189428524 22.943339785328135,203.50858621819862 23.062115080072545,203.42430727880128 23.142882280488266,203.47171419607912 23.299665669561364,203.56652792367822 23.323420728498604,203.74562013117975 23.404187928914325,203.86150305314368 23.45169804681791,203.94578140806698 23.65124054197804,203.88784005115303 23.841281013563275,203.882572652441 24.050325532298302,203.81409642899962 24.188104874192504,203.66660892588698 24.392398381140083,203.70874824769635 24.51592468767194,203.80356161880263 24.734471229981864,203.82989864100455 24.91976068977965,203.81936383343782 25.057540031673852,203.75615495107195 25.223825444321847,203.66660892588698 25.39486186875729,203.61920215516147 25.508886151685147,203.58233019774707 25.66566954072914,203.67187634265065 25.798697870865,203.7508875413514 25.936477212730097,203.777224585574 26.050501495716162,203.70874824769635 26.2215379201225,203.66660892588698 26.397325356316287,203.70348083401768 26.554108745389385,203.65080667294023 26.677635051921243,203.61393473400312 26.786908323090756,203.57706277349644 26.962695759313647,203.61920215516147 27.128981171903433,203.67714375897413 27.214499384135706,203.69821341989518 27.376033784996253,203.76142236034866 27.485307056136662,203.8983748472856 27.537568185827695,204.06166396206754 27.55182122119004,204.21441791237885 27.54707020940259,204.39350827929957 27.518564138677903,204.5673307959587 27.471054020774318,204.73588550592467 27.594580327306176,204.86756855952626 27.518564138677903,205.02032055712334 27.35227872602991,205.06772627423197 27.238254443072947,205.2046759234181 27.200246348773362,205.36796165478881 27.319021643488668,205.5259797018698 27.409290867537493,205.67873010424955 27.613584374455968,205.74720430242087 27.642090445180656,205.8946869382089 27.72760865741293,206.0052986886585 27.889143058244372,206.04216922901833 27.9604082351143,206.19491838080285 28.136195671308087,206.3055296045386 28.297730072168633,206.41087344672997 28.430758402246283,206.52675146987895 28.49727256729966,206.68476661275417 28.635051909222966,206.80591128746528 28.739574168575928,206.97972715329524 28.93911666373606,207.02713139718617 29.124406123533845,207.03239853318883 29.28594052439439,207.0850698690956 29.475980995979626,207.15354253999612 29.632764384994516,207.21674801636618 29.82280485657975,207.26941919827368 29.95108217492816,207.3484258886383 30.126869611121947,207.30102188630917 30.283653000195045,207.28522054426867 30.46894245999283,207.24835073079157 30.658982931578066,207.24308361280782 30.801513285230612,207.24308361280782 30.953545662516262,207.19041240890874 31.06756994544412,207.14300828777777 31.214851310942322,207.16407679046097 31.338377617445076,207.26941919827368 31.47615695936838,207.2904876587054 31.55217314796755,207.40636406533304 31.58543023050879,207.54857572787296 31.689952489890857,207.6802529071865 31.794474749243818,207.76979323207706 31.856237902509747,207.86986756236 31.918001055775676,207.8540663628737 31.956009150104364,207.79086152533637 31.9987682562205,207.7539920075178 32.07003343303222,207.85933342982025" stroke="#4DD2FF" stroke-dasharray="none" stroke-linecap="round" stroke-linejoin="round" stroke-width="0.5"><title>2026-03-14 12.0km</title><desc>9223370263378906807</desc></polyline></svg>