<?xml version="1.0" encoding="utf-8" ?>
<svg baseProfile="full" height="300mm" version="1.1" viewBox="0,0,200,300" width="200mm" xmlns="http://www.w3.org/2000/svg" xmlns:ev="http://www.w3.org/2001/xml-events" xmlns:xlink="http://www.w3.org/1999/xlink"><defs /><rect fill="#222222" height="300" width="200" x="0" y="0" /><text fill="#FFFFFF" style="font-size:12px; font-family:Arial; font-weight:bold;" x="10" y="20">Over 10km Runs</text><text fill="#FFFFFF" style="font-size:4px; font-family:Arial" x="10" y="280">Runner</text><text fill="#FFFFFF" style="font-size:9px; font-family:Arial" x="10" y="290">yihong0618</text><text fill="#FFFFFF" style="font-size:4px; font-family:Arial" x="65" y="280">SPECIAL TRACKS</text><rect fill="yellow" height="2.6" width="2.6" x="65" y="283" /><text fill="#FFFFFF" style="font-size:3px; font-family:Arial" x="70" y="285.5">Over 20.0 km</text><rect fill="red" height="2.6" width="2.6" x="65" y="287" /><text fill="#FFFFFF" style="font-size:3px; font-family:Arial" x="70" y="289.5">Over 40.0 km</text><text fill="#FFFFFF" style="font-size:4px; font-family:Arial" x="120" y="280">STATISTICS</text><text fill="#FFFFFF" style="font-size:3px; font-family:Arial" x="120" y="285">Number: 1</text><text fill="#FFFFFF" style="font-size:3px; font-family:Arial" x="120" y="290">Weekly: 1.0</text><text fill="#FFFFFF" style="font-size:3px; font-family:Arial" x="141" y="285">Total: 12.0 km</text><text fill="#FFFFFF" style="font-size:3px; font-family:Arial" x="141" y="290">Avg: 12.0 km</text><text fill="#FFFFFF" style="font-size:3px; font-family:Arial" x="167" y="285">Min: 12.0 km</text><text fill="#FFFFFF" style="font-size:3px; font-family:Arial" x="167" y="290">Max: 12.0 km</text><polyline fill="none" opacity="1" points="30.52595460144221,207.27205245433288 30.40242829491035,207.27205245433288 30.250395917653805,207.29312092359396 30.103114552184707,207.33525784096128 29.970086222077953,207.37739473016336 29.85606193912099,207.31418938579372 29.685025514714653,207.26678533592712 29.585254267120035,207.2193812504338 29.414217842684593,207.20357988067553 29.300193559756735,207.1298401028107 29.152912194287637,207.07716878011706 29.00563082881854,207.06136737471388 28.87735351047013,207.08770304817517 28.64930494458531,206.99816171355633 28.611296850285726,206.89281880416092 28.544782685203245,206.79274287722365 28.435509414062835,206.6979339578138 28.402252331521595,206.54518595445916 28.26922400141484,206.41877353390373 28.22646489532781,206.39770477250204 28.112440612370847,206.35030003361317 28.01266936477623,206.2870936596555 27.893894070060924,206.2238872223279 27.87013901109458,206.11854301930725 27.78937181067886,206.05006919296284 27.656343480543,206.0606036326426 27.618335386243416,205.8920523868146 27.58032729194383,205.7656386567578 27.456800985411974,205.74456967710285 27.34752771424246,205.6655609406953 27.276262537401635,205.54968128154724 27.162238254473777,205.44433595203736 27.152736230869778,205.2810503434266 27.257258490251843,205.11776431191538 27.42829491465818,205.09669511575703 27.561323244764935,204.9492105454883 27.532817174011143,204.82279492492307 27.447298961837078,204.71744838082304 27.46155199719942,204.5752302670444 27.5280661622528,204.42774447685588 27.537568185827695,204.27499097327382 27.566074256552383,204.13803924158128 27.475805032561766,204.00635460362173 27.42829491465818,203.8588674825296 27.300017596338876,203.76932156210023 27.22875241949805,203.7745889727048 27.252507478464395,203.7745889727048 27.2335034312855,203.77985638287646 27.224001407710603,203.785123792597 27.224001407710603,203.77985638287646 27.20974837234826,203.785123792597 27.214499384135706,203.79039120187372 27.219250395923154,203.785123792597 27.12423016014509,203.63763615391144 27.152736230869778,203.5217527671739 27.190744325169362,203.4164040489086 27.26676051382674,203.33212494753025 27.338025690667564,203.2741829999759 27.456800985411974,203.18990370844404 27.566074256552383,203.1003568377455 27.684849551296793,202.98973993949403 27.72760865741293,202.89492530077405 27.680098539509345,202.7948430273973 27.58032729194383,202.72109809271933 27.537568185827695,202.55780543031142 27.566074256552383,202.45245510103996 27.570825268368935,202.34183706580006 27.60883336266852,202.1943460502007 27.532817174011143,202.08372756199606 27.480556044349214,202.04158713447396 27.40453985572094,201.95203863246206 27.409290867537493,201.75187093261775 27.485307056136662,201.66758960567677 27.49005806792411,201.5253646109013 27.518564138677903,201.36206885076172 27.60408235088107,201.22511079023388 27.627837409818312,201.08288479700423 27.661094492359553,200.9564614224946 27.618335386243416,200.84584076175088 27.627837409818312,200.72468457723153 27.594580327306176,200.62459885783755 27.589829315518728,200.48237150948626 27.684849551296793,200.33487614255137 27.694351574900793,200.19791584990162 27.661094492359553,200.060955259607 27.67059651593445,199.91345890642697 27.661094492359553,199.74489122297018 27.675347527721897,199.55525204013247 27.195495336985914,198.7808861209669 27.11947914835764,198.78615394848748 27.067218018637504,198.71240432322156 27.019707900763024,198.6281189315414 27.00070385361323,198.57544050447905 26.981699806434335,198.49642278131796 26.934189688559854,198.4332085314636 26.867675523506477,198.3699942181811 26.786908323090756,198.31204770865224 26.73939820518717,198.28044049916934 26.677635051921243,198.19088665287927 26.568361780780833,198.10133267932542 26.487594580336008,197.99597490043016 26.411578391707735,197.9696354281914 26.311807144113118,198.0117785784896 26.202533872972708,198.02758225260186 26.093260601803195,198.0328501430813 26.01724441317492,197.974903323513 25.96498328348389,197.85900952453085 25.912722153792856,197.79052672493708 25.79394685907755,197.78525881418318 25.70367763505783,197.779990903 25.708428646845277,197.74311551238497 25.741685729357414,197.73784759767295 25.72268168220762,197.73257968251346 25.694175611482933,197.75365134048116 25.670420552545693,197.75891925386532 25.689424599695485,197.7694550792985 25.684673587908037,197.764187166802 25.69892662327038,197.75365134048116 25.70367763505783,197.74311551238497 25.627661446429556,197.63248921103877 25.618159422825556,197.55873823558431 25.570649304951075,197.46391542601123 25.546894246013835,197.43757573136463 25.485131092747906,197.40070014036246 25.41861692769453,197.3532886345056 25.342600739037152,197.35855658135551 25.290339609375224,197.32168094410736 25.26183353862143,197.32168094410736 25.195319373568054,197.34802068719728 25.114552173152333,197.39016425325462 25.057540031673852,197.42177190928123 24.98152384304558,197.42177190928123 24.92926271338365,197.46391542601123 24.843744501151377,197.5271306482391 24.78198134788545,197.56927409450145 24.734471229981864,197.57980995166508 24.65845504135359,197.61141751256946 24.582438852725318,197.65356090245768 24.4921696287347,197.70097218237424 24.387647369352635,197.779990903 24.297378145332914,197.87481323692919 24.188104874192504,197.8958848473303 24.131092732714023,197.8853490430156 24.00756642621127,197.8853490430156 23.94105226112879,197.8853490430156 23.964807320095133,197.85900952453085 23.99331339081982,197.87481323692919 23.96005630827858,197.86954533324024 23.9125461904041,197.86427742910382 23.836530001746723,197.8063304545176 23.784268872084795,197.83266999502302 23.693999648094177,197.81686627204544 23.6179834594368,197.78525881418318 23.53721625902108,197.7957946352326 23.45169804681791,197.69043634548143 23.38993489355198,197.65356090245768 23.356677811039845,197.6166854378498 23.3329227520735,197.61141751256946 23.27115959880757,197.5271306482391 23.199894421966746,197.50079098002243 23.199894421966746,197.50605891455416 23.19039239839185,197.49025510964566 23.176139363029506,197.41650396770638 23.204645433754195,197.33221684266755 23.180890374816954,197.26900142488012 23.11912722152192,197.18998206347896 23.090621150826337,197.13203446880289 23.0478620447102,197.06881885018447 23.028857997560408,196.9687273243544 23.005102938594064,196.863367651702 22.95759282069048,196.7000598109189 22.895829667453654,196.61577172749458 22.829315502371173,196.55255559092257 22.800809431646485,196.47880335144146 22.753299313772004,196.378710888348 22.68203413693118,196.28388630294648 22.66778110153973,196.2206698334012 22.629773007211043,196.2206698334012 22.629773007211043,196.22593787495134 22.644026042573387,196.23647395672742 22.63452401899849,196.22593787495134 22.644026042573387,196.23120591605402 22.64877705438994,196.22593787495134 22.70578919586842,196.13638110867396 22.691536160506075,196.14691720542396 22.620270983636146,196.15218525314413 22.629773007211043,196.1679893936489 22.620270983636146,196.17325743961192 22.629773007211043,196.17852548512747 22.6250219954527,196.1679893936489 22.629773007211043,196.16272134724568 22.629773007211043,196.15745330040954 22.639275030815043,196.15218525314413 180.90973077600938,92.14340703262133 180.81471054023132,92.20145161081018 180.81471054023132,92.20145161081018 180.81471054023132,92.20145161081018 180.73869435160304,92.24366581565482 180.62942108043353,92.31754060560706 23.11912722152192,197.158374291168 23.180890374816954,197.25846551576615 23.180890374816954,197.36909247374933 23.19039239839185,197.49552304506142 23.209396445541643,197.6166854378498 23.280661622382468,197.71677593443383 23.309167693107156,197.85900952453085 23.313918704923708,197.98543911285742 23.3329227520735,198.1803508978919 23.356677811039845,198.34892276634855 23.380432869977085,198.4700835182557 23.385183881764533,198.643922451065 23.36617983461474,198.79668960218987 23.37093084640219,198.8862425875668 23.256906563445227,198.98633106767738 23.057364068285096,199.00213449738658 22.92908674996579,199.03374134489786 22.796058419859037,199.08115158643704 22.644026042573387,199.14963298346993 22.50149568892084,199.1970431378104 22.387471405934775,199.23391767764406 22.273447123006918,199.29713112431637 22.168924863624852,199.34980894810724 22.09290867499658,199.41302227851702 22.050149568909546,199.4604322347259 22.050149568909546,199.45516446358306 22.00263945100596,199.50257438808694 21.92662326237769,199.53418098459952 21.812598979420727,199.5394487491467 21.727080767217558,199.5973941300872 21.636811543197837,199.650071702883 21.589301425294252,199.723820230829 21.513285236695083,199.79756867247852 21.408762977313017,199.77649769796335 21.299489706143504,199.7870331860977 21.190216435003094,199.80810415710948 21.066690128471237,199.79756867247852 20.971669892664067,199.7606944624422 20.867147633311106,199.77649769796335 20.79113144465373,199.79756867247852 20.710364244238008,199.84497833940623 20.610592996672494,199.87658476420256 20.50607073729043,199.902923439422 20.458560619415948,199.98720712617433 20.425303536874708,200.08729385777406 20.430054548662156,200.16104187409292 20.368291395396227,200.18211272005283 20.325532289309194,200.2137189757632 20.25426711246837,200.22425439082144 20.13549181772396,200.2137189757632 20.030969558341894,200.20845126758286 19.92169628717238,200.2505929207582 19.92644729895983,200.28219914212968 19.93119831077638,200.36648232166772 19.92644729895983,200.42969463234476 19.893190216447692,200.48237150948626 19.888439204660244,200.5403160234746 19.864684145723004,200.6087958349708 19.81242301603197,200.7141492458286 19.679394685925217,200.69834624542273 19.603378497296944,200.7457552347514 19.513109273277223,200.78789652863998 19.427591061074054,200.78789652863998 19.40383600210771,200.7352199068555 19.370578919595573,200.7457552347514 19.34207284884178,200.6878109096324 19.313566778117092,200.67727557205944 19.35632588423323,200.6193311839961 19.37532993138302,200.6298665312206 19.327819813479437,200.666740232733 19.299313742725644,200.7615582232611 19.304064754542196,200.91432024128517 19.346823860658333,201.0776171614707 19.427591061074054,201.20930791795035 19.299313742725644,201.2619841434971 19.190040471585235,201.40420973258006 19.142530353710754,201.59911094454583 19.147281365498202,201.74133577291286 19.03800809432869,201.89409541629357 19.004751011787448,202.09953021505135 19.11402428295696,202.15220569663143 19.152032377256546,202.268091601145 19.152032377256546,202.3576396541539 19.09502023580717,202.53673537854047 19.17578743622289,202.62628304990722 19.2945627309673,202.70002809552898 19.432342072861502,202.75270307529718 19.565370402968256,202.9054602676697 19.63663557980908,203.0371472053739 19.831427063181764,203.1741013287574 20.011965511192102,203.24784573346915 20.154495864873752,203.22150845597207 20.35403836000478,203.20043862606326 20.534576808015117,203.26891554756003 20.734119303204352,203.3110551545833 20.93366179833538,203.32685749994926 21.038184057717444,203.33739239466377 21.16646137603675,203.3953342841196 21.32324476510985,203.40586916739267 21.465775118762394,203.42167148898807 21.622558507835492,203.45327612032634 21.788843920483487,203.44800868287712 21.92662326237769,203.4901481701745 22.078655639634235,203.5217527671739 22.249692064069677,203.53755505972367 22.430230512050912,203.5480899192262 22.58701390112401,203.50068303760418 22.710540207655868,203.46381099390783 22.857821573124966,203.5059504706478 23.024106985743856,203.50068303760418 23.123878233338473,203.42693892864554 23.209396445541643,203.54282248968957 23.356677811039845,203.69031035019725 23.356677811039845,203.8694022883501 23.42319197609322,204.01688938478037 23.53246524723363,203.91154149396607 23.746260777756106,203.95894806661818 23.96005630827858,203.90627409481021 24.121590709139127,203.76405415106274 24.297378145332914,203.6692406769689 24.454161534406012,203.77985638287646 24.610944923450006,203.8536000789718 24.862748548330273,203.8588674825296 24.98152384304558,203.80619342709906 25.143058243906125,203.74298450246351 25.314094668312464,203.69031035019725 25.470878057385562,203.57442706027723 25.594404363888316,203.65343841743015 25.732183705782518,203.75351932763442 25.884216083068168,203.785123792597 26.007742389600025,203.7745889727048 26.13601970791933,203.72191484685027 26.321309167688014,203.70611260049918 26.478092556761112,203.7008451841757 26.62537392223021,203.65870583771903 26.729896181612276,203.61656646308256 26.877177547081374,203.61656646308256 27.043462959700264,203.69031035019725 27.190744325169362,203.72718226142024 27.304768608126324,203.75878673956686 27.437796938233078,203.8536000789718 27.480556044349214,204.01162199442842 27.58507830373128,204.15384137966248 27.566074256552383,204.33293200094704 27.504311103286454,204.4962200652044 27.475805032561766,204.68057704879902 27.58032729194383,204.81752760190284 27.57557628012728,204.9702797909231 27.437796938233078,205.09142781561968 27.281013549189083,205.15463538825497 27.214499384135706,205.30211947798307 27.26200950203929,205.4759395693727 27.35227872602991,205.63922467322845 27.51381312686135,205.73930243108407 27.656343480543,205.85518174173194 27.642090445180656,206.00793141671966 27.827379905007547,206.03426753018357 27.908147105423268,206.1659479324553 28.04592644731747,206.27655925782892 28.22646489532781,206.37663600406813 28.359493225434562,206.49778132645224 28.478268520149868,206.62419358860643 28.57803976771538,206.77694140054882 28.67781101531,206.91915454800983 28.844096427957993,207.05610023871122 29.02938588775578,207.05083310226837 29.214675347524462,207.0929701815403 29.37145873659756,207.17197712930283 29.561499208182795,207.2193812504338 29.71828259722679,207.26678533592712 29.884568009874783,207.3563262890675 30.050853422522778,207.37739473016336 30.20288579975022,207.3089222708877 30.38342424776056,207.27731957231663 30.563962695770897,207.27731957231663 30.739750131964684,207.28785380693807 30.87277846210054,207.25625109778775 31.015308815753087,207.2088470043709 31.153088157676393,207.15090861957287 31.290867499570595,207.25098397804686 31.414393806102453,207.3089222708877 31.542671124392655,207.37212762055424 31.56167517157155,207.50907232746977 31.632940348412376,207.6460167369696 31.751715643156786,207.7618925434508 31.832482843572507,207.9146375994169 31.913250043988228,207.89356933783347" stroke="#4DD2FF" stroke-dasharray="none" stroke-linecap="round" stroke-linejoin="round" stroke-width="0.5"><title>2026-03-14 12.0km</title><desc>9223370263378906807</desc></polyline></svg>