<?xml version="1.0" encoding="utf-8" ?>
<svg baseProfile="full" height="300mm" version="1.1" viewBox="0,0,200,300" width="200mm" xmlns="http://www.w3.org/2000/svg" xmlns:ev="http://www.w3.org/2001/xml-events" xmlns:xlink="http://www.w3.org/1999/xlink"><defs /><rect fill="#222222" height="300" width="200" x="0" y="0" /><text fill="#FFFFFF" style="font-size:12px; font-family:Arial; font-weight:bold;" x="10" y="20">Over 10km Runs</text><text fill="#FFFFFF" style="font-size:4px; font-family:Arial" x="10" y="280">Runner</text><text fill="#FFFFFF" style="font-size:9px; font-family:Arial" x="10" y="290">yihong0618</text><text fill="#FFFFFF" style="font-size:4px; font-family:Arial" x="65" y="280">SPECIAL TRACKS</text><rect fill="yellow" height="2.6" width="2.6" x="65" y="283" /><text fill="#FFFFFF" style="font-size:3px; font-family:Arial" x="70" y="285.5">Over 20.0 km</text><rect fill="red" height="2.6" width="2.6" x="65" y="287" /><text fill="#FFFFFF" style="font-size:3px; font-family:Arial" x="70" y="289.5">Over 40.0 km</text><text fill="#FFFFFF" style="font-size:4px; font-family:Arial" x="120" y="280">STATISTICS</text><text fill="#FFFFFF" style="font-size:3px; font-family:Arial" x="120" y="285">Number: 1</text><text fill="#FFFFFF" style="font-size:3px; font-family:Arial" x="120" y="290">Weekly: 1.0</text><text fill="#FFFFFF" style="font-size:3px; font-family:Arial" x="141" y="285">Total: 12.0 km</text><text fill="#FFFFFF" style="font-size:3px; font-family:Arial" x="141" y="290">Avg: 12.0 km</text><text fill="#FFFFFF" style="font-size:3px; font-family:Arial" x="167" y="285">Min: 12.0 km</text><text fill="#FFFFFF" style="font-size:3px; font-family:Arial" x="167" y="290">Max: 12.0 km</text><polyline fill="none" opacity="1" points="29.46647897240473,207.4827355761081 29.34770367766032,207.41426294524717 29.200422312162118,207.3721259046797 29.067393982055364,207.31945456438552 28.94861868734006,207.32998883596883 28.67781101531,207.26678318007907 28.644553932797862,207.2720503204946 28.56853774416959,207.09823445466463 28.525778638053453,207.03502856646082 28.421256378671387,206.88754791428073 28.359493225434562,206.80327310099165 28.259721977839945,206.676860669897 28.21696287172381,206.63472313652528 28.098187577008503,206.59785277173796 27.993665317626437,206.5504479853298 27.884392046456924,206.4767071356291 27.87013901109458,206.37663013021665 27.78937181067886,206.31342351863714 27.656343480543,206.32922517747647 27.613584374455968,206.16594117855493 27.594580327306176,206.03426022624262 27.480556044349214,206.01319124834117 27.366531761421356,205.94998427242172 27.300017596338876,205.83410465198904 27.195495336985914,205.74456116305737 27.157487242657226,205.59181021193945 27.185993313411018,205.41798971392927 27.366531761421356,205.36531674112484 27.51381312686135,205.29684181070843 27.556572232977487,205.13882245664354 27.475805032561766,205.05981263106878 27.471054020774318,204.92286203220283 27.442547950020526,204.76484174075813 27.532817174011143,204.64369258241277 27.566074256552383,204.49093896394334 27.537568185827695,204.36452189635747 27.49005806792411,204.23283718137463 27.399788843933493,204.10641959619898 27.276262537401635,204.02740847673704 27.22875241949805,204.0379432983791 27.257258490251843,204.03267588777453 27.22875241949805,204.04321070855076 27.224001407710603,204.0484781182713 27.224001407710603,204.04321070855076 27.20974837234826,204.0484781182713 27.214499384135706,204.05374552754802 27.214499384135706,204.0484781182713 27.128981171903433,203.9325950026432 27.138483195507433,203.80617681536387 27.16698926623212,203.7060955706511 27.2430054548895,203.61654905910473 27.333274678880116,203.54807222915406 27.399788843933493,203.4795953248322 27.518564138677903,203.39531595584776 27.63733943339321,203.27943163950113 27.713355622050585,203.21622192261566 27.71810663380893,203.1161397412361 27.627837409818312,203.03185988629411 27.566074256552383,202.92650990918264 27.537568185827695,202.78428716077542 27.566074256552383,202.6789367698766 27.570825268368935,202.57358620290324 27.613584374455968,202.42609511334012 27.51381312686135,202.34181433576668 27.480556044349214,202.28913879256652 27.395037832146045,202.19432270387188 27.414041879295837,202.00995767865243 27.485307056136662,201.93094393135107 27.49005806792411,201.79398653469252 27.51381312686135,201.63595839953632 27.60408235088107,201.50953560613198 27.627837409818312,201.3725772937978 27.651592468784656,201.26195690117675 27.627837409818312,201.13553335758843 27.627837409818312,201.01964488653903 27.594580327306176,200.93536222828698 27.589829315518728,200.79840266826432 27.651592468784656,200.62983664734202 27.699102586659137,200.508679541319 27.684849551296793,200.3822544867362 27.661094492359553,200.2558291785208 27.67059651593445,200.10833266508052 27.675347527721897,199.93449704535306 27.67059651593445,199.8133386025802 27.17174027801957,199.06004392786417 27.0862220658164,199.0442404466412 27.06246700687916,198.94415164022575 27.02920992433792,198.86513404917787 27.00545486540068,198.83352698501403 26.981699806434335,198.7492414031003 26.929438676772406,198.6965628571379 26.858173499902477,198.63861640572577 26.786908323090756,198.57540203432654 26.74414921697462,198.54379482484364 26.68713707549614,198.4647767317947 26.577863804326626,198.37522277319295 26.5065986274858,198.28040079596758 26.435333450644976,198.2382576491873 26.335562203079462,198.2645971192469 26.22628893190995,198.28566868734197 26.131268696131883,198.30674024840482 26.02199542496237,198.2645971192469 25.98873834242113,198.1592391730046 25.950730248121545,198.09075641348318 25.85571001234348,198.04861313985748 25.732183705782518,198.07495268917046 25.708428646845277,198.01700566615546 25.71317965866183,197.99593400818776 25.71317965866183,198.01173775231655 25.69892662327038,198.01173775231655 25.679922576091485,198.0328094049728 25.67517156433314,198.0328094049728 25.679922576091485,198.03807731704728 25.679922576091485,198.02227357953961 25.69892662327038,198.00120192334725 25.69892662327038,198.00120192334725 25.627661446429556,197.89584353671307 25.618159422825556,197.82209256125861 25.570649304951075,197.72726975168553 25.546894246013835,197.70093005703893 25.49938412811025,197.66405446603676 25.43762097484432,197.62191090702981 25.352102762641152,197.62717885343955 25.290339609375224,197.58503526978166 25.257082526833983,197.60083911695983 25.233327467896743,197.59557116834185 25.143058243906125,197.63244679942363 25.086046102427645,197.67459035136926 25.01478092558682,197.66405446603676 24.967270807683235,197.70619799684573 24.881752595450962,197.75360943531996 24.824740454001585,197.80628876955598 24.772479324310552,197.82736049093 24.710716171044623,197.8642359863843 24.65845504135359,197.86950391252685 24.558683793788077,197.9379869125114 24.45891254619346,197.96959442586012 24.37339433399029,198.0591489609069 24.28787612178712,198.1592391730046 24.183353862405056,198.16450707448894 24.121590709139127,198.1487033686899 24.00756642621127,198.1487033686899 23.94105226112879,198.1487033686899 23.964807320095133,198.12236385020515 23.99331339081982,198.13816756260348 23.964807320095133,198.12763175477812 23.9125461904041,198.13289965891454 23.85078303713817,198.07495268917046 23.79377089565969,198.0696847801919 23.713003695273073,198.11709594518106 23.65599155376549,198.0433452286743 23.56097131795832,198.09075641348318 23.484955129330046,197.99593400818776 23.42319197609322,197.91691522813198 23.356677811039845,197.8800397635241 23.347175787435845,197.89057561274967 23.318669716682052,197.82736049093 23.25215555165778,197.75887737073572 23.19039239839185,197.7904849739134 23.1951434101793,197.77468117430908 23.180890374816954,197.74307356318604 23.180890374816954,197.66405446603676 23.1951434101793,197.5797673198358 23.16663733945461,197.52708779622117 23.114376209763577,197.4480684281989 23.090621150826337,197.39012082868794 23.0478620447102,197.32690520478718 23.028857997560408,197.2320816500287 23.005102938594064,197.1267219773763 22.96234383250703,196.96868213807466 22.891078655637102,196.88966206977057 22.838817525975173,196.83171395669706 22.80556044340483,196.77376579032716 22.76755234913435,196.65786929770547 22.691536160506075,196.57358080553968 22.68203413693118,196.49456024172832 22.653528066177387,196.4840241590755 22.6250219954527,196.49456024172832 22.64877705438994,196.49456024172832 22.63452401899849,196.4840241590755 22.644026042573387,196.4840241590755 22.644026042573387,196.4787561170706 22.68203413693118,196.46822003177294 22.701038184051868,196.41027153109826 22.691536160506075,196.43661176528622 22.606017948273802,196.42080762608384 22.6250219954527,196.43661176528622 22.620270983636146,196.44714785587712 22.6250219954527,196.43661176528622 22.6250219954527,196.4313437193232 22.629773007211043,196.42607567291998 22.629773007211043,196.42607567291998 22.639275030815043,196.41553957881843 180.90973077600938,92.40676135829563 180.81471054023132,92.46480593648448 180.81471054023132,92.46480593648448 180.81471054023132,92.46480593648448 180.7244413162407,92.52285046081306 180.62942108043353,92.58089493128136 23.104874186159577,197.39012082868794 23.147633292275714,197.50601597443892 23.185641386604402,197.5903032192764 23.171388351242058,197.71146593621597 23.1951434101793,197.84316427733938 23.24740453987033,197.92218314987986 23.294914657744812,198.0328094049728 23.294914657744812,198.18557867607524 23.323420728498604,198.31200813756732 23.351926799223293,198.50691972708591 23.375681858189637,198.65441998866663 23.39468590533943,198.77031280914525 23.380432869977085,198.94415164022575 23.37093084640219,199.08111522997933 23.37093084640219,199.16540036804508 23.24265352805378,199.24968539335168 23.057364068285096,199.27075663208961 22.92908674996579,199.29709567057216 22.796058419859037,199.34450591211134 22.65827907793573,199.41298730914423 22.520499736070633,199.45512967032482 22.392222417751327,199.4920042132362 22.306704205548158,199.56575323434663 22.178426887228852,199.60262771253838 22.09290867499658,199.66584105353104 22.050149568909546,199.72378656040019 22.059651592484443,199.7132510176598 22.021643498155754,199.74485764058772 21.96938236846472,199.78699977985525 21.869611120899208,199.80807083892432 21.755586837942246,199.83440965283808 21.66531761395163,199.90289051751824 21.617807496048044,199.9450325511134 21.570297378173564,200.04511976792492 21.465775118762394,200.06619074069022 21.385007918346673,200.0345842789029 21.25197958823992,200.06619074069022 21.14270631709951,200.05565525518978 21.052437093108892,200.05565525518978 20.96216786908917,200.0240487881165 20.84339257434476,200.04511976792492 20.781629421078833,200.06092299815282 20.710364244238008,200.10833266508052 20.610592996672494,200.13993908987686 20.50607073729043,200.1662777650963 20.458560619415948,200.24529372471807 20.42055252508726,200.34538046469243 20.439556572237052,200.41912848717402 20.368291395396227,200.44019933489108 20.33978532467154,200.46653788464027 20.27802217140561,200.46653788464027 20.173499912023544,200.48760871649574 20.087981699820375,200.46127017557592 19.95970438150107,200.4981441298005 19.916945275414037,200.52975035911368 19.93119831077638,200.57189197352272 19.92644729895983,200.6772458862979 19.90744325183914,200.71411971415728 19.90269224002259,200.7562612052934 19.883688192843692,200.80893802960054 19.864684145723004,200.90375620239502 19.769663909915835,200.99330656793973 19.655639626958873,200.9775035715029 19.589125461905496,201.00384189669785 19.508358261489775,201.0617861733881 19.432342072861502,201.05125085431428 19.40383600210771,200.9985742325298 19.370578919595573,201.00384189669785 19.34207284884178,200.9511652353067 19.308815766329644,200.9458975667294 19.35632588423323,200.8826855096704 19.38008094317047,200.88795318351185 19.332570825266885,200.94062989773374 19.280309695575852,200.98803890290583 19.327819813479437,201.13026570444345 19.32306880169199,201.30936566463788 19.418089037499158,201.4305212314939 19.34207284884178,201.5148032275938 19.23755058948882,201.59908511097456 19.147281365498202,201.7623809393699 19.190040471585235,201.92040875755265 19.08551821220317,202.0731686051986 19.009502023604,202.23646320535045 19.03800809432869,202.41556002230573 19.161534400860546,202.46823545985535 19.128277318319306,202.54724853365042 19.133028330135858,202.66840172111552 19.080767200444825,202.8474973107841 19.194791483372683,202.9001723873953 19.31831778990454,202.96338242120328 19.451346120011294,203.03185988629411 19.570121414755704,203.17408207613335 19.655639626958873,203.31103647416603 19.831427063181764,203.4374556544317 20.002463487617206,203.51120005914345 20.140242829482304,203.50066514947684 20.33978532467154,203.45325803411833 20.510821749077877,203.5375373256502 20.696111208875664,203.5691420309231 20.886151680460898,203.59547927320455 21.009677986992756,203.60074672033807 21.147457328886958,203.63761883797633 21.270983635418816,203.65342116749525 21.413513989100466,203.66395605164143 21.546542319178116,203.70082813231056 21.703325708280317,203.71136300855142 21.850607073749416,203.72189788300602 21.988386415643618,203.7535024958488 22.130916769296164,203.79564195498097 22.29245117015671,203.80617681536387 22.4777406299836,203.81671167400054 22.629773007211043,203.74296762667655 22.748548301955452,203.72716531958213 22.900580679212,203.7798396611215 23.028857997560408,203.76403736327848 23.128629245155025,203.7060955706511 23.228400492691435,203.80617681536387 23.36142882279819,203.95893209308633 23.356677811039845,204.1327566140244 23.41844096427667,204.2591741463766 23.51346120008384,204.1801632183524 23.732007742393762,204.21703499708383 23.92679922579555,204.18543061663877 24.08358261481044,204.0484781182713 24.23561499209609,203.9431298401396 24.416153440106427,204.01687365330872 24.54443075839663,204.1169544046461 24.78198134788545,204.1169544046461 24.9245117015671,204.095884786002 25.07654407885275,204.0379432983791 25.228576456109295,203.95893209308633 25.39486186875729,203.91152532236083 25.5041351398977,203.8693859406958 25.6514165053959,203.95366467587155 25.78444483547355,204.05374552754802 25.917473165609408,204.06954775277336 26.036248460324714,204.01687365330872 26.17402780224802,203.96946692617348 26.349815238441806,203.98526917252457 26.497096603910904,203.95893209308633 26.644377969380002,203.91152532236083 26.748900228762068,203.87992078875686 26.88667957065627,203.87992078875686 27.043462959700264,203.95366467587155 27.185993313411018,203.98526917252457 27.285764561005635,204.01160624095428 27.418792891083285,204.10115219131694 27.480556044349214,204.2591741463766 27.58032729194383,204.3908588063423 27.561323244764935,204.55941476971202 27.518564138677903,204.71216822225324 27.504311103286454,204.89125800559486 27.49956009152811,205.0545453058512 27.594580327306176,205.1862283044502 27.504311103286454,205.31791102799252 27.34752771424246,205.36004944143133 27.238254443072947,205.49699909061746 27.200246348773362,205.66028482198817 27.31427063170122,205.80776834491917 27.390286820358597,205.95525152284972 27.58032729194383,206.02372573818866 27.651592468784656,206.1554067124889 27.675347527721897,206.29235463403893 27.874890022882028,206.29762185585787 27.917649128998164,206.45563830556785 28.055428470892366,206.5451807846439 28.24071793066105,206.65052471484523 28.36899524900946,206.76640283476445 28.478268520149868,206.88754791428073 28.57803976771538,207.04029572622312 28.673060003551655,207.17197457747534 28.806088333629305,207.3036531537182 28.99612880521454,207.32472170038818 29.186169276799774,207.35105737384947 29.33820165405632,207.40899581672056 29.528242125641555,207.46166708222154 29.666021467535757,207.51960542346205 29.83230688018375,207.5670094812449 29.984339257440297,207.64601616501386 30.141122646513395,207.58807793992673 30.283653000195045,207.57754371146802 30.46894245999283,207.54067389799093 30.649480907974066,207.53540678000718 30.787260249868268,207.54067389799093 30.929790603549918,207.48800269849016 31.062818933656672,207.44059858129913" stroke="#4DD2FF" stroke-dasharray="none" stroke-linecap="round" stroke-linejoin="round" stroke-width="0.5"><title>2026-03-14 12.0km</title><desc>9223370263378906807</desc></polyline></svg>