<?xml version="1.0" encoding="utf-8" ?>
<svg baseProfile="full" height="300mm" version="1.1" viewBox="0,0,200,300" width="200mm" xmlns="http://www.w3.org/2000/svg" xmlns:ev="http://www.w3.org/2001/xml-events" xmlns:xlink="http://www.w3.org/1999/xlink"><defs /><rect fill="#222222" height="300" width="200" x="0" y="0" /><text fill="#FFFFFF" style="font-size:12px; font-family:Arial; font-weight:bold;" x="10" y="20">Over 10km Runs</text><text fill="#FFFFFF" style="font-size:4px; font-family:Arial" x="10" y="280">Runner</text><text fill="#FFFFFF" style="font-size:9px; font-family:Arial" x="10" y="290">yihong0618</text><text fill="#FFFFFF" style="font-size:4px; font-family:Arial" x="65" y="280">SPECIAL TRACKS</text><rect fill="yellow" height="2.6" width="2.6" x="65" y="283" /><text fill="#FFFFFF" style="font-size:3px; font-family:Arial" x="70" y="285.5">Over 20.0 km</text><rect fill="red" height="2.6" width="2.6" x="65" y="287" /><text fill="#FFFFFF" style="font-size:3px; font-family:Arial" x="70" y="289.5">Over 40.0 km</text><text fill="#FFFFFF" style="font-size:4px; font-family:Arial" x="120" y="280">STATISTICS</text><text fill="#FFFFFF" style="font-size:3px; font-family:Arial" x="120" y="285">Number: 1</text><text fill="#FFFFFF" style="font-size:3px; font-family:Arial" x="120" y="290">Weekly: 1.0</text><text fill="#FFFFFF" style="font-size:3px; font-family:Arial" x="141" y="285">Total: 12.0 km</text><text fill="#FFFFFF" style="font-size:3px; font-family:Arial" x="141" y="290">Avg: 12.0 km</text><text fill="#FFFFFF" style="font-size:3px; font-family:Arial" x="167" y="285">Min: 12.0 km</text><text fill="#FFFFFF" style="font-size:3px; font-family:Arial" x="167" y="290">Max: 12.0 km</text><polyline fill="none" opacity="1" points="30.392926271335455,207.27205245433288 30.250395917653805,207.29312092359396 30.112616575759603,207.32999072783423 29.984339257440297,207.37739473016336 29.87031497451244,207.33525784096128 29.699278550047893,207.27205245433288 29.604258314269828,207.2299154947359 29.447474925225833,207.21411412761518 29.33820165405632,207.14037436207582 29.190920288587222,207.09823731446522 29.05314094669302,207.05610023871122 28.93911666373606,207.0719016454168 28.64930494458531,206.99816171355633 28.63980292098131,206.99816171355633 28.573288755957037,206.82434581867346 28.521027626266005,206.76640708058403 28.42600739048794,206.61365924309575 28.354742213647114,206.5346515957608 28.254970966052497,206.408239154076 28.202709836361464,206.37136881085098 28.088685553404503,206.3292312493286 27.969910258660093,206.29236085990124 27.87013901109458,206.20281839581003 27.874890022882028,206.10274137367378 27.779869787103962,206.05533641301736 27.64684145699721,206.0606036326426 27.618335386243416,205.8920523868146 27.58507830373128,205.7656386567578 27.471054020774318,205.74983692266687 27.35227872602991,205.6760954446072 27.29051557276398,205.5654830657877 27.185993313411018,205.47067230091488 27.152736230869778,205.31792132426926 27.20499736056081,205.12829890735884 27.376033784996253,205.09669511575703 27.518564138677903,205.02822017960352 27.561323244764935,204.86493349326702 27.466303008957766,204.7911909801769 27.475805032561766,204.6489730327521 27.452049973624526,204.48568536414678 27.537568185827695,204.36453617543157 27.566074256552383,204.22231726551763 27.52331515046535,204.10116757068317 27.49480907971156,203.95894806661818 27.390286820358597,203.83779786564264 27.2335034312855,203.74825191527998 27.22875241949805,203.7745889727048 27.252507478464395,203.7745889727048 27.224001407710603,203.77985638287646 27.224001407710603,203.785123792597 27.224001407710603,203.77985638287646 27.20974837234826,203.785123792597 27.214499384135706,203.79039120187372 27.214499384135706,203.785123792597 27.12423016014509,203.65870583771903 27.138483195507433,203.53755505972367 27.17174027801957,203.43220636786646 27.247756466676947,203.3479272876175 27.338025690667564,203.28471790347976 27.409290867537493,203.21097354189988 27.532817174011143,203.12669416585777 27.642090445180656,203.0108098398341 27.71810663380893,202.94760011766266 27.71810663380893,202.8475179279303 27.618335386243416,202.76323806595246 27.566074256552383,202.65262057611108 27.54707020940259,202.51566531972276 27.566074256552383,202.40504739544122 27.570825268368935,202.29969681086004 27.618335386243416,202.15747324237236 27.504311103286454,202.07846001009239 27.475805032561766,202.01524935296766 27.390286820358597,201.92570081352096 27.423543902870733,201.74133577291286 27.49480907971156,201.65705443187835 27.485307056136662,201.52009701234783 27.518564138677903,201.36206885076172 27.60883336266852,201.23564603622435 27.627837409818312,201.09342006677252 27.656343480543,200.98279964640824 27.627837409818312,200.86691137876915 27.63258842160576,200.7510228980209 27.59933133906452,200.65620489166395 27.58507830373128,200.5139776146425 27.656343480543,200.35594693039093 27.699102586659137,200.2400575101019 27.684849551296793,200.10836472838855 27.67059651593445,199.98193939904377 27.665845504147,199.83444286093436 27.689600563113345,199.6131974065429 27.675347527721897,199.5394487491467 27.16698926623212,198.80195742839715 27.081471054028952,198.7808861209669 27.06246700687916,198.68079731455146 27.02920992433792,198.60704756599807 27.00545486540068,198.56490481378205 26.981699806434335,198.485887077426 26.91993665319751,198.4332085314636 26.858173499902477,198.3699942181811 26.786908323090756,198.3067798415068 26.73939820518717,198.28044049916934 26.677635051921243,198.19088665287927 26.573112792539177,198.10660056364577 26.501847615727456,198.0117785784896 26.430582438857527,197.974903323513 26.33081119126291,198.00651068624575 26.22628893190995,198.02231436166767 26.12651768431533,198.04338592273052 26.02199542496237,197.99597490043016 25.98873834242113,197.8958848473303 25.945979236334097,197.81159836349616 25.84145697695203,197.78525881418318 25.727432694024174,197.80106254508792 25.71317965866183,197.74838342664225 25.717930670420174,197.73784759767295 25.71317965866183,197.74838342664225 25.694175611482933,197.779990903 25.679922576091485,197.75891925386532 25.670420552545693,197.764187166802 25.67517156433314,197.779990903 25.67517156433314,197.764187166802 25.694175611482933,197.73784759767295 25.694175611482933,197.73784759767295 25.622910434642108,197.62722128707537 25.608657399279764,197.55873823558431 25.565898293163627,197.4586474879543 25.546894246013835,197.43757573136463 25.485131092747906,197.40070014036246 25.432869963056874,197.3532886345056 25.342600739037152,197.35855658135551 25.29509062116267,197.3164129941615 25.26183353862143,197.3269488936021 25.214323420717847,197.33221684266755 25.133556220302125,197.37436041927867 25.071793067036197,197.41650396770638 25.01478092558682,197.40596808325063 24.95776878410834,197.44811161054167 24.877001583692618,197.49552304506142 24.819989442214137,197.54820237489912 24.767728312523104,197.5640061652557 24.705965159257175,197.60614958685255 24.653704029566143,197.6166854378498 24.558683793788077,197.6746325868371 24.45891254619346,197.70624010018582 24.363892310415395,197.8063304545176 24.278374098212225,197.8958848473303 24.169100827042712,197.90115274881464 24.11208868556423,197.8906169453876 24.002815414394718,197.8853490430156 23.94105226112879,197.88008114018885 23.964807320095133,197.85900952453085 23.99331339081982,197.87481323692919 23.96955833188258,197.86954533324024 23.9125461904041,197.86427742910382 23.85078303713817,197.8063304545176 23.79377089565969,197.8063304545176 23.703501671669073,197.84320580814529 23.65599155376549,197.7694550792985 23.54671828262508,197.82213418014362 23.480204117571702,197.71677593443383 23.42319197609322,197.65356090245768 23.356677811039845,197.6166854378498 23.347175787435845,197.61141751256946 23.313918704923708,197.5534703054509 23.24740453987033,197.49552304506142 23.19039239839185,197.5271306482391 23.1951434101793,197.51132684863478 23.176139363029506,197.47445130078995 23.180890374816954,197.39016425325462 23.1951434101793,197.3164129941615 23.152384304092266,197.25846551576615 23.114376209763577,197.1847141025246 23.090621150826337,197.11096260297563 23.05261305649765,197.05828290759382 23.024106985743856,196.9581913650145 23.005102938594064,196.863367651702 22.95759282069048,196.7000598109189 22.891078655637102,196.62103973601188 22.829315502371173,196.56309161810714 22.80556044340483,196.4998754286753 22.76755234913435,196.38924694458183 22.686785148689523,196.30495844535835 22.677283125114627,196.22593787495134 22.644026042573387,196.2154017913963 22.6250219954527,196.23120591605402 22.64877705438994,196.23120591605402 22.63452401899849,196.2206698334012 22.644026042573387,196.2206698334012 22.644026042573387,196.2154017913963 22.68203413693118,196.19959766277316 22.69628717226442,196.14691720542396 22.691536160506075,196.18379353020282 22.606017948273802,196.15745330040954 22.6250219954527,196.17325743961192 22.6155199718487,196.18379353020282 22.6250219954527,196.17325743961192 22.6250219954527,196.17325743961192 22.629773007211043,196.16272134724568 22.63452401899849,196.15745330040954 22.639275030815043,196.15745330040954 180.90973077600938,92.14340703262133 180.81471054023132,92.20145161081018 180.81471054023132,92.20145161081018 180.81471054023132,92.20145161081018 180.7244413162407,92.25949613513876 180.62942108043353,92.31754060560706 23.104874186159577,197.13203446880289 23.161886327638058,197.2479296048623 23.180890374816954,197.34802068719728 23.176139363029506,197.4586474879543 23.1951434101793,197.57980995166508 23.256906563445227,197.66936466639527 23.299665669561364,197.77472299137298 23.299665669561364,197.94329594492228 23.313918704923708,198.07499325110985 23.356677811039845,198.24883327383577 23.375681858189637,198.40160138275314 23.38993489355198,198.52276203338988 23.380432869977085,198.69660082088376 23.380432869977085,198.81776090430503 23.37093084640219,198.91258167670458 23.209396445541643,198.99686668793584 23.0478620447102,199.00740230641532 22.919584726390895,199.03900915127088 22.786556396255037,199.08115158643704 22.629773007211043,199.15490078015864 22.50149568892084,199.1970431378104 22.387471405934775,199.23391767764406 22.297202181944158,199.30239890867233 22.1736758754123,199.34980894810724 22.09290867499658,199.40248672785674 22.050149568909546,199.4657000054358 22.059651592484443,199.4498966919855 22.021643498155754,199.48150331491343 21.950378321344033,199.5183776883132 21.86486010911176,199.54471651325002 21.755586837942246,199.57105532716378 21.66531761395163,199.63953619184394 21.6130564842897,199.6869459776426 21.560795354569564,199.78176544225062 21.451522083429154,199.79756867247852 21.375505894771777,199.77649769796335 21.242477564694127,199.80283641501592 21.147457328886958,199.81863963995784 21.042935069533996,199.7870331860977 20.952665845514275,199.7606944624422 20.84339257434476,199.7870331860977 20.77212739753304,199.80283641501592 20.691360197088216,199.85024607797095 20.601090973068494,199.8713170278388 20.50131972550298,199.90819117315186 20.458560619415948,199.98720712617433 20.42055252508726,200.08202613901813 20.430054548662156,200.16104187409292 20.368291395396227,200.17684500921678 20.33028330106754,200.20318355896597 20.273271159589058,200.2137189757632 20.1592468766612,200.21898668352515 20.06897765264148,200.20318355896597 19.950202357926173,200.2295220976921 19.916945275414037,200.26639603343938 19.93119831077638,200.32960844448098 19.92644729895983,200.41915925163266 19.90269224002259,200.45603307641431 19.893190216447692,200.50870993154604 19.878937181085348,200.56138674263275 19.855182122119004,200.64566954879774 19.76016188634094,200.72468457723153 19.650888615171425,200.7194169117538 19.589125461905496,200.74048757102355 19.49410522612743,200.80369950658496 19.427591061074054,200.78262886844823 19.394333978532813,200.72995224226543 19.370578919595573,200.74048757102355 19.34207284884178,200.6878109096324 19.308815766329644,200.67200790261268 19.35632588423323,200.6193311839961 19.37532993138302,200.62459885783755 19.327819813479437,200.666740232733 19.285060707392404,200.74048757102355 19.32306880169199,200.89324964012485 19.327819813479437,201.05654661489461 19.432342072861502,201.18296978866783 19.332570825266885,201.25671652293022 19.232799577672267,201.35680123855855 19.152032377256546,201.51482941333597 19.190040471585235,201.67285719190477 19.071265176840825,201.8308845742722 19.004751011787448,201.9889115604601 19.05701214147848,202.14693815044666 19.156783389073098,202.21014867552003 19.11877529474441,202.29969681086004 19.123526306531858,202.4155824442023 19.08551821220317,202.59467800395942 19.194791483372683,202.64208556695303 19.327819813479437,202.70002809552898 19.46559915537364,202.76850556061981 19.565370402968256,202.92126271472443 19.669892662321217,203.06348455989428 19.84092908675666,203.18463624898868 20.011965511192102,203.24784573346915 20.154495864873752,203.22150845597207 20.349287348246435,203.1951711674701 20.534576808015117,203.26891554756003 20.70561323245056,203.3057877052488 20.905155727639794,203.32685749994926 21.009677986992756,203.33739239466377 21.156959352461854,203.39006684182095 21.275734647206264,203.3953342841196 21.42776702446281,203.40586916739267 21.560795354569564,203.43747380663626 21.71757874364266,203.4427412449768 21.869611120899208,203.45854355733172 22.00263945100596,203.4954156041058 22.140418792900164,203.53228762930667 22.297202181944158,203.54282248968957 22.487242653529393,203.5480899192262 22.63452401899849,203.4743458657431 22.75805032553035,203.4690784300401 22.910082702816,203.5217527671739 23.043111032922752,203.47961330100225 23.128629245155025,203.45854355733172 23.233151504478883,203.5480899192262 23.356677811039845,203.71138001639338 23.36142882279819,203.87993709238435 23.42319197609322,204.0221567746994 23.53246524723363,203.91154149396607 23.746260777756106,203.95894806661818 23.94105226112879,203.9168088926781 24.102586661989335,203.77985638287646 24.25937005103333,203.67450809592629 24.42565546365222,203.75878673956686 24.56818581733387,203.8588674825296 24.81523843042669,203.8588674825296 24.934013725141995,203.827263054558 25.086046102427645,203.76932156210023 25.23807847968419,203.69557776741203 25.40911490409053,203.63236873186906 25.518388175260043,203.61656646308256 25.66566954072914,203.7008451841757 25.79394685907755,203.785123792597 25.926975189184304,203.80619342709906 26.040999472112162,203.74825191527998 26.193031849368708,203.70611260049918 26.36406827380415,203.72718226142024 26.511349639302352,203.69031035019725 26.668133028317243,203.64290357552818 26.753651240549516,203.61656646308256 26.905683617835166,203.62183388646372 27.052964983304264,203.69557776741203 27.190744325169362,203.72718226142024 27.304768608126324,203.75878673956686 27.42829491465818,203.84833267496288 27.480556044349214,204.01162199442842 27.58032729194383,204.13803924158128 27.566074256552383,204.3118625425086 27.51381312686135,204.4593486037993 27.49480907971156,204.6384383572149 27.52331515046535,204.79645830539448 27.594580327306176,204.93340860676835 27.49480907971156,205.0598240055333 27.333274678880116,205.10196241545054 27.22875241949805,205.25471391532847 27.20974837234826,205.40746504512208 27.319021643488668,205.55494854339486 27.409290867537493,205.7076989457746 27.594580327306176,205.77090590056832 27.651592468784656,205.90785408524607 27.694351574900793,206.03426753018357 27.884392046456924,206.03426753018357 27.917649128998164,206.19755118806643 28.083934541617054,206.30289525908302 28.250219954235945,206.39770477250204 28.378497272584355,206.51358287307812 28.48301953196642,206.6347279323454 28.58754179131938,206.77694140054882 28.67781101531,206.91915454800983 28.834594404353993,207.05610023871122 29.01513285236433,207.05610023871122 29.186169276799774,207.08770304817517 29.352454689418664,207.16144287531642 29.53774414921645,207.20357988067553 29.680274502927205,207.2615182170848 29.841808903758647,207.3089222708877 29.989090269227745,207.38266183933956 30.155375681846635,207.31945650023044 30.312159070919733,207.3036551555706 30.487946507142624,207.28258668983835 30.66373394333641,207.27731957231663 30.801513285230612,207.27205245433288 30.953545662516262,207.22464837281586 31.06756994544412,207.17197712930283 31.200598275579978,207.18251138152118 31.319373570324387,207.28258668983835 31.45715291221859,207.31418938579372 31.547422136209207,207.40373027162786 31.575928206933895,207.5354078139244 31.65669540737872,207.67235216621702 31.756466654944234,207.77242669713087 31.837233855359955,207.9146375994169" stroke="#4DD2FF" stroke-dasharray="none" stroke-linecap="round" stroke-linejoin="round" stroke-width="0.5"><title>2026-03-14 12.0km</title><desc>9223370263378906807</desc></polyline></svg>