<?xml version="1.0" encoding="utf-8" ?>
<svg baseProfile="full" height="300mm" version="1.1" viewBox="0,0,200,300" width="200mm" xmlns="http://www.w3.org/2000/svg" xmlns:ev="http://www.w3.org/2001/xml-events" xmlns:xlink="http://www.w3.org/1999/xlink"><defs /><rect fill="#222222" height="300" width="200" x="0" y="0" /><text fill="#FFFFFF" style="font-size:12px; font-family:Arial; font-weight:bold;" x="10" y="20">Over 10km Runs</text><text fill="#FFFFFF" style="font-size:4px; font-family:Arial" x="10" y="280">Runner</text><text fill="#FFFFFF" style="font-size:9px; font-family:Arial" x="10" y="290">yihong0618</text><text fill="#FFFFFF" style="font-size:4px; font-family:Arial" x="65" y="280">SPECIAL TRACKS</text><rect fill="yellow" height="2.6" width="2.6" x="65" y="283" /><text fill="#FFFFFF" style="font-size:3px; font-family:Arial" x="70" y="285.5">Over 20.0 km</text><rect fill="red" height="2.6" width="2.6" x="65" y="287" /><text fill="#FFFFFF" style="font-size:3px; font-family:Arial" x="70" y="289.5">Over 40.0 km</text><text fill="#FFFFFF" style="font-size:4px; font-family:Arial" x="120" y="280">STATISTICS</text><text fill="#FFFFFF" style="font-size:3px; font-family:Arial" x="120" y="285">Number: 1</text><text fill="#FFFFFF" style="font-size:3px; font-family:Arial" x="120" y="290">Weekly: 1.0</text><text fill="#FFFFFF" style="font-size:3px; font-family:Arial" x="141" y="285">Total: 12.0 km</text><text fill="#FFFFFF" style="font-size:3px; font-family:Arial" x="141" y="290">Avg: 12.0 km</text><text fill="#FFFFFF" style="font-size:3px; font-family:Arial" x="167" y="285">Min: 12.0 km</text><text fill="#FFFFFF" style="font-size:3px; font-family:Arial" x="167" y="290">Max: 12.0 km</text><polyline fill="none" opacity="1" points="27.542319197615143,206.06848205877395 27.561323244764935,205.94733383164203 27.49005806792411,205.88412596855778 27.46155199719942,205.7682447216357 27.46155199719942,205.6576306054194 27.49480907971156,205.53121423495395 27.542319197615143,205.42059970283663 27.566074256552383,205.30471760389264 27.542319197615143,205.18883529193045 27.475805032561766,205.08875494199674 27.447298961837078,204.96760483211983 27.366531761421356,204.88332635751067 27.214499384135706,204.84645448943775 27.22875241949805,204.85698931107981 27.252507478464395,204.85698931107981 27.238254443072947,204.86225672125147 27.214499384135706,204.86225672125147 27.22875241949805,204.86225672125147 27.219250395923154,204.86225672125147 27.20974837234826,204.86752413097201 27.214499384135706,204.87279154024873 27.214499384135706,204.86225672125147 27.162238254473777,204.82011742759641 27.138483195507433,204.6884319533965 27.152736230869778,204.6041531055489 27.17174027801957,204.51460670624147 27.238254443072947,204.44612996212163 27.295266584551428,204.3829205938382 27.35227872602991,204.33551352602808 27.456800985411974,204.27230404681904 27.55182122119004,204.1985595743099 27.642090445180656,204.09321017820912 27.70385359847569,204.045802892535 27.722857645596378,203.9615231854841 27.680098539509345,203.8772433657723 27.58507830373128,203.8193009243514 27.556572232977487,203.70868338828222 27.54707020940259,203.59806565809777 27.566074256552383,203.5085178295958 27.570825268368935,203.42423740417507 27.594580327306176,203.3030840952306 27.60883336266852,203.21353584765166 27.49005806792411,203.1503252433613 27.475805032561766,203.09764969134267 27.40453985572094,203.03443897083707 27.409290867537493,202.89748219224566 27.456800985411974,202.7763278708262 27.509062115073903,202.69204646639628 27.49956009152811,202.5708917500997 27.518564138677903,202.44446918913673 27.594580327306176,202.3285816188327 27.623086398059968,202.22849672755183 27.63258842160576,202.11787639964678 27.656343480543,202.01252352590745 27.618335386243416,201.9282411001259 27.63258842160576,201.8334232363959 27.59933133906452,201.7649435794301 27.60408235088107,201.66485779311552 27.59933133906452,201.51209497071977 27.684849551296793,201.41727648092638 27.70385359847569,201.30665472919645 27.684849551296793,201.19076506676356 27.661094492359553,201.08541064325618 27.67059651593445,200.96425283850476 27.661094492359553,200.8272915613452 27.675347527721897,200.6534556655388 27.665845504147,200.61658132297453 27.16698926623212,199.88435776677215 27.0957240894204,199.85801863139568 27.067218018637504,199.79480466159657 27.03871194794192,199.72105495002688 27.019707900763024,199.65257299771474 27.00070385361323,199.63676945970656 26.981699806434335,199.56828741580102 26.934189688559854,199.51560886983862 26.877177547081374,199.4523945565561 26.820165405602893,199.43132310472356 26.763153264124412,199.4049837799903 26.725145169824827,199.34176935574942 26.677635051921243,199.27328699125428 26.592116839718074,199.19953666933725 26.511349639302352,199.12578626110553 26.440084462432424,199.07310734524435 26.40207636813284,199.06257155677667 26.311807144113118,199.09417891686462 26.22628893190995,199.10471470004268 26.14077071970678,199.11525048145631 26.040999472112162,199.10998259097687 25.998240365996026,199.03096418083805 25.96498328348389,198.94140986290586 25.922224177367752,198.88346288346293 25.84145697695203,198.8676591525582 25.741685729357414,198.89926661042045 25.69892662327038,198.846587505177 25.708428646845277,198.82551585075998 25.732183705782518,198.82551585075998 25.708428646845277,198.83605167885617 25.694175611482933,198.862391241375 25.684673587908037,198.8518554176735 25.670420552545693,198.84131959224032 25.69892662327038,198.84131959224032 25.694175611482933,198.8518554176735 25.67517156433314,198.84131959224032 25.694175611482933,198.82024793604796 25.70367763505783,198.82551585075998 25.6419144817919,198.7359612408327 25.618159422825556,198.6622102900401 25.608657399279764,198.6042630538468 25.565898293163627,198.53577988784673 25.546894246013835,198.51997606973964 25.508886151685147,198.48836842162564 25.44237198663177,198.44622486614026 25.390110856940737,198.41461718104256 25.323596691916464,198.4356889728806 25.290339609375224,198.40408128248237 25.26183353862143,198.4093492319771 25.24282949147164,198.4093492319771 25.162062291055918,198.4356889728806 25.105050149577437,198.47783253539455 25.057540031673852,198.50417224765624 24.986274854833027,198.49890430608139 24.95776878410834,198.53051194891668 24.886503607267514,198.57265544802067 24.83424247757648,198.62006685082451 24.78198134788545,198.65167443287646 24.75347527716076,198.65167443287646 24.69171212389483,198.69381785094447 24.653704029566143,198.69908577622482 24.563434805575525,198.74649708389188 24.4921696287347,198.78337252074925 24.406651416502427,198.83605167885617 24.344888263265602,198.9256061465203 24.25461903924588,198.97828518570532 24.169100827042712,198.98355308718965 24.131092732714023,198.9677493813906 24.026570473331958,198.97828518570532 23.964807320095133,198.96248147856386 23.96005630827858,198.95194567161525 23.964807320095133,198.94140986290586 23.99331339081982,198.9572135753042 23.96955833188258,198.9572135753042 23.931550237553893,198.96248147856386 23.87928910786286,198.920338240172 23.822276966413483,198.8887307928926 23.784268872084795,198.91507033339803 23.703501671669073,198.9256061465203 23.670244589156937,198.862391241375 23.579975365108112,198.89926661042045 23.518212211871287,198.857123329748 23.45169804681791,198.77283668385644 23.408938940701773,198.73069331864826 23.356677811039845,198.69908577622482 23.347175787435845,198.70962162545038 23.3329227520735,198.6727461454284 23.27115959880757,198.60953098661412 23.209396445541643,198.57792338343643 23.19039239839185,198.59899512064294 23.1951434101793,198.5937271870098 23.180890374816954,198.56738751216835 23.176139363029506,198.49890430608139 23.1951434101793,198.4304210255723 23.204645433754195,198.37774152838028 23.13338025691337,198.3303299432373 23.114376209763577,198.2671144408996 23.090621150826337,198.2144348071779 23.05261305649765,198.16702309916582 23.043111032922752,198.09327148244847 23.009853950381512,197.99317986457027 23.005102938594064,197.945767990077 22.95759282069048,197.7824601492939 22.895829667453654,197.7192440973049 22.872074608516414,197.66656400551437 22.81031145522138,197.60861585370003 22.81031145522138,197.54013160554678 22.753299313772004,197.461111226723 22.686785148689523,197.38735878373336 22.68203413693118,197.31887429510243 22.66778110153973,197.30833821332635 22.6250219954527,197.3030701717762 22.629773007211043,197.30833821332635 22.644026042573387,197.31887429510243 22.63452401899849,197.3030701717762 22.639275030815043,197.3030701717762 22.639275030815043,197.3030701717762 22.64877705438994,197.30833821332635 22.686785148689523,197.2451216856207 22.691536160506075,197.23458559151914 22.691536160506075,197.26619386857783 22.6155199718487,197.23985363878455 22.629773007211043,197.2503897320239 22.620270983636146,197.2503897320239 22.620270983636146,197.26092582350248 22.6250219954527,197.25565777798693 22.6250219954527,197.25565777798693 22.629773007211043,197.2451216856207 22.63452401899849,197.23458559151914 22.639275030815043,197.2503897320239 22.644026042573387,197.23985363878455 180.90973077600938,93.22580737099634 180.81471054023132,93.28385194918519 180.81471054023132,93.28385194918519 180.81471054023132,93.28385194918519 180.81471054023132,93.28385194918519 180.7244413162407,93.34189647351377 180.62942108043353,93.39994094398207 23.104874186159577,198.2144348071779 23.138131268700818,198.31979403058358 23.185641386604402,198.39881333253652 23.16663733945461,198.48836842162564 23.19039239839185,198.57792338343643 23.199894421966746,198.67801407247316 23.256906563445227,198.75176500477028 23.290163645986468,198.846587505177 23.294914657744812,198.96248147856386 23.313918704923708,199.06783945123243 23.3329227520735,199.22587607992682 23.36142882279819,199.35230509753092 23.375681858189637,199.48400172112815 23.39468590533943,199.57882311969297 23.385183881764533,199.72632278944002 23.36617983461474,199.85801863139568 23.380432869977085,199.93176818267239 23.356677811039845,200.01078546326607 23.209396445541643,200.07926702631084 23.057364068285096,200.0845348357616 22.95759282069048,200.1108738764524 22.848319549520966,200.1372129061274 22.734295266593108,200.17935533072887 22.61076896006125,200.23203332184494 22.50149568892084,200.2794434761854 22.392222417751327,200.30578243542186 22.335210276272846,200.358460320851 22.23068801689078,200.4058703800838 22.130916769296164,200.45328040365712 22.09290867499658,200.49542261689203 22.050149568909546,200.5481003438108 22.050149568909546,200.5428325731009 22.031145521759754,200.5481003438108 21.99313742740196,200.5955102603839 21.92662326237769,200.61658132297453 21.836354038357968,200.6323846152809 21.755586837942246,200.6534556655388 21.679570649343077,200.7166687740464 21.622558507835492,200.74300755053628 21.589301425294252,200.80622056920402 21.54179130741977,200.87996901085353 21.437269048037706,200.8747012678905 21.375505894771777,200.85889803633836 21.261481611814816,200.87996901085353 21.190216435003094,200.8905044954845 21.08569417562103,200.8905044954845 21.014428998780204,200.85889803633836 20.928910786577035,200.8430948008172 20.84339257434476,200.8694335244727 20.79113144465373,200.87996901085353 20.734119303204352,200.90103997833285 20.658103114546975,200.9431818921439 20.56783389058546,200.96425283850476 20.496568713715533,200.99585924480198 20.458560619415948,201.06960746454934 20.425303536874708,201.15915875820065 20.439556572237052,201.22237135946125 20.396797466120915,201.2592453475918 20.35878937182133,201.28031618827663 20.325532289309194,201.2961193141382 20.273271159589058,201.2961193141382 20.178250923810992,201.30665472919645 20.111736758757615,201.28558389734098 20.00721449937555,201.30665472919645 19.92169628717238,201.33299325913322 19.92169628717238,201.3593317780469 19.93119831077638,201.412008782856 19.92644729895983,201.46995343730669 19.916945275414037,201.51736266040461 19.893190216447692,201.56477184786127 19.888439204660244,201.6121809996257 19.869435157481348,201.6543224379384 19.855182122119004,201.72806988717275 19.783916945249075,201.81235258064044 19.679394685925217,201.78074658379774 19.603378497296944,201.82815557312642 19.555868379364256,201.8334232363959 19.484603202552535,201.8913675034055 19.427591061074054,201.86502920682324 19.40383600210771,201.8176202452305 19.370578919595573,201.82288790939856 19.34207284884178,201.8018172501288 19.31831778990454,201.7702112480074 19.35632588423323,201.7544082409877 19.35632588423323,201.70173152237112 19.38008094317047,201.70699919621256 19.34207284884178,201.7544082409877 19.299313742725644,201.7702112480074 19.308815766329644,201.86502920682324 19.304064754542196,201.99672057966018 19.327819813479437,202.13894695326962 19.408587013895158,202.23903198674088 19.384831954957917,202.32331399694522 19.26130564842606,202.3654549597668 19.190040471585235,202.48661007095507 19.152032377256546,202.63410293548077 19.190040471585235,202.75525753027978 19.09502023580717,202.8816794678787 19.014253035391448,203.00810115189597 19.004751011787448,203.18193055342635 19.09502023580717,203.21880339514973 19.161534400860546,203.30835163525626 19.11877529474441,203.38209714923505 19.137779341894202,203.48218020876084 19.09502023580717,203.61913571691548 19.142530353710754,203.69288086730012 19.232799577672267,203.76662593139918 19.35632588423323,203.78769593386824 19.46559915537364,203.85090589899482 19.565370402968256,203.9878606060447 19.60812950905529,204.10374512575436 19.726904803828802,204.20909450423278 19.883688192843692,204.30917625072107 20.040471581945894,204.3460484330717 20.154495864873752,204.30390879434708 20.320781277492642,204.27230404681904 20.458560619415948,204.33551352602808 20.62009502024739,204.3618507903193 20.77212739753304,204.3934554929583 20.93366179833538,204.40925783832427 21.009677986992756,204.41979273303878 21.133204293524614,204.45139740662125 21.237726552877575,204.47246718019596 21.351750835834537,204.48826950576768 21.465775118762394,204.50407182736308 21.589301425294252,204.53567645870135 21.71757874364266,204.5251415833518 21.836354038357968,204.53567645870135 21.955129333102377,204.5883508090228 22.078655639634235,204.6041531055489 22.202181946166093,204.62522282806458 22.3304592644854,204.6304902576012 22.487242653529393,204.6304902576012 22.620270983636146,204.56201363937726 22.710540207655868,204.54621133228284 22.829315502371173,204.5830833759792 22.952841808932135,204.61995539809868 23.057364068285096,204.54621133228284 23.128629245155025,204.54094389570673 23.209396445541643,204.62522282806458 23.33767376386095,204.73057133506154 23.318669716682052,204.8780589490998 23.413689952518325,204.96233743075936 23.437445011455566,205.09928972315538 23.53246524723363,204.99394183234108 23.713003695273073,205.03081361415389 23.865036072500516,204.99394183234108 24.045574520510854,204.9360004173468 24.150096779863816,204.83591966600943 24.297378145332914,204.75164101534392 24.42565546365222,204.84118707794187 24.534928734850837,204.92546560889969 24.705965159257175,204.9412678209046 24.877001583692618,204.94653522403678 24.98152384304558,204.88859376547407 25.105050149577437,204.84645448943775 25.23807847968419,204.77797810578704 25.38535984515329,204.74110617609404 25.485131092747906,204.66209482555132 25.594404363888316,204.73583875580516 25.71317965866183,204.80431518522528 25.812950906227343,204.85172190047524 25.926975189184304,204.88859376547407 26.02199542496237,204.84645448943775 26.13601970791933,204.80431518522528 26.27855006160098,204.78324552255071 26.42583142707008,204.81485001391775 26.53985571002704,204.76744327093184 26.668133028317243,204.7253039139032 26.729896181612276,204.69896680145757 26.843920464569237,204.68316452870204 26.981699806434335,204.74637359593908 27.11947914835764,204.7885129388742 27.185993313411018,204.81485001391775 27.304768608126324,204.84118707794187 27.409290867537493,204.909663392933 27.480556044349214,205.03081361415389 27.518564138677903,205.16249837314172 27.58032729194383,205.28364810847052 27.566074256552383,205.41533233932205 27.51381312686135,205.5417489421743 27.509062115073903,205.69976933924045 27.466303008957766,205.83672002965614 27.594580327306176,205.94206651213972 27.57557628012728,206.0526801292981 27.466303008957766,206.15275894903243 27.333274678880116,206.18436275382555 27.2430054548895,206.3055105254789 27.20499736056081,206.4213907848789 27.26200950203929,206.55833990774772 27.338025690667564,206.69528873313175 27.452049973624526,206.80590102879796" stroke="#4DD2FF" stroke-dasharray="none" stroke-linecap="round" stroke-linejoin="round" stroke-width="0.5"><title>2026-03-14 12.0km</title><desc>9223370263378906807</desc></polyline></svg>