<?xml version="1.0" encoding="utf-8" ?>
<svg baseProfile="full" height="300mm" version="1.1" viewBox="0,0,200,300" width="200mm" xmlns="http://www.w3.org/2000/svg" xmlns:ev="http://www.w3.org/2001/xml-events" xmlns:xlink="http://www.w3.org/1999/xlink"><defs /><rect fill="#222222" height="300" width="200" x="0" y="0" /><text fill="#FFFFFF" style="font-size:12px; font-family:Arial; font-weight:bold;" x="10" y="20">Over 10km Runs</text><text fill="#FFFFFF" style="font-size:4px; font-family:Arial" x="10" y="280">Runner</text><text fill="#FFFFFF" style="font-size:9px; font-family:Arial" x="10" y="290">yihong0618</text><text fill="#FFFFFF" style="font-size:4px; font-family:Arial" x="65" y="280">SPECIAL TRACKS</text><rect fill="yellow" height="2.6" width="2.6" x="65" y="283" /><text fill="#FFFFFF" style="font-size:3px; font-family:Arial" x="70" y="285.5">Over 20.0 km</text><rect fill="red" height="2.6" width="2.6" x="65" y="287" /><text fill="#FFFFFF" style="font-size:3px; font-family:Arial" x="70" y="289.5">Over 40.0 km</text><text fill="#FFFFFF" style="font-size:4px; font-family:Arial" x="120" y="280">STATISTICS</text><text fill="#FFFFFF" style="font-size:3px; font-family:Arial" x="120" y="285">Number: 1</text><text fill="#FFFFFF" style="font-size:3px; font-family:Arial" x="120" y="290">Weekly: 1.0</text><text fill="#FFFFFF" style="font-size:3px; font-family:Arial" x="141" y="285">Total: 12.0 km</text><text fill="#FFFFFF" style="font-size:3px; font-family:Arial" x="141" y="290">Avg: 12.0 km</text><text fill="#FFFFFF" style="font-size:3px; font-family:Arial" x="167" y="285">Min: 12.0 km</text><text fill="#FFFFFF" style="font-size:3px; font-family:Arial" x="167" y="290">Max: 12.0 km</text><polyline fill="none" opacity="1" points="30.255146929441253,207.35369222371082 30.11736758754705,207.3852949143693 29.989090269227745,207.43796603028022 29.87031497451244,207.40109625376135 29.708780573651893,207.33262375444974 29.604258314269828,207.29575391633625 29.45697694880073,207.27468542773204 29.342952665872872,207.20621279116313 29.19567130037467,207.16407574707773 29.057891958480468,207.1166715388281 28.93911666373606,207.1272058104114 28.663557979947655,207.0587330136732 28.63980292098131,207.06400015452164 28.573288755957037,206.88491711879033 28.525778638053453,206.8322455409034 28.421256378671387,206.6847648887233 28.359493225434562,206.6004900754342 28.259721977839945,206.46881045419286 28.207460848148912,206.43194011096784 28.09343656519195,206.39506974618052 27.98891430583899,206.34766495977237 27.874890022882028,206.2686569032121 27.874890022882028,206.17384710465922 27.78462079889141,206.1106404930797 27.656343480543,206.12117493275946 27.618335386243416,205.95789092019186 27.594580327306176,205.83147720068519 27.471054020774318,205.81040822278374 27.357029737817356,205.74193399602154 27.295266584551428,205.62605436590457 27.195495336985914,205.53651086948958 27.152736230869778,205.38375990560235 27.195495336985914,205.19940480114383 27.3712827731797,205.1572664158739 27.518564138677903,205.08879147972038 27.561323244764935,204.9307721124569 27.475805032561766,204.85176228029377 27.471054020774318,204.71481166996819 27.442547950020526,204.55152401501618 27.537568185827695,204.43564219685504 27.566074256552383,204.2828885656345 27.532817174011143,204.16173887080004 27.49480907971156,204.01951936673504 27.390286820358597,203.8983691657595 27.252507478464395,203.80882321539684 27.22875241949805,203.83516027282167 27.257258490251843,203.8298928622171 27.22875241949805,203.84042768299332 27.224001407710603,203.84042768299332 27.224001407710603,203.84042768299332 27.20974837234826,203.84569509271387 27.214499384135706,203.85096250199058 27.214499384135706,203.84569509271387 27.128981171903433,203.72454455768093 27.138483195507433,203.60339378980643 27.16698926623212,203.49804510675312 27.247756466676947,203.40849858773436 27.338025690667564,203.34528920359662 27.40453985572094,203.27154484201674 27.52331515046535,203.18726546597463 27.63733943339321,203.0766486139437 27.71810663380893,203.01343889705822 27.71810663380893,202.90808922804717 27.623086398059968,202.82380936606933 27.566074256552383,202.7184593801394 27.542319197615143,202.58150413521798 27.566074256552383,202.47088622014417 27.570825268368935,202.3655356443851 27.618335386243416,202.2233120877827 27.504311103286454,202.13903131020925 27.480556044349214,202.08635576700908 27.395037832146045,201.98627211363782 27.418792891083285,201.80190707302972 27.49005806792411,201.7228933191218 27.49005806792411,201.58593591101817 27.51381312686135,201.42790776264155 27.60883336266852,201.29621733634121 27.627837409818312,201.15925900111688 27.656343480543,201.0486385899967 27.627837409818312,200.932750332031 27.63258842160576,200.81159419813775 27.594580327306176,200.7220438625227 27.58507830373128,200.59035196136756 27.651592468784656,200.4165182305078 27.694351574900793,200.30062881021877 27.684849551296793,200.1742037450531 27.665845504147,200.0477784262912 27.665845504147,199.90028190050725 27.675347527721897,199.7264462662497 27.67059651593445,199.60528781336689 27.17174027801957,198.85726090230673 27.0862220658164,198.84145742108376 27.06246700687916,198.74136861466832 27.03396093615447,198.66235102362043 27.00545486540068,198.6254761138989 26.981699806434335,198.54645837754288 26.924687664955854,198.49904768815395 26.858173499902477,198.43056551829795 26.786908323090756,198.36735114162366 26.73939820518717,198.3410117992862 26.68238606370869,198.2567258298368 26.573112792539177,198.16717186376263 26.501847615727456,198.07234987860647 26.430582438857527,198.03547462362985 26.33081119126291,198.0670819863626 26.22628893190995,198.08288566178453 26.12651768431533,198.10395722284738 26.02199542496237,198.05654620054702 25.98873834242113,197.95645614744717 25.945979236334097,197.87216966361302 25.850959000526927,197.84583011430004 25.732183705782518,197.86690175463445 25.708428646845277,197.81422264059802 25.71317965866183,197.79315098263032 25.71317965866183,197.8089547267591 25.694175611482933,197.84056220311686 25.679922576091485,197.83002637941536 25.670420552545693,197.82475846691887 25.67517156433314,197.84056220311686 25.679922576091485,197.81949055398218 25.69892662327038,197.79841889778982 25.694175611482933,197.79841889778982 25.627661446429556,197.69306051115564 25.618159422825556,197.61930953570118 25.570649304951075,197.5244867261281 25.546894246013835,197.4981470314815 25.49938412811025,197.46127144047932 25.432869963056874,197.41385993462245 25.347351750853704,197.4243958278821 25.290339609375224,197.38225224422422 25.266584550437983,197.3980560914024 25.233327467896743,197.3927881427844 25.143058243906125,197.4296637738662 25.07654407885275,197.47707526782324 25.01478092558682,197.46127144047932 24.95776878410834,197.50868291065854 24.877001583692618,197.55609434517828 24.819989442214137,197.60877367501598 24.767728312523104,197.62457746537257 24.710716171044623,197.66145296082686 24.65845504135359,197.66672088696942 24.558683793788077,197.73520388695397 24.45891254619346,197.7668114003027 24.368643322202843,197.86163384520478 24.28787612178712,197.95645614744717 24.178602850617608,197.9617240489315 24.11208868556423,197.95118824550445 24.00756642621127,197.94592034313246 23.94105226112879,197.94592034313246 23.964807320095133,197.9195808246477 23.99331339081982,197.93538453704605 23.96005630827858,197.9301166333571 23.9125461904041,197.92484872922068 23.85078303713817,197.87216966361302 23.79377089565969,197.86690175463445 23.70825268345652,197.9090450141739 23.65599155376549,197.83529429148984 23.55622030617087,197.88270548026048 23.484955129330046,197.78788306704882 23.42319197609322,197.71413220257455 23.356677811039845,197.67725673796667 23.347175787435845,197.67198881268632 23.318669716682052,197.62457746537257 23.25215555165778,197.55609434517828 23.19039239839185,197.58770194835597 23.1951434101793,197.57189814875164 23.180890374816954,197.5402905376286 23.180890374816954,197.4560034971364 23.1951434101793,197.37698429427837 23.161886327638058,197.319036815883 23.114376209763577,197.24528540264146 23.090621150826337,197.1873378031305 23.0478620447102,197.12412217922974 23.024106985743856,197.01876266513136 23.005102938594064,196.92393895181885 22.95759282069048,196.76589911251722 22.886327643849654,196.68161103612874 22.83406651415862,196.623662918224 22.80556044340483,196.56571474699376 22.76755234913435,196.45508627214804 22.691536160506075,196.36552974547521 22.677283125114627,196.2865091750682 22.644026042573387,196.27597309151315 22.6250219954527,196.29177721617089 22.64877705438994,196.29177721617089 22.629773007211043,196.28124113351805 22.644026042573387,196.28124113351805 22.644026042573387,196.27597309151315 22.68203413693118,196.26016896289002 22.69628717226442,196.20748850554082 22.691536160506075,196.23909678524433 22.606017948273802,196.2180246005264 22.6250219954527,196.23382873972878 22.620270983636146,196.24436483031968 22.6250219954527,196.23382873972878 22.6250219954527,196.22856069376576 22.629773007211043,196.22329264736254 22.63452401899849,196.2180246005264 22.639275030815043,196.212756553261 180.90973077600938,92.20397833273819 180.81471054023132,92.26202291092704 180.81471054023132,92.26202291092704 180.81471054023132,92.26202291092704 180.7244413162407,92.32006743525562 180.62942108043353,92.37811190572393 23.104874186159577,197.1873378031305 23.152384304092266,197.3032329488815 23.185641386604402,197.4033240395729 23.176139363029506,197.51921878807116 23.1951434101793,197.64038125178195 23.256906563445227,197.72993596651213 23.294914657744812,197.83002637941536 23.299665669561364,197.9880635498048 23.318669716682052,198.1144930007431 23.356677811039845,198.30940457395263 23.375681858189637,198.4516369631092 23.38993489355198,198.5780654839691 23.380432869977085,198.7519042859858 23.380432869977085,198.8783322044219 23.37093084640219,198.9678851598801 23.21889846911654,199.0574379880527 23.0478620447102,199.06797360653218 22.919584726390895,199.09958045138774 22.796058419859037,199.1417228865539 22.644026042573387,199.2102042835868 22.515748724283185,199.25761443792726 22.387471405934775,199.29448897776092 22.297202181944158,199.3629702087892 22.178426887228852,199.4103802482241 22.09290867499658,199.4630580279736 22.050149568909546,199.52100353484275 22.059651592484443,199.51046799210235 22.021643498155754,199.5420746150303 21.955129333102377,199.5842167542978 21.869611120899208,199.60528781336689 21.755586837942246,199.63162662728064 21.66531761395163,199.7001074919608 21.6130564842897,199.74751727775947 21.570297378173564,199.84233674236748 21.465775118762394,199.85813997259538 21.385007918346673,199.83180125334547 21.25197958823992,199.86340771513278 21.147457328886958,199.87394319887244 21.052437093108892,199.85287222963234 20.952665845514275,199.82126576255905 20.84339257434476,199.84760448621455 20.77212739753304,199.86340771513278 20.70086222066311,199.9108173780878 20.610592996672494,199.93715606431942 20.50607073729043,199.96349473953887 20.458560619415948,200.0477784262912 20.42055252508726,200.142597439135 20.439556572237052,200.21634546161658 20.368291395396227,200.23741630933364 20.33028330106754,200.26375485908284 20.273271159589058,200.26902256769972 20.168748900236096,200.2848256909383 20.07847967624548,200.26375485908284 19.95495336971362,200.29009339780896 19.916945275414037,200.32696733355624 19.935949322534725,200.38491204610182 19.92644729895983,200.47973055174953 19.90744325183914,200.51133668859984 19.893190216447692,200.5587458641494 19.878937181085348,200.6219580427496 19.859933133906452,200.7062408489146 19.769663909915835,200.7905235423823 19.655639626958873,200.77472054594546 19.589125461905496,200.8010588711404 19.49410522612743,200.85900314783066 19.432342072861502,200.84846782875684 19.394333978532813,200.7905235423823 19.370578919595573,200.8010588711404 19.34207284884178,200.74838220974925 19.313566778117092,200.7378468721763 19.35632588423323,200.67990248411297 19.37532993138302,200.68517015795442 19.327819813479437,200.72731153284985 19.280309695575852,200.79579120697235 19.327819813479437,200.93801798473578 19.327819813479437,201.11185027725878 19.422840049257502,201.23300583398668 19.34207284884178,201.31202020203636 19.232799577672267,201.4121049260175 19.147281365498202,201.57013311400442 19.190040471585235,201.7176257319952 19.08551821220317,201.87038557964115 19.004751011787448,202.03894774048968 19.03800809432869,202.21804454248922 19.161534400860546,202.2654524342979 19.123526306531858,202.35500057711397 19.128277318319306,202.47088622014417 19.08551821220317,202.6499817948643 19.194791483372683,202.7026568670699 19.31831778990454,202.76059939564584 19.460848143615294,202.82907686073668 19.570121414755704,202.97656653293234 19.665141650562873,203.11352091952358 19.83617807496921,203.23994008920636 20.011965511192102,203.308417033586 20.149744853086304,203.28734721246292 20.349287348246435,203.25574246758697 20.510821749077877,203.33475430009275 20.70086222066311,203.36635900536567 20.890902692248346,203.3926962476471 21.009677986992756,203.39796369478063 21.156959352461854,203.45063814193782 21.275734647206264,203.45590558423646 21.423016012646258,203.46644046750953 21.546542319178116,203.49804510675312 21.71282773182611,203.50331254509365 21.86010909732431,203.51911485744859 21.988386415643618,203.55071947029137 22.140418792900164,203.59285892942353 22.297202181944158,203.60339378980643 22.4777406299836,203.6139286484431 22.63452401899849,203.53491716585995 22.753299313772004,203.5243822940247 22.900580679212,203.57705663556408 23.033609009347856,203.54545203592716 23.128629245155025,203.5138474204432 23.233151504478883,203.60866121934305 23.36142882279819,203.7561490675289 23.356677811039845,203.93524099070783 23.42319197609322,204.07746068489723 23.522963223658735,203.97211279408293 23.741509765968658,204.01951936673504 23.93630124934134,203.98264759108133 24.09308463841444,203.84042768299332 24.25937005103333,203.73507939604315 24.416153440106427,203.81409062775128 24.558683793788077,203.91417137908866 24.791483371460345,203.91417137908866 24.9245117015671,203.89310176044455 25.081295090611093,203.83516027282167 25.23807847968419,203.7561490675289 25.39486186875729,203.7087422968034 25.508886151685147,203.671870339389 25.656167517154245,203.7561490675289 25.78444483547355,203.85096250199058 25.917473165609408,203.86676472721592 26.036248460324714,203.81409062775128 26.188280837610364,203.76141648429257 26.359317262016702,203.78248614696713 26.5065986274858,203.7508816503141 26.6538799929549,203.70347487564504 26.748900228762068,203.67713776319943 26.900932606018614,203.68240518658058 27.043462959700264,203.7508816503141 27.190744325169362,203.7877535615371 27.29051557276398,203.80882321539684 27.42829491465818,203.90363657064154 27.480556044349214,204.0616585124917 27.58032729194383,204.19861054169814 27.561323244764935,204.3618991107469 27.518564138677903,204.51465255052608 27.49956009152811,204.69374231890833 27.518564138677903,204.85176228029377 27.589829315518728,204.98871259310908 27.49480907971156,205.12039530565016 27.342776702455012,205.1572664158739 27.2335034312855,205.31001792851384 27.200246348773362,205.45750179643073 27.319021643488668,205.6102525816641 27.40453985572094,205.76827024589147 27.589829315518728,205.82620995687466 27.651592468784656,205.9631581529975 27.684849551296793,206.09483883030043 27.884392046456924,206.09483883030043 27.917649128998164,206.2581224881833 28.055428470892366,206.34239775908645 28.2454689424776,206.45300888117708 28.36899524900946,206.563619809207 28.478268520149868,206.6847648887233 28.57803976771538,206.83751270066568 28.673060003551655,206.9691915519179 28.815590357233305,207.10613726549855 29.01513285236433,207.1166715388281 29.186169276799774,207.14827434829203 29.342952665872872,207.2167470477907 29.532993137458107,207.2641511807924 29.675523491110653,207.32208951720168 29.841808903758647,207.36949357100457 29.984339257440297,207.44323313945642 30.14587365827174,207.3800278003473 30.29790603555739,207.36949357100457 30.483195495355176,207.34315798995522 30.658982931578066,207.33262375444974 30.796762273472268,207.3378908724335 30.934541615337366,207.28521967293273 31.062818933656672,207.2378155557417 31.200598275579978,207.24308268163804 31.309871546720387,207.34315798995522 31.452401900402037,207.3747606859106 31.547422136209207,207.45376735648097 31.566426183359,207.58544492078363 31.642442371987272,207.71712221008784 31.751715643156786,207.8277309206278" stroke="#4DD2FF" stroke-dasharray="none" stroke-linecap="round" stroke-linejoin="round" stroke-width="0.5"><title>2026-03-14 12.0km</title><desc>9223370263378906807</desc></polyline></svg>