<?xml version="1.0" encoding="utf-8" ?>
<svg baseProfile="full" height="300mm" version="1.1" viewBox="0,0,200,300" width="200mm" xmlns="http://www.w3.org/2000/svg" xmlns:ev="http://www.w3.org/2001/xml-events" xmlns:xlink="http://www.w3.org/1999/xlink"><defs /><rect fill="#222222" height="300" width="200" x="0" y="0" /><text fill="#FFFFFF" style="font-size:12px; font-family:Arial; font-weight:bold;" x="10" y="20">Over 10km Runs</text><text fill="#FFFFFF" style="font-size:4px; font-family:Arial" x="10" y="280">Runner</text><text fill="#FFFFFF" style="font-size:9px; font-family:Arial" x="10" y="290">yihong0618</text><text fill="#FFFFFF" style="font-size:4px; font-family:Arial" x="65" y="280">SPECIAL TRACKS</text><rect fill="yellow" height="2.6" width="2.6" x="65" y="283" /><text fill="#FFFFFF" style="font-size:3px; font-family:Arial" x="70" y="285.5">Over 20.0 km</text><rect fill="red" height="2.6" width="2.6" x="65" y="287" /><text fill="#FFFFFF" style="font-size:3px; font-family:Arial" x="70" y="289.5">Over 40.0 km</text><text fill="#FFFFFF" style="font-size:4px; font-family:Arial" x="120" y="280">STATISTICS</text><text fill="#FFFFFF" style="font-size:3px; font-family:Arial" x="120" y="285">Number: 1</text><text fill="#FFFFFF" style="font-size:3px; font-family:Arial" x="120" y="290">Weekly: 1.0</text><text fill="#FFFFFF" style="font-size:3px; font-family:Arial" x="141" y="285">Total: 12.0 km</text><text fill="#FFFFFF" style="font-size:3px; font-family:Arial" x="141" y="290">Avg: 12.0 km</text><text fill="#FFFFFF" style="font-size:3px; font-family:Arial" x="167" y="285">Min: 12.0 km</text><text fill="#FFFFFF" style="font-size:3px; font-family:Arial" x="167" y="290">Max: 12.0 km</text><polyline fill="none" opacity="1" points="31.04381488650688,207.12984120799229 30.929790603549918,207.16144393826835 30.834770367771853,207.20884800397107 30.706493049452547,207.22991646617083 30.620974837220274,207.18777953471 30.492697518930072,207.19304665269374 30.364420200581662,207.19304665269374 30.207636811566772,207.20884800397107 30.079359493218362,207.27205336944462 29.94633116311161,207.28785470093135 29.81330283303396,207.19831377021546 29.656519443931757,207.17197817816486 29.556748196395347,207.11930696105264 29.39996480732225,207.1035055873581 29.2574344536406,207.04030005290406 29.124406123533845,206.977094455091 28.986626781639643,206.97182731908833 28.844096427957993,207.0086972619174 28.658806968160206,206.91915593478188 28.573288755957037,206.76640867150127 28.525778638053453,206.69793564026259 28.41650536688394,206.55572218392626 28.36899524900946,206.45564585569446 28.259721977839945,206.3292334245998 28.207460848148912,206.2870958912281 28.088685553404503,206.2449583297057 27.9604082351143,206.20808794027835 27.860636987519683,206.11327826844354 27.884392046456924,206.0079340214288 27.760865739925066,205.9763307130197 27.613584374455968,205.9605290528525 27.623086398059968,205.76564158533802 27.54707020940259,205.68663298094543 27.423543902870733,205.64976226501312 27.32377265530522,205.5444172435382 27.2430054548895,205.43907204603966 27.157487242657226,205.31792485131882 27.162238254473777,205.1651737087741 27.328523667092668,205.03875869024705 27.466303008957766,205.00188759540833 27.566074256552383,204.82806642938522 27.504311103286454,204.73325468227995 27.466303008957766,204.59630412917613 27.442547950020526,204.44881858543886 27.532817174011143,204.31186741444253 27.556572232977487,204.15911383428102 27.542319197615143,204.02216203393255 27.49005806792411,203.88520993607744 27.390286820358597,203.75352494601975 27.2335034312855,203.6639789956571 27.22875241949805,203.69031605308192 27.252507478464395,203.69031605308192 27.214499384135706,203.69031605308192 27.224001407710603,203.69558346325357 27.219250395923154,203.69558346325357 27.20974837234826,203.70085087297412 27.214499384135706,203.70085087297412 27.20974837234826,203.69558346325357 27.133732183719985,203.5217586953986 27.152736230869778,203.4111426844829 27.20974837234826,203.3110613644967 27.281013549189083,203.2267822349604 27.35227872602991,203.16357281384626 27.475805032561766,203.07929348712787 27.594580327306176,202.97394417025134 27.699102586659137,202.88966458997675 27.722857645596378,202.7843149561886 27.64684145699721,202.69476762904014 27.570825268368935,202.5946851716726 27.537568185827695,202.44192743039093 27.566074256552383,202.33657704831057 27.570825268368935,202.22595895760605 27.618335386243416,202.07846786804294 27.504311103286454,201.9941870904695 27.475805032561766,201.93097643334477 27.390286820358597,201.830892763257 27.42829491465818,201.6465276918243 27.49956009152811,201.5517111593872 27.504311103286454,201.3989508904524 27.542319197615143,201.24619025127686 27.613584374455968,201.119767373355 27.627837409818312,200.96700605751903 27.656343480543,200.84058261961036 27.618335386243416,200.72996190340928 27.60883336266852,200.61407332579984 27.594580327306176,200.51925524018588 27.60883336266852,200.33488633200977 27.699102586659137,200.2084616261127 27.699102586659137,200.08730437832492 27.656343480543,199.94507600765064 27.675347527721897,199.78704410821592 27.67059651593445,199.6290118124998 27.665845504147,199.465711357283 27.181242301594466,198.70714885593043 27.09097307760385,198.68607754500772 27.06246700687916,198.59652439492857 27.03396093615447,198.51750680388068 27.00545486540068,198.48063189415916 26.972197782888543,198.39634630518412 26.905683617835166,198.3436677548234 26.848671476356685,198.2857212985582 26.763153264124412,198.2383105219924 26.725145169824827,198.17509609775152 26.6633820165589,198.10134585598644 26.535104698239593,197.99072033148695 26.463839521398768,197.89589829877877 26.40207636813284,197.89589829877877 26.28330107338843,197.92223776662286 26.188280837610364,197.95384511350858 26.05525250750361,197.95384511350858 25.998240365996026,197.86429092284015 25.945979236334097,197.76946869988387 25.888967094855616,197.6957179833771 25.76068977653631,197.7220575348947 25.69892662327038,197.6799142471791 25.708428646845277,197.64830676289057 25.72268168220762,197.65884259276208 25.69892662327038,197.66411050701936 25.679922576091485,197.6851821596756 25.67517156433314,197.6851821596756 25.67517156433314,197.6957179833771 25.67517156433314,197.6799142471791 25.694175611482933,197.65357467805006 25.69892662327038,197.64303884730907 25.622910434642108,197.5376804430598 25.608657399279764,197.4586615242588 25.565898293163627,197.36910662984883 25.53739222243894,197.34803487148383 25.46612704556901,197.31115927739665 25.399612880544737,197.25321187166264 25.323596691916464,197.2690157148827 25.27133556222543,197.2426759739792 25.266584550437983,197.23214007453862 25.176315326418262,197.27955160814236 25.10029913778999,197.31642722073957 25.043286996311508,197.32696310607207 24.97677283125813,197.34803487148383 24.905507654417306,197.39544631788885 24.83424247757648,197.45339359282661 24.777230336098,197.4902691036732 24.72021819461952,197.5060728874305 24.653704029566143,197.52187666722966 24.563434805575525,197.58509174677238 24.45891254619346,197.62196718056293 24.368643322202843,197.71678962546503 24.278374098212225,197.81161192770742 24.164349815255264,197.81687982919175 24.097835650201887,197.81687982919175 23.988562379032373,197.8010761233927 23.95055428473279,197.79580822056596 23.964807320095133,197.77473660490796 23.964807320095133,197.79580822056596 23.94580327294534,197.8010761233927 23.888791131437756,197.7589328885224 23.822276966413483,197.71678962546503 23.760513813147554,197.7589328885224 23.684497624490177,197.7062538053142 23.598979412287008,197.7115217156097 23.51346120008384,197.6799142471791 23.437445011455566,197.59035966721422 23.36617983461474,197.55348421493545 23.347175787435845,197.54294836745248 23.328171740286052,197.50080495995644 23.261657575232675,197.42178599493127 23.19039239839185,197.42178599493127 23.1951434101793,197.4270539290119 23.180890374816954,197.39544631788885 23.180890374816954,197.31642722073957 23.1951434101793,197.23214007453862 23.152384304092266,197.17419259614326 23.114376209763577,197.1004411829017 23.08587013903889,197.02142171580272 23.05261305649765,196.96347404360495 23.01460496216896,196.85284652142946 22.99560091504827,196.67373488324665 22.924335738178343,196.60525088703434 22.886327643849654,196.49462273592144 22.81031145522138,196.44721061169548 22.80556044340483,196.36819032536368 22.734295266593108,196.2680978204262 22.677283125114627,196.18907730946376 22.663030089752283,196.1311288717734 22.6250219954527,196.1363969137783 22.644026042573387,196.14693299643113 22.64877705438994,196.14693299643113 22.629773007211043,196.1363969137783 22.639275030815043,196.1363969137783 22.65827907793573,196.1363969137783 22.70578919586842,196.06264428580107 22.69628717226442,196.083716474026 22.61076896006125,196.07318038078665 22.6250219954527,196.08898451998903 22.620270983636146,196.09952061057993 22.6250219954527,196.08898451998903 22.6250219954527,196.083716474026 22.629773007211043,196.0784484276228 22.629773007211043,196.0784484276228 22.639275030815043,196.07318038078665 180.90973077600938,92.05913411299844 180.81471054023132,92.11717869118729 180.81471054023132,92.11717869118729 180.81471054023132,92.11717869118729 180.7244413162407,92.17522321551587 23.057364068285096,196.98981390121116 23.128629245155025,197.08990525967602 23.1951434101793,197.19526441262133 23.171388351242058,197.32696310607207 23.185641386604402,197.45339359282661 23.223649480903987,197.55348421493545 23.285412634169916,197.66411050701936 23.294914657744812,197.79580822056596 23.318669716682052,197.9327735506704 23.347175787435845,198.14348886184598 23.375681858189637,198.29625702185876 23.39468590533943,198.41741771299712 23.380432869977085,198.59652439492857 23.380432869977085,198.73348798468214 23.37093084640219,198.8283087570817 23.209396445541643,198.91259376831295 23.033609009347856,198.92312938679243 22.900580679212,198.94946842527497 22.75805032553035,199.00741427118555 22.596515924698906,199.07062786053575 22.4682386063796,199.12330580321577 22.363716346997535,199.1601803368867 22.26394509943202,199.21812598904944 22.130916769296164,199.28660714565922 22.078655639634235,199.35508822786142 22.050149568909546,199.376159315103 22.050149568909546,199.3814270858129 21.99313742740196,199.428837002386 21.91237022698624,199.4551758295238 21.788843920483487,199.465711357283 21.698574696463766,199.53419224485697 21.617807496048044,199.58160204650994 21.57504838996101,199.68168928842715 21.48477916594129,199.71856349539303 21.389758930163225,199.68695703360572 21.261481611814816,199.71329575285563 21.14270631709951,199.7080280098926 21.052437093108892,199.7080280098926 20.952665845514275,199.6764215428193 20.84339257434476,199.7027602664748 20.77212739753304,199.71856349539303 20.691360197088216,199.776508634146 20.582086925947806,199.79231184457967 20.496568713715533,199.82918598680408 20.4443075840245,199.9240051106135 20.430054548662156,200.02409180876566 20.396797466120915,200.08730437832492 20.35403836000478,200.11364293027873 20.320781277492642,200.1294460561403 20.225761041714577,200.1452491780692 20.125989794149064,200.12417834795997 19.997712475829758,200.13998147119855 19.90744325183914,200.17158770579408 19.93119831077638,200.2137293272608 19.92644729895983,200.30328017930879 19.90744325183914,200.3559570916732 19.89794122823514,200.40863395999622 19.883688192843692,200.46131078430335 19.864684145723004,200.55612895709783 19.774414921703283,200.6509469872326 19.655639626958873,200.6298763262057 19.589125461905496,200.65621465140066 19.49410522612743,200.71942658696207 19.427591061074054,200.69835594882534 19.38958296677447,200.6509469872326 19.36582790777902,200.6509469872326 19.327819813479437,200.60880565812113 19.35157487244578,200.5824673131101 19.370578919595573,200.53505826437322 19.35632588423323,200.57719964278294 19.304064754542196,200.5982703214322 19.308815766329644,200.69835594882534 19.299313742725644,200.88272379376212 19.38008094317047,201.0249500485006 19.40383600210771,201.15137311660146 19.26130564842606,201.1987817017689 19.17578743622289,201.3568100614466 19.156783389073098,201.54117598031007 19.11402428295696,201.69393590455365 19.009502023604,201.85196302279292 19.023755058966344,202.05213013715183 19.137779341894202,202.0942705012858 19.128277318319306,202.19962128835323 19.137779341894202,202.31550695076294 19.080767200444825,202.4998700654869 19.194791483372683,202.55781264733014 19.327819813479437,202.6157551759061 19.47035016719019,202.68950013523863 19.560619391180808,202.8580597183245 19.69364772128756,203.00028151597508 19.864684145723004,203.12143316457514 20.049973605491687,203.18464262793714 20.192503959173337,203.10563078882114 20.396797466120915,203.13723553634918 20.582086925947806,203.189910080353 20.77212739753304,203.2267822349604 20.971669892664067,203.24258458032637 21.08094316383358,203.24785202790736 21.20446947036544,203.3110613644967 21.35650184765109,203.32159624776978 21.48477916594129,203.34793344824357 21.651064578589285,203.36900320070345 21.817349991208175,203.36900320070345 21.964631356706377,203.4216775510249 22.111912722175475,203.4427472788375 22.273447123006918,203.45328214010078 22.458736582804704,203.4638169996033 22.620270983636146,203.39534038137936 22.748548301955452,203.37953807428494 22.900580679212,203.43221241582432 23.043111032922752,203.39534038137936 23.13338025691337,203.3848055104172 23.24740453987033,203.45854957006668 23.347175787435845,203.65344416959852 23.39468590533943,203.7851293687272 23.437445011455566,203.92208168399884 23.598979412287008,203.80093157412193 23.80327291926369,203.84833816659375 23.988562379032373,203.79566417276146 24.159598803467816,203.64817675591985 24.344888263265602,203.60603743057436 24.482667605159804,203.7271879149921 24.677459088503383,203.77986196603888 24.886503607267514,203.77986196603888 25.00527890198282,203.71665309951277 25.166813302843366,203.63237451221357 25.3568537744286,203.5955025948424 25.489882104535354,203.5006889940014 25.622910434642108,203.5955025948424 25.765440788323758,203.70611828225083 25.898469118430512,203.71665309951277 26.026746436749818,203.66924640801153 26.17402780224802,203.6218396808763 26.359317262016702,203.63764192722738 26.511349639302352,203.60603743057436 26.668133028317243,203.5586306559053 26.763153264124412,203.53229354345967 26.924687664955854,203.53756096684083 27.071969030454056,203.61657226455281 27.185993313411018,203.64817675591985 27.338025690667564,203.68504864247734 27.456800985411974,203.80619897504585 27.49956009152811,203.98529034454623 27.566074256552383,204.12750959906043 27.566074256552383,204.30133269665384 27.51381312686135,204.47515531498357 27.46155199719942,204.63844279257683 27.594580327306176,204.77539325414182 27.54707020940259,204.92287803389627 27.385535808542045,205.01768949582765 27.252507478464395,205.1125008151903 27.20974837234826,205.26525208534076 27.295266584551428,205.43380478154722 27.3807847967837,205.5970897762818 27.566074256552383,205.670831248186 27.651592468784656,205.80777946719172 27.675347527721897,205.94472738874174 27.884392046456924,205.94999461056068 27.917649128998164,206.11327826844354 28.088685553404503,206.21862233946013 28.26922400141484,206.31869904388077 28.39750131976325,206.44511149613027 28.487770543753868,206.58205803337478 28.61604786204407,206.7137371156059 28.69681506245979,206.88755308309192 28.88210452228668,206.97182731908833 29.072144993871916,206.977094455091 29.247932430065703,207.01923152733798 29.43322188986349,207.0982384618983 29.580503255332587,207.1561768176398 29.780045750463614,207.19831377021546 29.927327115961816,207.27732048038888 30.084110505034914,207.27205336944462 30.24089389407891,207.22464935126482 30.421432342089247,207.19831377021546 30.61147281367448,207.18777953471 30.773007214505924,207.19831377021546 30.915537568216678,207.1509096965965 31.053316910081776,207.0982384618983 31.18634524018853,207.08770420967994 31.309871546720387,207.18777953471 31.452401900402037,207.22991646617083 31.547422136209207,207.31945735200497 31.575928206933895,207.4564019902864 31.661446419166168,207.59334633114122 31.775470702094026,207.69868792941998 31.841984867147403,207.82509761504843 31.90849903220078,207.81983054986995 31.975013197254157,207.76189280390827 31.979764209041605,207.67235254633852 32.05578039769898,207.77769401263504 32.13654759814381,207.8935694223037" stroke="#4DD2FF" stroke-dasharray="none" stroke-linecap="round" stroke-linejoin="round" stroke-width="0.5"><title>2026-03-14 12.0km</title><desc>9223370263378906807</desc></polyline></svg>