<?xml version="1.0" encoding="utf-8" ?>
<svg baseProfile="full" height="300mm" version="1.1" viewBox="0,0,200,300" width="200mm" xmlns="http://www.w3.org/2000/svg" xmlns:ev="http://www.w3.org/2001/xml-events" xmlns:xlink="http://www.w3.org/1999/xlink"><defs /><rect fill="#222222" height="300" width="200" x="0" y="0" /><text fill="#FFFFFF" style="font-size:12px; font-family:Arial; font-weight:bold;" x="10" y="20">Over 10km Runs</text><text fill="#FFFFFF" style="font-size:4px; font-family:Arial" x="10" y="280">Runner</text><text fill="#FFFFFF" style="font-size:9px; font-family:Arial" x="10" y="290">yihong0618</text><text fill="#FFFFFF" style="font-size:4px; font-family:Arial" x="65" y="280">SPECIAL TRACKS</text><rect fill="yellow" height="2.6" width="2.6" x="65" y="283" /><text fill="#FFFFFF" style="font-size:3px; font-family:Arial" x="70" y="285.5">Over 20.0 km</text><rect fill="red" height="2.6" width="2.6" x="65" y="287" /><text fill="#FFFFFF" style="font-size:3px; font-family:Arial" x="70" y="289.5">Over 40.0 km</text><text fill="#FFFFFF" style="font-size:4px; font-family:Arial" x="120" y="280">STATISTICS</text><text fill="#FFFFFF" style="font-size:3px; font-family:Arial" x="120" y="285">Number: 1</text><text fill="#FFFFFF" style="font-size:3px; font-family:Arial" x="120" y="290">Weekly: 1.0</text><text fill="#FFFFFF" style="font-size:3px; font-family:Arial" x="141" y="285">Total: 12.0 km</text><text fill="#FFFFFF" style="font-size:3px; font-family:Arial" x="141" y="290">Avg: 12.0 km</text><text fill="#FFFFFF" style="font-size:3px; font-family:Arial" x="167" y="285">Min: 12.0 km</text><text fill="#FFFFFF" style="font-size:3px; font-family:Arial" x="167" y="290">Max: 12.0 km</text><polyline fill="none" opacity="1" points="28.87735351047013,207.35105737384947 28.64930494458531,207.26678318007907 28.635051909222966,207.1983103147213 28.563786732353037,207.0613643609031 28.49727256729966,207.01395992298058 28.430758402246283,206.85067769732268 28.326236142893322,206.78747156097234 28.250219954235945,206.66632628917796 28.197958824574016,206.62945594286793 28.083934541617054,206.58731837784217 27.969910258660093,206.55571518557554 27.874890022882028,206.47143992876954 27.87013901109458,206.37663013021665 27.794122822466306,206.3081562981497 27.67059651593445,206.33449239621768 27.60883336266852,206.2028117959162 27.60883336266852,206.04479471254672 27.49956009152811,206.0289929824321 27.390286820358597,205.9763205200943 27.309519619942876,205.870975463411 27.22875241949805,205.7708974965317 27.157487242657226,205.64975027143737 27.162238254473777,205.51280095407128 27.309519619942876,205.38111863758968 27.437796938233078,205.35478214129398 27.561323244764935,205.2125648711626 27.542319197615143,205.0914165731774 27.433045926474733,205.0018720294065 27.471054020774318,204.87545598635916 27.485307056136662,204.72797028243076 27.542319197615143,204.60155369013592 27.570825268368935,204.4698694702929 27.504311103286454,204.3592545130341 27.49005806792411,204.21176760145318 27.390286820358597,204.10115219131694 27.252507478464395,204.01160624095428 27.22875241949805,204.0379432983791 27.257258490251843,204.0379432983791 27.238254443072947,204.04321070855076 27.219250395923154,204.04321070855076 27.22875241949805,204.0379432983791 27.214499384135706,204.05374552754802 27.214499384135706,204.0484781182713 27.214499384135706,204.04321070855076 27.152736230869778,203.99053658709454 27.133732183719985,203.85358366531364 27.152736230869778,203.7535024958488 27.20974837234826,203.6586886097939 27.271511525614187,203.58494437760965 27.342776702455012,203.53226987323433 27.456800985411974,203.45325803411833 27.561323244764935,203.3689786299292 27.67059651593445,203.26362921622058 27.72760865741293,203.18461704039873 27.713355622050585,203.08980229867302 27.59933133906452,203.01605740097148 27.561323244764935,202.90543989262733 27.54707020940259,202.77375212960396 27.566074256552383,202.66840172111552 27.570825268368935,202.56831866994253 27.613584374455968,202.42609511334012 27.51381312686135,202.34708188767036 27.480556044349214,202.2996739047303 27.40453985572094,202.22592808262198 27.40453985572094,202.04156314985084 27.471054020774318,201.95201427364373 27.504311103286454,201.82559211417902 27.504311103286454,201.68336688168347 27.57557628012728,201.5358737089955 27.623086398059968,201.4305212314939 27.63258842160576,201.29883038694607 27.651592468784656,201.18294221614633 27.618335386243416,201.07758914870647 27.60883336266852,200.9722359051484 27.589829315518728,200.8826855096704 27.589829315518728,200.74572583516056 27.680098539509345,200.60876586302766 27.699102586659137,200.48234100919944 27.67059651593445,200.35591590176773 27.67059651593445,200.22422281183754 27.661094492359553,200.08199396563214 27.684849551296793,199.8660162150154 27.675347527721897,199.80280307482099 27.17174027801957,199.06004392786417 27.0862220658164,199.0442404466412 27.067218018637504,198.95468731154324 27.019707900763024,198.8756697337085 27.00070385361323,198.83879483015335 26.986450818250887,198.7650449582943 26.94369171213475,198.7070985698556 26.877177547081374,198.6333485438554 26.810663382027997,198.6070092279624 26.763153264124412,198.57540203432654 26.70614112264593,198.49111610714317 26.63487594583421,198.42263370830915 26.525602674664697,198.33307968982626 26.44958648600732,198.24879343853172 26.40207636813284,198.24352554407596 26.302305120567326,198.26986501192005 26.19778286118526,198.2962044687556 26.093260601803195,198.2962044687556 26.01724441317492,198.2382576491873 25.974485307058785,198.13816756260348 25.922224177367752,198.06441687076222 25.831954953377135,198.04861313985748 25.727432694024174,198.06441687076222 25.71317965866183,198.01173775231655 25.71317965866183,197.99593400818776 25.71317965866183,198.01173775231655 25.69892662327038,198.01173775231655 25.684673587908037,198.0328094049728 25.670420552545693,198.02227357953961 25.689424599695485,198.0328094049728 25.684673587908037,198.0275414924763 25.694175611482933,198.01700566615546 25.69892662327038,198.01173775231655 25.656167517154245,197.93271899206957 25.618159422825556,197.84316427733938 25.603906387492316,197.76941324022846 25.56114728137618,197.71146593621597 25.527890198864043,197.69566211678102 25.456625021994114,197.65351857892892 25.399612880544737,197.60083911695983 25.323596691916464,197.6166429601799 25.28558859755867,197.58503526978166 25.26183353862143,197.58503526978166 25.195319373568054,197.60610706513035 25.128805208514677,197.64298269004576 25.071793067036197,197.67985829338068 25.00052789019537,197.67459035136926 24.95776878410834,197.71146593621597 24.877001583692618,197.75887737073572 24.824740454001585,197.80628876955598 24.772479324310552,197.82736049093 24.72021819461952,197.85896805977245 24.653704029566143,197.86950391252685 24.577687840966973,197.92218314987986 24.482667605159804,197.9590585898295 24.387647369352635,198.0433452286743 24.311631180724362,198.12763175477812 24.216610944917193,198.16450707448894 24.140594756318023,198.1592391730046 24.045574520510854,198.16450707448894 23.964807320095133,198.14343546586315 23.964807320095133,198.12763175477812 23.964807320095133,198.12236385020515 23.983811367244925,198.13289965891454 23.94580327294534,198.1487033686899 23.903044166829204,198.12236385020515 23.82702797820093,198.0696847801919 23.784268872084795,198.09602432069732 23.698750659881625,198.09602432069732 23.64648953016149,198.0328094049728 23.54671828262508,198.08022059771974 23.480204117571702,197.98013026010813 23.42319197609322,197.91691522813198 23.356677811039845,197.8800397635241 23.347175787435845,197.89057561274967 23.318669716682052,197.8378963489704 23.261657575232675,197.76941324022846 23.1951434101793,197.76941324022846 23.1951434101793,197.77468117430908 23.185641386604402,197.74834149946764 23.176139363029506,197.67985829338068 23.199894421966746,197.60610706513035 23.1951434101793,197.5376237044511 23.13338025691337,197.47440822854696 23.104874186159577,197.4217286168423 23.066866091859993,197.36378099308058 23.043111032922752,197.29002939489146 23.009853950381512,197.17413385186956 23.009853950381512,197.01082613397375 22.924335738178343,196.95287813233153 22.886327643849654,196.86332202497942 22.824564490583725,196.80537388768425 22.800809431646485,196.74215767711576 22.76755234913435,196.64733324236659 22.686785148689523,196.5630447360927 22.677283125114627,196.48929220062564 22.644026042573387,196.4787561170706 22.6250219954527,196.49456024172832 22.64877705438994,196.49456024172832 22.639275030815043,196.48929220062564 22.629773007211043,196.4840241590755 22.639275030815043,196.4840241590755 22.65827907793573,196.4840241590755 22.70578919586842,196.39973543434826 22.691536160506075,196.41027153109826 22.620270983636146,196.41027153109826 22.629773007211043,196.4313437193232 22.620270983636146,196.4313437193232 22.620270983636146,196.44187981080177 22.629773007211043,196.43661176528622 22.629773007211043,196.4313437193232 22.629773007211043,196.42080762608384 22.629773007211043,196.42607567291998 22.644026042573387,196.42080762608384 180.90973077600938,92.40676135829563 180.81471054023132,92.46480593648448 180.81471054023132,92.46480593648448 180.81471054023132,92.46480593648448 180.80995952844387,92.45425238081589 180.62942108043353,92.58089493128136 23.104874186159577,197.39012082868794 23.147633292275714,197.50601597443892 23.185641386604402,197.5903032192764 23.16663733945461,197.70619799684573 23.185641386604402,197.8168246311252 23.233151504478883,197.91164730594755 23.285412634169916,198.01173775231655 23.294914657744812,198.14343546586315 23.313918704923708,198.25932922610446 23.3329227520735,198.44897310128363 23.351926799223293,198.6017413634545 23.380432869977085,198.71763428080885 23.38993489355198,198.859866206265 23.36617983461474,199.0231691321933 23.380432869977085,199.1179899917479 23.342424775648396,199.21807852207712 23.161886327638058,199.24968539335168 23.019355973956408,199.28656005648736 22.891078655637102,199.29709567057216 22.75805032553035,199.35504151648274 22.6155199718487,199.41825510583294 22.49199366531684,199.4603974634847 22.387471405934775,199.49727200331836 22.297202181944158,199.56575323434663 22.178426887228852,199.61316327378154 22.09290867499658,199.66584105353104 22.050149568909546,199.72378656040019 22.050149568909546,199.72378656040019 22.031145521759754,199.7290543311101 21.97888439206872,199.78699977985525 21.898117191623896,199.80280307482099 21.788843920483487,199.8133386025802 21.698574696463766,199.88181949015416 21.62730951962294,199.91869378340925 21.589301425294252,199.99771005345247 21.527538272057427,200.06092299815282 21.423016012646258,200.050387511772 21.327995776897296,200.03985202363765 21.209220482123783,200.07145848278378 21.099947210983373,200.07672622442988 21.014428998780204,200.03985202363765 20.91940876300214,200.0240487881165 20.829139538982417,200.06092299815282 20.76262537392904,200.07145848278378 20.691360197088216,200.1241358794432 20.591588949522702,200.13993908987686 20.50131972550298,200.17154549882616 20.458560619415948,200.25056145184863 20.42055252508726,200.34538046469243 20.439556572237052,200.41912848717402 20.368291395396227,200.44019933489108 20.344536336429883,200.47180559325716 20.292275206767954,200.47707330143749 20.192503959173337,200.4928764233664 20.106985746970167,200.46127017557592 19.997712475829758,200.48760871649574 19.90744325183914,200.51921495109127 19.93119831077638,200.561356572558 19.92644729895983,200.63510434231648 19.92169628717238,200.6983166477039 19.893190216447692,200.74045814942656 19.888439204660244,200.793134986925 19.864684145723004,200.8510794573449 19.826676051394315,200.93536222828698 19.726904803828802,200.9775035715029 19.64138659159653,200.9985742325298 19.574872426543152,201.0143772236952 19.484603202552535,201.07232149070478 19.427591061074054,201.04598319412253 19.38958296677447,200.9985742325298 19.36582790777902,200.9985742325298 19.34207284884178,200.9511652353067 19.313566778117092,200.94062989773374 19.35632588423323,200.8826855096704 19.38008094317047,200.88795318351185 19.332570825266885,200.94062989773374 19.26605666024261,200.96696823832826 19.332570825266885,201.10392743206103 19.313566778117092,201.27249218502402 19.39908499032026,201.39364782275152 19.384831954957917,201.5042679842445 19.25655463663861,201.5569441833759 19.17578743622289,201.69390209509947 19.156783389073098,201.87826804476936 19.147281365498202,202.00469009858716 19.03800809432869,202.15744974196787 19.014253035391448,202.32074412377915 19.09502023580717,202.39975738244902 19.161534400860546,202.49457316213375 19.152032377256546,202.5946563303878 19.11877529474441,202.70527438410136 19.104522259382065,202.86856734671528 19.20429350694758,202.92650990918264 19.35157487244578,202.96338242120328 19.47035016719019,203.03712738053582 19.565370402968256,203.18461704039873 19.665141650562873,203.31630394508102 19.831427063181764,203.4374556544317 19.988210452225758,203.50593260453024 20.140242829482304,203.52173496706382 20.316030265705194,203.44799057466298 20.47281365474919,203.527002420371 20.658103114546975,203.5586071309117 20.84814358613221,203.59021182562356 21.009677986992756,203.6112816132918 21.095196199195925,203.60601416703867 21.209220482123783,203.6586886097939 21.351750835834537,203.66922349306697 21.465775118762394,203.69029325431984 21.63206053141039,203.71663044600064 21.779341896879487,203.71136300855142 21.917121238802793,203.7482350614846 22.026394509943202,203.7587699297801 22.192679922591196,203.80617681536387 22.344712299847743,203.81144424490049 22.53000175964553,203.80617681536387 22.65827907793573,203.72716531958213 22.76755234913435,203.74296762667655 22.919584726390895,203.79037452413468 23.043111032922752,203.74296762667655 23.128629245155025,203.71663044600064 23.228400492691435,203.80617681536387 23.356677811039845,203.95366467587155 23.3329227520735,204.11168700063718 23.41844096427667,204.23283718137463 23.4897061411466,204.19596541189094 23.693999648094177,204.19596541189094 23.865036072500516,204.17489581964037 24.05507654408575,204.10115219131694 24.183353862405056,203.96946692617348 24.37339433399029,203.97473434206768 24.48741861691815,204.08008256737958 24.667957064928487,204.12748921133607 24.87225057190517,204.1222218082039 24.98152384304558,204.06954775277336 25.143058243906125,204.0063388281378 25.304592644737568,203.95893209308633 25.432869963056874,203.8693859406958 25.546894246013835,203.89045563505715 25.684673587908037,203.96419950985 25.812950906227343,204.03267588777453 25.936477212730097,204.06954775277336 26.04575048389961,204.0063388281378 26.193031849368708,203.96946692617348 26.359317262016702,203.98526917252457 26.497096603910904,203.95893209308633 26.639626957592554,203.91152532236083 26.729896181612276,203.87992078875686 26.867675523506477,203.87465336494643 27.014956888975576,203.93786242160058 27.16698926623212,203.96946692617348 27.2430054548895,204.0063388281378 27.3807847967837,204.06428034480996 27.485307056136662,204.20123280884582 27.532817174011143,204.34871974508496 27.566074256552383,204.48040421800397 27.561323244764935,204.65949465973972 27.509062115073903,204.812247869766 27.471054020774318,204.96500070970433 27.58507830373128,205.08614925059737 27.58032729194383,205.22836680590262 27.456800985411974,205.33898023822258 27.319021643488668,205.37585133920948 27.22875241949805,205.53913738435585 27.219250395923154,205.69188846309407 27.328523667092668,205.828837391462 27.409290867537493,205.9710532714489 27.594580327306176,206.03426022624262 27.651592468784656,206.16594117855493 27.675347527721897,206.29235463403893 27.86538799930713,206.29762185585787 27.912898117210716,206.4451038879197 28.04592644731747,206.53991358350322 28.21221185993636,206.63472313652528 28.326236142893322,206.7506012855083 28.459264473000076,206.8559448724991 28.521027626266005,207.00342559860292 28.64930494458531,207.11403591679846 28.753827203938272,207.2773174604772 28.93436565194861,207.31945456438552 29.095900052809156,207.31945456438552 29.247932430065703,207.36685877263517 29.41896885447204,207.44586570719548 29.57575224354514,207.4985369418937 29.71828259722679,207.53013966160142 29.87981699805823,207.6196806147418 30.02709836352733,207.65128327373895 30.193383776175324,207.572276596562 30.32166109449463,207.5670094812449 30.497448530746624,207.54594101551265" stroke="#4DD2FF" stroke-dasharray="none" stroke-linecap="round" stroke-linejoin="round" stroke-width="0.5"><title>2026-03-14 12.0km</title><desc>9223370263378906807</desc></polyline></svg>