<?xml version="1.0" encoding="utf-8" ?>
<svg baseProfile="full" height="300mm" version="1.1" viewBox="0,0,200,300" width="200mm" xmlns="http://www.w3.org/2000/svg" xmlns:ev="http://www.w3.org/2001/xml-events" xmlns:xlink="http://www.w3.org/1999/xlink"><defs /><rect fill="#222222" height="300" width="200" x="0" y="0" /><text fill="#FFFFFF" style="font-size:12px; font-family:Arial; font-weight:bold;" x="10" y="20">Over 10km Runs</text><text fill="#FFFFFF" style="font-size:4px; font-family:Arial" x="10" y="280">Runner</text><text fill="#FFFFFF" style="font-size:9px; font-family:Arial" x="10" y="290">yihong0618</text><text fill="#FFFFFF" style="font-size:4px; font-family:Arial" x="65" y="280">SPECIAL TRACKS</text><rect fill="yellow" height="2.6" width="2.6" x="65" y="283" /><text fill="#FFFFFF" style="font-size:3px; font-family:Arial" x="70" y="285.5">Over 20.0 km</text><rect fill="red" height="2.6" width="2.6" x="65" y="287" /><text fill="#FFFFFF" style="font-size:3px; font-family:Arial" x="70" y="289.5">Over 40.0 km</text><text fill="#FFFFFF" style="font-size:4px; font-family:Arial" x="120" y="280">STATISTICS</text><text fill="#FFFFFF" style="font-size:3px; font-family:Arial" x="120" y="285">Number: 1</text><text fill="#FFFFFF" style="font-size:3px; font-family:Arial" x="120" y="290">Weekly: 1.0</text><text fill="#FFFFFF" style="font-size:3px; font-family:Arial" x="141" y="285">Total: 12.0 km</text><text fill="#FFFFFF" style="font-size:3px; font-family:Arial" x="141" y="290">Avg: 12.0 km</text><text fill="#FFFFFF" style="font-size:3px; font-family:Arial" x="167" y="285">Min: 12.0 km</text><text fill="#FFFFFF" style="font-size:3px; font-family:Arial" x="167" y="290">Max: 12.0 km</text><polyline fill="none" opacity="1" points="31.200598275579978,207.12194100838315 31.091325004410464,207.06400265264165 30.986802745057503,207.12194100838315 30.87752947388799,207.15354372545335 30.768256202718476,207.19041354200817 30.66373394333641,207.16934507805854 30.55921168398345,207.15354372545335 30.430934365664143,207.1588108434371 30.283653000195045,207.1798793109192 30.131620622909395,207.18514642669106 30.00809431640664,207.25888600128383 29.87981699805823,207.232550448829 29.71353158543934,207.15354372545335 29.604258314269828,207.11667388733986 29.447474925225833,207.09560539873564 29.328699630481424,207.02186563319628 29.181418265012326,206.9797285855857 29.034136899543228,206.9375915098317 28.915361604769714,206.95866005123753 28.635051909222966,206.89018726594077 28.635051909222966,206.8269815519925 28.563786732353037,206.67950130634927 28.48301953196642,206.62682970645983 28.421256378671387,206.44774593770126 28.311983107530978,206.36873823095448 28.24071793066105,206.2791960436225 28.136195671308087,206.2370584997043 28.041175435530022,206.1738521310217 27.89864508184837,206.14224892291168 27.855885975732235,206.0263703576893 27.83213091676589,205.91575880130404 27.689600563113345,205.95262934166385 27.60408235088107,205.82621597065008 27.60408235088107,205.66293165799289 27.49005806792411,205.63659543892936 27.366531761421356,205.5733884682959 27.300017596338876,205.4522415974352 27.195495336985914,205.35743084049318 27.152736230869778,205.19941259538973 27.214499384135706,205.0045228809904 27.390286820358597,204.9781863868775 27.537568185827695,204.87810760895445 27.556572232977487,204.73062280455997 27.433045926474733,204.6358109624016 27.471054020774318,204.49359293180532 27.49005806792411,204.3303051676994 27.542319197615143,204.18808644791352 27.57557628012728,204.05113478489147 27.475805032561766,203.94051976292758 27.452049973624526,203.7719631657892 27.35227872602991,203.66134765399693 27.224001407710603,203.65608024382527 27.22875241949805,203.65608024382527 27.2430054548895,203.65608024382527 27.219250395923154,203.66134765399693 27.22875241949805,203.65608024382527 27.214499384135706,203.67188247299418 27.214499384135706,203.67188247299418 27.214499384135706,203.66661506371747 27.133732183719985,203.55599936704675 27.138483195507433,203.42431376081004 27.16698926623212,203.31896507775673 27.247756466676947,203.22941855873796 27.338025690667564,203.16094172306475 27.418792891083285,203.0871973553185 27.54707020940259,203.00291797224418 27.665845504147,202.88176616166675 27.72760865741293,202.8027539858449 27.708604610263137,202.70267175429763 27.58507830373128,202.62365935397975 27.54707020940259,202.48143678384804 27.566074256552383,202.36028397098562 27.57557628012728,202.25493350966644 27.589829315518728,202.10744256800172 27.57557628012728,201.9862890363147 27.480556044349214,201.93361351512794 27.42829491465818,201.86513527176066 27.40453985572094,201.7071082723669 27.471054020774318,201.5701512190899 27.49956009152811,201.43846146415308 27.504311103286454,201.27516578589712 27.594580327306176,201.12767255157814 27.627837409818312,201.00124950459576 27.64684145699721,200.8800938466229 27.627837409818312,200.7536703030346 27.63258842160576,200.63251416914136 27.59933133906452,200.5376961627844 27.58032729194383,200.379665835153 27.665845504147,200.23217050520543 27.70385359847569,200.11101336881256 27.67059651593445,199.9740528472139 27.67059651593445,199.8265565680049 27.661094492359553,199.67379220063594 27.675347527721897,199.45254659828424 27.656343480543,199.41567225571998 27.157487242657226,198.67291304667378 27.06246700687916,198.63077041776342 27.043462959700264,198.52541372218548 27.014956888975576,198.44639608490252 26.991201830038335,198.40425330451035 26.953193735709647,198.32523551530176 26.88192855886882,198.25675335117194 26.810663382027997,198.22514617340858 26.76790427591186,198.1935389797727 26.696639099071035,198.0934494286994 26.60161886329297,198.00389548507883 26.5065986274858,197.91434141420177 26.435333450644976,197.85639459463346 26.335562203079462,197.88273406469307 26.22628893190995,197.90380563278813 26.12651768431533,197.924877193851 26.02199542496237,197.87746617155062 25.979236318846233,197.76684031413606 25.922224177367752,197.68255381620838 25.82245292980224,197.66675008530365 25.71317965866183,197.67728590635306 25.69892662327038,197.63514261160162 25.732183705782518,197.62460678350544 25.71317965866183,197.64041052498578 25.694175611482933,197.63514261160162 25.66566954072914,197.64041052498578 25.69892662327038,197.64041052498578 25.684673587908037,197.64041052498578 25.684673587908037,197.64041052498578 25.69892662327038,197.62987469776272 25.6419144817919,197.53505217357815 25.618159422825556,197.45603329441656 25.594404363888316,197.3664784449138 25.551645257801283,197.3190670024851 25.513637163472595,197.28219141148293 25.43762097484432,197.24004785247598 25.352102762641152,197.2453157988857 25.290339609375224,197.20317221522782 25.266584550437983,197.218976062406 25.214323420717847,197.21370811378802 25.133556220302125,197.25585169039914 25.071793067036197,197.29799523882684 24.995776878437027,197.29799523882684 24.94351574871689,197.3348708205922 24.848495512938825,197.37701431618189 24.80098539503524,197.44549743637617 24.75347527716076,197.45076536562192 24.677459088503383,197.49817670897028 24.606193911691662,197.52451632874727 24.51117367585539,197.57719553527568 24.406651416502427,197.63514261160162 24.325884216086706,197.73523289062723 24.226112968521193,197.77737611845077 24.140594756318023,197.76684031413606 24.026570473331958,197.77737611845077 23.95055428473279,197.76684031413606 23.964807320095133,197.74050079565131 23.96955833188258,197.76157241130932 23.96955833188258,197.75630450804965 23.9125461904041,197.7510366043607 23.85078303713817,197.69308963461663 23.79377089565969,197.68782172563806 23.70825268345652,197.7299649851775 23.65599155376549,197.65094635041896 23.54671828262508,197.6983575431659 23.47545310575515,197.59299928864857 23.408938940701773,197.52978425139372 23.356677811039845,197.49817670897028 23.342424775648396,197.49290878368993 23.294914657744812,197.42442571500214 23.21889846911654,197.3822822511429 23.1951434101793,197.39281811975525 23.19039239839185,197.37174638076613 23.16663733945461,197.3243349422919 23.1951434101793,197.22951195831774 23.199894421966746,197.15576064989727 23.123878233338473,197.08727721480682 23.09537216258468,197.0345975986893 23.05261305649765,196.96611403191127 23.043111032922752,196.88182646290807 23.009853950381512,196.75539489801304 22.981347879656823,196.58681908352082 22.900580679212,196.51833503005037 22.84356853776262,196.4603869266648 22.81031145522138,196.39190273577333 22.76755234913435,196.27600624315164 22.691536160506075,196.18644971647882 22.677283125114627,196.1074291460718 22.639275030815043,196.09689306251676 22.620270983636146,196.1126971871745 22.644026042573387,196.1126971871745 22.63452401899849,196.1074291460718 22.644026042573387,196.1074291460718 22.644026042573387,196.10216110452166 22.686785148689523,196.04948066476936 22.691536160506075,196.02840847654443 22.653528066177387,196.04948066476936 22.629773007211043,196.04948066476936 22.620270983636146,196.04948066476936 22.629773007211043,196.06001675624793 22.629773007211043,196.05474871073238 22.629773007211043,196.04948066476936 22.63452401899849,196.0336765242646 22.639275030815043,196.04421261836615 181.0,91.96685367170357 180.90973077600938,92.0248983037418 180.81471054023132,92.08294288193065 180.81471054023132,92.08294288193065 180.81471054023132,92.08294288193065 180.62942108043353,92.19903187672753 23.104874186159577,197.0082577741341 23.161886327638058,197.12942087598276 23.180890374816954,197.22951195831774 23.180890374816954,197.3454066971317 23.199894421966746,197.47183707817385 23.27115959880757,197.56665969749884 23.309167693107156,197.68255381620838 23.304416681348812,197.84585880353188 23.3329227520735,198.02496701267228 23.36142882279819,198.1935389797727 23.380432869977085,198.31996765915756 23.385183881764533,198.47273530834718 23.36617983461474,198.64657390690627 23.380432869977085,198.7413947585519 23.313918704923708,198.85201890514873 23.114376209763577,198.86255452803016 22.96709484429448,198.90996480919785 22.824564490583725,198.9468394476644 22.68203413693118,199.01532086187217 22.544254795007873,199.073266615771 22.401724441326223,199.11014115868238 22.311455217335606,199.16808682540068 22.18792891080375,199.22076465798455 22.09290867499658,199.2839779989772 22.050149568909546,199.34192350584635 22.059651592484443,199.33138796310595 22.01689248639741,199.3629945860339 21.94562730952748,199.40513672530142 21.850607073749416,199.43147554802636 21.74608481436735,199.46308212077201 21.646313566772733,199.52629521870767 21.60830547247315,199.57897275187497 21.546542319178116,199.679059943599 21.423016012646258,199.66852445721815 21.33274678865564,199.65798896908382 21.209220482123783,199.68959542822995 21.08569417562103,199.68959542822995 20.995424951601308,199.64218573356266 20.886151680460898,199.6474534791705 20.805384480045177,199.679059943599 20.734119303204352,199.7001309110783 20.639099067397183,199.74754056214806 20.529825796256773,199.77914697637607 20.47281365474919,199.8476274861605 20.430054548662156,199.9477142512369 20.439556572237052,200.0267300061314 20.368291395396227,200.05833628033724 20.33978532467154,200.08467483008644 20.273271159589058,200.08994253870333 20.1592468766612,200.1004779546456 20.064226640883135,200.08467483008644 19.940700334351277,200.12154878122237 19.916945275414037,200.15315500789802 19.935949322534725,200.22690280847382 19.92644729895983,200.30591821332564 19.89794122823514,200.35859509487273 19.883688192843692,200.4060042506062 19.864684145723004,200.46921640279106 19.826676051394315,200.56403451217557 19.712651768437354,200.58510518377443 19.612880520842737,200.62724650587188 19.536864332243567,200.64304949438156 19.451346120011294,200.67465545952655 19.41333802571171,200.6377818319852 19.370578919595573,200.62197884214402 19.337321837054333,200.59564051694906 19.327819813479437,200.56403451217557 19.370578919595573,200.50609012895802 19.38008094317047,200.50609012895802 19.332570825266885,200.5587668431799 19.275558683788404,200.59564051694906 19.327819813479437,200.7484026498896 19.327819813479437,200.9327702482624 19.432342072861502,201.0644610597883 19.332570825266885,201.1382077940507 19.223297554126475,201.24356012188218 19.152032377256546,201.43319386822623 19.190040471585235,201.55961604881304 19.05701214147848,201.7439812743287 19.004751011787448,201.90200818128505 19.09502023580717,202.0178943278952 19.161534400860546,202.11271010757991 19.147281365498202,202.22332833692053 19.11402428295696,202.3655514894199 19.133028330135858,202.49197180004558 19.25655463663861,202.57098436541128 19.40383600210771,202.62365935397975 19.55111736760591,202.7448116606247 19.603378497296944,202.8975685849473 19.75541087455349,203.01872036515124 19.964455393288517,203.118802094923 20.125989794149064,203.14513936581716 20.316030265705194,203.06612752010915 20.487066690140637,203.15567427109636 20.681858173484216,203.18201152658366 20.886151680460898,203.2136162186507 21.009677986992756,203.21888366578423 21.156959352461854,203.27155811294142 21.28523667078116,203.2820929970876 21.432518036250258,203.28736043851313 21.57504838996101,203.32949995399758 21.74608481436735,203.32423251609725 21.898117191623896,203.35056970116057 22.026394509943202,203.37690687522627 22.192679922591196,203.42431376081004 22.363716346997535,203.4348486194467 22.55850783039932,203.40324403829436 22.69628717226442,203.32949995399758 22.819813478796277,203.38744174176827 22.99084990323172,203.41377890042713 23.09537216258468,203.30316276010853 23.16663733945461,203.41377890042713 23.3329227520735,203.52439484664865 23.323420728498604,203.7192891367631 23.408938940701773,203.81936975429198 23.4897061411466,203.8141023573371 23.70825268345652,203.81936975429198 23.9125461904041,203.80356756208494 24.08358261481044,203.66661506371747 24.23561499209609,203.56126678558576 24.416153440106427,203.6350105987549 24.56818581733387,203.74035875365007 24.824740454001585,203.74035875365007 24.95301777232089,203.69295210573546 25.10029913778999,203.6455454221832 25.27133556222543,203.5770690385325 25.432869963056874,203.48752288614196 25.546894246013835,203.50859258050332 25.71317965866183,203.60340611797074 25.836705965164583,203.65608024382527 25.974485307058785,203.67188247299418 26.098011613590643,203.60340611797074 26.25954601445119,203.58233645529617 26.440084462432424,203.60340611797074 26.59686785150552,203.54546452868453 26.71089213443338,203.50859258050332 26.843920464569237,203.4822554614475 27.00545486540068,203.55599936704675 27.16698926623212,203.58760387161965 27.26676051382674,203.62974318640045 27.399788843933493,203.70348691946492 27.480556044349214,203.86677630713893 27.58032729194383,204.00372837066243 27.561323244764935,204.1775517151582 27.518564138677903,204.33557252152968 27.49480907971156,204.51992962833538 27.532817174011143,204.67794957651495 27.589829315518728,204.83070181660878 27.475805032561766,204.9518498817779 27.319021643488668,204.99398828465564 27.22875241949805,205.15727432980202 27.2335034312855,205.32582722315783 27.338025690667564,205.47857789350746 27.49005806792411,205.61025920886823 27.642090445180656,205.69453510635867 27.627837409818312,205.85255211051845 27.78462079889141,205.91575880130404 27.89864508184837,206.00003429042772 28.01266936477623,206.13698172002842 28.18845680099912,206.2370584997043 28.321485131105874,206.35820386257183 28.459264473000076,206.47408181794526 28.540031673415797,206.63209686842674 28.658806968160206,206.7585086236977 28.79658631005441,206.91652296139 28.98187576982309,206.94285864583435 29.181418265012326,206.96392718549032 29.33820165405632,207.02713276216673 29.532993137458107,207.085071151796 29.680274502927205,207.14300948820528 29.85606193912099,207.2062148853729 30.00334330459009,207.26942021918512 30.17913074081298,207.1956806569142 30.33116311809863,207.17461219471443 30.511701566079864,207.1588108434371 30.7112440612691,207.16934507805854 30.8395213795593,207.1482766070476 30.991553756815847,207.09560539873564 31.119831075135153,207.02713276216673 31.257610417029355,207.09560539873564 31.381136723561212,207.19041354200817 31.518916065455414,207.22728333702253 31.556924159784103,207.35369389906919 31.613936301262584,207.49590547844855 31.7137075488572,207.61704842271502 31.81347879639361,207.72238992420898 31.894245996838436,207.76979354246578 31.951258138316916,207.75925940815432 31.96551117367926,207.6802533447226 32.02727432694519,207.69605456532008 32.098539503786014,207.80139593482818 32.18880872777663,207.91727123803503 32.2838289635838,208.03314632829643" stroke="#4DD2FF" stroke-dasharray="none" stroke-linecap="round" stroke-linejoin="round" stroke-width="0.5"><title>2026-03-14 12.0km</title><desc>9223370263378906807</desc></polyline></svg>