<?xml version="1.0" encoding="utf-8" ?>
<svg baseProfile="full" height="300mm" version="1.1" viewBox="0,0,200,300" width="200mm" xmlns="http://www.w3.org/2000/svg" xmlns:ev="http://www.w3.org/2001/xml-events" xmlns:xlink="http://www.w3.org/1999/xlink"><defs /><rect fill="#222222" height="300" width="200" x="0" y="0" /><text fill="#FFFFFF" style="font-size:12px; font-family:Arial; font-weight:bold;" x="10" y="20">Over 10km Runs</text><text fill="#FFFFFF" style="font-size:4px; font-family:Arial" x="10" y="280">Runner</text><text fill="#FFFFFF" style="font-size:9px; font-family:Arial" x="10" y="290">yihong0618</text><text fill="#FFFFFF" style="font-size:4px; font-family:Arial" x="65" y="280">SPECIAL TRACKS</text><rect fill="yellow" height="2.6" width="2.6" x="65" y="283" /><text fill="#FFFFFF" style="font-size:3px; font-family:Arial" x="70" y="285.5">Over 20.0 km</text><rect fill="red" height="2.6" width="2.6" x="65" y="287" /><text fill="#FFFFFF" style="font-size:3px; font-family:Arial" x="70" y="289.5">Over 40.0 km</text><text fill="#FFFFFF" style="font-size:4px; font-family:Arial" x="120" y="280">STATISTICS</text><text fill="#FFFFFF" style="font-size:3px; font-family:Arial" x="120" y="285">Number: 1</text><text fill="#FFFFFF" style="font-size:3px; font-family:Arial" x="120" y="290">Weekly: 1.0</text><text fill="#FFFFFF" style="font-size:3px; font-family:Arial" x="141" y="285">Total: 12.0 km</text><text fill="#FFFFFF" style="font-size:3px; font-family:Arial" x="141" y="290">Avg: 12.0 km</text><text fill="#FFFFFF" style="font-size:3px; font-family:Arial" x="167" y="285">Min: 12.0 km</text><text fill="#FFFFFF" style="font-size:3px; font-family:Arial" x="167" y="290">Max: 12.0 km</text><polyline fill="none" opacity="1" points="30.825268344196957,207.29312092359396 30.706493049452547,207.31418938579372 30.61622382546193,207.27205245433288 30.487946507142624,207.27731957231663 30.359669188823318,207.27731957231663 30.20288579975022,207.28785380693807 30.074608481460018,207.36159340001177 29.94158015132416,207.37212762055424 29.80855182124651,207.28258668983835 29.651768432173412,207.25098397804686 29.5519971846079,207.20357988067553 29.3952137955348,207.18777850698098 29.25268344185315,207.12457297252695 29.119655111746397,207.06136737471388 28.9723737462773,207.05610023871122 28.834594404353993,207.0929701815403 28.65405595637276,207.00342885440477 28.56853774416959,206.84014728347393 28.525778638053453,206.77694140054882 28.41650536688394,206.6347279323454 28.359493225434562,206.53991877531735 28.259721977839945,206.408239154076 28.202709836361464,206.37136881085098 28.083934541617054,206.32396405216787 27.950906211539404,206.29236085990124 27.846383952128235,206.19228397989355 27.884392046456924,206.08693972408946 27.756114728137618,206.0606036326426 27.60883336266852,206.03953475154776 27.623086398059968,205.83938003008006 27.537568185827695,205.77090590056832 27.418792891083285,205.734035184636 27.319021643488668,205.62869016316108 27.2430054548895,205.5180777011701 27.157487242657226,205.39693049631387 27.162238254473777,205.24417934101075 27.333274678880116,205.11776431191538 27.475805032561766,205.08089321402076 27.566074256552383,204.90180471746862 27.504311103286454,204.81226027843513 27.466303008957766,204.6753097139008 27.442547950020526,204.52782415782713 27.532817174011143,204.39087297538572 27.561323244764935,204.23811938246217 27.537568185827695,204.10116757068317 27.49480907971156,203.95894806661818 27.390286820358597,203.83779786564264 27.22875241949805,203.74825191527998 27.22875241949805,203.7745889727048 27.252507478464395,203.7745889727048 27.214499384135706,203.7745889727048 27.224001407710603,203.77985638287646 27.219250395923154,203.77985638287646 27.20974837234826,203.785123792597 27.214499384135706,203.77985638287646 27.195495336985914,203.7745889727048 27.133732183719985,203.60076419032703 27.152736230869778,203.4954156041058 27.214499384135706,203.39006684182095 27.29051557276398,203.3057877052488 27.35227872602991,203.24257827885594 27.480556044349214,203.15829894507988 27.59933133906452,203.05294961940672 27.699102586659137,202.9686700320999 27.71810663380893,202.8685878758115 27.642090445180656,202.77904054866303 27.566074256552383,202.67369058914846 27.537568185827695,202.52620035001382 27.566074256552383,202.4155824442023 27.570825268368935,202.30496434426823 27.618335386243416,202.15747324237236 27.49956009152811,202.07846001009239 27.471054020774318,202.00998179535236 27.390286820358597,201.90989811690088 27.433045926474733,201.72553303004315 27.504311103286454,201.63071648969708 27.504311103286454,201.47795620797478 27.542319197615143,201.32519555605177 27.613584374455968,201.19877266755793 27.627837409818312,201.05127897714192 27.656343480543,200.92485553923325 27.618335386243416,200.80896716503048 27.60883336266852,200.69834624542273 27.594580327306176,200.5929928081605 27.613584374455968,200.4086238691707 27.699102586659137,200.28746684416183 27.699102586659137,200.1663095862532 27.661094492359553,200.0188134796481 27.675347527721897,199.8660492910276 27.67059651593445,199.6974814807545 27.665845504147,199.5499842769059 27.17174027801957,198.79668960218987 27.0862220658164,198.7808861209669 27.06246700687916,198.68079731455146 27.02920992433792,198.60704756599807 27.00545486540068,198.56490481378205 26.972197782888543,198.48061922480701 26.905683617835166,198.4279406744463 26.848671476356685,198.3699942181811 26.763153264124412,198.32258344161528 26.725145169824827,198.25410114583065 26.6538799929549,198.18561877560933 26.535104698239593,198.07499325110985 26.463839521398768,197.98017121840167 26.39257434452884,197.9696354281914 26.27855006160098,198.00651068624575 26.188280837610364,198.03811803313147 26.05525250750361,198.0328501430813 25.998240365996026,197.93276014855655 25.945979236334097,197.85374161950676 25.884216083068168,197.77472299137298 25.755938764748862,197.81159836349616 25.708428646845277,197.75365134048116 25.708428646845277,197.73257968251346 25.71317965866183,197.74311551238497 25.69892662327038,197.74838342664225 25.679922576091485,197.7694550792985 25.670420552545693,197.764187166802 25.67517156433314,197.779990903 25.67517156433314,197.764187166802 25.694175611482933,197.73784759767295 25.69892662327038,197.72731176693196 25.622910434642108,197.6219533626827 25.608657399279764,197.5376665124495 25.565898293163627,197.45337954947172 25.53739222243894,197.43230779110672 25.456625021994114,197.39016425325462 25.399612880544737,197.33748479128553 25.314094668312464,197.34275273945605 25.27133556222543,197.3269488936021 25.266584550437983,197.3164129941615 25.176315326418262,197.36382452776525 25.10029913778999,197.40070014036246 25.03853598452406,197.40596808325063 24.98152384304558,197.43757573136463 24.905507654417306,197.47971923751174 24.829491465789033,197.54820237489912 24.777230336098,197.5745420232961 24.72021819461952,197.59561373409815 24.653704029566143,197.60614958685255 24.558683793788077,197.6746325868371 24.45891254619346,197.70624010018582 24.363892310415395,197.8063304545176 24.278374098212225,197.8958848473303 24.159598803467816,197.90115274881464 24.097835650201887,197.90115274881464 23.988562379032373,197.8853490430156 23.94580327294534,197.87481323692919 23.964807320095133,197.85900952453085 23.964807320095133,197.88008114018885 23.94580327294534,197.8906169453876 23.888791131437756,197.84320580814529 23.822276966413483,197.8063304545176 23.755762801360106,197.84847371405704 23.684497624490177,197.79052672493708 23.589477388712112,197.80106254508792 23.50871018829639,197.75891925386532 23.437445011455566,197.66936466639527 23.36142882279819,197.63248921103877 23.347175787435845,197.62722128707537 23.323420728498604,197.57980995166508 23.261657575232675,197.50605891455416 23.19039239839185,197.50605891455416 23.1951434101793,197.51132684863478 23.180890374816954,197.47971923751174 23.180890374816954,197.39543219701955 23.1951434101793,197.3164129941615 23.152384304092266,197.25846551576615 23.114376209763577,197.1847141025246 23.08587013903889,197.11096260297563 23.05261305649765,197.0424789903809 23.009853950381512,196.9318514589686 23.009853950381512,196.75273980580096 22.924335738178343,196.68952380665723 22.881576632062206,196.57889565554433 22.81031145522138,196.53148353131837 22.80556044340483,196.44719522236846 22.72954425480566,196.34710270906362 22.67253211332718,196.2680821914946 22.663030089752283,196.2206698334012 22.6250219954527,196.2206698334012 22.644026042573387,196.23120591605402 22.64877705438994,196.23120591605402 22.629773007211043,196.2206698334012 22.639275030815043,196.2206698334012 22.65827907793573,196.2206698334012 22.69628717226442,196.14691720542396 22.691536160506075,196.1679893936489 22.606017948273802,196.15745330040954 22.6250219954527,196.17325743961192 22.6155199718487,196.18379353020282 22.6250219954527,196.17325743961192 22.6250219954527,196.1679893936489 22.629773007211043,196.16272134724568 22.629773007211043,196.16272134724568 22.644026042573387,196.15745330040954 180.90973077600938,92.14340703262133 180.81471054023132,92.20145161081018 180.81471054023132,92.20145161081018 180.81471054023132,92.20145161081018 180.7244413162407,92.25949613513876 23.08587013903889,197.10042666740628 23.11912722152192,197.21632186162242 23.185641386604402,197.2900732378548 23.171388351242058,197.41123602569496 23.180890374816954,197.54293444388168 23.228400492691435,197.6430250576268 23.285412634169916,197.74838342664225 23.294914657744812,197.88008114018885 23.318669716682052,198.02231436166767 23.347175787435845,198.23302965522817 23.375681858189637,198.38579780244982 23.39468590533943,198.50695848347095 23.380432869977085,198.69133298586894 23.380432869977085,198.81776090430503 23.37093084640219,198.91258167670458 23.204645433754195,198.99686668793584 23.033609009347856,199.01267011498203 22.891078655637102,199.03374134489786 22.75805032553035,199.09168719080844 22.596515924698906,199.15490078015864 22.4682386063796,199.20757872283866 22.363716346997535,199.24972104526387 22.254443075857125,199.307666692599 22.126165757508716,199.3708800652821 22.078655639634235,199.4393611474843 22.050149568909546,199.4604322347259 22.050149568909546,199.4657000054358 21.99313742740196,199.51310992200888 21.902868203411344,199.5394487491467 21.788843920483487,199.5499842769059 21.693823684676317,199.6290006790441 21.617807496048044,199.66587496613283 21.57504838996101,199.76596220805004 21.475277142366394,199.80283641501592 21.385007918346673,199.7712299532286 21.25197958823992,199.80283641501592 21.147457328886958,199.81337189875558 21.042935069533996,199.7870331860977 20.947914833726827,199.7606944624422 20.829139538982417,199.79230092951548 20.77212739753304,199.80283641501592 20.691360197088216,199.8607815537689 20.582086925947806,199.87658476420256 20.491817701928085,199.91872663928007 20.439556572237052,200.0135457551478 20.434805560449604,200.10836472838855 20.396797466120915,200.1715772979478 20.35403836000478,200.19791584990162 20.311279253917746,200.20845126758286 20.225761041714577,200.2295220976921 20.121238782361615,200.20845126758286 19.997712475829758,200.22425439082144 19.90744325183914,200.25586062541697 19.93119831077638,200.2980022468837 19.92644729895983,200.38755309893168 19.90744325183914,200.44023001129608 19.90269224002259,200.4929068796191 19.883688192843692,200.54558370392624 19.864684145723004,200.64040187672072 19.769663909915835,200.72995224226543 19.655639626958873,200.7141492458286 19.589125461905496,200.74048757102355 19.49410522612743,200.80896716503048 19.427591061074054,200.78262886844823 19.38958296677447,200.7352199068555 19.36582790777902,200.72995224226543 19.327819813479437,200.69307857774402 19.35632588423323,200.66147256240583 19.370578919595573,200.6193311839961 19.346823860658333,200.666740232733 19.304064754542196,200.6825432410551 19.31831778990454,200.78789652863998 19.304064754542196,200.977532002511 19.38008094317047,201.1092229681235 19.38958296677447,201.23564603622435 19.25655463663861,201.2935898577016 19.166285412647994,201.44635058624044 19.156783389073098,201.62544889993296 19.11402428295696,201.78347640116408 19.004751011787448,201.94150350620475 19.023755058966344,202.1416706038326 19.142530353710754,202.18381096443773 19.128277318319306,202.28389420797612 19.133028330135858,202.40504739544122 19.08551821220317,202.58941049474743 19.194791483372683,202.64208556695303 19.34207284884178,202.70002809552898 19.47035016719019,202.77377305486152 19.565370402968256,202.9423326379474 19.69839873307501,203.0898219034134 19.864684145723004,203.20570608419803 20.054724617279135,203.27945045194429 20.21625901813968,203.18463624898868 20.396797466120915,203.22150845597207 20.582086925947806,203.2741829999759 20.781629421078833,203.31632260347033 20.971669892664067,203.32685749994926 21.090445187408477,203.33739239466377 21.209220482123783,203.3953342841196 21.35650184765109,203.40586916739267 21.48477916594129,203.43220636786646 21.651064578589285,203.45327612032634 21.82685201478307,203.45327612032634 21.964631356706377,203.5059504706478 22.11666373393382,203.53228762930667 22.278198134794366,203.54282248968957 22.463487594592152,203.5480899192262 22.629773007211043,203.47961330100225 22.753299313772004,203.46381099390783 22.910082702816,203.5217527671739 23.043111032922752,203.4690784300401 23.13338025691337,203.4690784300401 23.261657575232675,203.54282248968957 23.342424775648396,203.74298450246351 23.408938940701773,203.8694022883501 23.44219602321391,204.00108721237484 23.608481435861904,203.89573929514881 23.80327291926369,203.93261108621664 23.99806440260727,203.87993709238435 24.169100827042712,203.72718226142024 24.354390286811395,203.7008451841757 24.48741861691815,203.81672824170528 24.686961112107383,203.86413488566177 24.900756642629858,203.8588674825296 25.019531937374268,203.80092601913566 25.185817350022262,203.70611260049918 25.366355798003497,203.6692406769689 25.489882104535354,203.58496191362428 25.632412458217004,203.68504293255683 25.765440788323758,203.79039120187372 25.912722153792856,203.80619342709906 26.036248460324714,203.75351932763442 26.188280837610364,203.7008451841757 26.36406827380415,203.72718226142024 26.511349639302352,203.69031035019725 26.672884040133795,203.63763615391144 26.76790427591186,203.61129903927213 26.929438676772406,203.62710130938285 27.09097307760385,203.70611260049918 27.185993313411018,203.73244967554274 27.342776702455012,203.7745889727048 27.456800985411974,203.89047189466874 27.504311103286454,204.0748306496971 27.566074256552383,204.21704989232967 27.561323244764935,204.39614033406542 27.518564138677903,204.56469557919263 27.46155199719942,204.73325037366521 27.594580327306176,204.86493349326702 27.54707020940259,205.01241826070327 27.3807847967837,205.10196241545054 27.247756466676947,205.20204102614662 27.20499736056081,205.36005956168083 27.295266584551428,205.5180777011701 27.3807847967837,205.68136269590468 27.57557628012728,205.7551041678089 27.651592468784656,205.8920523868146 27.684849551296793,206.03426753018357 27.884392046456924,206.03426753018357 27.93190216436051,206.20808560309524 28.098187577008503,206.3081624580118 28.283477036777185,206.408239154076 28.402252331521595,206.5346515957608 28.487770543753868,206.67159812157115 28.61604786204407,206.80854434993307 28.69681506245979,206.9718260027148 28.891606545832474,207.06136737471388 29.072144993871916,207.06136737471388 29.247932430065703,207.10350444696087 29.437972901650937,207.18251138152118 29.590005278907483,207.24044973726268 29.780045750463614,207.28258668983835 29.932078127749264,207.36686051050856 30.09361252860981,207.35105917770852 30.250395917653805,207.31418938579372 30.43568537745159,207.27731957231663 30.61622382546193,207.27205245433288 30.773007214505924,207.28258668983835 30.915537568216678,207.2351826162194 31.053316910081776,207.18251138152118 31.19584726379253,207.17724425562483 31.309871546720387,207.28258668983835 31.45715291221859,207.31418938579372 31.547422136209207,207.40373027162786 31.575928206933895,207.5459420054358 31.670948442741064,207.68815341849404 31.780221713910578,207.7882279243313 31.846735878963955,207.90937053467133 31.903748020442436,207.89883640388507 31.975013197254157,207.84616572353116 31.984515220858157,207.7618925434508 32.05578039769898,207.86723400094706" stroke="#4DD2FF" stroke-dasharray="none" stroke-linecap="round" stroke-linejoin="round" stroke-width="0.5"><title>2026-03-14 12.0km</title><desc>9223370263378906807</desc></polyline></svg>