<?xml version="1.0" encoding="utf-8" ?>
<svg baseProfile="full" height="300mm" version="1.1" viewBox="0,0,200,300" width="200mm" xmlns="http://www.w3.org/2000/svg" xmlns:ev="http://www.w3.org/2001/xml-events" xmlns:xlink="http://www.w3.org/1999/xlink"><defs /><rect fill="#222222" height="300" width="200" x="0" y="0" /><text fill="#FFFFFF" style="font-size:12px; font-family:Arial; font-weight:bold;" x="10" y="20">Over 10km Runs</text><text fill="#FFFFFF" style="font-size:4px; font-family:Arial" x="10" y="280">Runner</text><text fill="#FFFFFF" style="font-size:9px; font-family:Arial" x="10" y="290">yihong0618</text><text fill="#FFFFFF" style="font-size:4px; font-family:Arial" x="65" y="280">SPECIAL TRACKS</text><rect fill="yellow" height="2.6" width="2.6" x="65" y="283" /><text fill="#FFFFFF" style="font-size:3px; font-family:Arial" x="70" y="285.5">Over 20.0 km</text><rect fill="red" height="2.6" width="2.6" x="65" y="287" /><text fill="#FFFFFF" style="font-size:3px; font-family:Arial" x="70" y="289.5">Over 40.0 km</text><text fill="#FFFFFF" style="font-size:4px; font-family:Arial" x="120" y="280">STATISTICS</text><text fill="#FFFFFF" style="font-size:3px; font-family:Arial" x="120" y="285">Number: 1</text><text fill="#FFFFFF" style="font-size:3px; font-family:Arial" x="120" y="290">Weekly: 1.0</text><text fill="#FFFFFF" style="font-size:3px; font-family:Arial" x="141" y="285">Total: 12.0 km</text><text fill="#FFFFFF" style="font-size:3px; font-family:Arial" x="141" y="290">Avg: 12.0 km</text><text fill="#FFFFFF" style="font-size:3px; font-family:Arial" x="167" y="285">Min: 12.0 km</text><text fill="#FFFFFF" style="font-size:3px; font-family:Arial" x="167" y="290">Max: 12.0 km</text><polyline fill="none" opacity="1" points="30.86802745028399,207.2667854450483 30.75400316735613,207.29838814361938 30.654231919761514,207.27205256257002 30.549709660408553,207.26151832706455 30.421432342089247,207.26151832706455 30.27415097662015,207.2878539125304 30.126869611121947,207.29838814361938 29.993841281015193,207.36686060289503 29.87031497451244,207.32999082637616 29.699278550047893,207.26151832706455 29.59475629069493,207.21411424554753 29.43322188986349,207.20358000034685 29.319197606906528,207.12457310539685 29.176667253224878,207.08243605427197 29.024634875939228,207.0455661114429 28.905859581223922,207.07190178710152 28.64930494458531,206.99816186755197 28.635051909222966,206.92442186177868 28.559035720594693,206.78747590796047 28.468766496574972,206.7295371456603 28.41650536688394,206.54518618413567 28.288228048593737,206.44510972214266 28.235966918902704,206.39243783623533 28.13144465952064,206.33976590634484 28.036424423742574,206.27655953238718 27.89864508184837,206.23968911831253 27.855885975732235,206.12381053372155 27.813126869645203,206.02900062427943 27.680098539509345,206.06060394327505 27.60883336266852,205.92365611324567 27.59933133906452,205.7656390166776 27.480556044349214,205.73930279539854 27.357029737817356,205.67082856863635 27.29051557276398,205.55494893851937 27.181242301594466,205.4548709047449 27.152736230869778,205.2968526332479 27.22875241949805,205.10723018464705 27.395037832146045,205.0861609884887 27.54707020940259,204.97028028375644 27.54707020940259,204.82806276408155 27.433045926474733,204.72798357646388 27.466303008957766,204.58576551021542 27.49956009152811,204.4330124150256 27.537568185827695,204.2907936833617 27.57557628012728,204.1485746308499 27.471054020774318,204.0221574259449 27.437796938233078,203.86940296511602 27.338025690667564,203.76405484543648 27.22875241949805,203.76405484543648 27.238254443072947,203.76405484543648 27.238254443072947,203.76932225560813 27.219250395923154,203.76932225560813 27.22875241949805,203.7587874348319 27.214499384135706,203.7798570746054 27.214499384135706,203.7798570746054 27.214499384135706,203.77458966532868 27.128981171903433,203.65343913029574 27.138483195507433,203.52702093245534 27.17649128983612,203.4164048013772 27.257258490251843,203.33212571409604 27.338025690667564,203.26891632467596 27.42829491465818,203.18990449879493 27.55182122119004,203.10035764304484 27.67059651593445,202.98974076327795 27.72760865741293,202.90019362319072 27.699102586659137,202.80011137491965 27.58507830373128,202.72636645870807 27.542319197615143,202.56834134776727 27.566074256552383,202.45772353440043 27.57557628012728,202.35237305545888 27.594580327306176,202.20488208913957 27.566074256552383,202.08899608778302 27.475805032561766,202.03632056219067 27.423543902870733,201.96784231310448 27.409290867537493,201.7834774265575 27.471054020774318,201.66759065042424 27.49956009152811,201.53590087346674 27.509062115073903,201.37260516793322 27.60408235088107,201.23564715318935 27.627837409818312,201.09868884085517 27.656343480543,200.9775331626115 27.627837409818312,200.85637725150082 27.63258842160576,200.73522110748308 27.594580327306176,200.6404030931808 27.58032729194383,200.48237275235078 27.67059651593445,200.34014510681664 27.699102586659137,200.20845255625682 27.67059651593445,200.07675973050573 27.675347527721897,199.92399570788984 27.656343480543,199.76596357069502 27.675347527721897,199.56052119989545 27.656343480543,199.52891462187836 27.14798521908233,198.77561982121915 27.06246700687916,198.72294152627728 27.03871194794192,198.62812048438354 27.014956888975576,198.55437068651372 26.991201830038335,198.51222790612155 26.94369171213475,198.43321011691296 26.877177547081374,198.35946009091276 26.80591237024055,198.33312077501978 26.753651240549516,198.2857099786197 26.68713707549614,198.19088827885207 26.587365827930626,198.10133432025032 26.5065986274858,198.00651234302495 26.430582438857527,197.96436919624466 26.33081119126291,197.99597655897742 26.2215379201225,198.01178023439934 26.112264648952987,198.0328517954622 26.01724441317492,197.96963709113334 25.974485307058785,197.86427910966086 25.922224177367752,197.7905284178196 25.808199894439895,197.76945677573167 25.70367763505783,197.77999259766875 25.69892662327038,197.74311721321283 25.732183705782518,197.73258138511665 25.732183705782518,197.72204555524513 25.69892662327038,197.74311721321283 25.66566954072914,197.748385126597 25.69892662327038,197.748385126597 25.694175611482933,197.75365303953367 25.694175611482933,197.74311721321283 25.69892662327038,197.73784929937392 25.6419144817919,197.64302677518936 25.618159422825556,197.56400789602776 25.58490234031342,197.46391717352162 25.542143234197283,197.4270416040963 25.508886151685147,197.3954339559823 25.43762097484432,197.3480224540872 25.347351750853704,197.35329040049692 25.29509062116267,197.30587886689318 25.257082526833983,197.31641476633376 25.209572408959502,197.3269506640172 25.128805208514677,197.36909423710313 25.06704205524875,197.4112377820129 24.986274854833027,197.4112377820129 24.94351574871689,197.44811336068597 24.843744501151377,197.4849889177931 24.80098539503524,197.55347203798738 24.74397325355676,197.55873996723312 24.667957064928487,197.60615131058148 24.601442899904214,197.64302677518936 24.501671652309597,197.69043805510591 24.40190040471498,197.75365303953367 24.31638219251181,197.84847539726252 24.211859933129745,197.8906186215463 24.131092732714023,197.87481491574727 24.02181946154451,197.87481491574727 23.94580327294534,197.87481491574727 23.964807320095133,197.84847539726252 23.964807320095133,197.86427910966086 23.96955833188258,197.86427910966086 23.9125461904041,197.8590112059719 23.85078303713817,197.80106423622783 23.79377089565969,197.79579632724926 23.698750659881625,197.82740377452865 23.64648953016149,197.75892095203017 23.54671828262508,197.80106423622783 23.470702093967702,197.70097389025977 23.408938940701773,197.63775885300493 23.356677811039845,197.60615131058148 23.342424775648396,197.60088338530113 23.285412634169916,197.52186445330517 23.209396445541643,197.4849889177931 23.1951434101793,197.49552478728583 23.19039239839185,197.47972098237733 23.171388351242058,197.4270416040963 23.199894421966746,197.33221861218772 23.1951434101793,197.2584672976118 23.11912722152192,197.18998385678424 23.100123174401233,197.13730423627567 23.05261305649765,197.06882066375692 23.0383600211062,196.97926511047626 23.005102938594064,196.85283352443366 22.96709484429448,196.69479368513203 22.891078655637102,196.61577361682794 22.838817525975173,196.55782550375443 22.80556044340483,196.49460931960857 22.76755234913435,196.3787128173135 22.686785148689523,196.28915628315008 22.67253211332718,196.215403747683 22.63452401899849,196.20486766412796 22.620270983636146,196.2206717887857 22.644026042573387,196.2259398294591 22.63452401899849,196.215403747683 22.644026042573387,196.215403747683 22.64877705438994,196.21013570613286 22.686785148689523,196.15218721997735 22.691536160506075,196.13638307815563 22.63452401899849,196.1416511258758 22.629773007211043,196.15745526638057 22.620270983636146,196.15745526638057 22.639275030815043,196.1627233123436 22.629773007211043,196.1627233123436 22.629773007211043,196.15745526638057 22.63452401899849,196.1416511258758 22.639275030815043,196.15218721997735 181.0,92.07482827331478 180.81471054023132,92.19091748354185 180.81471054023132,92.19091748354185 180.81471054023132,92.19091748354185 180.7244413162407,92.24896200787043 180.62942108043353,92.30700647833874 23.104874186159577,197.12150034153456 23.161886327638058,197.242663433266 23.185641386604402,197.3480224540872 23.19039239839185,197.45864923634508 23.199894421966746,197.58507960682982 23.27115959880757,197.69043805510591 23.309167693107156,197.8221358677547 23.313918704923708,197.96436919624466 23.3329227520735,198.14347737544085 23.351926799223293,198.31204931434695 23.380432869977085,198.43847797261697 23.39468590533943,198.60704912236906 23.36617983461474,198.76508416575234 23.380432869977085,198.85990500154367 23.285412634169916,198.9652613184262 23.090621150826337,198.97052912964136 22.95759282069048,199.01793941080905 22.815062467037933,199.06008185301835 22.65827907793573,199.13383105906905 22.53000175964553,199.1812412173822 22.392222417751327,199.21284796977852 22.306704205548158,199.291864781404 22.178426887228852,199.3392748208389 22.09290867499658,199.3919526005884 22.050149568909546,199.45516587816746 22.054900580696994,199.44463033631473 22.01689248639741,199.4709691876451 21.931374274165137,199.5236468573312 21.836354038357968,199.53945014963756 21.736582790792454,199.576324482965 21.636811543197837,199.63426982031888 21.598803448898252,199.69748285484093 21.532289283844875,199.7870345452102 21.423016012646258,199.77649905882936 21.313742741534952,199.76596357069502 21.20446947036544,199.79757002984115 21.08569417562103,199.79757002984115 20.985922928055516,199.74489258912945 20.876649656886002,199.7554280807817 20.805384480045177,199.7870345452102 20.734119303204352,199.8133732534552 20.624846032063942,199.86078290057048 20.529825796256773,199.88712157798727 20.463311631203396,199.96086981621193 20.425303536874708,200.0662242925573 20.439556572237052,200.1452400342314 20.368291395396227,200.16631088194845 20.33028330106754,200.19264943169765 20.268520147830714,200.20318484849486 20.1592468766612,200.20845255625682 20.059475629066583,200.1873817226333 19.940700334351277,200.23479108837637 19.92169628717238,200.26639731240357 19.935949322534725,200.3454128031226 19.92169628717238,200.41916050507643 19.893190216447692,200.46656969648393 19.888439204660244,200.51924653398237 19.864684145723004,200.57719100440227 19.81717402781942,200.6825444504757 19.69839873307501,200.6878121181544 19.603378497296944,200.73522110748308 19.532113320427015,200.76155941946854 19.441844096436398,200.77736240137165 19.418089037499158,200.7457564335964 19.36582790777902,200.73522110748308 19.337321837054333,200.69834745220578 19.31831778990454,200.67727678236406 19.35632588423323,200.60879705672778 19.38008094317047,200.61406473056923 19.332570825266885,200.6667414447911 19.280309695575852,200.72468577958716 19.32306880169199,200.88271551285652 19.332570825266885,201.05128012493878 19.427591061074054,201.17770328813276 19.31831778990454,201.25145001622877 19.209044518735027,201.36733755747628 19.152032377256546,201.54643606576428 19.171036424435442,201.69919615596154 19.047510117903585,201.85722344589885 19.009502023604,202.04158811673915 19.099771247594617,202.13113647656428 19.166285412647994,202.23648732526635 19.147281365498202,202.33657046842563 19.104522259382065,202.49986367666133 19.156783389073098,202.61048141608262 19.26605666024261,202.6842264678562 19.418089037499158,202.73690145202636 19.555868379364256,202.86332123442116 19.61763153265929,203.01081066011102 19.79341896888218,203.14776481781155 19.988210452225758,203.22677669653422 20.140242829482304,203.2478465141212 20.33978532467154,203.1793695811757 20.510821749077877,203.26364887270756 20.70086222066311,203.29525357798047 20.905155727639794,203.31632337268093 21.009677986992756,203.32685826739544 21.156959352461854,203.37953271455262 21.294738694356056,203.3900675986988 21.442020059854258,203.4006024811133 21.594052437110804,203.4480094300634 21.74608481436735,203.43220711770846 21.91237022698624,203.46907917373392 22.031145521759754,203.48488147683747 22.202181946166093,203.52702093245534 22.38272039417643,203.54282322105792 22.568009853945114,203.49541634337947 22.69628717226442,203.4374745556088 22.83406651415862,203.49541634337947 23.009853950381512,203.51121863990556 23.10962519797613,203.41113736171974 23.19039239839185,203.53228836242124 23.33767376386095,203.6481717104507 23.3329227520735,203.8272637383743 23.41844096427667,203.958948728432 23.503959176508943,203.91154216369614 23.727256730606314,203.9431465441412 23.92679922579555,203.91154216369614 24.09308463841444,203.76932225560813 24.25937005103333,203.66397396865796 24.43515748725622,203.7535200237944 24.582438852725318,203.84833335526127 24.83899348936393,203.84833335526127 24.962519795895787,203.79565929983073 25.105050149577437,203.7535200237944 25.290339609375224,203.6850436401437 25.44237198663177,203.579695212371 25.56114728137618,203.62710202664312 25.71317965866183,203.7219155482744 25.850959000526927,203.7587874348319 25.993489354208577,203.77458966532868 26.098011613590643,203.7166481341519 26.27855006160098,203.69031105690738 26.44958648600732,203.70611330456813 26.60161886329297,203.65343913029574 26.72039415803738,203.61656718211452 26.85342248811503,203.59549748775316 27.014956888975576,203.66397396865796 27.17649128983612,203.70084588912505 27.285764561005635,203.73771778801165 27.414041879295837,203.82199633305936 27.480556044349214,203.98528569343398 27.58032729194383,204.12750511431295 27.566074256552383,204.30132841524028 27.509062115073903,204.45408182948813 27.49005806792411,204.643706242583 27.54707020940259,204.79119150291444 27.589829315518728,204.9439437302317 27.466303008957766,205.0598244833891 27.31427063170122,205.10723018464705 27.22875241949805,205.26524893141323 27.2335034312855,205.43380182476903 27.338025690667564,205.6023542674884 27.49956009152811,205.71823381047943 27.64684145699721,205.81304418723084 27.623086398059968,205.9763283907596 27.794122822466306,206.02373340291524 27.89864508184837,206.12381053372155 28.022171388351126,206.25022352452288 28.202709836361464,206.35030029583868 28.326236142893322,206.47671283256568 28.468766496574972,206.5925907685778 28.559035720594693,206.7453386315574 28.663557979947655,206.87175037627094 28.79658631005441,207.0244975630012 28.99612880521454,207.05083324744555 29.186169276799774,207.07716892090684 29.352454689418664,207.1509087480481 29.53774414921645,207.1930457534072 29.689776526472997,207.25098408981648 29.86081295090844,207.3194566005659 30.017596339981537,207.37739482079633 30.193383776175324,207.29838814361938 30.350167165248422,207.27205256257002 30.52595460144221,207.27205256257002 30.7112440612691,207.27731967966974 30.849023403134197,207.25098408981648 31.005806792207295,207.20358000034685 31.134084110497497,207.14037449230455 31.2718634523917,207.21938136746758 31.381136723561212,207.29312102830227 31.523667077271966,207.34579216179918 31.55217314796755,207.48273690303904 31.613936301262584,207.61441425835073 31.732711596006993,207.73555718239368 31.81347879639361,207.8408986662762 31.903748020442436,207.87776814407698 31.956009150104364,207.86723400976553 31.96551117367926,207.7829608719112 32.02727432694519,207.8092962395931 32.098539503786014,207.90937053643938" stroke="#4DD2FF" stroke-dasharray="none" stroke-linecap="round" stroke-linejoin="round" stroke-width="0.5"><title>2026-03-14 12.0km</title><desc>9223370263378906807</desc></polyline></svg>