<?xml version="1.0" encoding="utf-8" ?>
<svg baseProfile="full" height="300mm" version="1.1" viewBox="0,0,200,300" width="200mm" xmlns="http://www.w3.org/2000/svg" xmlns:ev="http://www.w3.org/2001/xml-events" xmlns:xlink="http://www.w3.org/1999/xlink"><defs /><rect fill="#222222" height="300" width="200" x="0" y="0" /><text fill="#FFFFFF" style="font-size:12px; font-family:Arial; font-weight:bold;" x="10" y="20">Over 10km Runs</text><text fill="#FFFFFF" style="font-size:4px; font-family:Arial" x="10" y="280">Runner</text><text fill="#FFFFFF" style="font-size:9px; font-family:Arial" x="10" y="290">yihong0618</text><text fill="#FFFFFF" style="font-size:4px; font-family:Arial" x="65" y="280">SPECIAL TRACKS</text><rect fill="yellow" height="2.6" width="2.6" x="65" y="283" /><text fill="#FFFFFF" style="font-size:3px; font-family:Arial" x="70" y="285.5">Over 20.0 km</text><rect fill="red" height="2.6" width="2.6" x="65" y="287" /><text fill="#FFFFFF" style="font-size:3px; font-family:Arial" x="70" y="289.5">Over 40.0 km</text><text fill="#FFFFFF" style="font-size:4px; font-family:Arial" x="120" y="280">STATISTICS</text><text fill="#FFFFFF" style="font-size:3px; font-family:Arial" x="120" y="285">Number: 1</text><text fill="#FFFFFF" style="font-size:3px; font-family:Arial" x="120" y="290">Weekly: 1.0</text><text fill="#FFFFFF" style="font-size:3px; font-family:Arial" x="141" y="285">Total: 12.0 km</text><text fill="#FFFFFF" style="font-size:3px; font-family:Arial" x="141" y="290">Avg: 12.0 km</text><text fill="#FFFFFF" style="font-size:3px; font-family:Arial" x="167" y="285">Min: 12.0 km</text><text fill="#FFFFFF" style="font-size:3px; font-family:Arial" x="167" y="290">Max: 12.0 km</text><polyline fill="none" opacity="1" points="30.09361252860981,207.4748354106232 29.965335210290505,207.5064380748845 29.846559915546095,207.43269850029174 29.685025514714653,207.39582868064826 29.590005278907483,207.35895883945705 29.423719866288593,207.34315747233632 29.31444659511908,207.26415057738632 29.176667253224878,207.22201352626143 29.02938588775578,207.18514358343236 28.915361604769714,207.2062121248382 28.62554988564807,207.13773933954144 28.635051909222966,207.09033506001288 28.573288755957037,206.94285485133514 28.502023579116212,206.88491610354686 28.430758402246283,206.72163389154593 28.326236142893322,206.65316058001918 28.250219954235945,206.52674811722318 28.18845680099912,206.48987776782815 28.07443251804216,206.44774019928082 27.936653176147956,206.42667140443882 27.841632940340787,206.31606011601252 27.884392046456924,206.2159830688106 27.760865739925066,206.18964697736374 27.618335386243416,206.17911253768398 27.623086398059968,205.9947595586891 27.566074256552383,205.89468200147894 27.452049973624526,205.87361302182399 27.342776702455012,205.78406977975465 27.276262537401635,205.67872462626838 27.16698926623212,205.5786465674064 27.152736230869778,205.42062825629182 27.2335034312855,205.24680765663652 27.395037832146045,205.22573846047817 27.542319197615143,205.11512506512008 27.556572232977487,204.97817487816064 27.437796938233078,204.89389769217087 27.475805032561766,204.75167968533788 27.475805032561766,204.59892665398365 27.542319197615143,204.46724270918276 27.570825268368935,204.33029111481665 27.49480907971156,204.20914137948785 27.480556044349214,204.0511196356856 27.376033784996253,203.9510389930656 27.214499384135706,203.89309749578388 27.224001407710603,203.90363231742595 27.247756466676947,203.89836490682137 27.214499384135706,203.90363231742595 27.224001407710603,203.9088997275976 27.219250395923154,203.9088997275976 27.20974837234826,203.91416713731815 27.214499384135706,203.91943454659486 27.219250395923154,203.91416713731815 27.128981171903433,203.756144654104 27.152736230869778,203.65079611189503 27.185993313411018,203.54544739362973 27.26200950203929,203.4664357393849 27.338025690667564,203.40849379666543 27.42829491465818,203.3294819707844 27.55182122119004,203.24520258065604 27.665845504147,203.12931823526742 27.72760865741293,203.05557354090706 27.713355622050585,202.95549131771986 27.594580327306176,202.87647892401583 27.556572232977487,202.75532639462836 27.556572232977487,202.6289061157222 27.570825268368935,202.52355568961502 27.570825268368935,202.4024024819155 27.618335386243416,202.27071394855375 27.49005806792411,202.19696824970742 27.471054020774318,202.12849002350777 27.385535808542045,202.0336738951919 27.433045926474733,201.8545763747643 27.49956009152811,201.76502742373123 27.49956009152811,201.61753475644582 27.532817174011143,201.4647741300214 27.60408235088107,201.34888651130314 27.623086398059968,201.20139287021811 27.656343480543,201.0802371210957 27.618335386243416,200.97488410647202 27.627837409818312,200.85899558698657 27.594580327306176,200.76417754891372 27.58507830373128,200.61668253949028 27.67059651593445,200.4797225788061 27.70385359847569,200.35329773554258 27.67059651593445,200.22160492081457 27.67059651593445,200.07937637180294 27.661094492359553,199.93714750183062 27.684849551296793,199.72116971509968 27.665845504147,199.66322432932066 27.157487242657226,198.93626859886353 27.076720042241504,198.9046616377418 27.052964983304264,198.79403714899672 27.02445891255047,198.71501953812913 27.00070385361323,198.6834124660527 26.96744677107199,198.59912686297685 26.905683617835166,198.55698401916743 26.848671476356685,198.49903756290223 26.763153264124412,198.45162678633642 26.725145169824827,198.38841236209555 26.672884040133795,198.31466212033047 26.54460672181449,198.21457236843344 26.48284356854856,198.11448245757856 26.411578391707735,198.09867877291254 26.311807144113118,198.14082192321075 26.202533872972708,198.156625597323 26.10751363716554,198.16189348780244 26.01724441317492,198.1092145631228 25.974485307058785,198.00385658165033 25.922224177367752,197.93010588980906 25.82245292980224,197.91430215890432 25.71317965866183,197.92483797995374 25.71317965866183,197.8774267713634 25.717930670420174,197.8668909423941 25.708428646845277,197.8826946852023 25.689424599695485,197.89849842401964 25.679922576091485,197.88796259858645 25.684673587908037,197.88796259858645 25.670420552545693,197.90903424772114 25.67517156433314,197.88796259858645 25.69892662327038,197.8616230272346 25.694175611482933,197.8510871956314 25.622910434642108,197.75099670740383 25.608657399279764,197.67197778860282 25.565898293163627,197.58242289419286 25.546894246013835,197.56135113582786 25.475629069143906,197.51920759797576 25.40911490409053,197.47706403191842 25.342600739037152,197.48233197922673 25.290339609375224,197.4507242888285 25.26183353862143,197.4507242888285 25.195319373568054,197.47179608417719 25.128805208514677,197.5086717090926 25.06704205524875,197.55081525400237 24.986274854833027,197.54554731242752 24.94351574871689,197.58242289419286 24.848495512938825,197.62456638978256 24.81523843042669,197.68778158030545 24.758226288919104,197.6983174392226 24.69171212389483,197.7404608572906 24.629948970628902,197.75099670740383 24.525426711246837,197.80367593155825 24.43040647546877,197.84055136224924 24.354390286811395,197.94590961676658 24.25461903924588,198.02492819205145 24.145345768076368,198.02492819205145 24.08358261481044,198.02492819205145 23.988562379032373,198.01439238773673 23.95055428473279,198.00912448491 23.964807320095133,197.988052869252 23.964807320095133,198.00912448491 23.955305296491133,198.00385658165033 23.903044166829204,197.988052869252 23.836530001746723,197.93537379923873 23.784268872084795,197.96171333974416 23.693999648094177,197.95117752486476 23.62273447122425,197.90903424772114 23.541967270808527,197.93010588980906 23.470702093967702,197.84055136224924 23.408938940701773,197.7773363249944 23.356677811039845,197.74572878257095 23.342424775648396,197.7404608572906 23.299665669561364,197.67197778860282 23.237902516295435,197.62456638978256 23.19039239839185,197.64563812698907 23.209396445541643,197.62983432474357 23.16663733945461,197.59822670833455 23.185641386604402,197.5034037639998 23.1951434101793,197.434920437674 23.13338025691337,197.37697294958343 23.114376209763577,197.30848948586208 23.08587013903889,197.24000594769677 23.05261305649765,197.17152233510205 23.01460496216896,197.06616278577349 23.005102938594064,196.99241099642313 22.93383776175324,196.81856715137837 22.886327643849654,196.72901104402627 22.824564490583725,196.6710629067311 22.800809431646485,196.60257867575638 22.753299313772004,196.50775423306914 22.68203413693118,196.4181976839427 22.67253211332718,196.34971317812233 22.63452401899849,196.34444513611743 22.620270983636146,196.36024926077516 22.644026042573387,196.36551730144856 22.63452401899849,196.35498121967248 22.639275030815043,196.34971317812233 22.644026042573387,196.34444513611743 22.686785148689523,196.31283687492396 22.691536160506075,196.28122859786527 22.68203413693118,196.31283687492396 22.639275030815043,196.29176469196682 22.6250219954527,196.29703273837004 22.620270983636146,196.3075688298486 22.6250219954527,196.30230078433306 22.6250219954527,196.29176469196682 22.629773007211043,196.29176469196682 22.629773007211043,196.29176469196682 22.639275030815043,196.28649664513068 180.90973077600938,92.27245037734247 180.81471054023132,92.33049495553132 180.81471054023132,92.33049495553132 180.81471054023132,92.33049495553132 180.81946155201877,92.32521817793167 180.62942108043353,92.4465839503282 23.11912722152192,197.28214967228996 23.171388351242058,197.38224090525546 23.185641386604402,197.48759992607665 23.19039239839185,197.59822670833455 23.199894421966746,197.7246570788193 23.27115959880757,197.8142117710995 23.309167693107156,197.93010588980906 23.299665669561364,198.0881429809233 23.328171740286052,198.2567154412427 23.36142882279819,198.39894810387705 23.375681858189637,198.55171616171356 23.38993489355198,198.67814461915987 23.380432869977085,198.8467155011822 23.380432869977085,198.9678755441273 23.356677811039845,199.0574284696122 23.1951434101793,199.12064222274785 23.028857997560408,199.1469812678406 22.891078655637102,199.162784689619 22.75805032553035,199.22073053552958 22.61076896006125,199.27867632819107 22.482491641741944,199.32608648253154 22.38272039417643,199.37349660123073 22.273447123006918,199.4261744690375 22.154671828262508,199.48938785231076 22.09290867499658,199.54206562323816 22.050149568909546,199.59474335015693 22.050149568909546,199.5842078083042 22.00739046279341,199.6158144285946 21.931374274165137,199.66322432932066 21.836354038357968,199.67902762162703 21.74608481436735,199.7106341943727 21.651064578589285,199.76857953656508 21.60830547247315,199.82652482547564 21.546542319178116,199.92661201719966 21.437269048037706,199.92134427423662 21.35650184765109,199.90027329794975 21.22822452930268,199.93187975973706 21.123702269949717,199.94768298467898 21.0239310223551,199.9055410426845 20.928910786577035,199.88973780716333 20.829139538982417,199.92661201719966 20.76262537392904,199.93714750183062 20.691360197088216,199.98982489849004 20.582086925947806,200.0056281089237 20.496568713715533,200.0425022511481 20.4443075840245,200.1320536496023 20.430054548662156,200.2268726386792 20.411050501512364,200.30062064266895 20.35878937182133,200.31115606477397 20.325532289309194,200.34276232048433 20.25426711246837,200.35329773554258 20.144993841298856,200.34276232048433 20.04522259370424,200.33222690368711 19.940700334351277,200.37436856036584 19.92169628717238,200.40597478439304 19.935949322534725,200.4744548820745 19.92644729895983,200.5534702869263 19.89794122823514,200.60087948230284 19.883688192843692,200.64302095936364 19.869435157481348,200.70096544428452 19.831427063181764,200.79578357745413 19.741157839191146,200.84846025647494 19.646137603383977,200.85372792195267 19.584374450118048,200.88533390558587 19.484603202552535,200.93801050975162 19.422840049257502,200.90640455253015 19.38958296677447,200.86426325157663 19.36582790777902,200.85899558698657 19.327819813479437,200.82212192246516 19.35632588423323,200.80105124733382 19.370578919595573,200.74837452871725 19.37532993138302,200.77471289351888 19.31831778990454,200.79578357745413 19.299313742725644,200.89060156798223 19.304064754542196,201.0433635860063 19.34207284884178,201.20139287021811 19.432342072861502,201.3383512626715 19.31831778990454,201.39102748821824 19.209044518735027,201.50691502946574 19.152032377256546,201.6807459418269 19.190040471585235,201.8071681224137 19.06176315326593,201.98099820671268 19.004751011787448,202.13375758200345 19.076016188657377,202.26544640149586 19.161534400860546,202.3549946416024 19.142530353710754,202.44981028656912 19.11877529474441,202.5709634031482 19.104522259382065,202.73425636576212 19.20429350694758,202.79746643127146 19.35632588423323,202.83433894021437 19.49410522612743,202.92388637211843 19.565370402968256,203.0819109416625 19.69839873307501,203.21886524813453 19.864684145723004,203.33474942891917 20.040471581945894,203.39269143941783 20.18300193559844,203.32421451219125 20.373042407183675,203.33474942891917 20.548829843406565,203.40322634469703 20.7388703149918,203.44009849930444 20.93366179833538,203.4559008446704 21.0239310223551,203.4717031860855 21.156959352461854,203.5191101865421 21.294738694356056,203.52964507068828 21.442020059854258,203.54017995310278 21.589301425294252,203.58231946504748 21.74608481436735,203.57178458969793 21.89336617983645,203.59812177476124 22.026394509943202,203.62445894882694 22.168924863624852,203.6613309740278 22.3304592644854,203.67713326394733 22.53000175964553,203.6718658344107 22.663030089752283,203.58758690205286 22.777054372709244,203.61392408053143 22.93383776175324,203.6613309740278 23.057364068285096,203.59285433862897 23.13338025691337,203.60865664572339 23.27115959880757,203.67713326394733 23.342424775648396,203.87202784718465 23.39468590533943,203.99844563307124 23.437445011455566,204.1459327295015 23.565722329745768,204.01424783846596 23.770015836693347,204.08799141133932 23.97430934367003,204.03005003992075 24.121590709139127,203.89309749578388 24.297378145332914,203.79828402169005 24.444659510802012,203.89836490682137 24.596691888087662,203.98791082725074 24.83899348936393,203.98791082725074 24.962519795895787,203.9352367718202 25.105050149577437,203.89309749578388 25.27133556222543,203.82462111213317 25.428118951269425,203.74034238399327 25.53739222243894,203.756144654104 25.684673587908037,203.82988852889684 25.812950906227343,203.89836490682137 25.945979236334097,203.9352367718202 26.05525250750361,203.86676043394255 26.2215379201225,203.82462111213317 26.397325356316287,203.86149302026388 26.53985571002704,203.81408627727797 26.672884040133795,203.76667949863258 26.76790427591186,203.74034238399327 26.929438676772406,203.756144654104 27.071969030454056,203.82988852889684 27.185993313411018,203.86149302026388 27.328523667092668,203.89309749578388 27.452049973624526,203.99844563307124 27.485307056136662,204.16173489793437 27.58507830373128,204.29341948088768 27.566074256552383,204.46197534566818 27.504311103286454,204.61999605962046 27.485307056136662,204.78855105124967 27.55182122119004,204.93603629925565 27.589829315518728,205.08352120222116 27.466303008957766,205.19940195537856 27.319021643488668,205.24154035825632 27.22875241949805,205.4048264034027 27.224001407710603,205.56284475412394 27.333274678880116,205.7050609311409 27.452049973624526,205.8525440351441 27.618335386243416,205.91048373159356 27.642090445180656,206.05796635505612 27.72760865741293,206.1633108749047 27.889143058244372,206.18964697736374 27.946155199722853,206.35293056704904 28.11719162412919,206.44774019928082 28.283477036777185,206.53728249879714 28.402252331521595,206.66369494048195 28.487770543753868,206.7953742977188 28.606545838469174,206.92178622194479 28.692064050701447,207.0850679156356 28.863100475107785,207.18514358343236 29.043638923118124,207.18514358343236 29.219426359341014,207.22728065918636 29.37145873659756,207.30102047402397 29.5519971846079,207.34315747233632 29.699278550047893,207.3852944425089 29.865563962695887,207.46430118568242 30.017596339981537,207.5169722927858 30.193383776175324,207.43796561560885 30.33116311809863,207.4221642683151 30.511701566079864,207.40636291703777 30.682737990515307,207.4116300345595 30.825268344196957,207.39582868064826 30.96304768609116,207.34315747233632 31.086573992623016,207.29048622003756 31.21960232272977,207.32735610126838 31.338377617445076,207.42743138451988 31.47615695936838,207.44849984495158 31.55217314796755,207.54857493593954 31.580679218721343,207.69078663410983" stroke="#4DD2FF" stroke-dasharray="none" stroke-linecap="round" stroke-linejoin="round" stroke-width="0.5"><title>2026-03-14 12.0km</title><desc>9223370263378906807</desc></polyline></svg>