<?xml version="1.0" encoding="utf-8" ?>
<svg baseProfile="full" height="300mm" version="1.1" viewBox="0,0,200,300" width="200mm" xmlns="http://www.w3.org/2000/svg" xmlns:ev="http://www.w3.org/2001/xml-events" xmlns:xlink="http://www.w3.org/1999/xlink"><defs /><rect fill="#222222" height="300" width="200" x="0" y="0" /><text fill="#FFFFFF" style="font-size:12px; font-family:Arial; font-weight:bold;" x="10" y="20">Over 10km Runs</text><text fill="#FFFFFF" style="font-size:4px; font-family:Arial" x="10" y="280">Runner</text><text fill="#FFFFFF" style="font-size:9px; font-family:Arial" x="10" y="290">yihong0618</text><text fill="#FFFFFF" style="font-size:4px; font-family:Arial" x="65" y="280">SPECIAL TRACKS</text><rect fill="yellow" height="2.6" width="2.6" x="65" y="283" /><text fill="#FFFFFF" style="font-size:3px; font-family:Arial" x="70" y="285.5">Over 20.0 km</text><rect fill="red" height="2.6" width="2.6" x="65" y="287" /><text fill="#FFFFFF" style="font-size:3px; font-family:Arial" x="70" y="289.5">Over 40.0 km</text><text fill="#FFFFFF" style="font-size:4px; font-family:Arial" x="120" y="280">STATISTICS</text><text fill="#FFFFFF" style="font-size:3px; font-family:Arial" x="120" y="285">Number: 1</text><text fill="#FFFFFF" style="font-size:3px; font-family:Arial" x="120" y="290">Weekly: 1.0</text><text fill="#FFFFFF" style="font-size:3px; font-family:Arial" x="141" y="285">Total: 12.0 km</text><text fill="#FFFFFF" style="font-size:3px; font-family:Arial" x="141" y="290">Avg: 12.0 km</text><text fill="#FFFFFF" style="font-size:3px; font-family:Arial" x="167" y="285">Min: 12.0 km</text><text fill="#FFFFFF" style="font-size:3px; font-family:Arial" x="167" y="290">Max: 12.0 km</text><polyline fill="none" opacity="1" points="28.544782685203245,207.0587307572605 28.459264473000076,206.99552482683066 28.41650536688394,206.82170819144085 28.311983107530978,206.75323483987086 28.24071793066105,206.66369265253888 28.159950730245328,206.62682230314385 28.06968150625471,206.57415033804864 27.917649128998164,206.56361593975453 27.836881928582443,206.45300465132823 27.884392046456924,206.3529276041263 27.765616751712514,206.3213242930542 27.63258842160576,206.3213242930542 27.618335386243416,206.15277303316543 27.58507830373128,206.03162653679465 27.471054020774318,206.01582480270372 27.366531761421356,205.95261782678426 27.304768608126324,205.8420054664566 27.20974837234826,205.75246198499008 27.162238254473777,205.6102456059889 27.17174027801957,205.47329619708034 27.34752771424246,205.38375219195223 27.475805032561766,205.34161379258512 27.566074256552383,205.17832722904495 27.518564138677903,205.08351548193968 27.452049973624526,204.9729015967605 27.46155199719942,204.84121814708124 27.518564138677903,204.69899971248014 27.537568185827695,204.56731569066687 27.57557628012728,204.43563139380785 27.485307056136662,204.33555114420597 27.471054020774318,204.18279677271494 27.366531761421356,204.07744871465184 27.214499384135706,204.03004203109958 27.224001407710603,204.04057685274165 27.252507478464395,204.04057685274165 27.214499384135706,204.0458442629133 27.224001407710603,204.0458442629133 27.224001407710603,204.0458442629133 27.20974837234826,204.05111167263385 27.214499384135706,204.05637908191056 27.214499384135706,204.05111167263385 27.133732183719985,203.95103081259367 27.133732183719985,203.8246126570084 27.162238254473777,203.74033374577994 27.22875241949805,203.64025239233888 27.295266584551428,203.56650813550004 27.357029737817356,203.5032987038394 27.475805032561766,203.4295542867876 27.58032729194383,203.345274847361 27.689600563113345,203.25046034333718 27.72760865741293,203.1609131808109 27.684849551296793,203.06609839946395 27.58507830373128,203.00288846601325 27.54707020940259,202.86593339276442 27.556572232977487,202.75531561635216 27.58032729194383,202.6552326990095 27.570825268368935,202.52881194469956 27.618335386243416,202.40765848386945 27.49005806792411,202.33391278502313 27.471054020774318,202.2759696753892 27.390286820358597,202.1864211284592 27.423543902870733,202.0073236529497 27.49005806792411,201.92830989904178 27.49005806792411,201.79662008905507 27.509062115073903,201.64385956478145 27.594580327306176,201.51216916049452 27.623086398059968,201.39101374552774 27.63733943339321,201.27512573938657 27.642090445180656,201.1592375201617 27.623086398059968,201.04861674848507 27.59933133906452,200.96433412545957 27.59933133906452,200.85371301170744 27.60883336266852,200.6851471316695 27.699102586659137,200.57452552788527 27.699102586659137,200.45863602043028 27.661094492359553,200.32694313964384 27.67059651593445,200.189982251708 27.656343480543,200.0424855780002 27.675347527721897,199.83704320720062 27.656343480543,199.80016886463636 27.157487242657226,199.07321313417924 27.076720042241504,199.04160617305752 27.052964983304264,198.93098168431243 27.02445891255047,198.86249976062754 27.00545486540068,198.8308926938189 26.981699806434335,198.75187495746286 26.924687664955854,198.70446426807393 26.858173499902477,198.64124996008832 26.7916593348491,198.58857132165213 26.753651240549516,198.56223198592488 26.691888087254483,198.47267816210297 26.606369875080418,198.3936599765584 26.511349639302352,198.30937380276737 26.435333450644976,198.261962780467 26.373570297379047,198.2461590984385 26.25954601445119,198.27776645852646 26.178778814006364,198.3041059131683 26.05525250750361,198.3041059131683 25.998240365996026,198.2145517224999 25.960232271725545,198.1249974045677 25.912722153792856,198.05651460497393 25.803448882623343,198.05124669422003 25.70367763505783,198.05651460497393 25.69892662327038,198.019639220518 25.717930670420174,198.0038354777098 25.708428646845277,198.019639220518 25.694175611482933,198.04597878303684 25.679922576091485,198.02490713390216 25.679922576091485,198.02490713390216 25.67517156433314,198.04597878303684 25.679922576091485,198.02490713390216 25.69892662327038,198.0038354777098 25.69892662327038,198.0038354777098 25.637163470004452,197.9037450145952 25.618159422825556,197.84052990333294 25.58965335212997,197.7457071175486 25.551645257801283,197.70356361140148 25.518388175260043,197.67195596328747 25.447122998419218,197.63508035378618 25.38535984515329,197.5982047227044 25.304592644737568,197.5982047227044 25.27133556222543,197.59293677363894 25.266584550437983,197.58240087419836 25.176315326418262,197.6298124078021 25.105050149577437,197.65615213329147 25.057540031673852,197.68775978931808 24.98152384304558,197.68249184774322 24.94351574871689,197.72463536799114 24.848495512938825,197.76151092509826 24.81523843042669,197.82472611562116 24.758226288919104,197.8352619745383 24.705965159257175,197.8774053926063 24.653704029566143,197.88267331788666 24.558683793788077,197.94062046687395 24.45891254619346,197.97222798022267 24.37339433399029,198.06178251526944 24.28787612178712,198.16187272736715 24.188104874192504,198.16187272736715 24.131092732714023,198.15133692305244 24.02181946154451,198.15133692305244 23.95055428473279,198.15133692305244 23.97430934367003,198.13026530914067 23.96955833188258,198.1460690202257 23.95055428473279,198.13026530914067 23.94105226112879,198.16187272736715 23.87928910786286,198.10392578183382 23.822276966413483,198.07231833455444 23.760513813147554,198.10919368818213 23.684497624490177,198.06178251526944 23.608481435861904,198.05124669422003 23.53721625902108,198.06178251526944 23.456449058605358,197.9669600624111 23.408938940701773,197.9142808603101 23.356677811039845,197.88267331788666 23.342424775648396,197.8774053926063 23.304416681348812,197.80892232391852 23.24265352805378,197.7562429896825 23.19039239839185,197.79311852827595 23.1951434101793,197.77731472867163 23.180890374816954,197.7457071175486 23.180890374816954,197.6666880203993 23.204645433754195,197.5876688241442 23.176139363029506,197.5297213505837 23.11912722152192,197.4612379040409 23.100123174401233,197.41382624358084 23.05261305649765,197.35061064082765 23.043111032922752,197.27159104819657 23.009853950381512,197.15042748036285 22.98609889144427,196.98185169404314 22.919584726390895,196.93443967289568 22.881576632062206,196.84488353558118 22.81031145522138,196.79747141135522 22.80556044340483,196.71845112502342 22.739046278380556,196.62889468071444 22.68203413693118,196.5446061462826 22.66778110153973,196.48665771343803 22.629773007211043,196.48138967143313 22.620270983636146,196.49719379609087 22.644026042573387,196.49719379609087 22.629773007211043,196.4919257549882 22.644026042573387,196.48665771343803 22.644026042573387,196.48138967143313 22.68203413693118,196.46558554281 22.701038184051868,196.4129050854608 22.691536160506075,196.43397727368574 22.6155199718487,196.4234411804464 22.629773007211043,196.43397727368574 22.620270983636146,196.4445133651643 22.629773007211043,196.4445133651643 22.629773007211043,196.43924531964876 22.629773007211043,196.43397727368574 22.63452401899849,196.4234411804464 22.639275030815043,196.42870922728252 22.63452401899849,196.4234411804464 180.90973077600938,92.40939491265817 180.81471054023132,92.46743949084703 180.81471054023132,92.46743949084703 180.81471054023132,92.46743949084703 180.7244413162407,92.5254840151756 180.62942108043353,92.58352848564391 23.11912722152192,197.42436217120485 23.171388351242058,197.51918544057116 23.185641386604402,197.62454446139236 23.180890374816954,197.72990330604807 23.1951434101793,197.84579783170193 23.256906563445227,197.9353525464321 23.294914657744812,198.03544295933534 23.294914657744812,198.18821223043778 23.323420728498604,198.3041059131683 23.347175787435845,198.499017535265 23.375681858189637,198.6465178215185 23.380432869977085,198.75187495746286 23.380432869977085,198.92044600858935 23.36617983461474,199.05214182852433 23.380432869977085,199.13642700884884 23.299665669561364,199.24178332573138 23.114376209763577,199.24705113694654 22.99560091504827,199.29446141811422 22.857821573124966,199.32080044778922 22.720042231230764,199.37874627434212 22.582262889336562,199.42615645643673 22.458736582804704,199.4735666028755 22.363716346997535,199.51044113654643 22.26394509943202,199.56838678870918 22.14992081647506,199.63160016668917 22.09290867499658,199.67901015855387 22.050149568909546,199.73168788547264 22.054900580696994,199.7211523436199 22.01689248639741,199.74749119495027 21.950378321344033,199.78436556835004 21.869611120899208,199.81070439328687 21.755586837942246,199.83704320720062 21.66531761395163,199.90025631570825 21.617807496048044,199.94239835280314 21.57504838996101,200.0319500880869 21.489530177757842,200.07409203714633 21.40401196552557,200.0424855780002 21.289987682568608,200.04775332228746 21.190216435003094,200.07409203714633 21.08094316383358,200.07935977879242 20.995424951601308,200.02141459643462 20.895653704035794,200.0319500880869 20.810135491832625,200.06882429505276 20.753123350354144,200.07935977879242 20.672356149938423,200.12676943380575 20.56783389058546,200.1478403801666 20.491817701928085,200.1847145193169 20.4443075840245,200.27426591027324 20.430054548662156,200.36908489142297 20.411050501512364,200.43756517798465 20.368291395396227,200.44810060008967 20.33028330106754,200.46917143900282 20.268520147830714,200.47970685580003 20.1592468766612,200.484974563562 20.07847967624548,200.46917143900282 19.95970438150107,200.50077768416304 19.912194263597485,200.5271162096833 19.93119831077638,200.56925782763574 19.92644729895983,200.65354097896852 19.90744325183914,200.70621789133293 19.89794122823514,200.75889475965596 19.888439204660244,200.80630390351143 19.864684145723004,200.87478371500765 19.81242301603197,200.98013712586544 19.69364772128756,200.9696017926908 19.603378497296944,201.01174311478826 19.541615344031015,201.02227844090157 19.460848143615294,201.07495504506733 19.427591061074054,201.02754610329794 19.37532993138302,200.99067245726837 19.36582790777902,200.99594012230227 19.31831778990454,200.95379878966924 19.35157487244578,200.93272811276984 19.370578919595573,200.88531906403296 19.38008094317047,200.90112208422943 19.327819813479437,200.93272811276984 19.285060707392404,201.01174311478826 19.32306880169199,201.1592375201617 19.327819813479437,201.31726685717877 19.418089037499158,201.43315478585646 19.35157487244578,201.51743678195635 19.23755058948882,201.58591582080408 19.152032377256546,201.74921169011213 19.17578743622289,201.91250713636327 19.11402428295696,202.04946428120093 19.014253035391448,202.1916886935578 19.004751011787448,202.38658829301494 19.123526306531858,202.42872866770267 19.156783389073098,202.5235444077589 19.152032377256546,202.6130924757308 19.10927327114041,202.76058313392423 19.133028330135858,202.87646840896195 19.23755058948882,202.950213473061 19.37532993138302,202.99235347093781 19.503607249702327,203.07136589106813 19.574872426543152,203.23465791213675 19.69839873307501,203.35580978345024 19.864684145723004,203.47169396423487 20.030969558341894,203.52436852142637 20.168748900236096,203.47169396423487 20.35403836000478,203.4664265061001 20.534576808015117,203.53490342759687 20.70086222066311,203.57177558528565 20.886151680460898,203.5981128275671 21.009677986992756,203.6033802747006 21.133204293524614,203.6349849482831 21.25197958823992,203.6560547218578 21.389758930163225,203.66132216415645 21.499032201303635,203.7034616866731 21.651064578589285,203.71926400036318 21.817349991208175,203.71399656291396 21.950378321344033,203.76667091764102 22.078655639634235,203.78774064721074 22.240190040465677,203.80354293976052 22.401724441326223,203.81407779926303 22.56325884218677,203.78247321548406 22.686785148689523,203.71399656291396 22.800809431646485,203.76140348414265 22.952841808932135,203.80354293976052 23.062115080072545,203.71926400036318 23.13338025691337,203.7456011810391 23.27115959880757,203.81407779926303 23.347175787435845,204.00370496925825 23.36142882279819,204.1459249724212 23.42794298788067,204.29867943325007 23.53246524723363,204.17752937400292 23.741509765968658,204.22493594665502 23.92679922579555,204.18806417100132 24.08358261481044,204.05111167263385 24.216610944917193,203.9562982302341 24.40190040471498,204.01423979531683 24.52067569945939,204.1037857456795 24.734471229981864,204.12485536256645 24.900756642629858,204.12485536256645 25.019531937374268,204.0669138991725 25.162062291055918,203.9879027268871 25.33309871549136,203.95103081259367 25.470878057385562,203.84041494031408 25.58490234031342,203.919426297467 25.72268168220762,204.00897238250036 25.836705965164583,204.04057685274165 25.974485307058785,204.05637908191056 26.07900756644085,203.99317014145709 26.231039943697397,203.96683306421255 26.397325356316287,203.99843755557959 26.53985571002704,203.95103081259367 26.672884040133795,203.9036240339483 26.763153264124412,203.8825543431194 26.905683617835166,203.88782176650056 27.052964983304264,203.96156564744888 27.190744325169362,203.99317014145709 27.285764561005635,204.01423979531683 27.414041879295837,204.09851834036454 27.480556044349214,204.2512729160553 27.570825268368935,204.3776902160389 27.55182122119004,204.53044411526935 27.537568185827695,204.69373235689272 27.518564138677903,204.85702017556832 27.46155199719942,205.0150402425752 27.594580327306176,205.13092137330386 27.54707020940259,205.26787152593533 27.414041879295837,205.3679502954874 27.276262537401635,205.42062326829182 27.219250395923154,205.56284007503564 27.252507478464395,205.7261256427155 27.338025690667564,205.87887627479358 27.480556044349214,205.9947558177846 27.642090445180656,206.06849723423147 27.63733943339321,206.20544535027875 27.72760865741293,206.30025541022042 27.884392046456924,206.3213242930542 27.936653176147956,206.47934068999166 28.088685553404503,206.56888313911986 28.250219954235945,206.66369265253888 28.36899524900946,206.769036389127 28.478268520149868,206.89018146864328 28.573288755957037,207.03766212082337 28.663557979947655,207.1482723835761 28.79658631005441,207.30101957030638 28.962871722702403,207.32208811874807 29.143410170683637,207.33788952545365 29.28594052439439,207.3800265906575 29.46647897240473,207.44849926155803 29.618511349632172,207.50643761729953 29.780045750463614,207.5485745698752 29.91782509238692,207.62758128004862" stroke="#4DD2FF" stroke-dasharray="none" stroke-linecap="round" stroke-linejoin="round" stroke-width="0.5"><title>2026-03-14 12.0km</title><desc>9223370263378906807</desc></polyline></svg>