<?xml version="1.0" encoding="utf-8" ?>
<svg baseProfile="full" height="300mm" version="1.1" viewBox="0,0,200,300" width="200mm" xmlns="http://www.w3.org/2000/svg" xmlns:ev="http://www.w3.org/2001/xml-events" xmlns:xlink="http://www.w3.org/1999/xlink"><defs /><rect fill="#222222" height="300" width="200" x="0" y="0" /><text fill="#FFFFFF" style="font-size:12px; font-family:Arial; font-weight:bold;" x="10" y="20">Over 10km Runs</text><text fill="#FFFFFF" style="font-size:4px; font-family:Arial" x="10" y="280">Runner</text><text fill="#FFFFFF" style="font-size:9px; font-family:Arial" x="10" y="290">yihong0618</text><text fill="#FFFFFF" style="font-size:4px; font-family:Arial" x="65" y="280">SPECIAL TRACKS</text><rect fill="yellow" height="2.6" width="2.6" x="65" y="283" /><text fill="#FFFFFF" style="font-size:3px; font-family:Arial" x="70" y="285.5">Over 20.0 km</text><rect fill="red" height="2.6" width="2.6" x="65" y="287" /><text fill="#FFFFFF" style="font-size:3px; font-family:Arial" x="70" y="289.5">Over 40.0 km</text><text fill="#FFFFFF" style="font-size:4px; font-family:Arial" x="120" y="280">STATISTICS</text><text fill="#FFFFFF" style="font-size:3px; font-family:Arial" x="120" y="285">Number: 1</text><text fill="#FFFFFF" style="font-size:3px; font-family:Arial" x="120" y="290">Weekly: 1.0</text><text fill="#FFFFFF" style="font-size:3px; font-family:Arial" x="141" y="285">Total: 12.0 km</text><text fill="#FFFFFF" style="font-size:3px; font-family:Arial" x="141" y="290">Avg: 12.0 km</text><text fill="#FFFFFF" style="font-size:3px; font-family:Arial" x="167" y="285">Min: 12.0 km</text><text fill="#FFFFFF" style="font-size:3px; font-family:Arial" x="167" y="290">Max: 12.0 km</text><polyline fill="none" opacity="1" points="31.433397853252245,207.232550448829 31.33362660568673,207.232550448829 31.24810839345446,207.18514642669106 31.153088157676393,207.0745369031065 31.03906387471943,207.09560539873564 30.925039591791574,207.1272081290117 30.81576632062206,207.1798793109192 30.69699102587765,207.1798793109192 30.60197079007048,207.15354372545335 30.45944043638883,207.16407796095882 30.32166109449463,207.1798793109192 30.160126693663187,207.16934507805854 30.03660038713133,207.25888600128383 29.889319021633128,207.24835178162903 29.732535632589133,207.1588108434371 29.609009326057276,207.12194100838315 29.447474925225833,207.09560539873564 29.323948618693976,207.02186563319628 29.176667253224878,206.97446145266076 29.019883864180883,206.9375915098317 28.891606545832474,206.96392718549032 28.64930494458531,206.88492012552524 28.611296850285726,206.7743100752814 28.540031673415797,206.6742341483441 28.42600739048794,206.558356560814 28.383248284371803,206.42667722557962 28.264472989627393,206.29499761534316 28.21696287172381,206.25286008197145 28.088685553404503,206.21072252044905 27.950906211539404,206.1738521310217 27.841632940340787,206.06850804241185 27.884392046456924,205.95262934166385 27.74661270456272,205.94736212292264 27.594580327306176,205.89468991140166 27.623086398059968,205.69980234620743 27.51381312686135,205.64712992787827 27.390286820358597,205.59445746554047 27.304768608126324,205.47331063517777 27.20974837234826,205.3679653760737 27.157487242657226,205.2099471573856 27.20499736056081,205.0097901784793 27.390286820358597,204.9781863868775 27.542319197615143,204.8675729915194 27.54707020940259,204.72008816247035 27.437796938233078,204.61474164478568 27.46155199719942,204.4672562242631 27.52331515046535,204.30923574797635 27.537568185827695,204.15648224439428 27.566074256552383,204.00899575178846 27.480556044349214,203.87731109182278 27.409290867537493,203.73509135009226 27.276262537401635,203.6455454221832 27.22875241949805,203.65608024382527 27.252507478464395,203.65608024382527 27.214499384135706,203.65608024382527 27.22875241949805,203.66134765399693 27.219250395923154,203.66134765399693 27.20974837234826,203.66661506371747 27.214499384135706,203.66134765399693 27.152736230869778,203.6086735325407 27.138483195507433,203.44538347629714 27.162238254473777,203.35583713686356 27.238254443072947,203.2452208948671 27.333274678880116,203.16620917460023 27.409290867537493,203.09246481302034 27.537568185827695,203.00291797224418 27.665845504147,202.88176616166675 27.72760865741293,202.79748650393594 27.699102586659137,202.69213677330845 27.58032729194383,202.61312435977743 27.537568185827695,202.4498317246762 27.566074256552383,202.3392138928175 27.570825268368935,202.22332833692053 27.60883336266852,202.07056977865795 27.518564138677903,201.96521883311652 27.480556044349214,201.9072757380127 27.390286820358597,201.80719208464143 27.42829491465818,201.61755946352787 27.49956009152811,201.51747535013055 27.504311103286454,201.35944747909525 27.542319197615143,201.2014192118877 27.618335386243416,201.06972868652156 27.63258842160576,200.91696733239223 27.642090445180656,200.79054386276766 27.623086398059968,200.6641201395687 27.59933133906452,200.57456984886448 27.594580327306176,200.4376103346258 27.651592468784656,200.24797359278818 27.699102586659137,200.12154878122237 27.675347527721897,199.9845882825066 27.67059651593445,199.83182429820226 27.661094492359553,199.67379220063594 27.675347527721897,199.45254659828424 27.656343480543,199.42094002026715 27.138483195507433,198.66764521960795 27.06246700687916,198.6096990927399 27.02445891255047,198.52014588277234 27.00070385361323,198.45693177559951 26.981699806434335,198.37791405243843 26.929438676772406,198.31469980258407 26.858173499902477,198.25148548930156 26.786908323090756,198.18827111262726 26.725145169824827,198.14086028849488 26.6633820165589,198.0671100467298 26.535104698239593,197.9564845222303 26.44958648600732,197.8669303839779 26.387823332770495,197.85639459463346 26.25954601445119,197.89326984961008 26.169276790431468,197.91960930425194 26.036248460324714,197.90907352372233 25.98873834242113,197.7826440199351 25.950730248121545,197.70889335892934 25.84145697695203,197.66675008530365 25.717930670420174,197.67728590635306 25.71317965866183,197.62987469776272 25.732183705782518,197.62460678350544 25.71317965866183,197.64041052498578 25.694175611482933,197.63514261160162 25.66566954072914,197.64041052498578 25.694175611482933,197.63514261160162 25.694175611482933,197.64567843792247 25.69892662327038,197.63514261160162 25.70367763505783,197.62460678350544 25.627661446429556,197.51398048215924 25.608657399279764,197.44022950670478 25.565898293163627,197.34013875907476 25.546894246013835,197.3137990622272 25.470878057385562,197.27692346814 25.399612880544737,197.218976062406 25.314094668312464,197.2242440105765 25.27133556222543,197.20844016472256 25.257082526833983,197.19790426528198 25.162062291055918,197.23477990562606 25.086046102427645,197.29272729681543 25.02903396092006,197.28219141148293 24.967270807683235,197.3243349422919 24.877001583692618,197.37701431618189 24.819989442214137,197.43496157657137 24.758226288919104,197.45076536562192 24.682210100319935,197.49290878368993 24.610944923450006,197.52451632874727 24.51117367585539,197.57719553527568 24.406651416502427,197.63514261160162 24.31638219251181,197.74050079565131 24.211859933129745,197.7826440199351 24.131092732714023,197.76684031413606 24.017068449757062,197.76684031413606 23.94105226112879,197.76684031413606 23.964807320095133,197.74050079565131 23.99331339081982,197.75630450804965 23.955305296491133,197.75630450804965 23.903044166829204,197.74050079565131 23.822276966413483,197.68782172563806 23.760513813147554,197.72469707926575 23.684497624490177,197.67201799605755 23.589477388712112,197.68255381620838 23.499208164721495,197.63514261160162 23.437445011455566,197.54032009532602 23.36142882279819,197.50344463380316 23.347175787435845,197.50871255819584 23.313918704923708,197.43496157657137 23.24265352805378,197.37174638076613 23.19039239839185,197.3980860533884 23.209396445541643,197.3822822511429 23.16663733945461,197.3348708205922 23.1951434101793,197.23477990562606 23.199894421966746,197.15576064989727 23.123878233338473,197.08727721480682 23.100123174401233,197.02932963466446 23.05261305649765,196.95557809195452 23.028857997560408,196.85548657447725 23.005102938594064,196.74485892282246 22.95759282069048,196.58155108203937 22.891078655637102,196.49726299861504 22.824564490583725,196.42351083313042 22.80556044340483,196.34449056001176 22.739046278380556,196.24439807179806 22.677283125114627,196.1548415002071 22.663030089752283,196.09689306251676 22.6250219954527,196.10216110452166 22.644026042573387,196.1126971871745 22.64877705438994,196.1074291460718 22.639275030815043,196.10216110452166 22.644026042573387,196.09689306251676 22.68203413693118,196.08108893389362 22.691536160506075,196.02840847654443 22.68203413693118,196.0652848013233 22.639275030815043,196.04421261836615 22.620270983636146,196.04948066476936 22.620270983636146,196.06001675624793 22.629773007211043,196.05474871073238 22.629773007211043,196.04948066476936 22.63452401899849,196.0336765242646 22.639275030815043,196.04421261836615 180.90973077600938,92.0248983037418 180.81471054023132,92.08294288193065 180.81471054023132,92.08294288193065 180.81471054023132,92.08294288193065 180.81946155201877,92.077666104331 180.62942108043353,92.19903187672753 23.11912722152192,197.05040148814442 23.1951434101793,197.15576064989727 23.16663733945461,197.2874593543711 23.185641386604402,197.41915778356997 23.228400492691435,197.52451632874727 23.285412634169916,197.63514261160162 23.294914657744812,197.76684031413606 23.323420728498604,197.93014508301349 23.356677811039845,198.13032454495624 23.375681858189637,198.28836051309554 23.38993489355198,198.4305925455592 23.380432869977085,198.61496692466608 23.380432869977085,198.73085911541784 23.3329227520735,198.85201890514873 23.11912722152192,198.857286716815 22.981347879656823,198.91523261601833 22.824564490583725,198.9468394476644 22.66778110153973,199.02585645745785 22.53000175964553,199.073266615771 22.392222417751327,199.11014115868238 22.297202181944158,199.1838901797928 22.168924863624852,199.2313002192277 22.09290867499658,199.2945135496375 22.050149568909546,199.34192350584635 22.050149568909546,199.34192350584635 21.997888439218514,199.3840656592074 21.917121238802793,199.41567225571998 21.788843920483487,199.43147554802636 21.698574696463766,199.49995643560032 21.617807496048044,199.5473662372533 21.57504838996101,199.6474534791705 21.465775118762394,199.68432768613638 21.375505894771777,199.65798896908382 21.237726552877575,199.68432768613638 21.123702269949717,199.7001309110783 21.0239310223551,199.65798896908382 20.909906739427242,199.63691798751825 20.810135491832625,199.68432768613638 20.748372338537592,199.69486316987604 20.658103114546975,199.74227282488937 20.534576808015117,199.77914697637607 20.47281365474919,199.8476274861605 20.425303536874708,199.9582496909461 20.439556572237052,200.0372654326202 20.368291395396227,200.05833628033724 20.33028330106754,200.08467483008644 20.25426711246837,200.1057456619419 20.13549181772396,200.09521024688365 20.030969558341894,200.08994253870333 19.92169628717238,200.13208419187868 19.92644729895983,200.17422581685605 19.92644729895983,200.25850898230783 19.916945275414037,200.31645359315007 19.89794122823514,200.37439815073958 19.883688192843692,200.4270749750467 19.864684145723004,200.52189314784118 19.76016188634094,200.606175848352 19.650888615171425,200.60090818287426 19.584374450118048,200.6377818319852 19.484603202552535,200.69045843615095 19.432342072861502,200.64304949438156 19.370578919595573,200.61671117797596 19.34207284884178,200.60090818287426 19.31831778990454,200.56930218075286 19.37532993138302,200.51662547531305 19.38008094317047,200.50609012895802 19.332570825266885,200.5587668431799 19.280309695575852,200.606175848352 19.32306880169199,200.77474091124532 19.332570825266885,200.94330552332758 19.432342072861502,201.09079918907082 19.313566778117092,201.14347541461757 19.190040471585235,201.28570100370052 19.147281365498202,201.48586980762047 19.142530353710754,201.6280946240986 19.023755058966344,201.79665695400035 19.009502023604,202.0073592324734 19.133028330135858,202.04949960363592 19.128277318319306,202.16538547909659 19.133028330135858,202.28653866656168 19.08551821220317,202.47616927507988 19.199542495189235,202.539379351143 19.35632588423323,202.5867868666137 19.503607249702327,202.68160179054757 19.574872426543152,202.86069625778327 19.717402780253906,203.00291797224418 19.92169628717238,203.11353463942578 20.106985746970167,203.16620917460023 20.292275206767954,203.06612752010915 20.47281365474919,203.14513936581716 20.672356149938423,203.17674407635786 20.886151680460898,203.2136162186507 21.009677986992756,203.21888366578423 21.156959352461854,203.27155811294142 21.294738694356056,203.2820929970876 21.442020059854258,203.2926278795021 21.6130564842897,203.3347673914468 21.788843920483487,203.32949995399758 21.931374274165137,203.37690687522627 22.078655639634235,203.40324403829436 22.26394509943202,203.41904633084414 22.444483547413256,203.42958119034665 22.620270983636146,203.3611045721227 22.748548301955452,203.3453022650283 22.910082702816,203.40324403829436 23.043111032922752,203.35056970116057 23.13338025691337,203.3611045721227 23.280661622382468,203.45065090407297 23.328171740286052,203.6508128332207 23.404187928914325,203.7719631657892 23.45169804681791,203.8509741268208 23.670244589156937,203.80356756208494 23.865036072500516,203.79303276508654 24.064578567660647,203.70348691946492 24.216610944917193,203.57180162131772 24.416153440106427,203.6350105987549 24.56818581733387,203.74035875365007 24.829491465789033,203.74035875365007 24.962519795895787,203.68768469821953 25.133556220302125,203.62974318640045 25.304592644737568,203.5770690385325 25.46612704556901,203.4559183313977 25.594404363888316,203.53492968855062 25.732183705782518,203.64027801068733 25.884216083068168,203.66661506371747 26.01724441317492,203.6508128332207 26.155023755069124,203.59287128751384 26.349815238441806,203.60340611797074 26.511349639302352,203.57180162131772 26.672884040133795,203.5191274250319 26.76790427591186,203.4927903103926 26.948442723951302,203.52439484664865 27.11947914835764,203.58760387161965 27.195495336985914,203.60340611797074 27.376033784996253,203.67188247299418 27.485307056136662,203.81936975429198 27.54707020940259,203.97739145848027 27.55182122119004,204.14594750635297 27.5280661622528,204.32503781341438 27.504311103286454,204.50939495104103 27.52331515046535,204.67794957651495 27.589829315518728,204.83070181660878 27.466303008957766,204.9518498817779 27.31427063170122,204.99925558303585 27.22875241949805,205.15727432980202 27.257258490251843,205.3468963031337 27.35227872602991,205.51018143428155 27.51381312686135,205.62079370220454 27.656343480543,205.74194024919052 27.651592468784656,205.89468991140166 27.851134963944787,205.9104915794851 27.917649128998164,206.073775251014 28.083934541617054,206.18438653020348 28.26922400141484,206.28446323462413 28.402252331521595,206.41614286688127 28.487770543753868,206.57942522893427 28.62554988564807,206.69530277773447 28.725321133213583,206.87438584339543 28.93436565194861,206.9375915098317 29.124406123533845,206.94285864583435 29.28594052439439,206.99552998174113 29.494985043100314,207.06926977810144 29.647017420385964,207.13247524916733 29.83230688018375,207.18514642669106 29.989090269227745,207.26415311046003 30.169628717238083,207.1956806569142 30.33116311809863,207.17461219471443 30.52595460144221,207.16407796095882 30.7112440612691,207.16934507805854 30.858525426738197,207.13774236890822 31.015308815753087,207.09033827549138 31.153088157676393,207.03239989069334 31.290867499570595,207.13247524916733 31.414393806102453,207.19041354200817 31.547422136209207,207.25888600128383 31.566426183359,207.40636489178723 31.65669540737872,207.5538434373375 31.770719690306578,207.65918504442016 31.841984867147403,207.7908618057918 31.903748020442436,207.78032767500554 31.975013197254157,207.72765699465162 31.994017244433053,207.64338381457128 32.06528242127388,207.76452647551923 32.16030265708105,207.88566890372385 32.26007390461746,207.99627700448764 32.393102234753314,208.02261223798632 32.535632588434964,207.99100995647314 32.51662854128517,207.98047585913082 32.56413865915965,207.98047585913082" stroke="#4DD2FF" stroke-dasharray="none" stroke-linecap="round" stroke-linejoin="round" stroke-width="0.5"><title>2026-03-14 12.0km</title><desc>9223370263378906807</desc></polyline></svg>