<?xml version="1.0" encoding="utf-8" ?>
<svg baseProfile="full" height="300mm" version="1.1" viewBox="0,0,200,300" width="200mm" xmlns="http://www.w3.org/2000/svg" xmlns:ev="http://www.w3.org/2001/xml-events" xmlns:xlink="http://www.w3.org/1999/xlink"><defs /><rect fill="#222222" height="300" width="200" x="0" y="0" /><text fill="#FFFFFF" style="font-size:12px; font-family:Arial; font-weight:bold;" x="10" y="20">Over 10km Runs</text><text fill="#FFFFFF" style="font-size:4px; font-family:Arial" x="10" y="280">Runner</text><text fill="#FFFFFF" style="font-size:9px; font-family:Arial" x="10" y="290">yihong0618</text><text fill="#FFFFFF" style="font-size:4px; font-family:Arial" x="65" y="280">SPECIAL TRACKS</text><rect fill="yellow" height="2.6" width="2.6" x="65" y="283" /><text fill="#FFFFFF" style="font-size:3px; font-family:Arial" x="70" y="285.5">Over 20.0 km</text><rect fill="red" height="2.6" width="2.6" x="65" y="287" /><text fill="#FFFFFF" style="font-size:3px; font-family:Arial" x="70" y="289.5">Over 40.0 km</text><text fill="#FFFFFF" style="font-size:4px; font-family:Arial" x="120" y="280">STATISTICS</text><text fill="#FFFFFF" style="font-size:3px; font-family:Arial" x="120" y="285">Number: 1</text><text fill="#FFFFFF" style="font-size:3px; font-family:Arial" x="120" y="290">Weekly: 1.0</text><text fill="#FFFFFF" style="font-size:3px; font-family:Arial" x="141" y="285">Total: 12.0 km</text><text fill="#FFFFFF" style="font-size:3px; font-family:Arial" x="141" y="290">Avg: 12.0 km</text><text fill="#FFFFFF" style="font-size:3px; font-family:Arial" x="167" y="285">Min: 12.0 km</text><text fill="#FFFFFF" style="font-size:3px; font-family:Arial" x="167" y="290">Max: 12.0 km</text><polyline fill="none" opacity="1" points="31.1245820869226,207.06926977810144 31.024810839357087,207.10613964393633 30.910786556400126,207.13247524916733 30.801513285230612,207.18514642669106 30.69699102587765,207.1798793109192 30.60197079007048,207.15354372545335 30.46894245999283,207.16407796095882 30.335914129856974,207.17461219471443 30.17913074081298,207.17461219471443 30.055604434281122,207.2536188916747 29.91782509238692,207.2536188916747 29.780045750463614,207.1588108434371 29.642266408598516,207.1272081290117 29.51398909027921,207.09560539873564 29.366707724810112,207.04820127364292 29.224177371128462,207.0007971129162 29.086398029205156,206.9375915098317 28.95812071088585,206.9375915098317 28.739574168575928,206.91125582318273 28.644553932797862,206.89018726594077 28.573288755957037,206.70583708979393 28.521027626266005,206.6478983517045 28.430758402246283,206.48988334080786 28.345240190043114,206.41087568687362 28.250219954235945,206.28446323462413 28.18845680099912,206.24232569422747 28.06968150625471,206.19492092762084 27.917649128998164,206.17911933083815 27.83213091676589,206.0579736238833 27.87013901109458,205.9315604640833 27.737110680987826,205.94736212292264 27.594580327306176,205.89468991140166 27.623086398059968,205.70506958561964 27.518564138677903,205.64712992787827 27.399788843933493,205.61025920886823 27.309519619942876,205.4943796658772 27.224001407710603,205.38376717615756 27.157487242657226,205.2415508328013 27.16698926623212,205.0940668786243 27.35227872602991,204.99398828465564 27.49956009152811,204.9360479734387 27.556572232977487,204.7622267202678 27.485307056136662,204.67794957651495 27.471054020774318,204.540998977649 27.442547950020526,204.3724439860198 27.537568185827695,204.24602744655203 27.566074256552383,204.09854116345014 27.504311103286454,203.97739145848027 27.485307056136662,203.80883495993112 27.376033784996253,203.70348691946492 27.214499384135706,203.6455454221832 27.224001407710603,203.65608024382527 27.247756466676947,203.65608024382527 27.214499384135706,203.66134765399693 27.22875241949805,203.66134765399693 27.219250395923154,203.66134765399693 27.214499384135706,203.66661506371747 27.214499384135706,203.66134765399693 27.157487242657226,203.6139409466632 27.138483195507433,203.46118575829678 27.152736230869778,203.36637200693076 27.22875241949805,203.26102322704173 27.304768608126324,203.17147662570642 27.376033784996253,203.10826718346652 27.504311103286454,203.01345290129393 27.623086398059968,202.9081035315976 27.70385359847569,202.83962634688578 27.71810663380893,202.73427668668228 27.623086398059968,202.64472933707293 27.566074256552383,202.53411184723154 27.54707020940259,202.39188907505013 27.566074256552383,202.2812711415063 27.566074256552383,202.16011794392034 27.618335386243416,202.02316187495308 27.49005806792411,201.94941617610675 27.46155199719942,201.8809379499071 27.385535808542045,201.77031911966696 27.447298961837078,201.59122155435034 27.509062115073903,201.48586980762047 27.509062115073903,201.33310946209167 27.556572232977487,201.17508112882206 27.623086398059968,201.05392580499029 27.63258842160576,200.9116996928933 27.642090445180656,200.79054386276766 27.623086398059968,200.66938779976044 27.59933133906452,200.5798375165432 27.60408235088107,200.45868104848705 27.642090445180656,200.26904437005214 27.70385359847569,200.14261960076692 27.699102586659137,200.0214622922067 27.661094492359553,199.87923385020258 27.67059651593445,199.7264696105267 27.675347527721897,199.5473662372533 27.675347527721897,199.42094002026715 27.16698926623212,198.6834486995176 27.081471054028952,198.66237739208736 27.052964983304264,198.54648507539605 27.02445891255047,198.46746746452845 27.00070385361323,198.4305925455592 26.96744677107199,198.35157478937617 26.905683617835166,198.29889623021518 26.82966742917779,198.2409497642584 26.758402252366068,198.18300324504526 26.71089213443338,198.11452092634863 26.63487594583421,198.04077065375532 26.516100651060697,197.94594874787435 26.440084462432424,197.8721982779898 26.383072320953943,197.85639459463346 26.25004399084719,197.89326984961008 26.169276790431468,197.91960930425194 26.036248460324714,197.90907352372233 25.98873834242113,197.8037156215214 25.950730248121545,197.70889335892934 25.86996304767672,197.66148217412047 25.741685729357414,197.6983575431659 25.708428646845277,197.63514261160162 25.71317965866183,197.61407095363393 25.71317965866183,197.62987469776272 25.694175611482933,197.66148217412047 25.679922576091485,197.64041052498578 25.684673587908037,197.64041052498578 25.670420552545693,197.66148217412047 25.67517156433314,197.64041052498578 25.69892662327038,197.61407095363393 25.684673587908037,197.5877313713063 25.622910434642108,197.47183707817385 25.608657399279764,197.40335398659226 25.565898293163627,197.32960288166214 25.527890198864043,197.3137990622272 25.447122998419218,197.2663875801518 25.390110856940737,197.21370811378802 25.304592644737568,197.21370811378802 25.266584550437983,197.20844016472256 25.257082526833983,197.19790426528198 25.15731127926847,197.23477990562606 25.086046102427645,197.29272729681543 25.02903396092006,197.28219141148293 24.967270807683235,197.3243349422919 24.881752595450962,197.37174638076613 24.824740454001585,197.42442571500214 24.767728312523104,197.44549743637617 24.705965159257175,197.48764085797302 24.653704029566143,197.49817670897028 24.539679746638285,197.55612385795757 24.439908499043668,197.59299928864857 24.354390286811395,197.6983575431659 24.25461903924588,197.77737611845077 24.145345768076368,197.77737611845077 24.078831603052095,197.77737611845077 23.979060355457477,197.76684031413606 23.96005630827858,197.7510366043607 23.964807320095133,197.74050079565131 23.983811367244925,197.7510366043607 23.94105226112879,197.77737611845077 23.884040119679412,197.7141612661435 23.808023931022035,197.68255381620838 23.741509765968658,197.74050079565131 23.670244589156937,197.66675008530365 23.575224353349768,197.6983575431659 23.4897061411466,197.62460678350544 23.42794298788067,197.54032009532602 23.36142882279819,197.50344463380316 23.347175787435845,197.50871255819584 23.318669716682052,197.44549743637617 23.25215555165778,197.37701431618189 23.19039239839185,197.40862191935958 23.209396445541643,197.3822822511429 23.171388351242058,197.35594257191042 23.185641386604402,197.25585169039914 23.1951434101793,197.18736836407334 23.13338025691337,197.1241529198851 23.114376209763577,197.0609374122614 23.07636811543489,196.98718590654607 23.043111032922752,196.90816634033763 23.009853950381512,196.79227079731572 22.99560091504827,196.61842708309632 22.919584726390895,196.5499430639793 22.881576632062206,196.4603869266648 22.81031145522138,196.4077067864455 22.79130740807159,196.31288242301525 22.720042231230764,196.21278988460472 22.68203413693118,196.12850130787047 22.66778110153973,196.1074291460718 22.63452401899849,196.1126971871745 22.64877705438994,196.1126971871745 22.639275030815043,196.1074291460718 22.644026042573387,196.10216110452166 22.644026042573387,196.09689306251676 22.68203413693118,196.08108893389362 22.69628717226442,196.02840847654443 22.686785148689523,196.0705528459548 22.639275030815043,196.04421261836615 22.6250219954527,196.05474871073238 22.620270983636146,196.06001675624793 22.6250219954527,196.04948066476936 22.6250219954527,196.04948066476936 22.629773007211043,196.04421261836615 22.629773007211043,196.04421261836615 22.644026042573387,196.03894457153 180.90973077600938,92.0248983037418 180.81471054023132,92.08294288193065 180.81471054023132,92.08294288193065 180.81471054023132,92.08294288193065 180.7244413162407,92.14098740625923 23.090621150826337,196.98718590654607 23.128629245155025,197.11361700634734 23.185641386604402,197.19790426528198 23.16663733945461,197.30853112154364 23.185641386604402,197.43496157657137 23.24265352805378,197.53505217357815 23.294914657744812,197.65094635041896 23.294914657744812,197.8037156215214 23.318669716682052,197.9354129717467 23.356677811039845,198.13032454495624 23.375681858189637,198.2830926538736 23.39468590533943,198.41478900223592 23.380432869977085,198.58862776066235 23.380432869977085,198.72032347052664 23.347175787435845,198.82567984025445 23.171388351242058,198.86255452803016 23.009853950381512,198.90469700193353 22.867323596699862,198.93103603382406 22.734295266593108,198.98371406457227 22.57751187752001,199.04692764332503 22.43973253565491,199.09433778579478 22.354214323451743,199.14174789258686 22.23068801689078,199.20496131282925 22.107161710358923,199.26817466967987 22.078655639634235,199.32612019106455 22.050149568909546,199.34192350584635 22.031145521759754,199.34719127655626 21.97888439206872,199.40513672530142 21.883864156261552,199.4262077843705 21.765088861546246,199.43674331125294 21.66531761395163,199.51575970679187 21.617807496048044,199.56316949655957 21.570297378173564,199.66325671337108 21.451522083429154,199.679059943599 21.375505894771777,199.65798896908382 21.237726552877575,199.68432768613638 21.12845328170806,199.7001309110783 21.0239310223551,199.65798896908382 20.928910786577035,199.64218573356266 20.82438852719497,199.68432768613638 20.757874362141592,199.68959542822995 20.67710716172587,199.74754056214806 20.56308287876891,199.76861150673358 20.487066690140637,199.8212888373564 20.430054548662156,199.91610792153733 20.439556572237052,200.00039143218237 20.396797466120915,200.05833628033724 20.349287348246435,200.0794071210221 20.306528242130298,200.08994253870333 20.202005982777337,200.11101336881256 20.106985746970167,200.0794071210221 19.98345944043831,200.1057456619419 19.912194263597485,200.14261960076692 19.93119831077638,200.18476121871936 19.92169628717238,200.28484744839443 19.90744325183914,200.33225665960344 19.893190216447692,200.379665835153 19.878937181085348,200.44287801375322 19.855182122119004,200.5271608199182 19.741157839191146,200.60090818287426 19.650888615171425,200.60090818287426 19.584374450118048,200.6377818319852 19.484603202552535,200.69045843615095 19.427591061074054,200.65885247892948 19.37532993138302,200.606175848352 19.361076896020677,200.6114435133859 19.31831778990454,200.56930218075286 19.35632588423323,200.55349917373314 19.370578919595573,200.50609012895802 19.332570825266885,200.5429638335263 19.2945627309673,200.56403451217557 19.327819813479437,200.69045843615095 19.308815766329644,200.88536148877392 19.39908499032026,201.01178476819769 19.37532993138302,201.12767255157814 19.242301601276267,201.19088397997984 19.152032377256546,201.36471508119575 19.17578743622289,201.5280105274469 19.08551821220317,201.68603797586184 19.009502023604,201.8546001507966 19.03800809432869,202.03896451349283 19.156783389073098,202.0916399466405 19.11877529474441,202.1917231483494 19.11877529474441,202.31287628518112 19.104522259382065,202.48670429216145 19.20429350694758,202.5499143576708 19.370578919595573,202.59732186520705 19.503607249702327,202.68160179054757 19.574872426543152,202.85016130322037 19.712651768437354,202.99238304143364 19.893190216447692,203.10826718346652 20.083230688032927,203.17147662570642 20.24001407707692,203.0713949795645 20.425303536874708,203.118802094923 20.629597043822287,203.16620917460023 20.810135491832625,203.2030813230558 21.009677986992756,203.22941855873796 21.11420024637482,203.22941855873796 21.237726552877575,203.27155811294142 21.389758930163225,203.27682555524007 21.527538272057427,203.31896507775673 21.68432166110142,203.3347673914468 21.845856061961967,203.3347673914468 21.988386415643618,203.37163944129497 22.140418792900164,203.41377890042713 22.297202181944158,203.42431376081004 22.49199366531684,203.42958119034665 22.64877705438994,203.35056970116057 22.772303360921796,203.3611045721227 22.93383776175324,203.41377890042713 23.062115080072545,203.3347673914468 23.142882280488266,203.37690687522627 23.294914657744812,203.4717206107598 23.328171740286052,203.6508128332207 23.404187928914325,203.7719631657892 23.45169804681791,203.8562415207125 23.64648953016149,203.79303276508654 23.836530001746723,203.79303276508654 24.050325532298302,203.72982394608334 24.183353862405056,203.58760387161965 24.382896357565187,203.60340611797074 24.51117367585539,203.70875432567846 24.734471229981864,203.74035875365007 24.915009677992202,203.73509135009226 25.052789019915508,203.66661506371747 25.214323420717847,203.5770690385325 25.39486186875729,203.529662267807 25.5041351398977,203.48752288614196 25.656167517154245,203.5770690385325 25.79394685907755,203.66661506371747 25.936477212730097,203.68768469821953 26.04575048389961,203.62447577358398 26.212035896547604,203.5770690385325 26.397325356316287,203.6139409466632 26.53985571002704,203.5665342036773 26.672884040133795,203.5191274250319 26.786908323090756,203.48752288614196 26.962695759313647,203.529662267807 27.128981171903433,203.58760387161965 27.195495336985914,203.60340611797074 27.366531761421356,203.66661506371747 27.480556044349214,203.79830016379856 27.532817174011143,203.96685669053113 27.55182122119004,204.11961065358264 27.54707020940259,204.29343367855836 27.518564138677903,204.47252356665194 27.466303008957766,204.6358109624016 27.59933133906452,204.77276135531793 27.5280661622528,204.92551336566248 27.357029737817356,204.9781863868775 27.238254443072947,205.11513603606363 27.200246348773362,205.27842176743434 27.319021643488668,205.4311725526677 27.409290867537493,205.58919021689508 27.60883336266852,205.6523971716888 27.64684145699721,205.79987981980958 27.71810663380893,205.91575880130404 27.889143058244372,205.94209490376306 27.9604082351143,206.10537849344837 28.136195671308087,206.21598971718413 28.297730072168633,206.3213335593755 28.42600739048794,206.4319444042667 28.49727256729966,206.5899595603587 28.635051909222966,206.7163714001108 28.734823156817583,206.88492012552524 28.93436565194861,206.9375915098317 29.105402076384053,206.9375915098317 29.276438500819495,206.99026285012587 29.46647897240473,207.06400265264165 29.628013373236172,207.1272081290117 29.80855182124651,207.1798793109192 29.94633116311161,207.2536188916747 30.112616575759603,207.21674911208174 30.27415097662015,207.1956806569142 30.46894245999283,207.1588108434371 30.649480907974066,207.15354372545335 30.796762273472268,207.1588108434371 30.953545662516262,207.10613964393633 31.06756994544412,207.0534684004233 31.214851310942322,207.0745369031065 31.338377617445076,207.17461219471443 31.47615695936838,207.2009477713509 31.55217314796755,207.31155707320795 31.580679218721343,207.44850165427488 31.689952489890857,207.59071301983204 31.794474749243818,207.6802533447226 31.846735878963955,207.77506060895394 31.913250043988228,207.76979354246578 31.960760161891812,207.7118557819631 31.994017244433053,207.65918504442016 32.06528242127388,207.76452647551923 32.16030265708105,207.88566890372385 32.26007390461746,207.99627700448764" stroke="#4DD2FF" stroke-dasharray="none" stroke-linecap="round" stroke-linejoin="round" stroke-width="0.5"><title>2026-03-14 12.0km</title><desc>9223370263378906807</desc></polyline></svg>