<?xml version="1.0" encoding="utf-8" ?>
<svg baseProfile="full" height="300mm" version="1.1" viewBox="0,0,200,300" width="200mm" xmlns="http://www.w3.org/2000/svg" xmlns:ev="http://www.w3.org/2001/xml-events" xmlns:xlink="http://www.w3.org/1999/xlink"><defs /><rect fill="#222222" height="300" width="200" x="0" y="0" /><text fill="#FFFFFF" style="font-size:12px; font-family:Arial; font-weight:bold;" x="10" y="20">Over 10km Runs</text><text fill="#FFFFFF" style="font-size:4px; font-family:Arial" x="10" y="280">Runner</text><text fill="#FFFFFF" style="font-size:9px; font-family:Arial" x="10" y="290">yihong0618</text><text fill="#FFFFFF" style="font-size:4px; font-family:Arial" x="65" y="280">SPECIAL TRACKS</text><rect fill="yellow" height="2.6" width="2.6" x="65" y="283" /><text fill="#FFFFFF" style="font-size:3px; font-family:Arial" x="70" y="285.5">Over 20.0 km</text><rect fill="red" height="2.6" width="2.6" x="65" y="287" /><text fill="#FFFFFF" style="font-size:3px; font-family:Arial" x="70" y="289.5">Over 40.0 km</text><text fill="#FFFFFF" style="font-size:4px; font-family:Arial" x="120" y="280">STATISTICS</text><text fill="#FFFFFF" style="font-size:3px; font-family:Arial" x="120" y="285">Number: 1</text><text fill="#FFFFFF" style="font-size:3px; font-family:Arial" x="120" y="290">Weekly: 1.0</text><text fill="#FFFFFF" style="font-size:3px; font-family:Arial" x="141" y="285">Total: 12.0 km</text><text fill="#FFFFFF" style="font-size:3px; font-family:Arial" x="141" y="290">Avg: 12.0 km</text><text fill="#FFFFFF" style="font-size:3px; font-family:Arial" x="167" y="285">Min: 12.0 km</text><text fill="#FFFFFF" style="font-size:3px; font-family:Arial" x="167" y="290">Max: 12.0 km</text><polyline fill="none" opacity="1" points="30.345416153460974,207.30102142102987 30.193383776175324,207.3062885381296 30.074608481460018,207.3800281312033 29.94633116311161,207.39056235174576 29.827555868396303,207.3062885381296 29.670772479323205,207.27468582897927 29.571001231728587,207.22201461186705 29.414217842684593,207.21148036317754 29.29069153618184,207.14300770371847 29.152912194287637,207.09560351130858 29.010381840576883,207.07453496990274 28.891606545832474,207.10087064556137 28.64930494458531,207.02713072601182 28.635051909222966,206.95339072023853 28.563786732353037,206.81644476642032 28.48301953196642,206.76377316653088 28.421256378671387,206.58995657469495 28.316734119318426,206.51621605764376 28.24071793066105,206.42140669469518 28.159950730245328,206.37926915429853 28.064930494467262,206.32132999027453 27.903396093606716,206.31079559109276 27.836881928582443,206.18964987400977 27.87013901109458,206.06850392415436 27.74661270456272,206.0843055829937 27.59933133906452,206.04743503955615 27.623086398059968,205.85254752320543 27.537568185827695,205.78934063175984 27.423543902870733,205.75246991582753 27.328523667092668,205.6523921496082 27.257258490251843,205.5470469609172 27.152736230869778,205.43643432333556 27.157487242657226,205.28895050470237 27.271511525614187,205.14146634106146 27.42829491465818,205.11512984694855 27.556572232977487,204.97291258869154 27.542319197615143,204.84649697869463 27.437796938233078,204.75168510485673 27.466303008957766,204.61473436867527 27.49480907971156,204.46724862777046 27.542319197615143,204.32502990798457 27.58032729194383,204.1933456221086 27.485307056136662,204.08799799536064 27.46155199719942,203.92470882600173 27.366531761421356,203.81936075032718 27.219250395923154,203.78775629329175 27.219250395923154,203.79302370389632 27.2430054548895,203.79302370389632 27.214499384135706,203.79829111406798 27.22875241949805,203.79829111406798 27.219250395923154,203.79829111406798 27.20974837234826,203.80355852378852 27.214499384135706,203.79829111406798 27.20974837234826,203.79829111406798 27.138483195507433,203.624466346213 27.157487242657226,203.52438520183932 27.195495336985914,203.42430389858418 27.271511525614187,203.34002478312686 27.338025690667564,203.2926177311674 27.456800985411974,203.20833843963555 27.566074256552383,203.118791568937 27.675347527721897,203.0134421464245 27.72760865741293,202.92916248165056 27.699102586659137,202.8290802333795 27.58507830373128,202.75533531716792 27.54707020940259,202.6183802439191 27.561323244764935,202.50249494949094 27.58032729194383,202.39714449696476 27.57557628012728,202.2601886454686 27.60883336266852,202.14957024046817 27.485307056136662,202.08109208294627 27.456800985411974,202.01788140997814 27.3807847967837,201.91253014748509 27.447298961837078,201.7281650144214 27.509062115073903,201.6280808592128 27.504311103286454,201.48585573369564 27.542319197615143,201.33836267195875 27.613584374455968,201.21720739874945 27.627837409818312,201.06971370833344 27.656343480543,200.94855791872396 27.618335386243416,200.843204868881 27.60883336266852,200.72731631066563 27.589829315518728,200.63776591518763 27.589829315518728,200.48500318215156 27.684849551296793,200.35331087374288 27.699102586659137,200.2216182901575 27.665845504147,200.09519315101716 27.67059651593445,199.94769683482446 27.656343480543,199.79493242915487 27.675347527721897,199.5894900583553 27.656343480543,199.55261571579103 27.157487242657226,198.80985650674484 27.06246700687916,198.7729817079853 27.03871194794192,198.67289285974402 27.019707900763024,198.58860739053125 27.00070385361323,198.56226815828995 26.96744677107199,198.47798254113877 26.905683617835166,198.4253039731666 26.82966742917779,198.37789322432945 26.763153264124412,198.3410181728068 26.71564314624993,198.26200013260313 26.64912898116745,198.19878562908343 26.535104698239593,198.09342798230136 26.463839521398768,197.99860594959318 26.40207636813284,197.99860594959318 26.302305120567326,198.02494541743727 26.193031849368708,198.056552764323 26.07900756644085,198.056552764323 26.007742389600025,197.9933380547045 25.96498328348389,197.87744425572237 25.917473165609408,197.81422936642412 25.803448882623343,197.8036935453747 25.70367763505783,197.8036935453747 25.69892662327038,197.77208607167267 25.732183705782518,197.7615502435765 25.71317965866183,197.77735398505683 25.694175611482933,197.78262189799352 25.670420552545693,197.77208607167267 25.694175611482933,197.77208607167267 25.694175611482933,197.78788981049001 25.679922576091485,197.77208607167267 25.69892662327038,197.75101441370498 25.684673587908037,197.71940691356576 25.622910434642108,197.6087805382449 25.608657399279764,197.54029744666332 25.565898293163627,197.4665463417332 25.532641210622387,197.45074252229824 25.456625021994114,197.40859898444614 25.399612880544737,197.35591952247705 25.323596691916464,197.3717233656971 25.280837585800327,197.3453836247936 25.257082526833983,197.34011567529888 25.18106633820571,197.37699131254703 25.114552173152333,197.40859898444614 25.057540031673852,197.44020664047275 24.98152384304558,197.44020664047275 24.934013725141995,197.48235015720275 24.843744501151377,197.52449364574568 24.80098539503524,197.58244089644722 24.75347527716076,197.58770882569297 24.677459088503383,197.63512016904133 24.610944923450006,197.66145978881832 24.51592468767194,197.70887107667295 24.416153440106427,197.75101441370498 24.344888263265602,197.8616405393368 24.249868027458433,197.91431957852183 24.154847791680368,197.9090516765791 24.064578567660647,197.91431957852183 23.979060355457477,197.9037837742071 23.96005630827858,197.88798006443176 23.964807320095133,197.87744425572237 23.983811367244925,197.88798006443176 23.94580327294534,197.9090516765791 23.888791131437756,197.8616405393368 23.822276966413483,197.8247651857091 23.7747668485099,197.85110472621454 23.689248636277625,197.8247651857091 23.608481435861904,197.8036935453747 23.527714235446183,197.8036935453747 23.45169804681791,197.70887107667295 23.38993489355198,197.6719956336492 23.356677811039845,197.63512016904133 23.3329227520735,197.62985224376098 23.285412634169916,197.55083331176502 23.209396445541643,197.51395777625294 23.1951434101793,197.5297615798263 23.1951434101793,197.51395777625294 23.16663733945461,197.47181428066324 23.1951434101793,197.37699131254703 23.204645433754195,197.3137759211968 23.13338025691337,197.2505604664184 23.104874186159577,197.18207698552214 23.07161710364744,197.12412936661713 23.043111032922752,197.04510980040868 23.009853950381512,196.92921425738677 23.005102938594064,196.76590653949097 22.919584726390895,196.69742253182267 22.881576632062206,196.59733038673585 22.81031145522138,196.5499182625099 22.81031145522138,196.47616599836329 22.739046278380556,196.3813415318691 22.677283125114627,196.29705299743728 22.663030089752283,196.2338365225878 22.629773007211043,196.2391045645927 22.629773007211043,196.24437260614286 22.644026042573387,196.25490868791894 22.63452401899849,196.24437260614286 22.644026042573387,196.24964064724554 22.64877705438994,196.2391045645927 22.686785148689523,196.1811560784372 22.691536160506075,196.16535193661548 22.65827907793573,196.1864241248404 22.63452401899849,196.1811560784372 22.620270983636146,196.1864241248404 22.620270983636146,196.19696021631898 22.6250219954527,196.1864241248404 22.629773007211043,196.1864241248404 22.629773007211043,196.17588803160106 22.629773007211043,196.1811560784372 22.644026042573387,196.17588803160106 180.90973077600938,92.16184176381284 180.81471054023132,92.2198863420017 180.81471054023132,92.2198863420017 180.81471054023132,92.2198863420017 180.7244413162407,92.27793086633028 180.62942108043353,92.33597533679858 23.11912722152192,197.18734494821547 23.185641386604402,197.2821682017384 23.16663733945461,197.39806309556297 23.19039239839185,197.51395777625294 23.209396445541643,197.62985224376098 23.280661622382468,197.72467483137734 23.304416681348812,197.8616405393368 23.313918704923708,197.9933380547045 23.3329227520735,198.16191047274333 23.36142882279819,198.33048243984376 23.380432869977085,198.4569111192286 23.380432869977085,198.58860739053125 23.37093084640219,198.76244604723615 23.380432869977085,198.8678025754889 23.342424775648396,198.97315892759434 23.15713531585061,198.9994979881012 23.009853950381512,199.04164046200458 22.867323596699862,199.0679794938951 22.734295266593108,199.11538972354538 22.582262889336562,199.1786033075914 22.458736582804704,199.22601345403018 22.363716346997535,199.2681557764554 22.26394509943202,199.32083363986385 22.130916769296164,199.38931479647363 22.083406651421683,199.45252810576494 22.050149568909546,199.4788669659174 22.050149568909546,199.4788669659174 22.00263945100596,199.52100911927846 21.92662326237769,199.55261571579103 21.822101002995623,199.5578834803382 21.727080767217558,199.61582886127871 21.636811543197837,199.66323867877873 21.598803448898252,199.72645171330078 21.54179130741977,199.81600340367004 21.423016012646258,199.8054679172892 21.337497800472192,199.79493242915487 21.218722505727783,199.826538888301 21.099947210983373,199.8318066299471 21.014428998780204,199.79493242915487 20.909906739427242,199.7738614475893 20.810135491832625,199.826538888301 20.757874362141592,199.826538888301 20.67710716172587,199.8844840222191 20.56783389058546,199.90028723132127 20.487066690140637,199.94242910286266 20.439556572237052,200.0372482108396 20.434805560449604,200.12679945958007 20.396797466120915,200.19001202913933 20.35878937182133,200.21635058109314 20.320781277492642,200.2321537069547 20.24476508886437,200.24268912201296 20.13074080593651,200.22688599877438 20.030969558341894,200.22688599877438 19.92169628717238,200.26902765194973 19.92644729895983,200.3006338733212 19.935949322534725,200.37438166158245 19.92169628717238,200.44812936353628 19.893190216447692,200.49553855494378 19.888439204660244,200.54821539244222 19.864684145723004,200.6061598628621 19.826676051394315,200.6904426338042 19.72215379201225,200.72731631066563 19.64138659159653,200.753654638047 19.555868379364256,200.7694576292124 19.47035016719019,200.83266955422368 19.432342072861502,200.7799929544526 19.37532993138302,200.74311930842305 19.361076896020677,200.74838697345695 19.31831778990454,200.7062456408239 19.35157487244578,200.67990729359735 19.370578919595573,200.64303358902907 19.346823860658333,200.6851749639245 19.304064754542196,200.70097797224662 19.308815766329644,200.80106359963975 19.299313742725644,200.95909321403087 19.361076896020677,201.11185479796404 19.418089037499158,201.23827789777351 19.2945627309673,201.28568649482622 19.190040471585235,201.42264446377158 19.142530353710754,201.6122780833466 19.161534400860546,201.74396776123467 19.03800809432869,201.9019950115544 19.009502023604,202.070556975199 19.09502023580717,202.15483778796624 19.161534400860546,202.24965356765097 19.142530353710754,202.34973673590503 19.11877529474441,202.48669239286028 19.123526306531858,202.63418276755328 19.232799577672267,202.70266032421569 19.37532993138302,202.7448003220925 19.517860285093775,202.83961521436868 19.574872426543152,202.99763971785433 19.712651768437354,203.1293265015047 19.883688192843692,203.24521064353758 20.059475629066583,203.2978851831358 20.221010029898025,203.20833843963555 20.396797466120915,203.2399431871636 20.582086925947806,203.2926177311674 20.77212739753304,203.32948988577482 20.96216786908917,203.35582712585528 21.052437093108892,203.35582712585528 21.175963399611646,203.41903645715865 21.327995776897296,203.42957133957316 21.465775118762394,203.4401062201796 21.6130564842897,203.47171085151786 21.774590885121142,203.46644341406864 21.917121238802793,203.5033154670018 22.031145521759754,203.51385033529732 22.202181946166093,203.5612572208811 22.363716346997535,203.57179207951776 22.55850783039932,203.5401874983654 22.68203413693118,203.47171085151786 22.800809431646485,203.51385033529732 22.952841808932135,203.5559897909152 23.066866091859993,203.46644341406864 23.147633292275714,203.5191177687957 23.299665669561364,203.6139314963948 23.328171740286052,203.78775629329175 23.413689952518325,203.89837182357587 23.45169804681791,204.00371976721 23.608481435861904,203.91417402634033 23.80327291926369,203.95104581740816 23.988562379032373,203.89837182357587 24.150096779863816,203.77195405882594 24.330635227874154,203.6982102456568 24.463663557980908,203.8140933419163 24.634699982387247,203.8720348101633 24.862748548330273,203.87730221372112 24.98152384304558,203.82462815829058 25.143058243906125,203.76141923365503 25.304592644737568,203.71401249860355 25.451874010206666,203.60866407083086 25.56114728137618,203.65607088510296 25.71317965866183,203.7403495780418 25.836705965164583,203.79302370389632 25.974485307058785,203.80882593306524 26.083758578199195,203.7403495780418 26.235790955484845,203.7245473316907 26.42583142707008,203.75088440673426 26.56361076896428,203.6982102456568 26.677635051921243,203.6613383067197 26.786908323090756,203.624466346213 26.962695759313647,203.66660572787805 27.11947914835764,203.7245473316907 27.195495336985914,203.7403495780418 27.342776702455012,203.79302370389632 27.456800985411974,203.90890662586025 27.49956009152811,204.08799799536064 27.58032729194383,204.21968250128702 27.566074256552383,204.3935056279297 27.509062115073903,204.55152623625327 27.471054020774318,204.71481378206227 27.58507830373128,204.8412296561146 27.57557628012728,204.9887145221146 27.447298961837078,205.10459524622274 27.29051557276398,205.16253552840863 27.22875241949805,205.29421778987307 27.2335034312855,205.46277068322888 27.338025690667564,205.63132312594826 27.49005806792411,205.74720266893928 27.642090445180656,205.82094408538615 27.63258842160576,205.97369388800143 27.756114728137618,206.0527022613751 27.893894070060924,206.10537445528098 27.969910258660093,206.24758915905477 28.145697694882983,206.3582003735428 28.297730072168633,206.45827701944654 28.42600739048794,206.56888786433774 28.49727256729966,206.72690302042975 28.62554988564807,206.83224623780552 28.706317086034687,206.99026073390633 28.891606545832474,207.0798021059054 29.072144993871916,207.0798021059054 29.243181418278255,207.11667204565674 29.414217842684593,207.2009461127127 29.57575224354514,207.2536173474109 29.73728664437658,207.28522006711864 29.889319021633128,207.37476102025903 30.050853422522778,207.39582946135488 30.193383776175324,207.32208988676211 30.373922224214766,207.29575430350815 30.544958648621105,207.29575430350815 30.7112440612691,207.3062885381296 30.849023403134197,207.27995294827633 30.991553756815847,207.2325488588067 31.115080063347705,207.1693433507644 31.24810839345446,207.22728173556243 31.366883688198868,207.32735700207922 31.50466303009307,207.34842545902575 31.55217314796755,207.4643018462666 31.594932254083687,207.6065134850396 31.689952489890857,207.7276564799031 31.794474749243818,207.81719680479364" stroke="#4DD2FF" stroke-dasharray="none" stroke-linecap="round" stroke-linejoin="round" stroke-width="0.5"><title>2026-03-14 12.0km</title><desc>9223370263378906807</desc></polyline></svg>