<?xml version="1.0" encoding="utf-8" ?>
<svg baseProfile="full" height="300mm" version="1.1" viewBox="0,0,200,300" width="200mm" xmlns="http://www.w3.org/2000/svg" xmlns:ev="http://www.w3.org/2001/xml-events" xmlns:xlink="http://www.w3.org/1999/xlink"><defs /><rect fill="#222222" height="300" width="200" x="0" y="0" /><text fill="#FFFFFF" style="font-size:12px; font-family:Arial; font-weight:bold;" x="10" y="20">Over 10km Runs</text><text fill="#FFFFFF" style="font-size:4px; font-family:Arial" x="10" y="280">Runner</text><text fill="#FFFFFF" style="font-size:9px; font-family:Arial" x="10" y="290">yihong0618</text><text fill="#FFFFFF" style="font-size:4px; font-family:Arial" x="65" y="280">SPECIAL TRACKS</text><rect fill="yellow" height="2.6" width="2.6" x="65" y="283" /><text fill="#FFFFFF" style="font-size:3px; font-family:Arial" x="70" y="285.5">Over 20.0 km</text><rect fill="red" height="2.6" width="2.6" x="65" y="287" /><text fill="#FFFFFF" style="font-size:3px; font-family:Arial" x="70" y="289.5">Over 40.0 km</text><text fill="#FFFFFF" style="font-size:4px; font-family:Arial" x="120" y="280">STATISTICS</text><text fill="#FFFFFF" style="font-size:3px; font-family:Arial" x="120" y="285">Number: 1</text><text fill="#FFFFFF" style="font-size:3px; font-family:Arial" x="120" y="290">Weekly: 1.0</text><text fill="#FFFFFF" style="font-size:3px; font-family:Arial" x="141" y="285">Total: 12.0 km</text><text fill="#FFFFFF" style="font-size:3px; font-family:Arial" x="141" y="290">Avg: 12.0 km</text><text fill="#FFFFFF" style="font-size:3px; font-family:Arial" x="167" y="285">Min: 12.0 km</text><text fill="#FFFFFF" style="font-size:3px; font-family:Arial" x="167" y="290">Max: 12.0 km</text><polyline fill="none" opacity="1" points="29.846559915546095,207.5670094812449 29.685025514714653,207.53013966160142 29.590005278907483,207.4932698204102 29.423719866288593,207.47746845328948 29.31444659511908,207.39846155833948 29.176667253224878,207.3563245072146 29.02938588775578,207.31945456438552 28.915361604769714,207.34052310579136 28.62554988564807,207.2720503204946 28.635051909222966,207.22464604096604 28.573288755957037,207.0771658322883 28.502023579116212,207.01922708450002 28.430758402246283,206.8559448724991 28.326236142893322,206.78747156097234 28.250219954235945,206.66105909817634 28.18845680099912,206.6241887487813 28.07443251804216,206.58205118023398 27.936653176147956,206.56098238539198 27.841632940340787,206.45037109696568 27.884392046456924,206.35029404976376 27.760865739925066,206.3239579583169 27.618335386243416,206.31342351863714 27.623086398059968,206.12907053964227 27.566074256552383,206.0289929824321 27.452049973624526,206.00792400277714 27.342776702455012,205.9183807607078 27.276262537401635,205.81303560722154 27.16698926623212,205.71295754835955 27.152736230869778,205.55493923724498 27.2335034312855,205.38111863758968 27.395037832146045,205.36004944143133 27.542319197615143,205.24943604607324 27.556572232977487,205.1124858591138 27.437796938233078,205.02820867312403 27.475805032561766,204.88599066629104 27.475805032561766,204.7332376349368 27.542319197615143,204.60155369013592 27.570825268368935,204.4646020957698 27.49480907971156,204.343452360441 27.480556044349214,204.18543061663877 27.376033784996253,204.08534997401875 27.214499384135706,204.02740847673704 27.224001407710603,204.0379432983791 27.247756466676947,204.03267588777453 27.214499384135706,204.0379432983791 27.224001407710603,204.04321070855076 27.219250395923154,204.04321070855076 27.20974837234826,204.0484781182713 27.214499384135706,204.05374552754802 27.219250395923154,204.0484781182713 27.128981171903433,203.89045563505715 27.152736230869778,203.7851070928482 27.185993313411018,203.6797583745829 27.26200950203929,203.60074672033807 27.338025690667564,203.54280477761858 27.42829491465818,203.46379295173756 27.55182122119004,203.3795135616092 27.665845504147,203.26362921622058 27.72760865741293,203.18988452186022 27.713355622050585,203.08980229867302 27.594580327306176,203.010789904969 27.556572232977487,202.88963737558151 27.556572232977487,202.76321709667536 27.570825268368935,202.65786667056818 27.570825268368935,202.53671346286865 27.618335386243416,202.4050249295069 27.49005806792411,202.33127923066058 27.471054020774318,202.26280100446093 27.385535808542045,202.16798487614506 27.433045926474733,201.98888735571745 27.49956009152811,201.89933840468439 27.49956009152811,201.75184573739898 27.532817174011143,201.59908511097456 27.60408235088107,201.4831974922563 27.623086398059968,201.33570385117127 27.656343480543,201.21454810204887 27.618335386243416,201.10919508742518 27.627837409818312,200.99330656793973 27.594580327306176,200.89848852986688 27.58507830373128,200.75099352044344 27.67059651593445,200.61403355975926 27.70385359847569,200.48760871649574 27.67059651593445,200.35591590176773 27.67059651593445,200.2136873527561 27.661094492359553,200.07145848278378 27.684849551296793,199.85548069605284 27.665845504147,199.79753531027382 27.157487242657226,199.0705795798167 27.076720042241504,199.03897261869497 27.052964983304264,198.92834812994988 27.02445891255047,198.8493305190823 27.00070385361323,198.81772344700585 26.96744677107199,198.73343784393 26.905683617835166,198.6912950001206 26.848671476356685,198.6333485438554 26.763153264124412,198.58593776728958 26.725145169824827,198.5227233430487 26.672884040133795,198.44897310128363 26.54460672181449,198.3488833493866 26.48284356854856,198.24879343853172 26.411578391707735,198.2329897538657 26.311807144113118,198.2751329041639 26.202533872972708,198.29093657827616 26.10751363716554,198.2962044687556 26.01724441317492,198.24352554407596 25.974485307058785,198.13816756260348 25.922224177367752,198.06441687076222 25.82245292980224,198.04861313985748 25.71317965866183,198.0591489609069 25.71317965866183,198.01173775231655 25.717930670420174,198.00120192334725 25.708428646845277,198.01700566615546 25.689424599695485,198.0328094049728 25.679922576091485,198.02227357953961 25.684673587908037,198.02227357953961 25.670420552545693,198.0433452286743 25.67517156433314,198.02227357953961 25.69892662327038,197.99593400818776 25.694175611482933,197.98539817658457 25.622910434642108,197.885307688357 25.608657399279764,197.80628876955598 25.565898293163627,197.71673387514602 25.546894246013835,197.69566211678102 25.475629069143906,197.65351857892892 25.40911490409053,197.61137501287158 25.342600739037152,197.6166429601799 25.290339609375224,197.58503526978166 25.26183353862143,197.58503526978166 25.195319373568054,197.60610706513035 25.128805208514677,197.64298269004576 25.06704205524875,197.68512623495553 24.986274854833027,197.67985829338068 24.94351574871689,197.71673387514602 24.848495512938825,197.75887737073572 24.81523843042669,197.82209256125861 24.758226288919104,197.83262842017575 24.69171212389483,197.87477183824376 24.629948970628902,197.885307688357 24.525426711246837,197.9379869125114 24.43040647546877,197.9748623432024 24.354390286811395,198.08022059771974 24.25461903924588,198.1592391730046 24.145345768076368,198.1592391730046 24.08358261481044,198.1592391730046 23.988562379032373,198.1487033686899 23.95055428473279,198.14343546586315 23.964807320095133,198.12236385020515 23.964807320095133,198.14343546586315 23.955305296491133,198.13816756260348 23.903044166829204,198.12236385020515 23.836530001746723,198.0696847801919 23.784268872084795,198.09602432069732 23.693999648094177,198.08548850581792 23.62273447122425,198.0433452286743 23.541967270808527,198.06441687076222 23.470702093967702,197.9748623432024 23.408938940701773,197.91164730594755 23.356677811039845,197.8800397635241 23.342424775648396,197.87477183824376 23.299665669561364,197.80628876955598 23.237902516295435,197.75887737073572 23.19039239839185,197.77994910794223 23.209396445541643,197.76414530569673 23.16663733945461,197.7325376892877 23.185641386604402,197.63771474495297 23.1951434101793,197.56923141862717 23.13338025691337,197.5112839305366 23.114376209763577,197.44280046681524 23.08587013903889,197.37431692864993 23.05261305649765,197.3058333160552 23.01460496216896,197.20047376672665 23.005102938594064,197.1267219773763 22.93383776175324,196.95287813233153 22.886327643849654,196.86332202497942 22.824564490583725,196.80537388768425 22.800809431646485,196.73688965670954 22.753299313772004,196.6420652140223 22.68203413693118,196.55250866489587 22.67253211332718,196.4840241590755 22.63452401899849,196.4787561170706 22.620270983636146,196.49456024172832 22.644026042573387,196.49982828240172 22.63452401899849,196.48929220062564 22.639275030815043,196.4840241590755 22.644026042573387,196.4787561170706 22.686785148689523,196.44714785587712 22.691536160506075,196.41553957881843 22.68203413693118,196.44714785587712 22.639275030815043,196.42607567291998 22.6250219954527,196.4313437193232 22.620270983636146,196.44187981080177 22.6250219954527,196.43661176528622 22.6250219954527,196.42607567291998 22.629773007211043,196.42607567291998 22.629773007211043,196.42607567291998 22.639275030815043,196.42080762608384 180.90973077600938,92.40676135829563 180.81471054023132,92.46480593648448 180.81471054023132,92.46480593648448 180.81471054023132,92.46480593648448 180.81946155201877,92.45952915888483 180.62942108043353,92.58089493128136 23.11912722152192,197.41646065324312 23.171388351242058,197.51655188620862 23.185641386604402,197.62191090702981 23.19039239839185,197.7325376892877 23.199894421966746,197.85896805977245 23.27115959880757,197.94852275205267 23.309167693107156,198.06441687076222 23.299665669561364,198.22245396187645 23.328171740286052,198.39102642219586 23.36142882279819,198.5332590848302 23.375681858189637,198.68602714266672 23.38993489355198,198.81245560011303 23.380432869977085,198.98102648213535 23.380432869977085,199.10218652508047 23.356677811039845,199.19173945056536 23.1951434101793,199.254953203701 23.028857997560408,199.28129224879376 22.891078655637102,199.29709567057216 22.75805032553035,199.35504151648274 22.61076896006125,199.41298730914423 22.482491641741944,199.4603974634847 22.38272039417643,199.5078075821839 22.273447123006918,199.56048544999067 22.154671828262508,199.62369883326392 22.09290867499658,199.67637660419132 22.050149568909546,199.7290543311101 22.050149568909546,199.71851878925736 22.00739046279341,199.75012540954776 21.931374274165137,199.79753531027382 21.836354038357968,199.8133386025802 21.74608481436735,199.84494517532585 21.651064578589285,199.90289051751824 21.60830547247315,199.9608358064288 21.546542319178116,200.06092299815282 21.437269048037706,200.05565525518978 21.35650184765109,200.0345842789029 21.22822452930268,200.06619074069022 21.123702269949717,200.08199396563214 21.0239310223551,200.03985202363765 20.928910786577035,200.0240487881165 20.829139538982417,200.06092299815282 20.76262537392904,200.07145848278378 20.691360197088216,200.1241358794432 20.582086925947806,200.13993908987686 20.496568713715533,200.17681323210127 20.4443075840245,200.26636463055547 20.430054548662156,200.36118361963236 20.411050501512364,200.4349316236221 20.35878937182133,200.44546704572713 20.325532289309194,200.47707330143749 20.25426711246837,200.48760871649574 20.144993841298856,200.47707330143749 20.04522259370424,200.46653788464027 19.940700334351277,200.508679541319 19.92169628717238,200.5402857653462 19.935949322534725,200.60876586302766 19.92644729895983,200.68778126787947 19.89794122823514,200.735190463256 19.883688192843692,200.7773319403168 19.869435157481348,200.83527642523768 19.831427063181764,200.9300945584073 19.741157839191146,200.9827712374281 19.646137603383977,200.98803890290583 19.584374450118048,201.01964488653903 19.484603202552535,201.07232149070478 19.422840049257502,201.0407155334833 19.38958296677447,200.9985742325298 19.36582790777902,200.99330656793973 19.327819813479437,200.95643290341832 19.35632588423323,200.93536222828698 19.370578919595573,200.8826855096704 19.37532993138302,200.90902387447204 19.31831778990454,200.9300945584073 19.299313742725644,201.0249125489354 19.304064754542196,201.17767456695947 19.34207284884178,201.33570385117127 19.432342072861502,201.47266224362465 19.31831778990454,201.5253384691714 19.209044518735027,201.6412260104189 19.152032377256546,201.81505692278006 19.190040471585235,201.94147910336687 19.06176315326593,202.11530918766584 19.004751011787448,202.2680685629566 19.076016188657377,202.39975738244902 19.161534400860546,202.48930562255555 19.142530353710754,202.58412126752228 19.11877529474441,202.70527438410136 19.104522259382065,202.86856734671528 19.20429350694758,202.93177741222462 19.35632588423323,202.96864992116753 19.49410522612743,203.0581973530716 19.565370402968256,203.21622192261566 19.69839873307501,203.3531762290877 19.864684145723004,203.46906040987233 20.040471581945894,203.527002420371 20.18300193559844,203.4585254931444 20.373042407183675,203.46906040987233 20.548829843406565,203.5375373256502 20.7388703149918,203.5744094802576 20.93366179833538,203.59021182562356 21.0239310223551,203.60601416703867 21.156959352461854,203.65342116749525 21.294738694356056,203.66395605164143 21.442020059854258,203.67449093405594 21.589301425294252,203.71663044600064 21.74608481436735,203.7060955706511 21.89336617983645,203.7324327557144 22.026394509943202,203.7587699297801 22.168924863624852,203.79564195498097 22.3304592644854,203.81144424490049 22.53000175964553,203.80617681536387 22.663030089752283,203.72189788300602 22.777054372709244,203.7482350614846 22.93383776175324,203.79564195498097 23.057364068285096,203.72716531958213 23.13338025691337,203.74296762667655 23.27115959880757,203.81144424490049 23.342424775648396,204.0063388281378 23.39468590533943,204.1327566140244 23.437445011455566,204.28024371045467 23.565722329745768,204.14855881941912 23.770015836693347,204.22230239229248 23.97430934367003,204.1643610208739 24.121590709139127,204.02740847673704 24.297378145332914,203.9325950026432 24.444659510802012,204.03267588777453 24.596691888087662,204.1222218082039 24.83899348936393,204.1222218082039 24.962519795895787,204.06954775277336 25.105050149577437,204.02740847673704 25.27133556222543,203.95893209308633 25.428118951269425,203.87465336494643 25.53739222243894,203.89045563505715 25.684673587908037,203.96419950985 25.812950906227343,204.03267588777453 25.945979236334097,204.06954775277336 26.05525250750361,204.0010714148957 26.2215379201225,203.95893209308633 26.397325356316287,203.99580400121704 26.53985571002704,203.94839725823113 26.672884040133795,203.90099047958574 26.76790427591186,203.87465336494643 26.929438676772406,203.89045563505715 27.071969030454056,203.96419950985 27.185993313411018,203.99580400121704 27.328523667092668,204.02740847673704 27.452049973624526,204.1327566140244 27.485307056136662,204.29604587888753 27.58507830373128,204.42773046184084 27.566074256552383,204.59628632662134 27.504311103286454,204.75430704057362 27.485307056136662,204.92286203220283 27.55182122119004,205.0703472802088 27.589829315518728,205.21783218317432 27.466303008957766,205.33371293633172 27.319021643488668,205.37585133920948 27.22875241949805,205.53913738435585 27.224001407710603,205.6971557350771 27.333274678880116,205.83937191209407 27.452049973624526,205.98685501609725 27.618335386243416,206.04479471254672 27.642090445180656,206.19227733600928 27.72760865741293,206.29762185585787 27.889143058244372,206.3239579583169 27.946155199722853,206.4872415480022 28.11719162412919,206.58205118023398 28.283477036777185,206.6715934797503 28.402252331521595,206.7980059214351 28.487770543753868,206.92968527867197 28.606545838469174,207.05609720289794 28.692064050701447,207.21937889658875 28.863100475107785,207.31945456438552 29.043638923118124,207.31945456438552 29.219426359341014,207.36159164013952 29.37145873659756,207.43533145497713 29.5519971846079,207.47746845328948 29.699278550047893,207.51960542346205 29.865563962695887,207.59861216663558 30.017596339981537,207.65128327373895 30.193383776175324,207.572276596562 30.33116311809863,207.55647524926826 30.511701566079864,207.54067389799093 30.682737990515307,207.54594101551265 30.825268344196957,207.53013966160142 30.96304768609116,207.47746845328948 31.086573992623016,207.42479720099072 31.21960232272977,207.46166708222154 31.338377617445076,207.56174236547304 31.47615695936838,207.58281082590474" stroke="#4DD2FF" stroke-dasharray="none" stroke-linecap="round" stroke-linejoin="round" stroke-width="0.5"><title>2026-03-14 12.0km</title><desc>9223370263378906807</desc></polyline></svg>