<?xml version="1.0" encoding="utf-8" ?>
<svg baseProfile="full" height="300mm" version="1.1" viewBox="0,0,200,300" width="200mm" xmlns="http://www.w3.org/2000/svg" xmlns:ev="http://www.w3.org/2001/xml-events" xmlns:xlink="http://www.w3.org/1999/xlink"><defs /><rect fill="#222222" height="300" width="200" x="0" y="0" /><text fill="#FFFFFF" style="font-size:12px; font-family:Arial; font-weight:bold;" x="10" y="20">Over 10km Runs</text><text fill="#FFFFFF" style="font-size:4px; font-family:Arial" x="10" y="280">Runner</text><text fill="#FFFFFF" style="font-size:9px; font-family:Arial" x="10" y="290">yihong0618</text><text fill="#FFFFFF" style="font-size:4px; font-family:Arial" x="65" y="280">SPECIAL TRACKS</text><rect fill="yellow" height="2.6" width="2.6" x="65" y="283" /><text fill="#FFFFFF" style="font-size:3px; font-family:Arial" x="70" y="285.5">Over 20.0 km</text><rect fill="red" height="2.6" width="2.6" x="65" y="287" /><text fill="#FFFFFF" style="font-size:3px; font-family:Arial" x="70" y="289.5">Over 40.0 km</text><text fill="#FFFFFF" style="font-size:4px; font-family:Arial" x="120" y="280">STATISTICS</text><text fill="#FFFFFF" style="font-size:3px; font-family:Arial" x="120" y="285">Number: 1</text><text fill="#FFFFFF" style="font-size:3px; font-family:Arial" x="120" y="290">Weekly: 1.0</text><text fill="#FFFFFF" style="font-size:3px; font-family:Arial" x="141" y="285">Total: 12.0 km</text><text fill="#FFFFFF" style="font-size:3px; font-family:Arial" x="141" y="290">Avg: 12.0 km</text><text fill="#FFFFFF" style="font-size:3px; font-family:Arial" x="167" y="285">Min: 12.0 km</text><text fill="#FFFFFF" style="font-size:3px; font-family:Arial" x="167" y="290">Max: 12.0 km</text><polyline fill="none" opacity="1" points="29.51398909027921,207.47746845328948 29.37620974838501,207.43533145497713 29.238430406490806,207.38266016747002 29.1101530881715,207.31945456438552 28.9723737462773,207.31945456438552 28.844096427957993,207.3563245072146 28.658806968160206,207.26678318007907 28.57803976771538,207.11930306997237 28.540031673415797,207.05083004444532 28.42600739048794,206.94021961536782 28.39750131976325,206.80854028013346 28.26922400141484,206.68212785957803 28.231215907115256,206.66105909817634 28.121942635945743,206.61365435928747 28.026922400167678,206.5504479853298 27.89864508184837,206.51357757125515 27.855885975732235,206.40296619967194 27.83213091676589,206.29762185585787 27.694351574900793,206.33449239621768 27.59933133906452,206.22388071044406 27.60883336266852,206.06059643871777 27.504311103286454,206.0289929824321 27.390286820358597,205.9763205200943 27.304768608126324,205.86570820596535 27.224001407710603,205.76036296446182 27.157487242657226,205.62341388735513 27.16698926623212,205.48646451277818 27.342776702455012,205.38111863758968 27.475805032561766,205.33898023822258 27.566074256552383,205.16515904314292 27.504311103286454,205.08088192757714 27.46155199719942,204.949198708935 27.452049973624526,204.812247869766 27.532817174011143,204.6752967331122 27.542319197615143,204.5278105609068 27.566074256552383,204.3908588063423 27.475805032561766,204.26970892929603 27.42829491465818,204.12748921133607 27.32377265530522,204.0379432983791 27.22875241949805,204.03267588777453 27.238254443072947,204.0379432983791 27.238254443072947,204.04321070855076 27.219250395923154,204.04321070855076 27.22875241949805,204.0379432983791 27.219250395923154,204.04321070855076 27.214499384135706,204.0484781182713 27.214499384135706,204.04321070855076 27.14323420729488,203.97473434206768 27.138483195507433,203.82724653085097 27.152736230869778,203.74296762667655 27.22875241949805,203.64288628159557 27.295266584551428,203.5638745811375 27.361780749604804,203.4953976939796 27.485307056136662,203.41111834611002 27.59933133906452,203.31630394508102 27.699102586659137,203.23729183527394 27.722857645596378,203.1424771727834 27.656343480543,203.05292986060522 27.57557628012728,202.95811492079883 27.532817174011143,202.80535721782508 27.566074256552383,202.71054190562063 27.570825268368935,202.60519139147436 27.60883336266852,202.46296791808345 27.55182122119004,202.35234943913747 27.480556044349214,202.30494146014826 27.423543902870733,202.2417307660471 27.409290867537493,202.07843617954495 27.471054020774318,201.95201427364373 27.504311103286454,201.82559211417902 27.504311103286454,201.67283166651032 27.58032729194383,201.5253384691714 27.623086398059968,201.40945071485112 27.63733943339321,201.2830274671178 27.642090445180656,201.1618716167577 27.623086398059968,201.04598319412253 27.59933133906452,200.96170057109703 27.60408235088107,200.8458117804148 27.63258842160576,200.66144281059314 27.70385359847569,200.54555346780398 27.699102586659137,200.4296639119275 27.656343480543,200.29270325294783 27.67059651593445,200.14520682580405 27.67059651593445,199.9871745565033 27.67059651593445,199.8133386025802 27.181242301594466,199.05477610122762 27.11947914835764,199.04950827416178 27.067218018637504,198.97575864889586 27.02445891255047,198.90200893732617 27.014956888975576,198.82825913945635 26.986450818250887,198.77558065954872 26.94369171213475,198.7070985698556 26.877177547081374,198.6333485438554 26.810663382027997,198.6070092279624 26.76790427591186,198.57540203432654 26.701390110887587,198.4805803583149 26.62537392223021,198.4068300672261 26.511349639302352,198.30674024840482 26.435333450644976,198.25932922610446 26.3688192855916,198.24879343853172 26.25004399084719,198.2751329041639 26.169276790431468,198.30147235880577 26.040999472112162,198.29093657827616 25.993489354208577,198.19084657536223 25.94122822454665,198.10656013381958 25.884216083068168,198.03807731704728 25.76068977653631,198.0696847801919 25.69892662327038,198.0275414924763 25.708428646845277,198.00120192334725 25.732183705782518,198.00646983805927 25.72268168220762,197.99593400818776 25.684673587908037,198.02227357953961 25.670420552545693,198.02227357953961 25.689424599695485,198.02227357953961 25.694175611482933,198.0275414924763 25.694175611482933,198.01700566615546 25.69892662327038,198.01173775231655 25.6419144817919,197.91691522813198 25.618159422825556,197.8378963489704 25.594404363888316,197.75360943531996 25.55639626958873,197.70093005703893 25.518388175260043,197.66932240892493 25.44237198663177,197.62717885343955 25.375857821607497,197.6166429601799 25.29509062116267,197.59557116834185 25.266584550437983,197.5903032192764 25.257082526833983,197.5797673198358 25.162062291055918,197.6166429601799 25.090797114215093,197.66932240892493 25.033784972736612,197.66405446603676 24.98152384304558,197.70093005703893 24.905507654417306,197.74307356318604 24.83424247757648,197.8010208381238 24.78198134788545,197.83262842017575 24.72496920643607,197.84843220525363 24.65845504135359,197.87477183824376 24.582438852725318,197.91691522813198 24.4921696287347,197.96432650804854 24.387647369352635,198.0433452286743 24.311631180724362,198.12763175477812 24.211859933129745,198.16450707448894 24.131092732714023,198.1487033686899 24.026570473331958,198.1592391730046 23.95055428473279,198.1487033686899 23.97430934367003,198.12763175477812 23.96955833188258,198.14343546586315 23.95055428473279,198.12763175477812 23.931550237553893,198.14343546586315 23.874538096104516,198.08548850581792 23.79852190744714,198.0696847801919 23.741509765968658,198.12236385020515 23.670244589156937,198.04861313985748 23.579975365108112,198.08022059771974 23.499208164721495,198.01700566615546 23.437445011455566,197.92218314987986 23.36142882279819,197.89584353671307 23.347175787435845,197.89057561274967 23.3329227520735,197.85370013272768 23.266408587020123,197.77468117430908 23.1951434101793,197.76414530569673 23.199894421966746,197.76941324022846 23.185641386604402,197.74834149946764 23.176139363029506,197.67985829338068 23.199894421966746,197.60083911695983 23.185641386604402,197.53235575055442 23.11912722152192,197.46387230972687 23.100123174401233,197.4111926892183 23.05261305649765,197.3479770864651 23.043111032922752,197.2636895174619 23.009853950381512,197.1425259395146 22.981347879656823,196.9792181396806 22.905331690999446,196.92127010898548 22.872074608516414,196.84751799281366 22.81031145522138,196.779033807652 22.78180538446759,196.68420942839657 22.720042231230764,196.59465293915855 22.68203413693118,196.5103643624243 22.66778110153973,196.48929220062564 22.6250219954527,196.48929220062564 22.644026042573387,196.49456024172832 22.64877705438994,196.49456024172832 22.629773007211043,196.4840241590755 22.639275030815043,196.4840241590755 22.65827907793573,196.4840241590755 22.70578919586842,196.39973543434826 22.691536160506075,196.41027153109826 22.6155199718487,196.41553957881843 22.629773007211043,196.4313437193232 22.620270983636146,196.4313437193232 22.629773007211043,196.43661176528622 22.629773007211043,196.43661176528622 22.629773007211043,196.4313437193232 22.63452401899849,196.41553957881843 22.639275030815043,196.42607567291998 181.0,92.34871672625741 180.90973077600938,92.40676135829563 180.81471054023132,92.46480593648448 180.81471054023132,92.46480593648448 180.81471054023132,92.46480593648448 180.7244413162407,92.52285046081306 23.090621150826337,197.3690489610999 23.128629245155025,197.49548006090117 23.185641386604402,197.5797673198358 23.176139363029506,197.68512623495553 23.180890374816954,197.81155670057342 23.228400492691435,197.9063793833011 23.285412634169916,198.01173775231655 23.294914657744812,198.14343546586315 23.313918704923708,198.2645971192469 23.33767376386095,198.4647767317947 23.36617983461474,198.62808068155937 23.380432869977085,198.74397355048131 23.385183881764533,198.9072767767393 23.36617983461474,199.04950827416178 23.37093084640219,199.14432909408788 23.280661622382468,199.23914977136883 23.090621150826337,199.244417582584 22.95759282069048,199.29182786375168 22.824564490583725,199.32870250221822 22.69628717226442,199.397183916426 22.55375681858277,199.44986187672112 22.425479500263464,199.48673642272115 22.335210276272846,199.5394143081503 22.216434981528437,199.5868243673831 22.10241069860058,199.66057327754243 22.06440260427189,199.70798324561838 22.050149568909546,199.72378656040019 22.031145521759754,199.7290543311101 21.983635403827066,199.78699977985525 21.898117191623896,199.80280307482099 21.788843920483487,199.8133386025802 21.698574696463766,199.88181949015416 21.622558507835492,199.92396153783557 21.589301425294252,200.00297780127585 21.499032201303635,200.07145848278378 21.40401196552557,200.03985202363765 21.289987682568608,200.04511976792492 21.190216435003094,200.07145848278378 21.071441140258685,200.06619074069022 20.981171916238964,200.01878104207208 20.876649656886002,200.02931653372434 20.805384480045177,200.06092299815282 20.734119303204352,200.08199396563214 20.639099067397183,200.1294036167019 20.534576808015117,200.1610100309299 20.47281365474919,200.22422281183754 20.430054548662156,200.31377414293092 20.439556572237052,200.40332534676054 20.39204645436257,200.44019933489108 20.344536336429883,200.46653788464027 20.306528242130298,200.47180559325716 20.202005982777337,200.4928764233664 20.111736758757615,200.46653788464027 19.997712475829758,200.48760871649574 19.90744325183914,200.51921495109127 19.93119831077638,200.561356572558 19.92644729895983,200.65090742460598 19.916945275414037,200.6983166477039 19.893190216447692,200.74572583516056 19.888439204660244,200.8036703491489 19.864684145723004,200.8826855096704 19.81242301603197,200.9775035715029 19.679394685925217,200.96170057109703 19.603378497296944,201.0091095604257 19.527362308639567,201.0407155334833 19.432342072861502,201.05651851408038 19.418089037499158,201.01964488653903 19.370578919595573,201.00384189669785 19.337321837054333,200.9775035715029 19.327819813479437,200.9458975667294 19.37532993138302,200.89848852986688 19.37532993138302,200.88795318351185 19.34207284884178,200.93536222828698 19.285060707392404,200.9458975667294 19.327819813479437,201.09339212004488 19.308815766329644,201.26722454332776 19.39908499032026,201.39364782275152 19.384831954957917,201.5042679842445 19.251803624851163,201.56221180085413 19.161534400860546,201.7149725166455 19.156783389073098,201.88880322560726 19.11402428295696,202.04156314985084 19.014253035391448,202.18905513919526 19.009502023604,202.38922228702722 19.123526306531858,202.42609511334012 19.142530353710754,202.5314459268193 19.152032377256546,202.63679656422028 19.09502023580717,202.80008970421477 19.166285412647994,202.88436986902525 19.280309695575852,202.95811492079883 19.418089037499158,203.010789904969 19.555868379364256,203.1372096873638 19.60812950905529,203.28469911305365 19.75541087455349,203.40058341970507 19.964455393288517,203.50066514947684 20.116487770545064,203.5375373256502 20.292275206767954,203.44799057466298 20.458560619415948,203.51646751332737 20.648601091001183,203.5586071309117 20.84814358613221,203.59021182562356 21.009677986992756,203.6112816132918 21.11420024637482,203.6112816132918 21.237726552877575,203.65342116749525 21.37075488298433,203.66395605164143 21.499032201303635,203.70082813231056 21.651064578589285,203.71663044600064 21.817349991208175,203.71663044600064 21.955129333102377,203.7693047963221 22.09765968681313,203.7851070928482 22.26394509943202,203.80090938539797 22.43973253565491,203.81144424490049 22.591764912911458,203.7587699297801 22.710540207655868,203.72716531958213 22.848319549520966,203.7693047963221 23.019355973956408,203.77457222894373 23.11912722152192,203.68502581466237 23.19039239839185,203.80617681536387 23.33767376386095,203.91152532236083 23.323420728498604,204.10115219131694 23.408938940701773,204.20123280884582 23.480204117571702,204.20123280884582 23.67974661270273,204.19069801448495 23.865036072500516,204.17489581964037 24.05507654408575,204.10115219131694 24.202357909583952,203.95893209308633 24.392398381140083,204.0010714148957 24.51117367585539,204.0906173802323 24.705965159257175,204.1222218082039 24.900756642629858,204.1222218082039 25.02903396092006,204.05901293639909 25.185817350022262,203.96946692617348 25.3568537744286,203.9431298401396 25.485131092747906,203.8430488128506 25.608657399279764,203.93786242160058 25.746436741144862,204.0379432983791 25.884216083068168,204.0484781182713 26.007742389600025,204.03267588777453 26.13601970791933,203.98526917252457 26.311807144113118,203.96419950985 26.463839521398768,203.96946692617348 26.60161886329297,203.92732758323837 26.72039415803738,203.89045563505715 26.843920464569237,203.86411851600133 27.00545486540068,203.93786242160058 27.162238254473777,203.96946692617348 27.2430054548895,204.0063388281378 27.3807847967837,204.06428034480996 27.480556044349214,204.21176760145318 27.54707020940259,204.3592545130341 27.54707020940259,204.51727582113017 27.54707020940259,204.68583144649892 27.518564138677903,204.85438662120578 27.466303008957766,205.01767401695543 27.594580327306176,205.14408977482162 27.542319197615143,205.28103989312876 27.3807847967837,205.36531674112484 27.252507478464395,205.46012806048748 27.20499736056081,205.60234477217818 27.285764561005635,205.7708974965317 27.376033784996253,205.92364801376607 27.532817174011143,206.01319124834117 27.656343480543,206.12380330374435 27.642090445180656,206.27128574239396 27.817877881403547,206.29762185585787 27.89864508184837,206.41350062436686 28.026922400167678,206.52937917992313 28.202709836361464,206.6241887487813 28.326236142893322,206.7453341015389 28.459264473000076,206.8559448724991 28.5305296498409,207.00869276101366 28.64930494458531,207.12457022269518 28.772831251117168,207.28785173908545 28.953369699098403,207.31945456438552 29.129157135321293,207.32998883596883 29.28594052439439,207.37739303629496 29.475980995979626,207.44586570719548 29.628013373236172,207.50907118356554 29.80380080942996,207.55647524926826 29.94158015132416,207.63021483618286 30.09836354039726,207.60914639157636 30.250395917653805,207.57754371146802 30.421432342089247,207.54594101551265 30.61147281367448,207.53540678000718 30.749252155568684,207.55120813261237 30.89178250922123,207.50907118356554 31.034312862931984,207.46693420634983 31.16259018125129,207.41953007334814" stroke="#4DD2FF" stroke-dasharray="none" stroke-linecap="round" stroke-linejoin="round" stroke-width="0.5"><title>2026-03-14 12.0km</title><desc>9223370263378906807</desc></polyline></svg>