<?xml version="1.0" encoding="utf-8" ?>
<svg baseProfile="full" height="300mm" version="1.1" viewBox="0,0,200,300" width="200mm" xmlns="http://www.w3.org/2000/svg" xmlns:ev="http://www.w3.org/2001/xml-events" xmlns:xlink="http://www.w3.org/1999/xlink"><defs /><rect fill="#222222" height="300" width="200" x="0" y="0" /><text fill="#FFFFFF" style="font-size:12px; font-family:Arial; font-weight:bold;" x="10" y="20">Over 10km Runs</text><text fill="#FFFFFF" style="font-size:4px; font-family:Arial" x="10" y="280">Runner</text><text fill="#FFFFFF" style="font-size:9px; font-family:Arial" x="10" y="290">yihong0618</text><text fill="#FFFFFF" style="font-size:4px; font-family:Arial" x="65" y="280">SPECIAL TRACKS</text><rect fill="yellow" height="2.6" width="2.6" x="65" y="283" /><text fill="#FFFFFF" style="font-size:3px; font-family:Arial" x="70" y="285.5">Over 20.0 km</text><rect fill="red" height="2.6" width="2.6" x="65" y="287" /><text fill="#FFFFFF" style="font-size:3px; font-family:Arial" x="70" y="289.5">Over 40.0 km</text><text fill="#FFFFFF" style="font-size:4px; font-family:Arial" x="120" y="280">STATISTICS</text><text fill="#FFFFFF" style="font-size:3px; font-family:Arial" x="120" y="285">Number: 1</text><text fill="#FFFFFF" style="font-size:3px; font-family:Arial" x="120" y="290">Weekly: 1.0</text><text fill="#FFFFFF" style="font-size:3px; font-family:Arial" x="141" y="285">Total: 12.0 km</text><text fill="#FFFFFF" style="font-size:3px; font-family:Arial" x="141" y="290">Avg: 12.0 km</text><text fill="#FFFFFF" style="font-size:3px; font-family:Arial" x="167" y="285">Min: 12.0 km</text><text fill="#FFFFFF" style="font-size:3px; font-family:Arial" x="167" y="290">Max: 12.0 km</text><polyline fill="none" opacity="1" points="31.357381664623972,207.232550448829 31.267112440633355,207.22728333702253 31.18159422840108,207.09560539873564 31.062818933656672,207.0745369031065 30.953545662516262,207.12194100838315 30.849023403134197,207.16934507805854 30.7112440612691,207.2062148853729 30.625725849036826,207.15354372545335 30.497448530746624,207.1588108434371 30.364420200581662,207.1588108434371 30.20288579975022,207.16934507805854 30.069857469643466,207.24308467113224 29.932078127749264,207.2536188916747 29.784796762280166,207.1588108434371 29.642266408598516,207.1272081290117 29.504487066704314,207.09560539873564 29.36195671299356,207.0429341464369 29.205173323949566,206.99026285012587 29.057891958480468,206.9375915098317 28.93436565194861,206.948125781415 28.620798873831518,206.88492012552524 28.635051909222966,206.83751584203492 28.563786732353037,206.67950130634927 28.478268520149868,206.62682970645983 28.41650536688394,206.43721158252447 28.283477036777185,206.326600746881 28.235966918902704,206.2791960436225 28.11719162412919,206.23179130473363 28.01266936477623,206.16858493077598 27.889143058244372,206.1001112874801 27.874890022882028,205.99476707566282 27.779869787103962,205.93682768413782 27.623086398059968,205.9315604640833 27.623086398059968,205.7366730128524 27.54707020940259,205.6523971716888 27.418792891083285,205.61552645575648 27.319021643488668,205.5049141785894 27.2335034312855,205.39430170736523 27.157487242657226,205.25735266457923 27.16698926623212,205.0940668786243 27.357029737817356,204.99398828465564 27.504311103286454,204.92551336566248 27.561323244764935,204.7516920834605 27.456800985411974,204.66214759953073 27.480556044349214,204.50939495104103 27.485307056136662,204.34610722787693 27.542319197615143,204.19335381362907 27.57557628012728,204.05113478489147 27.471054020774318,203.92471760109765 27.437796938233078,203.76142836350482 27.333274678880116,203.65608024382527 27.22875241949805,203.6508128332207 27.247756466676947,203.65608024382527 27.2335034312855,203.66134765399693 27.224001407710603,203.66134765399693 27.224001407710603,203.66134765399693 27.20974837234826,203.66661506371747 27.214499384135706,203.67188247299418 27.214499384135706,203.66661506371747 27.133732183719985,203.48752288614196 27.152736230869778,203.37690687522627 27.214499384135706,203.2662906702135 27.295266584551428,203.18201152658366 27.366531761421356,203.11353463942578 27.504311103286454,203.01345290129393 27.627837409818312,202.90283605849982 27.71810663380893,202.83435886806183 27.71810663380893,202.72900919905078 27.59933133906452,202.63419434641764 27.55182122119004,202.50250681447142 27.556572232977487,202.37081900743578 27.58032729194383,202.2602010368937 27.589829315518728,202.10744256800172 27.570825268368935,201.9810214861718 27.475805032561766,201.92834596057946 27.414041879295837,201.8546001507966 27.399788843933493,201.649164940005 27.485307056136662,201.55434846302524 27.49005806792411,201.40685588202177 27.518564138677903,201.2330248970211 27.60408235088107,201.10133443770246 27.618335386243416,200.9485731601817 27.656343480543,200.81688210653374 27.618335386243416,200.70099375169957 27.60883336266852,200.5798375165432 27.594580327306176,200.47448407928096 27.623086398059968,200.29011514029116 27.70385359847569,200.15842271079237 27.699102586659137,200.0267300061314 27.661094492359553,199.87923385020258 27.665845504147,199.72120187151086 27.684849551296793,199.48415316046157 27.67059651593445,199.42094002026715 27.157487242657226,198.68871652526286 27.076720042241504,198.64130607763946 27.03871194794192,198.53594939967297 27.019707900763024,198.4516639304602 26.991201830038335,198.40425330451035 26.953193735709647,198.31996765915756 26.877177547081374,198.25148548930156 26.801161358482204,198.21987830890066 26.753651240549516,198.16719963962896 26.68238606370869,198.0776458008404 26.568361780780833,197.9828239504459 26.48284356854856,197.8721982779898 26.406827379891183,197.85639459463346 26.292803096963326,197.8880019573662 26.193031849368708,197.91960930425194 26.064754531078506,197.91960930425194 25.998240365996026,197.8300551135835 25.945979236334097,197.73523289062723 25.884216083068168,197.65621426249345 25.741685729357414,197.6983575431659 25.708428646845277,197.63514261160162 25.71317965866183,197.61407095363393 25.71317965866183,197.62987469776272 25.694175611482933,197.66148217412047 25.679922576091485,197.62987469776272 25.684673587908037,197.64041052498578 25.694175611482933,197.65094635041896 25.684673587908037,197.64041052498578 25.69892662327038,197.62987469776272 25.6419144817919,197.53505217357815 25.618159422825556,197.45603329441656 25.58490234031342,197.35594257191042 25.542143234197283,197.3190670024851 25.49938412811025,197.28219141148293 25.423367939481977,197.23477990562606 25.342600739037152,197.24004785247598 25.28558859755867,197.20317221522782 25.257082526833983,197.20317221522782 25.18106633820571,197.2453157988857 25.105050149577437,197.2716555243751 25.043286996311508,197.29272729681543 24.97677283125813,197.3137990622272 24.905507654417306,197.3612105086322 24.829491465789033,197.4296936460196 24.772479324310552,197.44549743637617 24.710716171044623,197.48237293183047 24.653704029566143,197.49817670897028 24.534928734850837,197.55612385795757 24.43040647546877,197.59299928864857 24.354390286811395,197.70889335892934 24.23561499209609,197.77737611845077 24.150096779863816,197.77737611845077 24.036072496935958,197.7826440199351 23.95055428473279,197.76684031413606 23.964807320095133,197.74050079565131 23.96955833188258,197.76157241130932 23.96955833188258,197.75630450804965 23.9125461904041,197.7457687002243 23.85078303713817,197.68255381620838 23.789019883872243,197.7036254512641 23.693999648094177,197.6983575431659 23.6179834594368,197.66675008530365 23.527714235446183,197.66675008530365 23.44219602321391,197.56139177794103 23.36617983461474,197.5192484056788 23.347175787435845,197.50344463380316 23.328171740286052,197.4665691506998 23.261657575232675,197.38755018567463 23.19039239839185,197.40862191935958 23.1951434101793,197.39281811975525 23.171388351242058,197.35594257191042 23.185641386604402,197.25585169039914 23.1951434101793,197.18736836407334 23.13338025691337,197.11361700634734 23.104874186159577,197.0451335254511 23.062115080072545,196.97664997011088 23.043111032922752,196.89236241519393 23.009853950381512,196.76593087144647 22.981347879656823,196.59735508512676 22.900580679212,196.51833503005037 22.838817525975173,196.45511891461865 22.80556044340483,196.38663471799737 22.76755234913435,196.2707382157023 22.68203413693118,196.17064561034204 22.66778110153973,196.10216110452166 22.629773007211043,196.10216110452166 22.63452401899849,196.1074291460718 22.644026042573387,196.1126971871745 22.629773007211043,196.10216110452166 22.639275030815043,196.10216110452166 22.65827907793573,196.10216110452166 22.70578919586842,196.02840847654443 22.691536160506075,196.04948066476936 22.606017948273802,196.03894457153 22.6250219954527,196.05474871073238 22.620270983636146,196.0652848013233 22.6250219954527,196.04948066476936 22.6250219954527,196.04948066476936 22.629773007211043,196.03894457153 22.63452401899849,196.04948066476936 22.629773007211043,196.03894457153 180.90973077600938,92.0248983037418 180.81471054023132,92.08294288193065 180.81471054023132,92.08294288193065 180.81471054023132,92.08294288193065 180.62942108043353,92.19903187672753 23.104874186159577,197.01352573992335 23.161886327638058,197.13468883165478 23.180890374816954,197.2453157988857 23.19039239839185,197.37174638076613 23.209396445541643,197.49817670897028 23.280661622382468,197.60353512203073 23.299665669561364,197.75630450804965 23.313918704923708,197.87746617155062 23.342424775648396,198.0881815531866 23.375681858189637,198.26202121260212 23.39468590533943,198.38318190374048 23.380432869977085,198.5728242569894 23.380432869977085,198.715055647408 23.356677811039845,198.80987639601153 23.176139363029506,198.86255452803016 23.009853950381512,198.90469700193353 22.862572584912414,198.93103603382406 22.710540207655868,198.99951746520674 22.568009853945114,199.057463233632 22.425479500263464,199.10487336816732 22.3209572408814,199.1628190397205 22.202181946166093,199.2154968767063 22.09290867499658,199.2839779989772 22.050149568909546,199.34192350584635 22.054900580696994,199.33665573470353 22.01689248639741,199.3629945860339 21.931374274165137,199.41567225571998 21.822101002995623,199.42094002026715 21.727080767217558,199.47888540120766 21.636811543197837,199.53156297400346 21.589301425294252,199.61584699889863 21.513285236695083,199.679059943599 21.40401196552557,199.65798896908382 21.270983635418816,199.66852445721815 21.161710364249302,199.69486316987604 21.052437093108892,199.67379220063594 20.947914833726827,199.64218573356266 20.829139538982417,199.67379220063594 20.76262537392904,199.68959542822995 20.67710716172587,199.74754056214806 20.56308287876891,199.76861150673358 20.487066690140637,199.8212888373564 20.430054548662156,199.9213756442623 20.439556572237052,200.01092686308039 20.38729544254602,200.05833628033724 20.344536336429883,200.08994253870333 20.282773183193058,200.08994253870333 20.168748900236096,200.1057456619419 20.064226640883135,200.08467483008644 19.940700334351277,200.12681648676516 19.92169628717238,200.15842271079237 19.935949322534725,200.2374382015114 19.92644729895983,200.31118590346523 19.893190216447692,200.35859509487273 19.888439204660244,200.42180729459506 19.864684145723004,200.49028710609127 19.802920992457075,200.60090818287426 19.679394685925217,200.59564051694906 19.593876473722048,200.61671117797596 19.49410522612743,200.67992311883427 19.427591061074054,200.6641201395687 19.38958296677447,200.61671117797596 19.36582790777902,200.6114435133859 19.31831778990454,200.56930218075286 19.35157487244578,200.5429638335263 19.370578919595573,200.50609012895802 19.332570825266885,200.5429638335263 19.2945627309673,200.56403451217557 19.332570825266885,200.71679672172468 19.313566778117092,200.9116996928933 19.41333802571171,201.04339054843513 19.34207284884178,201.13294017303997 19.223297554126475,201.24356012188218 19.152032377256546,201.43319386822623 19.17578743622289,201.5806863876096 19.047510117903585,201.74924884428765 19.014253035391448,201.93888106922532 19.099771247594617,202.02316187495308 19.156783389073098,202.1390477988425 19.152032377256546,202.23913092527437 19.08551821220317,202.42876167643044 19.190040471585235,202.51830933284145 19.313566778117092,202.5867868666137 19.460848143615294,202.64999683174028 19.560619391180808,202.82382390906787 19.69364772128756,202.96604570671843 19.864684145723004,203.0871973553185 20.059475629066583,203.16094172306475 20.230512053502025,203.0713949795645 20.42055252508726,203.11353463942578 20.629597043822287,203.16620917460023 20.81963751540752,203.2030813230558 21.009677986992756,203.22941855873796 21.133204293524614,203.2452208948671 21.261481611814816,203.27155811294142 21.423016012646258,203.28736043851313 21.560795354569564,203.31896507775673 21.731831779005006,203.32423251609725 21.898117191623896,203.35056970116057 22.026394509943202,203.37690687522627 22.202181946166093,203.41904633084414 22.401724441326223,203.42958119034665 22.582262889336562,203.38217430872464 22.70578919586842,203.3400348284522 22.857821573124966,203.38744174176827 23.024106985743856,203.38217430872464 23.128629245155025,203.31896507775673 23.233151504478883,203.42958119034665 23.351926799223293,203.59813870295693 23.39468590533943,203.75089355947057 23.437445011455566,203.8878458747422 23.608481435861904,203.77723056626928 23.808023931022035,203.80356756208494 24.036072496935958,203.74562615678224 24.183353862405056,203.59287128751384 24.382896357565187,203.60340611797074 24.51592468767194,203.71402173144816 24.739222241798416,203.74035875365007 24.91976068977965,203.7192891367631 25.081295090611093,203.65608024382527 25.24282949147164,203.5770690385325 25.423367939481977,203.49805773420303 25.546894246013835,203.50859258050332 25.71317965866183,203.60340611797074 25.836705965164583,203.65608024382527 25.993489354208577,203.66661506371747 26.10751363716554,203.6086735325407 26.297554108750774,203.58233645529617 26.463839521398768,203.58760387161965 26.62537392223021,203.5401971088395 26.748900228762068,203.49805773420303 26.900932606018614,203.5033251575842 27.057715995091712,203.5770690385325 27.185993313411018,203.6139409466632 27.333274678880116,203.6455454221832 27.456800985411974,203.7719631657892 27.504311103286454,203.95632192081757 27.566074256552383,204.09854116345014 27.55182122119004,204.28816632119924 27.518564138677903,204.4619888814268 27.466303008957766,204.6358109624016 27.594580327306176,204.77802867217179 27.504311103286454,204.9360479734387 27.342776702455012,204.9781863868775 27.22875241949805,205.14147247295477 27.219250395923154,205.31002540854024 27.333274678880116,205.46277611720143 27.480556044349214,205.61025920886823 27.642090445180656,205.69453510635867 27.627837409818312,205.85255211051845 27.794122822466306,205.91575880130404 27.89864508184837,206.0263703576893 28.036424423742574,206.15278332739035 28.21696287172381,206.2581272751886 28.359493225434562,206.3792725975727 28.478268520149868,206.5056848597269 28.597043814894278,206.66369983100594 28.692064050701447,206.83751584203492 28.867851486895233,206.94285864583435 29.062642970267916,206.94285864583435 29.247932430065703,206.98499571808134 29.437972901650937,207.06400265264165 29.604258314269828,207.12194100838315 29.80380080942996,207.17461219471443 29.94158015132416,207.24835178162903 30.112616575759603,207.21674911208174 30.283653000195045,207.1956806569142 30.483195495355176,207.16407796095882 30.67323596694041,207.1588108434371 30.825268344196957,207.1482766070476 30.986802745057503,207.09560539873564 31.105578039801912,207.03239989069334 31.252859405241907,207.09033827549138 31.381136723561212,207.19041354200817 31.518916065455414,207.22728333702253 31.55217314796755,207.37476230142784 31.61868731305003,207.51697383328792 31.73746260779444,207.63284965914863 31.82773183178506,207.7908618057918 31.913250043988228,207.77506060895394 31.979764209041605,207.73819113424906 31.979764209041605,207.6486508916314 32.051029385911534,207.73292406466499 32.131796586327255,207.84879949369497 32.23156783389277,207.96467470978678 32.35034312863718,208.0278792833633 32.54038360022241,207.99627700448764 32.51662854128517,207.98047585913082 32.56413865915965,207.97520880978482" stroke="#4DD2FF" stroke-dasharray="none" stroke-linecap="round" stroke-linejoin="round" stroke-width="0.5"><title>2026-03-14 12.0km</title><desc>9223370263378906807</desc></polyline></svg>