<?xml version="1.0" encoding="utf-8" ?>
<svg baseProfile="full" height="300mm" version="1.1" viewBox="0,0,200,300" width="200mm" xmlns="http://www.w3.org/2000/svg" xmlns:ev="http://www.w3.org/2001/xml-events" xmlns:xlink="http://www.w3.org/1999/xlink"><defs /><rect fill="#222222" height="300" width="200" x="0" y="0" /><text fill="#FFFFFF" style="font-size:12px; font-family:Arial; font-weight:bold;" x="10" y="20">Over 10km Runs</text><text fill="#FFFFFF" style="font-size:4px; font-family:Arial" x="10" y="280">Runner</text><text fill="#FFFFFF" style="font-size:9px; font-family:Arial" x="10" y="290">yihong0618</text><text fill="#FFFFFF" style="font-size:4px; font-family:Arial" x="65" y="280">SPECIAL TRACKS</text><rect fill="yellow" height="2.6" width="2.6" x="65" y="283" /><text fill="#FFFFFF" style="font-size:3px; font-family:Arial" x="70" y="285.5">Over 20.0 km</text><rect fill="red" height="2.6" width="2.6" x="65" y="287" /><text fill="#FFFFFF" style="font-size:3px; font-family:Arial" x="70" y="289.5">Over 40.0 km</text><text fill="#FFFFFF" style="font-size:4px; font-family:Arial" x="120" y="280">STATISTICS</text><text fill="#FFFFFF" style="font-size:3px; font-family:Arial" x="120" y="285">Number: 1</text><text fill="#FFFFFF" style="font-size:3px; font-family:Arial" x="120" y="290">Weekly: 1.0</text><text fill="#FFFFFF" style="font-size:3px; font-family:Arial" x="141" y="285">Total: 12.0 km</text><text fill="#FFFFFF" style="font-size:3px; font-family:Arial" x="141" y="290">Avg: 12.0 km</text><text fill="#FFFFFF" style="font-size:3px; font-family:Arial" x="167" y="285">Min: 12.0 km</text><text fill="#FFFFFF" style="font-size:3px; font-family:Arial" x="167" y="290">Max: 12.0 km</text><polyline fill="none" opacity="1" points="30.164877705450635,207.37739403084925 30.055604434281122,207.46693495407453 29.91782509238692,207.4616678444654 29.784796762280166,207.3668597962278 29.647017420385964,207.34052420195803 29.5424951610039,207.2931201045867 29.3952137955348,207.27731873089215 29.2574344536406,207.21411319643812 29.129157135321293,207.15090759862505 28.986626781639643,207.1456404626224 28.863100475107785,207.18251040545147 28.65405595637276,207.0877019374675 28.606545838469174,206.9770918779759 28.544782685203245,206.88228310113482 28.435509414062835,206.79274134765 28.41175435509649,206.63472617837033 28.283477036777185,206.53464969967172 28.235966918902704,206.49251218741483 28.13144465952064,206.445107452495 28.041175435530022,206.3819010838124 27.89864508184837,206.35556507816 27.851134963944787,206.2449537342909 27.851134963944787,206.12380775409474 27.71810663380893,206.16067829445456 27.59933133906452,206.0764027419391 27.618335386243416,205.90258405914938 27.518564138677903,205.85517888066897 27.399788843933493,205.81830816165893 27.31427063170122,205.7024286186679 27.2335034312855,205.60235066015593 27.157487242657226,205.47593616967424 27.162238254473777,205.33371956492192 27.328523667092668,205.2125718337811 27.456800985411974,205.1757007389424 27.566074256552383,205.01241420268707 27.52331515046535,204.91233514883425 27.452049973624526,204.79645394063482 27.456800985411974,204.65950314725706 27.5280661622528,204.51728470076705 27.537568185827695,204.3697985655308 27.570825268368935,204.2381142246486 27.471054020774318,204.1222317771244 27.437796938233078,203.96947731629552 27.35227872602991,203.86939660678763 27.224001407710603,203.86412919661598 27.22875241949805,203.86412919661598 27.2430054548895,203.86939660678763 27.214499384135706,203.87466401650818 27.22875241949805,203.86412919661598 27.219250395923154,203.86939660678763 27.214499384135706,203.87466401650818 27.214499384135706,203.86939660678763 27.157487242657226,203.8219898994539 27.133732183719985,203.6797695635505 27.152736230869778,203.57968839408568 27.214499384135706,203.4743396230042 27.29051557276398,203.39532792915998 27.35227872602991,203.33738595738032 27.471054020774318,203.26364155266856 27.58032729194383,203.16882719123532 27.689600563113345,203.0740126872115 27.72760865741293,202.97919804056437 27.67059651593445,202.88438325130846 27.58032729194383,202.8106383166305 27.537568185827695,202.65261316605756 27.566074256552383,202.5525303658069 27.57557628012728,202.45244740663838 27.594580327306176,202.30495644031907 27.570825268368935,202.18907043896252 27.480556044349214,202.14166246791865 27.437796938233078,202.07845178437128 27.40453985572094,201.94149508590272 27.456800985411974,201.78346775636237 27.504311103286454,201.6675807962165 27.504311103286454,201.52535559937678 27.566074256552383,201.37259484530296 27.623086398059968,201.25670712973078 27.63258842160576,201.119748645684 27.64684145699721,201.00386046519634 27.618335386243416,200.88797207162497 27.60408235088107,200.7878864693339 27.594580327306176,200.68253303207166 27.60883336266852,200.50869947554384 27.699102586659137,200.39281017151006 27.699102586659137,200.26638523312795 27.656343480543,200.13469231932322 27.675347527721897,199.99246366333318 27.661094492359553,199.82916369951272 27.675347527721897,199.64479226404364 27.20499736056081,198.87042634487807 27.11947914835764,198.8809619994645 27.067218018637504,198.82301587745678 27.03871194794192,198.72819483556304 27.014956888975576,198.65444503769322 26.991201830038335,198.61230225730105 26.957944747497095,198.53855232379647 26.905683617835166,198.47007016539283 26.820165405602893,198.43846299025972 26.763153264124412,198.39632006541797 26.70614112264593,198.31730200538004 26.63012493401766,198.23828384626904 26.516100651060697,198.14872981281223 26.440084462432424,198.08024723078051 26.387823332770495,198.06444354742416 26.27379904978443,198.10131880240078 26.178778814006364,198.12765825704264 26.05525250750361,198.12239036699248 25.998240365996026,198.03810406637422 25.950730248121545,197.9380139379682 25.888967094855616,197.86953112691117 25.774942811898654,197.88533485914377 25.69892662327038,197.85372739071317 25.708428646845277,197.83265573629615 25.741685729357414,197.82738782158413 25.72268168220762,197.82211990642463 25.69892662327038,197.8484594777765 25.66566954072914,197.8484594777765 25.69892662327038,197.8484594777765 25.694175611482933,197.85372739071317 25.684673587908037,197.8484594777765 25.69892662327038,197.83792365055342 25.656167517154245,197.76944073073173 25.618159422825556,197.66935017557626 25.603906387492316,197.59559913846533 25.55639626958873,197.5271159552758 25.527890198864043,197.5113121331924 25.447122998419218,197.4744365329425 25.390110856940737,197.42175706657872 25.304592644737568,197.42175706657872 25.266584550437983,197.41648911751327 25.26183353862143,197.40595321807268 25.176315326418262,197.45336475167642 25.10029913778999,197.49024036427363 25.043286996311508,197.50077624960613 24.97677283125813,197.5218480150179 24.915009677992202,197.56925946142292 24.83424247757648,197.62193880448467 24.78198134788545,197.65881431841262 24.734471229981864,197.66935017557626 24.663206053170143,197.70095773648063 24.587189864512766,197.74310112636886 24.501671652309597,197.79051240628542 24.40190040471498,197.85372739071317 24.325884216086706,197.94328184341794 24.226112968521193,197.98542507124148 24.140594756318023,197.98542507124148 24.036072496935958,197.9906929727258 23.955305296491133,197.96962136410002 23.964807320095133,197.94854974844202 23.964807320095133,197.94854974844202 23.95055428473279,197.953817653015 23.94105226112879,197.98542507124148 23.884040119679412,197.9222102189342 23.812774942809483,197.8906027689991 23.755762801360106,197.9380139379682 23.67974661270273,197.88006694884825 23.589477388712112,197.8906027689991 23.51346120008384,197.85372739071317 23.437445011455566,197.76417281074828 23.36617983461474,197.7272973584695 23.356677811039845,197.70622566176098 23.342424775648396,197.69042188462117 23.266408587020123,197.6061350061791 23.199894421966746,197.5903312039336 23.199894421966746,197.59559913846533 23.19039239839185,197.57979533355683 23.176139363029506,197.5218480150179 23.199894421966746,197.43229296336722 23.1951434101793,197.36380960268798 23.123878233338473,197.29532616759752 23.104874186159577,197.24791451507917 23.057364068285096,197.17943095403098 23.043111032922752,197.10041136798463 23.009853950381512,196.97924781028632 22.98609889144427,196.80540403791747 22.914833714603446,196.75272401220718 22.881576632062206,196.6684358794555 22.81031145522138,196.6157557392362 22.796058419859037,196.52619939975193 22.724793243018212,196.4313749015637 22.67253211332718,196.34708633892296 22.663030089752283,196.31021005731236 22.6250219954527,196.31021005731236 22.644026042573387,196.3207461399652 22.644026042573387,196.3207461399652 22.629773007211043,196.31021005731236 22.639275030815043,196.31021005731236 22.653528066177387,196.3154780988625 22.70578919586842,196.22592133258513 22.691536160506075,196.23645742933513 22.620270983636146,196.23645742933513 22.629773007211043,196.25752961756007 22.620270983636146,196.25752961756007 22.639275030815043,196.2627976635231 22.629773007211043,196.2627976635231 22.629773007211043,196.25752961756007 22.629773007211043,196.24699352432071 22.639275030815043,196.25226157115685 22.629773007211043,196.24699352432071 180.90973077600938,92.2329472565325 180.81471054023132,92.29099183472135 180.81471054023132,92.29099183472135 180.81471054023132,92.29099183472135 180.7244413162407,92.34903635904993 23.08587013903889,197.18996689131745 23.11912722152192,197.3058620855336 23.185641386604402,197.37961346176598 23.171388351242058,197.50077624960613 23.185641386604402,197.61667087215028 23.223649480903987,197.72202943494995 23.280661622382468,197.82211990642463 23.299665669561364,197.96435346084036 23.313918704923708,198.08024723078051 23.3329227520735,198.26989112180308 23.351926799223293,198.42792726169137 23.380432869977085,198.54382017904572 23.38993489355198,198.71239131472248 23.36617983461474,198.86515851693184 23.380432869977085,198.95997935272317 23.313918704923708,199.06006785793943 23.114376209763577,199.07060348082086 22.98609889144427,199.12328156880903 22.838817525975173,199.14962059627214 22.701038184051868,199.2128342173164 22.568009853945114,199.2655121864227 22.43973253565491,199.30238673858548 22.34946331163519,199.36033241981204 22.23068801689078,199.41301026561996 22.111912722175475,199.4656880673865 22.078655639634235,199.52890137139548 22.050149568909546,199.54997245863706 22.050149568909546,199.55524022934696 21.99313742740196,199.60265014592005 21.91237022698624,199.62898897305786 21.798345944058383,199.6342567371612 21.71282773182611,199.697469872066 21.62730951962294,199.74487968164613 21.589301425294252,199.82389595168934 21.513285236695083,199.8871088963897 21.418265000887914,199.86603792187452 21.313742741534952,199.86603792187452 21.19496744676144,199.8923766389271 21.08569417562103,199.89764438102065 20.995424951601308,199.84496694030895 20.886151680460898,199.8555024319612 20.805384480045177,199.8871088963897 20.743621326779248,199.908179863869 20.658103114546975,199.95032177768007 20.558331866952358,199.98192819455653 20.47281365474919,200.03987325099297 20.430054548662156,200.129424597053 20.4443075840245,200.21370810063308 20.396797466120915,200.26638523312795 20.349287348246435,200.2874560738128 20.311279253917746,200.29799149149403 20.21625901813968,200.31906232160327 20.121238782361615,200.29799149149403 19.997712475829758,200.31379461473261 19.90744325183914,200.34540084932814 19.93119831077638,200.38754247079487 19.92644729895983,200.46129024055335 19.916945275414037,200.52450254594078 19.893190216447692,200.57191173339743 19.888439204660244,200.62985624738576 19.864684145723004,200.68780070811044 19.81717402781942,200.7878864693339 19.69364772128756,200.79315413656514 19.603378497296944,200.83529545866259 19.536864332243567,200.85109844717226 19.451346120011294,200.88270441231725 19.41333802571171,200.8458307847759 19.370578919595573,200.82476013076666 19.34207284884178,200.80895713566497 19.31831778990454,200.77735113354356 19.35632588423323,200.76154812652385 19.361076896020677,200.70887140790728 19.332570825266885,200.751012786317 19.2945627309673,200.77208346496627 19.327819813479437,200.89850738894165 19.299313742725644,201.0723398703194 19.384831954957917,201.20929845738647 19.38958296677447,201.32518626013552 19.26130564842606,201.37259484530296 19.17578743622289,201.52008799333635 19.156783389073098,201.70445394300623 19.137779341894202,201.84141115652892 19.023755058966344,201.99943834081205 19.004751011787448,202.1943379891054 19.11402428295696,202.2417459205426 19.156783389073098,202.34709675163322 19.152032377256546,202.44717987806507 19.104522259382065,202.60520554363393 19.156783389073098,202.71055576726212 19.25655463663861,202.77903331820198 19.40383600210771,202.83170830677045 19.541615344031015,202.9528606134154 19.598627485480392,203.08981511445745 19.741157839191146,203.22150185408464 19.92644729895983,203.32158359221648 20.09748372339527,203.37425812739093 20.273271159589058,203.27417647289985 20.430054548662156,203.33211850276712 20.629597043822287,203.37425812739093 20.79588245647028,203.4058628273815 20.981171916238964,203.42166517144142 21.095196199195925,203.42693261857494 21.209220482123783,203.48487450803077 21.35650184765109,203.49540939130384 21.48477916594129,203.52701403054743 21.636811543197837,203.5428163442375 21.803096955874935,203.5375489067883 21.931374274165137,203.58495582801697 22.078655639634235,203.61129299108507 22.249692064069677,203.62709528363484 22.41122646490112,203.63763014313736 22.582262889336562,203.59022326151535 22.69628717226442,203.5428163442375 22.83406651415862,203.59549069455898 23.005102938594064,203.61656042237155 23.09537216258468,203.51121171289924 23.161886327638058,203.61656042237155 23.323420728498604,203.72190895578024 23.318669716682052,203.88519883463596 23.404187928914325,203.98527951906 23.456449058605358,204.04848829052935 23.660742565552937,204.01161651487564 23.841281013563275,204.00108171787724 24.050325532298302,203.93787289887405 24.183353862405056,203.80092024030455 24.37339433399029,203.80092024030455 24.4921696287347,203.91153587225563 24.686961112107383,203.95367510957294 24.886503607267514,203.95367510957294 25.00527890198282,203.89046624304683 25.162062291055918,203.81145507076144 25.33309871549136,203.774583156468 25.470878057385562,203.6639672841884 25.599155375675764,203.74297864134132 25.732183705782518,203.8430595515456 25.874714059464168,203.86939660678763 25.993489354208577,203.87466401650818 26.10751363716554,203.8167224853314 26.27855006160098,203.79038540808688 26.44958648600732,203.81145507076144 26.59686785150552,203.75351348147524 26.70614112264593,203.72190895578024 26.824916417419445,203.6903044142382 26.995952841825783,203.75878090088008 27.138483195507433,203.79565282441035 27.22875241949805,203.82725731313258 27.376033784996253,203.8799314257849 27.485307056136662,204.01688391272182 27.532817174011143,204.17490564332184 27.556572232977487,204.32239223450233 27.55182122119004,204.49621527398995 27.518564138677903,204.65950314725706 27.46155199719942,204.8227905975764 27.594580327306176,204.94920639767588 27.54707020940259,205.09142386980966 27.40453985572094,205.19150263936172 27.26676051382674,205.25997749542512 27.214499384135706,205.40219426651674 27.26200950203929,205.57074706129424 27.35227872602991,205.72876489713963 27.504311103286454,205.82357540854719 27.651592468784656,205.92365301592508 27.627837409818312,206.0816699672796 27.794122822466306,206.12380775409474 27.89864508184837,206.21861767145674 28.01266936477623,206.34503067281912 28.183705789211672,206.43984025752434 28.311983107530978,206.55571844522274 28.44976244942518,206.6715964199575 28.51152560269111,206.82434433399612 28.644553932797862,206.93495466142485 28.753827203938272,207.10350335871408 28.93911666373606,207.1456404626224 29.105402076384053,207.1456404626224 29.276438500819495,207.19304467087204 29.45697694880073,207.266784479536 29.604258314269828,207.32998996117385 29.780045750463614,207.37212691374953 29.927327115961816,207.45113362392294 30.084110505034914,207.45113362392294 30.23614288229146,207.39846249479888 30.40242829491035,207.3668597962278 30.58771775473724,207.3668597962278 30.739750131964684,207.37739403084925 30.87277846210054,207.34579132169893 31.015308815753087,207.29838722828208 31.138835122284945,207.24044884348405 31.2718634523917,207.31945571864708 31.381136723561212,207.39319537948177 31.518916065455414,207.43533228981323 31.556924159784103,207.5617428518599 31.609185289475136,207.6986873414171 31.70895653704065,207.81983029580442" stroke="#4DD2FF" stroke-dasharray="none" stroke-linecap="round" stroke-linejoin="round" stroke-width="0.5"><title>2026-03-14 12.0km</title><desc>9223370263378906807</desc></polyline></svg>