<?xml version="1.0" encoding="utf-8" ?>
<svg baseProfile="full" height="300mm" version="1.1" viewBox="0,0,200,300" width="200mm" xmlns="http://www.w3.org/2000/svg" xmlns:ev="http://www.w3.org/2001/xml-events" xmlns:xlink="http://www.w3.org/1999/xlink"><defs /><rect fill="#222222" height="300" width="200" x="0" y="0" /><text fill="#FFFFFF" style="font-size:12px; font-family:Arial; font-weight:bold;" x="10" y="20">Over 10km Runs</text><text fill="#FFFFFF" style="font-size:4px; font-family:Arial" x="10" y="280">Runner</text><text fill="#FFFFFF" style="font-size:9px; font-family:Arial" x="10" y="290">yihong0618</text><text fill="#FFFFFF" style="font-size:4px; font-family:Arial" x="65" y="280">SPECIAL TRACKS</text><rect fill="yellow" height="2.6" width="2.6" x="65" y="283" /><text fill="#FFFFFF" style="font-size:3px; font-family:Arial" x="70" y="285.5">Over 20.0 km</text><rect fill="red" height="2.6" width="2.6" x="65" y="287" /><text fill="#FFFFFF" style="font-size:3px; font-family:Arial" x="70" y="289.5">Over 40.0 km</text><text fill="#FFFFFF" style="font-size:4px; font-family:Arial" x="120" y="280">STATISTICS</text><text fill="#FFFFFF" style="font-size:3px; font-family:Arial" x="120" y="285">Number: 1</text><text fill="#FFFFFF" style="font-size:3px; font-family:Arial" x="120" y="290">Weekly: 1.0</text><text fill="#FFFFFF" style="font-size:3px; font-family:Arial" x="141" y="285">Total: 12.0 km</text><text fill="#FFFFFF" style="font-size:3px; font-family:Arial" x="141" y="290">Avg: 12.0 km</text><text fill="#FFFFFF" style="font-size:3px; font-family:Arial" x="167" y="285">Min: 12.0 km</text><text fill="#FFFFFF" style="font-size:3px; font-family:Arial" x="167" y="290">Max: 12.0 km</text><polyline fill="none" opacity="1" points="30.126869611121947,207.41426373718423 30.00334330459009,207.48273619645988 29.87981699805823,207.45640064400504 29.727784620801685,207.38266103861315 29.613760337844724,207.35105832418776 29.475980995979626,207.32472271673032 29.352454689418664,207.2562500858694 29.205173323949566,207.21411304530193 29.07689600563026,207.16144170500775 28.953369699098403,207.1667088410104 28.739574168575928,207.13510601835878 28.64930494458531,207.11403746111682 28.563786732353037,206.94022159528686 28.525778638053453,206.88228286684534 28.41650536688394,206.74006939864194 28.36899524900946,206.64526024161387 28.264472989627393,206.51884781051922 28.221713883511256,206.48197747036465 28.098187577008503,206.4451071086478 28.003167341201333,206.39243512595203 27.889143058244372,206.32396148265616 27.87013901109458,206.22388448560378 27.794122822466306,206.15014343877192 27.665845504147,206.1712123180987 27.613584374455968,206.0184627834824 27.59933133906452,205.88151461024245 27.49005806792411,205.86044563410542 27.366531761421356,205.79723866347194 27.304768608126324,205.6813590527163 27.20499736056081,205.59181557124975 27.157487242657226,205.43906463291205 27.185993313411018,205.27051144383222 27.366531761421356,205.20730388174707 27.504311103286454,205.14936356083854 27.55182122119004,204.98080959726576 27.485307056136662,204.901799771691 27.471054020774318,204.75958183614785 27.442547950020526,204.61209623080504 27.532817174011143,204.49094708257326 27.561323244764935,204.3434608487587 27.542319197615143,204.21177641985196 27.49005806792411,204.08009171588856 27.399788843933493,203.9484067368212 27.281013549189083,203.87466302839675 27.22875241949805,203.87993043900133 27.257258490251843,203.87993043900133 27.2335034312855,203.88519784917298 27.224001407710603,203.89046525889353 27.224001407710603,203.87993043900133 27.20974837234826,203.89046525889353 27.214499384135706,203.89573266817024 27.214499384135706,203.89046525889353 27.133732183719985,203.7798495622228 27.133732183719985,203.65869881462277 27.16698926623212,203.56915246020435 27.2430054548895,203.4638036451106 27.333274678880116,203.39005936977628 27.395037832146045,203.3215824654544 27.518564138677903,203.23730309647 27.627837409818312,203.12668625367587 27.70385359847569,203.06347654206184 27.71810663380893,202.96339436905328 27.63258842160576,202.87911452115804 27.566074256552383,202.77376455284684 27.537568185827695,202.63154181631035 27.566074256552383,202.52619143423 27.566074256552383,202.4261084081445 27.613584374455968,202.2786173432214 27.51381312686135,202.18906902829258 27.480556044349214,202.14166104535252 27.399788843933493,202.04684497250128 27.409290867537493,201.85721239891427 27.485307056136662,201.7781986582013 27.49480907971156,201.64650887023527 27.509062115073903,201.48321315104113 27.60408235088107,201.3515227467542 27.627837409818312,201.21983206731602 27.64684145699721,201.10394404179897 27.63258842160576,200.98805580319458 27.627837409818312,200.86163202716125 27.594580327306176,200.78261703835597 27.594580327306176,200.65092517022276 27.651592468784656,200.4770914829387 27.699102586659137,200.35593438705473 27.694351574900793,200.23477705825644 27.661094492359553,200.10308404537864 27.67059651593445,199.95558754426747 27.675347527721897,199.78175193906281 27.665845504147,199.6553257432024 27.17174027801957,198.9020310684864 27.09097307760385,198.87569193092713 27.067218018637504,198.79667445216546 27.02445891255047,198.7123890322946 27.00545486540068,198.67551412563625 26.981699806434335,198.59122854372254 26.929438676772406,198.53854999776013 26.867675523506477,198.4753356844776 26.7916593348491,198.4279249079118 26.753651240549516,198.39104983480502 26.68713707549614,198.30676387241692 26.587365827930626,198.21720991381517 26.5065986274858,198.1223879365898 26.435333450644976,198.0802447898095 26.34031321486691,198.10658425986912 26.235790955484845,198.1276558279642 26.14077071970678,198.143459499428 26.02199542496237,198.11185215254227 25.98873834242113,198.00649421511116 25.950730248121545,197.9327435541054 25.85571001234348,197.8906002804797 25.741685729357414,197.92220773834197 25.708428646845277,197.85899280677768 25.69892662327038,197.83792114880998 25.71317965866183,197.8484569786815 25.69892662327038,197.85372489293877 25.679922576091485,197.87479654559502 25.67517156433314,197.87479654559502 25.684673587908037,197.8906002804797 25.679922576091485,197.86426072016184 25.69892662327038,197.85372489293877 25.69892662327038,197.84318906396948 25.627661446429556,197.7378306773353 25.622910434642108,197.67461556079797 25.570649304951075,197.56925689230775 25.542143234197283,197.54291719766115 25.508886151685147,197.51130954954715 25.43762097484432,197.46389804765204 25.352102762641152,197.46916599406177 25.290339609375224,197.42702241040388 25.257082526833983,197.44282625758206 25.233327467896743,197.43755830896407 25.143058243906125,197.47443394004586 25.086046102427645,197.51657749199148 25.02903396092006,197.50604160665898 24.967270807683235,197.54818513746795 24.881752595450962,197.59559657594218 24.824740454001585,197.6482759101782 24.772479324310552,197.66934763155223 24.72021819461952,197.70095520039467 24.653704029566143,197.71149105314908 24.563434805575525,197.7747061326918 24.463663557980908,197.80104573045173 24.37339433399029,197.90113610152912 24.28787612178712,198.00122631362683 24.188104874192504,198.00122631362683 24.121590709139127,197.98542260648537 24.00756642621127,197.99069050931212 23.94105226112879,197.99069050931212 23.964807320095133,197.96435099082737 23.964807320095133,197.9801547032257 23.96955833188258,197.9801547032257 23.9125461904041,197.97488679953676 23.85078303713817,197.91693982979268 23.79377089565969,197.91167192081411 23.713003695273073,197.96435099082737 23.660742565552937,197.88533236929652 23.56097131795832,197.9327435541054 23.484955129330046,197.84318906396948 23.42794298788067,197.76417029050208 23.36142882279819,197.7272948289792 23.347175787435845,197.7325627533719 23.318669716682052,197.6798834895926 23.256906563445227,197.61140038085068 23.19039239839185,197.63247211453563 23.1951434101793,197.6166683149313 23.180890374816954,197.58506070380827 23.180890374816954,197.50604160665898 23.199894421966746,197.42702241040388 23.16663733945461,197.3690749368434 23.114376209763577,197.29005556882112 23.090621150826337,197.23210796931016 23.0478620447102,197.174160316481 23.028857997560408,197.07406879065093 23.005102938594064,196.96870911799851 22.96709484429448,196.81066927869688 22.891078655637102,196.7316492103928 22.838817525975173,196.6789691097947 22.81031145522138,196.61575293094938 22.76755234913435,196.50512446533685 22.69628717226442,196.4155679461619 22.68203413693118,196.33654738235055 22.663030089752283,196.33127934124786 22.6250219954527,196.33654738235055 22.64877705438994,196.33654738235055 22.63452401899849,196.3260112996977 22.644026042573387,196.3260112996977 22.644026042573387,196.3260112996977 22.67253211332718,196.31547521527318 22.701038184051868,196.25225867172048 22.691536160506075,196.27333085994542 22.61076896006125,196.26279476670607 22.6250219954527,196.27859890590844 22.6155199718487,196.28913499649934 22.6250219954527,196.27859890590844 22.6250219954527,196.27333085994542 22.629773007211043,196.2680628135422 22.629773007211043,196.26279476670607 22.639275030815043,196.2680628135422 180.90973077600938,92.24874849891785 180.81471054023132,92.3067930771067 180.81471054023132,92.3067930771067 180.81471054023132,92.3067930771067 180.81471054023132,92.3067930771067 180.7244413162407,92.36483760143528 23.09537216258468,197.22157203638562 23.142882280488266,197.34800311506115 23.185641386604402,197.43229035989862 23.171388351242058,197.5534530768382 23.19039239839185,197.6798834895926 23.24740453987033,197.76417029050208 23.294914657744812,197.87479654559502 23.294914657744812,198.02756581669746 23.323420728498604,198.143459499428 23.347175787435845,198.3383711215247 23.375681858189637,198.49113926874634 23.39468590533943,198.60703209891653 23.380432869977085,198.78087094451985 23.37093084640219,198.9178345457367 23.37093084640219,199.0073875086673 23.25215555165778,199.0916725339739 23.057364068285096,199.11274377271184 22.92908674996579,199.13908281119438 22.800809431646485,199.18649305273357 22.65827907793573,199.25497444976645 22.520499736070633,199.29184901734334 22.392222417751327,199.32872356334337 22.306704205548158,199.39720480581673 22.18792891080375,199.4446148531606 22.09290867499658,199.50782819415326 22.050149568909546,199.5657737010224 22.050149568909546,199.5657737010224 22.026394509943202,199.57630924200566 21.96938236846472,199.62898692047747 21.879113144474104,199.65005797954655 21.755586837942246,199.6763967934603 21.66531761395163,199.73960990196792 21.617807496048044,199.78175193906281 21.570297378173564,199.87657141952513 21.475277142366394,199.90817788131244 21.385007918346673,199.87657141952513 21.261481611814816,199.90291013877504 21.161710364249302,199.9187133650521 21.05718810489634,199.90291013877504 20.96216786908917,199.8660359287387 20.85764560973621,199.88710690854714 20.79113144465373,199.90291013877504 20.710364244238008,199.95031980570275 20.610592996672494,199.98192623049908 20.50607073729043,200.00826490571853 20.458560619415948,200.08201313777317 20.425303536874708,200.18209988612216 20.439556572237052,200.2558479147665 20.368291395396227,200.2821864755133 20.33978532467154,200.3085250252625 20.282773183193058,200.31379273387938 20.178250923810992,200.32959585711797 20.087981699820375,200.30325731619814 19.964455393288517,200.33486356398862 19.912194263597485,200.36646979594298 19.93119831077638,200.41387911414495 19.92169628717238,200.50869764357049 19.90744325183914,200.5455714775926 19.90269224002259,200.59824834591564 19.888439204660244,200.65092517022276 19.864684145723004,200.74574334301724 19.774414921703283,200.840561373152 19.665141650562873,200.81949071212512 19.593876473722048,200.840561373152 19.508358261489775,200.90377331401032 19.427591061074054,200.8932379949365 19.40383600210771,200.840561373152 19.370578919595573,200.85109670104794 19.34207284884178,200.79842004404054 19.313566778117092,200.7931523759289 19.35632588423323,200.72467265029263 19.38008094317047,200.72994032413408 19.332570825266885,200.78261703835597 19.275558683788404,200.81949071212512 19.332570825266885,200.9617175374333 19.32306880169199,201.1513528052601 19.41333802571171,201.26724074361118 19.35157487244578,201.35679036821602 19.23755058948882,201.43580463719627 19.147281365498202,201.5938328780212 19.17578743622289,201.75712831061173 19.08551821220317,201.9098881710379 19.009502023604,202.0679152232442 19.03325708254124,202.25227961674318 19.147281365498202,202.294419973834 19.128277318319306,202.38923567427264 19.137779341894202,202.50512133668235 19.080767200444825,202.68421694133212 19.194791483372683,202.73689202232708 19.313566778117092,202.81063706178975 19.451346120011294,202.87384702691634 19.565370402968256,203.01080173396622 19.63663557980908,203.14248867167043 19.81242301603197,203.27417533426342 19.988210452225758,203.34791974515247 20.140242829482304,203.35318719976567 20.33978532467154,203.29524517474056 20.491817701928085,203.37952446627241 20.681858173484216,203.40586172175972 20.876649656886002,203.43746641382677 21.009677986992756,203.4427338609603 21.13795530531206,203.47433853454277 21.261481611814816,203.49540830811748 21.408762977313017,203.50594319226366 21.537040295632323,203.54281527293278 21.693823684676317,203.55861758662286 21.845856061961967,203.55861758662286 21.974133380281273,203.60075707040232 22.130916769296164,203.6376290956032 22.282949146581814,203.6481639559861 22.463487594592152,203.6534313855227 22.620270983636146,203.58495476729877 22.734295266593108,203.56388502362825 22.891078655637102,203.62182680174374 23.028857997560408,203.6060245039007 23.128629245155025,203.54281527293278 23.223649480903987,203.6481639559861 23.356677811039845,203.79565181649377 23.351926799223293,203.9694763519583 23.42319197609322,204.090626502315 23.51346120008384,204.0221503589746 23.727256730606314,204.05902213770605 23.922048213978997,204.03268515510717 24.08358261481044,203.89046525889353 24.226112968521193,203.79038439885335 24.41140242831898,203.85886079393094 24.539679746638285,203.9536741412594 24.772479324310552,203.95894154526832 24.91976068977965,203.94313933193916 25.071793067036197,203.88519784917298 25.223825444321847,203.80091923370856 25.39486186875729,203.75351246298305 25.49938412811025,203.70610565662355 25.632412458217004,203.79038439885335 25.765440788323758,203.89573266817024 25.912722153792856,203.91153489339558 26.026746436749818,203.85886079393094 26.16452577864402,203.8167214826899 26.34031321486691,203.8167214826899 26.497096603910904,203.80091923370856 26.639626957592554,203.75351246298305 26.748900228762068,203.72190792937909 26.877177547081374,203.72190792937909 27.03396093615447,203.79038439885335 27.181242301594466,203.821988898133 27.285764561005635,203.8535933815765 27.414041879295837,203.9378719266242 27.480556044349214,204.10116128699883 27.58032729194383,204.22757856583848 27.556572232977487,204.39613454330902 27.52331515046535,204.54888800859044 27.504311103286454,204.72797780691326 27.480556044349214,204.89126512081202 27.594580327306176,205.02294813040135 27.504311103286454,205.15989816861475 27.35227872602991,205.20203658205355 27.238254443072947,205.3389862312397 27.200246348773362,205.4970046875569 27.304768608126324,205.63922095963062 27.3807847967837,205.7867041622012 27.57557628012728,205.86044563410542 27.651592468784656,205.99739385311113 27.675347527721897,206.13434177466115 27.86538799930713,206.1396089964801 27.912898117210716,206.2870910285419 28.055428470892366,206.3871679252661 28.235966918902704,206.48724466313433 28.359493225434562,206.60312279274876 28.478268520149868,206.72953505490295 28.573288755957037,206.87701570708305 28.668308991735103,207.0086945693256 28.79658631005441,207.14037315656606 28.986626781639643,207.1667088410104 29.181418265012326,207.18777738066638 29.328699630481424,207.24571582837234 29.51874010206666,207.30365422284376 29.656519443931757,207.35632544434338 29.83230688018375,207.40899662186712 29.97958824565285,207.48800330563608 30.131620622909395,207.43533219413075 30.283653000195045,207.41953085209025 30.46894245999283,207.38266103861315 30.644729896186618,207.3773939206294 30.78250923808082,207.38266103861315 30.929790603549918,207.3299898391124 31.053316910081776,207.2878528478177 31.18634524018853,207.27731859559935 31.30512053493294,207.3773939206294 31.44289987682714,207.41426373718423 31.547422136209207,207.49327041436118 31.566426183359,207.62494798966145 31.632940348412376,207.75135820326614" stroke="#4DD2FF" stroke-dasharray="none" stroke-linecap="round" stroke-linejoin="round" stroke-width="0.5"><title>2026-03-14 12.0km</title><desc>9223370263378906807</desc></polyline></svg>