<?xml version="1.0" encoding="utf-8" ?>
<svg baseProfile="full" height="300mm" version="1.1" viewBox="0,0,200,300" width="200mm" xmlns="http://www.w3.org/2000/svg" xmlns:ev="http://www.w3.org/2001/xml-events" xmlns:xlink="http://www.w3.org/1999/xlink"><defs /><rect fill="#222222" height="300" width="200" x="0" y="0" /><text fill="#FFFFFF" style="font-size:12px; font-family:Arial; font-weight:bold;" x="10" y="20">Over 10km Runs</text><text fill="#FFFFFF" style="font-size:4px; font-family:Arial" x="10" y="280">Runner</text><text fill="#FFFFFF" style="font-size:9px; font-family:Arial" x="10" y="290">yihong0618</text><text fill="#FFFFFF" style="font-size:4px; font-family:Arial" x="65" y="280">SPECIAL TRACKS</text><rect fill="yellow" height="2.6" width="2.6" x="65" y="283" /><text fill="#FFFFFF" style="font-size:3px; font-family:Arial" x="70" y="285.5">Over 20.0 km</text><rect fill="red" height="2.6" width="2.6" x="65" y="287" /><text fill="#FFFFFF" style="font-size:3px; font-family:Arial" x="70" y="289.5">Over 40.0 km</text><text fill="#FFFFFF" style="font-size:4px; font-family:Arial" x="120" y="280">STATISTICS</text><text fill="#FFFFFF" style="font-size:3px; font-family:Arial" x="120" y="285">Number: 1</text><text fill="#FFFFFF" style="font-size:3px; font-family:Arial" x="120" y="290">Weekly: 1.0</text><text fill="#FFFFFF" style="font-size:3px; font-family:Arial" x="141" y="285">Total: 12.0 km</text><text fill="#FFFFFF" style="font-size:3px; font-family:Arial" x="141" y="290">Avg: 12.0 km</text><text fill="#FFFFFF" style="font-size:3px; font-family:Arial" x="167" y="285">Min: 12.0 km</text><text fill="#FFFFFF" style="font-size:3px; font-family:Arial" x="167" y="290">Max: 12.0 km</text><polyline fill="none" opacity="1" points="31.594932254083687,207.49853904554766 31.50466303009307,207.38266297771406 31.499912018305622,207.28785512746254 31.414393806102453,207.22464981476878 31.314622558507835,207.22991692657524 31.238606369879562,207.15617732118335 31.1245820869226,207.0666362558477 31.02005982756964,207.1140403650861 30.89653352103778,207.13510884665448 30.787260249868268,207.18251290443732 30.677986978698755,207.17197867246068 30.573464719345793,207.1509102031996 30.43568537745159,207.15617732118335 30.283653000195045,207.17724578866546 30.131620622909395,207.18778001975443 29.993841281015193,207.25625247903008 29.87031497451244,207.214115589828 29.689776526472997,207.14564308479385 29.590005278907483,207.10877324360263 29.414217842684593,207.08243762954226 29.29069153618184,207.00343072139367 29.148161182471085,206.94549225916126 28.99137779342709,206.93495798757795 28.85834946334944,206.97182793040702 28.658806968160206,206.8822866032715 28.573288755957037,206.72953933999088 28.525778638053453,206.65579914941554 28.421256378671387,206.50305133747315 28.354742213647114,206.41350934462753 28.250219954235945,206.28182971237038 28.18845680099912,206.23969217197373 28.06968150625471,206.1922874053671 27.903396093606716,206.17121860876796 27.841632940340787,206.03953847050798 27.855885975732235,205.91839250041448 27.708604610263137,205.9499958194101 27.59933133906452,205.83938413363649 27.60883336266852,205.66029813573914 27.49005806792411,205.63396191667562 27.366531761421356,205.56548769561414 27.29051557276398,205.44434081465442 27.17649128983612,205.33899551154536 27.152736230869778,205.1704426604374 27.257258490251843,204.9966220607821 27.42829491465818,204.97555286462375 27.566074256552383,204.82280098188494 27.5280661622528,204.7016526737898 27.456800985411974,204.58050413289675 27.452049973624526,204.42775129295842 27.532817174011143,204.2802654411571 27.556572232977487,204.12224450277063 27.537568185827695,203.9800253195499 27.49480907971156,203.8378058154849 27.3807847967837,203.7113882091944 27.214499384135706,203.64291189992946 27.224001407710603,203.65344672157153 27.2430054548895,203.65344672157153 27.214499384135706,203.65871413174318 27.22875241949805,203.65871413174318 27.219250395923154,203.65871413174318 27.214499384135706,203.66398154146373 27.214499384135706,203.66398154146373 27.133732183719985,203.56390068142355 27.138483195507433,203.4216802385563 27.17174027801957,203.31106411673318 27.257258490251843,203.2215175902311 27.338025690667564,203.158308200811 27.442547950020526,203.07402891633683 27.566074256552383,202.97921458661222 27.684849551296793,202.86859768836075 27.72760865741293,202.76851556551992 27.67059651593445,202.66843328379764 27.57557628012728,202.57361834399126 27.532817174011143,202.41032561337488 27.566074256552383,202.30497524008751 27.570825268368935,202.18908962609567 27.618335386243416,202.03633099123908 27.49480907971156,201.95205020661888 27.471054020774318,201.87830442765335 27.3807847967837,201.77822073246352 27.447298961837078,201.5885880320966 27.51381312686135,201.47796869341255 27.509062115073903,201.3199407299362 27.57557628012728,201.15137713218792 27.623086398059968,201.02495413804354 27.63733943339321,200.88799560821644 27.63258842160576,200.76157208576478 27.627837409818312,200.63514830973145 27.59933133906452,200.53506264053067 27.58032729194383,200.37176462848583 27.67059651593445,200.22953698295169 27.699102586659137,200.0925767246299 27.665845504147,199.95561616869236 27.67059651593445,199.7975843881468 27.661094492359553,199.6237489718369 27.675347527721897,199.4341097889992 27.181242301594466,198.67027952442004 27.105226112966193,198.65974386983362 27.071969030454056,198.5859942384086 27.02920992433792,198.4806374723703 27.00545486540068,198.44376256264877 26.972197782888543,198.35947697367374 26.905683617835166,198.306798423313 26.843920464569237,198.2488519670478 26.763153264124412,198.201441190482 26.71089213443338,198.1118874040949 26.63487594583421,198.03813713150157 26.511349639302352,197.92751156075974 26.435333450644976,197.87483264929688 26.359317262016702,197.86956475573606 26.235790955484845,197.9011721105344 26.131268696131883,197.92224367159724 26.02199542496237,197.87483264929688 25.979236318846233,197.76420679188232 25.922224177367752,197.67992029395464 25.808199894439895,197.65884865186672 25.70367763505783,197.6641165630499 25.708428646845277,197.6219732612517 25.741685729357414,197.61670534653967 25.72268168220762,197.61143743138018 25.684673587908037,197.63777700273204 25.670420552545693,197.63777700273204 25.689424599695485,197.6641165630499 25.679922576091485,197.63777700273204 25.694175611482933,197.61670534653967 25.69892662327038,197.60616951579868 25.622910434642108,197.5008111115494 25.608657399279764,197.41125632944022 25.565898293163627,197.3269693594084 25.527890198864043,197.31116553997344 25.447122998419218,197.26375405789804 25.38535984515329,197.21107459153427 25.29509062116267,197.21107459153427 25.26183353862143,197.21107459153427 25.24282949147164,197.20580664246881 25.143058243906125,197.24795022261605 25.071793067036197,197.2953617165731 24.995776878437027,197.2953617165731 24.94351574871689,197.33223729833844 24.848495512938825,197.37438079392814 24.80098539503524,197.44286391412243 24.739222241798416,197.4533997721628 24.663206053170143,197.49027526143618 24.582438852725318,197.5324186513244 24.4921696287347,197.57982993124097 24.382896357565187,197.6641165630499 24.28787612178712,197.76420679188232 24.183353862405056,197.78001049768136 24.11208868556423,197.7694746942543 24.002815414394718,197.76420679188232 23.95055428473279,197.75893888905557 23.964807320095133,197.73786727339757 23.983811367244925,197.74840308210696 23.94580327294534,197.7694746942543 23.87928910786286,197.7167956506637 23.808023931022035,197.67992029395464 23.741509765968658,197.73786727339757 23.670244589156937,197.6641165630499 23.56097131795832,197.69572402091217 23.484955129330046,197.61143743138018 23.42319197609322,197.5324186513244 23.356677811039845,197.49554318671653 23.342424775648396,197.49027526143618 23.294914657744812,197.4217921927484 23.209396445541643,197.37438079392814 23.1951434101793,197.38491666342088 23.19039239839185,197.36911285851238 23.176139363029506,197.3058975992899 23.199894421966746,197.21634254015225 23.180890374816954,197.14785917374684 23.114376209763577,197.06357185139132 23.090621150826337,197.00562425188036 23.05261305649765,196.93714065646054 23.019355973956408,196.82651315278054 23.005102938594064,196.7422254005687 22.924335738178343,196.56838155552396 22.881576632062206,196.45775340441105 22.81031145522138,196.4103412801851 22.796058419859037,196.3207849481878 22.720042231230764,196.21542439464974 22.68203413693118,196.12586778561672 22.66778110153973,196.10479562381806 22.63452401899849,196.11006366492074 22.64877705438994,196.11006366492074 22.63452401899849,196.0995275822679 22.644026042573387,196.0995275822679 22.644026042573387,196.094259540263 22.686785148689523,196.05211518847864 22.691536160506075,196.02577495429068 22.639275030815043,196.03631104927626 22.629773007211043,196.04684714251562 22.620270983636146,196.04684714251562 22.629773007211043,196.05211518847864 22.6250219954527,196.04684714251562 22.629773007211043,196.0415790961124 22.629773007211043,196.0415790961124 22.639275030815043,196.03631104927626 180.90973077600938,92.02226478148805 180.81471054023132,92.0803093596769 180.81471054023132,92.0803093596769 180.81471054023132,92.0803093596769 180.7244413162407,92.13835388400548 23.08587013903889,196.979284416273 23.11912722152192,197.1004475687987 23.185641386604402,197.19527074302823 23.16663733945461,197.3058975992899 23.19039239839185,197.44813184336817 23.24740453987033,197.53768657307228 23.299665669561364,197.6535807402397 23.299665669561364,197.822153693789 23.328171740286052,198.0065298453883 23.36617983461474,198.169833986296 23.380432869977085,198.3173341369038 23.385183881764533,198.47010178609344 23.36617983461474,198.6544760418874 23.380432869977085,198.74929687767872 23.280661622382468,198.85465319456125 23.081119127222337,198.8651888165441 22.93383776175324,198.91259909376458 22.796058419859037,198.96000933530377 22.629773007211043,199.03375852902536 22.49199366531684,199.07590088667712 22.38272039417643,199.1233110053763 22.26394509943202,199.18125665753905 22.130916769296164,199.24973781414883 22.078655639634235,199.31821889635103 22.050149568909546,199.3392899835926 22.050149568909546,199.3445577543025 21.983635403827066,199.40250320304767 21.888615168078104,199.42357426211674 21.765088861546246,199.4341097889992 21.66531761395163,199.51839394071067 21.6130564842897,199.56580372650933 21.560795354569564,199.6711586783822 21.437269048037706,199.6711586783822 21.34699982404709,199.65008770209533 21.218722505727783,199.6869619059762 21.099947210983373,199.6922296476223 20.995424951601308,199.6395522113089 20.88140066867345,199.6395522113089 20.805384480045177,199.67642642134524 20.7293682913878,199.7080328699194 20.610592996672494,199.75544251306928 20.50607073729043,199.78178118828873 20.458560619415948,199.86606487504105 20.425303536874708,199.96615160664078 20.411050501512364,200.05043504681453 20.35878937182133,200.06097046891955 20.320781277492642,200.0925767246299 20.230512053502025,200.10837984655882 20.125989794149064,200.08730901644958 19.997712475829758,200.10311213968816 19.90744325183914,200.1347183742837 19.93119831077638,200.1821276964656 19.92644729895983,200.2664108477984 19.90744325183914,200.3296231373497 19.893190216447692,200.38756768041276 19.8741861692979,200.44024449149947 19.831427063181764,200.5455979815997 19.731655815587146,200.59300699469532 19.64138659159653,200.6140776557222 19.54636635578936,200.63514830973145 19.451346120011294,200.6720219372728 19.41333802571171,200.63514830973145 19.370578919595573,200.61934531989027 19.337321837054333,200.58773932834083 19.313566778117092,200.5666686584991 19.35632588423323,200.49818893286283 19.37532993138302,200.50345660670428 19.327819813479437,200.5455979815997 19.299313742725644,200.6404159721278 19.304064754542196,200.81424858428 19.361076896020677,200.97227781563925 19.41333802571171,201.1039685391006 19.26130564842606,201.1619123702585 19.17578743622289,201.3199407299362 19.156783389073098,201.50430664879968 19.104522259382065,201.67286930269256 19.004751011787448,201.83089638132878 19.03800809432869,202.03106344549815 19.156783389073098,202.08900642438675 19.128277318319306,202.1943571586271 19.11877529474441,202.32077780729378 19.10927327114041,202.48933827779183 19.232799577672267,202.5630833418909 19.384831954957917,202.61049083752368 19.532113320427015,202.7211081887217 19.598627485480392,202.879132639413 19.75541087455349,203.0160868428975 19.969206405075965,203.11616857266927 20.140242829482304,203.13723839025624 20.33978532467154,203.06876145731076 20.534576808015117,203.14777329642675 20.719866267812904,203.18991290345002 20.93366179833538,203.20571524881598 21.042935069533996,203.2162501435305 21.175963399611646,203.27945947483386 21.33274678865564,203.2847269162594 21.475277142366394,203.31106411673318 21.636811543197837,203.33213386919306 21.817349991208175,203.33213386919306 21.964631356706377,203.38480821951453 22.126165757508716,203.4111453781734 22.29245117015671,203.4216802385563 22.487242653529393,203.4269476680929 22.64877705438994,203.34793617890682 22.777054372709244,203.36373848467701 22.952841808932135,203.4164128085904 23.066866091859993,203.32686643174384 23.147633292275714,203.39534308431394 23.318669716682052,203.50595905824957 23.318669716682052,203.68505117596578 23.408938940701773,203.81673623203824 23.4897061411466,203.81146883508336 23.713003695273073,203.8272710246456 23.92679922579555,203.8009340398312 24.102586661989335,203.65871413174318 24.278374098212225,203.53756358658575 24.444659510802012,203.64817931096695 24.610944923450006,203.73245782783852 24.862748548330273,203.73772523139633 24.991025866620475,203.68505117596578 25.15731127926847,203.60604001028696 25.347351750853704,203.56390068142355 25.485131092747906,203.45855223604303 25.622910434642108,203.558633263332 25.765440788323758,203.66924895074044 25.917473165609408,203.68505117596578 26.040999472112162,203.6271096641467 26.202533872972708,203.57443551627875 26.397325356316287,203.61130742440946 26.554108745389385,203.558633263332 26.677635051921243,203.5217613243949 26.80591237024055,203.48488936388821 26.981699806434335,203.5428310064308 27.14798521908233,203.5849703493659 27.2430054548895,203.62184225133024 27.399788843933493,203.70085339721118 27.480556044349214,203.8641427848852 27.58032729194383,204.00636222953472 27.566074256552383,204.19072029137533 27.509062115073903,204.35400841019145 27.485307056136662,204.53836545539525 27.566074256552383,204.69111802730185 27.57557628012728,204.8491375397898 27.42829491465818,204.97555286462375 27.271511525614187,205.04402772640242 27.20974837234826,205.21258091548225 27.285764561005635,205.3864009197241 27.3807847967837,205.5602204447714 27.566074256552383,205.63396191667562 27.651592468784656,205.77091013568133 27.694351574900793,205.9131252790503 27.884392046456924,205.92892694182956 27.946155199722853,206.10274497119462 28.136195671308087,206.21335619493038 28.297730072168633,206.31870003712174 28.435509414062835,206.43984523807376 28.502023579116212,206.60839469566054 28.64930494458531,206.72953933999088 28.772831251117168,206.90335516227788 28.962871722702403,206.93495798757795 29.167165229620878,206.95602652898378 29.33820165405632,207.02449923991298 29.53774414921645,207.08243762954226 29.689776526472997,207.14037596595153 29.865563962695887,207.214115589828 30.03660038713133,207.26678669693138 30.193383776175324,207.18251290443732 30.38342424776056,207.15617732118335 30.573464719345793,207.15617732118335 30.749252155568684,207.1667115558048 30.89178250922123,207.12457460675796 31.04381488650688,207.07190338085275 31.18634524018853,207.05083487816955 31.309871546720387,207.1509102031996 31.45715291221859,207.19304713466045 31.547422136209207,207.2931222339903 31.580679218721343,207.4406010382554 31.68045046631596,207.58281241569057 31.794474749243818,207.67761982246884 31.856237902509747,207.7776941527518 31.927503079379676,207.76716002021203 31.956009150104364,207.69342104306634 31.9987682562205,207.66708567319802 32.08428646842367,207.78822828353805 32.17930670423084,207.89883655061567 32.2838289635838,208.01997871573258 32.43586134086945,208.01997871573258 32.54038360022241,207.9989105298191 32.51662854128517,207.97784233687707 32.57364068273455,207.97257528753107 32.57364068273455,207.97784233687707 32.58789371809689,207.9936434822339 32.63540383600048,207.96204118753303 32.63540383600048,207.96204118753303 32.66390990675427,207.9936434822339" stroke="#4DD2FF" stroke-dasharray="none" stroke-linecap="round" stroke-linejoin="round" stroke-width="0.5"><title>2026-03-14 12.0km</title><desc>9223370263378906807</desc></polyline></svg>