<?xml version="1.0" encoding="utf-8" ?>
<svg baseProfile="full" height="300mm" version="1.1" viewBox="0,0,200,300" width="200mm" xmlns="http://www.w3.org/2000/svg" xmlns:ev="http://www.w3.org/2001/xml-events" xmlns:xlink="http://www.w3.org/1999/xlink"><defs /><rect fill="#222222" height="300" width="200" x="0" y="0" /><text fill="#FFFFFF" style="font-size:12px; font-family:Arial; font-weight:bold;" x="10" y="20">Over 10km Runs</text><text fill="#FFFFFF" style="font-size:4px; font-family:Arial" x="10" y="280">Runner</text><text fill="#FFFFFF" style="font-size:9px; font-family:Arial" x="10" y="290">yihong0618</text><text fill="#FFFFFF" style="font-size:4px; font-family:Arial" x="65" y="280">SPECIAL TRACKS</text><rect fill="yellow" height="2.6" width="2.6" x="65" y="283" /><text fill="#FFFFFF" style="font-size:3px; font-family:Arial" x="70" y="285.5">Over 20.0 km</text><rect fill="red" height="2.6" width="2.6" x="65" y="287" /><text fill="#FFFFFF" style="font-size:3px; font-family:Arial" x="70" y="289.5">Over 40.0 km</text><text fill="#FFFFFF" style="font-size:4px; font-family:Arial" x="120" y="280">STATISTICS</text><text fill="#FFFFFF" style="font-size:3px; font-family:Arial" x="120" y="285">Number: 1</text><text fill="#FFFFFF" style="font-size:3px; font-family:Arial" x="120" y="290">Weekly: 1.0</text><text fill="#FFFFFF" style="font-size:3px; font-family:Arial" x="141" y="285">Total: 12.0 km</text><text fill="#FFFFFF" style="font-size:3px; font-family:Arial" x="141" y="290">Avg: 12.0 km</text><text fill="#FFFFFF" style="font-size:3px; font-family:Arial" x="167" y="285">Min: 12.0 km</text><text fill="#FFFFFF" style="font-size:3px; font-family:Arial" x="167" y="290">Max: 12.0 km</text><polyline fill="none" opacity="1" points="31.27661446420825,207.22728333702253 31.19109625200508,207.11140676585637 31.086573992623016,207.06400265264165 30.977300721453503,207.12194100838315 30.86802745028399,207.1588108434371 30.75400316735613,207.19041354200817 30.654231919761514,207.16407796095882 30.549709660408553,207.15354372545335 30.421432342089247,207.15354372545335 30.27415097662015,207.1798793109192 30.126869611121947,207.19041354200817 29.993841281015193,207.25888600128383 29.87031497451244,207.22201622476496 29.699278550047893,207.15354372545335 29.59475629069493,207.10613964393633 29.43322188986349,207.09560539873564 29.319197606906528,207.01659850378564 29.176667253224878,206.97446145266076 29.024634875939228,206.9375915098317 28.905859581223922,206.96392718549032 28.64930494458531,206.89018726594077 28.635051909222966,206.81644726016748 28.559035720594693,206.67950130634927 28.468766496574972,206.62156254404908 28.41650536688394,206.43721158252447 28.288228048593737,206.33713512053146 28.235966918902704,206.28446323462413 28.13144465952064,206.23179130473363 28.036424423742574,206.16858493077598 27.89864508184837,206.13171451670132 27.855885975732235,206.01583593211035 27.813126869645203,205.92102602266823 27.680098539509345,205.95262934166385 27.60883336266852,205.81568151163447 27.59933133906452,205.6576644150664 27.480556044349214,205.63132819378734 27.357029737817356,205.56285396702515 27.29051557276398,205.44697433690817 27.181242301594466,205.3468963031337 27.152736230869778,205.1888780316367 27.22875241949805,204.99925558303585 27.395037832146045,204.9781863868775 27.54707020940259,204.86230568214523 27.54707020940259,204.72008816247035 27.433045926474733,204.62000897485268 27.466303008957766,204.47779090860422 27.49956009152811,204.32503781341438 27.537568185827695,204.1828190817505 27.57557628012728,204.0406000292387 27.471054020774318,203.9141828243337 27.437796938233078,203.76142836350482 27.338025690667564,203.65608024382527 27.22875241949805,203.65608024382527 27.238254443072947,203.65608024382527 27.238254443072947,203.66134765399693 27.219250395923154,203.66134765399693 27.22875241949805,203.6508128332207 27.214499384135706,203.67188247299418 27.214499384135706,203.67188247299418 27.214499384135706,203.66661506371747 27.128981171903433,203.54546452868453 27.138483195507433,203.41904633084414 27.17649128983612,203.308430199766 27.257258490251843,203.22415111248483 27.338025690667564,203.16094172306475 27.42829491465818,203.08192989718373 27.55182122119004,202.99238304143364 27.67059651593445,202.88176616166675 27.72760865741293,202.7922190215795 27.699102586659137,202.69213677330845 27.58507830373128,202.61839185709687 27.542319197615143,202.46036674615607 27.566074256552383,202.34974893278923 27.57557628012728,202.24439845384768 27.594580327306176,202.09690748752837 27.566074256552383,201.9810214861718 27.475805032561766,201.92834596057946 27.423543902870733,201.85986771149328 27.409290867537493,201.6755028249463 27.471054020774318,201.55961604881304 27.49956009152811,201.42792627185554 27.509062115073903,201.264630566322 27.60408235088107,201.12767255157814 27.627837409818312,200.99071423924397 27.656343480543,200.8695585610003 27.627837409818312,200.7484026498896 27.63258842160576,200.62724650587188 27.594580327306176,200.5324284915696 27.58032729194383,200.37439815073958 27.67059651593445,200.23217050520543 27.699102586659137,200.1004779546456 27.67059651593445,199.96878512889452 27.675347527721897,199.81602110627864 27.656343480543,199.65798896908382 27.675347527721897,199.45254659828424 27.656343480543,199.42094002026715 27.14798521908233,198.66764521960795 27.06246700687916,198.61496692466608 27.03871194794192,198.52014588277234 27.014956888975576,198.44639608490252 26.991201830038335,198.40425330451035 26.94369171213475,198.32523551530176 26.877177547081374,198.25148548930156 26.80591237024055,198.22514617340858 26.753651240549516,198.1777353770085 26.68713707549614,198.08291367724087 26.587365827930626,197.9933597186391 26.5065986274858,197.89853774141375 26.430582438857527,197.85639459463346 26.33081119126291,197.8880019573662 26.2215379201225,197.90380563278813 26.112264648952987,197.924877193851 26.01724441317492,197.86166248952213 25.974485307058785,197.75630450804965 25.922224177367752,197.68255381620838 25.808199894439895,197.66148217412047 25.70367763505783,197.67201799605755 25.69892662327038,197.63514261160162 25.732183705782518,197.62460678350544 25.732183705782518,197.61407095363393 25.69892662327038,197.63514261160162 25.66566954072914,197.64041052498578 25.69892662327038,197.64041052498578 25.694175611482933,197.64567843792247 25.694175611482933,197.63514261160162 25.69892662327038,197.62987469776272 25.6419144817919,197.53505217357815 25.618159422825556,197.45603329441656 25.58490234031342,197.35594257191042 25.542143234197283,197.3190670024851 25.508886151685147,197.2874593543711 25.43762097484432,197.24004785247598 25.347351750853704,197.2453157988857 25.29509062116267,197.19790426528198 25.257082526833983,197.20844016472256 25.209572408959502,197.218976062406 25.128805208514677,197.26111963549192 25.06704205524875,197.3032631804017 24.986274854833027,197.3032631804017 24.94351574871689,197.34013875907476 24.843744501151377,197.37701431618189 24.80098539503524,197.44549743637617 24.74397325355676,197.45076536562192 24.667957064928487,197.49817670897028 24.601442899904214,197.53505217357815 24.501671652309597,197.5824634534947 24.40190040471498,197.64567843792247 24.31638219251181,197.74050079565131 24.211859933129745,197.7826440199351 24.131092732714023,197.76684031413606 24.02181946154451,197.76684031413606 23.94580327294534,197.76684031413606 23.964807320095133,197.74050079565131 23.964807320095133,197.75630450804965 23.96955833188258,197.75630450804965 23.9125461904041,197.7510366043607 23.85078303713817,197.69308963461663 23.79377089565969,197.68782172563806 23.698750659881625,197.71942917291744 23.64648953016149,197.65094635041896 23.54671828262508,197.69308963461663 23.470702093967702,197.59299928864857 23.408938940701773,197.52978425139372 23.356677811039845,197.49817670897028 23.342424775648396,197.49290878368993 23.285412634169916,197.41388985169397 23.209396445541643,197.37701431618189 23.1951434101793,197.38755018567463 23.19039239839185,197.37174638076613 23.171388351242058,197.3190670024851 23.199894421966746,197.2242440105765 23.1951434101793,197.15049269600058 23.11912722152192,197.08200925517303 23.100123174401233,197.02932963466446 23.05261305649765,196.96084606214572 23.0383600211062,196.87129050886506 23.005102938594064,196.74485892282246 22.96709484429448,196.58681908352082 22.891078655637102,196.50779901521673 22.838817525975173,196.44985090214323 22.80556044340483,196.38663471799737 22.76755234913435,196.2707382157023 22.686785148689523,196.18118168153887 22.67253211332718,196.1074291460718 22.63452401899849,196.09689306251676 22.620270983636146,196.1126971871745 22.644026042573387,196.1179652278479 22.63452401899849,196.1074291460718 22.644026042573387,196.1074291460718 22.64877705438994,196.10216110452166 22.686785148689523,196.04421261836615 22.691536160506075,196.02840847654443 22.63452401899849,196.0336765242646 22.629773007211043,196.04948066476936 22.620270983636146,196.04948066476936 22.639275030815043,196.05474871073238 22.629773007211043,196.05474871073238 22.629773007211043,196.04948066476936 22.63452401899849,196.0336765242646 22.639275030815043,196.04421261836615 181.0,91.96685367170357 180.81471054023132,92.08294288193065 180.81471054023132,92.08294288193065 180.81471054023132,92.08294288193065 180.7244413162407,92.14098740625923 180.62942108043353,92.19903187672753 23.104874186159577,197.01352573992335 23.161886327638058,197.13468883165478 23.185641386604402,197.24004785247598 23.19039239839185,197.35067463473388 23.199894421966746,197.47710500521862 23.27115959880757,197.5824634534947 23.309167693107156,197.7141612661435 23.313918704923708,197.85639459463346 23.3329227520735,198.03550277382965 23.351926799223293,198.20407471273575 23.380432869977085,198.33050337100576 23.39468590533943,198.49907452075786 23.36617983461474,198.65710956414114 23.380432869977085,198.75193039993246 23.285412634169916,198.857286716815 23.090621150826337,198.86255452803016 22.95759282069048,198.90996480919785 22.815062467037933,198.95210725140714 22.65827907793573,199.02585645745785 22.53000175964553,199.073266615771 22.392222417751327,199.10487336816732 22.306704205548158,199.1838901797928 22.178426887228852,199.2313002192277 22.09290867499658,199.2839779989772 22.050149568909546,199.34719127655626 22.054900580696994,199.33665573470353 22.01689248639741,199.3629945860339 21.931374274165137,199.41567225571998 21.836354038357968,199.43147554802636 21.736582790792454,199.4683498813538 21.636811543197837,199.52629521870767 21.598803448898252,199.58950825322972 21.532289283844875,199.679059943599 21.423016012646258,199.66852445721815 21.313742741534952,199.65798896908382 21.20446947036544,199.68959542822995 21.08569417562103,199.68959542822995 20.985922928055516,199.63691798751825 20.876649656886002,199.6474534791705 20.805384480045177,199.679059943599 20.734119303204352,199.705398651844 20.624846032063942,199.75280829895928 20.529825796256773,199.77914697637607 20.463311631203396,199.85289521460072 20.425303536874708,199.9582496909461 20.439556572237052,200.0372654326202 20.368291395396227,200.05833628033724 20.33028330106754,200.08467483008644 20.268520147830714,200.09521024688365 20.1592468766612,200.1004779546456 20.059475629066583,200.0794071210221 19.940700334351277,200.12681648676516 19.92169628717238,200.15842271079237 19.935949322534725,200.2374382015114 19.92169628717238,200.31118590346523 19.893190216447692,200.35859509487273 19.888439204660244,200.41127193237116 19.864684145723004,200.46921640279106 19.81717402781942,200.57456984886448 19.69839873307501,200.5798375165432 19.603378497296944,200.62724650587188 19.532113320427015,200.65358481785734 19.441844096436398,200.66938779976044 19.418089037499158,200.6377818319852 19.36582790777902,200.62724650587188 19.337321837054333,200.59037285059458 19.31831778990454,200.56930218075286 19.35632588423323,200.50082245511658 19.38008094317047,200.50609012895802 19.332570825266885,200.5587668431799 19.280309695575852,200.61671117797596 19.32306880169199,200.77474091124532 19.332570825266885,200.94330552332758 19.427591061074054,201.06972868652156 19.31831778990454,201.14347541461757 19.209044518735027,201.25936295586507 19.152032377256546,201.43846146415308 19.171036424435442,201.59122155435034 19.047510117903585,201.74924884428765 19.009502023604,201.93361351512794 19.099771247594617,202.02316187495308 19.166285412647994,202.12851272365515 19.147281365498202,202.22859586681443 19.104522259382065,202.39188907505013 19.156783389073098,202.50250681447142 19.26605666024261,202.576251866245 19.418089037499158,202.62892685041516 19.555868379364256,202.75534663280996 19.61763153265929,202.90283605849982 19.79341896888218,203.03979021620034 19.988210452225758,203.118802094923 20.140242829482304,203.13987191251 20.33978532467154,203.0713949795645 20.510821749077877,203.15567427109636 20.70086222066311,203.18727897636927 20.905155727639794,203.20834877106972 21.009677986992756,203.21888366578423 21.156959352461854,203.27155811294142 21.294738694356056,203.2820929970876 21.442020059854258,203.2926278795021 21.594052437110804,203.3400348284522 21.74608481436735,203.32423251609725 21.91237022698624,203.3611045721227 22.031145521759754,203.37690687522627 22.202181946166093,203.41904633084414 22.38272039417643,203.4348486194467 22.568009853945114,203.38744174176827 22.69628717226442,203.32949995399758 22.83406651415862,203.38744174176827 23.009853950381512,203.40324403829436 23.10962519797613,203.30316276010853 23.19039239839185,203.42431376081004 23.33767376386095,203.5401971088395 23.3329227520735,203.7192891367631 23.41844096427667,203.8509741268208 23.503959176508943,203.80356756208494 23.727256730606314,203.83517194253 23.92679922579555,203.80356756208494 24.09308463841444,203.66134765399693 24.25937005103333,203.55599936704675 24.43515748725622,203.6455454221832 24.582438852725318,203.74035875365007 24.83899348936393,203.74035875365007 24.962519795895787,203.68768469821953 25.105050149577437,203.6455454221832 25.290339609375224,203.5770690385325 25.44237198663177,203.4717206107598 25.56114728137618,203.5191274250319 25.71317965866183,203.6139409466632 25.850959000526927,203.6508128332207 25.993489354208577,203.66661506371747 26.098011613590643,203.6086735325407 26.27855006160098,203.58233645529617 26.44958648600732,203.59813870295693 26.60161886329297,203.54546452868453 26.72039415803738,203.50859258050332 26.85342248811503,203.48752288614196 27.014956888975576,203.55599936704675 27.17649128983612,203.59287128751384 27.285764561005635,203.62974318640045 27.414041879295837,203.71402173144816 27.480556044349214,203.87731109182278 27.58032729194383,204.01953051270175 27.566074256552383,204.19335381362907 27.509062115073903,204.34610722787693 27.49005806792411,204.5357316409718 27.54707020940259,204.68321690130324 27.589829315518728,204.8359691286205 27.466303008957766,204.9518498817779 27.31427063170122,204.99925558303585 27.22875241949805,205.15727432980202 27.2335034312855,205.32582722315783 27.338025690667564,205.4943796658772 27.49956009152811,205.61025920886823 27.64684145699721,205.70506958561964 27.623086398059968,205.8683537891484 27.794122822466306,205.91575880130404 27.89864508184837,206.01583593211035 28.022171388351126,206.14224892291168 28.202709836361464,206.24232569422747 28.326236142893322,206.36873823095448 28.468766496574972,206.4846161669666 28.559035720594693,206.63736402994618 28.663557979947655,206.76377577465973 28.79658631005441,206.91652296139 28.99612880521454,206.94285864583435 29.186169276799774,206.96919431929564 29.352454689418664,207.0429341464369 29.53774414921645,207.085071151796 29.689776526472997,207.14300948820528 29.86081295090844,207.2114819989547 30.017596339981537,207.26942021918512 30.193383776175324,207.19041354200817 30.350167165248422,207.16407796095882 30.52595460144221,207.16407796095882 30.7112440612691,207.16934507805854 30.849023403134197,207.14300948820528 31.005806792207295,207.09560539873564 31.134084110497497,207.03239989069334 31.2718634523917,207.11140676585637 31.381136723561212,207.18514642669106 31.523667077271966,207.23781756018798 31.55217314796755,207.37476230142784 31.613936301262584,207.50643965673953 31.732711596006993,207.62758258078247 31.81347879639361,207.73292406466499 31.903748020442436,207.76979354246578 31.956009150104364,207.75925940815432 31.96551117367926,207.6749862703 32.02727432694519,207.7013216379819 32.098539503786014,207.80139593482818 32.193559739593184,207.922538292205 32.298081998946145,208.03314632829643 32.44536336441524,208.0173451921728" stroke="#4DD2FF" stroke-dasharray="none" stroke-linecap="round" stroke-linejoin="round" stroke-width="0.5"><title>2026-03-14 12.0km</title><desc>9223370263378906807</desc></polyline></svg>