<?xml version="1.0" encoding="utf-8" ?>
<svg baseProfile="full" height="300mm" version="1.1" viewBox="0,0,200,300" width="200mm" xmlns="http://www.w3.org/2000/svg" xmlns:ev="http://www.w3.org/2001/xml-events" xmlns:xlink="http://www.w3.org/1999/xlink"><defs /><rect fill="#222222" height="300" width="200" x="0" y="0" /><text fill="#FFFFFF" style="font-size:12px; font-family:Arial; font-weight:bold;" x="10" y="20">Over 10km Runs</text><text fill="#FFFFFF" style="font-size:4px; font-family:Arial" x="10" y="280">Runner</text><text fill="#FFFFFF" style="font-size:9px; font-family:Arial" x="10" y="290">yihong0618</text><text fill="#FFFFFF" style="font-size:4px; font-family:Arial" x="65" y="280">SPECIAL TRACKS</text><rect fill="yellow" height="2.6" width="2.6" x="65" y="283" /><text fill="#FFFFFF" style="font-size:3px; font-family:Arial" x="70" y="285.5">Over 20.0 km</text><rect fill="red" height="2.6" width="2.6" x="65" y="287" /><text fill="#FFFFFF" style="font-size:3px; font-family:Arial" x="70" y="289.5">Over 40.0 km</text><text fill="#FFFFFF" style="font-size:4px; font-family:Arial" x="120" y="280">STATISTICS</text><text fill="#FFFFFF" style="font-size:3px; font-family:Arial" x="120" y="285">Number: 1</text><text fill="#FFFFFF" style="font-size:3px; font-family:Arial" x="120" y="290">Weekly: 1.0</text><text fill="#FFFFFF" style="font-size:3px; font-family:Arial" x="141" y="285">Total: 12.0 km</text><text fill="#FFFFFF" style="font-size:3px; font-family:Arial" x="141" y="290">Avg: 12.0 km</text><text fill="#FFFFFF" style="font-size:3px; font-family:Arial" x="167" y="285">Min: 12.0 km</text><text fill="#FFFFFF" style="font-size:3px; font-family:Arial" x="167" y="290">Max: 12.0 km</text><polyline fill="none" opacity="1" points="31.594932254083687,207.52487448583634 31.518916065455414,207.40899846637694 31.518916065455414,207.34579327511528 31.45715291221859,207.22991692657524 31.352630652836524,207.22991692657524 31.257610417029355,207.214115589828 31.172092204826185,207.08770475323763 31.058067921869224,207.07717050541396 30.944043638941366,207.12457460675796 30.8395213795593,207.1667115558048 30.706493049452547,207.19831424909717 30.620974837220274,207.1509102031996 30.487946507142624,207.15617732118335 30.35491817703587,207.16144443870508 30.188632764387876,207.1667115558048 30.060355446097674,207.25098536942096 29.91782509238692,207.25098536942096 29.765792715130374,207.15617732118335 29.632764384994516,207.12457460675796 29.49023403134197,207.09823899930052 29.352454689418664,207.0297663684396 29.19567130037467,206.9823621958276 29.048389934934676,206.93495798757795 28.924863628373714,206.95602652898378 28.635051909222966,206.88755374368702 28.635051909222966,206.81908088404816 28.559035720594693,206.67686778409552 28.46401548475842,206.61892902179534 28.41175435509649,206.42404370332588 28.273975013231393,206.30289847202584 28.22646489532781,206.27656252136876 28.112440612370847,206.22389058706904 28.003167341201333,206.16595140852223 27.874890022882028,206.08694335196196 27.879641034669476,205.9815991225405 27.765616751712514,205.93419416188408 27.613584374455968,205.92365972134212 27.623086398059968,205.7182377789468 27.532817174011143,205.64976364943504 27.409290867537493,205.61289293350274 27.31427063170122,205.49174614362346 27.224001407710603,205.38113365390382 27.157487242657226,205.23365003241634 27.17174027801957,205.0756314836799 27.366531761421356,204.98082016431727 27.518564138677903,204.90707792847024 27.556572232977487,204.73852392263143 27.442547950020526,204.6489794237532 27.471054020774318,204.49622674973216 27.49005806792411,204.32767164544566 27.537568185827695,204.18018555949675 27.57557628012728,204.03796650698496 27.471054020774318,203.91154930207995 27.433045926474733,203.74826003721682 27.304768608126324,203.64817931096695 27.22875241949805,203.65344672157153 27.257258490251843,203.65344672157153 27.22875241949805,203.65871413174318 27.224001407710603,203.65871413174318 27.219250395923154,203.65871413174318 27.20974837234826,203.66398154146373 27.214499384135706,203.66398154146373 27.195495336985914,203.65344672157153 27.133732183719985,203.47962193919375 27.152736230869778,203.36900591904123 27.224001407710603,203.258389704788 27.304768608126324,203.16884310345267 27.3807847967837,203.10563366121278 27.518564138677903,203.01081937904019 27.63733943339321,202.89493506269355 27.71810663380893,202.81592290666958 27.71810663380893,202.71057321125772 27.594580327306176,202.6262933281614 27.55182122119004,202.4840707699077 27.566074256552383,202.35765044873187 27.57557628012728,202.2522999874127 27.594580327306176,202.09427396527462 27.561323244764935,201.9678528623299 27.480556044349214,201.92044488334068 27.40453985572094,201.8414315058144 27.409290867537493,201.63072868148447 27.49005806792411,201.54117976787165 27.49005806792411,201.38841956275428 27.5280661622528,201.21985614814548 27.60883336266852,201.08816566681708 27.623086398059968,200.93540436376134 27.656343480543,200.80371328809997 27.618335386243416,200.6878249138972 27.60408235088107,200.57720399428945 27.60408235088107,200.46131520360723 27.63733943339321,200.27167854101572 27.70385359847569,200.13998607851318 27.694351574900793,200.00829334082664 27.665845504147,199.86606487504105 27.661094492359553,199.70276512959026 27.684849551296793,199.47098411924526 27.656343480543,199.41303873346624 27.157487242657226,198.6755473510566 27.06246700687916,198.62813689550967 27.043462959700264,198.52278019993173 27.014956888975576,198.44376256264877 26.991201830038335,198.4016197822566 26.94369171213475,198.322601993048 26.867675523506477,198.2488519670478 26.7916593348491,198.201441190482 26.73939820518717,198.15929824803607 26.677635051921243,198.069744401746 26.549357733601937,197.97492254344252 26.478092556761112,197.86429686172414 26.40207636813284,197.8590289672684 26.292803096963326,197.88536843511247 26.188280837610364,197.9169757819982 26.05525250750361,197.91170789194803 25.998240365996026,197.80634999855465 25.94122822454665,197.722063557012 25.86996304767672,197.65884865186672 25.741685729357414,197.69572402091217 25.708428646845277,197.63250908934788 25.717930670420174,197.61670534653967 25.708428646845277,197.63250908934788 25.689424599695485,197.64831282816522 25.679922576091485,197.62724117550897 25.694175611482933,197.63250908934788 25.684673587908037,197.63777700273204 25.684673587908037,197.63777700273204 25.69892662327038,197.62724117550897 25.6419144817919,197.5324186513244 25.618159422825556,197.4533997721628 25.570649304951075,197.34277317487795 25.546894246013835,197.31643348023135 25.485131092747906,197.27955788922918 25.40911490409053,197.226878436064 25.342600739037152,197.2321463833723 25.28558859755867,197.20053869297408 25.266584550437983,197.19527074302823 25.176315326418262,197.24268227663197 25.10029913778999,197.27955788922918 25.03853598452406,197.28482583211735 24.98152384304558,197.31643348023135 24.891254619025858,197.36911285851238 24.824740454001585,197.4217921927484 24.767728312523104,197.44286391412243 24.705965159257175,197.48500733571927 24.6394509942038,197.5008111115494 24.525426711246837,197.55349033570383 24.416153440106427,197.60616951579868 24.330635227874154,197.72733146292376 24.230863980279537,197.78001049768136 24.140594756318023,197.77474259619703 24.026570473331958,197.77474259619703 23.95055428473279,197.76420679188232 23.964807320095133,197.73786727339757 23.964807320095133,197.7536709857959 23.96005630827858,197.74840308210696 23.9125461904041,197.74313517797054 23.836530001746723,197.6851882033843 23.7747668485099,197.71152774388975 23.698750659881625,197.6851882033843 23.608481435861904,197.6693844738038 23.518212211871287,197.6535807402397 23.437445011455566,197.55349033570383 23.36617983461474,197.51661488342506 23.347175787435845,197.5060790359421 23.323420728498604,197.4586677005318 23.256906563445227,197.38491666342088 23.19039239839185,197.40598839710583 23.209396445541643,197.37964872888915 23.16663733945461,197.34804111248013 23.19039239839185,197.24795022261605 23.199894421966746,197.1794668905677 23.13338025691337,197.10571552666806 23.104874186159577,197.03723204003472 23.057364068285096,196.96874847898653 23.043111032922752,196.88446091702644 23.009853950381512,196.7527613757593 22.976596867869375,196.58418556126708 22.891078655637102,196.505165492963 22.83406651415862,196.44194936697386 22.800809431646485,196.36819713981458 22.75805032553035,196.262836665559 22.68203413693118,196.1627440518132 22.66778110153973,196.0995275822679 22.629773007211043,196.0995275822679 22.639275030815043,196.11006366492074 22.644026042573387,196.11006366492074 22.629773007211043,196.0995275822679 22.639275030815043,196.0995275822679 22.65827907793573,196.0995275822679 22.701038184051868,196.02577495429068 22.691536160506075,196.0573832339942 22.63452401899849,196.0415790961124 22.6250219954527,196.05211518847864 22.620270983636146,196.0573832339942 22.6250219954527,196.04684714251562 22.629773007211043,196.04684714251562 22.629773007211043,196.03631104927626 22.639275030815043,196.0415790961124 22.63452401899849,196.03631104927626 180.90973077600938,92.02226478148805 180.81471054023132,92.0803093596769 180.81471054023132,92.0803093596769 180.7244413162407,92.13835388400548 180.62942108043353,92.19639835447379 23.114376209763577,197.02669611241072 23.176139363029506,197.13732326463287 23.180890374816954,197.24795022261605 23.19039239839185,197.38491666342088 23.209396445541643,197.5008111115494 23.280661622382468,197.61143743138018 23.299665669561364,197.75893888905557 23.318669716682052,197.89063632735633 23.347175787435845,198.1066195303356 23.375681858189637,198.26465555131654 23.38993489355198,198.39635193271897 23.380432869977085,198.58072640430328 23.380432869977085,198.71242212515426 23.347175787435845,198.8230463180007 23.161886327638058,198.8651888165441 23.000351926806616,198.90206347967978 22.857821573124966,198.9336703166191 22.701038184051868,199.00215174227196 22.55375681858277,199.06536529991354 22.415977476688568,199.10750763642864 22.316206229123054,199.16018551746674 22.18792891080375,199.2181311357308 22.09290867499658,199.28134447672346 22.050149568909546,199.3445577543025 22.050149568909546,199.33402221244978 22.00263945100596,199.3708966012564 21.931374274165137,199.41303873346624 21.812598979420727,199.4183064980134 21.727080767217558,199.47625187895392 21.62730951962294,199.53419720660168 21.589301425294252,199.61848122446827 21.499032201303635,199.6869619059762 21.389758930163225,199.65008770209533 21.261481611814816,199.67642642134524 21.147457328886958,199.6922296476223 21.042935069533996,199.6658909349644 20.928910786577035,199.6395522113089 20.829139538982417,199.67642642134524 20.757874362141592,199.6869619059762 20.672356149938423,199.73963930263562 20.56308287876891,199.76597798447983 20.47281365474919,199.82919077594852 20.430054548662156,199.92927756612335 20.439556572237052,200.01882876995296 20.38254443075857,200.0557027580835 20.33978532467154,200.0820413078327 20.273271159589058,200.08730901644958 20.1592468766612,200.09784443239187 20.059475629066583,200.07677359876834 19.935949322534725,200.12418296451142 19.92169628717238,200.15578918853862 19.935949322534725,200.24007237510887 19.92644729895983,200.30855238121148 19.893190216447692,200.36122925835298 19.888439204660244,200.4191737723413 19.869435157481348,200.49818893286283 19.788667957065627,200.60354232609825 19.665141650562873,200.59300699469532 19.589125461905496,200.61934531989027 19.49410522612743,200.6878249138972 19.427591061074054,200.66148661731495 19.38958296677447,200.6140776557222 19.36582790777902,200.60880999113215 19.31831778990454,200.5666686584991 19.35632588423323,200.5508656514794 19.361076896020677,200.49818893286283 19.34207284884178,200.5508656514794 19.26605666024261,200.57193632661074 19.332570825266885,200.71943085525345 19.32306880169199,200.9248690878303 19.422840049257502,201.05129228273654 19.332570825266885,201.13557427179694 19.223297554126475,201.25146182272874 19.152032377256546,201.43582794189933 19.161534400860546,201.59385561482122 19.03800809432869,201.7624180292296 19.0,201.97312041334226 19.11402428295696,202.03106344549815 19.152032377256546,202.1469493500117 19.152032377256546,202.2522999874127 19.08551821220317,202.43139566689206 19.194791483372683,202.51040830489728 19.31831778990454,202.5788858443957 19.47035016719019,202.65263080372824 19.565370402968256,202.82119038681412 19.69839873307501,202.96867965228012 19.883688192843692,203.10563366121278 20.073728664428927,203.16357565234648 20.24001407707692,203.06876145731076 20.430054548662156,203.12143602772267 20.64385007918463,203.16884310345267 20.84814358613221,203.20571524881598 21.009677986992756,203.2215175902311 21.13795530531206,203.24785481711297 21.275734647206264,203.27419203298632 21.42776702446281,203.2847269162594 21.57504838996101,203.32686643174384 21.74608481436735,203.3215989938435 21.91237022698624,203.35847104986897 22.04064754533465,203.37427335297252 22.225937005103333,203.4216802385563 22.41122646490112,203.4269476680929 22.58701390112401,203.3795407864709 22.710540207655868,203.34266874277455 22.876825620274758,203.39534308431394 23.028857997560408,203.3795407864709 23.128629245155025,203.33213386919306 23.24740453987033,203.4216802385563 23.347175787435845,203.61657483808813 23.408938940701773,203.74826003721682 23.446947035030462,203.87467756956903 23.62273447122425,203.78513184367694 23.82702797820093,203.7956666415448 24.050325532298302,203.7271904238296 24.188104874192504,203.57443551627875 24.39714939292753,203.62184225133024 24.525426711246837,203.71665561450936 24.772479324310552,203.73245782783852 24.9245117015671,203.7113882091944 25.086046102427645,203.64817931096695 25.266584550437983,203.57443551627875 25.432869963056874,203.48488936388821 25.55639626958873,203.51649390277817 25.71317965866183,203.61130742440946 25.86996304767672,203.64817931096695 25.993489354208577,203.66398154146373 26.131268696131883,203.59550518070319 26.321309167688014,203.5849703493659 26.478092556761112,203.57970293304243 26.639626957592554,203.52702874555325 26.748900228762068,203.49542421194928 26.905683617835166,203.50069163533044 27.067218018637504,203.57970293304243 27.185993313411018,203.61130742440946 27.342776702455012,203.65344672157153 27.471054020774318,203.77986444406633 27.518564138677903,203.95895578363343 27.556572232977487,204.11170975945788 27.54707020940259,204.2908001563046 27.518564138677903,204.47515738635047 27.471054020774318,204.6489794237532 27.594580327306176,204.79646441297155 27.49480907971156,204.93868175440002 27.333274678880116,204.98082016431727 27.22875241949805,205.14937352237757 27.224001407710603,205.31265915826953 27.338025690667564,205.47594437125372 27.49005806792411,205.60762568661448 27.64684145699721,205.7024360633659 27.627837409818312,205.87098749223514 27.80837585782865,205.9131252790503 27.89864508184837,206.02900404755928 28.04592644731747,206.15541700669564 28.235966918902704,206.26076094570453 28.36899524900946,206.38190625795687 28.48301953196642,206.52938719350277 28.606545838469174,206.67160062609037 28.692064050701447,206.83488231978117 28.88210452228668,206.93495798757795 29.072144993871916,206.9402251235806 29.2574344536406,206.9823621958276 29.45697694880073,207.05610200449155 29.618511349632172,207.1193074861294 29.80855182124651,207.17724578866546 29.95108217492816,207.25625247903008 30.131620622909395,207.20884847670095 30.29790603555739,207.18778001975443 30.497448530746624,207.16144443870508 30.682737990515307,207.16144443870508 30.825268344196957,207.14564308479385 30.986802745057503,207.0929718764819 31.119831075135153,207.02449923991298 31.267112440633355,207.10350612168259 31.381136723561212,207.18251290443732 31.533169100846862,207.2404511488785 31.566426183359,207.37739587866963 31.628189336624928,207.52487448583634 31.751715643156786,207.64075029231753 31.832482843572507,207.7934953482836 31.913250043988228,207.7724270867002 31.979764209041605,207.72502347239788 31.979764209041605,207.64601736937766 32.05578039769898,207.74082468112465 32.13654759814381,207.8567000907933 32.24106985749677,207.96730823775943 32.359845152212074,208.01997871573258 32.54038360022241,207.9936434822339 32.51662854128517,207.97784233687707 32.559387647372205,207.97784233687707 32.56413865915965,207.98310938576833 32.559387647372205,208.01471166991905 32.63065282421303,207.96730823775943 32.62590181242558,207.96730823775943 32.63065282421303,207.96204118753303" stroke="#4DD2FF" stroke-dasharray="none" stroke-linecap="round" stroke-linejoin="round" stroke-width="0.5"><title>2026-03-14 12.0km</title><desc>9223370263378906807</desc></polyline></svg>