<?xml version="1.0" encoding="utf-8" ?>
<svg baseProfile="full" height="300mm" version="1.1" viewBox="0,0,200,300" width="200mm" xmlns="http://www.w3.org/2000/svg" xmlns:ev="http://www.w3.org/2001/xml-events" xmlns:xlink="http://www.w3.org/1999/xlink"><defs /><rect fill="#222222" height="300" width="200" x="0" y="0" /><text fill="#FFFFFF" style="font-size:12px; font-family:Arial; font-weight:bold;" x="10" y="20">Over 10km Runs</text><text fill="#FFFFFF" style="font-size:4px; font-family:Arial" x="10" y="280">Runner</text><text fill="#FFFFFF" style="font-size:9px; font-family:Arial" x="10" y="290">yihong0618</text><text fill="#FFFFFF" style="font-size:4px; font-family:Arial" x="65" y="280">SPECIAL TRACKS</text><rect fill="yellow" height="2.6" width="2.6" x="65" y="283" /><text fill="#FFFFFF" style="font-size:3px; font-family:Arial" x="70" y="285.5">Over 20.0 km</text><rect fill="red" height="2.6" width="2.6" x="65" y="287" /><text fill="#FFFFFF" style="font-size:3px; font-family:Arial" x="70" y="289.5">Over 40.0 km</text><text fill="#FFFFFF" style="font-size:4px; font-family:Arial" x="120" y="280">STATISTICS</text><text fill="#FFFFFF" style="font-size:3px; font-family:Arial" x="120" y="285">Number: 1</text><text fill="#FFFFFF" style="font-size:3px; font-family:Arial" x="120" y="290">Weekly: 1.0</text><text fill="#FFFFFF" style="font-size:3px; font-family:Arial" x="141" y="285">Total: 12.0 km</text><text fill="#FFFFFF" style="font-size:3px; font-family:Arial" x="141" y="290">Avg: 12.0 km</text><text fill="#FFFFFF" style="font-size:3px; font-family:Arial" x="167" y="285">Min: 12.0 km</text><text fill="#FFFFFF" style="font-size:3px; font-family:Arial" x="167" y="290">Max: 12.0 km</text><polyline fill="none" opacity="1" points="31.314622558507835,207.232550448829 31.238606369879562,207.1588108434371 31.1245820869226,207.06926977810144 31.02005982756964,207.11667388733986 30.89653352103778,207.13774236890822 30.787260249868268,207.18514642669106 30.677986978698755,207.17461219471443 30.573464719345793,207.15354372545335 30.43568537745159,207.1588108434371 30.283653000195045,207.1798793109192 30.131620622909395,207.19041354200817 29.993841281015193,207.25888600128383 29.87031497451244,207.21674911208174 29.689776526472997,207.1482766070476 29.590005278907483,207.11140676585637 29.414217842684593,207.085071151796 29.29069153618184,207.00606424364742 29.148161182471085,206.948125781415 28.99137779342709,206.9375915098317 28.85834946334944,206.97446145266076 28.658806968160206,206.88492012552524 28.573288755957037,206.73217286224462 28.525778638053453,206.6584326716693 28.421256378671387,206.5056848597269 28.354742213647114,206.41614286688127 28.250219954235945,206.28446323462413 28.18845680099912,206.24232569422747 28.06968150625471,206.19492092762084 27.903396093606716,206.1738521310217 27.841632940340787,206.04217199276172 27.855885975732235,205.92102602266823 27.708604610263137,205.95262934166385 27.59933133906452,205.84201765589023 27.60883336266852,205.66293165799289 27.49005806792411,205.63659543892936 27.366531761421356,205.56812121786788 27.29051557276398,205.44697433690817 27.17649128983612,205.3416290337991 27.152736230869778,205.17307618269115 27.257258490251843,204.99925558303585 27.42829491465818,204.9781863868775 27.566074256552383,204.82543450413868 27.5280661622528,204.70428619604354 27.456800985411974,204.5831376551505 27.452049973624526,204.43038481521216 27.532817174011143,204.28289896341084 27.556572232977487,204.12487802502437 27.537568185827695,203.98265884180364 27.49480907971156,203.84043933773864 27.3807847967837,203.71402173144816 27.214499384135706,203.6455454221832 27.224001407710603,203.65608024382527 27.2430054548895,203.65608024382527 27.214499384135706,203.66134765399693 27.22875241949805,203.66134765399693 27.219250395923154,203.66134765399693 27.214499384135706,203.66661506371747 27.214499384135706,203.66661506371747 27.133732183719985,203.5665342036773 27.138483195507433,203.42431376081004 27.17174027801957,203.31369763898692 27.257258490251843,203.22415111248483 27.338025690667564,203.16094172306475 27.442547950020526,203.07666243859057 27.566074256552383,202.98184810886596 27.684849551296793,202.8712312106145 27.72760865741293,202.77114908777367 27.67059651593445,202.67106680605139 27.57557628012728,202.576251866245 27.532817174011143,202.41295913562863 27.566074256552383,202.30760876234126 27.570825268368935,202.1917231483494 27.618335386243416,202.03896451349283 27.49480907971156,201.95468372887262 27.471054020774318,201.8809379499071 27.3807847967837,201.78085425471727 27.447298961837078,201.59122155435034 27.51381312686135,201.4806022156663 27.509062115073903,201.32257425218995 27.57557628012728,201.15401065444166 27.623086398059968,201.02758766029729 27.63733943339321,200.8906291304702 27.63258842160576,200.76420560801853 27.627837409818312,200.6377818319852 27.59933133906452,200.5376961627844 27.58032729194383,200.37439815073958 27.67059651593445,200.23217050520543 27.699102586659137,200.09521024688365 27.665845504147,199.9582496909461 27.67059651593445,199.80021791040053 27.661094492359553,199.62638249409065 27.675347527721897,199.43674331125294 27.181242301594466,198.67291304667378 27.105226112966193,198.66237739208736 27.071969030454056,198.58862776066235 27.02920992433792,198.48327099462404 27.00545486540068,198.44639608490252 26.972197782888543,198.36211049592748 26.905683617835166,198.30943194556676 26.843920464569237,198.25148548930156 26.763153264124412,198.20407471273575 26.71089213443338,198.11452092634863 26.63487594583421,198.04077065375532 26.511349639302352,197.93014508301349 26.435333450644976,197.87746617155062 26.359317262016702,197.8721982779898 26.235790955484845,197.90380563278813 26.131268696131883,197.924877193851 26.02199542496237,197.87746617155062 25.979236318846233,197.76684031413606 25.922224177367752,197.68255381620838 25.808199894439895,197.66148217412047 25.70367763505783,197.66675008530365 25.708428646845277,197.62460678350544 25.741685729357414,197.61933886879342 25.72268168220762,197.61407095363393 25.684673587908037,197.64041052498578 25.670420552545693,197.64041052498578 25.689424599695485,197.66675008530365 25.679922576091485,197.64041052498578 25.694175611482933,197.61933886879342 25.69892662327038,197.60880303805243 25.622910434642108,197.50344463380316 25.608657399279764,197.41388985169397 25.565898293163627,197.32960288166214 25.527890198864043,197.3137990622272 25.447122998419218,197.2663875801518 25.38535984515329,197.21370811378802 25.29509062116267,197.21370811378802 25.26183353862143,197.21370811378802 25.24282949147164,197.20844016472256 25.143058243906125,197.2505837448698 25.071793067036197,197.29799523882684 24.995776878437027,197.29799523882684 24.94351574871689,197.3348708205922 24.848495512938825,197.37701431618189 24.80098539503524,197.44549743637617 24.739222241798416,197.45603329441656 24.663206053170143,197.49290878368993 24.582438852725318,197.53505217357815 24.4921696287347,197.5824634534947 24.382896357565187,197.66675008530365 24.28787612178712,197.76684031413606 24.183353862405056,197.7826440199351 24.11208868556423,197.77210821650806 24.002815414394718,197.76684031413606 23.95055428473279,197.76157241130932 23.964807320095133,197.74050079565131 23.983811367244925,197.7510366043607 23.94580327294534,197.77210821650806 23.87928910786286,197.71942917291744 23.808023931022035,197.68255381620838 23.741509765968658,197.74050079565131 23.670244589156937,197.66675008530365 23.56097131795832,197.6983575431659 23.484955129330046,197.61407095363393 23.42319197609322,197.53505217357815 23.356677811039845,197.49817670897028 23.342424775648396,197.49290878368993 23.294914657744812,197.42442571500214 23.209396445541643,197.37701431618189 23.1951434101793,197.38755018567463 23.19039239839185,197.37174638076613 23.176139363029506,197.30853112154364 23.199894421966746,197.218976062406 23.180890374816954,197.15049269600058 23.114376209763577,197.06620537364506 23.090621150826337,197.0082577741341 23.05261305649765,196.9397741787143 23.019355973956408,196.82914667503428 23.005102938594064,196.74485892282246 22.924335738178343,196.5710150777777 22.881576632062206,196.4603869266648 22.81031145522138,196.41297480243884 22.796058419859037,196.32341847044154 22.720042231230764,196.2180579169035 22.68203413693118,196.12850130787047 22.66778110153973,196.1074291460718 22.63452401899849,196.1126971871745 22.64877705438994,196.1126971871745 22.63452401899849,196.10216110452166 22.644026042573387,196.10216110452166 22.644026042573387,196.09689306251676 22.686785148689523,196.05474871073238 22.691536160506075,196.02840847654443 22.639275030815043,196.03894457153 22.629773007211043,196.04948066476936 22.620270983636146,196.04948066476936 22.629773007211043,196.05474871073238 22.6250219954527,196.04948066476936 22.629773007211043,196.04421261836615 22.629773007211043,196.04421261836615 22.639275030815043,196.03894457153 180.90973077600938,92.0248983037418 180.81471054023132,92.08294288193065 180.81471054023132,92.08294288193065 180.81471054023132,92.08294288193065 180.7244413162407,92.14098740625923 23.08587013903889,196.98191793852675 23.11912722152192,197.10308109105245 23.185641386604402,197.19790426528198 23.16663733945461,197.30853112154364 23.19039239839185,197.45076536562192 23.24740453987033,197.54032009532602 23.299665669561364,197.65621426249345 23.299665669561364,197.82478721604275 23.328171740286052,198.00916336764203 23.36617983461474,198.17246750854974 23.380432869977085,198.31996765915756 23.385183881764533,198.47273530834718 23.36617983461474,198.65710956414114 23.380432869977085,198.75193039993246 23.280661622382468,198.857286716815 23.081119127222337,198.86782233879785 22.93383776175324,198.91523261601833 22.796058419859037,198.9626428575575 22.629773007211043,199.0363920512791 22.49199366531684,199.07853440893086 22.38272039417643,199.12594452763005 22.26394509943202,199.1838901797928 22.130916769296164,199.25237133640258 22.078655639634235,199.32085241860477 22.050149568909546,199.34192350584635 22.050149568909546,199.34719127655626 21.983635403827066,199.40513672530142 21.888615168078104,199.4262077843705 21.765088861546246,199.43674331125294 21.66531761395163,199.5210274629644 21.6130564842897,199.56843724876308 21.560795354569564,199.67379220063594 21.437269048037706,199.67379220063594 21.34699982404709,199.65272122434908 21.218722505727783,199.68959542822995 21.099947210983373,199.69486316987604 20.995424951601308,199.64218573356266 20.88140066867345,199.64218573356266 20.805384480045177,199.679059943599 20.7293682913878,199.71066639217315 20.610592996672494,199.75807603532303 20.50607073729043,199.78441471054248 20.458560619415948,199.8686983972948 20.425303536874708,199.96878512889452 20.411050501512364,200.05306856906827 20.35878937182133,200.0636039911733 20.320781277492642,200.09521024688365 20.230512053502025,200.11101336881256 20.125989794149064,200.08994253870333 19.997712475829758,200.1057456619419 19.90744325183914,200.13735189653744 19.93119831077638,200.18476121871936 19.92644729895983,200.26904437005214 19.90744325183914,200.33225665960344 19.893190216447692,200.3902012026665 19.8741861692979,200.44287801375322 19.831427063181764,200.54823150385346 19.731655815587146,200.59564051694906 19.64138659159653,200.61671117797596 19.54636635578936,200.6377818319852 19.451346120011294,200.67465545952655 19.41333802571171,200.6377818319852 19.370578919595573,200.62197884214402 19.337321837054333,200.59037285059458 19.313566778117092,200.56930218075286 19.35632588423323,200.50082245511658 19.37532993138302,200.50609012895802 19.327819813479437,200.54823150385346 19.299313742725644,200.64304949438156 19.304064754542196,200.81688210653374 19.361076896020677,200.974911337893 19.41333802571171,201.10660206135435 19.26130564842606,201.16454589251225 19.17578743622289,201.32257425218995 19.156783389073098,201.50694017105343 19.104522259382065,201.6755028249463 19.004751011787448,201.83352990358253 19.03800809432869,202.0336969677519 19.156783389073098,202.0916399466405 19.128277318319306,202.19699068088084 19.11877529474441,202.32341132954753 19.10927327114041,202.49197180004558 19.232799577672267,202.56571686414463 19.384831954957917,202.61312435977743 19.532113320427015,202.72374171097545 19.598627485480392,202.88176616166675 19.75541087455349,203.01872036515124 19.969206405075965,203.118802094923 20.140242829482304,203.13987191251 20.33978532467154,203.0713949795645 20.534576808015117,203.1504068186805 20.719866267812904,203.19254642570377 20.93366179833538,203.20834877106972 21.042935069533996,203.21888366578423 21.175963399611646,203.2820929970876 21.33274678865564,203.28736043851313 21.475277142366394,203.31369763898692 21.636811543197837,203.3347673914468 21.817349991208175,203.3347673914468 21.964631356706377,203.38744174176827 22.126165757508716,203.41377890042713 22.29245117015671,203.42431376081004 22.487242653529393,203.42958119034665 22.64877705438994,203.35056970116057 22.777054372709244,203.36637200693076 22.952841808932135,203.41904633084414 23.066866091859993,203.32949995399758 23.147633292275714,203.39797660656768 23.318669716682052,203.50859258050332 23.318669716682052,203.68768469821953 23.408938940701773,203.81936975429198 23.4897061411466,203.8141023573371 23.713003695273073,203.82990454689934 23.92679922579555,203.80356756208494 24.102586661989335,203.66134765399693 24.278374098212225,203.5401971088395 24.444659510802012,203.6508128332207 24.610944923450006,203.73509135009226 24.862748548330273,203.74035875365007 24.991025866620475,203.68768469821953 25.15731127926847,203.6086735325407 25.347351750853704,203.5665342036773 25.485131092747906,203.46118575829678 25.622910434642108,203.56126678558576 25.765440788323758,203.67188247299418 25.917473165609408,203.68768469821953 26.040999472112162,203.62974318640045 26.202533872972708,203.5770690385325 26.397325356316287,203.6139409466632 26.554108745389385,203.56126678558576 26.677635051921243,203.52439484664865 26.80591237024055,203.48752288614196 26.981699806434335,203.54546452868453 27.14798521908233,203.58760387161965 27.2430054548895,203.62447577358398 27.399788843933493,203.70348691946492 27.480556044349214,203.86677630713893 27.58032729194383,204.00899575178846 27.566074256552383,204.19335381362907 27.509062115073903,204.3566419324452 27.485307056136662,204.540998977649 27.566074256552383,204.6937515495556 27.57557628012728,204.85177106204355 27.42829491465818,204.9781863868775 27.271511525614187,205.04666124865616 27.20974837234826,205.215214437736 27.285764561005635,205.38903444197786 27.3807847967837,205.56285396702515 27.566074256552383,205.63659543892936 27.651592468784656,205.77354365793508 27.694351574900793,205.91575880130404 27.884392046456924,205.9315604640833 27.946155199722853,206.10537849344837 28.136195671308087,206.21598971718413 28.297730072168633,206.3213335593755 28.435509414062835,206.4424787603275 28.502023579116212,206.61102821791428 28.64930494458531,206.73217286224462 28.772831251117168,206.90598868453162 28.962871722702403,206.9375915098317 29.167165229620878,206.95866005123753 29.33820165405632,207.02713276216673 29.53774414921645,207.085071151796 29.689776526472997,207.14300948820528 29.865563962695887,207.21674911208174 30.03660038713133,207.26942021918512 30.193383776175324,207.18514642669106 30.38342424776056,207.1588108434371 30.573464719345793,207.1588108434371 30.749252155568684,207.16934507805854 30.89178250922123,207.1272081290117 31.04381488650688,207.0745369031065 31.18634524018853,207.0534684004233 31.309871546720387,207.15354372545335 31.45715291221859,207.1956806569142 31.547422136209207,207.29575575624403 31.580679218721343,207.44323456050915 31.68045046631596,207.5854459379443 31.794474749243818,207.6802533447226 31.856237902509747,207.78032767500554 31.927503079379676,207.76979354246578 31.956009150104364,207.69605456532008 31.9987682562205,207.66971919545176 32.08428646842367,207.7908618057918 32.17930670423084,207.90147007286942 32.2838289635838,208.02261223798632 32.43586134086945,208.02261223798632 32.54038360022241,208.00154405207286 32.51662854128517,207.98047585913082" stroke="#4DD2FF" stroke-dasharray="none" stroke-linecap="round" stroke-linejoin="round" stroke-width="0.5"><title>2026-03-14 12.0km</title><desc>9223370263378906807</desc></polyline></svg>