<?xml version="1.0" encoding="utf-8" ?>
<svg baseProfile="full" height="300mm" version="1.1" viewBox="0,0,200,300" width="200mm" xmlns="http://www.w3.org/2000/svg" xmlns:ev="http://www.w3.org/2001/xml-events" xmlns:xlink="http://www.w3.org/1999/xlink"><defs /><rect fill="#222222" height="300" width="200" x="0" y="0" /><text fill="#FFFFFF" style="font-size:12px; font-family:Arial; font-weight:bold;" x="10" y="20">Over 10km Runs</text><text fill="#FFFFFF" style="font-size:4px; font-family:Arial" x="10" y="280">Runner</text><text fill="#FFFFFF" style="font-size:9px; font-family:Arial" x="10" y="290">yihong0618</text><text fill="#FFFFFF" style="font-size:4px; font-family:Arial" x="65" y="280">SPECIAL TRACKS</text><rect fill="yellow" height="2.6" width="2.6" x="65" y="283" /><text fill="#FFFFFF" style="font-size:3px; font-family:Arial" x="70" y="285.5">Over 20.0 km</text><rect fill="red" height="2.6" width="2.6" x="65" y="287" /><text fill="#FFFFFF" style="font-size:3px; font-family:Arial" x="70" y="289.5">Over 40.0 km</text><text fill="#FFFFFF" style="font-size:4px; font-family:Arial" x="120" y="280">STATISTICS</text><text fill="#FFFFFF" style="font-size:3px; font-family:Arial" x="120" y="285">Number: 1</text><text fill="#FFFFFF" style="font-size:3px; font-family:Arial" x="120" y="290">Weekly: 1.0</text><text fill="#FFFFFF" style="font-size:3px; font-family:Arial" x="141" y="285">Total: 12.0 km</text><text fill="#FFFFFF" style="font-size:3px; font-family:Arial" x="141" y="290">Avg: 12.0 km</text><text fill="#FFFFFF" style="font-size:3px; font-family:Arial" x="167" y="285">Min: 12.0 km</text><text fill="#FFFFFF" style="font-size:3px; font-family:Arial" x="167" y="290">Max: 12.0 km</text><polyline fill="none" opacity="1" points="30.012845328164985,207.55120835434718 29.889319021633128,207.5301399150194 29.73728664437658,207.44586608732425 29.628013373236172,207.41426337289886 29.49023403134197,207.38792776544142 29.36195671299356,207.32998939032404 29.214675347524462,207.28258522562828 29.086398029205156,207.22464675371884 28.96762273448985,207.22464675371884 28.806088333629305,207.24571529512468 28.65405595637276,207.1719753694124 28.56853774416959,207.00869379848154 28.525778638053453,206.9507550748931 28.41650536688394,206.81907595964367 28.378497272584355,206.70846529032497 28.26922400141484,206.58205285923032 28.221713883511256,206.56098409606784 28.112440612370847,206.51357935320993 28.01266936477623,206.45564017466313 27.893894070060924,206.39770094287087 27.86538799930713,206.2923567486505 27.80837585782865,206.21334848748302 27.680098539509345,206.239684585551 27.60883336266852,206.10800398524952 27.60408235088107,205.94998690188004 27.49005806792411,205.92365068281651 27.376033784996253,205.8709782116748 27.304768608126324,205.75509862029867 27.214499384135706,205.66028788709446 27.162238254473777,205.51280424095967 27.17174027801957,205.3653202498208 27.357029737817356,205.2810435285428 27.49956009152811,205.22310321732584 27.556572232977487,205.05454928190738 27.49480907971156,204.97553946954213 27.46155199719942,204.83332155777316 27.442547950020526,204.69637067283475 27.532817174011143,204.56468684907304 27.55182122119004,204.41720063989487 27.54707020940259,204.27498146856306 27.485307056136662,204.15909894358265 27.409290867537493,204.02214659397941 27.29051557276398,203.93786807710785 27.22875241949805,203.94313548771242 27.247756466676947,203.94313548771242 27.2335034312855,203.94840289788408 27.219250395923154,203.94840289788408 27.22875241949805,203.93786807710785 27.214499384135706,203.95893771688134 27.214499384135706,203.95893771688134 27.214499384135706,203.95367030760463 27.138483195507433,203.85885686520487 27.133732183719985,203.72717129197918 27.162238254473777,203.63762494504772 27.238254443072947,203.53227613875424 27.319021643488668,203.45326441848738 27.3807847967837,203.39532242735368 27.504311103286454,203.30050814518108 27.618335386243416,203.20042624814596 27.70385359847569,203.1319490691676 27.71810663380893,203.03186690451184 27.642090445180656,202.94758706367065 27.570825268368935,202.84750460630312 27.532817174011143,202.70001437951578 27.566074256552383,202.59993152906827 27.570825268368935,202.50511605049905 27.60883336266852,202.35235747944535 27.52331515046535,202.25227407700368 27.480556044349214,202.21013364948158 27.40453985572094,202.1311202719553 27.399788843933493,201.93622018389215 27.471054020774318,201.8466712927002 27.49956009152811,201.7149815157427 27.504311103286454,201.55695342021136 27.594580327306176,201.4147277954653 27.623086398059968,201.29357238049852 27.642090445180656,201.17241673266108 27.63733943339321,201.05652850374463 27.627837409818312,200.93537240022124 27.59933133906452,200.85635742464 27.59933133906452,200.73520093633124 27.64684145699721,200.55083192028542 27.70385359847569,200.42967484465407 27.699102586659137,200.31378525001855 27.661094492359553,200.17682454524402 27.675347527721897,200.02932806877652 27.67059651593445,199.86602799576212 27.665845504147,199.7185307919135 27.181242301594466,198.95996829056094 27.105226112966193,198.94943263597452 27.071969030454056,198.8756830045495 27.014956888975576,198.7808619230418 27.00070385361323,198.74398701948667 26.981699806434335,198.66496929632558 26.938940700347302,198.60175504647123 26.867675523506477,198.5385407331887 26.801161358482204,198.5069335527878 26.753651240549516,198.46479062089566 26.691888087254483,198.37523679707374 26.60161886329297,198.29095072896598 26.5065986274858,198.2066645481391 26.42583142707008,198.15925352187696 26.359317262016702,198.15925352187696 26.240541967272293,198.1908608766753 26.150272743281676,198.2066645481391 26.036248460324714,198.19612876760948 25.98873834242113,198.08023506548489 25.950730248121545,197.9959486028165 25.86996304767672,197.94853741800762 25.741685729357414,197.98541278705306 25.708428646845277,197.92219785548878 25.708428646845277,197.90112619752108 25.72268168220762,197.9116620273926 25.69892662327038,197.91692994164987 25.684673587908037,197.93800159430612 25.670420552545693,197.92746576887293 25.69892662327038,197.9538053291908 25.684673587908037,197.93273368180962 25.69892662327038,197.92219785548878 25.70367763505783,197.92219785548878 25.637163470004452,197.81157157263442 25.618159422825556,197.7430885383037 25.58490234031342,197.64299781579757 25.542143234197283,197.60612224637225 25.513637163472595,197.56924665537008 25.43762097484432,197.52710309636313 25.36160478621605,197.5218351495132 25.29509062116267,197.4954954086097 25.257082526833983,197.50603130629315 25.24282949147164,197.4954954086097 25.147809255693574,197.52710309636313 25.086046102427645,197.57978254070258 25.02903396092006,197.56924665537008 24.972021819470683,197.60612224637225 24.891254619025858,197.65880162465328 24.829491465789033,197.71674888990674 24.777230336098,197.7430885383037 24.72021819461952,197.758892322061 24.653704029566143,197.77469610186017 24.56818581733387,197.8326432605245 24.463663557980908,197.86425077916283 24.382896357565187,197.9538053291908 24.297378145332914,198.0433597519368 24.188104874192504,198.06443136233793 24.131092732714023,198.0538955580232 24.02181946154451,198.04862765519647 23.94580327294534,198.0538955580232 23.964807320095133,198.02755603953847 23.96955833188258,198.04862765519647 23.96955833188258,198.0433597519368 23.91729720219155,198.0433597519368 23.865036072500516,197.99068069515124 23.79852190744714,197.9748769695252 23.722505718818866,198.03282394411144 23.670244589156937,197.94853741800762 23.575224353349768,197.98541278705306 23.484955129330046,197.90639411268057 23.42794298788067,197.82737533921318 23.36142882279819,197.7904998776903 23.347175787435845,197.795767802083 23.323420728498604,197.7483564666727 23.261657575232675,197.67460542956178 23.19039239839185,197.67460542956178 23.1951434101793,197.6798733636424 23.185641386604402,197.65353368880096 23.176139363029506,197.57978254070258 23.204645433754195,197.49022745911498 23.176139363029506,197.4322799855545 23.11912722152192,197.35852857848658 23.090621150826337,197.30584894915955 23.05261305649765,197.24263333584167 23.028857997560408,197.1425418183644 23.005102938594064,197.0319141667096 22.976596867869375,196.87387432740798 22.900580679212,196.80539027393752 22.853070561337518,196.74744217055195 22.81031145522138,196.68422599698533 22.772303360921796,196.57886556676021 22.70578919586842,196.4840410289471 22.68203413693118,196.40502047173504 22.663030089752283,196.39448438995896 22.63452401899849,196.39975243106164 22.64877705438994,196.39975243106164 22.639275030815043,196.39448438995896 22.629773007211043,196.3892163484088 22.639275030815043,196.3892163484088 22.65827907793573,196.3892163484088 22.70578919586842,196.31546372043158 22.691536160506075,196.33653590865651 22.6155199718487,196.32599981541716 22.629773007211043,196.33653590865651 22.620270983636146,196.35234004521044 22.6250219954527,196.34180395461954 22.6250219954527,196.33653590865651 22.629773007211043,196.33653590865651 22.63452401899849,196.32599981541716 22.639275030815043,196.3312678622533 181.0,92.25390891559073 180.81471054023132,92.3699981258178 180.81471054023132,92.3699981258178 180.81471054023132,92.3699981258178 180.81471054023132,92.3699981258178 180.7244413162407,92.42804265014638 23.090621150826337,197.27950911798325 23.138131268700818,197.4059402072162 23.185641386604402,197.49022745911498 23.16663733945461,197.60612224637225 23.185641386604402,197.72201682045852 23.237902516295435,197.81683949528087 23.290163645986468,197.93273368180962 23.294914657744812,198.0538955580232 23.318669716682052,198.1908608766753 23.347175787435845,198.3963082964765 23.375681858189637,198.54907645648927 23.385183881764533,198.65970144459789 23.380432869977085,198.8335403192832 23.37093084640219,198.97050394340476 23.37093084640219,199.06005692128747 23.256906563445227,199.154877582685 23.07636811543489,199.16014539303433 22.948090797115583,199.20228785990548 22.81031145522138,199.24443029857866 22.65827907793573,199.312911701345 22.53000175964553,199.36032185965814 22.401724441326223,199.39719640256953 22.316206229123054,199.44987428360764 22.202181946166093,199.50255212059346 22.09290867499658,199.57103324286436 22.06440260427189,199.6184432069931 22.050149568909546,199.6289787497335 22.031145521759754,199.6342465204434 21.97888439206872,199.69219196918857 21.883864156261552,199.71326302825764 21.765088861546246,199.7237985551401 21.68432166110142,199.80281495067902 21.617807496048044,199.83442148114045 21.57504838996101,199.93450872305766 21.48477916594129,199.97138293002354 21.389758930163225,199.93977646823623 21.270983635418816,199.9555797011053 21.1712123878242,199.9766506721171 21.061939116654685,199.96611518748614 20.971669892664067,199.9292409774498 20.867147633311106,199.94504421297097 20.79588245647028,199.96611518748614 20.724617279600352,200.00298937594198 20.624846032063942,200.03986354284643 20.529825796256773,200.06620222026322 20.468062642990844,200.13995045848787 20.430054548662156,200.23476949512406 20.439556572237052,200.31378525001855 20.38254443075857,200.3453915242244 20.344536336429883,200.37699778259048 20.292275206767954,200.3822654907708 20.192503959173337,200.39806861269972 20.092732711607823,200.36646236490924 19.98345944043831,200.39280090582906 19.912194263597485,200.42967484465407 19.93119831077638,200.4718164626065 19.92644729895983,200.5560996139393 19.90744325183914,200.6087765263037 19.90269224002259,200.66145339462673 19.883688192843692,200.71413021893386 19.864684145723004,200.79841304622823 19.788667957065627,200.89323109223915 19.679394685925217,200.8826957608362 19.598627485480392,200.90903408603117 19.513109273277223,200.9564430436476 19.427591061074054,200.9564430436476 19.41333802571171,200.91430174975903 19.36582790777902,200.91430174975903 19.34207284884178,200.87216042766158 19.31831778990454,200.85635742464 19.370578919595573,200.79314537284517 19.38008094317047,200.79314537284517 19.332570825266885,200.84582208706706 19.26605666024261,200.87216042766158 19.332570825266885,201.00911962139435 19.313566778117092,201.19875493678046 19.40383600210771,201.31464290418444 19.36582790777902,201.4147277954653 19.23755058948882,201.48320684003556 19.152032377256546,201.6517703250829 19.17578743622289,201.81506577133405 19.099771247594617,201.96782564451132 19.004751011787448,202.12058514746968 19.023755058966344,202.31021711884023 19.137779341894202,202.3470899359163 19.133028330135858,202.44190565220197 19.142530353710754,202.5630588599015 19.08551821220317,202.72108443303296 19.190040471585235,202.8053645767286 19.304064754542196,202.8685746105366 19.432342072861502,202.9212495903048 19.560619391180808,203.05820433166082 19.631884568021633,203.19515877548474 19.79341896888218,203.3268454600875 19.988210452225758,203.40585733881016 20.125989794149064,203.4321946097043 20.316030265705194,203.3531827639963 20.477564666536637,203.43746206256765 20.672356149938423,203.46379932024502 20.862396621523658,203.50067146253787 21.009677986992756,203.51120635637199 21.133204293524614,203.53227613875424 21.25197958823992,203.55861335682857 21.394509941950673,203.56914824097476 21.527538272057427,203.60602032164388 21.670068625709973,203.62182263533396 21.82685201478307,203.62182263533396 21.964631356706377,203.67449698565542 22.11666373393382,203.70083414431429 22.273447123006918,203.7061015747313 22.444483547413256,203.7166364342338 22.6155199718487,203.6534272508179 22.72954425480566,203.62709007233934 22.876825620274758,203.68503185045483 23.024106985743856,203.6692295526118 23.123878233338473,203.59548544365316 23.209396445541643,203.7113690046972 23.342424775648396,203.8325197725717 23.3329227520735,204.0168791899705 23.41844096427667,204.13802937070795 23.499208164721495,204.09589020381827 23.70825268345652,204.10642499817914 23.898293155041756,204.0853554076857 24.074080591264647,203.96947253414328 24.216610944917193,203.85885686520487 24.40190040471498,203.9167984302876 24.525426711246837,204.00634438065026 24.739222241798416,204.02741399753722 24.91976068977965,204.0168791899705 25.052789019915508,203.95367030760463 25.200070385384606,203.86412428241965 25.38060883336584,203.8325197725717 25.489882104535354,203.7535084286319 25.632412458217004,203.85358944756445 25.765440788323758,203.95893771688134 25.898469118430512,203.96947253414328 26.02199542496237,203.93260066607036 26.155023755069124,203.879926531401 26.326060179504566,203.879926531401 26.478092556761112,203.86939169918332 26.62537392223021,203.82725235272665 26.729896181612276,203.78511297809018 26.867675523506477,203.77984555427975 27.019707900763024,203.8483220294729 27.17649128983612,203.879926531401 27.271511525614187,203.9167984302876 27.399788843933493,203.99054216335207 27.480556044349214,204.14329676459965 27.570825268368935,204.28024885100967 27.55182122119004,204.43827011948088 27.532817174011143,204.60682570259814 27.51381312686135,204.77011349399618 27.471054020774318,204.9386681898941 27.594580327306176,205.06508391605894 27.5280661622528,205.21256860954963 27.366531761421356,205.27050893045816 27.2430054548895,205.38638941253157 27.200246348773362,205.5391406316594 27.295266584551428,205.68662421617773 27.3807847967837,205.8499092109123 27.561323244764935,205.92365068281651 27.656343480543,206.04479719943265 27.661094492359553,206.18701237843197 27.841632940340787,206.2028140451912 27.908147105423268,206.33449444746293 28.04592644731747,206.44510577283654 28.21696287172381,206.54518251907575 28.345240190043114,206.66106065836357 28.47351750836242,206.77693858469502 28.559035720594693,206.92441927383334 28.658806968160206,207.04556386758486 28.79658631005441,207.20357820527715 28.9723737462773,207.22464675371884 29.157663206075085,207.24571529512468 29.300193559756735,207.29311948753457 29.504487066704314,207.3563250219886 29.647017420385964,207.41953049305448 29.827555868396303,207.46693455480636 29.95108217492816,207.54594124517098 30.112616575759603,207.5038043559689 30.27415097662015,207.48273590080134 30.449938412813935,207.44586608732425 30.620974837220274,207.4405989693405 30.773007214505924,207.45113320484597 30.915537568216678,207.403729131227 31.04856589832343,207.3563250219886 31.18159422840108,207.32998939032404 31.295618511358043,207.43006473209243 31.42389582967735,207.47746878589533 31.542671124392655,207.54067413556186 31.56167517157155,207.6776188424774" stroke="#4DD2FF" stroke-dasharray="none" stroke-linecap="round" stroke-linejoin="round" stroke-width="0.5"><title>2026-03-14 12.0km</title><desc>9223370263378906807</desc></polyline></svg>