<?xml version="1.0" encoding="utf-8" ?>
<svg baseProfile="full" height="300mm" version="1.1" viewBox="0,0,200,300" width="200mm" xmlns="http://www.w3.org/2000/svg" xmlns:ev="http://www.w3.org/2001/xml-events" xmlns:xlink="http://www.w3.org/1999/xlink"><defs /><rect fill="#222222" height="300" width="200" x="0" y="0" /><text fill="#FFFFFF" style="font-size:12px; font-family:Arial; font-weight:bold;" x="10" y="20">Over 10km Runs</text><text fill="#FFFFFF" style="font-size:4px; font-family:Arial" x="10" y="280">Runner</text><text fill="#FFFFFF" style="font-size:9px; font-family:Arial" x="10" y="290">yihong0618</text><text fill="#FFFFFF" style="font-size:4px; font-family:Arial" x="65" y="280">SPECIAL TRACKS</text><rect fill="yellow" height="2.6" width="2.6" x="65" y="283" /><text fill="#FFFFFF" style="font-size:3px; font-family:Arial" x="70" y="285.5">Over 20.0 km</text><rect fill="red" height="2.6" width="2.6" x="65" y="287" /><text fill="#FFFFFF" style="font-size:3px; font-family:Arial" x="70" y="289.5">Over 40.0 km</text><text fill="#FFFFFF" style="font-size:4px; font-family:Arial" x="120" y="280">STATISTICS</text><text fill="#FFFFFF" style="font-size:3px; font-family:Arial" x="120" y="285">Number: 1</text><text fill="#FFFFFF" style="font-size:3px; font-family:Arial" x="120" y="290">Weekly: 1.0</text><text fill="#FFFFFF" style="font-size:3px; font-family:Arial" x="141" y="285">Total: 12.0 km</text><text fill="#FFFFFF" style="font-size:3px; font-family:Arial" x="141" y="290">Avg: 12.0 km</text><text fill="#FFFFFF" style="font-size:3px; font-family:Arial" x="167" y="285">Min: 12.0 km</text><text fill="#FFFFFF" style="font-size:3px; font-family:Arial" x="167" y="290">Max: 12.0 km</text><polyline fill="none" opacity="1" points="31.48090797115583,207.24571825937528 31.381136723561212,207.22464981476878 31.286116487783147,207.22991692657524 31.200598275579978,207.1193074861294 31.091325004410464,207.0613691303879 30.977300721453503,207.1193074861294 30.863276438525645,207.16144443870508 30.739750131964684,207.19304713466045 30.644729896186618,207.15617732118335 30.52595460144221,207.1509102031996 30.392926271335455,207.1509102031996 30.23614288229146,207.17197867246068 30.09361252860981,207.22464981476878 29.95583318671561,207.25098536942096 29.827555868396303,207.1667115558048 29.656519443931757,207.13510884665448 29.5519971846079,207.08243762954226 29.385711771959905,207.0613691303879 29.238430406490806,206.99816359066244 29.09114904102171,206.93495798757795 28.95812071088585,206.93495798757795 28.67781101531,206.8822866032715 28.63980292098131,206.87701946242305 28.573288755957037,206.697936411736 28.502023579116212,206.63473050769244 28.42600739048794,206.46091394491305 28.316734119318426,206.37663907531896 28.24071793066105,206.27656252136876 28.136195671308087,206.23442497745054 28.036424423742574,206.16595140852223 27.89864508184837,206.12908099444758 27.860636987519683,206.0079351964123 27.798873834253754,205.92365972134212 27.656343480543,205.9447286006689 27.618335386243416,205.77091013568133 27.57557628012728,205.64449640562452 27.452049973624526,205.62342742596957 27.333274678880116,205.5233496764631 27.257258490251843,205.40746997859242 27.152736230869778,205.2863227939888 27.162238254473777,205.1283043772637 27.333274678880116,204.9966220607821 27.475805032561766,204.954483661415 27.561323244764935,204.77012783306418 27.49005806792411,204.6805833790495 27.471054020774318,204.53836545539525 27.452049973624526,204.3645431130135 27.542319197615143,204.2328592012309 27.570825268368935,204.08010551896223 27.485307056136662,203.95368839856383 27.46155199719942,203.78513184367694 27.361780749604804,203.66924895074044 27.224001407710603,203.65344672157153 27.22875241949805,203.65344672157153 27.238254443072947,203.65871413174318 27.219250395923154,203.65871413174318 27.22875241949805,203.64817931096695 27.20974837234826,203.66398154146373 27.214499384135706,203.66924895074044 27.219250395923154,203.66398154146373 27.128981171903433,203.50595905824957 27.157487242657226,203.39534308431394 27.195495336985914,203.2847269162594 27.271511525614187,203.20044780080207 27.35227872602991,203.1319709365198 27.475805032561766,203.04242415561748 27.59933133906452,202.93180736827344 27.699102586659137,202.84752778096663 27.71810663380893,202.74217813837095 27.627837409818312,202.64736330948654 27.566074256552383,202.5314783249778 27.55182122119004,202.38925555279639 27.570825268368935,202.2733700937606 27.570825268368935,202.13641427658877 27.60883336266852,202.00999325814337 27.480556044349214,201.93624754697157 27.442547950020526,201.87303686870655 27.40453985572094,201.72027746789172 27.471054020774318,201.56751769683615 27.49956009152811,201.43056034597248 27.509062115073903,201.26199704406827 27.60408235088107,201.1250390293244 27.627837409818312,200.97227781563925 27.661094492359553,200.84585446225174 27.618335386243416,200.7246985106176 27.618335386243416,200.59827466062052 27.589829315518728,200.49818893286283 27.589829315518728,200.32435544898544 27.699102586659137,200.18739539671515 27.699102586659137,200.0557027580835 27.656343480543,199.90820667614025 27.675347527721897,199.74490703989431 27.67059651593445,199.57107147828356 27.67059651593445,199.4288420257726 27.16698926623212,198.68081517726387 27.081471054028952,198.65974386983362 27.052964983304264,198.5438515531423 27.02920992433792,198.45429825334577 27.00070385361323,198.42269117596516 26.96744677107199,198.33313770400127 26.905683617835166,198.25938769034838 26.815414393815445,198.22778051521527 26.76790427591186,198.19090545751897 26.696639099071035,198.09081590644564 26.592116839718074,197.99599407982896 26.5065986274858,197.89590421916 26.430582438857527,197.8537610723797 26.326060179504566,197.89063632735633 26.202533872972708,197.90644000146858 26.093260601803195,197.91170789194803 26.007742389600025,197.8537610723797 25.960232271725545,197.73786727339757 25.898469118430512,197.6641165630499 25.765440788323758,197.67992029395464 25.69892662327038,197.64304491566872 25.708428646845277,197.61143743138018 25.71317965866183,197.6219732612517 25.69892662327038,197.62724117550897 25.679922576091485,197.63777700273204 25.684673587908037,197.64304491566872 25.670420552545693,197.65884865186672 25.67517156433314,197.63777700273204 25.69892662327038,197.61143743138018 25.670420552545693,197.56929409434815 25.618159422825556,197.4586677005318 25.599155375675764,197.37438079392814 25.55639626958873,197.31643348023135 25.513637163472595,197.27955788922918 25.43762097484432,197.23741433022224 25.352102762641152,197.24268227663197 25.29509062116267,197.19527074302823 25.26183353862143,197.20053869297408 25.195319373568054,197.22161048832277 25.119303184968885,197.26375405789804 25.057540031673852,197.30062965814795 24.98152384304558,197.3058975992899 24.915009677992202,197.35857698637847 24.83424247757648,197.41125632944022 24.78198134788545,197.44813184336817 24.72021819461952,197.4692035559201 24.653704029566143,197.48500733571927 24.558683793788077,197.55349033570383 24.45891254619346,197.58509784905254 24.354390286811395,197.69045611236288 24.25461903924588,197.77474259619703 24.145345768076368,197.77474259619703 24.064578567660647,197.77474259619703 23.96955833188258,197.76420679188232 23.964807320095133,197.73786727339757 23.964807320095133,197.73786727339757 23.95055428473279,197.74313517797054 23.91729720219155,197.7536709857959 23.86028506074217,197.69572402091217 23.79377089565969,197.6851882033843 23.703501671669073,197.722063557012 23.64648953016149,197.64831282816522 23.541967270808527,197.67992029395464 23.456449058605358,197.57982993124097 23.38993489355198,197.5324186513244 23.356677811039845,197.49554318671653 23.33767376386095,197.48500733571927 23.266408587020123,197.39545253113465 23.1951434101793,197.37964872888915 23.1951434101793,197.3901845975015 23.180890374816954,197.36384492266006 23.180890374816954,197.27955788922918 23.1951434101793,197.19527074302823 23.142882280488266,197.12678735372901 23.114376209763577,197.05830389000766 23.08587013903889,196.98982035184235 23.043111032922752,196.90553281808388 23.009853950381512,196.7843692907736 22.98609889144427,196.5999895630266 22.910082702816,196.54204153716273 22.872074608516414,196.4630214160061 22.81031145522138,196.39453723084443 22.76755234913435,196.28390877449056 22.691536160506075,196.1890842287321 22.677283125114627,196.10479562381806 22.639275030815043,196.094259540263 22.620270983636146,196.11006366492074 22.644026042573387,196.11533170559414 22.63452401899849,196.10479562381806 22.644026042573387,196.11006366492074 22.64877705438994,196.10479562381806 22.70578919586842,196.01523885754068 22.691536160506075,196.02577495429068 22.6155199718487,196.03104300201085 22.629773007211043,196.05211518847864 22.620270983636146,196.06265127906954 22.6250219954527,196.05211518847864 22.6250219954527,196.04684714251562 22.629773007211043,196.0415790961124 22.629773007211043,196.0415790961124 22.644026042573387,196.03631104927626 180.90973077600938,92.02226478148805 180.81471054023132,92.0803093596769 180.81471054023132,92.0803093596769 180.81471054023132,92.0803093596769 180.7244413162407,92.13835388400548 23.09537216258468,196.99508831895582 23.147633292275714,197.12151939763135 23.180890374816954,197.226878436064 23.180890374816954,197.34277317487795 23.199894421966746,197.47447148296487 23.27115959880757,197.57982993124097 23.304416681348812,197.722063557012 23.313918704923708,197.8537610723797 23.33767376386095,198.0539407686083 23.356677811039845,198.22778051521527 23.380432869977085,198.35947697367374 23.380432869977085,198.53858371549723 23.37093084640219,198.6913508283069 23.37093084640219,198.7809037912375 23.209396445541643,198.87572443680256 23.033609009347856,198.88626005528204 22.891078655637102,198.91259909376458 22.748548301955452,198.97581274122058 22.582262889336562,199.0390263252666 22.444483547413256,199.08643647170538 22.354214323451743,199.13911437033312 22.225937005103333,199.19706000798396 22.10241069860058,199.27607670073485 22.06440260427189,199.3287544408522 22.050149568909546,199.3392899835926 22.021643498155754,199.36036106378015 21.950378321344033,199.39723543717992 21.850607073749416,199.4288420257726 21.74608481436735,199.46044859851827 21.636811543197837,199.52366169645393 21.598803448898252,199.58687473097598 21.532289283844875,199.67642642134524 21.423016012646258,199.66062319111734 21.299489706143504,199.6658909349644 21.190216435003094,199.6869619059762 21.066690128471237,199.67642642134524 20.96216786908917,199.6342844652645 20.84339257434476,199.66062319111734 20.77212739753304,199.68169416388264 20.691360197088216,199.73963930263562 20.582086925947806,199.75544251306928 20.491817701928085,199.7975843881468 20.439556572237052,199.8976712285148 20.439556572237052,199.99249019380295 20.396797466120915,200.0557027580835 20.349287348246435,200.07677359876834 20.306528242130298,200.08730901644958 20.192503959173337,200.10837984655882 20.092732711607823,200.07677359876834 19.95970438150107,200.11364755299292 19.916945275414037,200.1452537823061 19.93119831077638,200.2137338914181 19.92644729895983,200.3032846910719 19.89794122823514,200.35596157261898 19.888439204660244,200.40863841011742 19.864684145723004,200.46658288053732 19.81717402781942,200.57193632661074 19.69364772128756,200.58247166152069 19.603378497296944,200.62461298361814 19.513109273277223,200.6667542775067 19.427591061074054,200.6667542775067 19.40383600210771,200.6140776557222 19.370578919595573,200.61934531989027 19.327819813479437,200.57193632661074 19.35632588423323,200.5508656514794 19.370578919595573,200.49818893286283 19.346823860658333,200.5455979815997 19.304064754542196,200.56140098992182 19.31831778990454,200.6720219372728 19.299313742725644,200.87219268178524 19.39908499032026,201.00915124594394 19.36582790777902,201.1250390293244 19.23755058948882,201.19878568963395 19.147281365498202,201.37788436256233 19.190040471585235,201.5517149407715 19.06176315326593,201.7255450395969 19.004751011787448,201.88357198614904 19.08551821220317,202.01526080564145 19.161534400860546,202.11007658532617 19.147281365498202,202.22069481466679 19.104522259382065,202.38925555279639 19.161534400860546,202.4946057852285 19.280309695575852,202.57361834399126 19.418089037499158,202.6262933281614 19.565370402968256,202.78431801653642 19.655639626958873,202.92653989735845 19.84092908675666,203.0634939978554 20.026218546554446,203.1319709365198 20.18300193559844,203.07402891633683 20.38254443075857,203.0950987480246 20.582086925947806,203.1530407488426 20.781629421078833,203.19518035233705 20.981171916238964,203.20571524881598 21.095196199195925,203.2215175902311 21.237726552877575,203.26892459068767 21.389758930163225,203.27419203298632 21.527538272057427,203.31633155550298 21.703325708280317,203.32686643174384 21.869611120899208,203.33740130619844 22.021643498155754,203.37427335297252 22.168924863624852,203.4111453781734 22.354214323451743,203.43221509719297 22.55850783039932,203.40061051604062 22.69628717226442,203.32686643174384 22.829315502371173,203.3795407864709 23.009853950381512,203.40061051604062 23.11912722152192,203.3005292378548 23.199894421966746,203.4216802385563 23.356677811039845,203.56390068142355 23.356677811039845,203.74826003721682 23.42319197609322,203.90101452356612 23.551469294383423,203.76932964353546 23.770015836693347,203.8378058154849 23.983811367244925,203.76406224261154 24.150096779863816,203.63237707650114 24.344888263265602,203.56916809906397 24.48741861691815,203.695585990572 24.686961112107383,203.7429926345285 24.900756642629858,203.73772523139633 25.043286996311508,203.66924895074044 25.214323420717847,203.57443551627875 25.39486186875729,203.52702874555325 25.518388175260043,203.49542421194928 25.679922576091485,203.57970293304243 25.812950906227343,203.64817931096695 25.96498328348389,203.6745163595915 26.083758578199195,203.600772595717 26.25954601445119,203.57970293304243 26.440084462432424,203.600772595717 26.60161886329297,203.5428310064308 26.72039415803738,203.50595905824957 26.858173499902477,203.48488936388821 27.02920992433792,203.558633263332 27.185993313411018,203.600772595717 27.304768608126324,203.63764448843358 27.442547950020526,203.73772523139633 27.485307056136662,203.91154930207995 27.58032729194383,204.05903601650425 27.566074256552383,204.2539286456049 27.509062115073903,204.42775129295842 27.46155199719942,204.60157346106644 27.594580327306176,204.74379124213374 27.542319197615143,204.89654331632119 27.366531761421356,204.98082016431727 27.2430054548895,205.1019679359706 27.200246348773362,205.2757882451806 27.319021643488668,205.43380629226158 27.437796938233078,205.59709119150284 27.618335386243416,205.66029813573914 27.63733943339321,205.81831521910863 27.756114728137618,205.9131252790503 27.893894070060924,205.9763319064623 28.00791835298878,206.13434819777467 28.18845680099912,206.23442497745054 28.326236142893322,206.36083752473132 28.468766496574972,206.48198264471284 28.563786732353037,206.6399976687935 28.673060003551655,206.78747800066776 28.834594404353993,206.93495798757795 29.02938588775578,206.9296908511351 29.219426359341014,206.97709506333194 29.3952137955348,207.05610200449155 29.57575224354514,207.1140403650861 29.765792715130374,207.1509102031996 29.91782509238692,207.2404511488785 30.084110505034914,207.23518403793423 30.250395917653805,207.19304713466045 30.43568537745159,207.15617732118335 30.635227872611722,207.1509102031996 30.787260249868268,207.15617732118335 30.953545662516262,207.10350612168259 31.06756994544412,207.05083487816955 31.21960232272977,207.07717050541396 31.352630652836524,207.18251290443732 31.50466303009307,207.20884847670095 31.55217314796755,207.33525907040894 31.604434277687687,207.48273777610666 31.7137075488572,207.61441490046127 31.81347879639361,207.71975640195524 31.894245996838436,207.7724270867002 31.956009150104364,207.75662588590058 31.970262185495812,207.6618185979096 32.03202533876174,207.70395518794248 32.108041527390014,207.81983066536122 32.212563786742976,207.9357059298527 32.32183705791249,208.02524576110955 32.48337145874393,208.00944462365806 32.51662854128517,207.97784233687707 32.51662854128517,207.97784233687707 32.559387647372205,207.9989105298191" stroke="#4DD2FF" stroke-dasharray="none" stroke-linecap="round" stroke-linejoin="round" stroke-width="0.5"><title>2026-03-14 12.0km</title><desc>9223370263378906807</desc></polyline></svg>