<?xml version="1.0" encoding="utf-8" ?>
<svg baseProfile="full" height="300mm" version="1.1" viewBox="0,0,200,300" width="200mm" xmlns="http://www.w3.org/2000/svg" xmlns:ev="http://www.w3.org/2001/xml-events" xmlns:xlink="http://www.w3.org/1999/xlink"><defs /><rect fill="#222222" height="300" width="200" x="0" y="0" /><text fill="#FFFFFF" style="font-size:12px; font-family:Arial; font-weight:bold;" x="10" y="20">Over 10km Runs</text><text fill="#FFFFFF" style="font-size:4px; font-family:Arial" x="10" y="280">Runner</text><text fill="#FFFFFF" style="font-size:9px; font-family:Arial" x="10" y="290">yihong0618</text><text fill="#FFFFFF" style="font-size:4px; font-family:Arial" x="65" y="280">SPECIAL TRACKS</text><rect fill="yellow" height="2.6" width="2.6" x="65" y="283" /><text fill="#FFFFFF" style="font-size:3px; font-family:Arial" x="70" y="285.5">Over 20.0 km</text><rect fill="red" height="2.6" width="2.6" x="65" y="287" /><text fill="#FFFFFF" style="font-size:3px; font-family:Arial" x="70" y="289.5">Over 40.0 km</text><text fill="#FFFFFF" style="font-size:4px; font-family:Arial" x="120" y="280">STATISTICS</text><text fill="#FFFFFF" style="font-size:3px; font-family:Arial" x="120" y="285">Number: 1</text><text fill="#FFFFFF" style="font-size:3px; font-family:Arial" x="120" y="290">Weekly: 1.0</text><text fill="#FFFFFF" style="font-size:3px; font-family:Arial" x="141" y="285">Total: 12.0 km</text><text fill="#FFFFFF" style="font-size:3px; font-family:Arial" x="141" y="290">Avg: 12.0 km</text><text fill="#FFFFFF" style="font-size:3px; font-family:Arial" x="167" y="285">Min: 12.0 km</text><text fill="#FFFFFF" style="font-size:3px; font-family:Arial" x="167" y="290">Max: 12.0 km</text><polyline fill="none" opacity="1" points="28.335738166468218,206.85857760606086 28.250219954235945,206.74269952483883 28.207460848148912,206.7058291816138 28.098187577008503,206.6742260131141 28.01266936477623,206.62155403041834 27.893894070060924,206.57941641256548 27.855885975732235,206.47933945733166 27.851134963944787,206.3687279009464 27.722857645596378,206.4055984413062 27.594580327306176,206.35819345688287 27.623086398059968,206.1738404008429 27.556572232977487,206.10009902752063 27.456800985411974,206.07903004786567 27.35227872602991,206.00528856364326 27.295266584551428,205.89994343655053 27.20499736056081,205.82093447571606 27.162238254473777,205.67871809671487 27.16698926623212,205.54703597826665 27.338025690667564,205.4522246826782 27.456800985411974,205.42062088579405 27.566074256552383,205.26786897753118 27.537568185827695,205.16252261826594 27.433045926474733,205.07297807449504 27.471054020774318,204.95182937162826 27.471054020774318,204.80434368002534 27.542319197615143,204.69372918488807 27.566074256552383,204.55677763628046 27.542319197615143,204.44089532431826 27.485307056136662,204.32501279933786 27.42829491465818,204.19332785329243 27.333274678880116,204.10904934346763 27.224001407710603,204.10904934346763 27.224001407710603,204.10378193286306 27.2430054548895,204.10904934346763 27.214499384135706,204.1143167536393 27.224001407710603,204.1143167536393 27.219250395923154,204.1143167536393 27.20974837234826,204.11958416335983 27.214499384135706,204.12485157263654 27.214499384135706,204.11958416335983 27.138483195507433,204.02477072096008 27.138483195507433,203.8983525759395 27.152736230869778,203.81934110657312 27.214499384135706,203.71925976985585 27.276262537401635,203.65078297423315 27.342776702455012,203.60337591832285 27.447298961837078,203.52963153823293 27.55182122119004,203.445352141076 27.656343480543,203.34527021059694 27.71810663380893,203.2715255285657 27.71810663380893,203.18197829869314 27.63258842160576,203.10823342562435 27.570825268368935,203.01341846205833 27.532817174011143,202.8711957493033 27.566074256552383,202.78691547180279 27.57557628012728,202.69736755349004 27.589829315518728,202.56041166764408 27.59933133906452,202.45506078374092 27.485307056136662,202.4023852757491 27.46155199719942,202.33390704954945 27.390286820358597,202.2443584876637 27.42829491465818,202.07052856317023 27.49005806792411,201.99678238976776 27.49480907971156,201.87562777470157 27.504311103286454,201.72286727596656 27.58507830373128,201.59117689369305 27.623086398059968,201.4858243897579 27.63258842160576,201.36466879253567 27.651592468784656,201.25404826123486 27.618335386243416,201.15396285134193 27.613584374455968,201.04860961659142 27.594580327306176,200.96432690198344 27.58032729194383,200.82736725038194 27.661094492359553,200.69040730115375 27.694351574900793,200.57451788086473 27.694351574900793,200.46389596272275 27.661094492359553,200.34273840099922 27.675347527721897,200.20577739860164 27.665845504147,200.0635483502847 27.675347527721897,199.8897124108953 27.20499736056081,199.1206143192503 27.157487242657226,199.12588214631614 27.076720042241504,199.09427517728182 27.048213971487712,198.99418633739333 27.02445891255047,198.93097225135352 27.00545486540068,198.89936518454488 26.981699806434335,198.82034744818884 26.929438676772406,198.76766890222643 26.867675523506477,198.70445458894392 26.810663382027997,198.67811527305093 26.76790427591186,198.64650807941507 26.70614112264593,198.5622221522317 26.63487594583421,198.49373975339768 26.535104698239593,198.40945362187267 26.468590533186216,198.3146315891645 26.406827379891183,198.30936369427582 26.311807144113118,198.34623894925244 26.2215379201225,198.3567747324305 26.12651768431533,198.37784629349335 26.02199542496237,198.34097105700857 25.98873834242113,198.2461489212401 25.94122822454665,198.1776661789081 25.888967094855616,198.11445127376282 25.774942811898654,198.13025500599542 25.70367763505783,198.11445127376282 25.69892662327038,198.08811171124398 25.732183705782518,198.0775758831478 25.708428646845277,198.08811171124398 25.694175611482933,198.11445127376282 25.679922576091485,198.09337962462814 25.670420552545693,198.09864753756483 25.684673587908037,198.119719184946 25.684673587908037,198.09864753756483 25.69892662327038,198.08811171124398 25.69892662327038,198.08284379740508 25.656167517154245,198.01436087758339 25.627661446429556,197.91953825034216 25.608657399279764,197.85632308623462 25.565898293163627,197.78783992023455 25.53739222243894,197.76676816186955 25.485131092747906,197.72989256778237 25.423367939481977,197.68774900526842 25.347351750853704,197.69828489852807 25.290339609375224,197.65614131487018 25.257082526833983,197.67194516204836 25.247580503259087,197.65087336492434 25.166813302843366,197.69301695211834 25.10029913778999,197.7351605111253 25.057540031673852,197.761500221186 24.98152384304558,197.75623228004406 24.934013725141995,197.79837579677405 24.848495512938825,197.82998341582424 24.819989442214137,197.88793067621373 24.762977300735656,197.89846653601853 24.710716171044623,197.93534203147283 24.653704029566143,197.94060995761538 24.56818581733387,197.9985571162797 24.482667605159804,198.03016463491804 24.392398381140083,198.10391545006132 24.325884216086706,198.1882019902696 24.230863980279537,198.23561311957747 24.154847791680368,198.22507731615042 24.078831603052095,198.23034521809313 23.988562379032373,198.21980941377842 23.95055428473279,198.209273607692 23.964807320095133,198.19346989529367 23.99331339081982,198.209273607692 23.96955833188258,198.209273607692 23.91729720219155,198.209273607692 23.865036072500516,198.15659455090645 23.808023931022035,198.13552291585074 23.755762801360106,198.18293408481986 23.684497624490177,198.1249870956999 23.608481435861904,198.1249870956999 23.53721625902108,198.13025500599542 23.470702093967702,198.04596838829093 23.408938940701773,197.98275335103608 23.356677811039845,197.95114580861264 23.347175787435845,197.9458778833323 23.318669716682052,197.90900239405892 23.261657575232675,197.840519285317 23.1951434101793,197.840519285317 23.199894421966746,197.840519285317 23.19039239839185,197.82471548040849 23.16663733945461,197.77730404193426 23.1951434101793,197.68774900526842 23.199894421966746,197.63506951246382 23.13338025691337,197.57712201952745 23.114376209763577,197.51390651190377 23.08587013903889,197.44015500618843 23.0478620447102,197.3980112498757 23.028857997560408,197.30318769511723 23.005102938594064,197.19782802246482 22.981347879656823,197.05032418476912 22.905331690999446,196.992376154074 22.881576632062206,196.91335602630716 22.81031145522138,196.86067588608785 22.80556044340483,196.7869236157494 22.743797290168004,196.70263520110893 22.68203413693118,196.6183466737093 22.67253211332718,196.56039824571417 22.639275030815043,196.54986216215912 22.6250219954527,196.56566628681685 22.64877705438994,196.56566628681685 22.639275030815043,196.56039824571417 22.629773007211043,196.55513020416402 22.639275030815043,196.55513020416402 22.653528066177387,196.56039824571417 22.686785148689523,196.48664562390695 22.691536160506075,196.4813775761868 22.65827907793573,196.50771781037474 22.639275030815043,196.4971817180085 22.6250219954527,196.50771781037474 22.6155199718487,196.51825390096565 22.6250219954527,196.50771781037474 22.6250219954527,196.50244976441172 22.629773007211043,196.50244976441172 22.63452401899849,196.48664562390695 22.639275030815043,196.4971817180085 22.629773007211043,196.49191367117237 180.90973077600938,92.47786740338415 180.81471054023132,92.53591198157301 180.81471054023132,92.53591198157301 180.81471054023132,92.53591198157301 180.73869435160304,92.57812618641765 180.62942108043353,92.65200097636989 23.104874186159577,197.46122687377647 23.142882280488266,197.57712201952745 23.185641386604402,197.65614131487018 23.16663733945461,197.761500221186 23.180890374816954,197.8773948146445 23.223649480903987,197.9669495818016 23.280661622382468,198.0565042216731 23.304416681348812,198.1776661789081 23.313918704923708,198.30936369427582 23.328171740286052,198.4621324672844 23.36142882279819,198.60436512991873 23.375681858189637,198.73606175351597 23.38993489355198,198.85195455461508 23.380432869977085,199.00998984898615 23.37093084640219,199.13641779915997 23.37093084640219,199.2154351391764 23.285412634169916,199.31025581645736 23.114376209763577,199.31552362767252 22.99560091504827,199.3629339088402 22.862572584912414,199.38400513346642 22.734295266593108,199.43141536311668 22.596515924698906,199.48936115092147 22.482491641741944,199.53150350857322 22.387471405934775,199.56837804840688 22.297202181944158,199.63685927943516 22.18792891080375,199.6737337576269 22.09290867499658,199.73694709861957 22.06440260427189,199.7790892907069 22.050149568909546,199.7948926054887 22.050149568909546,199.80016037619862 21.997888439218514,199.83703475884977 21.92662326237769,199.86864135536234 21.822101002995623,199.8739091199095 21.741333802579902,199.91605122041437 21.65581559034763,199.97926431835003 21.6130564842897,200.02667410017966 21.570297378173564,200.11622581301344 21.475277142366394,200.13729678577874 21.389758930163225,200.10569032399144 21.28048565899371,200.12149355686051 21.190216435003094,200.1425645278723 21.08569417562103,200.1425645278723 20.995424951601308,200.09515483320502 20.900404715823242,200.09515483320502 20.82438852719497,200.13729678577874 20.76262537392904,200.1425645278723 20.691360197088216,200.19524192453173 20.596339961281046,200.2110451349654 20.50607073729043,200.23738381018484 20.458560619415948,200.31113204223948 20.430054548662156,200.40068335087926 20.439556572237052,200.47443139184907 20.396797466120915,200.5113053799796 20.349287348246435,200.53237622066445 20.311279253917746,200.54291163834569 20.235263065289473,200.56398246845492 20.13549181772396,200.548179346526 20.04522259370424,200.5376439297288 19.940700334351277,200.57978558640752 19.916945275414037,200.6008564042022 19.935949322534725,200.65880111674778 19.92169628717238,200.7378165480368 19.90744325183914,200.7746903820589 19.89794122823514,200.82736725038194 19.888439204660244,200.87477639423741 19.864684145723004,200.9327208549621 19.81717402781942,201.02753894850684 19.712651768437354,201.0380742834168 19.64138659159653,201.06968027761832 19.574872426543152,201.08548326878372 19.49410522612743,201.1434275357933 19.427591061074054,201.11708923921105 19.394333978532813,201.06441261302825 19.370578919595573,201.08021560551424 19.34207284884178,201.0380742834168 19.327819813479437,201.01700361181793 19.37532993138302,200.9695945749554 19.361076896020677,200.95379155475894 19.332570825266885,200.99593293316866 19.304064754542196,201.01700361181793 19.304064754542196,201.11182157857183 19.304064754542196,201.2698512061761 19.337321837054333,201.40154225982405 19.432342072861502,201.51743015943066 19.34207284884178,201.58590927268233 19.23755058948882,201.66492354166257 19.152032377256546,201.8176841808381 19.166285412647994,201.9651768604599 19.128277318319306,202.10213403964735 19.023755058966344,202.2443584876637 19.0,202.42872303523836 19.099771247594617,202.47613097459543 19.161534400860546,202.56567920722227 19.152032377256546,202.6604948442582 19.11877529474441,202.77111290723406 19.08551821220317,202.92913837472224 19.194791483372683,202.97654593771585 19.313566778117092,203.03975596625605 19.432342072861502,203.08716344606 19.555868379364256,203.20831573245232 19.603378497296944,203.35053768458965 19.741157839191146,203.4664220009363 19.90744325183914,203.56123628310888 20.073728664428927,203.61917827424259 20.21625901813968,203.5190966197515 20.377793419000227,203.5454339126627 20.544078831619117,203.60337591832285 20.71511525605456,203.64024807601163 20.890902692248346,203.66658531829307 21.009677986992756,203.6718527654266 21.133204293524614,203.69818999450945 21.237726552877575,203.72452721258378 21.366003871225985,203.73506209672996 21.48477916594129,203.7719341773991 21.63206053141039,203.78773649108916 21.779341896879487,203.78246905363994 21.91237022698624,203.81407367176507 22.026394509943202,203.82987597486863 22.154671828262508,203.8667480000695 22.297202181944158,203.8772828604524 22.4777406299836,203.88781771908907 22.620270983636146,203.81407367176507 22.72954425480566,203.79300392809455 22.857821573124966,203.84041084141063 23.01460496216896,203.84567827403225 23.09537216258468,203.7561318597509 23.152384304092266,203.85621313793672 23.313918704923708,203.94575941003495 23.3329227520735,204.08797969839725 23.408938940701773,204.20386265911293 23.44219602321391,204.35661714546222 23.541967270808527,204.24073446557304 23.741509765968658,204.293408437381 23.922048213978997,204.26180405957348 24.074080591264647,204.13538638989849 24.202357909583952,204.03003813817486 24.382896357565187,204.0563752176131 24.4921696287347,204.15645601910728 24.667957064928487,204.1985952564246 24.867499560088618,204.19332785329243 24.972021819470683,204.14592120537782 25.105050149577437,204.09851452182556 25.266584550437983,204.03003813817486 25.41386591590708,203.96156168014568 25.508886151685147,203.94575941003495 25.632412458217004,204.01950330331965 25.765440788323758,204.12485157263654 25.89371810661396,204.12485157263654 26.007742389600025,204.10904934346763 26.10751363716554,204.06164263218307 26.25954601445119,204.03530555493853 26.430582438857527,204.07217745998423 26.558859757176833,204.01950330331965 26.672884040133795,203.97209652467427 26.76790427591186,203.94575941003495 26.905683617835166,203.95629425722655 27.043462959700264,204.02477072096008 27.181242301594466,204.0511078025993 27.271511525614187,204.0827122860428 27.390286820358597,204.1406537978619 27.480556044349214,204.2828736465417 27.532817174011143,204.4198257901735 27.566074256552383,204.5515102630925 27.566074256552383,204.7147986275013 27.504311103286454,204.8570171809297 27.475805032561766,205.004502749307 27.54707020940259,205.1361860009456 27.594580327306176,205.27840360378104 27.49480907971156,205.39428437629613 27.35227872602991,205.43115548651986 27.2430054548895,205.55230326828678 27.20974837234826,205.68398537572648 27.276262537401635,205.83673627579992 27.35227872602991,205.97368504399128 27.504311103286454,206.06849555539884 27.642090445180656,206.14750420600103 27.63258842160576,206.2844522991545 27.732359669200378,206.3687279009464 27.884392046456924,206.38979678378018 27.93190216436051,206.54254597385807 28.055428470892366,206.61628682973242 28.235966918902704,206.71636356760064 28.345240190043114,206.82697451411877 28.46401548475842,206.92705091758762 28.521027626266005,207.07453164369144 28.644553932797862,207.1798748082765 28.734823156817583,207.3378892251676 28.896357557649026,207.3958277454767 29.062642970267916,207.3958277454767 29.224177371128462,207.4379648177237 29.37145873659756,207.50643750006566 29.53774414921645,207.53804025143836" stroke="#4DD2FF" stroke-dasharray="none" stroke-linecap="round" stroke-linejoin="round" stroke-width="0.5"><title>2026-03-14 12.0km</title><desc>9223370263378906807</desc></polyline></svg>