<?xml version="1.0" encoding="utf-8" ?>
<svg baseProfile="full" height="300mm" version="1.1" viewBox="0,0,200,300" width="200mm" xmlns="http://www.w3.org/2000/svg" xmlns:ev="http://www.w3.org/2001/xml-events" xmlns:xlink="http://www.w3.org/1999/xlink"><defs /><rect fill="#222222" height="300" width="200" x="0" y="0" /><text fill="#FFFFFF" style="font-size:12px; font-family:Arial; font-weight:bold;" x="10" y="20">Over 10km Runs</text><text fill="#FFFFFF" style="font-size:4px; font-family:Arial" x="10" y="280">Runner</text><text fill="#FFFFFF" style="font-size:9px; font-family:Arial" x="10" y="290">yihong0618</text><text fill="#FFFFFF" style="font-size:4px; font-family:Arial" x="65" y="280">SPECIAL TRACKS</text><rect fill="yellow" height="2.6" width="2.6" x="65" y="283" /><text fill="#FFFFFF" style="font-size:3px; font-family:Arial" x="70" y="285.5">Over 20.0 km</text><rect fill="red" height="2.6" width="2.6" x="65" y="287" /><text fill="#FFFFFF" style="font-size:3px; font-family:Arial" x="70" y="289.5">Over 40.0 km</text><text fill="#FFFFFF" style="font-size:4px; font-family:Arial" x="120" y="280">STATISTICS</text><text fill="#FFFFFF" style="font-size:3px; font-family:Arial" x="120" y="285">Number: 1</text><text fill="#FFFFFF" style="font-size:3px; font-family:Arial" x="120" y="290">Weekly: 1.0</text><text fill="#FFFFFF" style="font-size:3px; font-family:Arial" x="141" y="285">Total: 12.0 km</text><text fill="#FFFFFF" style="font-size:3px; font-family:Arial" x="141" y="290">Avg: 12.0 km</text><text fill="#FFFFFF" style="font-size:3px; font-family:Arial" x="167" y="285">Min: 12.0 km</text><text fill="#FFFFFF" style="font-size:3px; font-family:Arial" x="167" y="290">Max: 12.0 km</text><polyline fill="none" opacity="1" points="28.435509414062835,206.99815811631925 28.41650536688394,206.84541012572663 28.297730072168633,206.76113521389198 28.24071793066105,206.69266176508245 28.150448706699535,206.65579141568742 28.064930494467262,206.59785225166343 27.912898117210716,206.5925850522981 27.83213091676589,206.4767065548258 27.884392046456924,206.37662949925289 27.760865739925066,206.355560625223 27.623086398059968,206.34502618554325 27.623086398059968,206.1764749115864 27.58032729194383,206.0605956493382 27.471054020774318,206.04479391524728 27.357029737817356,205.9763196884851 27.300017596338876,205.86570731889515 27.20499736056081,205.78143109753364 27.162238254473777,205.6339474390843 27.17174027801957,205.4917307273936 27.35227872602991,205.4074540061156 27.485307056136662,205.36531560323783 27.566074256552383,205.19676171004903 27.51381312686135,205.11248459448325 27.456800985411974,204.99660337661044 27.456800985411974,204.8649199159263 27.52331515046535,204.7227014694363 27.532817174011143,204.5857500695929 27.57557628012728,204.45933312874695 27.485307056136662,204.3592528707959 27.46155199719942,204.20123108739062 27.366531761421356,204.09588301171607 27.219250395923154,204.05901114364315 27.22875241949805,204.06954596528522 27.247756466676947,204.06427855468064 27.214499384135706,204.06954596528522 27.224001407710603,204.07481337545687 27.224001407710603,204.07481337545687 27.20974837234826,204.08008078517742 27.214499384135706,204.08534819445413 27.214499384135706,204.08008078517742 27.133732183719985,203.9694650885067 27.133732183719985,203.84831434090665 27.162238254473777,203.7640354226205 27.2335034312855,203.66395406082665 27.304768608126324,203.58494234716636 27.361780749604804,203.52700036088572 27.480556044349214,203.4532559376603 27.589829315518728,203.3584415524747 27.689600563113345,203.27942945588075 27.72760865741293,203.1846148092336 27.684849551296793,203.09506751200752 27.58032729194383,203.02659008123737 27.54707020940259,202.88963499653983 27.561323244764935,202.77901721087983 27.58032729194383,202.68420181155307 27.570825268368935,202.55251352030245 27.613584374455968,202.43662759641302 27.49005806792411,202.3628818975667 27.471054020774318,202.29967122986272 27.390286820358597,202.2101226754603 27.42829491465818,202.0310251849878 27.49480907971156,201.95201142445876 27.49005806792411,201.82032160348172 27.51381312686135,201.66756106644243 27.60408235088107,201.5411382730381 27.627837409818312,201.4147152260557 27.642090445180656,201.29882721023387 27.63733943339321,201.18293898131742 27.627837409818312,201.07231820038942 27.59933133906452,200.99330323800314 27.60408235088107,200.87741444732092 27.613584374455968,200.7035808617511 27.699102586659137,200.5982269401793 27.699102586659137,200.47706971263324 27.661094492359553,200.3559122521874 27.67059651593445,200.21368363186048 27.656343480543,200.06091920063045 27.675347527721897,199.8660123197442 27.656343480543,199.82913797717993 27.152736230869778,199.09691442097755 27.076720042241504,199.07057528560108 27.052964983304264,198.959950796856 27.02445891255047,198.8914688731711 27.00545486540068,198.85986180636246 26.972197782888543,198.77557621738742 26.91993665319751,198.72816552404402 26.858173499902477,198.6649512107615 26.786908323090756,198.60700470123265 26.753651240549516,198.5806653610889 26.68713707549614,198.4963793987008 26.60161886329297,198.41736120653877 26.511349639302352,198.33834291531093 26.42583142707008,198.28566399944975 26.3688192855916,198.28039610543783 26.25004399084719,198.30673557107002 26.17402780224802,198.33307502571188 26.05525250750361,198.32780713566171 25.998240365996026,198.24352083504346 25.960232271725545,198.15396651711126 25.907971142005408,198.0854837175175 25.79394685907755,198.0802158067636 25.70367763505783,198.0802158067636 25.69892662327038,198.04860833306157 25.732183705782518,198.03807250496538 25.708428646845277,198.04860833306157 25.689424599695485,198.0644120718789 25.679922576091485,198.05387624644572 25.684673587908037,198.0591441593824 25.670420552545693,198.0749478955804 25.67517156433314,198.0591441593824 25.69892662327038,198.03280459025336 25.69892662327038,198.03280459025336 25.627661446429556,197.92744620361918 25.622910434642108,197.86423108708186 25.58490234031342,197.76940829337036 25.551645257801283,197.73253272394504 25.518388175260043,197.70092507583104 25.44237198663177,197.65878152034566 25.38060883336584,197.63244178386594 25.304592644737568,197.62717383524796 25.266584550437983,197.6219058861825 25.266584550437983,197.61136998674192 25.176315326418262,197.65878152034566 25.105050149577437,197.68512124583503 25.057540031673852,197.72199684300358 24.98152384304558,197.71672890186164 24.934013725141995,197.75887241859164 24.848495512938825,197.79048003764183 24.805736406851793,197.85896315783611 24.758226288919104,197.86423108708186 24.69171212389483,197.90637450514987 24.644202005991247,197.91164243043022 24.553932781971525,197.96958957941752 24.45891254619346,198.00119709276623 24.368643322202843,198.09601953766833 24.28787612178712,198.19084183991072 24.188104874192504,198.19084183991072 24.131092732714023,198.180306035596 24.02181946154451,198.17503813276926 23.94580327294534,198.180306035596 23.964807320095133,198.15396651711126 23.96955833188258,198.17503813276926 23.95055428473279,198.15923442168423 23.94105226112879,198.19084183991072 23.884040119679412,198.12762698760343 23.812774942809483,198.09601953766833 23.755762801360106,198.14343070663745 23.684497624490177,198.090751627813 23.608481435861904,198.0854837175175 23.527714235446183,198.0802158067636 23.456449058605358,197.99592917495465 23.39468590533943,197.9485178950381 23.356677811039845,197.91164243043022 23.342424775648396,197.90637450514987 23.304416681348812,197.8378914364621 23.24265352805378,197.78521210222607 23.19039239839185,197.82208764081952 23.1951434101793,197.8062838412152 23.180890374816954,197.77467623009215 23.180890374816954,197.69565713294287 23.199894421966746,197.61663793668777 23.16663733945461,197.55869046312728 23.11912722152192,197.48493905605937 23.090621150826337,197.4375273916412 23.05261305649765,197.37431178360566 23.043111032922752,197.295292184368 23.009853950381512,197.17939659290641 22.99084990323172,197.0108208065867 22.914833714603446,196.95814078087642 22.881576632062206,196.87385264812474 22.81031145522138,196.82117250790543 22.80556044340483,196.74215221494887 22.734295266593108,196.65259576316748 22.677283125114627,196.57357525882617 22.66778110153973,196.5156268259816 22.629773007211043,196.5156268259816 22.620270983636146,196.52616290863443 22.644026042573387,196.53143094930783 22.629773007211043,196.52089486753175 22.644026042573387,196.5156268259816 22.644026042573387,196.5103587839767 22.68203413693118,196.49455465535357 22.69628717226442,196.44187419800437 22.691536160506075,196.46821443219233 22.61076896006125,196.45241029298995 22.629773007211043,196.46821443219233 22.620270983636146,196.47875052278323 22.629773007211043,196.47348247770788 22.629773007211043,196.46821443219233 22.629773007211043,196.4629463862293 22.63452401899849,196.44714224572454 22.639275030815043,196.4576783398261 22.629773007211043,196.45241029298995 180.90973077600938,92.43836402520174 180.81471054023132,92.49640860339059 180.81471054023132,92.49640860339059 180.81471054023132,92.49640860339059 180.7244413162407,92.55445312771917 180.62942108043353,92.61249759818747 23.11912722152192,197.4533312837484 23.176139363029506,197.55342250834656 23.185641386604402,197.65351357393592 23.180890374816954,197.75887241859164 23.199894421966746,197.8853027996338 23.256906563445227,197.96432165897568 23.299665669561364,198.0696799839534 23.299665669561364,198.22244924226834 23.323420728498604,198.34361080447343 23.347175787435845,198.52798664780858 23.375681858189637,198.67548693406206 23.385183881764533,198.78611192217068 23.380432869977085,198.9546829592109 23.36617983461474,199.09164659477028 23.37093084640219,199.175931760994 23.285412634169916,199.27075243827494 23.114376209763577,199.2760202494901 22.98609889144427,199.32869833747827 22.848319549520966,199.3497695603328 22.710540207655868,199.41298318666668 22.57751187752001,199.46039336478498 22.449234559229808,199.50780350725472 22.363716346997535,199.54467803784428 22.26394509943202,199.59735590125274 22.14992081647506,199.66056927923273 22.09765968681313,199.71324704577637 22.050149568909546,199.7606569980162 22.050149568909546,199.75012145616347 22.01689248639741,199.77646030749383 21.950378321344033,199.8133346808936 21.86486010911176,199.83967350583043 21.755586837942246,199.8660123197442 21.66531761395163,199.93449318442435 21.617807496048044,199.9713674653467 21.57504838996101,200.06091920063045 21.48477916594129,200.09779340759633 21.394509941950673,200.06618694580902 21.28048565899371,200.0819901786781 21.190216435003094,200.1030611496899 21.076192152046133,200.1030611496899 20.985922928055516,200.0503837089782 20.886151680460898,200.06091920063045 20.805384480045177,200.09252566505893 20.748372338537592,200.108328891336 20.662854126334423,200.161006283608 20.56308287876891,200.18207722819352 20.487066690140637,200.21895136425155 20.439556572237052,200.3085027477282 20.430054548662156,200.40332172096896 20.411050501512364,200.46653429052822 20.35878937182133,200.47706971263324 20.325532289309194,200.5086759683436 20.26376913601416,200.51394367610555 20.1592468766612,200.51394367610555 20.06897765264148,200.49814055154638 19.95495336971362,200.5244790902725 19.916945275414037,200.5613530260198 19.93119831077638,200.60349464042883 19.92644729895983,200.68251009151209 19.90744325183914,200.7351870038765 19.89794122823514,200.78786387219952 19.888439204660244,200.835273016055 19.864684145723004,200.91428817657652 19.81242301603197,201.009106238409 19.69364772128756,200.99857090523437 19.603378497296944,201.04071222733182 19.536864332243567,201.0565152158415 19.460848143615294,201.1039241576109 19.427591061074054,201.0565152158415 19.370578919595573,201.0301768994359 19.361076896020677,201.02490923484584 19.31831778990454,200.9827679022128 19.35632588423323,200.95642955498624 19.370578919595573,200.91428817657652 19.37532993138302,200.94062654137815 19.31831778990454,200.9616972253134 19.299313742725644,201.0565152158415 19.313566778117092,201.19874193416763 19.327819813479437,201.35150360747502 19.422840049257502,201.46739152645023 19.34207284884178,201.5464058944999 19.23755058948882,201.62542016348016 19.147281365498202,201.7834484043051 19.17578743622289,201.94147624890684 19.104522259382065,202.08896854640625 19.009502023604,202.23119293499622 19.009502023604,202.42082495393333 19.123526306531858,202.45769778024624 19.152032377256546,202.5630485937254 19.152032377256546,202.6525966467343 19.104522259382065,202.80535479651007 19.133028330135858,202.90543752150552 19.242301601276267,202.98445008687122 19.384831954957917,203.02659008123737 19.517860285093775,203.11613747575757 19.574872426543152,203.26362702468032 19.703149744862458,203.3953138303259 19.864684145723004,203.50066307677844 20.040471581945894,203.5586050872771 20.173499912023544,203.49539561864367 20.35878937182133,203.50066307677844 20.534576808015117,203.56387254014044 20.70561323245056,203.6007446978292 20.890902692248346,203.62708194011066 21.009677986992756,203.63234938724418 21.13795530531206,203.66395406082665 21.25197958823992,203.68502383440136 21.394509941950673,203.69555871854755 21.527538272057427,203.73243079921667 21.65581559034763,203.74823311290675 21.817349991208175,203.74823311290675 21.955129333102377,203.8009074632282 22.078655639634235,203.8167097597543 22.249692064069677,203.83251205230408 22.401724441326223,203.8430469118066 22.568009853945114,203.8009074632282 22.69628717226442,203.74296567545753 22.81031145522138,203.7903725966862 22.952841808932135,203.83251205230408 23.062115080072545,203.74823311290675 23.142882280488266,203.7903725966862 23.27591061059502,203.85358176955197 23.342424775648396,204.03794149504392 23.39468590533943,204.1643592809305 23.437445011455566,204.32764854579364 23.541967270808527,204.20123108739062 23.746260777756106,204.2539050591986 23.93630124934134,204.21703328354488 24.08358261481044,204.08008078517742 24.226112968521193,203.97999992513724 24.406651416502427,204.0432089078604 24.525426711246837,204.13275485822305 24.734471229981864,204.15382447511 24.905507654417306,204.15382447511 25.02903396092006,204.0906156033052 25.166813302843366,204.01160442441687 25.347351750853704,203.97999992513724 25.470878057385562,203.86938405285764 25.594404363888316,203.94839541001056 25.727432694024174,204.0432089078604 25.850959000526927,204.06427855468064 25.974485307058785,204.08534819445413 26.083758578199195,204.01687183943068 26.231039943697397,203.99580217675611 26.40207636813284,204.03267408180182 26.53985571002704,203.97999992513724 26.672884040133795,203.93259314649185 26.76790427591186,203.90625603185254 26.905683617835166,203.91679087904413 27.057715995091712,203.99053475999244 27.190744325169362,204.02213925400065 27.29051557276398,204.0432089078604 27.418792891083285,204.13275485822305 27.480556044349214,204.29077681328272 27.57557628012728,204.41192671058525 27.55182122119004,204.56468059705367 27.532817174011143,204.7279688250237 27.518564138677903,204.89125663006416 27.466303008957766,205.04927668386154 27.594580327306176,205.17042512354965 27.54707020940259,205.30210794609957 27.40453985572094,205.39691940803095 27.271511525614187,205.4601269701161 27.214499384135706,205.59707647056348 27.257258490251843,205.76036202459363 27.338025690667564,205.90784538733715 27.49005806792411,206.02372493032817 27.642090445180656,206.09746634677504 27.63733943339321,206.23441446282231 27.732359669200378,206.32922452276398 27.889143058244372,206.355560625223 27.946155199722853,206.51357700894005 28.098187577008503,206.6031194505922 28.259721977839945,206.69266176508245 28.378497272584355,206.80853986565853 28.478268520149868,206.91915058118684 28.57803976771538,207.07189839312923 28.668308991735103,207.1983100956095 28.79658631005441,207.32998868284994 28.9723737462773,207.35105723129163 29.148161182471085,207.3668586379972 29.300193559756735,207.41952996510736 29.475980995979626,207.4774683741016 29.618511349632172,207.5354067298431 29.784796762280166,207.58281079951848" stroke="#4DD2FF" stroke-dasharray="none" stroke-linecap="round" stroke-linejoin="round" stroke-width="0.5"><title>2026-03-14 12.0km</title><desc>9223370263378906807</desc></polyline></svg>