<?xml version="1.0" encoding="utf-8" ?>
<svg baseProfile="full" height="300mm" version="1.1" viewBox="0,0,200,300" width="200mm" xmlns="http://www.w3.org/2000/svg" xmlns:ev="http://www.w3.org/2001/xml-events" xmlns:xlink="http://www.w3.org/1999/xlink"><defs /><rect fill="#222222" height="300" width="200" x="0" y="0" /><text fill="#FFFFFF" style="font-size:12px; font-family:Arial; font-weight:bold;" x="10" y="20">Over 10km Runs</text><text fill="#FFFFFF" style="font-size:4px; font-family:Arial" x="10" y="280">Runner</text><text fill="#FFFFFF" style="font-size:9px; font-family:Arial" x="10" y="290">yihong0618</text><text fill="#FFFFFF" style="font-size:4px; font-family:Arial" x="65" y="280">SPECIAL TRACKS</text><rect fill="yellow" height="2.6" width="2.6" x="65" y="283" /><text fill="#FFFFFF" style="font-size:3px; font-family:Arial" x="70" y="285.5">Over 20.0 km</text><rect fill="red" height="2.6" width="2.6" x="65" y="287" /><text fill="#FFFFFF" style="font-size:3px; font-family:Arial" x="70" y="289.5">Over 40.0 km</text><text fill="#FFFFFF" style="font-size:4px; font-family:Arial" x="120" y="280">STATISTICS</text><text fill="#FFFFFF" style="font-size:3px; font-family:Arial" x="120" y="285">Number: 1</text><text fill="#FFFFFF" style="font-size:3px; font-family:Arial" x="120" y="290">Weekly: 1.0</text><text fill="#FFFFFF" style="font-size:3px; font-family:Arial" x="141" y="285">Total: 12.0 km</text><text fill="#FFFFFF" style="font-size:3px; font-family:Arial" x="141" y="290">Avg: 12.0 km</text><text fill="#FFFFFF" style="font-size:3px; font-family:Arial" x="167" y="285">Min: 12.0 km</text><text fill="#FFFFFF" style="font-size:3px; font-family:Arial" x="167" y="290">Max: 12.0 km</text><polyline fill="none" opacity="1" points="28.430758402246283,206.9270510832357 28.359493225434562,206.85857778886566 28.264472989627393,206.732165357771 28.221713883511256,206.71109659460853 28.11719162412919,206.66895904716148 28.036424423742574,206.60575267320382 27.89864508184837,206.58468386779714 27.841632940340787,206.47933973518957 27.87013901109458,206.3634609860237 27.74661270456272,206.3792626461909 27.613584374455968,206.3634609860237 27.623086398059968,206.19490969797334 27.58032729194383,206.0842976703061 27.471054020774318,206.0684959362152 27.366531761421356,206.01055621072373 27.304768608126324,205.90521111883936 27.219250395923154,205.81566765233583 27.157487242657226,205.69452040700708 27.162238254473777,205.56283835455906 27.309519619942876,205.4364233254637 27.42829491465818,205.41535412930534 27.55182122119004,205.28367149377664 27.55182122119004,205.1572559048982 27.442547950020526,205.08878068843478 27.475805032561766,204.96236470876102 27.442547950020526,204.80961172844763 27.532817174011143,204.70426462982505 27.55182122119004,204.56731313843557 27.566074256552383,204.44089611309028 27.471054020774318,204.33028100797674 27.437796938233078,204.19859610593267 27.357029737817356,204.10378280614532 27.224001407710603,204.09324798625312 27.224001407710603,204.09324798625312 27.247756466676947,204.08798057564854 27.214499384135706,204.09324798625312 27.224001407710603,204.09851539642477 27.224001407710603,204.09851539642477 27.20974837234826,204.10378280614532 27.214499384135706,204.10905021542203 27.214499384135706,204.10378280614532 27.14798521908233,204.03530644538478 27.133732183719985,203.90888835318765 27.152736230869778,203.81407461765411 27.200246348773362,203.71926073951545 27.26676051382674,203.64551651349757 27.338025690667564,203.5928420135242 27.42829491465818,203.51909763961157 27.532817174011143,203.44008571467202 27.63733943339321,203.33473632737514 27.70385359847569,203.27679408931363 27.71810663380893,203.18197940305254 27.656343480543,203.10296705556175 27.57557628012728,203.02922210855468 27.537568185827695,202.8817319556947 27.566074256552383,202.78691667521707 27.58032729194383,202.69736877932155 27.57557628012728,202.565680466083 27.613584374455968,202.46032961738092 27.49005806792411,202.3865839185346 27.475805032561766,202.33390836651597 27.395037832146045,202.24435982706927 27.409290867537493,202.07052994616606 27.471054020774318,201.9967837912409 27.49956009152811,201.87562920658092 27.504311103286454,201.73867156955748 27.566074256552383,201.6017136349401 27.623086398059968,201.50162880221615 27.627837409818312,201.36993799069023 27.656343480543,201.25404984896159 27.618335386243416,201.15396446415252 27.627837409818312,201.0538789204038 27.594580327306176,200.96959623399744 27.58507830373128,200.848439674799 27.651592468784656,200.6904090301905 27.70385359847569,200.57978734319477 27.70385359847569,200.47970088764123 27.656343480543,200.35327566396518 27.675347527721897,200.22158245297032 27.661094492359553,200.0688179834542 27.675347527721897,199.8897143407121 27.656343480543,199.85283999814783 27.157487242657226,199.1258842676907 27.076720042241504,199.09427730656898 27.06246700687916,198.99418849177164 27.03396093615447,198.92043873705188 27.00545486540068,198.88883167288805 26.981699806434335,198.81508179486627 26.94369171213475,198.7624032577296 26.88192855886882,198.69392109359978 26.820165405602893,198.66758177989686 26.753651240549516,198.6201709874731 26.71564314624993,198.56222441495993 26.6538799929549,198.50427778915764 26.54460672181449,198.4041880372606 26.48284356854856,198.30936602041766 26.430582438857527,198.2935623370613 26.33081119126291,198.32516969979406 26.235790955484845,198.34097337521598 26.150272743281676,198.35677704667978 26.036248460324714,198.34624126615017 25.998240365996026,198.24615126323624 25.950730248121545,198.16713272760535 25.898469118430512,198.1091857384854 25.79394685907755,198.1039178277315 25.70367763505783,198.1091857384854 25.69892662327038,198.07231035402947 25.717930670420174,198.05650661122127 25.71317965866183,198.06704244019056 25.694175611482933,198.0986499165483 25.679922576091485,198.0881140928468 25.670420552545693,198.07757826741363 25.689424599695485,198.0881140928468 25.694175611482933,198.08284618035032 25.684673587908037,198.07757826741363 25.69892662327038,198.0617745259333 25.679922576091485,198.01963119592256 25.622910434642108,197.9090048206017 25.608657399279764,197.85632552599782 25.565898293163627,197.7773065015026 25.546894246013835,197.75623474491294 25.49938412811025,197.71935915391077 25.43762097484432,197.67721559490383 25.36160478621605,197.6719476480539 25.29509062116267,197.65087585621586 25.266584550437983,197.6456079071504 25.26183353862143,197.63507200770982 25.176315326418262,197.68248354131356 25.105050149577437,197.70882326680294 25.057540031673852,197.74043092282955 24.986274854833027,197.74043092282955 24.948266760533443,197.76677062409 24.862748548330273,197.81418205860973 24.819989442214137,197.86686138844743 24.772479324310552,197.88266517880402 24.72021819461952,197.9090048206017 24.653704029566143,197.92480860040087 24.582438852725318,197.972219916006 24.501671652309597,198.01963119592256 24.406651416502427,198.07231035402947 24.330635227874154,198.16713272760535 24.249868027458433,198.21454386087862 24.145345768076368,198.21454386087862 24.097835650201887,198.21981176236295 24.002815414394718,198.2040080565639 23.94105226112879,198.2040080565639 23.964807320095133,198.17766853807916 23.96955833188258,198.19874015373716 23.95055428473279,198.18293644265214 23.94105226112879,198.21454386087862 23.884040119679412,198.15132900857134 23.822276966413483,198.1249894680659 23.770015836693347,198.1565969153453 23.698750659881625,198.1249894680659 23.6179834594368,198.1039178277315 23.54671828262508,198.13025737704447 23.47545310575515,198.03016703107642 23.42319197609322,197.972219916006 23.36142882279819,197.940612376231 23.347175787435845,197.94588030062368 23.328171740286052,197.90373689312764 23.266408587020123,197.8299858621831 23.199894421966746,197.81944999357074 23.1951434101793,197.82471792810247 23.19039239839185,197.80891412319397 23.16663733945461,197.77203856302003 23.19039239839185,197.68775148729765 23.1951434101793,197.62980405732014 23.152384304092266,197.57712452931446 23.114376209763577,197.5033731160729 23.090621150826337,197.44542551656195 23.05261305649765,197.39274583438237 23.0383600211062,197.3084582512929 23.009853950381512,197.20309861387432 22.98609889144427,197.0345228275546 22.919584726390895,196.98711080640714 22.881576632062206,196.89755466909264 22.81031145522138,196.85541056042348 22.80556044340483,196.7816583024396 22.75805032553035,196.7026379302406 22.686785148689523,196.61834942396672 22.677283125114627,196.54459688849965 22.663030089752283,196.54459688849965 22.63452401899849,196.54986492960234 22.644026042573387,196.54986492960234 22.64877705438994,196.54986492960234 22.629773007211043,196.5393288469495 22.644026042573387,196.54986492960234 22.64877705438994,196.54459688849965 22.686785148689523,196.4866484071972 22.691536160506075,196.47084426669244 22.686785148689523,196.50245254375113 22.63452401899849,196.481380360794 22.6250219954527,196.49191645316023 22.6155199718487,196.50245254375113 22.6250219954527,196.49191645316023 22.629773007211043,196.49191645316023 22.629773007211043,196.4866484071972 22.629773007211043,196.47611231395786 22.63452401899849,196.4866484071972 22.644026042573387,196.47611231395786 180.90973077600938,92.46206604616964 180.81471054023132,92.5201106243585 180.81471054023132,92.5201106243585 180.81471054023132,92.5201106243585 180.7244413162407,92.57815514868707 180.7244413162407,92.57815514868707 23.090621150826337,197.42962161652395 23.13338025691337,197.5507847487752 23.185641386604402,197.62980405732014 23.171388351242058,197.72989503924327 23.19039239839185,197.8299858621831 23.209396445541643,197.93534445139812 23.27115959880757,198.01963119592256 23.309167693107156,198.11972155863623 23.299665669561364,198.27775864975047 23.318669716682052,198.39365226465816 23.356677811039845,198.56749228738408 23.375681858189637,198.70445681599813 23.385183881764533,198.80981394313858 23.380432869977085,198.97311714210082 23.36617983461474,199.1048129620358 23.380432869977085,199.1890981423603 23.323420728498604,199.29445445924284 23.147633292275714,199.299722270458 23.009853950381512,199.34186474436137 22.891078655637102,199.35240035844618 22.76755234913435,199.41034620435676 22.629773007211043,199.47355979370695 22.515748724283185,199.5157021513587 22.392222417751327,199.54204111059516 22.316206229123054,199.59998678214833 22.20693295795354,199.64739683743028 22.107161710358923,199.71061018897308 22.078655639634235,199.75802016103262 22.050149568909546,199.7790912482742 22.050149568909546,199.7790912482742 22.00263945100596,199.82123340163525 21.931374274165137,199.85283999814783 21.850607073749416,199.8686432904542 21.7508358261548,199.89498210218517 21.66531761395163,199.95819520539226 21.617807496048044,199.9950694863146 21.57504838996101,200.08462122159835 21.499032201303635,200.1267631706578 21.408762977313017,200.09515671151166 21.313742741534952,200.09515671151166 21.20446947036544,200.1267631706578 21.099947210983373,200.1320309123039 21.014428998780204,200.09515671151166 20.928910786577035,200.0793534759905 20.829139538982417,200.1109599430638 20.77212739753304,200.12149542856423 20.70086222066311,200.16890509151926 20.610592996672494,200.19524377775087 20.529825796256773,200.21631471880391 20.47281365474919,200.28479522858834 20.430054548662156,200.36907883080494 20.4443075840245,200.44282689027023 20.396797466120915,200.49023631149612 20.35403836000478,200.51657486344993 20.320781277492642,200.5323779893115 20.25426711246837,200.54291340436976 20.154495864873752,200.53764569707346 20.064226640883135,200.5218425725143 19.95495336971362,200.5481811112404 19.912194263597485,200.57978734319477 19.93119831077638,200.6219289611472 19.92644729895983,200.70621211248 19.916945275414037,200.75362133557792 19.893190216447692,200.80103052303457 19.888439204660244,200.848439674799 19.864684145723004,200.9063841452189 19.826676051394315,200.990666916161 19.731655815587146,201.0328082593769 19.650888615171425,201.0380759253021 19.593876473722048,201.0696819115692 19.49410522612743,201.1170908612621 19.427591061074054,201.1065555421883 19.41333802571171,201.06441424829973 19.36582790777902,201.06441424829973 19.337321837054333,201.0328082593769 19.31831778990454,201.0064699231807 19.35632588423323,200.990666916161 19.370578919595573,200.94325787138587 19.35632588423323,200.98013157595415 19.31831778990454,200.990666916161 19.299313742725644,201.0802172368094 19.313566778117092,201.22244395513553 19.327819813479437,201.36993799069023 19.41333802571171,201.48055829086297 19.36582790777902,201.564840294006 19.251803624851163,201.62278410579165 19.166285412647994,201.76500959978875 19.156783389073098,201.93357273264337 19.147281365498202,202.05999478646117 19.03800809432869,202.20221929391118 19.004751011787448,202.34971103673524 19.076016188657377,202.45506207032304 19.147281365498202,202.53407522995622 19.11877529474441,202.62889089077726 19.128277318319306,202.72897393357562 19.080767200444825,202.89753448858391 19.190040471585235,202.9554770752693 19.280309695575852,203.01341960867285 19.418089037499158,203.066094592843 19.541615344031015,203.18197940305254 19.589125461905496,203.3136664287813 19.712651768437354,203.43481824948321 19.883688192843692,203.54543492589437 20.049973605491687,203.58757456110834 20.173499912023544,203.51909763961157 20.35403836000478,203.51909763961157 20.510821749077877,203.5928420135242 20.681858173484216,203.6191792690115 20.862396621523658,203.65078396107856 21.009677986992756,203.6665863011658 21.099947210983373,203.6665863011658 21.209220482123783,203.7139932976679 21.34699982404709,203.72452818094098 21.465775118762394,203.74033050253638 21.60830547247315,203.77193513387465 21.74608481436735,203.7614002585251 21.89336617983645,203.7877374435884 22.012141474580858,203.81407461765411 22.140418792900164,203.85094664285498 22.282949146581814,203.86148150323788 22.444483547413256,203.8667489327745 22.601266936486354,203.81407461765411 22.70578919586842,203.77720257088004 22.83406651415862,203.82460948419612 22.981347879656823,203.85094664285498 23.07161710364744,203.75613282018458 23.142882280488266,203.8193420511525 23.27591061059502,203.87728379051987 23.347175787435845,204.05637610276972 23.36142882279819,204.19859610593267 23.42319197609322,204.33554839832868 23.51346120008384,204.2354679062264 23.70825268345652,204.25653749671983 23.884040119679412,204.23020050751438 24.05507654408575,204.15645687919096 24.183353862405056,204.0300390299417 24.354390286811395,204.01950419772402 24.477916593372356,204.11958503268397 24.629948970628902,204.1669916885112 24.83899348936393,204.17752649607792 24.95301777232089,204.1301198481633 25.086046102427645,204.08798057564854 25.23807847968419,204.01423678096035 25.39486186875729,203.96683001023484 25.489882104535354,203.9036209271726 25.608657399279764,203.9931671094746 25.746436741144862,204.09324798625312 25.874714059464168,204.09851539642477 25.993489354208577,204.10378280614532 26.088509590015747,204.04057386039858 26.231039943697397,204.01950419772402 26.397325356316287,204.05110868909105 26.525602674664697,204.00370194610514 26.668133028317243,203.9615625890765 26.748900228762068,203.93522547663088 26.877177547081374,203.93522547663088 27.019707900763024,203.9984345280136 27.16698926623212,204.0247716140475 27.2430054548895,204.06164351601183 27.376033784996253,204.10905021542203 27.471054020774318,204.23020050751438 27.504311103286454,204.39348966324542 27.58032729194383,204.51463940868052 27.570825268368935,204.66212574108795 27.504311103286454,204.79907702650235 27.49005806792411,204.97289938339964 27.518564138677903,205.10984999372522 27.594580327306176,205.23626567765314 27.5280661622528,205.36268110809033 27.376033784996253,205.42062142899886 27.257258490251843,205.49963087169817 27.214499384135706,205.63131305615389 27.257258490251843,205.78406404556154 27.338025690667564,205.93154740830505 27.480556044349214,206.04742695129607 27.63258842160576,206.11063388496768 27.642090445180656,206.24231479328228 27.70385359847569,206.35292654373188 27.884392046456924,206.35292654373188 27.912898117210716,206.5004085757937 28.04592644731747,206.59521827137723 28.207460848148912,206.68476063074195 28.321485131105874,206.79537160499967 28.44976244942518,206.90071520959464 28.49727256729966,207.0429287966108 28.635051909222966,207.14300483222178 28.69681506245979,207.29048501626312 28.867851486895233,207.3800263882622 29.02938588775578,207.37475925225954 29.200422312162118,207.4116291950886 29.342952665872872,207.47483476122216 29.51874010206666,207.51697177009555 29.647017420385964,207.56964299159517" stroke="#4DD2FF" stroke-dasharray="none" stroke-linecap="round" stroke-linejoin="round" stroke-width="0.5"><title>2026-03-14 12.0km</title><desc>9223370263378906807</desc></polyline></svg>