<?xml version="1.0" encoding="utf-8" ?>
<svg baseProfile="full" height="300mm" version="1.1" viewBox="0,0,200,300" width="200mm" xmlns="http://www.w3.org/2000/svg" xmlns:ev="http://www.w3.org/2001/xml-events" xmlns:xlink="http://www.w3.org/1999/xlink"><defs /><rect fill="#222222" height="300" width="200" x="0" y="0" /><text fill="#FFFFFF" style="font-size:12px; font-family:Arial; font-weight:bold;" x="10" y="20">Over 10km Runs</text><text fill="#FFFFFF" style="font-size:4px; font-family:Arial" x="10" y="280">Runner</text><text fill="#FFFFFF" style="font-size:9px; font-family:Arial" x="10" y="290">yihong0618</text><text fill="#FFFFFF" style="font-size:4px; font-family:Arial" x="65" y="280">SPECIAL TRACKS</text><rect fill="yellow" height="2.6" width="2.6" x="65" y="283" /><text fill="#FFFFFF" style="font-size:3px; font-family:Arial" x="70" y="285.5">Over 20.0 km</text><rect fill="red" height="2.6" width="2.6" x="65" y="287" /><text fill="#FFFFFF" style="font-size:3px; font-family:Arial" x="70" y="289.5">Over 40.0 km</text><text fill="#FFFFFF" style="font-size:4px; font-family:Arial" x="120" y="280">STATISTICS</text><text fill="#FFFFFF" style="font-size:3px; font-family:Arial" x="120" y="285">Number: 1</text><text fill="#FFFFFF" style="font-size:3px; font-family:Arial" x="120" y="290">Weekly: 1.0</text><text fill="#FFFFFF" style="font-size:3px; font-family:Arial" x="141" y="285">Total: 12.0 km</text><text fill="#FFFFFF" style="font-size:3px; font-family:Arial" x="141" y="290">Avg: 12.0 km</text><text fill="#FFFFFF" style="font-size:3px; font-family:Arial" x="167" y="285">Min: 12.0 km</text><text fill="#FFFFFF" style="font-size:3px; font-family:Arial" x="167" y="290">Max: 12.0 km</text><polyline fill="none" opacity="1" points="31.233855358092114,207.15354372545335 31.1245820869226,207.06926977810144 31.02005982756964,207.11140676585637 30.906035544612678,207.13247524916733 30.801513285230612,207.18514642669106 30.692240014090203,207.1798793109192 30.592468766495585,207.15354372545335 30.45944043638883,207.16407796095882 30.33116311809863,207.17461219471443 30.169628717238083,207.17461219471443 30.055604434281122,207.25888600128383 29.913074080628576,207.2536188916747 29.765792715130374,207.1588108434371 29.637515396811068,207.1272081290117 29.504487066704314,207.09560539873564 29.36195671299356,207.04820127364292 29.214675347524462,206.99552998174113 29.08164701741771,206.9375915098317 28.953369699098403,206.94285864583435 28.67781101531,206.88492012552524 28.63980292098131,206.88492012552524 28.573288755957037,206.70583708979393 28.516276614478556,206.6478983517045 28.430758402246283,206.4846161669666 28.335738166468218,206.4056085064185 28.250219954235945,206.2791960436225 28.178954777424224,206.24232569422747 28.06968150625471,206.19492092762084 27.912898117210716,206.17911933083815 27.836881928582443,206.05270641393872 27.87013901109458,205.92629324359586 27.732359669200378,205.94736212292264 27.594580327306176,205.88942268784012 27.623086398059968,205.69980234620743 27.518564138677903,205.64712992787827 27.395037832146045,205.60499196154342 27.309519619942876,205.48911240885718 27.224001407710603,205.378499909908 27.157487242657226,205.23628355467008 27.17174027801957,205.08879958816397 27.357029737817356,204.99398828465564 27.504311103286454,204.93078066976886 27.55182122119004,204.7569594020897 27.475805032561766,204.67794957651495 27.471054020774318,204.5357316409718 27.452049973624526,204.36717663526724 27.542319197615143,204.2407600852457 27.566074256552383,204.0932737898038 27.504311103286454,203.97212407471307 27.480556044349214,203.80356756208494 27.366531761421356,203.69295210573546 27.219250395923154,203.6455454221832 27.224001407710603,203.65608024382527 27.2430054548895,203.65608024382527 27.214499384135706,203.66134765399693 27.22875241949805,203.66661506371747 27.219250395923154,203.66134765399693 27.214499384135706,203.66661506371747 27.214499384135706,203.66134765399693 27.152736230869778,203.6086735325407 27.138483195507433,203.46118575829678 27.152736230869778,203.3611045721227 27.22875241949805,203.2557557834225 27.304768608126324,203.17147662570642 27.3807847967837,203.10826718346652 27.509062115073903,203.01345290129393 27.627837409818312,202.90283605849982 27.713355622050585,202.83435886806183 27.71810663380893,202.72900919905078 27.618335386243416,202.64472933707293 27.566074256552383,202.52884434287625 27.55182122119004,202.39188907505013 27.566074256552383,202.27600361601435 27.570825268368935,202.15485040831481 27.613584374455968,202.02316187495308 27.485307056136662,201.94941617610675 27.456800985411974,201.8809379499071 27.3807847967837,201.77558668741403 27.456800985411974,201.59122155435034 27.51381312686135,201.4806022156663 27.509062115073903,201.3278418573609 27.561323244764935,201.16981351089635 27.623086398059968,201.04865817694008 27.63733943339321,200.90643205293964 27.642090445180656,200.78527621270769 27.623086398059968,200.6641201395687 27.59933133906452,200.57456984886448 27.59933133906452,200.45341337068385 27.64684145699721,200.26377667639827 27.699102586659137,200.13735189653744 27.694351574900793,200.01092686308039 27.661094492359553,199.87396612396697 27.665845504147,199.72120187151086 27.689600563113345,199.49468867766336 27.675347527721897,199.42094002026715 27.16698926623212,198.68871652526286 27.076720042241504,198.65710956414114 27.052964983304264,198.54648507539605 27.02920992433792,198.45693177559951 27.00070385361323,198.4305925455592 26.96744677107199,198.35157478937617 26.905683617835166,198.28836051309554 26.82966742917779,198.2409497642584 26.758402252366068,198.18300324504526 26.71089213443338,198.11452092634863 26.63487594583421,198.04077065375532 26.516100651060697,197.94068086002153 26.440084462432424,197.8721982779898 26.373570297379047,197.86166248952213 26.25004399084719,197.89326984961008 26.169276790431468,197.91960930425194 26.036248460324714,197.90907352372233 25.98873834242113,197.79317982159773 25.950730248121545,197.70889335892934 25.85571001234348,197.66675008530365 25.732183705782518,197.69308963461663 25.708428646845277,197.63514261160162 25.717930670420174,197.61933886879342 25.71317965866183,197.62987469776272 25.694175611482933,197.66148217412047 25.679922576091485,197.64041052498578 25.684673587908037,197.64041052498578 25.670420552545693,197.65094635041896 25.67517156433314,197.64041052498578 25.69892662327038,197.61407095363393 25.684673587908037,197.5824634534947 25.622910434642108,197.47183707817385 25.603906387492316,197.3980860533884 25.56114728137618,197.32960288166214 25.523139187076595,197.30853112154364 25.447122998419218,197.2663875801518 25.38535984515329,197.21370811378802 25.29509062116267,197.21370811378802 25.266584550437983,197.20844016472256 25.247580503259087,197.19790426528198 25.147809255693574,197.24004785247598 25.086046102427645,197.29272729681543 25.02903396092006,197.28219141148293 24.967270807683235,197.3243349422919 24.881752595450962,197.37174638076613 24.819989442214137,197.4296936460196 24.767728312523104,197.44549743637617 24.705965159257175,197.48764085797302 24.644202005991247,197.49817670897028 24.534928734850837,197.55612385795757 24.43040647546877,197.59299928864857 24.354390286811395,197.6983575431659 24.25461903924588,197.77737611845077 24.154847791680368,197.77737611845077 24.064578567660647,197.77737611845077 23.97430934367003,197.76684031413606 23.964807320095133,197.7457687002243 23.964807320095133,197.74050079565131 23.983811367244925,197.7510366043607 23.94105226112879,197.77737611845077 23.87928910786286,197.70889335892934 23.808023931022035,197.68255381620838 23.741509765968658,197.74050079565131 23.670244589156937,197.66675008530365 23.575224353349768,197.6983575431659 23.484955129330046,197.61933886879342 23.42794298788067,197.54032009532602 23.36142882279819,197.50344463380316 23.347175787435845,197.50871255819584 23.318669716682052,197.44549743637617 23.24740453987033,197.37701431618189 23.19039239839185,197.40862191935958 23.209396445541643,197.3822822511429 23.16663733945461,197.35067463473388 23.185641386604402,197.25585169039914 23.1951434101793,197.18736836407334 23.13338025691337,197.1241529198851 23.114376209763577,197.05040148814442 23.07161710364744,196.98718590654607 23.043111032922752,196.90816634033763 23.009853950381512,196.78700281302736 22.99560091504827,196.61315908426332 22.919584726390895,196.5499430639793 22.881576632062206,196.4603869266648 22.81031145522138,196.4077067864455 22.786556396255037,196.30761439864727 22.720042231230764,196.21278988460472 22.68203413693118,196.12323326808473 22.66778110153973,196.1074291460718 22.63452401899849,196.1126971871745 22.64877705438994,196.1126971871745 22.63452401899849,196.10216110452166 22.644026042573387,196.10216110452166 22.644026042573387,196.09689306251676 22.68203413693118,196.08108893389362 22.69628717226442,196.02840847654443 22.686785148689523,196.0705528459548 22.639275030815043,196.04421261836615 22.6250219954527,196.04948066476936 22.620270983636146,196.06001675624793 22.6250219954527,196.04948066476936 22.6250219954527,196.04948066476936 22.629773007211043,196.03894457153 22.629773007211043,196.04421261836615 22.644026042573387,196.03894457153 180.90973077600938,92.0248983037418 180.81471054023132,92.08294288193065 180.81471054023132,92.08294288193065 180.81471054023132,92.08294288193065 180.7244413162407,92.14098740625923 23.090621150826337,196.98718590654607 23.13338025691337,197.11361700634734 23.185641386604402,197.19790426528198 23.16663733945461,197.3190670024851 23.19039239839185,197.45076536562192 23.24740453987033,197.54032009532602 23.294914657744812,197.65094635041896 23.299665669561364,197.8089835208084 23.313918704923708,197.9564845222303 23.36142882279819,198.1355924169511 23.375681858189637,198.28836051309554 23.39468590533943,198.41478900223592 23.380432869977085,198.59916342758152 23.380432869977085,198.72032347052664 23.347175787435845,198.82567984025445 23.161886327638058,198.86782233879785 23.009853950381512,198.90469700193353 22.862572584912414,198.93103603382406 22.720042231230764,198.99424966542574 22.572760865732562,199.0521954386968 22.43973253565491,199.09433778579478 22.34946331163519,199.15228346702133 22.225937005103333,199.1996935302377 22.107161710358923,199.27344244654523 22.06440260427189,199.32612019106455 22.050149568909546,199.34192350584635 22.031145521759754,199.34719127655626 21.97888439206872,199.40513672530142 21.883864156261552,199.4262077843705 21.755586837942246,199.45254659828424 21.66531761395163,199.5210274629644 21.6130564842897,199.56843724876308 21.560795354569564,199.66325671337108 21.446771071641706,199.67379220063594 21.361252859409433,199.65798896908382 21.237726552877575,199.68432768613638 21.123702269949717,199.7001309110783 21.0239310223551,199.65798896908382 20.91940876300214,199.64218573356266 20.82438852719497,199.68432768613638 20.757874362141592,199.68959542822995 20.672356149938423,199.74227282488937 20.56308287876891,199.76861150673358 20.487066690140637,199.8212888373564 20.430054548662156,199.9213756442623 20.4443075840245,200.00565914784238 20.396797466120915,200.05833628033724 20.349287348246435,200.0794071210221 20.306528242130298,200.08994253870333 20.202005982777337,200.11101336881256 20.10223473518272,200.0741394115139 19.98345944043831,200.1057456619419 19.912194263597485,200.14261960076692 19.93119831077638,200.1900289189689 19.92644729895983,200.29538283174406 19.90744325183914,200.33225665960344 19.893190216447692,200.3902012026665 19.8741861692979,200.44287801375322 19.85043111036066,200.5324284915696 19.741157839191146,200.60090818287426 19.646137603383977,200.606175848352 19.574872426543152,200.63251416914136 19.484603202552535,200.69045843615095 19.43709308464895,200.65358481785734 19.37532993138302,200.606175848352 19.361076896020677,200.6114435133859 19.31831778990454,200.56930218075286 19.35632588423323,200.55349917373314 19.361076896020677,200.50082245511658 19.332570825266885,200.5429638335263 19.2945627309673,200.56403451217557 19.332570825266885,200.70099375169957 19.308815766329644,200.88536148877392 19.39908499032026,201.01178476819769 19.36582790777902,201.12767255157814 19.23755058948882,201.1961515961484 19.147281365498202,201.36998268284515 19.17578743622289,201.53327811543568 19.08551821220317,201.69130555064476 19.004751011787448,201.85986771149328 19.05701214147848,202.02842942156713 19.147281365498202,202.09690748752837 19.128277318319306,202.19699068088084 19.11877529474441,202.3181438075917 19.104522259382065,202.48670429216145 19.213795530522475,202.55518186026893 19.370578919595573,202.59732186520705 19.503607249702327,202.68686928215175 19.574872426543152,202.86069625778327 19.712651768437354,202.99765050705537 19.89794122823514,203.10826718346652 20.092732711607823,203.17147662570642 20.259018124226714,203.06612752010915 20.430054548662156,203.1240695499764 20.634348055609735,203.16620917460023 20.81963751540752,203.2030813230558 21.009677986992756,203.22941855873796 21.118951258133166,203.2346860045509 21.24722857645247,203.27682555524007 21.394509941950673,203.2820929970876 21.527538272057427,203.31896507775673 21.693823684676317,203.3347673914468 21.850607073749416,203.3400348284522 21.988386415643618,203.37163944129497 22.140418792900164,203.41377890042713 22.297202181944158,203.42431376081004 22.515748724283185,203.42958119034665 22.65827907793573,203.3453022650283 22.777054372709244,203.36637200693076 22.943339785328135,203.41904633084414 23.062115080072545,203.3347673914468 23.142882280488266,203.38217430872464 23.299665669561364,203.47698803632375 23.323420728498604,203.65608024382527 23.404187928914325,203.7719631657892 23.45169804681791,203.8562415207125 23.65124054197804,203.79830016379856 23.841281013563275,203.79303276508654 24.050325532298302,203.72455654164514 24.188104874192504,203.5770690385325 24.392398381140083,203.61920836034187 24.51592468767194,203.71402173144816 24.734471229981864,203.74035875365007 24.91976068977965,203.72982394608334 25.057540031673852,203.66661506371747 25.223825444321847,203.5770690385325 25.39486186875729,203.529662267807 25.508886151685147,203.4927903103926 25.66566954072914,203.58233645529617 25.798697870865,203.66134765399693 25.936477212730097,203.68768469821953 26.050501495716162,203.61920836034187 26.2215379201225,203.5770690385325 26.397325356316287,203.6139409466632 26.554108745389385,203.56126678558576 26.677635051921243,203.52439484664865 26.786908323090756,203.48752288614196 26.962695759313647,203.529662267807 27.128981171903433,203.58760387161965 27.214499384135706,203.6086735325407 27.376033784996253,203.67188247299418 27.485307056136662,203.80883495993112 27.537568185827695,203.97212407471307 27.55182122119004,204.12487802502437 27.54707020940259,204.3039683919451 27.518564138677903,204.47779090860422 27.471054020774318,204.6463456185702 27.594580327306176,204.77802867217179 27.518564138677903,204.93078066976886 27.35227872602991,204.9781863868775 27.238254443072947,205.11513603606363 27.200246348773362,205.27842176743434 27.319021643488668,205.43643981451532 27.409290867537493,205.58919021689508 27.613584374455968,205.6576644150664 27.642090445180656,205.80514705085443 27.72760865741293,205.91575880130404 27.889143058244372,205.95262934166385 27.9604082351143,206.10537849344837 28.136195671308087,206.21598971718413 28.297730072168633,206.3213335593755 28.430758402246283,206.43721158252447 28.49727256729966,206.5952267253997 28.635051909222966,206.7163714001108 28.739574168575928,206.89018726594077 28.93911666373606,206.9375915098317 29.124406123533845,206.94285864583435 29.28594052439439,206.99552998174113 29.475980995979626,207.06400265264165 29.632764384994516,207.1272081290117 29.82280485657975,207.1798793109192 29.95108217492816,207.25888600128383 30.126869611121947,207.2114819989547 30.283653000195045,207.1956806569142 30.46894245999283,207.1588108434371 30.658982931578066,207.15354372545335 30.801513285230612,207.15354372545335 30.953545662516262,207.10087252155427 31.06756994544412,207.0534684004233 31.214851310942322,207.0745369031065 31.338377617445076,207.1798793109192 31.47615695936838,207.2009477713509 31.55217314796755,207.31682417797856 31.58543023050879,207.45903584051848 31.689952489890857,207.59071301983204 31.794474749243818,207.6802533447226 31.856237902509747,207.78032767500554 31.918001055775676,207.76452647551923 31.956009150104364,207.7013216379819 31.9987682562205,207.66445212016333 32.07003343303222,207.76979354246578 32.16030265708105,207.88566890372385 32.26007390461746,207.99627700448764 32.388351222965866,208.02261223798632" stroke="#4DD2FF" stroke-dasharray="none" stroke-linecap="round" stroke-linejoin="round" stroke-width="0.5"><title>2026-03-14 12.0km</title><desc>9223370263378906807</desc></polyline></svg>