<?xml version="1.0" encoding="utf-8" ?>
<svg baseProfile="full" height="300mm" version="1.1" viewBox="0,0,200,300" width="200mm" xmlns="http://www.w3.org/2000/svg" xmlns:ev="http://www.w3.org/2001/xml-events" xmlns:xlink="http://www.w3.org/1999/xlink"><defs /><rect fill="#222222" height="300" width="200" x="0" y="0" /><text fill="#FFFFFF" style="font-size:12px; font-family:Arial; font-weight:bold;" x="10" y="20">Over 10km Runs</text><text fill="#FFFFFF" style="font-size:4px; font-family:Arial" x="10" y="280">Runner</text><text fill="#FFFFFF" style="font-size:9px; font-family:Arial" x="10" y="290">yihong0618</text><text fill="#FFFFFF" style="font-size:4px; font-family:Arial" x="65" y="280">SPECIAL TRACKS</text><rect fill="yellow" height="2.6" width="2.6" x="65" y="283" /><text fill="#FFFFFF" style="font-size:3px; font-family:Arial" x="70" y="285.5">Over 20.0 km</text><rect fill="red" height="2.6" width="2.6" x="65" y="287" /><text fill="#FFFFFF" style="font-size:3px; font-family:Arial" x="70" y="289.5">Over 40.0 km</text><text fill="#FFFFFF" style="font-size:4px; font-family:Arial" x="120" y="280">STATISTICS</text><text fill="#FFFFFF" style="font-size:3px; font-family:Arial" x="120" y="285">Number: 1</text><text fill="#FFFFFF" style="font-size:3px; font-family:Arial" x="120" y="290">Weekly: 1.0</text><text fill="#FFFFFF" style="font-size:3px; font-family:Arial" x="141" y="285">Total: 12.0 km</text><text fill="#FFFFFF" style="font-size:3px; font-family:Arial" x="141" y="290">Avg: 12.0 km</text><text fill="#FFFFFF" style="font-size:3px; font-family:Arial" x="167" y="285">Min: 12.0 km</text><text fill="#FFFFFF" style="font-size:3px; font-family:Arial" x="167" y="290">Max: 12.0 km</text><polyline fill="none" opacity="1" points="30.953545662516262,207.19304619226386 30.849023403134197,207.24045026193926 30.72549709660234,207.27205295523163 30.635227872611722,207.22464890933406 30.521203589683864,207.22464890933406 30.392926271335455,207.22464890933406 30.245644905866357,207.24571737859515 30.103114552184707,207.28785429596246 29.965335210290505,207.32999118516454 29.846559915546095,207.25625161057178 29.680274502927205,207.2193817909283 29.580503255332587,207.16671058261636 29.414217842684593,207.15090921154842 29.29069153618184,207.07716942752813 29.152912194287637,207.024498100418 29.000879817001987,207.0086966937124 28.87260249868268,207.04029950317636 28.64930494458531,206.9507581685575 28.606545838469174,206.84014810906592 28.540031673415797,206.74533933222483 28.435509414062835,206.63999607963706 28.39750131976325,206.49778240946034 28.26922400141484,206.36610279922388 28.22646489532781,206.35030122750322 28.112440612370847,206.2976292932035 28.00791835298878,206.2396901146567 27.889143058244372,206.17121647136082 27.87013901109458,206.06587225954354 27.78462079889141,206.00266564796402 27.64684145699721,206.01320008764378 27.618335386243416,205.83938160812977 27.57557628012728,205.718235111759 27.456800985411974,205.69716613210403 27.342776702455012,205.6076228900347 27.26676051382674,205.49174321149985 27.157487242657226,205.386397864404 27.152736230869778,205.22837951368274 27.271511525614187,205.07562806487113 27.42829491465818,205.04929157075821 27.566074256552383,204.8965396880194 27.532817174011143,204.77539137992426 27.447298961837078,204.66477750400372 27.456800985411974,204.52255937834707 27.532817174011143,204.3750735758258 27.537568185827695,204.22232005947444 27.566074256552383,204.08010093566918 27.480556044349214,203.95368366737603 27.42829491465818,203.8114639375308 27.29051557276398,203.72191801710142 27.22875241949805,203.727185427706 27.257258490251843,203.727185427706 27.22875241949805,203.73245283787764 27.224001407710603,203.73245283787764 27.224001407710603,203.73245283787764 27.20974837234826,203.7377202475982 27.214499384135706,203.7429876568749 27.214499384135706,203.7377202475982 27.128981171903433,203.57969776438404 27.157487242657226,203.4690817904484 27.195495336985914,203.36373306338282 27.26676051382674,203.27945395495044 27.338025690667564,203.22677945497708 27.456800985411974,203.14250016344522 27.570825268368935,203.047685825808 27.684849551296793,202.94233639449521 27.72760865741293,202.84225427165438 27.67059651593445,202.74743948239848 27.57557628012728,202.66315955000755 27.532817174011143,202.49986686031116 27.566074256552383,202.39978403494752 27.570825268368935,202.29443352080125 27.60883336266852,202.14167496253867 27.52331515046535,202.03632401699724 27.480556044349214,201.98891603405718 27.399788843933493,201.89409996120594 27.414041879295837,201.6991998079793 27.49005806792411,201.61491847400612 27.485307056136662,201.47269346734902 27.518564138677903,201.3041300809018 27.60408235088107,201.17770724523507 27.623086398059968,201.03021361647188 27.656343480543,200.90379023137575 27.618335386243416,200.7879019056054 27.618335386243416,200.67201336675498 27.594580327306176,200.57719531283874 27.589829315518728,200.41916490596122 27.684849551296793,200.28220489948217 27.694351574900793,200.14524459539462 27.661094492359553,200.01355171460818 27.67059651593445,199.86078762815305 27.661094492359553,199.69221993060273 27.675347527721897,199.50784849513366 27.190744325169362,198.73875040348867 27.11947914835764,198.73875040348867 27.071969030454056,198.65973294454307 27.014956888975576,198.56491186303538 27.00070385361323,198.52803695948023 26.981699806434335,198.44901923631915 26.929438676772406,198.3858049864648 26.858173499902477,198.32785853505266 26.786908323090756,198.25937629650798 26.73939820518717,198.23303695417053 26.677635051921243,198.14348310788046 26.558859757176833,198.0539291343266 26.48284356854856,197.94330346187053 26.411578391707735,197.92223188319258 26.302305120567326,197.9643750334908 26.202533872972708,197.98017870760305 26.088509590015747,197.9854465980825 26.007742389600025,197.92749977851417 25.960232271725545,197.81160597953203 25.907971142005408,197.74312317993827 25.79394685907755,197.73785526918437 25.69892662327038,197.72731944637417 25.708428646845277,197.69571196738616 25.73693471759907,197.69571196738616 25.72268168220762,197.68517613751465 25.684673587908037,197.7115157088665 25.670420552545693,197.7115157088665 25.689424599695485,197.72205153429968 25.684673587908037,197.7167836218032 25.69892662327038,197.70097988164343 25.69892662327038,197.69044405267414 25.627661446429556,197.58508566603996 25.618159422825556,197.5113346905855 25.565898293163627,197.41124394295548 25.546894246013835,197.39017218636582 25.485131092747906,197.35329659536364 25.40911490409053,197.30061714219846 25.342600739037152,197.30588508950677 25.28558859755867,197.27427739910854 25.25233151507564,197.2690094491627 25.195319373568054,197.30061714219846 25.114552173152333,197.3427607082558 25.057540031673852,197.37963630542436 24.98152384304558,197.37963630542436 24.91976068977965,197.42704775579114 24.843744501151377,197.48499503557468 24.78198134788545,197.52187054950264 24.734471229981864,197.53240640666627 24.65845504135359,197.56401396757065 24.582438852725318,197.60615735745887 24.482667605159804,197.6483007191564 24.382896357565187,197.73785526918437 24.297378145332914,197.82740969193037 24.188104874192504,197.8484813023315 24.121590709139127,197.83267759519003 24.00756642621127,197.83794549801678 23.94105226112879,197.83794549801678 23.964807320095133,197.81160597953203 23.99331339081982,197.82740969193037 23.96005630827858,197.82214178824142 23.9125461904041,197.816873884105 23.836530001746723,197.75892690951878 23.7747668485099,197.7852664500242 23.698750659881625,197.76946272704663 23.6179834594368,197.73785526918437 23.527714235446183,197.73785526918437 23.446947035030462,197.63776488137955 23.385183881764533,197.60088943527444 23.356677811039845,197.569281892851 23.33767376386095,197.55874604185374 23.266408587020123,197.46919123726911 23.1951434101793,197.45338743502361 23.199894421966746,197.45865536955534 23.185641386604402,197.43758362879453 23.176139363029506,197.36910042270756 23.204645433754195,197.28481329766873 23.176139363029506,197.21632992554805 23.114376209763577,197.13731055752578 23.090621150826337,197.07936295801483 23.0478620447102,197.01614733411407 23.024106985743856,196.91078782001568 23.005102938594064,196.81596410670318 22.948090797115583,196.6526562659201 22.891078655637102,196.56836818249576 22.829315502371173,196.49988403168754 22.800809431646485,196.42613178603642 22.753299313772004,196.32603931456106 22.68203413693118,196.23648275794767 22.66778110153973,196.17326628840237 22.629773007211043,196.17326628840237 22.63452401899849,196.17853432995253 22.644026042573387,196.1890704117286 22.629773007211043,196.17853432995253 22.644026042573387,196.17853432995253 22.653528066177387,196.17853432995253 22.70578919586842,196.08897756367514 22.691536160506075,196.09951366042515 22.6155199718487,196.1047817081453 22.629773007211043,196.12058584865008 22.620270983636146,196.13112194012865 22.6250219954527,196.1258538946131 22.6250219954527,196.12058584865008 22.629773007211043,196.11531780224686 22.629773007211043,196.11531780224686 22.639275030815043,196.1047817081453 180.90973077600938,92.09600348762251 180.81471054023132,92.15404806581137 180.81471054023132,92.15404806581137 180.81471054023132,92.15404806581137 180.81946155201877,92.14877128821172 180.62942108043353,92.27013706060825 23.11912722152192,197.1109707461692 23.180890374816954,197.21106197076733 23.16663733945461,197.33222481937264 23.19039239839185,197.45865536955534 23.209396445541643,197.57454981768387 23.280661622382468,197.67464030591145 23.304416681348812,197.82214178824142 23.313918704923708,197.94330346187053 23.3329227520735,198.1382152306105 23.36142882279819,198.31205494813912 23.380432869977085,198.4332156798082 23.380432869977085,198.6070545835537 23.36617983461474,198.74928605719106 23.37093084640219,198.84410686128103 23.25215555165778,198.93892752267857 23.057364068285096,198.9599987614165 22.92908674996579,198.98633779989905 22.796058419859037,199.03374804143823 22.629773007211043,199.10749723515983 22.50149568892084,199.14963959281158 22.38272039417643,199.1917819222981 22.273447123006918,199.24972757931755 22.154671828262508,199.3129409625908 22.09765968681313,199.37088650819715 22.050149568909546,199.41302868972707 22.050149568909546,199.40776091858424 22.00263945100596,199.45517084308813 21.92662326237769,199.4867774396007 21.812598979420727,199.49204520414787 21.727080767217558,199.54999058508838 21.62730951962294,199.60793591273614 21.589301425294252,199.68695218277935 21.513285236695083,199.7501651274797 21.408762977313017,199.72909415296454 21.289987682568608,199.7343618972518 21.175963399611646,199.76070061211067 21.066690128471237,199.7501651274797 20.971669892664067,199.71329091744337 20.867147633311106,199.72909415296454 20.79113144465373,199.7501651274797 20.710364244238008,199.7975747944074 20.610592996672494,199.82918121920375 20.50131972550298,199.86078762815305 20.458560619415948,199.9398035811755 20.425303536874708,200.03989031277524 20.430054548662156,200.1136383290941 20.35878937182133,200.134709175054 20.325532289309194,200.16631543076437 20.24476508886437,200.17685084582263 20.13549181772396,200.16631543076437 20.030969558341894,200.16104772258404 19.92169628717238,200.2031893757594 19.92644729895983,200.24533100073677 19.93119831077638,200.3190787766689 19.92169628717238,200.3875587770308 19.893190216447692,200.43496796448744 19.888439204660244,200.49291247847577 19.864684145723004,200.561392289972 19.81242301603197,200.66674570082978 19.679394685925217,200.65621036765515 19.603378497296944,200.6983516897526 19.513109273277223,200.74049298364116 19.427591061074054,200.74049298364116 19.40383600210771,200.68781636185668 19.370578919595573,200.69308402602474 19.34207284884178,200.64040736463357 19.308815766329644,200.62460435761386 19.361076896020677,200.56665996470474 19.38008094317047,200.58773065919377 19.31831778990454,200.61933668773418 19.299313742725644,200.71415467826228 19.304064754542196,200.88798729041446 19.35632588423323,201.04074888710238 19.418089037499158,201.17243962158318 19.2945627309673,201.2198482186359 19.185289459797787,201.36734140365297 19.147281365498202,201.5569749915012 19.147281365498202,201.69393222791405 19.03325708254124,201.851959438598 19.004751011787448,202.05739422019542 19.123526306531858,202.115337242667 19.152032377256546,202.22068805614617 19.152032377256546,202.32603869354716 19.08551821220317,202.49986686031116 19.18053844801034,202.58941451672217 19.304064754542196,202.65262455053016 19.451346120011294,202.721102015621 19.565370402968256,202.85805672267088 19.655639626958873,203.00027860349292 19.83617807496921,203.13196524409068 20.011965511192102,203.20044218847033 20.163997888477752,203.16883745415907 20.35878937182133,203.1583025391992 20.544078831619117,203.2215120025612 20.7388703149918,203.26365160958449 20.947914833726827,203.27945395495044 21.042935069533996,203.28998884966495 21.175963399611646,203.35319818096832 21.327995776897296,203.36373306338282 21.465775118762394,203.37426794398925 21.63206053141039,203.40587257532752 21.79359493224183,203.4006051378783 21.931374274165137,203.448012059107 22.078655639634235,203.47434922217508 22.249692064069677,203.49015151472486 22.430230512050912,203.50068637422737 22.591764912911458,203.448012059107 22.710540207655868,203.416407448909 22.872074608516414,203.4638143582706 23.024106985743856,203.45327949260536 23.123878233338473,203.38480282286764 23.223649480903987,203.49541894469075 23.36142882279819,203.64817422241322 23.356677811039845,203.82726614559215 23.42319197609322,203.97475322970058 23.541967270808527,203.8588705498114 23.760513813147554,203.91154452161936 23.964807320095133,203.8588705498114 24.121590709139127,203.71665060606392 24.306880168936914,203.62710455092747 24.463663557980908,203.7377202475982 24.629948970628902,203.80092912996406 24.862748548330273,203.8114639375308 24.98152384304558,203.75878988210025 25.147809255693574,203.6903135442226 25.318845680099912,203.64290680519844 25.470878057385562,203.52702351527842 25.599155375675764,203.60603487243134 25.732183705782518,203.71138319456804 25.884216083068168,203.7377202475982 26.007742389600025,203.72191801710142 26.14077071970678,203.67451130185145 26.321309167688014,203.65870905550037 26.478092556761112,203.6534416391769 26.63012493401766,203.60603487243134 26.748900228762068,203.56916291808375 26.88667957065627,203.56916291808375 27.043462959700264,203.64290680519844 27.190744325169362,203.67977871642142 27.304768608126324,203.71138319456804 27.442547950020526,203.8114639375308 27.480556044349214,203.97475322970058 27.58507830373128,204.11697259116772 27.570825268368935,204.29606318254082 27.504311103286454,204.47515326516805 27.471054020774318,204.6384408382619 27.58507830373128,204.77539137992426 27.566074256552383,204.93867817540013 27.42829491465818,205.04929157075821 27.276262537401635,205.10723184325616 27.214499384135706,205.26525049760676 27.26200950203929,205.43380329238425 27.361780749604804,205.60235563653987 27.51381312686135,205.69189888608526 27.656343480543,205.81304543307124 27.642090445180656,205.96052787172084 27.841632940340787,205.98686398518475 27.908147105423268,206.1185443874565 28.055428470892366,206.23442291397077 28.235966918902704,206.334499651839 28.36899524900946,206.45564496409133 28.478268520149868,206.57679004360762 28.58754179131938,206.72953785555 28.67781101531,206.87701815046967 28.844096427957993,207.0086966937124 29.02938588775578,207.0086966937124 29.219426359341014,207.0508337694664 29.3952137955348,207.129840710626 29.571001231728587,207.17724482781705 29.71828259722679,207.2193817909283 29.889319021633128,207.3089227440687 30.060355446097674,207.32472407555542 30.207636811566772,207.2615187258889 30.392926271335455,207.2299160273178 30.573464719345793,207.2299160273178 30.739750131964684,207.24045026193926 30.882280485675437,207.19831331289242 31.034312862931984,207.15617633567672 31.16259018125129,207.10877220267503 31.290867499570595,207.20358043304805 31.414393806102453,207.2615187258889 31.542671124392655,207.32472407555542 31.566426183359,207.466935880635 31.632940348412376,207.5986131919708 31.751715643156786,207.714488998452 31.832482843572507,207.86723405441808 31.913250043988228,207.84616579283465 31.979764209041605,207.80929631812978 31.979764209041605,207.71975607551212 32.041527362307534,207.78822803718504 32.12229456275236,207.90937055646282" stroke="#4DD2FF" stroke-dasharray="none" stroke-linecap="round" stroke-linejoin="round" stroke-width="0.5"><title>2026-03-14 12.0km</title><desc>9223370263378906807</desc></polyline></svg>