<?xml version="1.0" encoding="utf-8" ?>
<svg baseProfile="full" height="300mm" version="1.1" viewBox="0,0,200,300" width="200mm" xmlns="http://www.w3.org/2000/svg" xmlns:ev="http://www.w3.org/2001/xml-events" xmlns:xlink="http://www.w3.org/1999/xlink"><defs /><rect fill="#222222" height="300" width="200" x="0" y="0" /><text fill="#FFFFFF" style="font-size:12px; font-family:Arial; font-weight:bold;" x="10" y="20">Over 10km Runs</text><text fill="#FFFFFF" style="font-size:4px; font-family:Arial" x="10" y="280">Runner</text><text fill="#FFFFFF" style="font-size:9px; font-family:Arial" x="10" y="290">yihong0618</text><text fill="#FFFFFF" style="font-size:4px; font-family:Arial" x="65" y="280">SPECIAL TRACKS</text><rect fill="yellow" height="2.6" width="2.6" x="65" y="283" /><text fill="#FFFFFF" style="font-size:3px; font-family:Arial" x="70" y="285.5">Over 20.0 km</text><rect fill="red" height="2.6" width="2.6" x="65" y="287" /><text fill="#FFFFFF" style="font-size:3px; font-family:Arial" x="70" y="289.5">Over 40.0 km</text><text fill="#FFFFFF" style="font-size:4px; font-family:Arial" x="120" y="280">STATISTICS</text><text fill="#FFFFFF" style="font-size:3px; font-family:Arial" x="120" y="285">Number: 1</text><text fill="#FFFFFF" style="font-size:3px; font-family:Arial" x="120" y="290">Weekly: 1.0</text><text fill="#FFFFFF" style="font-size:3px; font-family:Arial" x="141" y="285">Total: 12.0 km</text><text fill="#FFFFFF" style="font-size:3px; font-family:Arial" x="141" y="290">Avg: 12.0 km</text><text fill="#FFFFFF" style="font-size:3px; font-family:Arial" x="167" y="285">Min: 12.0 km</text><text fill="#FFFFFF" style="font-size:3px; font-family:Arial" x="167" y="290">Max: 12.0 km</text><polyline fill="none" opacity="1" points="31.001055780419847,207.17461149955489 30.89178250922123,207.19567997937702 30.78250923808082,207.2378169178628 30.677986978698755,207.22728268588617 30.57821573113324,207.20621421662509 30.445187401026487,207.21674845213056 30.302657047344837,207.2378169178628 30.15062467008829,207.22728268588617 30.03184937534388,207.31682360163177 29.889319021633128,207.30102227280076 29.73728664437658,207.21148133460883 29.623262361448724,207.17987862018344 29.475980995979626,207.153543012726 29.34770367766032,207.08507038186508 29.19567130037467,207.03766620925308 29.05314094669302,206.99026200100343 28.93436565194861,207.00079627258674 28.620798873831518,206.93759061669698 28.63980292098131,206.905987765007 28.573288755957037,206.7479732689062 28.49727256729966,206.69003452111792 28.42600739048794,206.51621795833853 28.316734119318426,206.43721027138236 28.24071793066105,206.33713372579587 28.150448706699535,206.2949961853992 28.055428470892366,206.2317898220099 27.89864508184837,206.21072102012113 27.846383952128235,206.08957527267194 27.851134963944787,205.96842929247578 27.708604610263137,206.0052998328356 27.59933133906452,205.8999553746071 27.60883336266852,205.73140387533567 27.49956009152811,205.69980041905 27.3807847967837,205.64186070806682 27.304768608126324,205.52071386758325 27.20974837234826,205.42063586724544 27.157487242657226,205.26788492890773 27.185993313411018,205.08879715054718 27.3712827731797,205.03085687804924 27.518564138677903,204.96238194189573 27.556572232977487,204.7938279360569 27.452049973624526,204.70955076414975 27.480556044349214,204.56206544221277 27.475805032561766,204.40404507155472 27.54707020940259,204.25655903490406 27.58032729194383,204.11960740620634 27.485307056136662,204.0089924119893 27.46155199719942,203.84043585710242 27.361780749604804,203.72455296416592 27.219250395923154,203.708750734997 27.224001407710603,203.70348332439244 27.2430054548895,203.708750734997 27.214499384135706,203.7192855548892 27.22875241949805,203.708750734997 27.219250395923154,203.71401814516867 27.214499384135706,203.7192855548892 27.214499384135706,203.7192855548892 27.138483195507433,203.62973952970424 27.133732183719985,203.49278653926376 27.16698926623212,203.39797275620003 27.2430054548895,203.29262394110629 27.333274678880116,203.21887966577196 27.40453985572094,203.14513530419208 27.532817174011143,203.06085592814998 27.642090445180656,202.94497160212632 27.722857645596378,202.86595943951033 27.71810663380893,202.7658772246832 27.594580327306176,202.6815973415869 27.55182122119004,202.55517730564316 27.55182122119004,202.42348949860752 27.58032729194383,202.32340658126486 27.57557628012728,202.17591567656928 27.59933133906452,202.0547621752703 27.480556044349214,201.99155156039706 27.442547950020526,201.92834088213203 27.395037832146045,201.79138419511946 27.456800985411974,201.6280892947434 27.504311103286454,201.50166714583247 27.504311103286454,201.35417431830138 27.58032729194383,201.1961459057893 27.618335386243416,201.07499052121057 27.63733943339321,200.94329962164193 27.63733943339321,200.82214375102922 27.627837409818312,200.6957199855533 27.594580327306176,200.61143733435165 27.589829315518728,200.46921010488222 27.651592468784656,200.29010869268313 27.699102586659137,200.1742192723941 27.680098539509345,200.04252649068076 27.67059651593445,199.90029797733223 27.661094492359553,199.74753366104778 27.684849551296793,199.52628813267074 27.656343480543,199.46834274689172 27.152736230869778,198.73611919068935 27.076720042241504,198.6939765688112 27.03871194794192,198.5886198908447 27.019707900763024,198.50433442163194 26.995952841825783,198.47272734163198 26.962695759313647,198.3831738621775 26.905683617835166,198.31469170377386 26.820165405602893,198.28308452864076 26.763153264124412,198.24620947094445 26.701390110887587,198.15665566956886 26.62537392223021,198.07763750384402 26.511349639302352,197.97754768502273 26.42583142707008,197.92486876916155 26.359317262016702,197.92486876916155 26.235790955484845,197.95647612395987 26.14077071970678,197.97227979542367 26.02199542496237,197.9354045558648 25.98873834242113,197.8300466096225 25.945979236334097,197.74576012578837 25.831954953377135,197.7194205764754 25.717930670420174,197.7299563975248 25.71317965866183,197.68254518893445 25.717930670420174,197.67200935996516 25.708428646845277,197.68781310277336 25.684673587908037,197.6983489290942 25.679922576091485,197.68254518893445 25.694175611482933,197.68781310277336 25.694175611482933,197.7036168415907 25.679922576091485,197.68781310277336 25.69892662327038,197.67727727467718 25.656167517154245,197.61933018867057 25.618159422825556,197.5139717139573 25.599155375675764,197.42968480735362 25.55639626958873,197.37173749365684 25.518388175260043,197.34012984554283 25.44237198663177,197.29271834364772 25.366355798003497,197.2874503967978 25.29509062116267,197.2611106558943 25.257082526833983,197.27164655357774 25.233327467896743,197.26637860495975 25.143058243906125,197.30325423604154 25.07654407885275,197.35066572999858 25.01478092558682,197.34012984554283 24.95301777232089,197.38227337283388 24.85799753651372,197.42441687193786 24.819989442214137,197.4876320677431 24.758226288919104,197.50343585679366 24.69171212389483,197.54557927486167 24.620446947054006,197.57191889685055 24.52067569945939,197.61933018867057 24.416153440106427,197.66674144480567 24.330635227874154,197.78263547634924 24.230863980279537,197.83531451110684 24.150096779863816,197.8300466096225 24.045574520510854,197.83531451110684 23.955305296491133,197.81424290248106 23.97430934367003,197.79843919139603 23.96955833188258,197.81424290248106 23.95055428473279,197.79843919139603 23.92679922579555,197.8089749992214 23.865036072500516,197.75629594243583 23.79852190744714,197.7404922168098 23.722505718818866,197.79317128682305 23.660742565552937,197.7141526652922 23.56097131795832,197.76156385010108 23.484955129330046,197.66147352922417 23.42319197609322,197.5877226647499 23.356677811039845,197.55084720014202 23.347175787435845,197.54557927486167 23.304416681348812,197.47709620617388 23.237902516295435,197.42968480735362 23.1951434101793,197.445488610927 23.209396445541643,197.43495274231464 23.16663733945461,197.38754131176393 23.1951434101793,197.29271834364772 23.204645433754195,197.22423500014702 23.13338025691337,197.16101954009355 23.104874186159577,197.0925360534602 23.062115080072545,197.02932046128262 23.043111032922752,196.94503290636567 23.009853950381512,196.8186013626182 22.99084990323172,196.64475757571927 22.905331690999446,196.5920775456034 22.867323596699862,196.51832542943157 22.81031145522138,196.44984124426992 22.772303360921796,196.3444808140448 22.701038184051868,196.24438824215758 22.68203413693118,196.16536767834623 22.653528066177387,196.1548315956934 22.6250219954527,196.16536767834623 22.64877705438994,196.16536767834623 22.63452401899849,196.16009963724355 22.644026042573387,196.1548315956934 22.644026042573387,196.1548315956934 22.686785148689523,196.11795529249503 22.691536160506075,196.08634701543633 22.663030089752283,196.11268724741967 22.639275030815043,196.09688310953788 22.620270983636146,196.1021511559411 22.620270983636146,196.11268724741967 22.629773007211043,196.10741920190412 22.629773007211043,196.1021511559411 22.629773007211043,196.09161506270175 22.639275030815043,196.09688310953788 22.63452401899849,196.09161506270175 180.90973077600938,92.07756879491353 180.81471054023132,92.13561337310239 180.81471054023132,92.13561337310239 180.81471054023132,92.13561337310239 180.7244413162407,92.19365789743097 23.09537216258468,197.0503923323813 23.142882280488266,197.17682341105683 23.185641386604402,197.2611106558943 23.176139363029506,197.3928092502465 23.1951434101793,197.5139717139573 23.256906563445227,197.60352642868747 23.304416681348812,197.7246884872293 23.299665669561364,197.89326139849436 23.328171740286052,198.06183385881377 23.36142882279819,198.20933439167857 23.380432869977085,198.3621024367385 23.380432869977085,198.50433442163194 23.37093084640219,198.67817307833684 23.380432869977085,198.7887974283658 23.3329227520735,198.90468939632046 23.128629245155025,198.90995720798674 22.99560091504827,198.96263530036958 22.838817525975173,198.99424213465318 22.701038184051868,199.05745575569745 22.55375681858277,199.12066931333902 22.425479500263464,199.15754385933906 22.3209572408814,199.21548953089223 22.202181946166093,199.26816736787805 22.09290867499658,199.33664849014895 22.054900580696994,199.38932622587527 22.050149568909546,199.3945939970181 22.021643498155754,199.41566507720563 21.955129333102377,199.45780721647316 21.86486010911176,199.47887827554223 21.7508358261548,199.51048485092906 21.65581559034763,199.5789657098794 21.6130564842897,199.62637549170904 21.546542319178116,199.73173043477072 21.42776702446281,199.72646269180768 21.34699982404709,199.70539171552082 21.218722505727783,199.7422659194017 21.099947210983373,199.74753366104778 21.009677986992756,199.70012397034225 20.900404715823242,199.6948562247344 20.810135491832625,199.73699817730812 20.748372338537592,199.74753366104778 20.658103114546975,199.7949433160611 20.548829843406565,199.82654973293756 20.47281365474919,199.884494789374 20.430054548662156,199.98458157954883 20.439556572237052,200.07413278337845 20.38729544254602,200.11100677150898 20.344536336429883,200.14261302987506 20.282773183193058,200.14261302987506 20.178250923810992,200.15841615311365 20.087981699820375,200.13207761219383 19.95495336971362,200.1636838599843 19.916945275414037,200.20055779573158 19.93119831077638,200.26903790484357 19.92644729895983,200.35858870449738 19.89794122823514,200.4059978998739 19.883688192843692,200.4481393769347 19.864684145723004,200.5113515396588 19.831427063181764,200.60616966490488 19.726904803828802,200.6483110081208 19.64138659159653,200.6693816691477 19.555868379364256,200.6851846603131 19.460848143615294,200.7431289273227 19.418089037499158,200.6957199855533 19.370578919595573,200.6693816691477 19.34207284884178,200.653578674046 19.31831778990454,200.6219726719246 19.37532993138302,200.5692959664848 19.37532993138302,200.55876062012976 19.332570825266885,200.61143733435165 19.26605666024261,200.62724034003622 19.332570825266885,200.77473486867893 19.313566778117092,200.96437018406505 19.41333802571171,201.09606103960687 19.34207284884178,201.1856106642117 19.232799577672267,201.28569538819283 19.152032377256546,201.44899117562818 19.190040471585235,201.60701895419697 19.06176315326593,201.7808490530224 19.009502023604,201.93360844107883 19.076016188657377,202.07056481906693 19.161534400860546,202.16011305917345 19.152032377256546,202.2654637670057 19.11402428295696,202.39188438398924 19.123526306531858,202.54990979865397 19.23755058948882,202.61838735531637 19.384831954957917,202.66579485094917 19.527362308639567,202.7658772246832 19.598627485480392,202.93443665283849 19.741157839191146,203.06612339246567 19.940700334351277,203.16620513059752 20.116487770545064,203.2083447622681 20.292275206767954,203.1187980112809 20.463311631203396,203.19254240368173 20.662854126334423,203.2294145675296 20.862396621523658,203.26628670982245 21.009677986992756,203.27155415695597 21.13795530531206,203.30315883053845 21.270983635418816,203.32422860411316 21.423016012646258,203.34003092968487 21.560795354569564,203.37163556892847 21.727080767217558,203.376903007269 21.879113144474104,203.4032401923323 22.026394509943202,203.429577366398 22.168924863624852,203.46644939159887 22.344712299847743,203.4822516815184 22.539503783220425,203.46644939159887 22.67253211332718,203.39270531962393 22.800809431646485,203.429577366398 22.96709484429448,203.47171682201588 23.07161710364744,203.37163556892847 23.152384304092266,203.4559145294661 23.318669716682052,203.56126307167506 23.318669716682052,203.729820373017 23.404187928914325,203.84570325625828 23.47545310575515,203.87730764198932 23.67974661270273,203.86150545110286 23.884040119679412,203.84570325625828 24.064578567660647,203.75615741063666 24.216610944917193,203.62447211248946 24.406651416502427,203.68241367757219 24.539679746638285,203.78249443725508 24.78198134788545,203.787761841264 24.9245117015671,203.7666922226199 25.086046102427645,203.70348332439244 25.24282949147164,203.62973952970424 25.423367939481977,203.55072822537477 25.527890198864043,203.55599564875592 25.684673587908037,203.6350069464679 25.812950906227343,203.70348332439244 25.96498328348389,203.729820373017 26.07900756644085,203.66134402371245 26.235790955484845,203.6402743627914 26.430582438857527,203.6718788515136 26.568361780780833,203.6086698582185 26.70614112264593,203.56653049416127 26.815414393815445,203.5401933773137 26.995952841825783,203.60340243926112 27.14798521908233,203.6402743627914 27.2430054548895,203.67714626475572 27.3807847967837,203.73508778142786 27.480556044349214,203.89310982891038 27.566074256552383,204.03532933297538 27.55182122119004,204.20388536676546 27.5280661622528,204.37770830458612 27.504311103286454,204.55679810290894 27.49956009152811,204.7253527424691 27.589829315518728,204.86230305528443 27.49480907971156,204.9939857678255 27.333274678880116,205.03612417774275 27.22875241949805,205.19941025019216 27.219250395923154,205.36269589971198 27.333274678880116,205.51017934871197 27.456800985411974,205.65766245271516 27.642090445180656,205.73667111648683 27.63258842160576,205.8841536906839 27.756114728137618,205.96842929247578 27.893894070060924,206.02110148638167 27.993665317626437,206.17911780409486 28.169452753820224,206.27919460049452 28.311983107530978,206.40033998360377 28.44976244942518,206.51621795833853 28.516276614478556,206.66896587237716 28.64930494458531,206.79011050659028 28.772831251117168,206.95865917570336 28.962871722702403,206.99026200100343 29.148161182471085,207.006063407709 29.300193559756735,207.05873473481915 29.51874010206666,207.12720739427823 29.656519443931757,207.18514574033907 29.83230688018375,207.2378169178628 29.984339257440297,207.31682360163177 30.155375681846635,207.25361826252265 30.312159070919733,207.2378169178628 30.497448530746624,207.21674845213056 30.682737990515307,207.21674845213056 30.825268344196957,207.20094709821933 30.986802745057503,207.14827588990738 31.105578039801912,207.08507038186508 31.24335738166701,207.13774164296774 31.366883688198868,207.2430840331799 31.50466303009307,207.26415249012643 31.55217314796755,207.39056308383442 31.59968326590024,207.53277469885143 31.7042055252532,207.65918475404033 31.803976772847818,207.76452627313483 31.870490937901195,207.82773110012567 31.946507126558572,207.81192989932606 31.96551117367926,207.73292383589433 32.0082702797954,207.73292383589433 32.08428646842367,207.84353229696353 32.17930670423084,207.95414056404115" stroke="#4DD2FF" stroke-dasharray="none" stroke-linecap="round" stroke-linejoin="round" stroke-width="0.5"><title>2026-03-14 12.0km</title><desc>9223370263378906807</desc></polyline></svg>