<?xml version="1.0" encoding="utf-8" ?>
<svg baseProfile="full" height="300mm" version="1.1" viewBox="0,0,200,300" width="200mm" xmlns="http://www.w3.org/2000/svg" xmlns:ev="http://www.w3.org/2001/xml-events" xmlns:xlink="http://www.w3.org/1999/xlink"><defs /><rect fill="#222222" height="300" width="200" x="0" y="0" /><text fill="#FFFFFF" style="font-size:12px; font-family:Arial; font-weight:bold;" x="10" y="20">Over 10km Runs</text><text fill="#FFFFFF" style="font-size:4px; font-family:Arial" x="10" y="280">Runner</text><text fill="#FFFFFF" style="font-size:9px; font-family:Arial" x="10" y="290">yihong0618</text><text fill="#FFFFFF" style="font-size:4px; font-family:Arial" x="65" y="280">SPECIAL TRACKS</text><rect fill="yellow" height="2.6" width="2.6" x="65" y="283" /><text fill="#FFFFFF" style="font-size:3px; font-family:Arial" x="70" y="285.5">Over 20.0 km</text><rect fill="red" height="2.6" width="2.6" x="65" y="287" /><text fill="#FFFFFF" style="font-size:3px; font-family:Arial" x="70" y="289.5">Over 40.0 km</text><text fill="#FFFFFF" style="font-size:4px; font-family:Arial" x="120" y="280">STATISTICS</text><text fill="#FFFFFF" style="font-size:3px; font-family:Arial" x="120" y="285">Number: 1</text><text fill="#FFFFFF" style="font-size:3px; font-family:Arial" x="120" y="290">Weekly: 1.0</text><text fill="#FFFFFF" style="font-size:3px; font-family:Arial" x="141" y="285">Total: 12.0 km</text><text fill="#FFFFFF" style="font-size:3px; font-family:Arial" x="141" y="290">Avg: 12.0 km</text><text fill="#FFFFFF" style="font-size:3px; font-family:Arial" x="167" y="285">Min: 12.0 km</text><text fill="#FFFFFF" style="font-size:3px; font-family:Arial" x="167" y="290">Max: 12.0 km</text><polyline fill="none" opacity="1" points="28.924863628373714,207.34052310579136 28.620798873831518,207.26678318007907 28.63980292098131,207.2509817562095 28.573288755957037,207.08770014434776 28.525778638053453,207.03502856646082 28.421256378671387,206.88754791428073 28.36899524900946,206.80327310099165 28.264472989627393,206.676860669897 28.221713883511256,206.65579190673452 28.112440612370847,206.61365435928747 28.022171388351126,206.5504479853298 27.89864508184837,206.51357757125515 27.855885975732235,206.40823341224313 27.846383952128235,206.29762185585787 27.71810663380893,206.33449239621768 27.594580327306176,206.26075129392848 27.623086398059968,206.08693264017347 27.532817174011143,206.03426022624262 27.418792891083285,205.9973895103103 27.328523667092668,205.89731174409098 27.257258490251843,205.7972338190084 27.157487242657226,205.6971557350771 27.152736230869778,205.54967195339486 27.2335034312855,205.38111863758968 27.395037832146045,205.36004944143133 27.532817174011143,205.2652379715728 27.556572232977487,205.123020499439 27.466303008957766,205.0545453058512 27.471054020774318,204.91759469552562 27.442547950020526,204.76484174075813 27.532817174011143,204.64895994195103 27.556572232977487,204.5067410795782 27.54707020940259,204.36978927922974 27.480556044349214,204.2591741463766 27.42829491465818,204.1222218082039 27.32377265530522,204.0379432983791 27.22875241949805,204.0379432983791 27.22875241949805,204.0379432983791 27.2430054548895,204.04321070855076 27.214499384135706,204.04321070855076 27.22875241949805,204.04321070855076 27.219250395923154,204.04321070855076 27.20974837234826,204.0484781182713 27.214499384135706,204.04321070855076 27.214499384135706,204.0484781182713 27.133732183719985,203.87992078875686 27.157487242657226,203.7798396611215 27.185993313411018,203.6797583745829 27.257258490251843,203.60074672033807 27.338025690667564,203.54280477761858 27.414041879295837,203.47432786757417 27.532817174011143,203.39004849153207 27.63733943339321,203.27943163950113 27.713355622050585,203.21622192261566 27.71810663380893,203.12140722843105 27.63733943339321,203.03712738053582 27.570825268368935,202.9423124169698 27.532817174011143,202.79482219018246 27.566074256552383,202.70527438410136 27.570825268368935,202.60519139147436 27.60408235088107,202.46823545985535 27.566074256552383,202.36288454072564 27.480556044349214,202.31547656968178 27.442547950020526,202.25753344551413 27.395037832146045,202.13111189884148 27.456800985411974,201.96781702575754 27.509062115073903,201.8677328621743 27.504311103286454,201.73077532817842 27.542319197615143,201.58854988172607 27.60883336266852,201.47266224362465 27.618335386243416,201.33043621473553 27.656343480543,201.21454810204887 27.618335386243416,201.10919508742518 27.63258842160576,201.00384189669785 27.594580327306176,200.91429154612342 27.58507830373128,200.7773319403168 27.651592468784656,200.61930125606523 27.699102586659137,200.508679541319 27.694351574900793,200.39278991763422 27.661094492359553,200.26636463055547 27.675347527721897,200.1241358794432 27.67059651593445,199.976639057797 27.67059651593445,199.8133386025802 27.181242301594466,199.05477610122762 27.11947914835764,199.04950827416178 27.06246700687916,198.99156214729373 27.03871194794192,198.90200893732617 27.014956888975576,198.82825913945635 26.995952841825783,198.80191990501407 26.96744677107199,198.71763428080885 26.905683617835166,198.64915212812411 26.82966742917779,198.62281281881224 26.763153264124412,198.58593776728958 26.725145169824827,198.51745547150495 26.672884040133795,198.44897310128363 26.54460672181449,198.3488833493866 26.48284356854856,198.25406133254364 26.416329403495183,198.2382576491873 26.326060179504566,198.2751329041639 26.22628893190995,198.28566868734197 26.12651768431533,198.30674024840482 26.02199542496237,198.2645971192469 25.98873834242113,198.16450707448894 25.950730248121545,198.09075641348318 25.86996304767672,198.0433452286743 25.746436741144862,198.08022059771974 25.69892662327038,198.0275414924763 25.708428646845277,198.00120192334725 25.732183705782518,198.00646983805927 25.72268168220762,197.99593400818776 25.69892662327038,198.02227357953961 25.66566954072914,198.02227357953961 25.69892662327038,198.02227357953961 25.689424599695485,198.0275414924763 25.679922576091485,198.01700566615546 25.69892662327038,197.99593400818776 25.684673587908037,197.96959442586012 25.622910434642108,197.85896805977245 25.608657399279764,197.8010208381238 25.565898293163627,197.71673387514602 25.546894246013835,197.69566211678102 25.485131092747906,197.66405446603676 25.423367939481977,197.6166429601799 25.342600739037152,197.62191090702981 25.290339609375224,197.58503526978166 25.257082526833983,197.60083911695983 25.233327467896743,197.59557116834185 25.143058243906125,197.63244679942363 25.086046102427645,197.67459035136926 25.02903396092006,197.66405446603676 24.98152384304558,197.70093005703893 24.905507654417306,197.74307356318604 24.83424247757648,197.8010208381238 24.78198134788545,197.83262842017575 24.734471229981864,197.84316427733938 24.663206053170143,197.87477183824376 24.601442899904214,197.91691522813198 24.51117367585539,197.9590585898295 24.416153440106427,198.00120192334725 24.344888263265602,198.10656013381958 24.249868027458433,198.1592391730046 24.145345768076368,198.1592391730046 24.08358261481044,198.1592391730046 23.988562379032373,198.1487033686899 23.95055428473279,198.13816756260348 23.964807320095133,198.12236385020515 23.99331339081982,198.13816756260348 23.96955833188258,198.13289965891454 23.9125461904041,198.12763175477812 23.85078303713817,198.07495268917046 23.79377089565969,198.0696847801919 23.722505718818866,198.12236385020515 23.670244589156937,198.0433452286743 23.575224353349768,198.08022059771974 23.494457152904943,198.01173775231655 23.437445011455566,197.92218314987986 23.36617983461474,197.90111146023264 23.356677811039845,197.8800397635241 23.342424775648396,197.8642359863843 23.27115959880757,197.7904849739134 23.199894421966746,197.76414530569673 23.1951434101793,197.76941324022846 23.19039239839185,197.75360943531996 23.16663733945461,197.71673387514602 23.1951434101793,197.62191090702981 23.199894421966746,197.5639634673753 23.13338025691337,197.50601597443892 23.114376209763577,197.44280046681524 23.08587013903889,197.37431692864993 23.05261305649765,197.31110128890214 23.024106985743856,197.2110097295881 23.005102938594064,197.1267219773763 22.95759282069048,196.96868213807466 22.891078655637102,196.88966206977057 22.838817525975173,196.83698196917248 22.81031145522138,196.779033807652 22.772303360921796,196.6736733774269 22.710540207655868,196.5841168732295 22.68203413693118,196.50509632263856 22.66778110153973,196.48929220062564 22.6250219954527,196.48929220062564 22.644026042573387,196.49456024172832 22.644026042573387,196.49456024172832 22.629773007211043,196.48929220062564 22.644026042573387,196.49456024172832 22.64877705438994,196.48929220062564 22.686785148689523,196.42607567291998 22.691536160506075,196.41027153109826 22.65827907793573,196.43661176528622 22.639275030815043,196.42607567291998 22.6250219954527,196.4313437193232 22.620270983636146,196.44187981080177 22.6250219954527,196.43661176528622 22.6250219954527,196.4313437193232 22.629773007211043,196.42607567291998 22.63452401899849,196.42080762608384 22.639275030815043,196.41553957881843 180.90973077600938,92.40676135829563 180.81471054023132,92.46480593648448 180.81471054023132,92.46480593648448 180.81471054023132,92.46480593648448 180.81471054023132,92.46480593648448 180.7244413162407,92.52285046081306 23.090621150826337,197.3690489610999 23.11912722152192,197.49548006090117 23.180890374816954,197.5639634673753 23.171388351242058,197.67459035136926 23.185641386604402,197.7904849739134 23.209396445541643,197.885307688357 23.280661622382468,197.98013026010813 23.304416681348812,198.10656013381958 23.313918704923708,198.2382576491873 23.3329227520735,198.4068300672261 23.36617983461474,198.55433056310358 23.375681858189637,198.68602714266672 23.38993489355198,198.81245560011303 23.380432869977085,198.97049081521618 23.380432869977085,199.09691870196184 23.37093084640219,199.17593600237888 23.209396445541643,199.26022101361013 23.0478620447102,199.27075663208961 22.92908674996579,199.29709567057216 22.800809431646485,199.34450591211134 22.65827907793573,199.41298730914423 22.53000175964553,199.45512967032482 22.401724441326223,199.4920042132362 22.3209572408814,199.54468209427432 22.216434981528437,199.5868243673831 22.107161710358923,199.65530550109906 22.078655639634235,199.70798324561838 22.050149568909546,199.72378656040019 22.050149568909546,199.7290543311101 21.997888439218514,199.76592871376124 21.917121238802793,199.79753531027382 21.812598979420727,199.80280307482099 21.727080767217558,199.8607484557615 21.636811543197837,199.9081582732615 21.60830547247315,199.9608358064288 21.546542319178116,200.06092299815282 21.437269048037706,200.05565525518978 21.361252859409433,200.03985202363765 21.237726552877575,200.06619074069022 21.133204293524614,200.08726170639784 21.042935069533996,200.050387511772 20.952665845514275,200.0240487881165 20.84339257434476,200.04511976792492 20.79113144465373,200.06092299815282 20.724617279600352,200.09779718660866 20.624846032063942,200.1346713535131 20.529825796256773,200.1610100309299 20.47281365474919,200.22949054071432 20.430054548662156,200.31377414293092 20.439556572237052,200.39278991763422 20.396797466120915,200.44019933489108 20.349287348246435,200.46127017557592 20.311279253917746,200.47180559325716 20.225761041714577,200.4928764233664 20.13074080593651,200.47180559325716 20.030969558341894,200.47707330143749 19.92169628717238,200.5139472464325 19.92169628717238,200.5402857653462 19.935949322534725,200.61930125606523 19.92644729895983,200.68778126787947 19.89794122823514,200.735190463256 19.888439204660244,200.7667965736764 19.8741861692979,200.82474106830705 19.855182122119004,200.90902387447204 19.76016188634094,200.98803890290583 19.655639626958873,200.9775035715029 19.589125461905496,201.00384189669785 19.508358261489775,201.0617861733881 19.427591061074054,201.05125085431428 19.41333802571171,201.0091095604257 19.36582790777902,201.0091095604257 19.337321837054333,200.9722359051484 19.327819813479437,200.9458975667294 19.37532993138302,200.89848852986688 19.361076896020677,200.8826855096704 19.332570825266885,200.92482688808013 19.299313742725644,200.9511652353067 19.31831778990454,201.05651851408038 19.299313742725644,201.23035103905931 19.36582790777902,201.36204202667432 19.418089037499158,201.4831974922563 19.299313742725644,201.5253384691714 19.199542495189235,201.65176123087804 19.152032377256546,201.8203245187069 19.190040471585235,201.94147910336687 19.06176315326593,202.1100416164045 19.009502023604,202.26280100446093 19.06176315326593,202.4050249295069 19.156783389073098,202.47350300119433 19.123526306531858,202.5577836026714 19.133028330135858,202.66840172111552 19.080767200444825,202.8422298007099 19.190040471585235,202.9001723873953 19.304064754542196,202.96338242120328 19.418089037499158,203.010789904969 19.555868379364256,203.1372096873638 19.60812950905529,203.28469911305365 19.75541087455349,203.40058341970507 19.940700334351277,203.4953976939796 20.09748372339527,203.54807222915406 20.259018124226714,203.44799057466298 20.42055252508726,203.4953976939796 20.582086925947806,203.5375373256502 20.77212739753304,203.5744094802576 20.96216786908917,203.60074672033807 21.04768608129234,203.60074672033807 21.16646137603675,203.6586886097939 21.3089917297184,203.66395605164143 21.442020059854258,203.67449093405594 21.57504838996101,203.71136300855142 21.731831779005006,203.7060955706511 21.879113144474104,203.72716531958213 22.00263945100596,203.7587699297801 22.140418792900164,203.79564195498097 22.29245117015671,203.80617681536387 22.463487594592152,203.81144424490049 22.620270983636146,203.74296762667655 22.72954425480566,203.72189788300602 22.872074608516414,203.77457222894373 23.024106985743856,203.7693047963221 23.11912722152192,203.68502581466237 23.180890374816954,203.80617681536387 23.328171740286052,203.90099047958574 23.318669716682052,204.05901293639909 23.404187928914325,204.1590936208231 23.45169804681791,204.23810457526633 23.63223649482825,204.1696284204845 23.808023931022035,204.18543061663877 23.988562379032373,204.14329141805865 24.140594756318023,204.01687365330872 24.31638219251181,203.93786242160058 24.454161534406012,204.04321070855076 24.596691888087662,204.1222218082039 24.83899348936393,204.1222218082039 24.95301777232089,204.0748151602893 25.086046102427645,204.03267588777453 25.23807847968419,203.95893209308633 25.39486186875729,203.91152532236083 25.5041351398977,203.8693859406958 25.632412458217004,203.94839725823113 25.765440788323758,204.05374552754802 25.898469118430512,204.06428034480996 26.01724441317492,204.03267588777453 26.14077071970678,203.98526917252457 26.311807144113118,203.96419950985 26.463839521398768,203.97473434206768 26.60161886329297,203.92732758323837 26.70614112264593,203.89572305754336 26.815414393815445,203.8693859406958 26.981699806434335,203.91679274310445 27.128981171903433,203.96946692617348 27.195495336985914,203.98526917252457 27.342776702455012,204.0379432983791 27.456800985411974,204.15382622034303 27.485307056136662,204.31711543065103 27.58032729194383,204.4382652165914 27.566074256552383,204.59628632662134 27.504311103286454,204.74377233862833 27.49005806792411,204.91759469552562 27.532817174011143,205.05981263106878 27.594580327306176,205.19676293244265 27.49480907971156,205.3231783312076 27.34752771424246,205.36004944143133 27.238254443072947,205.49699909061746 27.20499736056081,205.63921571913306 27.295266584551428,205.7814320268444 27.3807847967837,205.94471702157898 27.537568185827695,206.01319124834117 27.656343480543,206.12380330374435 27.63733943339321,206.26601851838495 27.8036248460121,206.29762185585787 27.89864508184837,206.39243177321987 28.00791835298878,206.51884477458225 28.169452753820224,206.6083871638766 28.302481083926978,206.7137309884747 28.430758402246283,206.8190746370783 28.49727256729966,206.97182261491253 28.61604786204407,207.0771658322883 28.69681506245979,207.2351803283891 28.867851486895233,207.32472170038818 29.043638923118124,207.31945456438552 29.214675347524462,207.3563245072146 29.366707724810112,207.43533145497713 29.53774414921645,207.46693420634983 29.680274502927205,207.5248725427591 29.841808903758647,207.572276596562 29.984339257440297,207.64601616501386 30.131620622909395,207.59334505350853 30.27415097662015,207.57754371146802 30.449938412813935,207.54067389799093" stroke="#4DD2FF" stroke-dasharray="none" stroke-linecap="round" stroke-linejoin="round" stroke-width="0.5"><title>2026-03-14 12.0km</title><desc>9223370263378906807</desc></polyline></svg>