<?xml version="1.0" encoding="utf-8" ?>
<svg baseProfile="full" height="300mm" version="1.1" viewBox="0,0,200,300" width="200mm" xmlns="http://www.w3.org/2000/svg" xmlns:ev="http://www.w3.org/2001/xml-events" xmlns:xlink="http://www.w3.org/1999/xlink"><defs /><rect fill="#222222" height="300" width="200" x="0" y="0" /><text fill="#FFFFFF" style="font-size:12px; font-family:Arial; font-weight:bold;" x="10" y="20">Over 10km Runs</text><text fill="#FFFFFF" style="font-size:4px; font-family:Arial" x="10" y="280">Runner</text><text fill="#FFFFFF" style="font-size:9px; font-family:Arial" x="10" y="290">yihong0618</text><text fill="#FFFFFF" style="font-size:4px; font-family:Arial" x="65" y="280">SPECIAL TRACKS</text><rect fill="yellow" height="2.6" width="2.6" x="65" y="283" /><text fill="#FFFFFF" style="font-size:3px; font-family:Arial" x="70" y="285.5">Over 20.0 km</text><rect fill="red" height="2.6" width="2.6" x="65" y="287" /><text fill="#FFFFFF" style="font-size:3px; font-family:Arial" x="70" y="289.5">Over 40.0 km</text><text fill="#FFFFFF" style="font-size:4px; font-family:Arial" x="120" y="280">STATISTICS</text><text fill="#FFFFFF" style="font-size:3px; font-family:Arial" x="120" y="285">Number: 1</text><text fill="#FFFFFF" style="font-size:3px; font-family:Arial" x="120" y="290">Weekly: 1.0</text><text fill="#FFFFFF" style="font-size:3px; font-family:Arial" x="141" y="285">Total: 12.0 km</text><text fill="#FFFFFF" style="font-size:3px; font-family:Arial" x="141" y="290">Avg: 12.0 km</text><text fill="#FFFFFF" style="font-size:3px; font-family:Arial" x="167" y="285">Min: 12.0 km</text><text fill="#FFFFFF" style="font-size:3px; font-family:Arial" x="167" y="290">Max: 12.0 km</text><polyline fill="none" opacity="1" points="28.82034136899165,207.34579024004415 28.658806968160206,207.26678318007907 28.57803976771538,207.11930306997237 28.540031673415797,207.05083004444532 28.435509414062835,206.9612882834881 28.41175435509649,206.80854028013346 28.288228048593737,206.7189981750853 28.24071793066105,206.66105909817634 28.145697694882983,206.6241887487813 28.055428470892366,206.56624958475732 27.903396093606716,206.55571518557554 27.83213091676589,206.43983667843713 27.884392046456924,206.33449239621768 27.756114728137618,206.3239579583169 27.618335386243416,206.31342351863714 27.623086398059968,206.13960501009933 27.57557628012728,206.0289929824321 27.46155199719942,206.00792400277714 27.35227872602991,205.9394497702815 27.295266584551428,205.828837391462 27.195495336985914,205.74456116305737 27.157487242657226,205.59707749228983 27.181242301594466,205.4390588907154 27.357029737817356,205.37585133920948 27.49005806792411,205.33371293633172 27.566074256552383,205.15989172672562 27.504311103286454,205.08088192757714 27.456800985411974,204.95973337654505 27.456800985411974,204.82804990486693 27.5280661622528,204.69109880253018 27.532817174011143,204.54888003520318 27.57557628012728,204.42246308379254 27.475805032561766,204.3223828174814 27.456800985411974,204.1696284204845 27.366531761421356,204.06428034480996 27.219250395923154,204.03267588777453 27.224001407710603,204.0379432983791 27.247756466676947,204.03267588777453 27.214499384135706,204.0379432983791 27.224001407710603,204.04321070855076 27.219250395923154,204.04321070855076 27.20974837234826,204.0484781182713 27.214499384135706,204.05374552754802 27.214499384135706,204.0484781182713 27.128981171903433,203.9325950026432 27.133732183719985,203.81671167400054 27.16698926623212,203.72716531958213 27.238254443072947,203.62708394942092 27.304768608126324,203.55333968026025 27.366531761421356,203.4953976939796 27.485307056136662,203.41111834611002 27.594580327306176,203.32157141554853 27.694351574900793,203.23729183527394 27.72760865741293,203.1530121423275 27.680098539509345,203.0581973530716 27.58032729194383,202.99498741433126 27.542319197615143,202.8422298007099 27.566074256552383,202.74214702553945 27.58032729194383,202.64206409144754 27.57557628012728,202.51037577820898 27.60883336266852,202.39975738244902 27.49005806792411,202.33127923066058 27.471054020774318,202.26280100446093 27.390286820358597,202.17325244257518 27.42829491465818,201.9994225180817 27.49956009152811,201.9151411699895 27.485307056136662,201.78345133802213 27.51381312686135,201.630690788199 27.60408235088107,201.50953560613198 27.627837409818312,201.3778449266938 27.642090445180656,201.26722454332776 27.63733943339321,201.1513363144113 27.627837409818312,201.03544787241117 27.59933133906452,200.95643290341832 27.60408235088107,200.8458117804148 27.623086398059968,200.671978194845 27.699102586659137,200.55608887140988 27.699102586659137,200.44019933489108 27.656343480543,200.31377414293092 27.67059651593445,200.17681323210127 27.661094492359553,200.01878104207208 27.675347527721897,199.83440965283808 27.656343480543,199.79753531027382 27.157487242657226,199.06004392786417 27.076720042241504,199.0231691321933 27.048213971487712,198.9230802923048 27.02445891255047,198.8493305190823 27.00545486540068,198.82299129345483 26.972197782888543,198.74397355048131 26.905683617835166,198.6912950001206 26.858173499902477,198.6333485438554 26.786908323090756,198.5701341671811 26.74414921697462,198.54379482484364 26.68713707549614,198.4647767317947 26.592116839718074,198.38049065663654 26.5065986274858,198.30147235880577 26.42583142707008,198.25406133254364 26.359317262016702,198.24879343853172 26.25004399084719,198.2751329041639 26.169276790431468,198.30147235880577 26.050501495716162,198.29093657827616 25.998240365996026,198.21191816813734 25.950730248121545,198.11182803973134 25.898469118430512,198.05388105061138 25.79394685907755,198.04861313985748 25.70367763505783,198.04861313985748 25.69892662327038,198.01700566615546 25.732183705782518,198.00646983805927 25.71317965866183,198.02227357953961 25.689424599695485,198.0328094049728 25.679922576091485,198.02227357953961 25.684673587908037,198.02227357953961 25.670420552545693,198.0433452286743 25.67517156433314,198.0275414924763 25.694175611482933,198.00120192334725 25.694175611482933,198.00120192334725 25.627661446429556,197.89584353671307 25.622910434642108,197.83262842017575 25.58015132852597,197.7325376892877 25.542143234197283,197.70093005703893 25.513637163472595,197.66405446603676 25.44237198663177,197.62191090702981 25.375857821607497,197.6166429601799 25.29509062116267,197.59557116834185 25.266584550437983,197.5903032192764 25.26183353862143,197.5797673198358 25.176315326418262,197.62717885343955 25.105050149577437,197.65351857892892 25.057540031673852,197.69039417609747 24.98152384304558,197.68512623495553 24.934013725141995,197.72726975168553 24.843744501151377,197.75887737073572 24.80098539503524,197.82736049093 24.758226288919104,197.83262842017575 24.69171212389483,197.87477183824376 24.6394509942038,197.885307688357 24.539679746638285,197.9379869125114 24.444659510802012,197.96959442586012 24.363892310415395,198.0696847801919 24.28787612178712,198.1592391730046 24.183353862405056,198.16450707448894 24.121590709139127,198.14343546586315 24.017068449757062,198.1487033686899 23.94580327294534,198.1487033686899 23.964807320095133,198.12236385020515 23.96955833188258,198.14343546586315 23.95055428473279,198.12763175477812 23.94105226112879,198.1592391730046 23.87928910786286,198.09075641348318 23.812774942809483,198.06441687076222 23.755762801360106,198.11182803973134 23.684497624490177,198.05388105061138 23.603730424074456,198.05388105061138 23.527714235446183,198.04861313985748 23.45169804681791,197.95379067115573 23.39468590533943,197.91691522813198 23.356677811039845,197.8800397635241 23.342424775648396,197.87477183824376 23.299665669561364,197.80628876955598 23.237902516295435,197.75887737073572 23.19039239839185,197.7904849739134 23.209396445541643,197.76414530569673 23.176139363029506,197.73780562646425 23.180890374816954,197.65878652269384 23.1951434101793,197.5797673198358 23.16663733945461,197.52708779622117 23.114376209763577,197.4480684281989 23.090621150826337,197.40065675982623 23.05261305649765,197.33744114650835 23.0383600211062,197.2531535634189 23.009853950381512,197.1425259395146 22.99084990323172,196.97395013910136 22.910082702816,196.9265381139703 22.881576632062206,196.84224998121863 22.81031145522138,196.78956984099932 22.800809431646485,196.71054954804276 22.734295266593108,196.61572506572338 22.677283125114627,196.53670455476095 22.663030089752283,196.4787561170706 22.629773007211043,196.4840241590755 22.6250219954527,196.49456024172832 22.644026042573387,196.49982828240172 22.63452401899849,196.48929220062564 22.639275030815043,196.4840241590755 22.644026042573387,196.4787561170706 22.68203413693118,196.45768394469997 22.69628717226442,196.41027153109826 22.691536160506075,196.44187981080177 22.606017948273802,196.42080762608384 22.6250219954527,196.43661176528622 22.620270983636146,196.44714785587712 22.6250219954527,196.43661176528622 22.6250219954527,196.4313437193232 22.629773007211043,196.4313437193232 22.63452401899849,196.41553957881843 22.639275030815043,196.42607567291998 22.63452401899849,196.42080762608384 180.90973077600938,92.40676135829563 180.81471054023132,92.46480593648448 180.81471054023132,92.46480593648448 180.81471054023132,92.46480593648448 180.7244413162407,92.52285046081306 180.62942108043353,92.58089493128136 23.11912722152192,197.42699658000492 23.180890374816954,197.52181984144045 23.180890374816954,197.62717885343955 23.19039239839185,197.7325376892877 23.199894421966746,197.85370013272768 23.256906563445227,197.93271899206957 23.304416681348812,198.05388105061138 23.299665669561364,198.20665027059658 23.318669716682052,198.31727602630053 23.351926799223293,198.50691972708591 23.375681858189637,198.64915212812411 23.39468590533943,198.75977710699226 23.380432869977085,198.92834812994988 23.36617983461474,199.06004392786417 23.37093084640219,199.14432909408788 23.280661622382468,199.23914977136883 23.100123174401233,199.244417582584 22.981347879656823,199.29709567057216 22.838817525975173,199.32343469803527 22.710540207655868,199.38138051976057 22.572760865732562,199.43405849325063 22.444483547413256,199.47093304851296 22.354214323451743,199.5236109471407 22.26394509943202,199.56575323434663 22.140418792900164,199.6342343909564 22.09765968681313,199.68164437887026 22.050149568909546,199.72378656040019 22.050149568909546,199.71851878925736 22.01689248639741,199.74485764058772 21.94562730952748,199.78699977985525 21.86486010911176,199.80807083892432 21.755586837942246,199.83440965283808 21.66531761395163,199.90289051751824 21.617807496048044,199.9450325511134 21.570297378173564,200.0345842789029 21.475277142366394,200.06619074069022 21.389758930163225,200.0345842789029 21.270983635418816,200.050387511772 21.175963399611646,200.07145848278378 21.071441140258685,200.06619074069022 20.985922928055516,200.01878104207208 20.88140066867345,200.0240487881165 20.805384480045177,200.06092299815282 20.748372338537592,200.07672622442988 20.662854126334423,200.1294036167019 20.56308287876891,200.1504745612874 20.487066690140637,200.18734869734544 20.439556572237052,200.2821678053224 20.430054548662156,200.37171905406285 20.401548477937467,200.4296639119275 20.35878937182133,200.44546704572713 20.325532289309194,200.47707330143749 20.259018124226714,200.48760871649574 20.1592468766612,200.48234100919944 20.064226640883135,200.46653788464027 19.950202357926173,200.4928764233664 19.916945275414037,200.52975035911368 19.93119831077638,200.57189197352272 19.92169628717238,200.66671050294826 19.90744325183914,200.70358433697038 19.90269224002259,200.7562612052934 19.893190216447692,200.80893802960054 19.869435157481348,200.8826855096704 19.81242301603197,200.9775035715029 19.69364772128756,200.96696823832826 19.603378497296944,201.0091095604257 19.536864332243567,201.0249125489354 19.451346120011294,201.05651851408038 19.418089037499158,201.0249125489354 19.370578919595573,200.9985742325298 19.361076896020677,200.99330656793973 19.31831778990454,200.9511652353067 19.35632588423323,200.92482688808013 19.370578919595573,200.8826855096704 19.36582790777902,200.91429154612342 19.31831778990454,200.9300945584073 19.299313742725644,201.0249125489354 19.313566778117092,201.16713926726152 19.332570825266885,201.3251685778814 19.432342072861502,201.44632411434213 19.34207284884178,201.5148032275938 19.23755058948882,201.59908511097456 19.147281365498202,201.75184573739898 19.17578743622289,201.90987358200073 19.099771247594617,202.062633455178 19.004751011787448,202.20485783187905 19.014253035391448,202.39448983495095 19.123526306531858,202.42609511334012 19.152032377256546,202.5314459268193 19.152032377256546,202.6209939798282 19.104522259382065,202.77901964539706 19.142530353710754,202.8738348545994 19.251803624851163,202.9528474199651 19.384831954957917,202.99498741433126 19.52261129685212,203.0950697880653 19.574872426543152,203.2425593123371 19.707900756649906,203.3689786299292 19.878937181085348,203.47432786757417 20.049973605491687,203.53226987323433 20.18300193559844,203.4585254931444 20.35878937182133,203.46906040987233 20.534576808015117,203.53226987323433 20.71511525605456,203.5691420309231 20.905155727639794,203.59021182562356 21.009677986992756,203.60074672033807 21.147457328886958,203.63761883797633 21.261481611814816,203.65342116749525 21.39926095373812,203.66395605164143 21.527538272057427,203.70082813231056 21.65581559034763,203.71663044600064 21.82685201478307,203.71663044600064 21.955129333102377,203.7693047963221 22.08815766320913,203.7851070928482 22.249692064069677,203.80090938539797 22.41122646490112,203.81144424490049 22.572760865732562,203.76403736327848 22.69628717226442,203.71136300855142 22.81031145522138,203.76403736327848 22.96709484429448,203.80090938539797 23.066866091859993,203.71136300855142 23.142882280488266,203.76403736327848 23.280661622382468,203.8325139586268 23.33767376386095,204.01160624095428 23.39468590533943,204.1327566140244 23.44219602321391,204.2855111003737 23.551469294383423,204.15382622034303 23.746260777756106,204.22230239229248 23.94105226112879,204.1801632183524 24.09308463841444,204.04321070855076 24.23561499209609,203.9431298401396 24.41140242831898,204.01687365330872 24.534928734850837,204.10641959619898 24.739222241798416,204.1222218082039 24.915009677992202,204.1169544046461 25.02903396092006,204.05901293639909 25.185817350022262,203.96946692617348 25.347351750853704,203.94839725823113 25.475629069143906,203.83778138595153 25.599155375675764,203.91679274310445 25.732183705782518,204.01687365330872 25.86996304767672,204.03267588777453 25.974485307058785,204.05374552754802 26.088509590015747,203.98526917252457 26.235790955484845,203.96946692617348 26.40207636813284,204.0010714148957 26.554108745389385,203.9431298401396 26.672884040133795,203.90099047958574 26.76790427591186,203.87465336494643 26.924687664955854,203.88518821213802 27.067218018637504,203.96419950985 27.190744325169362,203.99053658709454 27.304768608126324,204.02214106524116 27.42829491465818,204.10641959619898 27.480556044349214,204.2591741463766 27.58032729194383,204.38559142521626 27.55182122119004,204.54888003520318 27.532817174011143,204.70163351326482 27.51381312686135,204.86492130466286 27.466303008957766,205.01767401695543 27.594580327306176,205.14408977482162 27.54707020940259,205.27577258637757 27.395037832146045,205.36531674112484 27.26676051382674,205.43379159718825 27.214499384135706,205.57600836827987 27.257258490251843,205.72875935768752 27.342776702455012,205.88150997701814 27.49005806792411,205.99212226342206 27.642090445180656,206.06586367986893 27.63258842160576,206.21334625406598 27.737110680987826,206.29762185585787 27.889143058244372,206.33449239621768 27.946155199722853,206.4872415480022 28.10293858879595,206.5715167836861 28.26922400141484,206.66632628917796 28.378497272584355,206.77693719875242 28.48301953196642,206.8980822580197 28.57803976771538,207.04029572622312 28.673060003551655,207.17197457747534 28.79658631005441,207.29838601594383 28.98187576982309,207.32472170038818 29.157663206075085,207.34052310579136 29.300193559756735,207.38792729820125 29.485483019525418,207.45113283265528 29.628013373236172,207.50907118356554 29.80380080942996,207.55647524926826 29.932078127749264,207.63021483618286 30.084110505034914,207.62494772568607 30.22664085868746,207.5670094812449 30.392926271335455,207.54067389799093" stroke="#4DD2FF" stroke-dasharray="none" stroke-linecap="round" stroke-linejoin="round" stroke-width="0.5"><title>2026-03-14 12.0km</title><desc>9223370263378906807</desc></polyline></svg>