<?xml version="1.0" encoding="utf-8" ?>
<svg baseProfile="full" height="300mm" version="1.1" viewBox="0,0,200,300" width="200mm" xmlns="http://www.w3.org/2000/svg" xmlns:ev="http://www.w3.org/2001/xml-events" xmlns:xlink="http://www.w3.org/1999/xlink"><defs /><rect fill="#222222" height="300" width="200" x="0" y="0" /><text fill="#FFFFFF" style="font-size:12px; font-family:Arial; font-weight:bold;" x="10" y="20">Over 10km Runs</text><text fill="#FFFFFF" style="font-size:4px; font-family:Arial" x="10" y="280">Runner</text><text fill="#FFFFFF" style="font-size:9px; font-family:Arial" x="10" y="290">yihong0618</text><text fill="#FFFFFF" style="font-size:4px; font-family:Arial" x="65" y="280">SPECIAL TRACKS</text><rect fill="yellow" height="2.6" width="2.6" x="65" y="283" /><text fill="#FFFFFF" style="font-size:3px; font-family:Arial" x="70" y="285.5">Over 20.0 km</text><rect fill="red" height="2.6" width="2.6" x="65" y="287" /><text fill="#FFFFFF" style="font-size:3px; font-family:Arial" x="70" y="289.5">Over 40.0 km</text><text fill="#FFFFFF" style="font-size:4px; font-family:Arial" x="120" y="280">STATISTICS</text><text fill="#FFFFFF" style="font-size:3px; font-family:Arial" x="120" y="285">Number: 1</text><text fill="#FFFFFF" style="font-size:3px; font-family:Arial" x="120" y="290">Weekly: 1.0</text><text fill="#FFFFFF" style="font-size:3px; font-family:Arial" x="141" y="285">Total: 12.0 km</text><text fill="#FFFFFF" style="font-size:3px; font-family:Arial" x="141" y="290">Avg: 12.0 km</text><text fill="#FFFFFF" style="font-size:3px; font-family:Arial" x="167" y="285">Min: 12.0 km</text><text fill="#FFFFFF" style="font-size:3px; font-family:Arial" x="167" y="290">Max: 12.0 km</text><polyline fill="none" opacity="1" points="31.694703501678305,207.5301416149996 31.594932254083687,207.47747073226856 31.50466303009307,207.37212883483153 31.499912018305622,207.27205386924106 31.414393806102453,207.21938277093068 31.30512053493294,207.22464988273714 31.233855358092114,207.14037604095574 31.115080063347705,207.0613692120096 31.010557803994743,207.108773321248 30.89178250922123,207.13510892211343 30.773007214505924,207.17724586059921 30.668484955152962,207.1614445119667 30.55921168398345,207.1456431593615 30.421432342089247,207.15091027734525 30.27415097662015,207.17197874482736 30.11736758754705,207.18778009082234 29.984339257440297,207.25098543519198 29.86081295090844,207.19304720525906 29.685025514714653,207.14037604095574 29.580503255332587,207.0877048326438 29.414217842684593,207.06663633701464 29.276438500819495,206.99816367755557 29.138659158925293,206.9349580797425 28.986626781639643,206.92969094373984 28.844096427957993,206.9665608865689 28.65405595637276,206.8770195594334 28.56853774416959,206.70847083401895 28.525778638053453,206.64526494581514 28.42600739048794,206.48724994812437 28.345240190043114,206.40297512078178 28.250219954235945,206.27129547753066 28.174203765636776,206.23442512813563 28.064930494467262,206.17648596411163 27.89864508184837,206.1554171639982 27.846383952128235,206.02900421540835 27.846383952128235,205.9078582352122 27.694351574900793,205.944728775572 27.60408235088107,205.81831540455823 27.60408235088107,205.64976384897454 27.480556044349214,205.6234276276955 27.35227872602991,205.54968614963582 27.285764561005635,205.42853924842348 27.16698926623212,205.32319392771387 27.152736230869778,205.15464104845523 27.271511525614187,204.99662231489856 27.437796938233078,204.9650185206483 27.566074256552383,204.80173199802084 27.518564138677903,204.69111830693146 27.46155199719942,204.55943508828932 27.442547950020526,204.40668221009037 27.532817174011143,204.26446368041434 27.566074256552383,204.10117534329765 27.52331515046535,203.9747582757118 27.485307056136662,203.81146918820014 27.376033784996253,203.69558635337307 27.219250395923154,203.63764485609136 27.219250395923154,203.64817967773342 27.2430054548895,203.64817967773342 27.214499384135706,203.65344708790508 27.22875241949805,203.64817967773342 27.219250395923154,203.65344708790508 27.214499384135706,203.66398190690234 27.214499384135706,203.65871449762562 27.128981171903433,203.54283138199753 27.138483195507433,203.4111457647523 27.181242301594466,203.2952621940167 27.26200950203929,203.21098309969238 27.338025690667564,203.1477737050045 27.456800985411974,203.06349441347265 27.570825268368935,202.96868007583544 27.689600563113345,202.85806316832895 27.72760865741293,202.7579810371426 27.656343480543,202.66316623995954 27.570825268368935,202.55781629805278 27.537568185827695,202.39979105504244 27.566074256552383,202.28917314923092 27.570825268368935,202.17328751588866 27.618335386243416,202.02579640166005 27.49005806792411,201.9415156100149 27.46155199719942,201.87303738381524 27.3807847967837,201.76768612132219 27.456800985411974,201.57805340511186 27.509062115073903,201.45689887104527 27.504311103286454,201.2988708679586 27.58032729194383,201.13557484852572 27.618335386243416,201.00915183324832 27.642090445180656,200.87746092268208 27.627837409818312,200.74576973694275 27.63258842160576,200.6246136030495 27.594580327306176,200.52452792547774 27.58507830373128,200.36122989979776 27.680098539509345,200.21900224238198 27.699102586659137,200.0767742639946 27.661094492359553,199.93454596463562 27.67059651593445,199.78178187818048 27.665845504147,199.60794643280678 27.67059651593445,199.4235749819345 27.181242301594466,198.66501248058194 27.0957240894204,198.6492089980493 27.06246700687916,198.55438801958007 27.02920992433792,198.4806382710267 27.00545486540068,198.43849551881067 26.96744677107199,198.34367422328432 26.905683617835166,198.29626352202104 26.82966742917779,198.23304919816655 26.758402252366068,198.1751026789534 26.70614112264593,198.1013524864975 26.63012493401766,198.0223343273865 26.511349639302352,197.91697662775914 26.42583142707008,197.86429771189796 26.34031321486691,197.87483349860122 26.22628893190995,197.8959050666963 26.12651768431533,197.91697662775914 26.01724441317492,197.85902981788604 25.974485307058785,197.7484039419578 25.922224177367752,197.67465325011653 25.803448882623343,197.6588495192118 25.70367763505783,197.65358160802862 25.708428646845277,197.6167062174136 25.73693471759907,197.6167062174136 25.72268168220762,197.60617038754208 25.689424599695485,197.63777787183062 25.670420552545693,197.63250995889393 25.679922576091485,197.6483136964016 25.67517156433314,197.63777787183062 25.694175611482933,197.61143830270157 25.694175611482933,197.5956345559389 25.622910434642108,197.46920443912677 25.608657399279764,197.39545342050042 25.565898293163627,197.3217023155703 25.523139187076595,197.3006305554518 25.447122998419218,197.25321906940007 25.375857821607497,197.2268793395342 25.29509062116267,197.2005395986307 25.257082526833983,197.21107549631415 25.233327467896743,197.20580754769617 25.133556220302125,197.2479511243073 25.071793067036197,197.290094672735 24.986274854833027,197.290094672735 24.94351574871689,197.3322381929829 24.843744501151377,197.37964961958278 24.78198134788545,197.44286479953007 24.734471229981864,197.4534006566937 24.65845504135359,197.48500821759808 24.582438852725318,197.5271516074863 24.477916593372356,197.56929496918383 24.37339433399029,197.6641174299657 24.28787612178712,197.76947555235893 24.169100827042712,197.77474345384326 24.097835650201887,197.77474345384326 23.988562379032373,197.7589397480442 23.95055428473279,197.75367184521747 23.964807320095133,197.73260022955947 23.983811367244925,197.74313603826886 23.94105226112879,197.76947555235893 23.87928910786286,197.7009927928375 23.79852190744714,197.6799211595462 23.722505718818866,197.73786813413244 23.670244589156937,197.65358160802862 23.56097131795832,197.7009927928375 23.480204117571702,197.59036663946245 23.413689952518325,197.52188368530187 23.356677811039845,197.49027614287843 23.342424775648396,197.48500821759808 23.285412634169916,197.40598928560212 23.209396445541643,197.37438168505105 23.199894421966746,197.37964961958278 23.19039239839185,197.36384581467428 23.176139363029506,197.290094672735 23.204645433754195,197.20580754769617 23.16663733945461,197.1373241755755 23.114376209763577,197.0583048075532 23.090621150826337,196.98455330800425 23.05261305649765,196.92133766825646 23.01460496216896,196.81071014608096 23.009853950381512,196.62633051082958 22.919584726390895,196.55257850565977 22.881576632062206,196.45248636057295 22.81031145522138,196.39980622035364 22.79130740807159,196.3049818569234 22.720042231230764,196.20488931851287 22.68203413693118,196.11533270199288 22.663030089752283,196.09952857997996 22.6250219954527,196.10479662108264 22.64877705438994,196.10479662108264 22.629773007211043,196.09952857997996 22.639275030815043,196.0942605384298 22.644026042573387,196.0942605384298 22.686785148689523,196.0363120522743 22.691536160506075,196.02050791045258 22.629773007211043,196.02577595817274 22.629773007211043,196.0415800986775 22.620270983636146,196.0415800986775 22.629773007211043,196.05211619015608 22.6250219954527,196.0415800986775 22.629773007211043,196.0363120522743 22.63452401899849,196.03104400543816 22.639275030815043,196.03104400543816 180.90973077600938,92.01699773764994 180.81471054023132,92.0750423158388 180.81471054023132,92.0750423158388 180.81471054023132,92.0750423158388 180.7244413162407,92.13308684016738 23.08587013903889,196.9740173724349 23.128629245155025,197.1057164402555 23.185641386604402,197.19000369919013 23.16663733945461,197.31643437620005 23.1951434101793,197.4534006566937 23.256906563445227,197.5429553714239 23.304416681348812,197.6641174299657 23.299665669561364,197.83269034123077 23.328171740286052,198.00653068368047 23.36142882279819,198.18563841368086 23.380432869977085,198.3173349492099 23.39468590533943,198.491173954666 23.36617983461474,198.6597446535161 23.37093084640219,198.7545654734422 23.266408587020123,198.859921772706 23.057364068285096,198.8757252024152 22.92908674996579,198.90733204992648 22.786556396255037,198.95474229146566 22.620270983636146,199.02849148518726 22.482491641741944,199.07063384283902 22.373218370601535,199.1180439615382 22.26394509943202,199.17598961370095 22.126165757508716,199.24447077031073 22.078655639634235,199.31295185251292 22.050149568909546,199.3340229397545 22.031145521759754,199.3392907104644 21.97888439206872,199.39723615920957 21.883864156261552,199.41830721827864 21.755586837942246,199.4446460321924 21.66531761395163,199.51312689687256 21.6130564842897,199.56580443444545 21.546542319178116,199.67115937750714 21.42776702446281,199.6658916345441 21.337497800472192,199.65008840299197 21.209220482123783,199.6816948621381 21.08569417562103,199.6816948621381 20.985922928055516,199.6290174214264 20.876649656886002,199.63955291307866 20.805384480045177,199.67115937750714 20.724617279600352,199.70803356596298 20.610592996672494,199.75017546923118 20.50131972550298,199.78178187818048 20.449058595811948,199.86606555787512 20.430054548662156,199.97141999898668 20.401548477937467,200.0399002912818 20.35878937182133,200.07150655493024 20.320781277492642,200.0873096807918 20.225761041714577,200.10311280272072 20.116487770545064,200.0767742639946 19.997712475829758,200.09784509585006 19.912194263597485,200.13471903467507 19.93119831077638,200.1768606526275 19.92644729895983,200.28748226565222 19.90269224002259,200.32962378144293 19.888439204660244,200.37703295303072 19.869435157481348,200.445512804592 19.831427063181764,200.5455986076413 19.72215379201225,200.58247228450273 19.622382544446737,200.6088106118841 19.536864332243567,200.6351489282897 19.451346120011294,200.6667548934347 19.418089037499158,200.62988126589335 19.36582790777902,200.61934593978003 19.34207284884178,200.57720461768258 19.308815766329644,200.55613394608372 19.35632588423323,200.49292188902473 19.38008094317047,200.5087249092212 19.31831778990454,200.5403309377616 19.304064754542196,200.65095191283763 19.299313742725644,200.81424918786797 19.37532993138302,200.97754603980502 19.40383600210771,201.10923674125297 19.25655463663861,201.1671805627302 19.161534400860546,201.32520889599982 19.17578743622289,201.52010996135505 19.09502023580717,201.67286983453232 19.009502023604,201.84669958470477 19.05701214147848,202.02052885547528 19.147281365498202,202.08900692143652 19.142530353710754,202.1943576468766 19.11877529474441,202.31551076345568 19.123526306531858,202.48933874139038 19.242301601276267,202.56308379931943 19.39908499032026,202.6157587878879 19.55111736760591,202.73691109453284 19.60812950905529,202.89493549240797 19.79341896888218,203.0318896501085 19.988210452225758,203.11616898388456 20.140242829482304,203.11090152883116 20.349287348246435,203.06876187249873 20.534576808015117,203.14250625258865 20.7388703149918,203.18464585961192 20.957416857301723,203.20571565255887 21.052437093108892,203.21098309969238 21.19496744676144,203.27419243099575 21.351750835834537,203.27945987242128 21.48477916594129,203.30579707289507 21.651064578589285,203.32686682535495 21.82685201478307,203.32686682535495 21.974133380281273,203.3742737426328 22.130916769296164,203.40587833433528 22.297202181944158,203.4164131947182 22.515748724283185,203.4216806242548 22.663030089752283,203.33213426236034 22.786556396255037,203.36900630913442 22.952841808932135,203.4111457647523 23.07161710364744,203.31106451166488 23.161886327638058,203.400610903489 23.328171740286052,203.51122685894006 23.323420728498604,203.71138857067126 23.41844096427667,203.84307356072895 23.503959176508943,203.7956669959931 23.732007742393762,203.82727137643815 23.94105226112879,203.7903995977067 24.11208868556423,203.64291226712885 24.297378145332914,203.54283138199753 24.463663557980908,203.65871449762562 24.634699982387247,203.7271907840004 24.87225057190517,203.73245818755822 25.00527890198282,203.67451672416428 25.162062291055918,203.5955055518789 25.3568537744286,203.5533662194939 25.489882104535354,203.4585526186529 25.632412458217004,203.55863363758544 25.78444483547355,203.66398190690234 25.926975189184304,203.67978413212768 26.04575048389961,203.61657520749213 26.2215379201225,203.56916847244065 26.40207636813284,203.61130779425002 26.56361076896428,203.5533662194939 26.691888087254483,203.50595943689768 26.815414393815445,203.4796223200501 26.995952841825783,203.5480988009549 27.162238254473777,203.5797033055278 27.26676051382674,203.6218426203086 27.409290867537493,203.7008537595866 27.480556044349214,203.86941052573093 27.58032729194383,204.0116299466099 27.566074256552383,204.19598797764047 27.504311103286454,204.36454341992794 27.475805032561766,204.55416775382764 27.58507830373128,204.6963856299517 27.556572232977487,204.8649397343579 27.414041879295837,204.97555312047916 27.26200950203929,205.0492952700697 27.20499736056081,205.2125811515325 27.295266584551428,205.39166840619873 27.3807847967837,205.5549534009333 27.58032729194383,205.63396211754298 27.651592468784656,205.7814447902747 27.708604610263137,205.9078582352122 27.889143058244372,205.93419433767122 27.9604082351143,206.09747792735652 28.145697694882983,206.2133563473799 28.302481083926978,206.32396736782903 28.44501143763773,206.44511254853205 28.516276614478556,206.60839481511357 28.64930494458531,206.7348066020495 28.787084286479512,206.90335525709088 28.98187576982309,206.9349580797425 29.186169276799774,206.9612937532038 29.352454689418664,207.03503358034504 29.5519971846079,207.08243770939953 29.699278550047893,207.12984180281637 29.87981699805823,207.22991699409613 30.050853422522778,207.25098543519198 30.207636811566772,207.18251297591632 30.40242829491035,207.15091027734525 30.597219778283034,207.15091027734525 30.749252155568684,207.1614445119667 30.90128453282523,207.11930756291986 31.053316910081776,207.0561020865498 31.19584726379253,207.05083496065345 31.319373570324387,207.15617739486697 31.47615695936838,207.19304720525906 31.55217314796755,207.29312229624702 31.580679218721343,207.44060108818303 31.689952489890857,207.5828124537402 31.79922576106037,207.68815399922823 31.8609889143263,207.7724271089137 31.94175611474202,207.75662590942738 31.96551117367926,207.67235277863074 32.01777230337029,207.67761985259858 32.09378849202767,207.7882283044455 32.18880872777663,207.90937067194318 32.2838289635838,208.02524576220458 32.44536336441524,208.00944462608095 32.52613056486007,207.9831093903813 32.51662854128517,207.97257529303897 32.58789371809689,207.96204119392132 32.57364068273455,207.97257529303897 32.59739574170089,207.9831093903813 32.63540383600048,207.95677414369493 32.63065282421303,207.95677414369493 32.678162942116614,207.993643485981 32.796938236861024,208.04104689438827" stroke="#4DD2FF" stroke-dasharray="none" stroke-linecap="round" stroke-linejoin="round" stroke-width="0.5"><title>2026-03-14 12.0km</title><desc>9223370263378906807</desc></polyline></svg>