<?xml version="1.0" encoding="utf-8" ?>
<svg baseProfile="full" height="300mm" version="1.1" viewBox="0,0,200,300" width="200mm" xmlns="http://www.w3.org/2000/svg" xmlns:ev="http://www.w3.org/2001/xml-events" xmlns:xlink="http://www.w3.org/1999/xlink"><defs /><rect fill="#222222" height="300" width="200" x="0" y="0" /><text fill="#FFFFFF" style="font-size:12px; font-family:Arial; font-weight:bold;" x="10" y="20">Over 10km Runs</text><text fill="#FFFFFF" style="font-size:4px; font-family:Arial" x="10" y="280">Runner</text><text fill="#FFFFFF" style="font-size:9px; font-family:Arial" x="10" y="290">yihong0618</text><text fill="#FFFFFF" style="font-size:4px; font-family:Arial" x="65" y="280">SPECIAL TRACKS</text><rect fill="yellow" height="2.6" width="2.6" x="65" y="283" /><text fill="#FFFFFF" style="font-size:3px; font-family:Arial" x="70" y="285.5">Over 20.0 km</text><rect fill="red" height="2.6" width="2.6" x="65" y="287" /><text fill="#FFFFFF" style="font-size:3px; font-family:Arial" x="70" y="289.5">Over 40.0 km</text><text fill="#FFFFFF" style="font-size:4px; font-family:Arial" x="120" y="280">STATISTICS</text><text fill="#FFFFFF" style="font-size:3px; font-family:Arial" x="120" y="285">Number: 1</text><text fill="#FFFFFF" style="font-size:3px; font-family:Arial" x="120" y="290">Weekly: 1.0</text><text fill="#FFFFFF" style="font-size:3px; font-family:Arial" x="141" y="285">Total: 12.0 km</text><text fill="#FFFFFF" style="font-size:3px; font-family:Arial" x="141" y="290">Avg: 12.0 km</text><text fill="#FFFFFF" style="font-size:3px; font-family:Arial" x="167" y="285">Min: 12.0 km</text><text fill="#FFFFFF" style="font-size:3px; font-family:Arial" x="167" y="290">Max: 12.0 km</text><polyline fill="none" opacity="1" points="30.44043638923904,207.28258668983835 30.29790603555739,207.29838803979874 30.14587365827174,207.29312092359396 30.022347351768985,207.38266183933956 29.889319021633128,207.36159340001177 29.732535632589133,207.27731957231663 29.613760337844724,207.24571685789124 29.46647897240473,207.2193812504338 29.342952665872872,207.14564149104626 29.190920288587222,207.09823731446522 29.048389934934676,207.05610023871122 28.929614640161162,207.0719016454168 28.620798873831518,207.00342885440477 28.635051909222966,206.96129171529174 28.573288755957037,206.80854434993307 28.49727256729966,206.75060559730628 28.421256378671387,206.57678901998588 28.316734119318426,206.49778132645224 28.24071793066105,206.39770477250204 28.145697694882983,206.360834423107 28.050677459104918,206.29762805971768 27.89864508184837,206.27129205626989 27.851134963944787,206.15541351037973 27.846383952128235,206.03426753018357 27.70385359847569,206.07113807054338 27.59933133906452,205.96052638476976 27.60883336266852,205.79197487141937 27.49480907971156,205.76037141251436 27.376033784996253,205.7024316966672 27.304768608126324,205.58128484608096 27.20499736056081,205.48647410495323 27.157487242657226,205.32845588626515 27.195495336985914,205.13883350102697 27.376033784996253,205.09669511575703 27.532817174011143,205.00715095351916 27.556572232977487,204.85439885382948 27.442547950020526,204.77012167488647 27.475805032561766,204.62263634061674 27.485307056136662,204.46461595675646 27.542319197615143,204.3171299077767 27.58032729194383,204.18017826763753 27.485307056136662,204.06956326416912 27.456800985411974,203.90627409481021 27.361780749604804,203.79039120187372 27.219250395923154,203.7745889727048 27.224001407710603,203.76932156210023 27.2430054548895,203.77985638287646 27.219250395923154,203.77985638287646 27.22875241949805,203.7745889727048 27.219250395923154,203.77985638287646 27.214499384135706,203.79039120187372 27.214499384135706,203.785123792597 27.138483195507433,203.69031035019725 27.133732183719985,203.55335734832624 27.16698926623212,203.46381099390783 27.2430054548895,203.35319473343043 27.338025690667564,203.28471790347976 27.409290867537493,203.21097354189988 27.532817174011143,203.1214267011237 27.656343480543,203.0108098398341 27.72760865741293,202.93179767721813 27.713355622050585,202.82644797299872 27.594580327306176,202.7474355792947 27.55182122119004,202.61574803636177 27.556572232977487,202.48932773631532 27.58032729194383,202.37870976577324 27.58032729194383,202.23648637559018 27.58032729194383,202.11006531488601 27.480556044349214,202.05738979810485 27.442547950020526,201.99417911983983 27.40453985572094,201.85195486199154 27.46155199719942,201.6939275324512 27.504311103286454,201.56750538354027 27.504311103286454,201.40947734083602 27.58507830373128,201.25671652293022 27.618335386243416,201.1355611282197 27.642090445180656,201.00387021765346 27.63258842160576,200.88271433689806 27.627837409818312,200.75629056086473 27.594580327306176,200.67200790261268 27.58507830373128,200.5297806612507 27.656343480543,200.35594693039093 27.699102586659137,200.2347898041262 27.675347527721897,200.10309701138613 27.67059651593445,199.96086848616324 27.661094492359553,199.80810415710948 27.684849551296793,199.58159084965155 27.656343480543,199.53418098459952 27.157487242657226,198.79668960218987 27.06246700687916,198.7545469767938 27.03871194794192,198.6544581285525 27.019707900763024,198.57017265933973 26.995952841825783,198.53856557933977 26.957944747497095,198.4490120998853 26.905683617835166,198.38052994148165 26.815414393815445,198.34892276634855 26.76790427591186,198.31204770865224 26.701390110887587,198.2172260326406 26.606369875080418,198.13293997865185 26.511349639302352,198.04338592273052 26.42583142707008,197.99070700686934 26.34031321486691,198.0012427935726 26.235790955484845,198.02231436166767 26.131268696131883,198.04338592273052 26.02199542496237,197.99597490043016 25.98873834242113,197.8958848473303 25.931726200971752,197.8063304545176 25.831954953377135,197.78525881418318 25.717930670420174,197.7957946352326 25.71317965866183,197.74838342664225 25.717930670420174,197.73784759767295 25.71317965866183,197.75891925386532 25.689424599695485,197.7694550792985 25.670420552545693,197.75365134048116 25.694175611482933,197.75365134048116 25.689424599695485,197.764187166802 25.684673587908037,197.75891925386532 25.69892662327038,197.74311551238497 25.656167517154245,197.67990050682056 25.618159422825556,197.57980995166508 25.599155375675764,197.49552304506142 25.55639626958873,197.43757573136463 25.518388175260043,197.40596808325063 25.44237198663177,197.35855658135551 25.36160478621605,197.3532886345056 25.290339609375224,197.32168094410736 25.257082526833983,197.33748479128553 25.233327467896743,197.33221684266755 25.143058243906125,197.36909247374933 25.071793067036197,197.41650396770638 25.00052789019537,197.41123602569496 24.948266760533443,197.44811161054167 24.848495512938825,197.49552304506142 24.81523843042669,197.55873823558431 24.758226288919104,197.56927409450145 24.682210100319935,197.61141751256946 24.615695935266558,197.63775713455834 24.51592468767194,197.69043634548143 24.416153440106427,197.73784759767295 24.330635227874154,197.84847371405704 24.230863980279537,197.90115274881464 24.140594756318023,197.8958848473303 24.036072496935958,197.90115274881464 23.955305296491133,197.8853490430156 23.97430934367003,197.86427742910382 23.96955833188258,197.88008114018885 23.95055428473279,197.86427742910382 23.91729720219155,197.87481323692919 23.865036072500516,197.82213418014362 23.79377089565969,197.8063304545176 23.713003695273073,197.85900952453085 23.65599155376549,197.779990903 23.55622030617087,197.82213418014362 23.480204117571702,197.71677593443383 23.42319197609322,197.65356090245768 23.356677811039845,197.6166854378498 23.342424775648396,197.61141751256946 23.299665669561364,197.54293444388168 23.228400492691435,197.49552304506142 23.1951434101793,197.51132684863478 23.199894421966746,197.50079098002243 23.16663733945461,197.45337954947172 23.1951434101793,197.3532886345056 23.204645433754195,197.27953733224422 23.128629245155025,197.21632186162242 23.104874186159577,197.158374291168 23.057364068285096,197.0898907301198 23.043111032922752,197.00560316815972 23.009853950381512,196.884439600326 22.981347879656823,196.7158638140063 22.905331690999446,196.65264777786797 22.857821573124966,196.58416366713936 22.81031145522138,196.5156794819777 22.76755234913435,196.40505102562383 22.69628717226442,196.31022647986538 22.68203413693118,196.23120591605402 22.644026042573387,196.2154017913963 22.6250219954527,196.23120591605402 22.644026042573387,196.23647395672742 22.629773007211043,196.22593787495134 22.639275030815043,196.2206698334012 22.644026042573387,196.2154017913963 22.686785148689523,196.17852548512747 22.691536160506075,196.14691720542396 22.65827907793573,196.17325743961192 22.63452401899849,196.16272134724568 22.620270983636146,196.1679893936489 22.620270983636146,196.17852548512747 22.629773007211043,196.17325743961192 22.629773007211043,196.1679893936489 22.629773007211043,196.15745330040954 22.639275030815043,196.16272134724568 22.63452401899849,196.15745330040954 180.90973077600938,92.14340703262133 180.81471054023132,92.20145161081018 180.81471054023132,92.20145161081018 180.81471054023132,92.20145161081018 180.7244413162407,92.25949613513876 23.09537216258468,197.1162305700891 23.147633292275714,197.24266164876462 23.185641386604402,197.34275273945605 23.176139363029506,197.4586474879543 23.1951434101793,197.57980995166508 23.256906563445227,197.66936466639527 23.309167693107156,197.80106254508792 23.299665669561364,197.95909963620215 23.328171740286052,198.12767209652156 23.36617983461474,198.29097623742928 23.380432869977085,198.4279406744463 23.380432869977085,198.57017265933973 23.36617983461474,198.7545469767938 23.380432869977085,198.8546356660736 23.323420728498604,198.97579544569453 23.11912722152192,198.97579544569453 22.98609889144427,199.03374134489786 22.838817525975173,199.06008037236097 22.69628717226442,199.1338295907517 22.55375681858277,199.18650755104682 22.415977476688568,199.22864988756191 22.316206229123054,199.28132776860002 22.202181946166093,199.33400560558584 22.09290867499658,199.40248672785674 22.050149568909546,199.4604322347259 22.059651592484443,199.4498966919855 22.021643498155754,199.48150331491343 21.950378321344033,199.5183776883132 21.86486010911176,199.54471651325002 21.7508358261548,199.57632308863685 21.65581559034763,199.6448039475872 21.60830547247315,199.6974814807545 21.546542319178116,199.79756867247852 21.42776702446281,199.79230092951548 21.337497800472192,199.77649769796335 21.218722505727783,199.80810415710948 21.099947210983373,199.81337189875558 21.004926975205308,199.76596220805004 20.895653704035794,199.76596220805004 20.805384480045177,199.79756867247852 20.743621326779248,199.81863963995784 20.658103114546975,199.8607815537689 20.548829843406565,199.8976557052556 20.47281365474919,199.96086848616324 20.430054548662156,200.05041981725662 20.439556572237052,200.13997102108624 20.38254443075857,200.17684500921678 20.344536336429883,200.20845126758286 20.282773183193058,200.20845126758286 20.173499912023544,200.22425439082144 20.07847967624548,200.20318355896597 19.950202357926173,200.2295220976921 19.916945275414037,200.26639603343938 19.93119831077638,200.33487614255137 19.92644729895983,200.42442694220517 19.89794122823514,200.4718361375817 19.878937181085348,200.51924529728058 19.864684145723004,200.57718977736658 19.826676051394315,200.67200790261268 19.72215379201225,200.7088815794741 19.622382544446737,200.7352199068555 19.54636635578936,200.75629056086473 19.460848143615294,200.80896716503048 19.418089037499158,200.7615582232611 19.370578919595573,200.7352199068555 19.34207284884178,200.7141492458286 19.31831778990454,200.6878109096324 19.37532993138302,200.63513420419258 19.37532993138302,200.62459885783755 19.332570825266885,200.67727557205944 19.26605666024261,200.70361391265396 19.332570825266885,200.85637607113676 19.32306880169199,201.04601133896358 19.418089037499158,201.1671669058196 19.34207284884178,201.2514489019195 19.232799577672267,201.35680123855855 19.152032377256546,201.5253646109013 19.190040471585235,201.67285719190477 19.06176315326593,201.8466872907302 19.004751011787448,202.00471423728231 19.076016188657377,202.13640305677472 19.161534400860546,202.23121883645945 19.152032377256546,202.3313020047135 19.11877529474441,202.46825766166876 19.123526306531858,202.61574803636177 19.242301601276267,202.6894930942908 19.38958296677447,202.7369005859764 19.532113320427015,202.84225043985498 19.598627485480392,203.00027489054628 19.75541087455349,203.13722909403077 19.945451346138725,203.2320433683053 20.116487770545064,203.2741829999759 20.306528242130298,203.18463624898868 20.47281365474919,203.2636480946967 20.672356149938423,203.2952528052374 20.87189864506945,203.33212494753025 21.009677986992756,203.33739239466377 21.147457328886958,203.37426451230203 21.275734647206264,203.3953342841196 21.42776702446281,203.40586916739267 21.560795354569564,203.43747380663626 21.731831779005006,203.4427412449768 21.89336617983645,203.4690784300401 22.026394509943202,203.4954156041058 22.1736758754123,203.53755505972367 22.354214323451743,203.55335734832624 22.544254795007873,203.53228762930667 22.68203413693118,203.45327612032634 22.81031145522138,203.4954156041058 22.971845856052823,203.53228762930667 23.07636811543489,203.43747380663626 23.161886327638058,203.52702019846038 23.323420728498604,203.63236873186906 23.318669716682052,203.80619342709906 23.404187928914325,203.93261108621664 23.480204117571702,203.93787848317152 23.693999648094177,203.93261108621664 23.893542143225204,203.91154149396607 24.074080591264647,203.80092601913566 24.216610944917193,203.69031035019725 24.41140242831898,203.75351932763442 24.54443075839663,203.8536000789718 24.791483371460345,203.8536000789718 24.934013725141995,203.827263054558 25.086046102427645,203.76932156210023 25.257082526833983,203.69557776741203 25.423367939481977,203.61656646308256 25.53739222243894,203.62710130938285 25.69892662327038,203.71138001639338 25.81770191801479,203.7745889727048 25.969734295271337,203.7956586107248 26.083758578199195,203.72191484685027 26.25004399084719,203.70611260049918 26.435333450644976,203.73244967554274 26.577863804326626,203.67450809592629 26.70614112264593,203.63236873186906 26.824916417419445,203.60076419032703 26.995952841825783,203.67450809592629 27.14798521908233,203.70611260049918 27.2430054548895,203.74298450246351 27.390286820358597,203.80619342709906 27.480556044349214,203.97475024959203 27.570825268368935,204.11170233600205 27.55182122119004,204.28552570952888 27.52331515046535,204.44354654229392 27.504311103286454,204.62790367992056 27.518564138677903,204.7911909801769 27.594580327306176,204.93340860676835 27.49005806792411,205.06509130831182 27.32377265530522,205.11249701353518 27.22875241949805,205.27051577351085 27.224001407710603,205.4338014094028 27.333274678880116,205.58128484608096 27.466303008957766,205.72350069042295 27.642090445180656,205.80250935419463 27.63258842160576,205.95525915680992 27.756114728137618,206.03426753018357 27.893894070060924,206.09747415759557 28.003167341201333,206.25022324558086 28.183705789211672,206.35030003361317 28.311983107530978,206.46617822131157 28.44976244942518,206.58205619604632 28.521027626266005,206.74007127292862 28.64930494458531,206.86121589702088 28.777582262904616,207.02449741341115 28.962871722702403,207.05610023871122 29.157663206075085,207.07716878011706 29.30969558333163,207.1298401028107 29.51874010206666,207.19831275654724 29.666021467535757,207.25625109778775 29.841808903758647,207.3089222708877 29.989090269227745,207.38266183933956 30.160126693663187,207.31418938579372 30.32166109449463,207.3036551555706 30.506950554292416,207.28258668983835 30.682737990515307,207.28258668983835 30.825268344196957,207.26678533592712 30.986802745057503,207.21411412761518 31.105578039801912,207.15090861957287 31.24810839345446,207.2088470043709 31.366883688198868,207.3089222708877 31.50466303009307,207.3405249536445 31.556924159784103,207.46693552624856 31.604434277687687,207.60388002723994 31.70895653704065,207.73029007189325 31.808727784635266,207.83563158218385 31.879992961446987,207.89356933783347" stroke="#4DD2FF" stroke-dasharray="none" stroke-linecap="round" stroke-linejoin="round" stroke-width="0.5"><title>2026-03-14 12.0km</title><desc>9223370263378906807</desc></polyline></svg>