<?xml version="1.0" encoding="utf-8" ?>
<svg baseProfile="full" height="300mm" version="1.1" viewBox="0,0,200,300" width="200mm" xmlns="http://www.w3.org/2000/svg" xmlns:ev="http://www.w3.org/2001/xml-events" xmlns:xlink="http://www.w3.org/1999/xlink"><defs /><rect fill="#222222" height="300" width="200" x="0" y="0" /><text fill="#FFFFFF" style="font-size:12px; font-family:Arial; font-weight:bold;" x="10" y="20">Over 10km Runs</text><text fill="#FFFFFF" style="font-size:4px; font-family:Arial" x="10" y="280">Runner</text><text fill="#FFFFFF" style="font-size:9px; font-family:Arial" x="10" y="290">yihong0618</text><text fill="#FFFFFF" style="font-size:4px; font-family:Arial" x="65" y="280">SPECIAL TRACKS</text><rect fill="yellow" height="2.6" width="2.6" x="65" y="283" /><text fill="#FFFFFF" style="font-size:3px; font-family:Arial" x="70" y="285.5">Over 20.0 km</text><rect fill="red" height="2.6" width="2.6" x="65" y="287" /><text fill="#FFFFFF" style="font-size:3px; font-family:Arial" x="70" y="289.5">Over 40.0 km</text><text fill="#FFFFFF" style="font-size:4px; font-family:Arial" x="120" y="280">STATISTICS</text><text fill="#FFFFFF" style="font-size:3px; font-family:Arial" x="120" y="285">Number: 1</text><text fill="#FFFFFF" style="font-size:3px; font-family:Arial" x="120" y="290">Weekly: 1.0</text><text fill="#FFFFFF" style="font-size:3px; font-family:Arial" x="141" y="285">Total: 12.0 km</text><text fill="#FFFFFF" style="font-size:3px; font-family:Arial" x="141" y="290">Avg: 12.0 km</text><text fill="#FFFFFF" style="font-size:3px; font-family:Arial" x="167" y="285">Min: 12.0 km</text><text fill="#FFFFFF" style="font-size:3px; font-family:Arial" x="167" y="290">Max: 12.0 km</text><polyline fill="none" opacity="1" points="28.739574168575928,207.29311887773656 28.64930494458531,207.2720503204946 28.56853774416959,207.10350160914822 28.5305296498409,207.04556288555978 28.42600739048794,206.92968527867197 28.39750131976325,206.80854028013346 28.273975013231393,206.68739504883342 28.235966918902704,206.66105909817634 28.13144465952064,206.61892155425812 28.04592644731747,206.55571518557554 27.89864508184837,206.53991358350322 27.841632940340787,206.42403504731556 27.87013901109458,206.3081562981497 27.74661270456272,206.32922517747647 27.60408235088107,206.29762185585787 27.623086398059968,206.1132688306352 27.556572232977487,206.0289929824321 27.452049973624526,206.00792400277714 27.34752771424246,205.9289152663696 27.285764561005635,205.81830286906916 27.181242301594466,205.72875935768752 27.152736230869778,205.58127564994356 27.195495336985914,205.40218782670127 27.366531761421356,205.36531674112484 27.504311103286454,205.30737642021631 27.556572232977487,205.14408977482162 27.49480907971156,205.0703472802088 27.466303008957766,204.9386640395751 27.447298961837078,204.80698052386288 27.532817174011143,204.6752967331122 27.537568185827695,204.53307793014756 27.566074256552383,204.40666094704648 27.471054020774318,204.29604587888753 27.447298961837078,204.14855881941912 27.357029737817356,204.0484781182713 27.219250395923154,204.0379432983791 27.219250395923154,204.0379432983791 27.2430054548895,204.0379432983791 27.214499384135706,204.04321070855076 27.22875241949805,204.04321070855076 27.219250395923154,204.04321070855076 27.20974837234826,204.0484781182713 27.214499384135706,204.05374552754802 27.219250395923154,204.0484781182713 27.12423016014509,203.91679274310445 27.138483195507433,203.80090938539797 27.16698926623212,203.70082813231056 27.2430054548895,203.61654905910473 27.333274678880116,203.54807222915406 27.390286820358597,203.48486278164637 27.504311103286454,203.39531595584776 27.60883336266852,203.3057690028254 27.699102586659137,203.2320243577742 27.722857645596378,203.1424771727834 27.661094492359553,203.05292986060522 27.57557628012728,202.97391742068066 27.537568185827695,202.8264272678207 27.566074256552383,202.73161198734306 27.57557628012728,202.63679656422028 27.58032729194383,202.49457316213375 27.59933133906452,202.3839547386524 27.485307056136662,202.32601167742905 27.456800985411974,202.26280100446093 27.3807847967837,202.1627173092711 27.437796938233078,201.9836197738914 27.49956009152811,201.89933840468439 27.49956009152811,201.7571133386009 27.52331515046535,201.60962033849137 27.60408235088107,201.48846511590818 27.627837409818312,201.35677439244682 27.656343480543,201.25142161555414 27.627837409818312,201.13553335758843 27.627837409818312,201.01964488653903 27.59933133906452,200.9458975667294 27.59933133906452,200.83000874699792 27.642090445180656,200.65090742460598 27.70385359847569,200.5402857653462 27.699102586659137,200.4296639119275 27.656343480543,200.29797097609116 27.675347527721897,200.1610100309299 27.661094492359553,200.00297780127585 27.675347527721897,199.82387412858952 27.20499736056081,199.04950827416178 27.14323420729488,199.04950827416178 27.06246700687916,199.01263347231725 27.03871194794192,198.9178124542268 27.02920992433792,198.83352698501403 27.00070385361323,198.81245560011303 26.96744677107199,198.73343784393 26.905683617835166,198.6912950001206 26.848671476356685,198.6333485438554 26.786908323090756,198.5701341671811 26.73464719337062,198.5332590848302 26.677635051921243,198.45424097855357 26.573112792539177,198.36995488932007 26.5065986274858,198.28040079596758 26.435333450644976,198.2382576491873 26.34031321486691,198.2645971192469 26.240541967272293,198.28566868734197 26.15977476685657,198.30147235880577 26.036248460324714,198.29093657827616 25.993489354208577,198.19084657536223 25.945979236334097,198.11709594518106 25.888967094855616,198.0433452286743 25.774942811898654,198.0591489609069 25.69892662327038,198.03807731704728 25.708428646845277,198.00646983805927 25.746436741144862,198.01173775231655 25.71317965866183,198.02227357953961 25.694175611482933,198.0275414924763 25.679922576091485,198.01173775231655 25.684673587908037,198.02227357953961 25.670420552545693,198.0328094049728 25.67517156433314,198.02227357953961 25.694175611482933,198.00120192334725 25.69892662327038,197.99066609260626 25.622910434642108,197.89057561274967 25.608657399279764,197.82209256125861 25.570649304951075,197.72726975168553 25.546894246013835,197.70093005703893 25.508886151685147,197.66932240892493 25.43762097484432,197.62191090702981 25.36160478621605,197.6166429601799 25.29509062116267,197.5903032192764 25.26183353862143,197.59557116834185 25.257082526833983,197.5797673198358 25.166813302843366,197.62191090702981 25.10029913778999,197.66405446603676 25.043286996311508,197.67459035136926 24.98152384304558,197.69039417609747 24.91976068977965,197.73780562646425 24.848495512938825,197.7852170411461 24.80098539503524,197.82736049093 24.75347527716076,197.83262842017575 24.682210100319935,197.87477183824376 24.620446947054006,197.90111146023264 24.525426711246837,197.9379869125114 24.43040647546877,197.9748623432024 24.354390286811395,198.07495268917046 24.268872074608225,198.16450707448894 24.164349815255264,198.16450707448894 24.11208868556423,198.1539712710619 24.00756642621127,198.1487033686899 23.94105226112879,198.1487033686899 23.964807320095133,198.12236385020515 23.964807320095133,198.13816756260348 23.96955833188258,198.13816756260348 23.91729720219155,198.13816756260348 23.865036072500516,198.08548850581792 23.79852190744714,198.0696847801919 23.741509765968658,198.12236385020515 23.670244589156937,198.04861313985748 23.589477388712112,198.06441687076222 23.518212211871287,198.03807731704728 23.44219602321391,197.94325483249486 23.385183881764533,197.91164730594755 23.356677811039845,197.8800397635241 23.3329227520735,197.87477183824376 23.285412634169916,197.8010208381238 23.223649480903987,197.75887737073572 23.1951434101793,197.77468117430908 23.209396445541643,197.76414530569673 23.16663733945461,197.7325376892877 23.185641386604402,197.64825063470562 23.1951434101793,197.57449936944613 23.152384304092266,197.52181984144045 23.114376209763577,197.4480684281989 23.090621150826337,197.39012082868794 23.0478620447102,197.33217317585877 23.028857997560408,197.2373496290311 23.005102938594064,197.1267219773763 22.981347879656823,196.96868213807466 22.905331690999446,196.91600210354227 22.872074608516414,196.84751799281366 22.81031145522138,196.78430182454395 22.79130740807159,196.69474547756909 22.724793243018212,196.6051890033268 22.67253211332718,196.5314365171689 22.65827907793573,196.4787561170706 22.629773007211043,196.4840241590755 22.63452401899849,196.48929220062564 22.644026042573387,196.49982828240172 22.629773007211043,196.48929220062564 22.644026042573387,196.49456024172832 22.644026042573387,196.4787561170706 22.686785148689523,196.44714785587712 22.691536160506075,196.41553957881843 22.686785148689523,196.45241590050864 22.63452401899849,196.42607567291998 22.6250219954527,196.43661176528622 22.620270983636146,196.44714785587712 22.6250219954527,196.43661176528622 22.6250219954527,196.4313437193232 22.629773007211043,196.42607567291998 22.63452401899849,196.42080762608384 22.639275030815043,196.42607567291998 181.0,92.34871672625741 180.90973077600938,92.40676135829563 180.81471054023132,92.46480593648448 180.81471054023132,92.46480593648448 180.81471054023132,92.46480593648448 180.7244413162407,92.52285046081306 23.08587013903889,197.36378099308058 23.128629245155025,197.4375325049732 23.1951434101793,197.53235575055442 23.16663733945461,197.64298269004576 23.19039239839185,197.75360943531996 23.204645433754195,197.8642359863843 23.27115959880757,197.94852275205267 23.309167693107156,198.06441687076222 23.299665669561364,198.22245396187645 23.313918704923708,198.3594191202501 23.36142882279819,198.51745547150495 23.375681858189637,198.66495570842744 23.38993489355198,198.78084850952655 23.380432869977085,198.94415164022575 23.37093084640219,199.07584740511447 23.375681858189637,199.16013255021244 23.256906563445227,199.24968539335168 23.081119127222337,199.24968539335168 22.95759282069048,199.29182786375168 22.824564490583725,199.32870250221822 22.69628717226442,199.397183916426 22.568009853945114,199.43932628818584 22.43973253565491,199.4762008403486 22.354214323451743,199.5236109471407 22.240190040465677,199.58155658479154 22.126165757508716,199.6342343909564 22.078655639634235,199.7027154731586 22.050149568909546,199.72378656040019 22.050149568909546,199.71851878925736 22.00263945100596,199.75539317806397 21.931374274165137,199.79753531027382 21.836354038357968,199.8133386025802 21.7508358261548,199.83967741431115 21.65581559034763,199.9081582732615 21.6130564842897,199.95556805509113 21.560795354569564,200.04511976792492 21.465775118762394,200.06092299815282 21.385007918346673,200.0345842789029 21.261481611814816,200.06092299815282 21.161710364249302,200.07672622442988 21.061939116654685,200.06092299815282 20.971669892664067,200.0240487881165 20.876649656886002,200.02931653372434 20.805384480045177,200.06092299815282 20.734119303204352,200.08199396563214 20.658103114546975,200.1241358794432 20.558331866952358,200.15574229631966 20.487066690140637,200.2136873527561 20.430054548662156,200.29797097609116 20.439556572237052,200.37698677061053 20.396797466120915,200.4349316236221 20.35878937182133,200.46127017557592 20.320781277492642,200.47707330143749 20.24476508886437,200.48760871649574 20.140242829482304,200.47707330143749 20.04522259370424,200.46653788464027 19.940700334351277,200.508679541319 19.916945275414037,200.53501806245185 19.93119831077638,200.59823046822567 19.92644729895983,200.68251357730696 19.90744325183914,200.71411971415728 19.90269224002259,200.7562612052934 19.888439204660244,200.80893802960054 19.864684145723004,200.90375620239502 19.788667957065627,200.98803890290583 19.67464367413777,200.9722359051484 19.603378497296944,201.0091095604257 19.527362308639567,201.0407155334833 19.441844096436398,201.05125085431428 19.41333802571171,201.01964488653903 19.370578919595573,200.9985742325298 19.34207284884178,200.9827712374281 19.31831778990454,200.9511652353067 19.35632588423323,200.93536222828698 19.370578919595573,200.88795318351185 19.346823860658333,200.9300945584073 19.304064754542196,200.9458975667294 19.304064754542196,201.0407155334833 19.304064754542196,201.19874516108757 19.34207284884178,201.33570385117127 19.427591061074054,201.45685936736845 19.332570825266885,201.52007084860452 19.223297554126475,201.62542317643602 19.152032377256546,201.77818373901027 19.190040471585235,201.92040875755265 19.08551821220317,202.0731686051986 19.009502023604,202.22592808262198 19.02850607072469,202.4050249295069 19.137779341894202,202.44189774658298 19.142530353710754,202.53671346286865 19.152032377256546,202.63679656422028 19.09502023580717,202.80008970421477 19.171036424435442,202.88436986902525 19.26605666024261,202.95811492079883 19.40383600210771,203.00552240853358 19.532113320427015,203.10560476552928 19.589125461905496,203.25836174090728 19.717402780253906,203.384781026798 19.893190216447692,203.49013023802036 20.059475629066583,203.54280477761858 20.21625901813968,203.44799057466298 20.38254443075857,203.4795953248322 20.553580855194014,203.5375373256502 20.7388703149918,203.5744094802576 20.93366179833538,203.59021182562356 21.009677986992756,203.60601416703867 21.156959352461854,203.65342116749525 21.275734647206264,203.6586886097939 21.423016012646258,203.66922349306697 21.546542319178116,203.70082813231056 21.693823684676317,203.71663044600064 21.836354038357968,203.71663044600064 21.964631356706377,203.7693047963221 22.111912722175475,203.79037452413468 22.26394509943202,203.80090938539797 22.43973253565491,203.81144424490049 22.58701390112401,203.76403736327848 22.70578919586842,203.72189788300602 22.83406651415862,203.7693047963221 22.99084990323172,203.79564195498097 23.07636811543489,203.70082813231056 23.147633292275714,203.7798396611215 23.313918704923708,203.87465336494643 23.328171740286052,204.03267588777453 23.408938940701773,204.13802401626526 23.44219602321391,204.26444153804914 23.579975365108112,204.14855881941912 23.770015836693347,204.22230239229248 23.964807320095133,204.1696284204845 24.11208868556423,204.03267588777453 24.264121062820777,203.92732758323837 24.42565546365222,204.02214106524116 24.558683793788077,204.1169544046461 24.78198134788545,204.1169544046461 24.91976068977965,204.10115219131694 25.057540031673852,204.0484781182713 25.200070385384606,203.95893209308633 25.375857821607497,203.9325950026432 25.489882104535354,203.84831623929858 25.608657399279764,203.93786242160058 25.746436741144862,204.0379432983791 25.884216083068168,204.0484781182713 25.993489354208577,204.0484781182713 26.098011613590643,203.99053658709454 26.25954601445119,203.96419950985 26.435333450644976,203.99580400121704 26.568361780780833,203.93786242160058 26.677635051921243,203.90625790120248 26.786908323090756,203.8693859406958 26.948442723951302,203.90625790120248 27.09097307760385,203.96946692617348 27.185993313411018,203.99580400121704 27.319021643488668,204.02214106524116 27.442547950020526,204.1222218082039 27.480556044349214,204.27497632010272 27.58032729194383,204.40139356725558 27.561323244764935,204.56468213630433 27.518564138677903,204.71216822225324 27.504311103286454,204.88599066629104 27.480556044349214,205.0492779801898 27.594580327306176,205.15989172672562 27.532817174011143,205.302109115677 27.376033784996253,205.36531674112484 27.252507478464395,205.46012806048748 27.20974837234826,205.59707749228983 27.276262537401635,205.76036296446182 27.35227872602991,205.90257899890275 27.504311103286454,205.9973895103103 27.64684145699721,206.08693264017347 27.627837409818312,206.23441516507228 27.756114728137618,206.29762185585787 27.893894070060924,206.35029404976376 27.965159246872645,206.49250875353755 28.136195671308087,206.59785277173796 28.283477036777185,206.676860669897 28.402252331521595,206.7980059214351 28.487770543753868,206.92968527867197 28.597043814894278,207.04556288555978 28.67781101531,207.18777602114278 28.834594404353993,207.31945456438552 29.01513285236433,207.31945456438552 29.186169276799774,207.35105737384947 29.328699630481424,207.40372868775012 29.51874010206666,207.45639995766032 29.647017420385964,207.51433830372116 29.82280485657975,207.56174236547304 29.94158015132416,207.63021483618286 30.09836354039726,207.60914639157636 30.24089389407891,207.572276596562" stroke="#4DD2FF" stroke-dasharray="none" stroke-linecap="round" stroke-linejoin="round" stroke-width="0.5"><title>2026-03-14 12.0km</title><desc>9223370263378906807</desc></polyline></svg>