<?xml version="1.0" encoding="utf-8" ?>
<svg baseProfile="full" height="300mm" version="1.1" viewBox="0,0,200,300" width="200mm" xmlns="http://www.w3.org/2000/svg" xmlns:ev="http://www.w3.org/2001/xml-events" xmlns:xlink="http://www.w3.org/1999/xlink"><defs /><rect fill="#222222" height="300" width="200" x="0" y="0" /><text fill="#FFFFFF" style="font-size:12px; font-family:Arial; font-weight:bold;" x="10" y="20">Over 10km Runs</text><text fill="#FFFFFF" style="font-size:4px; font-family:Arial" x="10" y="280">Runner</text><text fill="#FFFFFF" style="font-size:9px; font-family:Arial" x="10" y="290">yihong0618</text><text fill="#FFFFFF" style="font-size:4px; font-family:Arial" x="65" y="280">SPECIAL TRACKS</text><rect fill="yellow" height="2.6" width="2.6" x="65" y="283" /><text fill="#FFFFFF" style="font-size:3px; font-family:Arial" x="70" y="285.5">Over 20.0 km</text><rect fill="red" height="2.6" width="2.6" x="65" y="287" /><text fill="#FFFFFF" style="font-size:3px; font-family:Arial" x="70" y="289.5">Over 40.0 km</text><text fill="#FFFFFF" style="font-size:4px; font-family:Arial" x="120" y="280">STATISTICS</text><text fill="#FFFFFF" style="font-size:3px; font-family:Arial" x="120" y="285">Number: 1</text><text fill="#FFFFFF" style="font-size:3px; font-family:Arial" x="120" y="290">Weekly: 1.0</text><text fill="#FFFFFF" style="font-size:3px; font-family:Arial" x="141" y="285">Total: 12.0 km</text><text fill="#FFFFFF" style="font-size:3px; font-family:Arial" x="141" y="290">Avg: 12.0 km</text><text fill="#FFFFFF" style="font-size:3px; font-family:Arial" x="167" y="285">Min: 12.0 km</text><text fill="#FFFFFF" style="font-size:3px; font-family:Arial" x="167" y="290">Max: 12.0 km</text><polyline fill="none" opacity="1" points="28.635051909222966,207.20357746085574 28.56853774416959,207.0666315184826 28.49727256729966,207.01922708450002 28.430758402246283,206.8559448724991 28.335738166468218,206.78747156097234 28.250219954235945,206.66632628917796 28.202709836361464,206.62945594286793 28.088685553404503,206.5925855750029 27.98891430583899,206.5504479853298 27.884392046456924,206.4767071356291 27.87013901109458,206.38189734498155 27.798873834253754,206.3081562981497 27.680098539509345,206.33449239621768 27.60408235088107,206.20807902520392 27.60883336266852,206.05532919709367 27.504311103286454,206.0289929824321 27.395037832146045,205.98158776831042 27.309519619942876,205.87624272043104 27.2335034312855,205.77616476191906 27.157487242657226,205.66028482198817 27.162238254473777,205.51806824100277 27.300017596338876,205.38111863758968 27.42829491465818,205.36004944143133 27.556572232977487,205.21783218317432 27.54707020940259,205.09668389531726 27.42829491465818,205.00713935901877 27.471054020774318,204.88072332653974 27.475805032561766,204.7332376349368 27.542319197615143,204.61208841585176 27.566074256552383,204.47513684435762 27.51381312686135,204.3592545130341 27.49480907971156,204.22230239229248 27.390286820358597,204.10115219131694 27.276262537401635,204.02740847673704 27.22875241949805,204.0379432983791 27.252507478464395,204.0379432983791 27.2335034312855,204.04321070855076 27.219250395923154,204.04321070855076 27.22875241949805,204.0379432983791 27.219250395923154,204.04321070855076 27.214499384135706,204.0484781182713 27.214499384135706,204.04321070855076 27.157487242657226,203.99580400121704 27.133732183719985,203.85358366531364 27.152736230869778,203.7587699297801 27.20499736056081,203.6586886097939 27.271511525614187,203.58494437760965 27.338025690667564,203.5375373256502 27.447298961837078,203.4585254931444 27.556572232977487,203.3689786299292 27.665845504147,203.26362921622058 27.72760865741293,203.18988452186022 27.71810663380893,203.0950697880653 27.59933133906452,203.01605740097148 27.566074256552383,202.9107073974301 27.54707020940259,202.77901964539706 27.566074256552383,202.6736692457016 27.570825268368935,202.57358620290324 27.613584374455968,202.4366302025992 27.518564138677903,202.34708188767036 27.480556044349214,202.30494146014826 27.414041879295837,202.23119564419903 27.409290867537493,202.05736587950014 27.471054020774318,201.95201427364373 27.504311103286454,201.83085970921456 27.504311103286454,201.6886344886043 27.566074256552383,201.54640894706608 27.623086398059968,201.43578885954412 27.627837409818312,201.30409802602662 27.656343480543,201.18820986490755 27.618335386243416,201.0828568062534 27.60883336266852,200.9722359051484 27.594580327306176,200.88795318351185 27.589829315518728,200.74572583516056 27.675347527721897,200.61403355975926 27.70385359847569,200.48760871649574 27.67059651593445,200.36118361963236 27.67059651593445,200.22949054071432 27.661094492359553,200.08726170639784 27.689600563113345,199.8765517322172 27.67059651593445,199.80807083892432 27.17174027801957,199.06004392786417 27.09097307760385,199.0337047903049 27.071969030454056,198.97049081521618 27.014956888975576,198.8756697337085 27.00070385361323,198.83879483015335 26.986450818250887,198.77558065954872 26.94369171213475,198.7070985698556 26.88192855886882,198.63861640572577 26.815414393815445,198.61227709202285 26.763153264124412,198.5701341671811 26.70614112264593,198.49111610714317 26.63487594583421,198.42263370830915 26.525602674664697,198.33307968982626 26.463839521398768,198.24352554407596 26.40207636813284,198.24352554407596 26.292803096963326,198.26986501192005 26.202533872972708,198.29093657827616 26.098011613590643,198.30147235880577 26.01724441317492,198.24352554407596 25.979236318846233,198.14343546586315 25.931726200971752,198.06441687076222 25.831954953377135,198.04861313985748 25.727432694024174,198.06441687076222 25.708428646845277,198.01700566615546 25.71317965866183,197.99593400818776 25.71317965866183,198.00646983805927 25.69892662327038,198.01173775231655 25.684673587908037,198.0328094049728 25.670420552545693,198.02227357953961 25.689424599695485,198.0328094049728 25.694175611482933,198.0275414924763 25.694175611482933,198.01700566615546 25.69892662327038,198.01173775231655 25.656167517154245,197.94325483249486 25.618159422825556,197.84316427733938 25.603906387492316,197.76941324022846 25.565898293163627,197.71146593621597 25.527890198864043,197.69566211678102 25.456625021994114,197.65351857892892 25.40911490409053,197.60610706513035 25.33309871549136,197.6166429601799 25.28558859755867,197.58503526978166 25.26183353862143,197.58503526978166 25.200070385384606,197.60083911695983 25.133556220302125,197.63771474495297 25.071793067036197,197.67985829338068 25.01478092558682,197.66932240892493 24.95776878410834,197.71146593621597 24.881752595450962,197.75360943531996 24.824740454001585,197.80628876955598 24.772479324310552,197.82736049093 24.72021819461952,197.85370013272768 24.653704029566143,197.86950391252685 24.582438852725318,197.91691522813198 24.4921696287347,197.96432650804854 24.392398381140083,198.0328094049728 24.31638219251181,198.12236385020515 24.226112968521193,198.1592391730046 24.140594756318023,198.1592391730046 24.0598275558732,198.1539712710619 23.96955833188258,198.1487033686899 23.96005630827858,198.13289965891454 23.964807320095133,198.12236385020515 23.964807320095133,198.14343546586315 23.94580327294534,198.1487033686899 23.903044166829204,198.12236385020515 23.836530001746723,198.0696847801919 23.789019883872243,198.08548850581792 23.698750659881625,198.09602432069732 23.65124054197804,198.0275414924763 23.54671828262508,198.08548850581792 23.484955129330046,197.99066609260626 23.42319197609322,197.91691522813198 23.36142882279819,197.885307688357 23.347175787435845,197.89057561274967 23.323420728498604,197.84316427733938 23.261657575232675,197.76941324022846 23.1951434101793,197.76941324022846 23.199894421966746,197.76941324022846 23.19039239839185,197.75360943531996 23.176139363029506,197.69039417609747 23.199894421966746,197.60610706513035 23.199894421966746,197.5376237044511 23.128629245155025,197.47967618729672 23.104874186159577,197.42699658000492 23.07161710364744,197.3690489610999 23.043111032922752,197.29002939489146 23.009853950381512,197.18466981913662 23.009853950381512,197.01609413147526 22.92908674996579,196.95287813233153 22.886327643849654,196.86332202497942 22.829315502371173,196.81064190236066 22.800809431646485,196.7474256970927 22.76755234913435,196.65260127025613 22.686785148689523,196.56831277103265 22.677283125114627,196.48929220062564 22.653528066177387,196.4840241590755 22.6250219954527,196.49456024172832 22.64877705438994,196.49456024172832 22.639275030815043,196.48929220062564 22.629773007211043,196.4840241590755 22.639275030815043,196.4840241590755 22.65827907793573,196.4840241590755 22.70578919586842,196.39973543434826 22.691536160506075,196.41027153109826 22.620270983636146,196.41027153109826 22.629773007211043,196.4313437193232 22.620270983636146,196.4313437193232 22.620270983636146,196.44187981080177 22.6250219954527,196.4313437193232 22.629773007211043,196.4313437193232 22.629773007211043,196.42607567291998 22.629773007211043,196.42607567291998 22.644026042573387,196.42080762608384 180.90973077600938,92.40676135829563 180.81471054023132,92.46480593648448 180.81471054023132,92.46480593648448 180.81471054023132,92.46480593648448 180.7244413162407,92.52285046081306 180.62942108043353,92.58089493128136 23.104874186159577,197.39012082868794 23.142882280488266,197.50601597443892 23.185641386604402,197.58503526978166 23.16663733945461,197.70093005703893 23.180890374816954,197.81155670057342 23.228400492691435,197.9063793833011 23.285412634169916,198.01173775231655 23.299665669561364,198.14343546586315 23.313918704923708,198.25406133254364 23.3329227520735,198.4437052235662 23.347175787435845,198.59120563312172 23.380432869977085,198.7123664255596 23.385183881764533,198.85459836290102 23.36617983461474,199.0179013024681 23.380432869977085,199.11272216997168 23.342424775648396,199.21281070865007 23.171388351242058,199.244417582584 23.019355973956408,199.28129224879376 22.891078655637102,199.29709567057216 22.76755234913435,199.35504151648274 22.620270983636146,199.41825510583294 22.50149568892084,199.4603974634847 22.387471405934775,199.49727200331836 22.297202181944158,199.56575323434663 22.178426887228852,199.60262771253838 22.09290867499658,199.66584105353104 22.054900580696994,199.71851878925736 22.050149568909546,199.72378656040019 22.031145521759754,199.7290543311101 21.983635403827066,199.78699977985525 21.898117191623896,199.80280307482099 21.788843920483487,199.8133386025802 21.70807672003866,199.8765517322172 21.62730951962294,199.91869378340925 21.589301425294252,199.9871745565033 21.527538272057427,200.06092299815282 21.423016012646258,200.050387511772 21.33274678865564,200.03985202363765 21.218722505727783,200.07145848278378 21.11420024637482,200.07672622442988 21.0239310223551,200.03985202363765 20.928910786577035,200.0240487881165 20.829139538982417,200.06092299815282 20.77212739753304,200.06619074069022 20.691360197088216,200.1241358794432 20.596339961281046,200.13993908987686 20.50131972550298,200.17154549882616 20.458560619415948,200.25056145184863 20.42055252508726,200.34538046469243 20.439556572237052,200.41386077414427 20.377793419000227,200.44019933489108 20.344536336429883,200.47180559325716 20.297026218555402,200.47180559325716 20.202005982777337,200.4928764233664 20.111736758757615,200.46653788464027 19.997712475829758,200.48760871649574 19.90744325183914,200.51921495109127 19.93119831077638,200.561356572558 19.93119831077638,200.62983664734202 19.92644729895983,200.69304895801906 19.893190216447692,200.74045814942656 19.888439204660244,200.793134986925 19.864684145723004,200.8510794573449 19.826676051394315,200.93536222828698 19.731655815587146,200.9775035715029 19.646137603383977,200.99330656793973 19.584374450118048,201.01964488653903 19.49410522612743,201.07232149070478 19.427591061074054,201.04598319412253 19.38958296677447,200.9985742325298 19.370578919595573,201.00384189669785 19.34207284884178,200.9511652353067 19.308815766329644,200.9458975667294 19.35632588423323,200.8826855096704 19.38008094317047,200.88795318351185 19.332570825266885,200.94062989773374 19.26605666024261,200.95643290341832 19.332570825266885,201.0986597762785 19.308815766329644,201.26722454332776 19.38958296677447,201.3831125591496 19.38958296677447,201.49900036189865 19.26130564842606,201.54640894706608 19.17578743622289,201.69390209509947 19.147281365498202,201.8677328621743 19.147281365498202,202.00469009858716 19.03800809432869,202.14691460603717 19.009502023604,202.31547656968178 19.09502023580717,202.39975738244902 19.161534400860546,202.49457316213375 19.152032377256546,202.58938879916968 19.11877529474441,202.70527438410136 19.104522259382065,202.86856734671528 19.199542495189235,202.92124240569683 19.34207284884178,202.96338242120328 19.46559915537364,203.03185988629411 19.570121414755704,203.17934955848978 19.655639626958873,203.31103647416603 19.81242301603197,203.4321881936412 19.988210452225758,203.50593260453024 20.125989794149064,203.527002420371 20.311279253917746,203.4427231147638 20.463311631203396,203.52173496706382 20.648601091001183,203.5586071309117 20.81963751540752,203.58494437760965 21.009677986992756,203.6112816132918 21.095196199195925,203.60074672033807 21.20446947036544,203.6586886097939 21.34699982404709,203.66922349306697 21.465775118762394,203.69029325431984 21.622558507835492,203.71663044600064 21.774590885121142,203.71136300855142 21.91237022698624,203.74296762667655 22.026394509943202,203.7587699297801 22.1736758754123,203.80090938539797 22.3304592644854,203.81144424490049 22.52525074785808,203.81144424490049 22.64877705438994,203.7324327557144 22.76755234913435,203.7377001914174 22.910082702816,203.7851070928482 23.033609009347856,203.7482350614846 23.128629245155025,203.7060955706511 23.223649480903987,203.80617681536387 23.356677811039845,203.94839725823113 23.3329227520735,204.11168700063718 23.41844096427667,204.23283718137463 23.484955129330046,204.19596541189094 23.67974661270273,204.19069801448495 23.86028506074217,204.17489581964037 24.050325532298302,204.10641959619898 24.183353862405056,203.97473434206768 24.368643322202843,203.96419950985 24.482667605159804,204.0748151602893 24.65845504135359,204.1222218082039 24.867499560088618,204.1222218082039 24.98152384304558,204.06954775277336 25.138307232118677,204.0063388281378 25.290339609375224,203.95893209308633 25.432869963056874,203.8693859406958 25.53739222243894,203.89045563505715 25.679922576091485,203.96419950985 25.798697870865,204.04321070855076 25.936477212730097,204.06954775277336 26.040999472112162,204.01160624095428 26.188280837610364,203.96419950985 26.349815238441806,203.98526917252457 26.497096603910904,203.95893209308633 26.63012493401766,203.91679274310445 26.729896181612276,203.87992078875686 26.858173499902477,203.8693859406958 27.010205877188127,203.93786242160058 27.162238254473777,203.96946692617348 27.2430054548895,204.0063388281378 27.3807847967837,204.06428034480996 27.485307056136662,204.19069801448495 27.518564138677903,204.343452360441 27.566074256552383,204.48040421800397 27.566074256552383,204.64895994195103 27.509062115073903,204.80698052386288 27.471054020774318,204.95973337654505 27.58032729194383,205.08088192757714 27.58032729194383,205.22309949476767 27.466303008957766,205.33371293633172 27.319021643488668,205.37585133920948 27.22875241949805,205.53387009918515 27.214499384135706,205.6866211906854 27.32377265530522,205.82357013048022 27.409290867537493,205.9710532714489 27.589829315518728,206.0289929824321 27.651592468784656,206.1554067124889 27.675347527721897,206.29235463403893 27.851134963944787,206.29235463403893 27.908147105423268,206.4293022581296 28.036424423742574,206.53464638194419 28.207460848148912,206.62945594286793 28.326236142893322,206.7453341015389 28.454513461183524,206.85067769732268 28.516276614478556,206.99815843575925 28.644553932797862,207.10876876318798 28.739574168575928,207.2720503204946 28.920112616586266,207.31945456438552 29.086398029205156,207.31418742794267 29.247932430065703,207.36685877263517 29.414217842684593,207.44586570719548 29.571001231728587,207.48800269849016 29.71828259722679,207.53013966160142 29.865563962695887,207.59861216663558 30.017596339981537,207.65128327373895" stroke="#4DD2FF" stroke-dasharray="none" stroke-linecap="round" stroke-linejoin="round" stroke-width="0.5"><title>2026-03-14 12.0km</title><desc>9223370263378906807</desc></polyline></svg>