<?xml version="1.0" encoding="utf-8" ?>
<svg baseProfile="full" height="300mm" version="1.1" viewBox="0,0,200,300" width="200mm" xmlns="http://www.w3.org/2000/svg" xmlns:ev="http://www.w3.org/2001/xml-events" xmlns:xlink="http://www.w3.org/1999/xlink"><defs /><rect fill="#222222" height="300" width="200" x="0" y="0" /><text fill="#FFFFFF" style="font-size:12px; font-family:Arial; font-weight:bold;" x="10" y="20">Over 10km Runs</text><text fill="#FFFFFF" style="font-size:4px; font-family:Arial" x="10" y="280">Runner</text><text fill="#FFFFFF" style="font-size:9px; font-family:Arial" x="10" y="290">yihong0618</text><text fill="#FFFFFF" style="font-size:4px; font-family:Arial" x="65" y="280">SPECIAL TRACKS</text><rect fill="yellow" height="2.6" width="2.6" x="65" y="283" /><text fill="#FFFFFF" style="font-size:3px; font-family:Arial" x="70" y="285.5">Over 20.0 km</text><rect fill="red" height="2.6" width="2.6" x="65" y="287" /><text fill="#FFFFFF" style="font-size:3px; font-family:Arial" x="70" y="289.5">Over 40.0 km</text><text fill="#FFFFFF" style="font-size:4px; font-family:Arial" x="120" y="280">STATISTICS</text><text fill="#FFFFFF" style="font-size:3px; font-family:Arial" x="120" y="285">Number: 1</text><text fill="#FFFFFF" style="font-size:3px; font-family:Arial" x="120" y="290">Weekly: 1.0</text><text fill="#FFFFFF" style="font-size:3px; font-family:Arial" x="141" y="285">Total: 12.0 km</text><text fill="#FFFFFF" style="font-size:3px; font-family:Arial" x="141" y="290">Avg: 12.0 km</text><text fill="#FFFFFF" style="font-size:3px; font-family:Arial" x="167" y="285">Min: 12.0 km</text><text fill="#FFFFFF" style="font-size:3px; font-family:Arial" x="167" y="290">Max: 12.0 km</text><polyline fill="none" opacity="1" points="29.91782509238692,207.59071155566926 29.784796762280166,207.49590350743165 29.647017420385964,207.46956791316188 29.5424951610039,207.42216381579055 29.3952137955348,207.406362442096 29.2574344536406,207.34315690764197 29.129157135321293,207.2799513098289 28.986626781639643,207.27468417382624 28.863100475107785,207.31155411665532 28.65405595637276,207.21674564867135 28.606545838469174,207.10613558917976 28.544782685203245,207.01132681233867 28.435509414062835,206.92178505885386 28.41175435509649,206.76376988957418 28.283477036777185,206.66369341087557 28.235966918902704,206.62155589861868 28.13144465952064,206.57415116369884 28.041175435530022,206.51094479501626 27.89864508184837,206.48460878936385 27.851134963944787,206.37399744549475 27.851134963944787,206.2528514652986 27.71810663380893,206.2897220056584 27.59933133906452,206.20544645314294 27.618335386243416,206.03162777035323 27.518564138677903,205.98422259187282 27.399788843933493,205.94735187286278 27.31427063170122,205.83147232987176 27.2335034312855,205.73139437135978 27.157487242657226,205.6049798808781 27.162238254473777,205.46276327612577 27.328523667092668,205.34161554498496 27.456800985411974,205.30474445014625 27.566074256552383,205.14145791389092 27.52331515046535,205.0413788600381 27.452049973624526,204.92549765183867 27.456800985411974,204.7885468584609 27.5280661622528,204.6463284119709 27.537568185827695,204.49884227673465 27.570825268368935,204.36715793585245 27.471054020774318,204.25127548832825 27.437796938233078,204.09852102749937 27.35227872602991,203.99844031799148 27.224001407710603,203.99317290781983 27.22875241949805,203.99317290781983 27.2430054548895,203.99844031799148 27.214499384135706,204.00370772771203 27.22875241949805,203.99317290781983 27.219250395923154,203.99844031799148 27.214499384135706,204.00370772771203 27.214499384135706,203.99844031799148 27.157487242657226,203.95103361065776 27.133732183719985,203.80881327475436 27.152736230869778,203.70873210528953 27.214499384135706,203.60338333420805 27.29051557276398,203.52437164036382 27.35227872602991,203.46642966858417 27.471054020774318,203.3926852638724 27.58032729194383,203.29787090243917 27.689600563113345,203.20305639841536 27.72760865741293,203.10824175176822 27.67059651593445,203.0134269625123 27.58032729194383,202.93968202783435 27.537568185827695,202.7816568772614 27.566074256552383,202.68157407701074 27.57557628012728,202.58149111784223 27.594580327306176,202.43400015152292 27.570825268368935,202.31811415016637 27.480556044349214,202.2707061791225 27.437796938233078,202.20749549557513 27.40453985572094,202.07053879710656 27.456800985411974,201.91251146756622 27.504311103286454,201.79662450742035 27.504311103286454,201.65439931058063 27.566074256552383,201.5016385565068 27.623086398059968,201.38575084093463 27.63258842160576,201.24879235688786 27.64684145699721,201.1329041764002 27.618335386243416,201.01701578282882 27.60408235088107,200.91693018053775 27.594580327306176,200.8115767432755 27.60883336266852,200.63774318674768 27.699102586659137,200.5218538827139 27.699102586659137,200.3954289443318 27.656343480543,200.26373603052707 27.675347527721897,200.12150737453703 27.661094492359553,199.95820741071657 27.675347527721897,199.7738359752475 27.20499736056081,198.99947005608192 27.11947914835764,199.01000571066834 27.067218018637504,198.95205958866063 27.03871194794192,198.8572385467669 27.014956888975576,198.78348874889707 26.991201830038335,198.7413459685049 26.957944747497095,198.66759603500032 26.905683617835166,198.59911387659668 26.820165405602893,198.56750670146357 26.763153264124412,198.52536377662182 26.70614112264593,198.4463457165839 26.63012493401766,198.3673275574729 26.516100651060697,198.27777352401608 26.440084462432424,198.20929094198436 26.387823332770495,198.193487258628 26.27379904978443,198.23036251360463 26.178778814006364,198.2567019682465 26.05525250750361,198.25143407819633 25.998240365996026,198.16714777757807 25.950730248121545,198.06705764917206 25.888967094855616,197.99857483811502 25.774942811898654,198.01437857034762 25.69892662327038,197.98277110191702 25.708428646845277,197.9616994475 25.741685729357414,197.95643153278797 25.72268168220762,197.95116361762848 25.69892662327038,197.97750318898034 25.66566954072914,197.97750318898034 25.69892662327038,197.97750318898034 25.694175611482933,197.98277110191702 25.684673587908037,197.97750318898034 25.69892662327038,197.96696736175727 25.656167517154245,197.89848444193558 25.618159422825556,197.7983938867801 25.603906387492316,197.72464284966918 25.55639626958873,197.65615966647965 25.527890198864043,197.64035584439625 25.447122998419218,197.60348024414634 25.390110856940737,197.55080077778257 25.304592644737568,197.55080077778257 25.266584550437983,197.5455328287171 25.26183353862143,197.53499692927653 25.176315326418262,197.58240846288027 25.10029913778999,197.61928407547748 25.043286996311508,197.62981996080998 24.97677283125813,197.65089172622174 24.915009677992202,197.69830317262677 24.83424247757648,197.75098251568852 24.78198134788545,197.78785802961647 24.734471229981864,197.7983938867801 24.663206053170143,197.83000144768448 24.587189864512766,197.8721448375727 24.501671652309597,197.91955611748926 24.40190040471498,197.98277110191702 24.325884216086706,198.07232555462178 24.226112968521193,198.11446878244533 24.140594756318023,198.11446878244533 24.036072496935958,198.11973668392966 23.955305296491133,198.09866507530387 23.964807320095133,198.07759345964587 23.964807320095133,198.07759345964587 23.95055428473279,198.08286136421884 23.94105226112879,198.11446878244533 23.884040119679412,198.05125393013805 23.812774942809483,198.01964648020294 23.755762801360106,198.06705764917206 23.67974661270273,198.0091106600521 23.589477388712112,198.01964648020294 23.51346120008384,197.98277110191702 23.437445011455566,197.89321652195213 23.36617983461474,197.85634106967336 23.356677811039845,197.83526937296483 23.342424775648396,197.81946559582502 23.266408587020123,197.73517871738295 23.199894421966746,197.71937491513745 23.199894421966746,197.72464284966918 23.19039239839185,197.70883904476068 23.176139363029506,197.65089172622174 23.199894421966746,197.56133667457107 23.1951434101793,197.49285331389183 23.123878233338473,197.42436987880137 23.104874186159577,197.37695822628302 23.057364068285096,197.30847466523483 23.043111032922752,197.22945507918848 23.009853950381512,197.10829152149017 22.98609889144427,196.93444774912132 22.914833714603446,196.88176772341103 22.881576632062206,196.79747959065935 22.81031145522138,196.74479945044004 22.796058419859037,196.65524311095578 22.724793243018212,196.56041861276753 22.67253211332718,196.4761300501268 22.663030089752283,196.4392537685162 22.6250219954527,196.4392537685162 22.644026042573387,196.44978985116904 22.644026042573387,196.44978985116904 22.629773007211043,196.4392537685162 22.639275030815043,196.4392537685162 22.653528066177387,196.44452181006636 22.70578919586842,196.35496504378898 22.691536160506075,196.36550114053898 22.620270983636146,196.36550114053898 22.629773007211043,196.38657332876392 22.620270983636146,196.38657332876392 22.639275030815043,196.39184137472694 22.629773007211043,196.39184137472694 22.629773007211043,196.38657332876392 22.629773007211043,196.37603723552456 22.639275030815043,196.3813052823607 22.629773007211043,196.37603723552456 180.90973077600938,92.36199096773635 180.81471054023132,92.4200355459252 180.81471054023132,92.4200355459252 180.81471054023132,92.4200355459252 180.7244413162407,92.47808007025378 23.08587013903889,197.3190106025213 23.11912722152192,197.43490579673744 23.185641386604402,197.50865717296983 23.171388351242058,197.62981996080998 23.185641386604402,197.74571458335413 23.223649480903987,197.8510731461538 23.280661622382468,197.95116361762848 23.299665669561364,198.0933971720442 23.313918704923708,198.20929094198436 23.3329227520735,198.39893483300693 23.351926799223293,198.55697097289521 23.380432869977085,198.67286389024957 23.38993489355198,198.84143502592633 23.36617983461474,198.9942022281357 23.380432869977085,199.08902306392702 23.313918704923708,199.18911156914328 23.114376209763577,199.1996471920247 22.98609889144427,199.25232528001288 22.838817525975173,199.278664307476 22.701038184051868,199.34187792852026 22.568009853945114,199.39455589762656 22.43973253565491,199.43143044978933 22.34946331163519,199.4893761310159 22.23068801689078,199.5420539768238 22.111912722175475,199.59473177859036 22.078655639634235,199.65794508259933 22.050149568909546,199.6790161698409 22.050149568909546,199.6842839405508 21.99313742740196,199.7316938571239 21.91237022698624,199.7580326842617 21.798345944058383,199.76330044836504 21.71282773182611,199.82651358326984 21.62730951962294,199.87392339284997 21.589301425294252,199.9529396628932 21.513285236695083,200.01615260759354 21.418265000887914,199.99508163307837 21.313742741534952,199.99508163307837 21.19496744676144,200.02142035013094 21.08569417562103,200.0266880922245 20.995424951601308,199.9740106515128 20.886151680460898,199.98454614316506 20.805384480045177,200.01615260759354 20.743621326779248,200.03722357507286 20.658103114546975,200.07936548888392 20.558331866952358,200.11097190576038 20.47281365474919,200.16891696219682 20.430054548662156,200.25846830825685 20.4443075840245,200.34275181183693 20.396797466120915,200.3954289443318 20.349287348246435,200.41649978501664 20.311279253917746,200.42703520269788 20.21625901813968,200.44810603280712 20.121238782361615,200.42703520269788 19.997712475829758,200.44283832593646 19.90744325183914,200.474444560532 19.93119831077638,200.51658618199872 19.92644729895983,200.5903339517572 19.916945275414037,200.65354625714463 19.893190216447692,200.70095544460128 19.888439204660244,200.7588999585896 19.864684145723004,200.8168444193143 19.81717402781942,200.91693018053775 19.69364772128756,200.92219784776898 19.603378497296944,200.96433916986643 19.536864332243567,200.9801421583761 19.451346120011294,201.0117481235211 19.41333802571171,200.97487449597975 19.370578919595573,200.9538038419705 19.34207284884178,200.93800084686882 19.31831778990454,200.9063948447474 19.35632588423323,200.8905918377277 19.361076896020677,200.83791511911113 19.332570825266885,200.88005649752085 19.2945627309673,200.90112717617012 19.327819813479437,201.0275511001455 19.299313742725644,201.20138358152326 19.384831954957917,201.33834216859032 19.38958296677447,201.45422997133937 19.26130564842606,201.5016385565068 19.17578743622289,201.6491317045402 19.156783389073098,201.83349765421008 19.137779341894202,201.97045486773277 19.023755058966344,202.1284820520159 19.004751011787448,202.32338170030926 19.11402428295696,202.37078963174645 19.156783389073098,202.47614046283707 19.152032377256546,202.57622358926892 19.104522259382065,202.73424925483778 19.156783389073098,202.83959947846597 19.25655463663861,202.90807702940583 19.40383600210771,202.9607520179743 19.541615344031015,203.08190432461925 19.598627485480392,203.2188588256613 19.741157839191146,203.35054556528848 19.92644729895983,203.45062730342033 20.09748372339527,203.50330183859478 20.273271159589058,203.4032201841037 20.430054548662156,203.46116221397097 20.629597043822287,203.50330183859478 20.79588245647028,203.53490653858535 20.981171916238964,203.55070888264527 21.095196199195925,203.5559763297788 21.209220482123783,203.61391821923462 21.35650184765109,203.6244531025077 21.48477916594129,203.65605774175128 21.636811543197837,203.67186005544136 21.803096955874935,203.66659261799214 21.931374274165137,203.71399953922082 22.078655639634235,203.74033670228891 22.249692064069677,203.7561389948387 22.41122646490112,203.7666738543412 22.582262889336562,203.7192669727192 22.69628717226442,203.67186005544136 22.83406651415862,203.72453440576282 23.005102938594064,203.7456041335754 23.09537216258468,203.6402554241031 23.161886327638058,203.7456041335754 23.323420728498604,203.85095266698409 23.318669716682052,204.0142425458398 23.404187928914325,204.11432323026384 23.456449058605358,204.1775320017332 23.660742565552937,204.1406602260795 23.841281013563275,204.1301254290811 24.050325532298302,204.0669166100779 24.183353862405056,203.9299639515084 24.37339433399029,203.9299639515084 24.4921696287347,204.04057958345948 24.686961112107383,204.0827188207768 24.886503607267514,204.0827188207768 25.00527890198282,204.01950995425068 25.162062291055918,203.9404987819653 25.33309871549136,203.90362686767185 25.470878057385562,203.79301099539225 25.599155375675764,203.87202235254517 25.732183705782518,203.97210326274944 25.874714059464168,203.99844031799148 25.993489354208577,204.00370772771203 26.10751363716554,203.94576619653526 26.27855006160098,203.91942911929073 26.44958648600732,203.9404987819653 26.59686785150552,203.8825571926791 26.70614112264593,203.85095266698409 26.824916417419445,203.81934812544205 26.995952841825783,203.88782461208393 27.138483195507433,203.9246965356142 27.22875241949805,203.95630102433643 27.376033784996253,204.00897513698874 27.485307056136662,204.14592762392567 27.532817174011143,204.30394935452568 27.556572232977487,204.45143594570618 27.55182122119004,204.6252589851938 27.518564138677903,204.7885468584609 27.46155199719942,204.95183430878024 27.594580327306176,205.07825010887973 27.54707020940259,205.2204675810135 27.40453985572094,205.32054635056556 27.26676051382674,205.38902120662897 27.214499384135706,205.5312379777206 27.26200950203929,205.6997907724981 27.35227872602991,205.85780860834348 27.504311103286454,205.95261911975103 27.651592468784656,206.05269672712893 27.627837409818312,206.21071367848344 27.794122822466306,206.2528514652986 27.89864508184837,206.3476613826606 28.01266936477623,206.47407438402297 28.183705789211672,206.5688839687282 28.311983107530978,206.6847621564266 28.44976244942518,206.80064013116134 28.51152560269111,206.95338804519997 28.644553932797862,207.0639983726287 28.753827203938272,207.23254706991793 28.93911666373606,207.27468417382624 29.105402076384053,207.27468417382624 29.276438500819495,207.3220883820759 29.45697694880073,207.39582819073985 29.604258314269828,207.4590336723777 29.780045750463614,207.50117062495337 29.927327115961816,207.5801773351268 30.084110505034914,207.5801773351268 30.23614288229146,207.52750620600273 30.40242829491035,207.49590350743165 30.58771775473724,207.49590350743165 30.739750131964684,207.5064377420531 30.87277846210054,207.47483503290277 31.015308815753087,207.42743093948593 31.138835122284945,207.3694925546879 31.2718634523917,207.44849942985093 31.381136723561212,207.52223909068562 31.518916065455414,207.56437600101708 31.556924159784103,207.69078656306374" stroke="#4DD2FF" stroke-dasharray="none" stroke-linecap="round" stroke-linejoin="round" stroke-width="0.5"><title>2026-03-14 12.0km</title><desc>9223370263378906807</desc></polyline></svg>